<?xml version="1.0" encoding="utf-8"?><svg width="864" height="814" viewBox="0 0 864 814" xmlns="http://www.w3.org/2000/svg" xmlns:xlink="http://www.w3.org/1999/xlink"><svg viewBox="-1 -1 362 362" width="362" height="362" id="JSD_Logo" x="502" xmlns="http://www.w3.org/2000/svg"><path d="M27 211.1v-41.2h13.2c3.2 0 6.1.5 8.5 1.6 2.4 1.1 4.4 2.6 6 4.4 1.6 1.9 2.8 4 3.6 6.5.8 2.5 1.2 5.2 1.2 8 0 3.1-.5 6-1.4 8.5-.9 2.5-2.2 4.7-3.9 6.5-1.7 1.8-3.7 3.2-6.1 4.2-2.4 1-5.1 1.5-8 1.5H27zm31.4-20.7c0-2.8-.4-5.4-1.2-7.8-.8-2.4-2-4.4-3.5-6.1-1.5-1.7-3.4-3.1-5.7-4-2.3-1-4.8-1.5-7.7-1.5H28.2v38.9h12.1c3 0 5.6-.5 7.9-1.5 2.3-1 4.2-2.3 5.7-4.1s2.7-3.8 3.5-6.2c.6-2.3 1-4.9 1-7.7zM84.5 211.4c-2.9 0-5.5-.6-7.8-1.8-2.3-1.2-4.4-2.8-6.1-4.7-1.7-1.9-3-4.2-3.9-6.7-.9-2.5-1.4-5.1-1.4-7.7 0-2.7.5-5.4 1.5-7.9s2.3-4.7 4.1-6.7c1.7-1.9 3.8-3.5 6.1-4.6 2.3-1.1 4.9-1.7 7.6-1.7 2.8 0 5.4.6 7.8 1.8 2.4 1.2 4.4 2.8 6.1 4.8 1.7 2 3 4.2 3.9 6.7.9 2.5 1.4 5 1.4 7.6 0 2.8-.5 5.4-1.5 7.9s-2.3 4.7-4.1 6.6c-1.7 1.9-3.7 3.4-6.1 4.6-2.3 1.2-4.9 1.8-7.6 1.8zm-18-20.9c0 2.6.5 5 1.4 7.4.9 2.4 2.2 4.5 3.7 6.3 1.6 1.8 3.5 3.3 5.7 4.4 2.2 1.1 4.6 1.6 7.3 1.6s5.1-.6 7.3-1.7 4.1-2.6 5.7-4.5c1.6-1.9 2.8-4 3.7-6.3.9-2.4 1.3-4.8 1.3-7.2 0-2.6-.5-5-1.4-7.4-.9-2.4-2.2-4.5-3.8-6.3-1.6-1.8-3.5-3.3-5.7-4.4-2.2-1.1-4.6-1.6-7.1-1.6-2.7 0-5.1.6-7.3 1.7s-4.1 2.6-5.7 4.5c-1.6 1.9-2.8 4-3.7 6.3-1 2.4-1.4 4.7-1.4 7.2zM150.8 211.1v-38.6L132.6 203h-.9l-18.3-30.5v38.6h-1.2v-41.2h.9l19 31.7 19-31.7h.9v41.2h-1.2zM187.3 175.3c-1.6-1.8-3.3-3-5.1-3.7-1.8-.7-3.9-1-6.3-1s-4.4.2-6.1.7c-1.7.5-3.1 1.1-4.1 2-1.1.9-1.9 1.9-2.4 3.1-.5 1.2-.8 2.6-.8 4.1 0 1.5.3 2.7.8 3.7s1.3 1.8 2.3 2.5c1 .7 2.4 1.3 4 1.7 1.6.5 3.6 1 5.9 1.4 2.3.5 4.3 1 6.2 1.5 1.9.5 3.4 1.2 4.7 2 1.3.8 2.3 1.8 3 3s1 2.7 1 4.5c0 3.4-1.3 5.9-3.9 7.7-2.6 1.8-6.1 2.7-10.6 2.7-3.3 0-6.3-.5-8.8-1.5-2.6-1-5-2.6-7.2-4.8l.9-.8c2.1 2.2 4.4 3.7 6.8 4.7 2.5 1 5.2 1.5 8.4 1.5 4.1 0 7.3-.8 9.7-2.3 2.4-1.5 3.6-3.8 3.6-6.9 0-1.5-.3-2.9-.8-3.9s-1.4-2-2.5-2.8c-1.1-.8-2.6-1.4-4.3-2-1.7-.5-3.8-1-6.1-1.5-2.3-.4-4.3-.9-6.1-1.4-1.8-.5-3.2-1.1-4.5-1.9-1.2-.8-2.1-1.7-2.8-2.8-.6-1.1-.9-2.6-.9-4.3 0-1.8.3-3.4 1-4.7.7-1.4 1.6-2.5 2.9-3.5 1.3-.9 2.8-1.7 4.5-2.1 1.8-.5 3.7-.7 5.9-.7 2.6 0 4.9.4 6.9 1.1 2 .8 3.7 2 5.4 3.8l-.6.9zM226.1 171.1h-15.8v40h-1.2v-40h-15.8v-1.2H226v1.2zM259.9 209.9v1.2h-27v-41.2h26.5v1.2h-25.3v18.4h22.2v1.2h-22.2V210h25.8zM268.7 211.1v-41.2h16.8c1.7 0 3.2.4 4.6 1.1 1.4.7 2.7 1.7 3.7 2.8 1 1.2 1.8 2.5 2.4 4 .6 1.5.9 3 .9 4.6 0 1.6-.3 3.1-.8 4.6-.5 1.5-1.2 2.8-2.1 3.9-.9 1.1-2 2.1-3.3 2.8-1.3.7-2.7 1.1-4.3 1.2l10.4 16.2h-1.4l-10.4-16.2h-15.3v16.2h-1.2zm1.1-17.4h16c1.5 0 2.9-.3 4.2-1 1.2-.7 2.3-1.5 3.2-2.6.9-1.1 1.5-2.3 2-3.6.5-1.4.7-2.7.7-4.2s-.3-2.9-.8-4.2c-.5-1.4-1.3-2.6-2.2-3.6-1-1-2.1-1.9-3.3-2.5-1.3-.6-2.6-1-4.1-1h-15.6v22.7zM329.7 175.3c-1.6-1.8-3.3-3-5.1-3.7-1.8-.7-3.9-1-6.3-1s-4.4.2-6.1.7c-1.7.5-3.1 1.1-4.1 2-1.1.9-1.9 1.9-2.4 3.1-.5 1.2-.8 2.6-.8 4.1 0 1.5.3 2.7.8 3.7s1.3 1.8 2.3 2.5c1 .7 2.4 1.3 4 1.7 1.6.5 3.6 1 5.9 1.4 2.3.5 4.3 1 6.2 1.5 1.9.5 3.4 1.2 4.7 2 1.3.8 2.3 1.8 3 3 .7 1.2 1 2.7 1 4.5 0 3.4-1.3 5.9-3.9 7.7-2.6 1.8-6.1 2.7-10.6 2.7-3.3 0-6.3-.5-8.8-1.5-2.6-1-5-2.6-7.2-4.8l.9-.8c2.1 2.2 4.4 3.7 6.8 4.7s5.2 1.5 8.4 1.5c4.1 0 7.3-.8 9.7-2.3 2.4-1.5 3.6-3.8 3.6-6.9 0-1.5-.3-2.9-.8-3.9-.5-1.1-1.4-2-2.5-2.8-1.1-.8-2.6-1.4-4.3-2-1.7-.5-3.8-1-6.1-1.5-2.3-.4-4.3-.9-6.1-1.4-1.8-.5-3.2-1.1-4.5-1.9-1.2-.8-2.1-1.7-2.8-2.8-.6-1.1-.9-2.6-.9-4.3 0-1.8.3-3.4 1-4.7.7-1.4 1.6-2.5 2.9-3.5 1.3-.9 2.8-1.7 4.5-2.1 1.8-.5 3.7-.7 5.9-.7 2.6 0 4.9.4 6.9 1.1 2 .8 3.7 2 5.4 3.8l-.6.9z"/><g><path d="M34 157.6c.2.2.5.3 1 .5.4.1.9.2 1.5.2s1.1-.1 1.4-.3c.4-.2.6-.5.8-.9.2-.4.3-.9.4-1.6.1-.6.1-1.3.1-2.2v-7h2.2v7c0 1-.1 2-.2 2.9-.1.9-.3 1.6-.7 2.2-.3.6-.8 1.1-1.5 1.4-.6.3-1.5.5-2.6.5-1.2 0-2.2-.3-3-.9l.6-1.8zM53.8 146.3h1.9l5.4 13.7h-2.3l-1.5-3.7H52l-1.4 3.7h-2.3l5.5-13.7zm3.1 8.4l-2.2-5.9-2.3 5.9h4.5zM68 146.3l3.8 6.9 3.8-6.9H78l-5.1 8.8v4.9h-2.2v-4.9l-5.1-8.8H68zM103.5 149.5c-.1-.1-.3-.3-.6-.5s-.5-.3-.9-.5c-.3-.1-.7-.3-1.1-.3-.4-.1-.8-.1-1.2-.1-.9 0-1.6.2-2 .5-.4.3-.6.8-.6 1.4 0 .3.1.6.2.8.1.2.3.4.6.6.3.2.6.3 1.1.4.4.1.9.3 1.5.4.7.2 1.3.4 1.9.6.6.2 1 .5 1.4.8.4.3.7.7.9 1.1.2.4.3 1 .3 1.6 0 .7-.1 1.3-.4 1.8-.3.5-.6.9-1.1 1.2-.5.3-1 .5-1.6.7-.6.1-1.3.2-2 .2-1 0-2.1-.2-3-.5-1-.3-1.9-.8-2.6-1.4l1-1.9c.2.2.4.4.7.6.3.2.7.4 1.1.6.4.2.9.3 1.4.4.5.1 1 .2 1.5.2.9 0 1.5-.1 2-.4.5-.3.7-.7.7-1.3 0-.3-.1-.6-.3-.9-.2-.2-.4-.4-.7-.6-.3-.2-.7-.3-1.2-.5-.5-.1-1-.3-1.6-.4-.7-.2-1.3-.4-1.8-.6-.5-.2-.9-.4-1.3-.7-.3-.3-.6-.6-.8-1-.2-.4-.3-.8-.3-1.4 0-.7.1-1.3.4-1.8.3-.5.6-1 1.1-1.3.4-.4 1-.6 1.6-.8.6-.2 1.3-.3 2-.3.9 0 1.8.1 2.6.4.8.3 1.5.7 2.1 1.1l-1 1.8zM113 160v-13.7h2.2v7.1l6.5-7.1h2.4l-5.4 6.1 5.7 7.7H122l-4.6-6.3-2.1 2.2v4.1H113zM131.6 160v-13.7h6c.6 0 1.2.1 1.7.4.5.3 1 .6 1.3 1 .4.4.7.9.9 1.4.2.5.3 1.1.3 1.6s-.1.9-.2 1.3-.3.8-.5 1.2c-.2.4-.5.7-.8.9-.3.3-.7.5-1.1.6l3.2 5.2h-2.5l-3-4.8h-3.2v4.8h-2.1zm2.2-6.7h3.8c.3 0 .6-.1.8-.2.3-.1.5-.3.6-.6s.3-.5.4-.8c.1-.3.2-.6.2-1s-.1-.7-.2-1c-.1-.3-.3-.6-.5-.8-.2-.2-.4-.4-.7-.6-.3-.1-.5-.2-.8-.2h-3.7v5.2zM150.2 160v-13.7h2.2V160h-2.2zM161.2 160v-13.7h5.8c.6 0 1.2.1 1.7.4.5.3 1 .6 1.3 1 .4.4.7.9.9 1.4.2.5.3 1.1.3 1.6 0 .6-.1 1.1-.3 1.7-.2.5-.5 1-.8 1.4-.4.4-.8.8-1.3 1-.5.3-1.1.4-1.7.4h-3.7v4.8h-2.2zm2.2-6.7h3.6c.3 0 .6-.1.8-.2.2-.1.5-.3.6-.5.2-.2.3-.5.4-.8.1-.3.2-.6.2-1s-.1-.7-.2-1c-.1-.3-.3-.6-.5-.8-.2-.2-.4-.4-.7-.5-.3-.1-.5-.2-.8-.2h-3.5v5zM189.2 148.2h-4.6V160h-2.2v-11.8h-4.6v-1.9h11.3v1.9zM210.3 146.3h1.9l5.4 13.7h-2.3l-1.5-3.7h-5.3l-1.4 3.7h-2.3l5.5-13.7zm3.1 8.4l-2.2-5.9-2.3 5.9h4.5zM227.2 150.4v9.7H225v-13.7h1.7l7.9 9.9v-9.9h2.2V160H235l-7.8-9.6zM245.7 160v-13.7h4.9c1.1 0 2.1.2 2.9.5.8.4 1.5.8 2.1 1.5.6.6 1 1.3 1.3 2.2.3.8.4 1.7.4 2.7 0 1-.2 2-.5 2.8-.3.8-.8 1.6-1.3 2.2s-1.3 1.1-2.1 1.4c-.8.3-1.7.5-2.8.5h-4.9zm9.4-6.9c0-.7-.1-1.4-.3-2-.2-.6-.5-1.1-.9-1.6-.4-.4-.9-.8-1.4-1-.6-.2-1.2-.4-1.9-.4h-2.7v9.9h2.7c.7 0 1.4-.1 1.9-.4.6-.3 1-.6 1.4-1 .4-.4.7-1 .9-1.6.2-.5.3-1.2.3-1.9zM285.5 148.2h-4.6V160h-2.2v-11.8h-4.6v-1.9h11.3v1.9zM304.4 146.3V160h-2.2v-6h-6.9v6.1h-2.2v-13.7h2.2v5.7h6.9v-5.7h2.2zM322.7 158.1v1.9h-9.4v-13.7h9.2v1.9h-7.1v3.9h6.1v1.8h-6.1v4.2h7.3z"/></g><g><path d="M62.7 212.7l-.5-.6 43.6-43.6.5.6z"/></g></svg><svg id="backdrop_guitar" viewBox="-1 -1 502 452" width="502" height="452" xmlns="http://www.w3.org/2000/svg"><style>.bst0{clip-path:url(#bSVGID_2_)}.bst1{fill:#ee4d25}</style><defs><path id="bSVGID_1_" d="M.5 60.2h504.3v389.5H.5z"/></defs><clipPath id="bSVGID_2_"><use xlink:href="#bSVGID_1_" overflow="visible"/></clipPath><g class="bst0"><path class="bst1" d="M141.2 376.2c-1.3-2.3-2.4-4.7-4.7-6.2-.6-.4-1.2-1-1.7-1.4.3-.7.5-1.2.8-1.7l-.1.1c1.8-1.8 3.6-3.6 5.3-5.5.5-.5.7-1.2 1-1.9 1.2-1.2 2.4-2.3 3.7-3.5l3.3-2.4c1.2.9 2.4 1.8 3.5 2.7 1.5 1 2.9 2.1 4.4 3.1 1.8 1.1 4.5 0 6.4-2.5.1-.1.1-.3.2-.4 1.4-1.6 1.2-4.5-.5-6.2-.9-.8-2-1.4-3.1-2.1l.1.1c-1-1.2-2-2.5-3-3.8.7-.5 1.7-1.3 2.8-2.1.7.4 1.4.7 2 1.1 1.6 1.4 3.3 2.8 4.9 4.2 1 1 1.8 2.1 2.9 2.9 8.1 6 14.5 13.7 20.4 21.8 4.7 6.4 11.7 6.1 16.6 2.2 1.1-.8 1.9-2.1 2.6-3.2 2.6-4 5.1-7.9 7.5-12 1-1.7 2.1-2.3 3.9-1.9 1 .2 2.1.2 3.2.3 2.9.2 4 1.5 3.8 4.5-.2 1.7-.4 3.5-.5 5.2l.1-.1c-.2.6-.4 1.1-.5 1.7-1.7 10.2-3.1 20.4-6.4 30.3-.1.4 0 .9-.1 1.4-2 4.3-3.9 8.7-6 13-4.4 8.8-10.3 16.6-17.2 23.6-6.1 6.1-12.7 11.7-19.1 17.5-.4.2-.9.4-1.3.7-8.5 6.4-17.5 11.9-27.4 15.9-8.6 3.5-17.4 6.1-26.6 7-7.2.7-14.6.6-21.8.8l-7.8-.6c-4.3-.9-8.6-1.7-12.9-2.6-9.4-2.7-18.2-6.8-26.3-12.4-5.3-4.7-10.9-9.1-15.9-14-9.2-9-17.3-18.9-23.1-30.5-3.1-6.2-5.1-12.7-5.9-19.5-.5-4.3-.6-8.7-.3-13.1 1.4-19.4 9.2-36.1 22.4-50.3 12.2-13 26.1-23.7 41.9-31.9 11.1-5.8 22.9-9.3 35.1-11.9 10.7-2.3 21.5-4.5 32.3-6.6 8.9-1.8 15.3-7.2 20.4-14.3 3.3-4.6 6.1-9.6 8.9-14.6 6.2-10.9 15.2-18.5 26.7-23.5 10.3-4.4 20.9-5.7 31.8-3.7 4.8.9 9.4 2.9 14 4.5 2.3.8 4.4 2.2 6.9 3.4-1 .8-1.9 1.5-2.7 2.1l-32.4 24c-1.7 1.3-2.6 1-3.4-1-.2-.6-1.1-1.3-1.6-1.2-1 .2-1.9.9-3.1 1.5.6.7.8 1 1 1.2.2.2.5.4 1 .8-2 1.5-3.8 3-5.8 4.4-.3.2-1.1-.2-1.7-.2-.7 0-1.6 0-2 .4-.4.4-.1 1.3-.2 2 .2.1.4.1.5.2l-5.7 4.5c-.8-.5-1.6-1-2.6-1.6l4.2-3.3c-.1-.2-.3-.3-.4-.5-2.2 1.7-4.4 3.3-6.5 5.1-1 .8-.5 3.2.6 4.1.5.4 1 .7 1.7 1.3-1.8 1.4-3.6 2.6-5.3 3.9-7.6 5.8-15.3 11.5-22.9 17.3-1.1.9-1.9.7-2.9-.1-3.1-2.5-3.2-2.4-6.3-.1-5.7 4.3-11.4 8.7-17.1 13-3.1 2.4-3.2 2.5-1.6 6 .1.3.3.6.5 1.2-1.5 1.1-3 2.3-4.6 3.2-.5.3-1.4-.2-2.1-.3l.1.1c-2.5-2.8-5-3.1-6.9-.7l.1-.1c-.7.4-1.5.7-2 1.3-2.3 2.7-2 7.4.7 10-3 3.8-6 7.6-9 11.3-2.7-.5-3.4-4.8-7.1-3.1 0-.5 0-.9-.1-1.4-.5-2.4-1.9-3.1-4.3-2.5-.9.3-2 .3-2.8.7-.6.4-1 1.2-1.5 1.9-.1.2-.2.3-.3.5-.3 0-.8-.1-1 0-1.3 1.3-1.7 4.5-.5 6.1.8 1.1 1.7 2.2 2.7 3.2 3 2.8 6 5.5 9.1 8.2 2.2 1.9 4.7 3.7 6.9 5.6 2.3 2 4.4 4.2 6.7 6.1 2.5 2.2 5 4.2 7.6 6.3 2.5 2.1 5 4.1 7.5 6.2 1.2 1 2.5 1.4 3.9.7 1-.5 1.9-1.4 2.8-2.1 1.4-1.5 2.8-3.1 4.2-4.6.8-1.2.2-3.1-1.3-3.9-.4-.2-1.2.5-1.8.8l.1-.1zm38.2 28.4c-2.2 2.2-2.6 6.3-.9 8.9 3.9 5.9 12.7 6.1 17.1.4 3.2-4.2 2.9-9.1-1.1-11.9-1.8-1.2-4.1-1.6-6.2-2.4-.1 0-.1.1-.2.1-2.9-.9-7.8 1.7-8.7 4.9zm-71.3 23.3c-.2.3-.3.6-.5 1-2.6 2.2-2.8 5.2-2.2 8.3.7 3.3 2.8 5.4 6 6.1 6.9 1.6 13.9-4.4 13.5-11.5-.2-3.9-2.9-7-6.8-7.9-3.4-.8-8.7 1.1-10 4zm34.8 16c.4 4.3 6.7 7.7 11.4 6.5 6.1-1.5 9.9-7.2 8.5-12.7-1.3-5.1-6.4-7.9-11.9-6.5-5.9 1.4-9.5 7-8 12.7zm-2.8-40.3l-.4.4c1.3 1.4 2.4 3.1 3.9 4.1 4.4 2.9 10.6 1.7 13.9-2.4 4-5 2.9-10.9-2.6-13.4-1.3-.6-2.9-.5-4.3-1-5.5-1.7-12.8 7.3-10.5 12.3zm58.7-162.5c.4 2.1 2.2 3.5.9 5.7-.2.4.8 1.8 1.5 2.3 1.3.8 4.4-.1 5.1-1.4.4-.8.2-1.9.3-2.9 0 0-.1-.1-.2-.1-2.3-1.2-1.6-3.4-2.2-5.3 1.5-.1 2.6-.2 3.8-.3-.3-.3-.6-.4-1-.4-1.8.2-3.4.4-4.1-2-.3-1-1.8-1.8-3-1-.8.6-2 1.9-1.8 2.6.5 1.9-.3 2.8-1.8 3.6-.4.2-.8.7-1.2 1 0 .1.1.1.1.2 1.2-.6 2.3-1.2 3.6-2zm15.3.3c2.6 4 2 7.5-1.6 10.6-2.5 2.1-5.3 3.3-8.5 4.1-6.3 1.6-10.3-.3-12.8-6.6.1 2.6.5 4.4 2.5 5.8 7.8 5.4 19.3 0 21.8-6.1 1.4-3.2 1.1-5.7-1.4-7.8zm-47.4 113.2c-1.1 6.2-8.5 8.9-12.9 4.9.8 2.5 3.8 3.8 7 3 4.1-1 6.6-4.1 5.9-7.9zm32-106c-.1 1.7 1.1 2.2 2.3 2.6 2.2.7 5.2-.2 6.6-2.1.6-.8.8-1.9 1.2-2.9-.2-.1-.4-.2-.6-.2-1.1 3.5-6.3 5.2-9.5 2.6z"/><path class="bst1" d="M53.6 463.5c8.1 5.6 16.8 9.7 26.3 12.4 4.3.9 8.6 1.7 12.9 2.6l7.8.6c.5.2 1.1.5 1.6.6 13.1.8 25.9-1 38.5-4.8 9.1-2.8 17.7-6.8 25.8-11.9 3.9-2.5 7.5-5.5 11.3-8.3 6.4-5.8 13-11.4 19.1-17.5 6.9-6.9 12.8-14.7 17.2-23.6 2.1-4.3 4-8.7 6-13 .1-.2.3-.5.4-.7 1.9-8.3 3.8-16.5 5.6-24.8.6-2.6.7-5.2 1-7.9l-.1.1c.3-1.1.7-2.2 1.1-3.5.5 2.1.9 4 1.3 5.9 3 .1 5-3.1 4.2-6.5-.8-3.4-1.8-6.8-2.6-10.2-.3-1.1-.2-2.3-.3-3.4.2 0 .3-.1.5-.1.2.3.5.6.7.9 2.2 6 4.3 11.9 6.4 17.9.2.5.2 1.2.1 1.8-1.2 5.5-2.6 11.1-3.7 16.6-.8 4.3-1.5 8.6-2.2 12.9-.8 4.8-1.6 9.7-2.6 14.5-3.1 14.3-10 26.8-19.4 38-8.4 10-18 18.8-28.6 26.4-13.2 9.4-27.8 15.4-43.7 17.9-17.8 2.8-35.2 1.3-52-5.3-7.7-3.1-14.8-7.1-21.1-12.7-5.6-5-11.2-10.1-16.6-15.3-1.5-1.4-2.4-3.4-3.4-5.2 3.1 2.5 6.2 5 9.3 7.6.1-.1.2-.1.2-.2-.5-.7-.7-1.2-1-1.8zm88.1 31.1c3.3-1 3.8-2.1 2.3-4.5-1.3-2.1-2.5-4.2-4-6.2-1.2-1.7-2.8-2.8-5.2-2.4-4.7.7-9.5 1.2-14.2 1.9-1.8.3-3.5.8-5.3 1.3-1.4.4-1.5 1.5-.8 2.5 1.7 2.6 3.4 5.3 5.4 7.8.8.9 2.2 2 3.3 1.9 6.5-.6 12.8-1.5 18.5-2.3z"/><path class="bst1" d="M219.4 354c-.6.7-1.4 1.3-1.9 2.1-3.3 5.1-6.4 10.2-9.7 15.3-2.7 4.1-9.2 5.6-13.7 3.5-1.9-.9-3.1-2.2-4.3-3.8-4.3-5.2-8.7-10.4-13.2-15.6-1.4-1.6-1.5-5.7-.2-7.3.5-.7.8-1.5 1.2-2.3l7.2-6c3.2-2.6 6.3-5.1 9.5-7.7 1.2-.9 1.8-1.9.2-2.9s-3.3-2.1-4.9-3.1c.3-.7.5-1.5 1-2 1.5-1.3 3.2-2.5 4.8-3.8 4.1-3.2 8.1-6.5 12.2-9.6 3.2-2.5 6.5-4.9 9.7-7.3 2.6-2 2.5-2 5.3-.2 5.2 3.2 3.9 3.1 8.2-.2 5.1-4 10.2-8.1 15.3-12.2 3.4-2.7 3.4-3.3-.7-5.2-.1-.2-.1-.4-.2-.6.1-1-.2-2.3.3-2.9 2.4-2.5 5-4.9 7.7-7.5.4 3.1.7 5.6 1 8.1.1.4.1.9.3 1.2 2.4 3.9 1.3 7.3-.9 10.9-10.7 17.9-21.2 35.8-31.8 53.7-.8 1.4-1.4 2.9-2.1 4.3 0 .5-.1.8-.3 1.1zm-12-1.6c.9-1.4.3-2.2-1-2.7-1.9-.6-3.3-.1-4.2 1.7 1.3 3.3 2.4 3.5 5.2 1zm42.9-68.7c.6-1.1 1.1-1.9 1.5-2.6-.8-.3-1.8-1.1-2.5-.9-.7.2-1.1 1.3-1.7 2 .8.4 1.6.9 2.7 1.5zM293.2 306.3c.6-.5 1.1-1 1.4-1.3 1.4 5.1 2.6 10.5 4.4 15.6 1.7 4.9-.2 8.3-3.3 11.7-5.3 5.8-11.8 10-18.9 13.1-5.9 2.6-11.9 5-17.9 7.6-6.1 2.6-11.7 6.2-16.8 11-2.5-7.3-5-14.3-7.5-21.4v.1c.7-.6 1.4-1.2 2.1-1.7 3.9-2.6 7.5-5.7 11.7-7.7 7-3.5 14.4-6.3 21.7-9.3 5.8-2.5 11.4-5.4 16.1-9.7 2.3-2.6 4.6-5.3 7-8z"/><path class="bst1" d="M293.2 306.3c-2.3 2.7-4.7 5.3-7 8-.7.4-1.4.6-2 1.1-5.7 4.4-12.1 7.2-18.6 10-7.4 3.2-14.8 6.3-21.9 10.1-3.4 1.8-6.1 4.8-9.1 7.3v-.1c-.3.5-.7 1-1 1.6l.1-.1c-1.3 1.7-2.5 3.4-3.7 5-1.9-.4-4-.9-6.2-1.4 11.2-18.9 22.3-37.8 33.3-56.5 2.1 1.4 4.3 2.9 6.5 4.3h-.1c5.6 3.6 11.7 4.4 18.2 3.4 3-.4 5.9-1.2 8.9-1.4 4.2-.2 5.7 2.7 3.8 6.5-.5.7-.9 1.5-1.2 2.2z"/><path class="bst1" d="M261.1 266.8c.9-.8 1.7-1.6 2.6-2.4 1-.8 2.1-1.5 3.1-2.3l2.7-2.4c1-.8 2.1-1.5 3.1-2.3l3.3-3c.8-.5 1.6-1.1 2.3-1.6l2.7-2.4c1-.8 2.1-1.5 3.1-2.3 1.9-1.6 3.8-3.2 5.7-4.9v.1c2-1.6 3.9-3.3 5.9-4.9 1-.8 2.1-1.6 3.1-2.3.9-.8 1.7-1.6 2.6-2.3.8-.6 1.6-1.2 2.4-1.7 1.2-1.1 2.3-2.2 3.5-3.4 1-.6 2-1.3 3-1.9 1.9-1.7 3.9-3.3 5.8-5 1.9-1.4 3.7-2.9 5.6-4.3 2.8-2.3 5.6-4.7 8.3-7v.1c.9-.7 1.7-1.4 2.6-2.1 1.9-1.4 3.7-2.9 5.6-4.3l3.3-3c1.9-1.4 3.7-2.8 5.6-4.3l3.3-3c.8-.5 1.6-1.1 2.4-1.6 3.9-3.2 7.7-6.5 11.6-9.7 1-.8 2.1-1.5 3.1-2.3 2.7-2.3 5.5-4.6 8.2-6.9v.1c2-1.6 3.9-3.3 5.9-4.9 1.9-1.4 3.7-2.9 5.6-4.3 8.6-7 17.2-14 25.9-21l11.4-9.3c.5.4.9.8 1.4 1.2-4.9 3.9-9.9 8-14.9 12.1-17.6 14.5-35.2 29-52.7 43.6-19.6 16.2-39.1 32.4-58.6 48.7-2.1 1.8-4.6 3.4-5.4 6.4-.2.6-.8 1-1.1 1.5-.6.9-1.3 1.7-1.7 2.9-1.1 3.4-3.2 6.5-4.8 9.8-1.6 3.5-2.6 7.3-2.4 11.2 0 .6.1 1.2-.3 1.9-.3-.6-.6-1.3-.8-1.9h-.2c.4 1.6.9 3.1 1.3 4.7-.1 0-.3.1-.4.1-1.7-7-3.4-14-5.1-21.2l-3.6 3c.1.1.2.3.3.4.8-.6 1.5-1.2 2.4-1.9.9 3 1.7 5.9 2.4 8.8 1 4 2.1 7.9 2.9 11.9.2.8-.2 2.1-.8 2.7-5.3 5.3-10.6 10.4-16.1 15.5-.5.5-1.7.3-2.5.5h.1c-1.8-6.1-3.7-12.3-5.5-18.4l-.9-3c.8-.9 1.6-1.8 2.4-2.6 1.8-1.7 3.6-3.4 5.4-5.2-.1-.2-.3-.3-.4-.5-2 1.8-3.9 3.7-5.9 5.5-1.1.8-2.1 1.6-3.2 2.4-.6-.1-1.3-.2-2.2-.3 2.1-1.9 3.8-3.5 5.5-5 .5-.9 1.3-1.5 2.1-2zM443.6 129.5c-4.2-.7-8.2.1-12.2 1.2-.9.2-1.8.5-2.7.8-.2-.7-.4-1.5-.7-2.3 6-2.8 12.2-5.6 18.3-8.4l.4.4c-.4.3-.8.7-1.1 1-.4.4-1.1.9-1.1 1.4 0 .5.6 1.1 1 1.4 1.9 1.2 4 1.8 6.2.9 1.1-.4 1.5-1.3.6-2.1-1.1-.8-.6-1.7-.5-2.6.3-2.9 1.9-4.6 4.8-5 1.1-.2 2.1-.7 3.2-1.1.1.2.2.3.4.5-.4.3-.8.7-1.2 1-1.1.8-1.6 1.8-.1 2.3 1.9.7 4 1.1 6 1.2 1.3.1 1.7-1.1.9-2.3-.9-1.5.2-4.7 1.8-5.2 2.3-.7 4.7-1.3 7.2-1.5-.4.2-1.1.3-1.3.7-.2.6-.4 1.6-.1 1.9 1.8 1.5 4 2 6.3 1.4.5-.1 1.2-1.7 1.1-1.7-1.6-1.3-.5-2.6-.2-4 .1-.5.2-1.1.4-1.6.8-1.8.3-2.8-1.6-3.2-2.2-.5-3.2 0-3.4 2.1-.2 1.9-1 2.9-2.9 3.2-2.1.4-4.1 1.1-6.1 1.6-1-1.8-3-2.9-4.8-2.2-.6.2-1.1 1.3-1.1 2-.1 1.5-.9 2.2-2.3 2.5-3 .6-5.8 2.2-9 1.1-.5-.2-1.5.5-2 1-.7.8-4.8 3-5.7 2.5-1.6-1-2.6-2.4-5-1.2-1.6.8-3.9.1-5.8.4-1.9.3-3.7 1-5.6 1.4 4.8-2.4 9.5-4.8 14.3-7.1.7-.3 1.6 0 2.5-.1 1.1-.1 2.2-.2 3.4-.3.1-.3.1-.6.2-.9-.5-.1-.9-.2-1.4-.2-.1-.2-.1-.4-.2-.5 1.3-.8 2.5-1.6 3.8-2.3 2.3-1.3 4.5-2.5 7.3-1.4.8.3 2-.2 3.1-.4 0-.2 0-.4-.1-.7-.4-.1-.8-.1-1.2-.2.5-2.4 1.1-4.8 1.6-7.1 6.4 1.8 12.7 3.5 19 5.3 6.4 1.8 11.1 7 17.9 9.2-1.2.4-1.9.6-2.5.8-8.9 2.9-17.8 5.7-26.6 8.9-4 1.4-7.8 3.5-11.5 5.7-2.7 1.5-5.3 2.5-8.4 1.9-1.1-.3-2.3-.2-3.3-.1z"/><path class="bst1" d="M450 137.6c.6-2.6 1-4.8 1.7-6.8.2-.7 1.1-1.2 1.8-1.6 9.8-5.8 20.4-9.8 31.3-13 3.9-1.1 7.8-2.2 12.1-3.4-.7 2.5-1.1 4.7-1.9 6.7-.2.6-1.3 1-2 1.2-9.5 3.2-19 6.2-28.4 9.6-4.2 1.5-8.1 3.9-12.1 5.9-.6.4-1.3.8-2.5 1.4zM217.3 303.6c-3.2 2.4-6.5 4.8-9.7 7.3-4.1 3.2-8.1 6.4-12.2 9.6-1.6 1.3-3.3 2.4-4.8 3.8-.5.5-.7 1.3-1 2 .9.8 1.9 1.7 2.7 2.4-.9.4-1.7.7-2.5 1.1-.6-1.2-1-2.5-1.8-3.4-1.1-1.2-2.6-2.1-4.2-3.3 3-2.4 6-4.8 8.9-7.1 6.8-5.4 13.6-10.9 20.5-16.2.8-.6 2-.8 3-1.2.3.3.7.6 1 .9.5.8.9 1.6 1.4 2.4-.4.4-.9 1.1-1.3 1.7zM131.3 370.1c.2.3.6.9.6 1-1.2 1-2.5 2-3.8 3-.1.1-.4-.3-.7-.4-8.9-7.8-17.9-15.5-26.8-23.3.6-2.3 2.7-3.3 5.4-2.7 6 5.1 12.1 10.2 18 15.5 2.6 2.1 4.9 4.5 7.3 6.9zM212.8 296.2c.2.7.5 1.4.8 2.2-10 8-20.2 16-30.4 24.2-1.5-1.1-2.8-2.1-4.4-3.3 3.5-2.8 6.9-5.4 10.2-8.1 6.3-5 12.6-9.9 19-14.8.9-.7 2.2-.8 3.4-1.2.4.3.9.7 1.4 1zM207.8 292.9c.3.6.5 1.1.8 1.8-5 4-10.1 8-15.2 11.9-3.9 3.1-7.9 6.1-11.8 9.2-3.7 2.9-4 2.9-7.8-.5l6.6-5.1c7.3-5.7 14.7-11.4 22-17.1 1.3-1 2.5-2 4.3-1.4.5.5.8.9 1.1 1.2zM203.1 289.5c.6.8.9 1.5-.2 2.3-9.6 7.4-19.1 14.8-28.6 22.2-.4.3-.8.5-1.3.8-1.2-.9-2.4-1.7-3.7-2.7 4.2-3.2 8.2-6.3 12.3-9.4 5.6-4.3 11.2-8.5 16.7-12.8 1.4-1.1 2.7-1.6 4.3-.8.1.1.3.2.5.4zM198.6 286.3c.7 1.2-.1 1.9-.9 2.6l-24 18.3c-1.2.9-2.3 1.9-3.5 2.6-.6.3-1.6.5-2.2.2-2.6-1.3-2.6-1.9-.3-3.6 8.7-6.5 17.3-13 25.9-19.5 1.2-.9 2.4-1.6 4-1.3.3.2.6.5 1 .7z"/><path class="bst1" d="M100.6 350.3c8.9 7.8 17.9 15.5 26.8 23.3.3.5.7.9 1 1.4-.1.3-.2.6-.4.9-.4.6-.9 1.2-1.4 2-9.5-8.2-19.1-16.5-28.6-24.7.2-1.7 2.3-1.5 2.6-2.9zM161.4 304.5c5-3.7 9.9-7.4 14.8-11 4.2-3.1 8.5-6.3 12.7-9.4 2.6-1.9 2.6-1.9 5.4.4-1.1.8-2.1 1.6-3.1 2.4-8.2 6.2-16.5 12.5-24.7 18.7-2.1 1.5-2.1 1.5-5.1-1.1zM230.5 285.8c1.4.5 2.3 1 3.2 1.1.3 0 1.2-1 1.1-1.2-.3-.7-.9-1.2-1.5-1.9 1.9-2.3 1.9-2.3 4.6-.4 1 .7 1.9 1.4 3.1 2.2-1 .8-1.9 1.6-2.8 2.3-4.1 3.3-8.3 6.5-12.4 9.8-1.1.9-2 1.2-3.1 0-.3-.3-.6-.5-1-.8-2.6-2-2.6-2 .1-4.1 3-2.5 6.1-4.9 8.7-7zM159.6 334.3c1.6-1.2 2.5-2.6 4.7-1.6 1.5.7 2.3-1.1 1.4-3.3 3.7-2.9 7.5-5.8 11.3-8.7.4-.3 1.3-.2 1.8 0 1.1.7 2.1 1.6 3.5 2.6-3 2.4-5.8 4.8-8.7 7-1.6 1.2-3.5 2-5.1 3.2-1 .8-1.8 1.9-2.6 2.9-1.1 1.4-2.2 1.4-3.5.1-.8-.7-1.7-1.3-2.8-2.2zM145.5 356.1c-1.2 1.2-2.4 2.3-3.7 3.5-2.1 2.4-4.2 4.9-6.4 7.3l.1-.1c-1.1.9-2 .8-3-.2-.8-.8-1.7-1.5-2.7-2.3 4.3-4.9 8.5-9.7 12.7-14.6.9.4 1.7.8 2.5 1.2.4.4.9.8 1.3 1.3.9.6.9 1.2.2 2-.4.6-.6 1.3-1 1.9zM182.8 323.9c1.4 1.1 2.7 2.1 4.2 3.2-4.2 3.3-8.1 6.5-12 9.6-1.5 1.2-3.1 2.4-4.6 3.7-1.1 1-2.1 1.3-3.2 0-.7-.7-1.6-1.3-2.5-2.1 1.3-1.2 2.3-2.5 4.4-2 .5.1 1.8-1.1 1.7-1.5-.3-1.4.6-1.9 1.4-2.5 3.5-2.7 6.9-5.5 10.6-8.4zM177 319.6c-4.3 3.4-8.5 6.6-12.6 9.8-1.3 1-2.7 2-3.9 3.2-1.2 1.1-2.1 1.1-3.2 0-.8-.8-1.7-1.4-2.8-2.2 1.2-.9 2.1-1.6 3.2-2.4 1.1 1 2.3 2.1 3.5.5.4-.6-.1-1.8-.2-3.2 3.2-2.5 7-5.4 10.8-8.3.4-.3 1.4-.3 1.8-.1 1.2.8 2.2 1.7 3.4 2.7zM129.3 363.8c-1.5-1.2-2.7-2.3-4.2-3.4 4.1-4.9 8.1-9.6 12.3-14.5 1.6 1.2 3.1 2.2 4.7 3.4-4.2 4.8-8.4 9.5-12.8 14.5zM443.5 129.5c2.2.3 4.5.6 6.9.9-.4 2.3-.7 4.5-1.2 6.6-.1.4-1.1 1-1.4.8-4.4-1.9-9.3-2-13.9-3-.5-.1-1.1-.2-1.6-.4 1.4-2.6 3.6-1.9 5.8-1.7-2.1-2-4.6-1-6.9-1.2 0-.2-.1-.4-.1-.6 3.7-.4 7.3-.9 11-1.3.4 0 .9 0 1.4-.1.1 0 0 0 0 0zM132.1 342.1c1.6 1.2 3 2.2 4.5 3.3-4 4.8-8 9.5-12.1 14.4-1.3-1.2-2.5-2.2-3.9-3.4 3.8-4.8 7.6-9.5 11.5-14.3zM149.9 326.7c1.2-.9 2.3-1.7 3.4-2.5.8 1.4 2 2.4 3.4 1 1.2-1.1.8-2.3-1.1-2.8 3.7-2.9 7.2-5.5 10.6-8.2 1.4-1.2 2.6-1.5 3.9 0 .5.5 1.1.9 1.8 1.5-3.7 2.9-7.3 5.6-10.9 8.4-1.7 1.3-3.5 2.6-5.1 4-1.5 1.3-2.7 1.6-4.1.1-.5-.4-1.1-.8-1.9-1.5zM229.9 278.1c-5.3 4.2-10.4 8.2-15.6 12.2-.8.7-4.4-.9-4.5-2-.1-.4.4-1 .7-1.3 4.8-3.7 9.5-7.4 14.3-11.1.4-.3 1.4-.4 1.8-.1 1.2.6 2.1 1.5 3.3 2.3zm-6.7-.8c-.5 1.1-1.1 2-.9 2.3.4.5 1.4 1.1 1.9 1 .6-.1.9-1.2 1.3-1.8-.6-.4-1.3-.8-2.3-1.5zM228.3 280.6c2.6-2.3 2.6-2.3 6.5.9-2.2 1.7-4.4 3.5-6.5 5.2-2.7 2.2-5.5 4.3-8.2 6.6-1.2 1-2.1 1.1-3.2 0-.7-.7-1.5-1.2-2.5-1.9 4.1-3.2 8.1-6.3 11.7-9.2 1 .7 1.7 1.4 2.6 1.7.3.1 1-.9 1.5-1.4-.6-.7-1.3-1.3-1.9-1.9zM151.5 318.6c3.8-2.9 8-5.9 12.3-9.1 1 .8 2.1 1.6 3.4 2.7-6.2 4.7-12.1 9.3-18.1 13.8-1.2-1-2.3-1.8-3.6-2.8 1.2-.9 2.3-1.7 2.9-2.2 1.2.5 2 1.1 2.9 1.1.4 0 1.4-.8 1.3-1.3-.1-.7-.7-1.4-1.1-2.2zM119.8 355.7c-1.3-1.1-2.5-2-3.8-3.1 3.7-4.6 7.3-9.2 11-13.8 1.4 1 2.7 1.8 4.2 2.8-3.8 4.7-7.6 9.3-11.4 14.1zM147 315.1c3.2-2.3 6.5-4.8 9.8-7.2 2.9-2.1 2.9-2.1 5.5.8-3.7 2.8-7.5 5.7-11.2 8.5-1.6 1.2-3.2 2.3-4.7 3.6-1.5 1.4-2.8 1.5-4.2-.1-.3-.4-.7-.6-1.2-1.1 1.2-.9 2.3-1.7 3-2.3 1 .6 1.7 1.3 2.5 1.3.5 0 1.6-.7 1.6-1.2.1-.7-.6-1.4-1.1-2.3zM174 347.5c.3-1.8.1-3.3-2.5-3.1l2.4-2.4c1.4-1 2.9-2.1 4.3-3.1.5-.3.9-.6.9-.6 1.3.4 2.2.8 3.1.8.4 0 1.2-.9 1.1-1.3-.1-.7-.8-1.2-1.2-1.9.3-.3.7-.9 1.2-1.4 1.4-1 2.8-2 4.1-3 .7-.5 1.4-.9 2-1.4-.7 2.5 1.3 2.2 2.9 2.6-6.2 5.1-12.2 10-18.3 14.8zM217.9 275.1l.6-.6c3.5-2.6 2.2-2.9 6.4.2-1.5 1.2-3 2.3-4.4 3.5-3.2 2.5-6.4 5-9.7 7.5-2.5 1.9-3.3 1.7-5.8-1.1 4.3-3.2 8.6-6.4 12.9-9.5.1.7 0 1.6.4 2.2.2.3 1.4.1 2-.2.4-.2.4-1 .5-1.6-.8-.2-1.6-.5-2.4-.7-.1 0-.3.2-.5.3zM125.9 338.2c-3.6 4.5-7.1 8.9-10.8 13.5-1.2-1-2.3-1.9-3.6-3 3-3.9 6-7.7 9-11.5 1.1-1.2 3.4-.7 5.4 1zM131.3 370.1c-2.4-2.3-4.7-4.8-7.2-7-6-5.2-12-10.3-18-15.5v-1.5c.5.1 1.1.1 1.4.4 9 7.5 17.9 15.1 26.9 22.7.2.2.3.4.4 1.3-1.2-.2-2.3-.3-3.5-.4zM212 272.9c1.2.6 2 1.3 2.8 1.4.4 0 1-.9 1.5-1.4-.6-.5-1.2-1.1-1.8-1.7.6-.5 1.5-1.2 2.5-1.9 1 .8 2 1.5 3.3 2.4-5.4 4.1-10.5 8.1-15.8 11.9-.8.5-2.6-.6-4-.9v-.8c4-3.3 8-6.4 11.5-9zM233.2 295.3c1 1.3 2.1 1.9 3.2.7.4-.4-.1-1.6-.3-3 1.7-1.4 4-3.2 6.5-5.2.6 1.5 1.3 2.7 3.3 2.2-5.6 4.5-11.1 8.9-16.9 13.5.4-2.4-1-2.6-2.9-2.6 2.5-2 4.8-3.7 7.1-5.6zM196.2 278.6c4-3 7.9-5.8 11.4-8.3 1.2.4 2 .8 2.9.8.4 0 1.3-.8 1.2-1.1-.1-.7-.6-1.3-1-2 2.2-1.9 2.2-1.9 5 .6-4 3-7.9 6-11.9 9-.6.5-1.2.9-1.9 1.4-2.8 2-2.8 2-5.7-.4zM439.2 119.4c-5.9 1.6-11.2 3.2-16.7 4.6-1.7.4-3.5.1-5.9.1 6.1-4.9 18.2-7.5 22.6-4.7zM219.4 354c.1-.3.3-.6.4-.9.7-.8 1.5-1.5 2-2.3 1.6-2.5 4.5-2.8 6.5-.6.1.3.2.5.3.8-.2.5-.4 1-.5 1.4v-.1c-.1.3-.1.7-.2 1v-.1c-.1.3-.1.7-.2 1v-.1c-.1.3-.1.7-.2 1v-.1c-.1.3-.2.5-.3.8v-.1c-.1.2-.2.3-.3.5-2.6 0-5.3 0-8.1-.1.3-.7.5-1.4.6-2.1zM255.7 276.9c.3-.2.7-.5 1.2-.8 1.7 6 3.3 11.8 5.1 18.1-2.3-1.6-4.1-3.1-5-5.7-1.5-3.8-1.7-7.6-1.3-11.6.1 0 0 0 0 0zM245.2 285.2c.1.2.1.4.2.6-.6.5-1.3 1-2 1.5-1.3-3.3-4.7-3.9-6.8-6.3 2-1.6 4-3.4 6.1-4.9 1.2-.9 3.4.8 3.7 2.7-.8.6-1.6 1.1-2.4 1.7-1.9.6-1.5 1.9-.9 3.3.6-.2 1-.3 1.6-.5.2.7.4 1.3.5 1.9zM418.7 129.9c-3.7 2.9-7.3 5.8-11.2 8.5-.7.5-2.3-.3-3.5-.6v-.6c3.7-2.8 7.3-5.8 11.2-8.4.7-.5 2.3.3 3.5.5v.6zM422.3 131.8c-3.6 2.8-7.1 5.7-10.7 8.3-.7.5-2.2-.1-3.4-.2 0-.3 0-.5-.1-.8 3.7-2.9 7.3-5.8 11.1-8.5.6-.4 2 .2 3.1.4v.8zM405.5 140.3c-3.3 2.6-6.5 5.3-10 7.6-.6.4-2.2-.5-4-1 3.8-2.9 7.1-5.6 10.5-7.9.7-.5 2.2.4 3.4.6.1.2.1.5.1.7zM380.5 155.4c3-2.4 6-4.9 9.2-7 .8-.5 2.5.3 3.8.5v.7c-3 2.4-5.9 4.9-9.1 7.1-.8.6-2.6-.3-3.9-.5v-.8z"/><path class="bst1" d="M174 347.5c6.1-4.9 12.1-9.7 18.3-14.7-1.5-.4-3.5-.1-2.9-2.6.1-.2.2-.3.3-.5.8-.4 1.7-.7 2.5-1.1-.8-.7-1.8-1.6-2.7-2.4 1.6 1 3.3 2 4.9 3.1 1.6 1.1 1 2-.2 2.9-3.2 2.6-6.3 5.1-9.5 7.7l-7.2 6c-1.1.6-2.3 1.1-3.5 1.6zM159.8 348.3c.8.8 1.6 1.7 2.5 2.7-.9 2-2.3 3.5-4.6 4.1-2.6.8-3.3-2.1-5.4-2.6 1.1-.9 2.1-1.6 3-2.4.9-.8 1.6-1.7 2.5-2.6.5.2 1.3.5 2 .8.1 0 0 0 0 0zM368.9 164.4c3.5-2.7 6.3-5 9.3-7 .8-.5 2.4.2 3.7.4 0 .3.1.5.1.8-3 2.4-5.9 4.9-9.1 6.9-.6.5-2.2-.5-4-1.1zM358.8 172.3c2.7-2 5.3-4.1 8-6.1 1.9-1.5 2.8.5 4.6 1-3.1 2.4-5.7 4.8-8.7 6.7-.8.5-2.6-.5-3.9-.8-.1-.4 0-.6 0-.8zM157.8 305.2c-4 2.9-7.9 5.9-11.9 8.8-1.8 1.3-3.5 2.6-5.3 3.8-.4.3-1.2 0-1.8 0 .3-.5.4-1.1.8-1.4 5.2-3.9 10.4-7.8 15.5-11.7 1.2-.8 1.9-.8 2.7.5zM395.6 149.1c3.8-3 7-5.6 10.4-8 .7-.5 2.2.2 3.3.3 0 .2.1.5.1.7-3.3 2.7-6.5 5.4-10 7.9-.6.4-2.1-.5-3.8-.9zM373.6 166.3c2.9-2.2 5.7-4.5 8.6-6.7 1.7-1.3 2.6.5 4.1 1-3.1 2.5-5.9 5-8.9 7-.8.5-2.4-.3-3.7-.5-.1-.2-.1-.5-.1-.8zM384.6 157.6c3.1-2.4 6.1-4.9 9.3-7.1.7-.5 2.3.2 3.4.3 0 .2 0 .5.1.7-3.1 2.6-6.1 5.2-9.4 7.6-.6.4-2.2-.5-3.4-.8.1-.2.1-.5 0-.7zM375 169.6c-2.7 2.2-5.3 4.5-8.3 6.4-.8.5-2.5-.4-3.8-.6v-.7c2.8-2.2 5.5-4.5 8.5-6.4.7-.5 2.3.4 3.5.6.1.2.1.5.1.7zM414.4 127.9c-3.6 2.8-7.1 5.7-10.8 8.3-.7.5-2.1-.1-3.2-.1 0-.2-.1-.5-.1-.7 2.6-2 5.1-4 7.7-5.9.7-.6 1.5-1 2.2-1.7 1.5-1.5 2.8-1.4 4.2.1zM348.6 180.2c2.6-2 5-4.1 7.7-5.8.9-.5 2.7.3 4 .5v.8c-2.6 2.1-5.2 4.3-8 6.1-.8.5-2.5-.5-3.8-.8.1-.3.1-.6.1-.8zM352.8 182.7c2.7-2.1 5.3-4.4 8.1-6.2.7-.5 2.4.5 4.2 1-3.2 2.6-5.7 4.8-8.6 6.6-.8.5-2.5-.5-3.8-.8.1-.2.1-.4.1-.6zM128.1 375.9c.1-.3.2-.6.4-.9.4-.1.9 0 1.2-.3l3.9-3.3.4.4-.6 1.5c.7.7 1.5 1.3 2.2 2 .5 1 1 2.1 1.5 3.1.2.5.4 1 .5 1.4-.4 0-.9.1-1.3.1-.3 0-.6-.1-.9 0-1.5.5-3.2.5-4-.9-.6-1.2-.4-2.8-.6-4.2.2 0 .4 0 .6-.1-1 .5-1.9 1.1-2.9 1.6 0 .2-.2-.2-.4-.4zM338.9 187.7c2.4-1.9 4.7-4 7.4-5.5.9-.5 2.6.4 4 .7v.7c-2.5 2-4.9 4.2-7.6 5.8-.8.5-2.5-.6-3.9-1 .1-.3.1-.5.1-.7zM333.8 197.5c2.3-1.8 4.6-3.7 6.9-5.4 1.8-1.3 2.5 1.1 4.1 1.6-2.4 1.9-4.6 4-7.2 5.6-.8.5-2.6-.6-3.9-1 0-.3.1-.5.1-.8zM341 190.9c-2.8 2.2-5 4.3-7.6 5.8-.9.5-2.7-.5-4.1-.9 0-.2 0-.5-.1-.7 2.5-1.9 4.8-4 7.5-5.6.8-.4 2.6.8 4.3 1.4zM388.1 144.6c3.4-2.5 6.5-5.1 9.9-7.4.7-.5 2.1 0 3.2.1.1.2.1.5.2.7-1.6 1.3-3.2 2.5-4.8 3.8-1.2.9-2.5 1.8-3.6 2.9-1.7 1.5-3.1 1.5-4.9-.1zM343.1 190.3c2.5-2 5-4.1 7.7-5.8.8-.5 2.4.5 3.6.8v.7c-2.6 2-5 4.2-7.8 6-.7.4-2.3-.6-3.5-1v-.7zM331.8 198.1c-2.8 2.2-4.9 4.2-7.3 5.5-1 .5-2.8-.6-4.2-.9v-.7c2.3-1.7 4.4-3.7 6.9-5.1.9-.5 2.7.6 4.6 1.2zM127.5 325.6c.1.4.3.7.3.9-1.4 1.9-4.5 1.9-5.2 5-1.2-.8-2.5-1.5-3.5-2.4-.4-.4-.2-1.6 0-2.3.3-.7 1.1-1.2 1.6-1.8l-.1.1c2.2-1.2 4.4-1.2 6.3.7.2-.1.5-.1.6-.2zM324.9 204.5c1.6-1.2 3.1-2.4 4.7-3.6 2.8-2.2 2.8-2.2 6 .1-2.3 1.8-4.4 3.9-6.8 5.3-.9.5-2.6-.6-4-1 0-.3.1-.5.1-.8zM389.2 147.5c-3.1 2.4-6.1 4.9-9.3 7.1-.7.5-2.2-.2-3.4-.4v-.6c3.2-2.4 6.3-4.9 9.6-7.1.6-.4 2 .3 3.1.4v.6zM233.6 344.2s0 .1 0 0c.3.4 1 .7 1.1 1.1 2.2 5.9 4.3 11.9 6.3 17.9.2.7 0 1.6 0 2.4-.3 0-.5 0-.8.1-.6-1.6-1.2-3.1-1.7-4.7-1.7-4.8-3.5-9.7-5.2-14.5-.1-.6.2-1.5.3-2.3zM135.9 315.9l.7-.7c5.3-4 10.5-7.9 15.8-11.9.9 1.1.9 1.8-.2 2.6-1.3.9-2.4 1.9-3.7 2.8-.4.3-1 .6-1.5.6-1.5-.2-2.1.6-2.5 1.9-.1.5-.5.9-.9 1.3-1.1.9-2.4 1.8-3.5 2.7-1.2 1-2.4 1.8-4.2.7zM366.4 165.1c-2.7 2.1-5.2 4.3-8 6.1-.8.5-2.4-.1-3.7-.3 0-.2 0-.5-.1-.7 2.8-2.1 5.6-4.4 8.5-6.4.7-.5 2.2.3 3.3.5v.8zM311.9 208.5c2.1-1.6 4-3.5 6.3-4.6.9-.5 2.7.6 4.6 1.1-2.7 2.1-4.6 4.1-6.8 5.2-.9.5-2.7-.6-4.1-1v-.7zM377.7 156.5c-2.9 2.2-5.8 4.6-8.8 6.6-.7.5-2.2-.2-3.4-.4v-.6c3-2.3 6-4.7 9.1-6.8.6-.4 2 .3 3 .5 0 .2 0 .5.1.7zM344 178.4c3.2-2.4 5.8-4.6 8.6-6.3.7-.5 2.2.3 3.3.5 0 .2.1.5.1.7-2.7 2.1-5.4 4.4-8.2 6.2-.7.3-2.2-.6-3.8-1.1zM410.4 126.2c-3.7 2.8-7.3 5.7-11 8.3-.6.4-1.8 0-2.8-.1 0-.2-.1-.4-.1-.6 3.3-2.5 6.7-5 10-7.6 1.3-1 2.4-1.4 3.9 0zM326.6 208.2c-2 1.6-4 3.3-6.1 4.8-.4.3-1.4.1-2-.1-.8-.3-1.4-.8-2.4-1.4 2.3-1.8 4.3-3.7 6.7-4.9.9-.5 2.5.6 3.8 1v.6zM345.6 181.3c-2.4 1.8-4.6 3.8-7.2 5.3-.9.5-2.4-.1-3.7-.1-.1-.3-.1-.6-.2-.9 2.6-2 5.1-4.1 7.8-5.8.6-.4 2.1.5 3.2.8.1.2.1.4.1.7zM318.3 214.8c-1.7 1.4-3.3 2.5-4.7 3.8-1.4 1.4-2.6 1.6-4.1.3-.4-.3-.8-.5-1.6-1 2.3-1.8 4.5-3.5 6.7-5.3 1.3.6 2.4 1.3 3.7 2.2zM325.2 192.7c2.3-1.7 4.4-3.7 6.9-5.1.9-.5 2.5.2 3.8.4v.8c-2.4 1.8-4.7 3.8-7.2 5.3-.8.5-2.3-.3-3.6-.6.1-.3.1-.5.1-.8zM303.8 214.9c1.9-1.5 3.8-3.1 5.8-4.5.4-.3 1.3-.1 1.8.1.8.3 1.5.9 2.5 1.6-2.1 1.6-3.9 3.5-6.1 4.5-1 .5-2.7-.6-4.1-1 .1-.2.1-.5.1-.7zM210.9 265.7c-4.9 3.7-9.9 7.4-14.9 11-.6.4-1.4.4-2.2.6-.1-.2-.2-.5-.3-.7 2.5-1.9 5.1-3.8 7.6-5.8 2.5-1.9 5-3.9 7.6-5.7.5-.4 1.4-.2 2.1-.3.1.4.1.7.1.9zM385 145.7c-3 2.3-5.9 4.7-9 6.8-.7.5-2 0-3.1 0 0-.2-.1-.5-.1-.7 3.1-2.4 6.2-4.8 9.5-7 .6-.4 1.9.2 2.8.3-.1.1-.1.3-.1.6zM373.5 154.5c-2.9 2.2-5.8 4.6-8.8 6.6-.7.5-2.1-.2-3.1-.3v-.6c3-2.2 5.9-4.6 9-6.7.6-.4 1.9.2 2.9.3-.1.3-.1.5 0 .7zM295.7 221.1c1.4-1.1 2.5-2 3.7-2.9 3-2.3 3-2.3 6.2.4-1.8 1.4-3.6 2.9-5.5 4.2-.4.3-1.3.1-1.8-.1-.8-.4-1.5-1-2.6-1.6zM300 224.1c2.3-1.8 4.1-3.3 6.1-4.6.4-.3 1.4 0 2 .3.7.3 1.3.8 2.2 1.4-2.1 1.6-3.9 3.4-6.1 4.5-.8.4-2.5-.9-4.2-1.6zM227.3 356c.1-.2.2-.5.3-.7v.1c.1-.3.1-.7.2-1v.1c.1-.3.1-.7.2-1v.1c.1-.3.1-.7.2-1v.1c.2-.3.5-.5.7-.8.4.4 1 .7 1.3 1.1.3.5.4 1.2.5 1.8 1.1 3.6 2.4 7.3-.3 11.2-.9-3.2-1.7-6.2-2.6-9.3-.3-.3-.4-.5-.5-.7zM397.6 136c-3.7 2.8-6.8 5.3-10 7.6-.7.5-2 .1-3 .1-.1-.2-.1-.5-.2-.7 3.4-2.5 6.7-5.1 10.2-7.5.4-.4 1.6.2 3 .5zM238.8 368c-1.6-4.3-3.2-8.7-4.8-13-.7-2-1.5-4.1-2.2-6.2-.2-.7 0-1.5 0-2.2.2 0 .5-.1.7-.1 1 2.7 2 5.3 3 8 1.4 3.8 2.7 7.5 4 11.3.2.6 0 1.4 0 2.1-.2.1-.4.1-.7.1zM298.2 224.5c-2 1.6-3.6 3.4-5.6 4.2-1 .4-2.7-.8-4.7-1.5 2.5-1.9 4.3-3.4 6-4.7 1.5.6 2.7 1.2 4.3 2zM327.1 195.6c-2.7 2.1-4.8 4.1-7.2 5.4-.8.5-2.4-.5-3.7-.8v-.6c2.3-1.7 4.4-3.6 6.9-5 .7-.4 2.3.5 4 1zM362.1 163.1c-2.6 2-5.1 4.1-7.9 5.9-.8.5-2.3.1-3.4.1 0-.3-.1-.5-.1-.8 2.8-2.1 5.4-4.3 8.3-6.2.7-.5 2 .1 3.1.1v.9zM281.3 232.3c1.7-1.3 3.3-2.6 5-3.8.3-.2 1.2 0 1.7.2.9.4 1.8 1 2.8 1.7-1.1.9-2 1.6-3 2.3-3.1 2.3-3.1 2.3-6.5-.4zM296.5 232.1c-1.2-.7-2.3-1.4-3.7-2.3 1.9-1.5 3.5-2.9 5.4-4.1.5-.3 1.5.1 2.2.3.7.3 1.3.8 2.2 1.4-2.1 1.6-4.1 3.1-6.1 4.7z"/><path class="bst1" d="M187.4 331.7c-1.4 1-2.8 2-4.1 3-1.7 1.4-3.4 2.9-5.1 4.3-1.4 1-2.9 2.1-4.3 3.1-1.1.7-2.2 1.3-3.8 2.3.3-.8.3-1.4.5-1.6 5.6-4.5 11.3-8.9 16.9-13.4.2-.2.5-.2 1.2-.1-.4.8-.8 1.6-1.3 2.4zM307.7 206.2c1.5-1.2 3.1-2.4 4.6-3.6 2.5-1.9 2.5-1.9 5.3.3-2 1.6-3.8 3.4-6 4.6-.9.5-2.6-.3-3.9-.4v-.9zM351.4 171.3c-2.5 1.9-5 3.9-7.6 5.6-.8.5-2.2 0-3.3 0-.1-.3-.1-.5-.2-.8 2.7-2.1 5.4-4.2 8.2-6.1.6-.4 1.9.4 2.9.6.1.3 0 .5 0 .7zM299.3 212.5c2-1.5 3.9-3.3 6.1-4.4.9-.5 2.5.5 3.8.8v.7c-1.9 1.5-3.7 3.2-5.8 4.3-1 .5-2.7-.4-4-.7-.1-.3-.1-.5-.1-.7zM285.8 235.2c1.8-1.4 3.4-2.7 5-3.8.4-.3 1.1-.2 1.6 0 .9.5 1.7 1.1 2.8 1.8-1.8 1.4-3.3 2.8-5 3.9-.5.3-1.5-.1-2.2-.4-.7-.3-1.4-.8-2.2-1.5zM330.5 183.5c2.5-1.8 4.9-3.8 7.5-5.4.8-.5 2.2.1 3.3.3v.7c-2.5 1.8-4.8 3.8-7.4 5.4-.8.5-2.2-.1-3.4-.2.1-.3.1-.5 0-.8zM321.1 190.6c2.3-1.8 4.6-3.7 7.1-5.2.7-.4 2.1.2 3.2.4 0 .2 0 .5.1.7-2.3 1.8-4.5 3.7-7 5.2-.8.5-2.2-.2-3.3-.3 0-.3-.1-.5-.1-.8zM279 240.6c1.7-1.3 3.1-2.6 4.7-3.6.5-.3 1.5.1 2.2.4.7.3 1.4.9 2.2 1.5-1.6 1.3-2.9 2.5-4.4 3.6-.4.3-1.3.2-1.8-.1-1-.5-1.8-1.1-2.9-1.8zM337.9 204.1c-1.9 1.4-3.7 2.9-5.6 4.3-1.1-.2-2.2-.4-3.4-.6 0-.2 0-.5-.1-.7 2.3-1.8 4.5-3.7 6.9-5.3.5-.4 1.7.3 2.8.5-.2.8-.4 1.3-.6 1.8zM406.3 124.7c-3.6 2.7-7.2 5.5-10.9 8.1-.6.4-1.6.1-2.5.1 0-.2-.1-.4-.1-.5 3.7-2.8 7.4-5.6 11.2-8.3.5-.3 1.4 0 2.2.1.1.2.1.4.1.5zM146.2 336.9c.9-.7 1.7-1.3 2.5-1.8 1.4-1 4.7.2 5 2 .1.4-.2.9-.5 1.2-.5.5-1.1.8-1.7 1.3-1.4 1.2-2.6 2-3.4-.6-.1-.8-1.1-1.4-1.9-2.1zM322.1 193.7c-2.1 1.6-4.1 3.4-6.4 4.7-.9.5-2.4-.1-3.6-.2v-.7c2.2-1.6 4.3-3.4 6.6-4.8.8-.5 2.2.1 3.4.2-.1.2 0 .5 0 .8zM303.4 203.9c2.1-1.5 4-3.2 6.3-4.5.8-.5 2.3.2 3.4.4v.7c-2.1 1.6-4.1 3.3-6.4 4.6-.8.4-2.2-.3-3.3-.5v-.7zM272.7 245.6c.9-.7 1.5-1.3 2.1-1.8 3.1-2.5 3.2-2.5 6.4.6-1.4 1.1-2.8 2.2-4.3 3.2-.3.2-1 .1-1.4-.2-.9-.4-1.7-1.1-2.8-1.8zM283.4 236c-.9.7-1.7 1.4-2.4 2-2.9 2.3-2.9 2.3-5.9-.2 2.2-4 5.1-4.6 8.3-1.8zM300.9 215.8c-1.8 1.4-3.4 2.8-5.3 4.1-1.8 1.2-2.6-.8-4.2-1.3 2.1-1.6 3.8-3.2 5.8-4.2.9-.4 2.4.4 3.7.7v.7zM346.8 196.8c-1.9 1.4-3.7 2.8-5.6 4.3-1.4.9-2.3.1-3.4-1 2.4-1.9 4.7-3.9 7.1-5.6.5-.4 1.7.2 2.7.3-.3.9-.5 1.5-.8 2zM425.3 112.3c-.5.6-.9 1.5-1.5 1.7-2.8 1.2-5.7 2.2-8.8 3.4-.3-1-.5-1.8-.8-2.8 3.6-1 7.1-2 10.5-2.9.2.1.4.4.6.6zM380.6 141.5c3.2-2.4 6.3-4.8 9.6-7.1.6-.4 1.8-.2 2.7-.3 0 .2.1.5.1.7-3.3 2.5-6.5 5-9.9 7.4-.5.4-1.6 0-2.4 0 0-.3 0-.5-.1-.7zM381.3 143.6c-3.4 2.6-6.3 4.8-9.3 6.9-.7.5-1.9.4-2.8.5l-.3-.9c3.2-2.4 6.4-4.8 9.8-7.1.4-.2 1.4.3 2.6.6zM321.5 217.4c-1.9 1.4-3.7 2.9-5.6 4.3-1.1-.2-2.3-.5-3.4-.7v-.6c2-1.6 3.9-3.4 6-4.7 1.4-.9 2.4.4 3 1.7zM367.3 180.1c-1 .8-2.1 1.5-3.1 2.3-1.3.9-2.7 1.8-3.8 2.9-1.2 1.1-2.3 1.3-3.6-.2 2.9-2.3 5.7-4.6 8.9-7.2.5.8 1 1.5 1.6 2.2zM268.2 242.4c1.6-1.2 2.9-2.3 4.3-3.2.4-.3 1.4.2 2 .5.7.4 1.4.9 2.1 1.4-4.8 3.9-3.7 4.9-8.4 1.3zM284.4 224c1.6-1.2 3-2.8 4.8-3.6 1-.4 2.5.4 3.8.7 0 .2.1.5.1.7-1.7 1.4-3.3 3-5.2 4-.8.4-2.4-.6-3.6-1 .1-.3.1-.6.1-.8zM336.5 174.3c2.7-2 5.3-4.1 8.1-5.9.5-.4 1.7.2 3.2.5-3.1 2.4-5.7 4.5-8.4 6.3-.6.4-1.9-.1-2.8-.1 0-.4-.1-.6-.1-.8zM357.6 158.6c3-2.2 5.9-4.4 9-6.5.6-.4 1.6 0 2.5 0 .1.2.1.4.2.6-3 2.2-5.9 4.5-9 6.6-.6.4-1.7-.1-2.5-.1-.1-.2-.2-.4-.2-.6zM294.6 210.6c2.1-1.5 3.7-2.5 4.9-3.8 1.7-1.7 3.2-1.5 5.1.2-2 1.6-3.9 3.3-6.1 4.5-.7.5-2.2-.4-3.9-.9zM346.9 166.6c2.8-2 5.5-4.2 8.3-6 .6-.4 1.8 0 2.7.1 0 .2.1.4.1.6-2.8 2-5.5 4.1-8.3 6-.7.4-1.8.1-2.7.1 0-.3 0-.6-.1-.8zM151.4 340.8c3.6-3.1 3.1-3.5 7.6 1-.5.4-.9.8-1.4 1.2-2.4 1.9-2.3 1.9-4.2-.5-.5-.6-1.2-1-2-1.7zM317.1 188.7c2.4-1.7 4.6-3.6 7.1-5.1.7-.4 1.9.2 2.9.3v.6c-2.3 1.7-4.5 3.6-6.9 5.1-.7.4-2-.1-3.1-.1.1-.4 0-.6 0-.8zM386.9 164.1c-1.9 1.4-3.7 2.9-5.6 4.3-2.4 1.2-2.4 1.2-3.9.1 3-2.4 5.9-4.7 8.9-7 .4-.3 1.3 0 2.3.1-.7 1.1-1.2 1.8-1.7 2.5zM310 226.8c-1 .6-2 1.3-3 1.9-.7-.6-1.4-1.3-2.3-2.1 1.9-1.5 3.6-3.2 5.6-4.4.6-.4 2 .4 3.3.8-1.4 1.5-2.5 2.6-3.6 3.8zM266.6 250.5c4.3-4 5.2-4.1 8.3-1-1.3 1-2.5 2.1-3.8 3-.3.2-1.1.2-1.5 0-.9-.6-1.9-1.3-3-2zM352.6 192.1c-.8.5-1.6 1.1-2.4 1.6-1-.1-2-.3-3-.4 0-.2-.1-.4-.1-.7 2.5-2 5-4 7.6-5.8.5-.4 1.6.1 2.9.2-2 2.1-3.5 3.6-5 5.1zM329.8 210.5c-1.6 1.2-3.4 2.2-4.8 3.6-1.6 1.5-2.9 2-4.5-.2 2.1-1.7 4.3-3.6 6.6-5.1.4-.2 1.8 1.1 2.7 1.7zM141.2 333.5c4.2-3.7 4.6-3.7 7.5.1-.5.4-1 .9-1.6 1.3-2.5 1.9-2.5 1.9-4.4-.3-.4-.3-.9-.6-1.5-1.1zM262.1 247.4c5.2-4.3 3.4-4.3 8.3-1.1-1.3 1.1-2.6 2.1-3.9 3.1-.4.2-1.2.1-1.6-.1-1-.5-1.8-1.2-2.8-1.9zM317.7 191.5c-2.2 1.7-4.4 3.5-6.7 5-.6.4-2-.3-3.6-.6 2.8-2.1 5-3.9 7.3-5.4.7-.4 1.9.2 2.9.4.1.3.1.4.1.6zM286.1 227.4c-2.3 1.6-4.1 2.9-6 4.2-.9-.6-1.8-1.1-3.1-1.9 1.9-1.5 3.4-3 5.3-3.9.8-.3 2.2.9 3.8 1.6zM336.9 177c-2.4 1.9-4.8 3.8-7.3 5.5-.6.4-1.9-.2-2.9-.3v-.6c2.5-1.8 4.9-3.7 7.5-5.4.6-.4 1.8.1 2.7.2v.6zM296.3 213.4c-1.8 1.3-3.4 2.9-5.4 3.9-.9.5-2.4-.3-3.6-.5v-.6c1.9-1.4 3.7-3 5.7-4.1.7-.4 2.1.4 3.2.7.1.1.1.3.1.6zM235 275.6c2.1-3.8 3.9-3.9 7.7-.4-1.9.7-2.6 3.6-5.3 2.3-.8-.6-1.6-1.2-2.4-1.9zM375.5 173.2c-1.8 1.3-3.6 2.6-5.3 4-1.2 1-2.2 1.1-3.3-.3 2.8-2.2 5.6-4.5 8.5-6.6.4-.3 1.4.1 2.5.2-1.1 1.2-1.8 2-2.4 2.7-.1.1 0 0 0 0zM303.6 232c-.8.6-1.6 1.2-2.4 1.7-1.7 1.1-2.6-.4-4.1-1.2 1.9-1.5 3.4-3 5.3-4.1.8-.4 2.2.2 3.7.4-1.1 1.6-1.8 2.4-2.5 3.2zM268.7 254.1c-3.5 3.8-4.3 3.9-7.7.9 3.6-3.9 4.1-4 7.7-.9zM264.2 251c-3.9 3.9-4 3.9-7.8 1 3-3.9 3.8-4 7.8-1zM269.7 235.1c2-1.5 3.2-3 4.9-3.6 1.1-.4 2.7.4 4 .7 0 .3.1.5.1.8-1.7 1.2-3.2 2.6-5.1 3.4-.8.4-2.2-.6-3.9-1.3zM136.3 330.3c5.2-4.3 4.3-3.5 7.4-.5 0 .1-.1.3-.2.4-1.3 1-2.5 2.6-4 2.9-.9 0-2.1-1.9-3.2-2.8zM298.6 236.1c-1 .8-2.1 1.6-3.1 2.3-1.7 1.1-3.4 2.2-5-.5 1.5-1.2 3-2.8 4.8-3.7 1.5-.8 2.6.6 3.3 1.9zM230.4 272.5c1.1-3.5 4-3.8 7.6-.6-1.8.7-2.4 3.3-5 2.4-.9-.6-1.8-1.2-2.6-1.8zM431.1 112.8c0-1.4.1-2.3.1-3.3 2.8-1 5.6-2 8.6-3.1.1 1.4.2 2.4-1.4 3-2.4.8-4.7 2.1-7.3 3.4zM279.6 222.2c1.5-1.2 2.6-2 3.7-3 2.2-1.9 2.4-1.9 5.2 0-1.7 1.4-3.2 3-5.1 3.9-.8.5-2.2-.5-3.8-.9zM138.3 325.2c0 .5.3 1.3 0 1.5-1.3 1.1-2.7 2.1-4.2 3.2-1-1.1-1.8-2-2.8-3.1 1.1-.8 2.2-1.6 3.4-2.5 1.7-1.3 2.3 1.1 3.6.9.1.1 0 0 0 0zM250.7 256c4.6-3.6 3.2-3.7 7.5-.3-3.1 3.4-4.5 3.5-7.5.3zM308.8 198.3c-2.1 1.6-4.2 3.4-6.5 4.8-.6.4-2-.4-3.5-.8 2.6-1.9 4.7-3.6 7-4.9.7-.4 1.9.2 2.9.3 0 .2 0 .4.1.6zM255.5 259.2c4.4-3.5 3.2-3.8 7.4-.5-2.9 3.7-3.9 3.8-7.4.5zM284 248.1c-1 .8-2.1 1.5-3.1 2.3-1.2-.5-2.4-.9-4.1-1.6 1.8-1.5 3.1-2.9 4.6-3.5.9-.4 2.3.4 3.6.8-.5 1-.8 1.5-1 2zM291.1 208.1c2-1.5 4-3.2 6.2-4.5.6-.3 1.9.5 3.4.9-2.4 1.8-4.1 3.3-6.2 4.5-.8.5-2.2-.1-3.3-.2-.1-.3-.1-.5-.1-.7zM271.6 238.2c-4.3 4.1-4.3 4.1-7.7 1.8 3-3.9 4.8-4.4 7.7-1.8zM94.4 343.7c.1-.2.2-.3.3-.5.2 0 .5-.2.6-.1 2.1 1 4.1 2.1 6.3 3.2-.2.3-.4.8-.6.8-2.2.2-4.4.8-6.4.3-1.4-.4-1.6-2.4-.2-3.7zM257.6 263.1c-3.5 3.4-4.3 3.4-7.3.2 3.2-3.3 3.3-3.3 7.3-.2zM281.6 224.4c-2.2 1.7-3.8 3.2-5.6 4.2-.8.4-2.2-.5-3.8-1 2.2-1.6 3.7-3.1 5.5-4 .9-.4 2.3.4 3.9.8zM265.9 232.3c1.5-1.1 2.8-2.6 4.5-3.3 1-.4 2.5.4 3.7.7v.6c-1.5 1.1-2.9 2.6-4.5 3.3-1 .4-2.4-.4-3.7-.6v-.7zM289.7 243.2c-1.1.7-2.2 1.4-3.4 2.1-.8-.5-1.6-1.1-2.6-1.9 1.6-1.3 2.9-2.8 4.5-3.5.8-.4 2.3.4 3.7.8-1.1 1.2-1.7 1.9-2.2 2.5-.1.1 0 0 0 0zM257.6 244.6c5.2-4.4 4-4 7.8-1.4-3.8 3.9-4.2 4-7.8 1.4zM292.4 210.6c-2.3 1.8-4 3.4-6 4.5-.7.4-2.1-.3-3.8-.6 2.5-1.9 4.3-3.4 6.3-4.6.7-.4 2 .3 3.5.7zM245.5 260.2c4.2-3.5 2.9-3.5 7.2-.3-2.8 3.4-3.5 3.4-7.2.3zM272.5 257.4c-1 .8-2.1 1.5-3.1 2.3-1.4-.4-2.7-.8-4.1-1.1v-.8c1.5-1 2.9-2.3 4.6-2.8.6-.2 1.7 1.5 2.6 2.4zM399.7 152.7c-3.1 2.6-5.9 5-8.8 7.3-.6.4-1.5.4-2.3.6-.1-.3-.2-.6-.3-.8 3.3-2.6 6.7-5.2 10.1-7.7.1-.1.7.3 1.3.6zM225.8 269.7c1.1-1.1 2-2.8 3.3-3.2 1-.3 2.5 1 3.8 1.5 0 .3.1.5.1.8-1.6.8-3.2 1.6-4.9 2.5-.7-.6-1.5-1.1-2.3-1.6zM267.2 235.5c-5.5 4.6-4.5 4.1-7.6 1.9 3-3.7 4.7-4.2 7.6-1.9zM278.2 252.8c-.8.5-1.6 1.1-2.3 1.6-2.2 1-2.2 1-4.6-1.1 1.1-.9 2.2-1.9 3.4-2.7.6-.4 1.5-.5 2.1-.3.8.5 2.1 1 1.4 2.5zM460.9 139.2c0-2.1 1.8-2 2.9-1.8 2.3.3 4.4 1.1 6.6 2-1.9 1.2-3.8 2.1-6.1 1.1-1.1-.6-2.3-.9-3.4-1.3-.1 0 0 0 0 0zM446.1 106.8c-.5-2.2-.1-3.6 2.2-4.3 1.4-.4 2.7-1.3 4.2-2.1.4 3-1.9 5.3-6.4 6.4zM284.3 216.2c-5.8 5.6-6.1 5.5-8.6 3.4 1.8-1.3 3.4-2.7 5.3-3.8.6-.4 1.8.1 3.3.4zM252.3 267.4c-3.3 3.2-3.7 3.2-7.1-.1 3.3-3.2 3.5-3.2 7.1.1zM276.5 222.6c-1.1.8-2.3 1.6-3.3 2.5-1.6 1.5-3.1 1.5-4.8-.2 1.6-1.2 3.1-2.6 4.9-3.5.8-.4 2.2.3 3.3.4 0 .3-.1.5-.1.8zM247.5 264c-3.3 3.3-3.9 3.3-7 .1 3.8-3.4 2.9-3.1 7-.1zM259.2 247.9c-3.4 3.8-4 3.9-7.3 1.2 3.5-3.7 4.1-3.8 7.3-1.2zM253.4 242c3.2-3.6 4.3-3.8 7.3-1.7-3.3 3.7-4.5 4-7.3 1.7zM144.3 379.4c-1.4 1.5-2.8 3.1-4.2 4.6-.5.3-1 .7-1.6.9-.4.1-1 0-1.4-.1.1-.5-.1-1.3.3-1.6 1.2-1.2 2.5-2.2 3.7-3.3.2-.2.2-.5.3-.8.3-.2.7-.5 1-.7.4-.3.8-.7 1.4-1.2.1 1 .3 1.6.5 2.2zM440.8 120.6c-3.4 1.2-6.8 2.5-10.2 3.7-1.9.7-3.8 1.4-5.8 2-.7.2-1.6 0-2.4 0 0-.3-.1-.5-.1-.8 6.1-1.7 12.2-3.4 18.4-5.1.1.1.1.1.1.2zM253.5 252.5c-4 3.4-4 3.4-7.2.7 4.4-3.9 3.3-3.4 7.2-.7zM266.8 262.1c-1 .8-2.1 1.5-3.1 2.3-1.3-.5-2.5-1-3.8-1.6v-.7c1.4-.9 2.7-2.3 4.2-2.6.6-.1 1.8 1.7 2.7 2.6zM247.2 271.4c-3 2.9-3.1 2.9-6.7-.3 3.1-3.2 2.7-3.4 6.7.3zM162.2 342.1c-.1-.5-.2-1-.2-1.5.6 0 1.3-.3 1.7 0 1.4 1 2.6 2.1 3.9 3.2.8.6 1.6 1.3 2.7 2.2-.3.5-.7 1.1-1.2 1.8-2.3-2-4.6-3.9-6.9-5.7zM269.8 227.2c-4.2 4.5-5.4 4.9-8.2 2.8 1.5-1.1 2.9-2.5 4.6-3.3.8-.3 2.1.3 3.6.5zM477.6 134.6c-1.2-.7-2.3-1.4-3.7-2.2 3.6-2.3 6.5.3 9.7 1-2 1-3.9 1.7-6 1.2-.1-.1 0 0 0 0zM261.1 266.8c-.8.6-1.6 1.1-2.4 1.7-1.3-.4-2.6-.8-3.9-1.3 0-.3-.1-.6-.1-.8 1.4-.8 2.7-2.1 4.2-2.3.7-.2 2.6.7 2.2 2.7zM255.3 234.9c4.2-4.1 4.5-4.2 7.3-2-5.3 4.4-4.3 4.2-7.3 2zM247.5 246.4c3.6-3.7 4-3.8 7-1.3-3.3 3.6-4 3.7-7 1.3zM241 257.3c4-3.3 3.3-3.5 6.8-.6-3.1 3.3-3.4 3.4-6.8.6z"/><path class="bst1" d="M162.2 342.1c2.3 1.9 4.6 3.8 6.8 5.6.7.8 1.4 1.7 2.1 2.5-.2.1-.3.3-.5.4-1.4-1-2.7-2-4.1-3-1.6-1.4-3.3-2.8-4.9-4.2-.4-.5-.7-.9-1.5-1.9 1.1.3 1.6.4 2.1.6zM235.7 267.7c3.7-3.1 2.4-3 6.7.2-3.2 3.3-2.7 3-6.7-.2zM222.4 267.3c-.3-.4-.7-.9-1-1.3 3.6-3.2 4-3.3 6.8-.5-1.8.6-2.4 3.3-4.9 2.2-.4-.1-.6-.2-.9-.4zM241.8 250.6c4.7-3.8 3.4-3.4 6.9-1-4.2 3.7-3.5 3.5-6.9 1zM249.2 239.5c3.7-3.8 4.1-3.9 6.9-1.8-3 3.6-4.3 4-6.9 1.8zM488.9 127.9c-.2-2 1.5-1.7 2.4-1.6 2.3.3 4.6 1 6.9 1.7-2.2 1.1-4.3 2.1-6.8.6-.8-.4-1.7-.5-2.5-.7-.1-.1 0 0 0 0zM242.6 260.9c-3.1 2.9-3.4 2.9-6.5.2 2.9-3.1 3.3-3.1 6.5-.2zM230.4 272.5c.9.6 1.7 1.2 2.6 1.8.7 1 0 1.6-.7 2-.7.3-1.6.7-2.2.5-1.1-.5-2.1-1.4-3.6-2.4 1.5-.8 2.7-1.4 3.9-1.9zM236.6 254.5c3.6-3.1 3.6-3.1 6.5-.9-2.4 3.4-3.3 3.5-6.5.9zM217.1 299.4c-.3-.3-.7-.6-1-.9.2-1.9.5-2.1 2.1-1 2 1.4 4 2.7 6.1 4.1.2.1.4.1.7.1-.1.7-.1 1.4-.2 1.9-2.5-1.4-5.1-2.8-7.7-4.2zM250.1 242.4c-5.2 4.1-3.8 3.4-6.9 1.6 2.8-3.4 4-3.7 6.9-1.6zM256.1 270.1c-3.6 2.9-3.6 2.9-6.2.5 2.8-3.3 3.2-3.4 6.2-.5z"/><path class="bst1" d="M488.8 127.8c1.5.9 2.9 1.8 4.6 2.9-.1.5-.4 1.4-.7 2.6-1.8-1.1-3.4-2-5-3-.3-.2-.5-1.2-.3-1.6.3-.4 1-.6 1.4-.9.1.1 0 0 0 0zM235 275.6l2.4 1.8c.3.6 1.3 1.1.1 1.8-.8.5-1.3 1.8-2.6.8-1-.8-2-1.4-3.4-2.4 1.3-.7 2.4-1.3 3.5-2zM460.8 139.2c1.5.9 3 1.8 4.7 2.8-.2.8-.5 1.7-.8 2.8-1.7-1.1-3.4-2.1-4.9-3.2-.3-.2-.4-1.2-.2-1.6.1-.5.8-.6 1.2-.8.1 0 0 0 0 0zM426.6 117.2c-4.5 1.8-8.3 5.3-13.6 5.1 4.4-1.9 8.9-3.9 13.3-5.8.1.2.2.4.3.7zM217 263.9c.8-2.9 3.8-3.6 6.4-1.7-2.1 2.6-3.3 3-6.1 1.9 0 0-.2-.1-.3-.2zM477.5 134.5c1.6 1.4 1.6 1.4.4 3.9-1.5-.9-3-1.8-4.4-2.8-.5-.4-.6-1.5-1.1-2.7 2.2.7 3.7 1.2 5.1 1.6.1.1 0 0 0 0zM245.1 274.3c3.1-2.9 3.2-2.9 6-.3-2.4 3.3-2.7 3.3-6 .3zM237.6 264.7c-3 2.9-3.3 2.9-6.3.1 2.6-2.8 2.9-2.8 6.3-.1zM400 150.6c.4-.3.7-.7 1.1-1 3-2.4 6-4.7 9-7.1.1.1.3.2.4.4-.7.6-1.3 1.2-2 1.8-.6.6-1.9.7-1.3 2.1.1.1-.5.5-.9.8-1.4 1.1-2.8 2.3-4.3 3.3-.5.3-1.2.3-1.8.4-.1-.2-.2-.5-.2-.7zM244.2 246.8c-3.8 3.3-3.8 3.3-6.5 1.4 2.1-3.1 3.7-3.5 6.5-1.4zM137.1 378.5c-.5-1-1-2.1-1.5-3.1-.4-.6-.8-1.3-1.2-1.9 1.7-1 3.8-.5 4.4 1 .8 1.7.1 3.3-1.7 4zM237.9 257.9c-2.8 2.9-3.5 3-6.3.5 3.9-3.2 2.8-3.1 6.3-.5zM232.2 252c3.4-3.2 3.4-3.2 6.3-1.1-2.6 3.1-3.5 3.3-6.3 1.1zM232.8 261.8c-3.1 2.6-3.1 2.6-6 .2 2.8-2.9 3-3.1 6-.2zM225.8 269.7c.8.5 1.5 1.1 2.3 1.6-.2 1.7-1.9 2.8-3.2 2.2-.4-.2-.8-.5-1.2-.8-.4-.3-.9-.7-1.8-1.4 1.6-.7 2.8-1.2 3.9-1.6zM227 255.8c3.3-3 3.5-3 6.2-1-2.5 3.1-2.9 3.2-6.2 1zM150.9 347.8c-.7.4-1.4.7-2.4 1.2.7.5 1.2.7 1.6 1-.1.2-.3.4-.4.6-1.5-1.1-3.1-2.1-4.6-3.2 1.5.6 2.9.9 4.2-.6 1-1.1 2.1-2.1 3.4-3.2.4.3 1.1.8 2.3 1.5-1.8-.1-2.9.1-2.8 1.8h-.1l-.4.4c-.3.3-.6.4-.8.5zM255.7 276.9s.1 0 0 0c-.3 1.7-.7 3.4-1.1 5.2-.1-2.8-1.1-5.7.7-8.4 1.1-.8 2.1-1.6 3.2-2.4.3.1.6.1.9.2-.8.9-1.6 1.8-2.4 2.6-.4 1-.8 1.9-1.3 2.8zM222.4 267.3c.3.1.6.3.9.4 0 .6.1 1.4-.2 1.6-.7.5-1.7 1.1-2.4.9-.9-.2-1.7-1.1-2.6-1.7 1.3-1.2 2.4-2.5 4.3-1.2zM222.4 259.4c3-2.7 3-2.7 5.7-.6-2.4 2.8-2.6 2.8-5.7.6zM152.3 356.5c-1.2-.9-2.4-1.8-3.5-2.7v-1.1c1.9.9 3.7 1.6 5.3 2.7 1 .6 1.6 1.7 2.1 2.9-1.3-.7-2.6-1.3-3.9-1.8zM101.1 345.1c-1.7-.9-3.4-1.7-5.4-2.7 1.8-1 3.4-1.6 4.9-.5.7.5.8 1.8 1.2 2.8-.2.1-.5.3-.7.4z"/><path class="bst1" d="M217 263.9c.1.1.3.2.4.2.5.5 1.1 1 1.6 1.6-2.3 2.3-2.4 2.3-5.6-.4 1.4-.5 2.5-.9 3.6-1.4zM161.9 339.8c-.6.2-1.1.6-1.4.4-.9-.3-1.6-.9-2.5-1.4-.8-.5-2.2-.8-1.3-2 .3-.4 1.9-.2 2.6.2.9.6 1.5 1.7 2.6 2.8zM137.7 381.9c-2.4 2.1-3.7 2.3-5.6.8-1-.7-2-1.5-2.9-2.4-.3-.3-.4-1-.5-1.5 0-.1.7-.5.7-.4.3.3.6.7.8 1.1 1.4 2.8 3 3.4 7.5 2.4zM163.4 356.6c-.1.1-.1.3-.2.4-.7.5-1.5.9-2.2 1.4-1.4-2.4-1.4-2.4 1.4-4.7.3 1 .6 1.9 1 2.9zM38.9 461.8c-.7 0-1.5.1-2.5.1.2-.6.4-1 .4-1-.5-.3-.9-.5-1.3-.7.8-.7 1.6-1.3 2.5-2 1.6-.6 1.7.4 1.5 1.5 0 .7-.3 1.4-.6 2.1.1 0 0 0 0 0zM212.8 296.2c-.5-.3-1-.7-1.5-1 .1-.6.2-1.1.4-1.7.5.2 1 .2 1.5.5 1 .6 1.9 1.4 2.8 2.1-.1.2-.1.5-.2.7l-3-.6zM151.5 333c1.6-1.2 1.9-1 4.9 2.6-1.2.8-2.5.2-4.9-2.6zM244 280.4c.8-.6 1.6-1.1 2.4-1.7.8-.6 1.6-1.2 2.5-1.8.1.1.1.2.2.2-1.8 2-3.6 4-5.3 6-.2-.1-.5-.3-.7-.4.3-.7.6-1.5.9-2.3zM207.8 292.9c-.3-.4-.7-.7-1-1.1v-1.9c.6.2 1.2.3 1.6.6.9.6 1.7 1.3 2.6 2-.1.2-.1.4-.2.5-.9.1-2 0-3-.1zM407.4 119.8c.3-1.4.5-2.3.8-3.4 1.4.6 2.7 1.2 4.4 1.9-2 .6-3.4 1-5.2 1.5z"/><path class="bst1" d="M38.1 458.2c-.8.7-1.6 1.3-2.5 2-.5-.5-1-.9-1.7-1.5 1-.7 1.8-1.4 2.8-1.8.4-.2 1.1.2 1.6.4 0 0-.1.5-.2.9zM203.1 289.5c-.2-.2-.4-.3-.6-.5-.2-.6-.4-1.3-.6-2.1 1.9-.5 2.7 1.4 4.1 2v.6c-1 .1-2 0-2.9 0zM92.7 347.1c1.2 2.7 3.4 3.4 6.1 3.2v.6c-1 .2-2.2.9-2.8.6-1.4-1-3.2-2.1-3.3-4.4zM482.5 135.3c.1 2.2-1.1 2.9-3 2.9-.3-2.5-.2-2.7 3-2.9zM146.4 328.2c-.9-.2-2-.1-2.8-.5-.6-.3-.8-1.2-1.3-1.8.5-.2 1.1-.7 1.3-.6 1 .6 1.9 1.4 2.8 2.1.1.2 0 .5 0 .8zM146.4 352.2c-.4-.4-.9-.8-1.3-1.3l-1.8-1.8.4-.4c1.7.8 3.3 1.7 5 2.5-.1.3-.1.5-.2.8-.7.1-1.4.2-2.1.2zM475.9 128.5c.9-2.4 3.6-3.4 5.8-2.3-2 .8-3.8 1.5-5.8 2.3zM145.5 342.7c-.3.5-.6 1-1 1.4-.4.5-.8.9-1.3 1.6.8 0 1.1 0 1.6-.1-1 1.1-2.4.5-5.1-2.1 1 .2 2 .8 2.8.6.9-.2 1.7-1.1 2.6-1.7.2.1.3.2.4.3zM138.5 323.4c-.1-.5-.2-1.1-.3-1.6.5.1 1.1.1 1.6.3.2 0 .4.2.5.4l1.6 1.6c-.7.1-1.5.2-2.2.4-.5-.5-.9-.8-1.2-1.1zM413.3 114.6c-.2 1.1-.4 1.9-.6 3-1.3-.6-2.4-1-4-1.7 1.8-.5 3-.9 4.6-1.3zM446.2 140c-2.2-1-4.4-1.9-6.8-3 3.6 0 7.2 1.5 6.8 3zM465.8 144.4c-.2-2.6 1.5-2.9 3.3-3-.1 2.5-.1 2.6-3.3 3zM198.6 286.3c-.3-.3-.7-.5-1-.8 0-.6.1-1.2.1-1.7.6.1 1.2.2 1.7.4.7.4 1.2.9 2.4 1.7-1.5.2-2.4.3-3.2.4zM497 130.1c.1 2.4-1.3 2.7-3.2 2.8-.1-2.4 1.1-3 3.2-2.8zM151.4 331.8c-2.3.5-3.1-1.5-4.6-2.2 1.2-1.3 2.3-.8 4.6 2.2z"/><path class="bst1" d="M142.7 343.5c-.7-.5-1.3-.8-2-1.4.6-.8 1.2-1.5 1.8-2.2 1.9 1 1.9 1 .2 3.6zM117.9 330.5l2.4 3c.2.3.2.8.3 1.2-.4 0-.8.2-1.1 0-1.6-.5-2.1-2.1-1.6-4.2zM139.2 340.1c-.1.6-.4 1.5-.7 2.7-1.3-.9-2.8-1.9-4.1-2.7h4.8zM197 282.6c-1.7.9-2.8.2-3.9-.6-.2-.1-.2-.9 0-1.1.2-.2.8-.4 1.1-.2.9.5 1.7 1.1 2.8 1.9zM467.4 131.1c-2.3 1-4.2 1.8-6.1 2.6.5-1.7 3.2-2.9 6.1-2.6zM142.2 378.4c-.3.2-.7.5-1 .7-.4.3-.8.5-1.7 1.1.7-1.6 1.2-2.8 1.7-4v.1c.6-.1 1.1-.2 1.9-.4-.4 1.1-.6 1.8-.9 2.5zM129.8 331.5c.5-.6 1-1.2 1.6-1.9-.6-.4-1-.8-1.5-1.2.1-.1.1-.2.2-.3 1 .6 2 1.3 3.2 2.1-1.3.7-2.3 1.2-3.3 1.8-.1-.2-.1-.4-.2-.5zM142.6 348.5c-1.5-.9-3-1.9-4.5-2.8.1-.2.2-.4.4-.6 1.6.8 3.1 1.6 4.7 2.4-.2.3-.4.6-.6 1zM419.8 117.7c-2.2 1-4.4 1.9-6.6 2.9-.1-.2-.2-.5-.3-.7 2.2-.9 4.5-1.7 6.7-2.6.1.1.1.2.2.4zM137.8 343.6c-1.3.9-4.2-.8-4.7-2.5 1.5.9 3.1 1.7 4.7 2.5zM132.5 339.9c-1.7 1.3-2.4-.2-3.4-.7-.5-.2-.9-.9-.9-1.5 1.4.7 2.7 1.4 4.3 2.2zM421.2 127.4c-1.7 1.7-2.6.3-3.7-.3.1-.2.1-.4.2-.7 1.1.4 2.3.7 3.5 1zM133.8 336.5c-.2.8-.4 1.6-.7 2.6-1.3-1-2.5-1.9-3.8-2.8 1.5.3 2.8 1.9 4.5.2zM138.5 323.4l1.2.9.3.9h-1.7.1c-.6-.6-1.3-1.2-1.9-1.8 0-.2.1-.4.1-.5.6.2 1.2.3 1.9.5zM122.7 334.1c1.9.9 3.1 1.4 4.4 2.1-1.1 2-1.9.2-2.7-.1-.6-.3-1-1.2-1.7-2zM411.8 141.2l1-1c1.6-1.3 3.3-2.6 5.2-3.6-2 1.6-3.9 3.2-5.9 4.9 0-.1-.1-.2-.3-.3zM228.7 351.7c-.2.3-.5.5-.7.8.2-.5.4-1 .5-1.4.1.2.2.4.2.6zM150.9 347.8c.2-.1.5-.3.7-.4-.2.2-.5.3-.7.4zM228.6 351c-.1-.3-.2-.5-.3-.8.1.3.2.6.3.8zM152 347zM38.9 461.8s.1 0 0 0c.1 0 0 0 0 0zM227.3 356l.3.6c-.2 0-.4-.1-.6-.1.1-.2.2-.4.3-.5zM511.4 419.8c.8.8 1.4 1.1 1.5 1.6.1.5-.5 1-.7 1.5-.4-.3-1.1-.6-1.3-1-.1-.5.3-1.1.5-2.1zM142.9 443.9c-1.4-5.6 2.1-11.3 8-12.8 5.4-1.4 10.6 1.5 11.9 6.5 1.4 5.5-2.4 11.2-8.5 12.7-4.8 1.3-11-2.1-11.4-6.4zm3.3-9.3c-.5.5-.9.9-1.2 1.3-3 4.1-2.4 10.9 3.3 13.1 4.7 1.8 8.3.1 11.6-2.9 2.7-2.5 3.1-7.2 1.3-10.6-1.3-2.5-5.1-4.2-8.4-3.7 5.5 3.4 6.8 5.9 5.1 9.5-1.8 3.9-5.6 4.9-8.7 3.7-2.9-1.3-4.7-3.5-3-10.4zm5.8 6.7c2.5-.7 4.4-3.4 3.8-5.5-.7-2.4-3.2-3.8-5.6-3.2-2.5.7-4.6 3.5-4 5.4 1 2.9 3.7 4.3 5.8 3.3zM108.1 427.9c1.2-2.9 6.6-4.9 10.1-4.1 3.9.9 6.6 4 6.8 7.9.4 7.1-6.6 13.1-13.5 11.5-3.2-.8-5.3-2.8-6-6.1-.6-3.1-.5-6 2.2-8.3-1 1.7-.8 3.5.4 4.9 1.2 1.4 3 1.7 4.8.9 1.9-.8 3.6-3.2 3.3-4.9-.4-1.8-1.2-3.8-3.3-3.7-1.7.2-3.2 1.3-4.8 1.9zm5-2.9c5.6 2.7 6.9 4.1 6.7 7.1-.2 2.8-2.8 5.7-6.1 6.3-4.6.9-5.8-2.8-7.4-6.1-1.5 4.7 1.5 10.2 6.6 10.4 4.4.1 9.2-2.7 10.6-7.3 1-3.1.7-6.1-1.4-8.5-2.2-2.5-5.3-3.1-9-1.9zM188.4 399.7c2.1.8 4.4 1.1 6.2 2.4 4 2.8 4.3 7.7 1.1 11.9-4.4 5.7-13.3 5.5-17.1-.4-1.7-2.6-1.3-6.7.9-8.9-.2.5-.3 1-.5 1.5-1.8 4.4-.1 8.4 3.8 10 4.7 1.9 8.5 1.2 12.2-2.7 2-2.1 2.6-4.8 1.6-7.5-.9-2.4-2.4-4.4-5.4-4.8 1.7 2.7 3.5 5.3 1.4 8.4-1.8 2.6-4.6 3.6-7.6 2.8-4.1-1.1-4.7-4.4-3.8-8.2-.9.3-1.3.5-1.8.6 1-3.2 5.8-5.9 8.8-4.9-1 .1-2 .1-2.9.4-1.6.7-3.3 1.5-3.4 3.8 0 2.1 1.3 3.3 3.1 3.9 1.4.5 4.3-.4 5.3-1.7 1.2-1.6 1.2-3.2 0-4.8-.4-.7-1.2-1.2-1.9-1.8zM140.1 403.6c-2.3-5 5-14 10.5-12.2 1.4.5 3 .4 4.3 1 5.5 2.5 6.6 8.3 2.6 13.4-3.3 4.1-9.5 5.3-13.9 2.4-1.5-1-2.6-2.7-3.9-4.1.1-.2.2-.3.4-.5zm12-11.2c2.7 2.6 4.3 5.3 2.4 8.5-1.3 2.2-3.6 3.6-6.4 3.4-5-.5-5.9-3.9-5.3-8.5-4 4.7-2.8 10.1 2.3 12.2 4.1 1.7 7.5.5 10.8-2.1 2.7-2.1 3.4-4.9 2.9-8-.3-2.7-3.1-4.9-6.7-5.5zm-3.2 7.3c2.7-.8 4.5-3.1 3.9-5-.7-2.3-3-3.4-5.6-2.7-2.6.7-4.3 3-3.7 4.8.8 2.5 2.9 3.7 5.4 2.9zM198.8 241.1c-1.3.8-2.4 1.4-3.5 2 0-.1-.1-.1-.1-.2.4-.3.7-.8 1.2-1 1.5-.8 2.3-1.6 1.8-3.6-.2-.7 1-2 1.8-2.6 1.2-.8 2.7 0 3 1 .7 2.4 2.3 2.1 4.1 2 .3 0 .6.1 1 .4-1.2.1-2.3.2-3.8.3.6 1.9-.1 4.2 2.2 5.3.1 0 .2.1.2.1-.1 1 .1 2.1-.3 2.9-.7 1.4-3.8 2.2-5.1 1.4-.7-.5-1.7-2-1.5-2.3 1.2-2.2-.6-3.6-1-5.7z"/><path class="bst1" d="M108.1 427.9c1.6-.6 3.1-1.8 4.7-1.8 2.1-.1 2.9 1.9 3.3 3.7.4 1.8-1.4 4.2-3.3 4.9-1.8.8-3.6.5-4.8-.9-1.2-1.4-1.5-3.2-.4-4.9.2-.3.3-.7.5-1zM188.4 399.7c.7.6 1.5 1.1 2 1.8 1.2 1.5 1.2 3.2 0 4.8-1 1.3-3.9 2.2-5.3 1.7-1.9-.7-3.1-1.8-3.1-3.9 0-2.2 1.7-3 3.4-3.8.9-.4 1.9-.3 2.9-.4-.1-.1 0-.2.1-.2zM177.7 454.7c-3.8 2.8-7.4 5.8-11.3 8.3-8 5.1-16.6 9.1-25.8 11.9-12.6 3.8-25.4 5.6-38.5 4.8-.6 0-1.1-.4-1.6-.6 7.3-.2 14.6 0 21.8-.8 9.2-.9 18-3.5 26.6-7 9.9-4 18.9-9.5 27.4-15.9.5-.3 1-.4 1.4-.7zM214.1 241.4c2.5 2.1 2.9 4.6 1.5 7.9-2.5 6.1-14 11.5-21.8 6.1-2-1.4-2.5-3.2-2.5-5.8 2.4 6.3 6.5 8.2 12.8 6.6 3.1-.8 6-2 8.5-4.1 3.5-3.2 4.1-6.7 1.5-10.7zM166.7 354.6c.7 3.8-1.8 7-5.9 7.9-3.3.8-6.3-.5-7-3 4.4 4 11.8 1.2 12.9-4.9zM227 367.3c-.3 2.6-.4 5.3-1 7.9-1.8 8.3-3.7 16.5-5.6 24.8-.1.3-.2.5-.4.7 0-.5-.1-1 .1-1.4 3.3-9.9 4.7-20.1 6.4-30.3 0-.6.3-1.2.5-1.7z"/><path class="bst1" d="M198.7 248.6c3.3 2.6 8.4.9 9.5-2.6.2.1.4.2.6.2-.4 1-.6 2.1-1.2 2.9-1.4 1.9-4.4 2.8-6.6 2.1-1.2-.4-2.4-.9-2.3-2.6zM92.7 478.5c-4.3-.9-8.6-1.7-12.9-2.6 4.3.9 8.6 1.7 12.9 2.6zM142.2 378.4c.2-.7.5-1.5.8-2.5-.8.1-1.3.3-1.9.4.6-.3 1.4-1 1.8-.8 1.5.7 2 2.6 1.3 3.9-.2-.6-.3-1.2-.6-2.1-.6.5-1 .8-1.4 1.1zM135.5 366.9c2.1-2.4 4.2-4.9 6.4-7.3-.3.6-.6 1.3-1 1.9l-5.4 5.4zM127.6 325.7c-.2 0-.5 0-.6-.1-1.9-1.8-4-1.8-6.3-.7 1.9-2.3 4.4-2 6.9.8zM141.7 494.6c-5.7.7-12 1.6-18.4 2.2-1 .1-2.5-1-3.3-1.9-2-2.5-3.7-5.1-5.4-7.8-.7-1-.6-2.1.8-2.5 1.7-.5 3.5-1 5.3-1.3 4.7-.7 9.5-1.1 14.2-1.9 2.4-.4 4 .7 5.2 2.4 1.4 2 2.7 4.1 4 6.2 1.4 2.6.9 3.7-2.4 4.6zm-12.3-6c-.5.3-1 .7-1.5 1 .5.3 1 .6 1.5.8.4.1.8.2 1.2.2.9-.1 1.9-.3 2.8-.4-.7-.4-1.5-.9-2.2-1.3 2.4-.7 3.7.9 4.2 2.7.3 1-.5 2.3-.8 3.4.3 0 1.2 0 2-.2 1-.2 2.6-.3 2.7-.8.5-2.4 2.2-1.4 3.9-1.6-1.7-2.7-3.3-5.2-4.9-7.7-2.3 1.7-3.5 1.5-4.9-.7-2.6.2-5.2.5-7.7.7 3-.5 6-1.1 9-1.6 0-.2-.1-.4-.1-.7-5.9.8-11.9 1.7-17.8 2.5v.6h1.3c2.5-.2 5.1-.5 7.6-.7-2.4.4-4.8.8-7 1.2 1 2.8-1.6 1.9-2.6 2.7 1.6 2.3 3.1 4.6 4.6 6.7 1.8-.4 3.3-.7 4.9-1-.1-.7-.2-1.3-.3-2.1-.7.3-1.3.6-2.6 1.1.4-1.4.5-2.7 1.1-3.3 1.6-1.6 3.5-2.1 5.6-1.5zm2.5 5.2v-1.1H127v.9c1.7.1 3.3.1 4.9.2zM207.4 352.4c-2.8 2.5-3.9 2.3-5.2-1 3.5-2.1 4.1-2 5.2 1zM250.3 283.7c-1.1-.6-1.9-1.1-2.7-1.5.6-.7 1-1.8 1.7-2 .7-.2 1.7.6 2.5.9-.4.7-.8 1.5-1.5 2.6z"/><path class="bst1" d="M207.4 352.4c-1.1-2.9-1.7-3-5.2-1 .9-1.8 2.3-2.4 4.2-1.7 1.3.5 1.9 1.3 1 2.7zM234.5 342.8c3-2.5 5.7-5.5 9.1-7.3 7.1-3.7 14.5-6.9 21.9-10.1 6.5-2.8 12.9-5.7 18.6-10 .6-.5 1.3-.7 2-1.1-4.7 4.3-10.3 7.2-16.1 9.7-7.2 3.1-14.6 5.9-21.7 9.3-4.2 2-7.8 5.1-11.7 7.7-.7.7-1.4 1.3-2.1 1.8zM259.5 271.6c-.3-.1-.6-.1-.9-.2 2-1.8 3.9-3.7 5.9-5.5.1.2.3.3.4.5-1.9 1.7-3.6 3.5-5.4 5.2zM223.2 277.3c1 .6 1.7 1 2.3 1.4-.4.6-.7 1.6-1.3 1.8-.5.1-1.5-.4-1.9-1-.2-.2.4-1.1.9-2.2zM178.2 339c1.7-1.4 3.4-2.9 5.1-4.3-.4.5-.9 1-1.2 1.4.5.6 1.1 1.2 1.2 1.9.1.3-.7 1.3-1.1 1.3-.9 0-1.8-.5-3.1-.8 0-.1-.4.2-.9.5zM217.9 275.1c.2-.1.4-.3.6-.2.8.2 1.6.4 2.4.7-.2.6-.2 1.4-.5 1.6-.6.3-1.8.5-2 .2-.5-.7-.4-1.6-.5-2.3 0-.1 0 0 0 0zM228.1 352.5c-.1.3-.1.7-.2 1 0-.4.1-.7.2-1zM227.9 353.4c-.1.3-.1.7-.2 1 .1-.3.1-.7.2-1zM227.7 354.3c-.1.3-.1.7-.2 1 .1-.3.2-.6.2-1zM227.5 355.3c-.1.3-.2.5-.3.8.2-.3.3-.6.3-.8zM146.2 434.6c-1.6 6.9.1 9.1 3 10.3 3.1 1.3 6.9.2 8.7-3.7 1.7-3.6.4-6.1-5.1-9.5 3.3-.5 7.1 1.1 8.4 3.7 1.8 3.5 1.4 8.2-1.3 10.6-3.3 3.1-6.9 4.7-11.6 2.9-5.8-2.2-6.3-9-3.3-13.1.3-.4.7-.7 1.2-1.2z"/><path class="bst1" d="M152 441.3c-2.2 1-4.8-.4-5.8-3.3-.6-1.9 1.5-4.8 4-5.4 2.4-.6 4.9.8 5.6 3.2.6 2.1-1.2 4.8-3.8 5.5zM113.1 425c3.7-1.2 6.8-.7 9.1 1.9 2.1 2.4 2.3 5.4 1.4 8.5-1.5 4.6-6.2 7.5-10.6 7.3-5.1-.1-8.1-5.6-6.6-10.4 1.6 3.3 2.9 7 7.4 6.1 3.3-.7 5.8-3.5 6.1-6.3.2-3-1.2-4.4-6.8-7.1zM179.4 404.7c.4-.2.9-.3 1.8-.6-.9 3.8-.2 7.1 3.8 8.2 3 .8 5.8-.1 7.6-2.8 2.1-3.1.3-5.7-1.4-8.4 3 .5 4.6 2.4 5.4 4.8 1 2.7.4 5.4-1.6 7.5-3.7 3.8-7.5 4.6-12.2 2.7-3.9-1.6-5.6-5.6-3.8-10 .1-.5.3-1 .4-1.4 0-.1 0 0 0 0zM152.1 392.4c3.5.6 6.3 2.8 6.7 5.5.5 3.1-.2 5.9-2.9 8-3.3 2.5-6.7 3.8-10.8 2.1-5-2.1-6.3-7.5-2.3-12.2-.6 4.6.3 8.1 5.3 8.5 2.8.3 5.1-1.2 6.4-3.4 2-3.2.3-5.9-2.4-8.5z"/><path class="bst1" d="M148.9 399.7c-2.5.7-4.7-.4-5.4-2.8-.6-1.9 1.1-4.1 3.7-4.8 2.6-.7 4.8.3 5.6 2.7.6 1.8-1.2 4.1-3.9 4.9zM125.9 484.6c2.6-.2 5.1-.5 7.7-.7 1.4 2.1 2.5 2.3 4.9.7 1.6 2.5 3.2 5 4.9 7.7-1.7.2-3.5-.8-3.9 1.6-.1.4-1.7.6-2.7.8-.9.2-1.8.2-2 .2.3-1.1 1.1-2.4.8-3.4-.6-1.8-1.8-3.4-4.2-2.7-.6-.1-1.2-.1-1.8-.2-2.1-.6-4 0-5.5 1.4-.6.6-.7 1.9-1.1 3.3 1.3-.6 1.9-.8 2.6-1.1.1.8.2 1.4.3 2.1-1.5.3-3 .6-4.9 1-1.4-2.1-3-4.4-4.6-6.7 1.1-.8 3.7.2 2.6-2.7 2.2-.4 4.6-.8 6.9-1.3.1.1 0 0 0 0zm12.3 6.3c-.2-3.5-4.8-5.5-10.7-5-4.1.4-6.5 2.2-6.2 4.5 4.2-3.9 12-3.8 16.9.5z"/><path class="bst1" d="M126 484.7c-2.5.3-5.1.5-7.6.7h-1.3v-.6c5.9-.8 11.9-1.7 17.8-2.5 0 .2.1.4.1.7-3.1.5-6.1 1.1-9 1.7-.1-.1 0 0 0 0zM129.4 488.6c.6.1 1.2.1 1.8.2.7.4 1.5.9 2.2 1.3-.9.1-1.9.3-2.8.4-.4 0-.9 0-1.2-.2-.5-.2-1-.5-1.5-.8l1.5-.9zM131.9 493.8c-1.6-.1-3.2-.1-4.9-.2v-.9h4.9v1.1z"/><path class="bst1" d="M138.2 490.9c-4.8-4.3-12.7-4.4-16.8-.4-.4-2.3 2.1-4.1 6.2-4.5 5.8-.6 10.3 1.4 10.6 4.9z"/></g></svg><svg id="colored_jsdlogo" viewBox="-1 -1 362 362" width="362" height="362" y="452" xmlns="http://www.w3.org/2000/svg"><style>.cst0{fill:#31c1d2}.cst1{fill:#fff}.cst2{fill:#ee4d25}</style><path class="cst0" d="M144.1 243c-9.8 0-17.7-9.4-17.7-20.9 0-11.5 8-20.9 17.7-20.9 9.8 0 17.7 9.4 17.7 20.9 0 11.5-8 20.9-17.7 20.9zm0-39.9c-8.7 0-15.9 8.5-15.9 18.9s7.1 18.9 15.9 18.9S160 232.4 160 222s-7.2-18.9-15.9-18.9z"/><path class="cst1" d="M162.4 220.5h-17.9V200h-2.1v20.5h-16.7v2.5h16.7v20.5h2.1V223h17.9z"/><path class="cst1" d="M145.1 244.1h-3.3v-20.5h-16.6v-3.7h16.6v-20.5h3.3v20.5H163v3.7h-17.9v20.5zm-2.1-1.2h1v-20.5h17.9V221H144v-20.5h-1V221h-16.6v1.4H143v20.5z"/><path class="cst2" d="M160.8 210.4c2.6 2.3 3 3.3 2.1 6.2-.7-2-1.4-4-2.1-6.2zM149.5 243.8c1.7-.8 3.3-1.6 4.9-2.4-.9 2.4-2.9 3.6-4.9 2.4zM139 200.1c-1.3.6-2.5 1.2-3.7 1.8 1.2-2.2 1.9-2.5 3.7-1.8zM125.9 228.3c.6 1.8 1.3 3.7 1.9 5.5-2.3-1.6-2.8-3-1.9-5.5zM163 227.5c.7 2.6 0 4.9-2 5.6.7-1.9 1.4-3.8 2-5.6zM140 244.5c-3.3.5-4 .1-5-2.5 1.6.8 3.3 1.6 5 2.5z"/><g><path class="cst2" d="M128.3 209c-.7 2.1-1.5 4.2-2.2 6.2-1-3.1.3-5.7 2.2-6.2z"/></g><g><path class="cst2" d="M149 199.8c3.5-.6 4.4-.1 5.5 2.8-1.9-.9-3.7-1.8-5.5-2.8z"/></g><g><path class="cst0" d="M54.4 190.3c0 .1 0 .2-.2.2h-2l-.3-.6c-.3.4-.7.6-1.2.6-.6 0-1.1-.3-1.4-.8-.3-.4-.4-1-.4-1.6v-3.2c0-.7.4-1.4 1.2-1.9 1.2-.6 1.8-1.1 1.8-1.3V179c0-.3-.1-.5-.4-.5-.2 0-.3.2-.3.5v2.8h-2.3v-3.1c0-.6.3-1 .9-1.4.5-.3 1.1-.5 1.7-.5.6 0 1.2.2 1.7.5.6.3.9.8.9 1.4v10.2c0 .6.1 1.1.3 1.4zm-2.5-2.4V184l-.5.5c-.2.2-.3.5-.3.7v2.7c0 .4.1.5.4.5.3.1.4-.1.4-.5zM61.6 190.5h-2.5v-10.9c0-.3-.2-.5-.5-.5s-.5.2-.5.5v10.9h-2.6v-13.3h2.6v.5c.4-.3 1-.5 1.6-.5.6 0 1 .1 1.4.4.4.3.6.7.6 1.3v11.6zM69 190.5h-2.6v-.6c-.4.4-.9.6-1.5.6s-1.2-.3-1.5-.7c-.4-.4-.6-1-.6-1.6V179c0-.6.2-1 .7-1.3.4-.3.9-.4 1.5-.4s1.1.1 1.5.4V173H69v17.5zm-2.6-2.3v-8.6c0-.5-.2-.7-.6-.7-.4 0-.6.2-.6.7v8.6c0 .4.2.6.6.6.3 0 .5-.2.6-.6z"/></g><g><path class="cst0" d="M77.6 190.8H76c-1.7 0-2.6-1.1-2.6-3.2v-8.3h-1v-2.2h1V174H76v3.2h1.3v2.2H76v8.5c0 .5.4.8 1.1.8h.5v2.1zM84.4 190.5h-2.6v-10.9c0-.3-.2-.5-.5-.5s-.5.2-.5.5v10.9h-2.6V173h2.6v4.7c.4-.3.8-.5 1.3-.5 1.4 0 2.2.5 2.2 1.7v11.6zM90.8 188.3c0 .7-.3 1.3-.8 1.8s-1.1.7-1.9.8c-.8 0-1.4-.2-1.9-.7-.5-.5-.8-1.1-.8-1.9v-9.4c0-.6.3-1.1.9-1.6.5-.4 1.1-.6 1.8-.6s1.3.2 1.8.5c.6.4.9 1 .9 1.6v5.2h-3.2v4.3c0 .3.2.5.5.5.4 0 .6-.2.6-.5v-3.5h2.1v3.5zm-2.1-6v-2.9c0-.3-.2-.5-.5-.5-.4 0-.6.2-.6.5v2.9h1.1z"/></g><path class="cst2" d="M55.1 99.8v59.5c0 2.9-1.4 5.4-4.3 7.4-2.6 1.8-5.4 2.6-8.4 2.6-3.2-.1-6-.9-8.4-2.5-2.7-1.9-4-4.4-4-7.4v-17.2h10.1v16.2c0 1.7.8 2.5 2.4 2.6 1.7.1 2.6-.7 2.6-2.3V99.8M80.8 167.8c.2.4-.1.6-.8.6h-7.7l-1.1-2.5c-1 1.7-2.7 2.5-4.9 2.5-2.5 0-4.4-1-5.7-3-1.1-1.7-1.7-3.9-1.7-6.4v-12.8c0-2.9 1.6-5.4 4.9-7.6 4.8-2.5 7.1-4.2 7.1-5.2v-10.8c0-1.4-.6-2-1.7-1.9-.9.1-1.4.7-1.4 1.9v11.2h-8.9v-12.2c0-2.2 1.2-4.1 3.7-5.6 2.1-1.3 4.4-1.9 6.8-1.9 2.5 0 4.8.6 6.8 1.8 2.4 1.4 3.6 3.3 3.6 5.7v40.3c0 2.4.3 4.4 1 5.9zm-9.8-9.4v-15.5c-1.1 1.1-1.8 1.9-2.1 2.1-.7.9-1 1.8-1 2.7-.1 4-.1 7.4 0 10.5 0 1.4.5 2.1 1.6 2.1 1 .2 1.5-.5 1.5-1.9z"/><g><path class="cst2" d="M156.7 102.1c-2.5-1.8-5.2-2.6-8.3-2.6-3 .1-5.6 1-8 2.7-2.6 1.9-4 4.4-4 7.2V128c0 2 1.2 4.2 3.6 6.6.3.3 2.5 2.3 6.6 5.8 2.5 2.1 3.7 3.6 3.7 4.6v15.2c0 1.2-.6 1.9-1.7 2-1.3.2-1.9-.5-1.9-2.1v-16.4h-10.3v16.4c0 3.1 1.2 5.7 3.7 7.7s5.3 3.1 8.4 3.1c3.1 0 5.9-1 8.4-3.1 2.5-2 3.7-4.6 3.7-7.6V144c0-2.1-1.2-4.4-3.6-6.7-3-2.8-5.2-4.8-6.8-6.1-2.4-2.2-3.5-3.9-3.5-5.3v-16.3c.1-.9.6-1.3 1.5-1.5 1.2-.2 1.9.3 2.1 1.5v16h10.3v-16.2c0-2.8-1.3-5.2-3.9-7.3zM174.6 144.8l6.1 25h10.4l-8.3-31.8 6-20.5h-9.7l-4.5 17.5v-34h-10.3v68.8h10.3zM206.6 128.3v15.5h10.3v-19.7c0-2.1-.7-3.8-2.1-5.2-1.4-1.3-3.1-2-5.2-2-2.9 0-5.1 1.1-6.6 3.3v-2.8h-9.7v52.3h10.3v-41.5c0-1 .6-1.5 1.7-1.5.9 0 1.3.5 1.3 1.6zM221.1 102.4h10.1v10.9h-10.1zM221.1 117.1h10.1v52.7h-10.1zM283.8 162.8h-2.1c-2.8-.1-4.2-1.1-4.2-3.1v-33.6h5.1v-8.7h-5.1v-12.7h-10.3v12.7h-4.1v8.7h4.1v32.7c0 8.3 3.4 12.5 10.3 12.5h6.3v-8.5zM119.7 179.5c-2-1.8-4.4-2.7-7.4-2.7H107V116h-9.5v38.8c0 1.4-.6 2.1-1.9 2.1-1.3 0-1.9-.7-1.9-2.1V116h-9.5v38.6c0 2.9.6 5.3 1.9 7.1 1.4 2.2 3.6 3.3 6.4 3.4 1.5.1 3.3-.4 5.3-1.4V245.6h14.5c2.7 0 5.1-.8 7.2-2.5 2.1-1.7 3.1-3.8 3.1-6.5v-49.8c0-3-1-5.5-2.9-7.3zm-7.5 56.4c0 1.1-.7 1.6-2.1 1.6h-1.9v-52.8h1.8c1.4 0 2.1.5 2.1 1.6v49.6zM200.9 195c-1.6-1.1-3.6-1.7-5.9-1.7-3.4 0-6 1-7.7 2.9-1.7-1.9-3.8-2.9-6.4-2.9-1.9 0-3.7.6-5.2 1.8v-1.8h-10.1v52.2H176v-42.9c0-1.2.6-1.8 1.9-1.9 1.2 0 1.8.6 1.8 1.9v42.9h10.1v-42.9c0-1.1.6-1.7 1.8-1.7 1.2 0 1.8.6 1.8 1.8v43h10.3v-45.4c0-2.3-.9-4.1-2.8-5.3zM226.1 193.7c-2.4-1.3-5-1.9-7.6-1.8-2.6.1-5 .7-7.4 2-2.8 1.5-4.1 3.4-4.1 5.8V214c0 1.8 2.2 4.3 6.7 7.4 4.5 3.1 6.7 5 6.7 5.7v11.5c0 1.2-.6 1.8-1.7 1.8s-1.7-.6-1.7-1.7V226h-10v12.7c0 2.5 1.3 4.6 4 6.2 2.3 1.4 4.8 2.1 7.6 2.1 2.9 0 5.4-.6 7.7-1.9 2.7-1.6 4-3.7 4-6.4v-12.4c0-1.8-2.2-4.3-6.7-7.6s-6.7-5.4-6.7-6.4V200c0-1.2.6-1.8 1.7-1.8s1.7.6 1.7 1.8v12.2h10v-12.5c0-2.5-1.4-4.5-4.2-6zM247.2 235.5v-33.6h5.1v-8.7h-5.1V169.5h3.6c2.6 0 4.8-.7 6.7-2.2 1.9-1.5 2.9-3.5 2.9-6v-34.7c0-2.6-.7-4.7-2.1-6.5-1.4-1.8-3.4-2.6-6-2.6-2.1 0-4 .6-5.8 1.8l-.7-1.8h-8.9V193.3h-4.1v8.7h4.1v32.7c0 8.3 3.4 12.5 10.3 12.5h6.3v-8.4h-2.1c-2.8-.2-4.2-1.3-4.2-3.3zm0-111.4h1.7c1.3 0 1.9.5 1.9 1.5v35.6c0 1-.6 1.5-1.9 1.5h-1.7v-38.6z"/><path class="cst2" d="M273.6 193.6c-2.1-1.5-4.4-2.2-7.1-2.1-2.6.1-4.9.8-7 2.3-2.4 1.7-3.5 3.7-3.5 6.2v37c0 3 1 5.4 3.1 7.3 2.1 1.9 4.6 2.8 7.6 2.7 2.8-.1 5.2-1.1 7.3-3.1s3.1-4.3 3.1-7v-13.4h-8.3v13.7c0 1.4-.7 2.1-2.2 2.1-1.4 0-2.1-.7-2.1-2.1v-16.8h12.7v-20.5c-.1-2.5-1.3-4.7-3.6-6.3zm-4.8 19.7h-4.4v-11.6c0-1.4.7-2.1 2.2-2.1 1.4 0 2.1.7 2.1 2.1v11.6zM297.7 192.7c-2.9 0-5.1 1.1-6.6 3.3v-2.8h-9.7v52.3h10.3V204c0-1 .6-1.5 1.7-1.5.9 0 1.3.5 1.3 1.5v15.5H305v-19.7c0-2.1-.7-3.8-2.1-5.2-1.3-1.2-3.1-1.9-5.2-1.9zM331.6 212.2v-12.5c0-2.5-1.4-4.5-4.2-5.9-2.4-1.3-5-1.9-7.6-1.8-2.6.1-5 .7-7.4 2-2.8 1.5-4.1 3.4-4.1 5.8v14.3c0 1.8 2.2 4.3 6.7 7.4 4.5 3.1 6.7 5 6.7 5.7v11.5c0 1.2-.6 1.8-1.7 1.8s-1.7-.6-1.7-1.7V226h-10v12.7c0 2.5 1.3 4.6 4 6.2 2.3 1.4 4.8 2.1 7.6 2.1 2.9 0 5.4-.6 7.7-1.9 2.7-1.6 4-3.7 4-6.4v-12.4c0-1.8-2.2-4.3-6.7-7.6s-6.7-5.4-6.7-6.4V200c0-1.2.6-1.8 1.7-1.8s1.7.6 1.7 1.8v12.2h10z"/></g><g><path class="cst2" d="M149.9 213v-.1.1zM149.6 213.4v-.1.1zM149.3 213.5c.1.1.1-.1.2-.1v-.1c-.1.1-.1.2-.2.2zM148.9 213.3c.1 0 0 .1 0 0 .1 0 .1 0 0 0 .1 0 .1 0 0 0zM149 213.3s-.1-.1 0 0zM148.8 213.4v-.1c-.1 0 0 0 0 .1zM148.8 213.5zM148.9 213.4c0 .1 0 .2 0 0 0 .1 0 .1 0 0zM148.9 213.4c.1 0 .1 0 0 0 .2.1.1 0 0 0zM149.3 213.7c.1 0 0-.1 0 0zM148.5 213.5l.1.1-.1-.1zM148.5 213.6c.1 0 .1 0 0 0zM148.9 213.7v-.2.2zM148.3 213.6v-.1.1zM148.1 213.6c0-.1-.1-.1-.1-.1v.2c0-.1.1-.1.1-.1zM148 213.7zM148.4 213.7s0-.1 0 0zM148.4 213.7zM148.4 213.7zM148.7 213.7c0 .1-.1.2 0 .2.1-.1 0-.1 0-.2zM148.5 213.8c.1-.1 0-.1 0 0zM148.5 213.8zM148.1 213.8c0 .1 0 .1 0 0 .1 0 .1 0 0 0zM148.3 213.7c0 .1 0 .1 0 0zM147.8 214zM148.2 213.9s0-.1 0 0c0-.1 0-.1 0 0zM147.9 213.8s.1 0 0 0c.1 0 0 0 0 0zM148.2 213.7zM148.2 213.7c0 .1 0 .1 0 0 0 .1.1.1 0 0 .1 0 0 0 0 0zM147.9 214.6c0-.1 0-.2.1-.1 0-.1-.1-.3-.3-.5v.1s.2 0 .2.1c-.1.1-.1 0-.1 0 .1.2 0 .3.1.4zM147.9 214l-.1-.1v.1h.1zM148 213.9c0 .1 0 .2.1.2s0-.1 0-.2c-.1.2 0 0-.1 0l-.1.1.1-.1zM148.8 214.1zM148.7 214.1c0-.1 0-.1 0 0 .1-.1.1-.1 0 0 .1-.1.1-.1 0 0 0-.1-.2-.2-.2-.2.1 0 .1.1.2.2zM148.4 214v.1-.1c0 .1 0 .1 0 0zM147.7 214v-.1.1zM147.6 214zM141.2 218.3zM141.4 218.2zM144.6 215.5l-.1-.1.1.1zM142.8 217s0-.1 0 0c0-.1 0-.1 0 0zM142.9 217.4c0-.1 0 0 0 0zM140.1 218.9v.1c.1 0 .1 0 0-.1zM146.4 214.7h-.1.1zM140.8 217.3s0 .1 0 0c0 .1 0 0 0 0zM146.2 214.7h.1c-.1-.1-.1-.1-.1 0zM136.1 220.7zM134.6 220zM147.1 214.2zM147.4 214.5s0 .1 0 0c0 .1 0 0 0 0zM146.2 215.4zM147.2 214.3c-.1 0-.1-.1 0 0-.1 0-.1 0 0 0zM147.1 214.2c.1 0 0 0 0 0zM147.1 214.3c0-.1 0-.1 0 0 0-.1 0-.1 0 0 0-.1 0-.1 0 0zM138.1 219.5zM144.4 216.7zM144.3 216.8c0-.1 0-.1.1-.1l-.2-.2.1.3z"/><path class="cst2" d="M140.7 218.6l.1.1c0 .2-.1.2 0 .2-.1-.3.2-.1.1-.4h.1c.1.1 0-.2.1-.2 0 0 .1 0 .1.1l.1-.1v.1l.1-.1v-.2c.1 0 0 0 0 .1v-.1c.1.1 0 .2 0 .2.2.3 0-.1.2 0l-.1.1c.1.1.1.1.3.1 0 0-.3-.2-.2-.3 0 0 .1 0 .1-.1 0 .1.1.1.1 0l.1.1v-.2c.1 0 .1.1.2.2.1 0-.1-.1 0-.2.1 0 .1-.1.2-.2.1 0 0 .1.1.1v-.1c0-.1-.1-.1 0-.2-.1-.2.2.2.2-.1 0 0 0 .1.1.1.1-.2.1-.1.1-.3l.1.1c-.1-.1-.1-.2-.1-.4l-.1-.1.1-.1v.1c.1 0 .1.1.1.2 0 0-.1 0-.1-.1 0 .1 0 .2.1.3v-.1 0l.1.1v-.1h.2c0-.2 0-.5.1-.6 0 .1.1.2.1.3-.1-.1-.1.1-.2.1l.1.1.1-.2c0 .1.1.1.1.1-.1-.2 0-.2.1-.3 0 .1.1.1 0 .2.2.1 0-.3.1-.2 0-.1.1-.1.1 0 .1 0 .4-.2.3-.3 0 0 .1.2.1.3l-.1-.7c.1.2.3.5.2.6 0 0 .1 0 .1-.1 0 0-.2-.2-.1-.2.2.1.1.1.2.2l-.1-.3s.1.2.1.3v-.3c0 .1.1.2.1.3 0 0 .1 0 .1-.1h-.1c.1 0 0-.4.1-.4 0 .1.1.3.2.3 0-.1-.1-.6-.1-.8l.1.1v-.1c0 .2.1.7.1.8.1 0 .1.1.1 0 .1.1 0 .1 0 .1h.2c-.1-.1.1-.2 0-.3l-.1.2c-.1-.1-.1-.4 0-.5.1 0 .1.3.1.3 0-.1.1-.1.1-.1v.1c.1 0 0-.2.2-.1 0 0 .2.1.1.1-.1-.1-.4-.6-.4-.8 0 0 .2.1.3.2.1.1.1.3.2.4v-.1s0 .1.1.1c-.1-.1.1 0 0-.1 0-.1.1 0 .1 0-.1-.1-.1-.3 0-.4 0 0 0 .1.1.1s.2 0 .3-.1c0 0 .1 0 .1.1v-.1c.1.1-.1.1.1.2 0-.1 0-.2.1-.2-.1-.1-.1 0-.2.1-.1-.2-.1-.4 0-.5.1-.1.1.1.1.1.2-.1 0-.4.2-.3.1.1.1.2.2.3-.1.1-.2 0-.2 0h.1s0 .1-.1.1c.1.1.3-.1.5-.1v-.1c-.1-.1 0-.2-.1-.2 0-.1 0-.2.2-.2l.1.1s-.1-.1-.1 0c0-.1.2.1.2-.1l-.1-.1c0-.1 0-.3.1-.3l-.1-.1c.1.2-.2.1 0 .2-.1-.1-.1 0-.3-.1 0 0 .1.1 0 .1h.1c0 .1-.1.2-.1.2v-.1.1c0-.1-.2-.1-.1-.2H146.8v.1l-.1.1c-.1 0-.2.3-.4.2l-.1.1-.1-.1c0 .1-.2 0-.2.1-.2-.2-.3.1-.4.1v.1c-.1 0-.1.1-.2.2v.1c0 .1-.2 0-.3.1h.1c-.2-.2-.2.3-.4.2h-.1-.1.1l-.1.1-.1-.1v.2c-.1-.2-.1.1-.2-.1 0 .1-.1.1-.1.3 0 0-.1 0-.1.1l-.1-.1v.2c-.1-.1-.1-.1-.1-.2 0 .2-.1.1-.1.3v-.1s0 .2-.1.1c-.2-.1-.4.2-.7.1.2.2-.1-.1-.1.1 0-.1-.1-.1-.1-.1-.1.1-.2 0-.2.2v-.1s0 .1 0 0v-.1c-.1.1 0 .2 0 .4-.1-.1-.1 0-.1.1 0 0-.1-.1 0-.1 0 0-.3 0-.2.2h-.1c-.1 0-.1 0-.2.1 0 .2-.1.1-.1.1-.2 0 0 .1-.2 0l.1.1c.1.2-.2-.1-.2.1h.1c0 .1-.3-.2-.3-.2v-.1c-.2-.1 0 .1 0 .2-.1-.1-.1-.2-.1-.2-.1 0-.1.3-.2.2 0 0 .1.1.1.2-.1.1-.3-.1-.3.1 0 .1-.1.1-.1.3-.2-.3-.2.3-.4 0l-.1.1c-.1 0-.1.1-.1.2v-.1c-.2 0-.2 0-.2.2l-.1-.1c0 .1-.3-.1-.4.1v-.1c-.1.2-.5-.1-.4.3l-.1.1c.1 0 .1.2.1.2s-.2 0-.1-.1c-.1-.2-.2 0-.3-.1-.3.1-.6.1-.8.3l.1.1h-.1s-.1-.1 0-.1c-.1-.1-.1.1-.1.2-.1 0 0-.2-.1-.2 0 .1 0 .1-.1.2-.1 0-.1-.1-.1-.1h-.1l.1.1c0 .1-.1 0 0 .2-.2-.2-.4.1-.5.1 0 .1-.1.1-.2.2 0 0 .1.1 0 .2-.1-.3-.2-.1-.3-.2.1.1-.2.1 0 .3-.1 0-.1-.1-.1-.2-.1.2-.3.1-.5.2 0 0 .1.1 0 .2l-.2-.2s0 .2-.1.1c0 0 .1.1 0 .1-.2 0-.4.1-.5.1-.2.1-.4.1-.6-.1.1.1 0 .1 0 .1v.2c-.1 0-.1-.1-.2-.1 0 .2-.2 0-.2.2-.1.2.1.4.1.6.1-.2.3.3.3 0v.1c0-.1.1-.1.1-.1.2-.1.3 0 .6 0v-.1h.1c0-.2-.1 0-.1-.2.1.2.3-.1.5.1.1 0-.1-.1 0-.1v.1-.1c.1 0 .1.1.1.1.1.1.2-.1.2-.1h-.1c.2-.1.4-.2.6-.4.1-.1.1 0 .3-.1 0-.1 0-.1.1-.1 0 .1.1.1.1.2.1-.2 0-.1.1-.3l.1.1v-.2c0 .1.1.1.1.2.2.1.1-.3.3-.1 0-.2-.2-.1-.2-.1-.1-.1 0-.2 0-.2.1 0 .2.2.3.2.1 0 .1-.1.2-.1 0-.1.1 0 0-.2l-.1.1c0-.1 0-.3.2-.3v.1c.1 0 0-.1.1 0 .1.2-.1.1-.1.3.1.1.1-.2.1 0-.1-.3.1 0 .1-.2v.1c0-.1.2 0 .2-.1-.1.1-.1-.1-.2-.2.1-.2.2.2.4.1 0 0-.1 0-.1-.1 0 0 .1 0 .2.1.1-.1-.1-.1 0-.2.1.1 0-.1.1-.1v.1c.2 0-.1-.2.1-.2v.2-.1.1c0-.1.1-.1.2-.1-.1-.1-.1-.2 0-.2s0 .1.1.1c0 .1 0 .2-.1.1v.1c.1 0 .1 0 .2-.1l.1-.2v.1s0-.1.1-.1c0 .1.1.2 0 .2l.1-.1.1.1c.1 0 .1-.2.2-.2v-.1c.1 0 .2 0 .3-.1l.1.1c.1-.1-.2-.1-.1-.3.1-.1.1.1.1.1.4-.2.4-.4.5-.2.1 0 0-.1 0 0zm1-.6c0 .1-.1.2 0 0-.1 0-.1 0 0 0zm1.3-.9zm3.8-2.7c0 .1 0 .1 0 0zm.2.1c0-.1 0-.1 0 0-.1-.1-.1-.1 0 0-.1 0-.1 0 0 0zm-9.5 4.4c0 .1 0 .1 0 0zM142.9 217.3zM140.1 218.9zM146 215.9s0 .1 0 0zM147.3 214.1c.1 0 0 0 0 0zM148.1 214.5c0-.1 0-.1 0 0 0-.1 0 0 0 0zM147.6 214.4c0 .1 0 0 0 0 0-.1 0-.1 0 0zM147.7 214.4c0-.1 0-.1 0 0z"/><path class="cst2" d="M147 214.3c.1.1 0-.1 0 0 0-.2 0 .1 0 0zM147.7 214.6v-.1.1zM147.4 214.7zM147.4 214.7c.1 0 .1-.1 0 0 .1-.1.1-.1 0 0zM147.6 214.7zM146.7 215c-.1.1 0 .1 0 0 0 .1 0 0 0 0zM147 215.2zM146.8 215.3s-.1.2 0 .1c.1 0 .1-.1 0-.1zM145.7 215.6l-.1-.2zM145.1 216.6c.1 0 0-.1.1-.1 0-.1-.1 0-.1-.1-.1.1-.1 0 0 .2zM145 216.4zM134.4 219.9h-.1l.1.1zM134.3 220.1v-.1.1zM141.9 218.2zM141.2 218.5l-.1-.1zM140.7 218.9s-.1-.1 0 0z"/></g><g><path class="cst2" d="M140.1 223.9l-.1.1.1-.1zM140.6 224s.1 0 0 0zM140.9 224.3c0-.2-.1-.1-.2-.2l-.1.1c.2 0 .3 0 .3.1zM141 224.9c0-.1.1-.1 0 0 0-.1 0-.1 0 0 0-.1 0-.1 0 0zM141 224.8c-.1 0 0 .1 0 0zM141.2 224.9c-.1.1 0 .1 0 .2v-.2zM141.2 224.8c0 .1 0 .1 0 0zM141.1 224.8c.1 0 .1-.1 0 0 .1 0 .1 0 0 0zM141.1 224.8c0-.1-.1-.1 0-.2-.1 0-.1.1 0 .2zM141 224.1c0-.1 0 .1 0 0zM141.5 225.3v-.2.2zM141.5 225.1c0-.1 0 0 0 0zM141.3 224.6c-.1 0-.1 0 0 0-.1 0-.1 0 0 0zM141.8 225.5c0 .1 0 0 0 0zM141.9 225.6c0 .1.1.2.1.3 0 0 .1 0 .1-.1-.1 0-.1 0-.2-.2zM142.1 226.1s0 .1 0 0c0 .1 0 .1 0 0zM141.6 225.2s0 .1.1.2l-.1-.2c.1 0 0 0 0 0zM141.7 225.2zM141.6 225.2zM141.4 224.8c0-.1.1-.1 0-.3v.3zM141.6 225c-.1-.1 0 0 0 0zM141.6 224.9v.1zM141.9 225.5c0-.1.1-.1 0 0v-.2.2zM141.8 225.3zM142.3 226.1zM141.9 225.3c0-.1-.1 0 0 0zM142.2 226.1s0-.1-.1-.1c0 .1.1.2.1.1zM141.8 225.4zM141.8 225.4s0-.1 0 0c0-.1 0-.1 0 0 0-.1 0-.1 0 0zM142 224.5c.1.2.1.3 0 0 0 .2.2.8.3 1.1v-.2c-.1-.1-.2-.3-.2-.4 0 0 .1.1.1.2-.1-.2 0-.2-.2-.7l.1.2c-.1 0-.1-.1-.1-.2zM142.2 226c0 .1 0 .1.1.3v-.2l-.1-.1zM142.1 225.5c0-.2 0-.2-.1-.4-.1 0 0 .1 0 .2.1 0 0 0 .1.2-.1 0-.1 0 0 0v0s0 .1 0 0c0 .1.1.1.1.1l-.1-.1zM141.5 224.3zM141.5 224.4s0 .1 0 0-.1 0 0 0c0 .2.1.4.1.4-.1-.2-.1-.3-.1-.4zM141.7 224.9c.1 0 .1-.1 0 0v-.2.2zM142.3 226.2l.1.2v-.2zM142.4 226.3l.1.2v-.1zM142 223.1zM142 223.2zM144.1 227.2c.1.2.3.4.2.2l-.2-.2c.1 0 .1 0 0 0zM142.8 224.3s.1 0 0 0c.1 0 .1 0 0 0zM142.3 223.9c.1.1 0 0 0 0zM141.7 222.3h-.1.1zM143.5 227.2c.1.1.1.2.1.2-.1-.1-.2-.4-.1-.2zM143 222.9zM143.7 227.5c0 .1.1.2 0 0zM141.1 219.4zM141.9 218.3zM142.9 226.8zM142.5 225.8zM143 226c0-.1 0 0 0 0zM142.8 226.7c.1 0 .1 0 0 0 .1 0 .1 0 0 0zM142.9 226.8c0-.1 0-.1 0 0zM142.9 226.8zM141.7 220.9zM142.4 224.4zM142.3 224.2c.2.2.2.2.1.2l.4.5-.5-.7z"/><path class="cst2" d="M141.9 222.7c-.2 0-.2 0-.3.1.3-.1.1.2.4.1h-.1c-.1.1.2 0 .2.1l-.1.1h0v.1h.2-.2c-.3.1.1 0-.1.2h-.1c-.2.1-.1.1-.2.2.1 0 .2-.2.3-.1v.1c-.1 0-.1.1-.1.1h-.1.2c-.1 0 0 0 .1.1h-.1 0c.1 0 .2 0 .2.1.1 0 0 0 0 0-.1 0-.1 0 0 0 0 0-.1 0-.2-.1.1.1.1.1.3.2h-.1c.1 0 .3.2.4.3.1 0 .1 0 .1.1l.1.1s-.1-.1-.2-.1-.2-.1-.3-.2h.1c-.1-.1-.2-.2-.3-.2h0l.1.1-.2-.1.1.1h-.1l.7.7c-.2-.2-.3-.2-.4-.4l-.1-.1-.1-.1.2.2c-.2-.1-.1-.1-.2-.1.3.3.2.2.3.4l-.2-.2.1.1.1.1v-.1c.1.1 0 .1-.1 0 0 0 0 .1.3.5 0 0-.3-.4-.4-.5.3.4.7.9 1 1.3-.3-.3-.8-1.1-1-1.3 0 0-.1-.1 0 .1l.4.5c-.3-.3-.1-.2-.4-.5 0 0 .1.2.2.3.1.1.1.1.1.2s.1.1.1.1c-.1-.1-.4-.6-.4-.6.1.2.3.4.4.6-.1-.1-.3-.5-.5-.6.1.1 0 0 0 .1l.1.1c-.1 0 .6.9.6 1-.1-.1-.5-.8-.6-.9.1.2.4.6.6 1 .3.4.5.9.6 1.1l-.1-.2.2.3c-.2-.3-.4-.8-.7-1.2-.3-.4-.5-.8-.6-1.1-.1-.1-.1-.2-.1-.2-.1-.2-.2-.3-.2-.3l-.1-.1c.3.4.3.5.5.8l-.3-.5c.1.2.3.5.5.8.2.3.3.5.3.5-.1-.2-.5-.8-.6-.9.1.2.2.3.1.2l-.1-.3c-.1-.2.4.6.1.2 0 0 0-.1-.1-.1l-.1-.2c.3.5 1.3 2.2 1.5 2.6 0 0-.4-.6-.5-.9-.3-.4-.5-1-.7-1.3.1.1.1.3.2.3-.1-.1-.2-.4-.2-.3.3.5-.1-.1.2.4 0 .1-.1-.1-.1-.1.2.3.5 1 .5 1-.1-.1-.1-.3-.2-.3-.1-.1-.2-.3-.3-.4-.1-.1-.1-.2-.2-.4 0 .1.1.2.1.2-.2-.4 0 0-.2-.5.1.2.1.3.2.4.2.4.1.1 0 0 .3.5.5 1 .5 1.1 0 .1-.2-.3-.2-.3-.1-.2.3.7 0 .3-.2-.3-.2-.6-.3-.8 0-.1.1.2.2.3l-.1-.2c0-.1 0-.1 0 0-.1-.3-.2-.2-.4-.5 0 .1 0 .2.1.3.1.2.1.3.1.4 0 .1.1.3 0 .1l-.1-.3c0 .1.1.2.1.1 0 .1-.2-.5-.1-.1l.1.2v.2l.1.3c-.2-.4.2.2 0-.3l.3.6c0-.1-.1-.2 0-.1v-.1c0-.1-.1-.1-.1-.2-.1-.2 0-.1 0-.2 0 .1 0 .1.1.2v-.1c.1.2.2.5.2.5l.1.1c.1.2.2.3.2.2.1.1 0-.2 0 0v-.1.1c.1.1.1 0 .1 0s.1 0 .3.3c0 0 0-.1.1 0l.1.3s.3.4.2.1c.2.4.3.5.3.5s.1 0 .1.1l-.2-.3c.1.1.1 0 .1 0s0-.1-.1-.1l-.2-.3c-.2-.3.1 0 0-.1.1.1.1.1 0 .1.2.3.1.1 0-.2-.1-.2-.2-.4-.1-.3-.1-.1-.1-.1 0-.1l.1.1-.1-.1s0-.1-.1-.2l.2.2c.1.1-.1-.2-.2-.3 0-.1-.1-.1-.1-.2.3.4-.1-.2.2.2-.2-.2-.2-.3-.5-.8 0 .1.1.1.1.1s.1 0 0-.1l.2.3-.3-.5c.1.1.2.2.4.5-.3-.4-.1-.2-.4-.6l.1.2s-.2-.3-.1-.2c.1.1.1 0 .1-.1v-.2c-.3-.3.1 0-.1-.2l.2.2c-.1-.2.1-.1-.2-.3.1 0 .1.1.2.1 0 0-.1-.1 0-.1l.1.1c0-.1-.3-.3-.5-.5.1 0 .1 0-.1-.1.1 0 .1 0 .2.1 0 0 0-.2-.1-.3v-.1-.2c-.2-.1-.1-.1-.1-.1.1-.1-.1-.1 0-.2h-.1c-.1 0-.1 0 0-.1l.1-.1h-.1s0-.1.1-.1.2-.1.2-.1h.1c.1-.2-.1 0-.2-.1.1 0 .2 0 .2-.1.1 0-.3-.1-.1-.2-.1 0-.1.1-.2 0 0 0 .2-.2 0-.2-.1 0-.1-.1-.2-.1.4-.1-.2-.2.1-.3v-.1c0-.1-.1-.1-.2-.1h.1c0-.1 0-.1-.2-.2h.1c-.1 0 .1-.2 0-.3h.1c-.2-.1.2-.3-.2-.3l-.1-.1c0 .1-.2 0-.2.1l.1-.1c.2 0 0-.1.2-.2-.1-.2 0-.4 0-.6l-.2.1v-.1s.1-.1.1 0c.1 0-.1-.1-.1 0 0-.1.2 0 .2 0-.1 0-.1 0-.2-.1 0 0 .1 0 .1-.1v-.1l-.1.1c-.1 0 0-.1-.1 0 .2-.1 0-.3.1-.4-.1 0-.1-.1-.1-.1s-.2.1-.2 0c.3-.1.1-.1.3-.2-.1.1-.1-.1-.3 0 0 0 .1 0 .2-.1-.1-.1 0-.2 0-.4h-.2l.2-.1h-.1-.1c.1-.3-.3-.5 0-.8-.1.1-.1 0-.1 0h-.2l.1-.1c-.2 0 0-.1-.2-.1s-.4.2-.6.2c.2 0-.3.2 0 .2h-.1c.1 0 .1 0 .1.1.1.1 0 .2 0 .4h.1l-.1.1c.2 0 0-.1.2-.1-.2.1.1.2-.2.3h.1-.1.1l-.1.1c-.1.1.1.1 0 .1v-.1c.1.1 0 .3.2.4.1.1 0 .1 0 .2.1 0 .1 0 .1.1-.1 0-.1.1-.2.1.1.1.1 0 .3.1h-.1.2c-.1 0-.1.1-.2 0-.2.2.2.1 0 .2.2 0 .1-.1.2-.1h.2s-.3.1-.3.2c-.1 0 .1 0 0 .1.1 0 0 .1.2 0l-.1-.1c.1 0 .3 0 .2.1h-.1v.1c-.2 0-.1-.1-.2-.1s.2.1 0 .1c.3 0 0 .1.2.1h-.1.1-.1c.1 0-.1.1 0 .2 0-.1.1-.1.2-.1.2.1-.3.1-.2.3 0 0 0-.1.1-.1 0 0 0 .1-.1.1 0 .1.1 0 .2 0-.1.1.1 0 .1.1h-.1c0 .1.2 0 .2.1h-.2.1-.1c.1 0 .1.1.1.1h.2c-.1 0-.1 0-.1.1h-.1-.1c-.1.1 0 .1 0 .1l.2.1h-.1.1-.2l.1.1-.1.1c0 .1.2.1.1.2h.1c0 .1-.1.1 0 .2l-.1.1s.2-.1.3 0c.1.1-.1.1-.2.1h-.1c0 .1 0 0 0 0zm.2.7s-.1 0 0 0 .1 0 0 0zm.5.8c-.1-.1 0-.1 0 0zm.5 2.6c0 .1 0 .1 0 0zm-.2-.2v.1c.1 0 .1 0 0-.1.1 0 0 0 0 0zm-.5-6.1c-.1 0 0 0 0 0zM142.4 224zM141.7 222.3z"/><path class="cst2" d="M142.5 224.9c0 .1.1.1.1.2-.1-.1-.1-.2-.1-.2zM142.7 226.7v-.1.1zM141.9 224.6v0zM140.1 223.6l-.1.1c.1 0 .1-.1.1-.1zM140.6 223.7c.1.1.1 0 0 0zM141 224c0-.2-.1-.1-.2-.2l-.1.1c.1 0 .2 0 .3.1zM141.1 224.6c0-.1 0 0 0 0-.1-.1-.1-.1 0 0-.1 0-.1 0 0 0zM141 224.5s0 .1 0 0zM141.1 225.1c.1 0 .1-.3.1-.4h-.1c.1 0 .1.4 0 .4M141.3 224.5c0 .1 0 .1 0 0zM141.2 224.6c0-.1.1-.2 0 0 0-.1 0-.1 0 0zM141.2 224.5c0-.1-.1-.1 0-.2-.1 0-.1.2 0 .2zM141 223.8s0 .1 0 0zM141.6 225.1v-.2c-.1 0 0 .1 0 .2zM141.5 224.8s.1 0 0 0c0-.1 0 0 0 0zM141.3 224.3s-.1.1 0 0c-.1.1 0 0 0 0zM141.7 225.6l.1-.4-.1.4M142.1 225.8s0-.3-.1-.4v.5M142.1 226.2s0-.3.1-.4c-.1.1-.1.4-.1.4M141.7 224.9s0 .1.1.2l-.1-.2zM141.7 224.9s0 .1 0 0c0 .1 0 0 0 0zM141.7 224.9zM141.4 224.5c0-.1.1-.1 0-.3 0 .1.1.2 0 .3zM141.6 224.7c0-.1 0 0 0 0zM141.6 224.7zM142 225.2c0-.1 0 0 0 0v-.2c-.1.1-.1.2 0 .2zM141.8 225zM141.9 225c0-.1 0 0 0 0z"/><path class="cst2" d="M142.2 225.9s0-.1-.1-.1c.1 0 .1.1.1.1zM141.9 225.1zM141.9 225.1s0-.1 0 0c0-.1-.1-.1 0 0-.1-.1 0 0 0 0zM142.2 225.2c-.1-.2 0-.5-.1-.9v.1c0-.1 0-.1-.1-.2.1.2.1.3 0 .1 0 .1.2 1 .3 1.3"/><path class="cst2" d="M142.3 225.9c0-.1-.1-.6-.1-.7 0 0 0 .4.1.5M142.3 226.1l-.1-.4s0 .4.1.6M142.1 225.2c0-.2 0-.2-.1-.4-.1 0 0 .1 0 .2.1 0 0 0 .1.2v0c0 .1 0 0 0 0 0 .1 0 .1 0 0 0 .1 0 0 0 0 0 .1 0 .1 0 0 0 .1.1.1.1.1 0-.1-.1-.1-.1-.1zM141.5 224zM141.5 224.1s0 .1 0 0c0 .2.1.4.1.4 0-.1 0-.2-.1-.4zM141.8 224.6v-.2.1c-.1-.1 0 0 0 .1zM141.9 224.3v.1c.1 0 .1-.1 0-.1zM142.4 225.9c-.1-.2-.1-.1-.1-.1.1.2.1.1.1.1zM142.3 225.7c0 .1 0 0 0 0zM142.9 226.7c0-.1.1.3.1.2.1.2-.1-.3-.1-.2z"/><path class="cst2" d="M142.2 225.2l.1.3-.1-.2zM142.4 225.6l-.1-.1c.1 0 .1 0 .1.1 0 0 .1.1 0 0zM142.4 225.6c0-.1 0-.1 0 0z"/><path class="cst2" d="M142.2 225.2v.1h.1zM142.9 226c0-.1-.1-.2-.1-.2 0 .1 0 .1.1.2zM142.4 225.1c0 .1.1.1.1.2l-.2-.3.1.1z"/><path class="cst2" d="M142.4 225.1c0-.1-.1-.2-.1-.3.1.2.1.2.1.3zM143.2 226.1l.4.7zM142.2 224.2c-.1-.1.2.4.1.2l.2.2c-.1-.1-.1 0-.3-.4zM142.5 224.7s0 .1 0 0c0 .1 0 0 0 0zM141.9 218.1h.1-.1zM141.8 218.1h.1-.1zM141.9 223.6zM141.8 223.1l.2-.1zM141.6 222.7s.1-.1 0 0z"/></g><g><path class="cst2" d="M142.1 220.7h-.1c.1.1.2 0 .1 0zM142.8 221.1h.1zM143.3 221.6c.1-.2-.2-.2-.2-.3l-.1.1s.2.1.3.2zM143.2 222.2c.1-.1.1 0 0 0 0-.1 0-.1 0 0 0-.1 0-.1 0 0zM143.2 222.1c-.1-.1 0 .1 0 0zM143.4 222.3h-.1v.1c.1.1.1 0 .1-.1zM143.6 222.3c-.1 0-.1 0 0 0zM143.4 222.2h.1c0 .1.1 0-.1 0 .1 0 .1 0 0 0zM143.4 222.2c0-.1 0-.1.1-.1-.2-.1-.2 0-.1.1zM143.4 221.5c0-.1 0 .1 0 0zM143.8 222.8l.1-.1h-.1v.1zM143.8 222.7h0zM143.7 222.2l-.2-.1.3.1zM144 223.1h-.1.2zM144.2 223.3c-.1 0 0 .1-.1.1h.2c0 .1-.1 0-.1-.1zM144.5 223.5h-.1.1zM144.1 222.9v.1-.1zM144.1 222.9s.1.1 0 0c.1.1 0 0 0 0zM144.1 222.9zM143.9 222.4c.1 0 .2.1.2-.1-.1.1-.1.2-.2.1zM144.1 222.7c-.1-.1-.1 0-.1 0h.1zM144.2 222.8l-.1-.1.1.1zM144.4 223.3c.1 0 .1 0 .2.1-.1-.1-.1-.1-.2-.1 0-.1 0-.1 0 0zM144.3 223.1zM145 223.8zM144.5 223.2s-.1-.1-.1 0h.1zM144.6 223.6v-.1.1zM144.3 223.1c0 .1 0 0 0 0zM144.3 223.1zM145.6 223.4c-.1.1-.2 0-.2-.1-.1 0-.3.3-.4.5 0 0 .1-.1.2 0 0-.1-.1-.3 0-.3.1.1.1.1.1.2 0-.1.3 0 .4-.1l-.1-.2c-.1.1 0 .1 0 0z"/><path class="cst2" d="M144.9 223.6v.2h.2l-.2-.2zM144.7 223.4c.1 0 .2 0 .3-.1-.1-.1-.1 0-.2 0 .1.1-.2 0-.1.1-.1 0-.1 0 0 0-.1 0-.1 0 0 0-.1.1-.1.1 0 0-.1.1-.1.1 0 0-.1.1 0 .1 0 0 0 .1 0 .1 0 0-.1.1-.1.1 0 0l.1.1s-.1 0-.1-.1zM144.3 222.3zM144.3 222.4c-.1-.1 0-.1 0 0-.1-.1-.2-.1-.1 0v.3c.1-.1.1-.2.1-.3zM144.5 222.9l.2.1v-.1c-.1-.1-.1 0-.2 0zM145 223.8l-.1.1h.2zM145.1 224v.1zM147.7 224.2zM147.9 224.5zM149.5 227.8v.2-.2c0 .1 0 .1 0 0zM150.2 226.7c0 .1 0 .1 0 0h.1c-.1.1-.1 0-.1 0zM149.8 227v-.1.1zM146.4 222.5h-.1c0 .1.1.1.1 0zM146.9 225.6c0 .1 0 .1.1.2 0-.1 0-.2-.1-.2zM148.7 223.6c0 .1 0 .1 0 0zM147.2 225.9c-.1 0-.1 0 0 0l-.1-.1c-.1.1 0 .1.1.1zM149.9 220.3s0-.1 0 0zM152 221.5s-.1 0 0 0c-.1 0-.1 0 0 0zM145.8 224.7c-.1 0 0 0 0 0zM145.9 224.2zM148 225.7zM145.8 224.6s0 .1 0 0c0 .1 0 .1 0 0zM145.7 224.7c0-.1 0-.1 0 0 0-.1 0-.1 0 0zM145.8 224.7zM145.1 219.2c0 .1 0 .1 0 0zM151.2 227.7zM151.4 227.7c-.1.1-.2 0-.2 0l-.1.3.3-.3z"/><path class="cst2" d="M147.2 223.4v.2c-.2 0-.2-.2-.3 0 .3-.2.3.4.6.2v.1c0 .2.3 0 .3.2 0 .1 0 .1-.1.1l.2.1s0 .1-.1 0l.2.2h.2c0 .1 0 0-.1 0l.1.1c0 .1-.2.1-.2 0-.2.3.1 0 .1.4l-.1-.1c-.1.2 0 .2 0 .4 0-.1.1-.4.2-.3 0 0 0 .1.1.1-.1.1 0 .1 0 .2l-.1.1c.1.1.2 0 .3 0 .1.1 0 .2-.1.3.1.2.1-.2.2-.1 0 .2.2.2.3.3 0 .1-.1 0-.1.1h.2c.1 0 .1-.1.2 0 .2-.1-.1.4.2.4 0 .1-.1 0-.1.1.2.1.2.1.4.1v.2c0-.2.2-.1.4-.1 0-.1 0-.1.1-.2l.2.1-.1.1h.1c0 .1-.1.1-.2.1v-.1c-.1 0-.2 0-.3.1h.1l-.1.1h.1l.1.3c.3 0 .6 0 .8.2-.2 0-.2.1-.3.2.1-.2-.2-.1-.2-.3 0 .1 0 .1-.1.1l.3.1c-.1.1 0 .1 0 .2.2-.2.3.1.4.1-.1.1-.2.1-.2 0-.1.2.4 0 .3.2h-.1c.1 0 .2.2.1.2 0 .1.1.2.2.3l.6-.6c-.1-.1-.3-.1-.4 0l.2-.2-.7.4c.1-.1.3-.6.5-.5 0-.1-.1-.1-.2-.1l-.1.3v-.4c0 .1-.2.3-.3.2l.2-.2-.3.1c.1 0 .2-.2.2-.3 0 .1-.1-.1-.2-.1v.1c-.2-.2-.4.2-.6 0 .1 0 .3-.2.2-.3-.1.1-.6.4-.9.4v-.1h-.2c.2-.1.7-.3 1-.3 0-.1 0-.1-.1-.2 0-.1.1 0 .2 0l-.2-.2c-.1.1-.3 0-.4.1l.4.1c-.1.1-.5.3-.6.1 0-.1.2-.2.3-.3-.1 0-.2 0-.2-.1h.1c-.1-.1-.3.1-.3-.2v-.2c-.1.2-.4.7-.6.8 0 0-.1-.3-.1-.4 0-.2.3-.2.4-.3 0 0-.1 0-.1.1 0-.1.1-.1 0-.2-.1.1-.2-.2-.1.1-.1 0-.1-.1-.2-.2 0 .1-.3.2-.5.2l.1-.1c-.2-.2-.2-.3-.4-.4 0 0 0-.2.1-.2h-.2c0-.2.1.1.2-.1-.1.1-.2 0-.3 0-.1.1.1.2.3.2-.1.2-.4.2-.7.1-.2-.1 0-.2 0-.2-.2-.3-.5.1-.6-.2 0-.2.2-.2.2-.3.1.1.1.2.2.3v-.1c.1 0 .2 0 .2.1 0-.2-.4-.4-.5-.7h-.2.1c0 .1-.2 0-.2.1-.1 0-.3 0-.4-.2l.1-.1s0 .1.1.1c-.1 0 0-.3-.2-.2v.2c-.1 0-.3 0-.4-.1-.1.2 0 0 0 .2.1-.2.2.3.3 0-.1.2.1.2 0 .4 0 0 0-.1.1 0v-.1c.1 0 .3.1.3.1 0 .1-.1 0-.1.1h.1c-.1.1 0 .3-.2.2l.1.1c0 .1.1.2.2.2 0 .1.2 0 .1.1l.2.1c.2.2.5.2.5.5.1 0 .2.1.2.2v.1c.1 0 .2.3.3.2-.1.3.3.4.4.5l.1-.1c.1.1.2.1.3.2l.1-.1c.2 0 .2.3.4.4 0 0-.1 0-.1-.1 0 .4.5.2.6.5.1 0 .1 0 .1.1v0s.1.1.2.1l-.1.1c0 .1.1 0 .1-.1h.1c-.1.2.2 0 .1.3.1-.1.3.1.5 0 0 .1.1.1.2.1l-.1.1.2-.1c0 .1 0 .2-.1.2h.4l-.1.1c.1 0 .2 0 .2.1v.1l.7 1.4-.2-1.9c0-.2-.4-.6-.5-1-.2.2 0-.2-.2-.1 0-.1 0-.1.1-.1-.2-.1-.1-.3-.3-.3 0-.1.1 0 .1-.1 0 0-.1 0-.1-.1h.1c-.1-.2-.3-.1-.5.1 0-.1 0-.2-.2-.2 0-.1.1-.2.1-.1 0-.1-.2-.4-.3-.3 0 0 0-.1-.1-.1-.1-.1-.1-.2-.2-.3v.1c-.2.1-.1-.1-.2-.2 0-.3-.1-.1-.2-.4l-.1.1c-.2.1 0-.3-.2-.4v.1c-.1 0 .2-.4.1-.5h.1c0-.3-.1.1-.3-.1.1-.1.2-.1.2-.2s-.4-.1-.4-.3c0 .1-.1.1-.2.1-.1-.1 0-.4-.2-.4-.1 0-.2-.2-.4-.2.3-.3-.5-.4-.2-.6l-.2-.2c-.1-.2-.2-.2-.3-.2 0-.1 0 0 .1-.1-.1-.3-.1-.3-.4-.4l.1-.1-.1-.1v-.1-.1c0-.1 0-.1-.1-.2h.1c-.1 0-.1-.1 0-.2 0 0 0-.1-.3-.2-.1-.1-.2-.1-.3-.2 0 .1-.1 0-.2 0-.1-.1-.2-.1-.3-.1-.1-.1.1-.1.2 0 .4.2 0-.1.3 0-.1-.1-.1-.2-.1-.2v-.1l.1.1c.1 0 .1.1.2.1l-.4-.3.1.1c.1.1.3.2.2.2.2.2-.1-.1-.1-.2.1.1.2.2.3.2l.1.1c-.1-.1-.2-.2-.1-.2l.2.2.1.1-.2-.2c0-.1.1 0-.1-.2.2.2.3.3.4.3.1 0 .2 0 .2.1 0-.1.1-.1.2 0 0 0 0-.2.1-.2v.3c.1 0 .2.1.2.2-.1-.2.4 0 .3-.2.1 0 0 .1.1.2.3-.1.6.2.9.2v-.2l.1.2c.1 0 .1-.2.2-.1v-.1c.6.3 1.4 0 2 .4-.1-.1 0-.1 0-.1v-.2l.3.2c.1-.2.3 0 .3-.2h-.1c.1-.2-.2-.4-.1-.7-.1.2-.3-.3-.6 0v-.1c-.1.1-.1.1-.2.1-.3 0-.5-.1-.8-.2v.1c-.1 0-.1-.1-.1-.1-.1.2.2 0 .1.2-.1-.3-.6-.1-.6-.4-.1 0 0 .1-.1.1v-.1.1c-.1 0-.1-.1-.1-.2h.1c-.1-.1-.3 0-.3 0l.1.1c-.3 0-.7-.2-1.1-.1v.1c-.3.1-.2-.1-.5-.1h-.1-.1-.1c.1 0-.2-.2 0-.2h-.3s0 .1-.1.2l-.1-.1c-.1.1 0 .1-.2.1v-.1c0-.1-.1-.1 0-.2-.3-.2-.4-.2-.5-.2-.1 0-.2 0-.4-.2.1.3.5.3.5.4.1.1.1.1.1.2h-.1c-.1 0-.2-.2-.4-.3-.2-.2-.4-.3-.6-.4-.1-.1-.2-.1-.2-.1s-.1 0-.3-.1c.2.3-.2-.1.2.3h.2s0 .1.1.2c0 .1 0 .1-.3-.1-.1-.1-.1-.2-.1-.2-.2-.1-.1 0-.3-.1-.2-.2-.2-.2-.1-.2s.3.1.2 0c-.1-.1-.2-.1-.2-.1s-.1 0-.3-.2c.2.2.1.2 0 .1s-.3-.2-.2 0l-.3-.3v.1l.1.1-.4-.3c.2.2.1.1 0 .1 0 0-.1 0 .1.2-.3-.4.3.2.4.2.3.3.2.2 0 .2-.2-.1-.3-.2-.1.1-.1-.1 0-.2.2 0 0 .1 0 .1-.1.1.1.2.2.2.2.2.1 0 .1 0 .2.1-.2-.1.2.2.4.4l-.2-.1c.1.3.5.3.6.5l-.4-.3.2.2-.3-.1c.3.3.3.3.4.5.1 0 .4.1.5.3 0 .1-.2-.1 0 .1-.1-.1-.3-.2-.2-.2-.1 0-.1-.1-.2-.1 0 .1.2.3.2.4v-.1c.2.1.3.2.4.3h-.2c.1.1.2.1.2.2-.1 0-.2 0-.4-.2l.4.3s0 .2-.1.2c0 .1.2.2.3.3l.2.2v.1h.1c.1.1.1.3.3.4l-.1.2c.1.1.1-.2.3-.1.1.1-.1.1-.1.2.1 0 .4 0 .3.3.2-.1.2-.1.2-.2zm1.1 1.5s-.1 0-.1-.1c.1 0 .1.1.1.1zm1.8 2.2s-.1 0 0-.1v.1zm-3.8-2.1c0 .1 0 .1 0 0zm-.1-.1c-.1 0-.1 0 0 0zm.9-4.1c-.1-.1-.1-.1 0 0zM149.8 226.9zM146.4 222.5zM148.8 225.8s0 .1 0 0c0 .1 0 0 0 0zM145.4 224.4l.1.1-.1-.1zM145.2 223.2s.1.1 0 0z"/><path class="cst2" d="M145.6 224c.1-.1 0-.1-.1-.1-.1.1 0 .1.1.1zM145.5 223.9s0-.1 0 0c-.1 0 0 0 0 0zM146 224.8c0-.1-.1 0 0 0-.2.1.2 0 0 0zM145.8 223.7l-.1.1h.1zM146.1 224.2l-.1-.1h-.1l.2.1zM146 224.1zM145.9 223.8v.1h.1zM147.1 225.1l.1.1v-.1h-.1zM147 224.6v.1-.1zM147.3 224.8c.1 0 .2.1 0 0 .1 0 0-.1 0 0zM148.7 226.3l-.1-.1-.1.2zM150.4 226.9c-.1-.1-.1.1-.2 0-.1 0 .1.1 0 .1.1 0 .1 0 .2-.1zM150.2 227zM152.4 221.7h.1l-.1-.1zM152.5 221.5v.2-.2c.1 0 .1 0 0 0zM148.2 225.4c.1-.1.1-.1 0-.1v.1zM147.5 224.2l.1-.1zM146.7 223.3l.1.1c-.1 0 0-.2-.1-.1z"/></g></svg><svg id="domsters_logo" viewBox="-1 -1 255.4 111.7" width="255.4" height="111.7" x="362" y="452" xmlns="http://www.w3.org/2000/svg"><style>.dst0{fill:#ef4a23}.dst1{enable-background:new}.dst2{fill:#fff}</style><path class="dst0" d="M196.6 46.9c1.1-.1 2.3-.1 3.4-.2l1.5.2c.2 0 .5 0 .7-.3.1-.1.1-.2.1-.3.2-.3.3-.5.3-.9 0-.3-.1-.6-.4-.9-.2-.2-.6-.4-1-.4l-4.7.3c-1.4.1-2.9.2-4.4.3.2-1.7.5-3.4.8-5.1l.8-5 .1-.4c0-.3 0-.7-.2-.9-.2-.4-.5-.5-.7-.6-.3-.2-.7 0-.9.1h-.1c-.2.2-.4.5-.5.8-.2 1-.3 1.9-.5 2.9-.2.9-.3 1.9-.5 2.8l-.9 5.5c-.8.1-1.7.2-2.5.2-.9 0-1.8.1-2.7.2-.5 0-.8.3-1 .5-.2.3-.3.6-.3.9 0 .3.1.6.4.9.2.2.6.4 1 .4s.9-.1 1.3-.1c.5 0 .9-.1 1.3-.1s.9-.1 1.3-.1c.3 0 .7 0 1-.1-.5 4.2-.9 8-1.3 11.4-1.8.7-3.3 1.4-4.9 2.4-1.4.9-2.9 1.9-4.4 3.1-.5-.3-.8-.7-1.1-1.1-.3-.5-.4-1-.4-1.7.2-.3.3-.6.5-.9s.3-.7.1-1l.3-.6c.4-.8.9-1.5 1.5-2 .6-.6 1.1-1.1 1.6-1.5.4-.3.5-.6.5-.9s-.1-.6-.4-.9c-.2-.2-.5-.4-.8-.5-.4-.1-.7 0-1 .2-1.3 1.1-2.4 2.3-3.3 3.8-.5.9-.9 1.8-1.1 2.7-.3.7-.6 1.4-.7 2.5-.2.3-.4.6-.6.8-.3.5-.7 1-1.1 1.4-.1.2-.3.4-.5.6-.2.2-.3.4-.5.6-.3.2-.5.4-.7.7-.1.1-.2.3-.4.4l-.6.6c-.2.2-.3.3-.5.3-.3.1-.9.2-1.1-.2s-.4-.9-.5-1.2c-.2-1.1-.3-2.1-.3-3.2 0-1-.1-2-.2-2.9v-.3c-.1-.8-.2-1.7-.2-2.8 0-1.1-.2-2.1-.6-2.9-.3-.5-.8-1.1-1.5-1.1s-1.2.1-1.8.4c-.6.3-1.2.7-1.7 1.1-.5.4-.9.8-1.2 1.1-.8 1-1.5 2-2 3-.3.5-.6 1.1-.8 1.6l-.3.6v-2.8c0-1.3 0-2.6.1-3.9 0-.4-.1-.8-.6-1.1-.4-.4-.9-.4-1.3 0-1.1.7-2 1.7-2.7 2.9-.6 1.1-1.2 2.2-1.6 3.4-.2.6-.4 1.2-.7 1.8l-.6 1.8c-.3 1-.8 1.9-1.4 2.7-.3-2.5-.4-4.9-.4-7.1 0-.4-.1-.7-.4-1-.3-.3-.5-.4-.9-.4s-.6.1-.9.4c-.2.2-.3.5-.4.9-.1 0-.1 0-.2.1l-.3.1c-.6.3-1.4.6-2.2.9-.7.3-1.5.5-2.5.6.1-1.2.1-2.3 0-3.5-.1-1.2-.3-2.4-.8-3.8-.3-.9-.9-1.7-1.8-2.5s-1.9-.9-3-.3c-.6.2-1.2.6-1.6 1.2-.4.5-.7 1.1-.9 1.8-.2.6-.3 1.3-.4 1.9-.1.7-.1 1.4 0 1.9l.3 1.5c-1.1.3-2.4.7-3.9 1.1-1.1.3-2.2.8-3.2 1.2.7-1.8 1.3-3.9 2-6.5.6-2.3 1-4.5 1.3-7.1.2-1.6.3-3.1.3-4.5 0-1.5-.1-2.9-.3-4.4-.1-.9-.3-1.7-.6-2.6-.3-.9-1-1.4-2.2-1.7-1-.1-1.8.1-2.7.6-.9.6-1.6 1.1-2.1 1.6-1.1.9-2.1 1.8-2.9 2.7-.8.8-1.6 1.8-2.5 3-1.8 2.4-3.4 4.9-4.7 7.4l-3.9 7.8c-.6 1.4-1.2 2.7-1.8 4-.3.8-.6 1.5-1 2.3.1-1.1.2-2.2.2-3.3.1-1.5.2-3 .2-4.5s0-3-.1-4.5l-.3-3.8c0-1.3-.3-2.5-.8-3.7-.3-1-.8-1.7-1.4-2.3-.6-.6-1.3-.9-2.3-1.2-1.2-.2-2.3 0-3.4.6-1 .6-1.9 1.3-2.6 2-2 1.9-3.5 3.9-4.6 6.2-1.1 2.4-1.9 4.7-2.4 7.2 0 .3 0 .7.2.9 0 .2.1.4.2.5.2.3.4.4.6.5.2.1.5 0 .7-.1.2-.2.4-.4.5-.7.1-.1.2-.3.3-.5.4-2.2 1-4.2 1.9-5.9.6-1.3 1.4-2.5 2.3-3.7.3-.4.7-.8 1-1.2.3-.4.7-.8 1.2-1.3s1-.9 1.6-1.2c.5-.3 1.1-.5 1.7-.5.6 0 1.1.3 1.6.9.5.5.8 1.2 1 2v.2c.1 1.1.2 2.2.3 3.1.4 5 .4 9.6-.2 13.9-.6 5-1.6 9.4-2.9 13.7-.1.4-.1.7 0 .9 0 .2 0 .4.2.6.1.3.3.4.6.5.3.1.5 0 .8-.1.3-.2.5-.4.6-.7v-.1c.1-.1.2-.3.3-.5v-.2c0-.1.1-.2.1-.3l.1-.2c0-.1 0-.1.1-.2l.2-.3c1.5-3.8 3.2-7.9 5.3-12.8 2.2-4.9 4.2-8.9 6.1-12.5l.9-1.8c.6-1 1.2-2.1 1.9-3 1.2-1.8 2.4-3.4 3.8-4.9.6-.7 1.3-1.4 2-2.1.7-.6 1.5-1.2 2.3-1.7.8-.4 1.3-.4 1.7 0 .2.2.4.5.5.8 0 .1.1.3.1.5.2.8.2 1.7.2 2.5v2c-.1 3.4-.5 6.6-1.3 9.6-.8 3.3-1.8 6.3-3.1 9.3-2.7 1.4-5.4 3.1-8 5-2.5 1.9-4.7 4.1-6.5 6.5-.4.5-.8 1.1-1.2 1.9l-.3.5c-.4.8-.8 1.9-1 3-.2 1-.2 2.1 0 3 .1.3.3.6.4.9.3.8.8 1.5 1.6 1.9.4.2.8.4 1.3.3.5 0 1-.2 1.4-.4.5-.3.9-.6 1.3-.9.4-.3.8-.6 1.1-.9.9-.8 1.8-1.8 2.6-2.8s1.6-2 2.3-3.1c2.8-4 5.1-8.1 6.9-12.4 1.5-.7 3.1-1.3 4.6-1.9l2.4-.9v.3c-.3.9-.5 1.7-.6 2.5-.2.8-.2 1.7-.1 2.7.1.9.3 1.6.6 2.4l.6.9c.5.9 1.3 1.5 2.3 1.9 1.1.4 2.2.1 3.1-.8 1.1-1.1 1.9-2.4 2.3-4.1.5-1.6.8-3.2 1-4.6 1-.1 2.1-.4 3.1-.7.8-.2 1.5-.5 2.3-.8 0 .7.1 1.4.2 2.1.2 1.6.4 3.3.6 5 .1.3.2.6.5.8.1.3.3.6.6.7.4.1.7.1 1.1-.2.9-.8 1.6-1.8 2.2-2.9.6-1.1 1.1-2.2 1.5-3.4s.9-2.4 1.3-3.5c.4-.9.9-1.7 1.4-2.5-.1 1.1-.1 2.2-.1 3.4 0 1.5 0 3.1-.1 4.7 0 .4.1.7.4.9.1.4.3.6.7.7.5.1.8-.1 1.1-.5.5-.8 1.1-1.7 1.5-2.6.4-.9.9-1.8 1.3-2.7.5-.9 1-1.8 1.5-2.6.5-.9 1.2-1.6 1.9-2.3l.6-.6c.2-.2.3-.3.5-.4l.1-.1v.2c.1.5.2 1.2.2 1.7s0 1.1.1 1.7c0 .5.1 1.1.1 1.7 0 .6.1 1.2.1 1.7 0 1.2.1 2.2.3 3.3.1.7.3 1.3.6 2 .1.2.2.3.4.5v.1c.3.5.7 1 1.2 1.3s1 .5 1.6.5c.6 0 1.2-.2 1.8-.6 1.5-1 2.9-2.3 4-4 .4-.5.7-1 1-1.5l.1-.1c0 .1.1.2.1.2.3.4.6.8 1 1.2-.1 0-.1.1-.2.1-.2.2-.4.3-.6.5-.4.3-.8.6-1.2 1-.5.3-.9.7-1.3 1.1-.4.4-.8.8-1.1 1.2-.4.4-.6 1-.9 1.5-.1.7-.1 1.2.1 1.8.1.4.3.7.5 1 .3.8.8 1.4 1.5 1.8.8.5 1.6.7 2.5.6.9 0 1.8-.3 2.7-.9.9-.6 1.6-1.3 2.2-2.1.6-.8 1-1.7 1.2-2.7.1-.3.1-.6.1-.9.2-1.2.2-2.1-.2-3-.2-.3-.4-.7-.7-1 1.1-.8 2.2-1.6 3.3-2.3.9-.5 1.9-1 2.8-1.4-.2 2.4-.4 4.7-.5 6.9-.5 7.4-.8 14.9-.9 22.4 0 .4.1.7.4 1 0 .3.1.5.3.7.2.2.4.3.7.3s.5-.1.7-.3.3-.5.3-.8v-.2c.1-.2.2-.5.2-.7.1-7.5.4-15 .9-22.4.5-6.3 1.2-13.8 2.3-21.4 1.7-.1 3.2-.2 4.8-.3zm-93.3 18.9c.2-.9.2-1.7.3-2.5-.1.8-.1 1.6-.3 2.5zm34.2-5c-.3-.2-.8-.4-1.3-.6-.6-.3-1.1-.7-1.4-1.2-.4-.6-.6-1.4-.8-2.7 0-1.2.2-2.1.7-2.6.4-.5.6-.7.8-.7.1 0 .2 0 .2.1.4.1.6.4.7.7.2.4.4.9.6 1.4.1.5.2 1 .3 1.3.2 1.5.3 3 .2 4.3zm-2.5 1.6c.4.2.9.4 1.5.6.3.1.7.2 1 .2-.3 1.5-.7 2.9-1.1 4.2l-.3.6c-.1.3-.3.6-.4.9-.2.5-.4.9-.8 1.2-.5.4-.9.5-1 .4-.3-.2-.5-.4-.7-.8-.2-.4-.3-.9-.4-1.3-.1-.5-.1-.8-.1-1.1 0-1.1.2-2.1.4-3.1.1-1 .5-1.9.8-2.6.4.2.7.5 1.1.8zm-15.6 5.9c-.1.2-.2.5-.4.7-.4.7-.8 1.5-1.2 2.3-.6 1.2-1.3 2.5-2 3.6-1 1.5-2.3 3.4-4 5.2l-1.2 1.2c-.5.5-1 .8-1.4 1-.4.2-.8.3-1.1.2-.1 0-.4-.3-.5-1.4-.1-1.1.1-2 .7-2.9.6-1 1.2-1.9 1.8-2.7 1.5-1.9 3.2-3.6 5.1-5.1 1.7-1.3 3.3-2.5 4.9-3.4-.2.2-.3.3-.3.5-.2.3-.3.5-.4.8zm60.7 1.3c-.1.6-.3.9-.7 1.2h-.1v.1c-.2.5-.5 1-1 1.4-.4.4-.8.7-1.4.8-.3.1-.9.3-1.5.1-.4-.1-1.1-.3-1-.9 0-.5.3-1 .7-1.5.5-.6 1.1-1.1 1.7-1.6.3-.2.5-.4.7-.6.3-.2.5-.3.6-.5.2-.1.4-.3.6-.5.1-.1.2-.2.3-.2.1 0 .1-.1.2-.1.3.3.5.6.7.9s.3.7.2 1.4zm-13.5-14.8c.4.8.6 1.7.6 2.7 0 1.1.1 2.1.2 2.8v.3c.1 1 .2 1.9.2 2.9 0 1.1.1 2.1.3 3.3.1.4.3.9.5 1.4v.1c-.1-.1-.2-.1-.2-.3-.2-.4-.4-.9-.5-1.3-.2-1.1-.3-2.1-.3-3.2s-.1-2.1-.2-3.2c-.1-.8-.2-1.7-.2-2.8 0-1.1-.2-2-.6-2.8-.2-.3-.4-.5-.6-.7.3.1.5.4.8.8zm-9.6-.2c0-.2-.1-.4-.2-.6.1.1.2.3.2.6zm-29.5-18.5c.3.8.5 1.6.6 2.4.2 1.5.3 2.9.3 4.4 0 1.4-.1 2.9-.3 4.5-.3 2.6-.7 4.8-1.3 7.1-.7 2.8-1.4 5-2.2 7l-.1.2c.9-2.3 1.6-4.7 2.2-7 .6-2.4 1-4.7 1.3-7.1.2-1.6.3-3.1.3-4.5 0-1.5-.1-2.9-.3-4.4-.1-.9-.3-1.7-.5-2.6-.3-.5-.7-.9-1.3-1.2.7.3 1.1.6 1.3 1.2zM74.8 59.2c-.2-.2-.6-.2-.9-.2-.4 0-.7.2-.9.5-.1.2-.3.4-.4.6-.3.4-.6.8-.8 1.2-.2.2-.5.5-.7.8-.2.3-.5.5-.7.8-.8.7-1.6 1.4-2.4 2.2-.8.7-1.6 1.3-2.6 2-.8.6-1.8 1-3 1.3-1 .3-2.1.1-3.1-.6-.5-.3-.8-.7-1-1.1-.3-.6-.3-1-.3-1.5 0-.4.1-.8.2-1.3l.1-.5c.1-.3.1-.7.2-1.1 1.3.7 2.6.7 4 .1 1.4-.7 2.6-1.8 3.4-3.3.5-.7.9-1.6 1.3-2.9.3-1.2.4-2.3.2-3.2-.2-1-.7-1.7-1.4-2-.8-.3-1.5-.3-2.4 0-1.1.4-2 1-2.9 1.9-1 1-1.7 1.9-2.2 2.7-.7 1-1.2 2-1.6 3.2-.2.5-.3.9-.4 1.3-.7 1-1.6 2.1-2.9 3.4-.3.2-.6.5-1 1-.3.4-.6.8-1 1.1-.3.3-.7.6-1.1.9-.3.3-.6.3-1 .4-.3.1-.6-.1-.7-.5-.2-.5-.3-1-.4-1.6v-3.5c0-.6 0-1.1-.1-1.6v-1.6c0-1.1 0-2.1-.1-3.2 0-.5-.3-.9-.8-1.1-.5-.2-1-.1-1.4.2-1.7 1.6-3.3 3.3-4.5 4.9-1.2 1.4-2.1 3-3 4.5.8-6.3 1.8-12.6 2.8-19.2l.3-1.7c.1-.8.3-1.5.4-2.3 1.3-.1 2.5-.3 3.8-.4 4.7-.5 9.4-.9 14.2-1.3.3 0 .6-.1.9-.4.2-.3.3-.6.3-.9s-.1-.6-.4-.9c-.2-.2-.6-.4-1-.4-4.8.3-9.7.8-14.4 1.3-1 .1-2 .2-2.9.3.8-4.5 1.7-9.1 2.6-13.7 0-.3 0-.7-.2-.9-.2-.3-.5-.4-.7-.5-.4-.1-.7-.1-1 0-.3.2-.4.5-.5.8-1 4.9-1.9 9.8-2.8 14.7-2.9.4-5.9.8-8.7 1.2-.2 0-.5 0-1 .2-3.1.5-6.2 1-9.2 1.5s-6.2 1.1-9.2 1.7c-.3 0-.7.2-.8.6-.1.3-.1.6 0 .9 0 .4.3.6.5.8.2.2.6.3 1 .2 3-.6 5.9-1.1 8.6-1.6 2.8-.5 5.5-1 8.2-1.4-.9 7.9-2 16.3-3.1 24.7-1 8.3-2.1 16.7-3.2 24.8v.1c-.1.5 0 .8.3 1 .3.3.6.4.9.4.3 0 .6-.1.9-.4.2-.2.4-.6.5-.9 2-14.7 4.1-30.6 6.4-50 2.5-.4 4.9-.7 7.4-1-1.8 10.6-3.3 21.4-4.5 32.1 0 .3 0 .6.3.9l.7.3c.1 0 .2.1.3.1.2 0 .5-.1.6-.2.3-.1.5-.4.6-.8.8-3.3 1.9-6.1 3.5-8.3 1.3-2.4 3-4.6 5.1-6.8l.2 6.7v1.5c0 .4.1.9.2 1.4.1.5.4.9.7 1.3.4.5 1 .6 1.6.7 1.2.1 2.2-.2 3-.8.9-.6 1.6-1.2 2.3-1.8l.2-.1 1.3-1.3c0 1.3.4 2.4 1.3 3.4.7.9 1.7 1.5 2.7 1.8.7.2 1.4.3 2 .3.4 0 .8 0 1.2-.1 1.7-.2 3-.7 4.2-1.6.9-.6 1.7-1.3 2.6-2 .3-.2.6-.5.9-.7.9-.8 1.9-1.7 2.8-2.6 1.1-1.1 1.8-2 2.5-3 .1-.3.2-.7.1-1-.5-.5-.7-.8-1-.9zm-15.7.3c.5-1.1 1-2.1 1.5-2.8.2-.2.4-.4.6-.7l.3-.4c.4-.5.9-.9 1.4-1.3.5-.4 1-.7 1.3-.8h.2c.1.1.2.3.3.6.1.3 0 .6-.1 1.1v.1c-.2.5-.4 1-.6 1.4s-.5.9-.8 1.3c-.1.2-.3.3-.4.5-.2.2-.3.4-.4.5-.6.7-1.1 1-1.8 1.2-.4.1-.8 0-1.3-.3-.1-.2-.1-.3-.2-.4z"/><path class="dst0" d="M235.4 59.7c-.1-.2-.3-.5-.5-.7-.2-.2-.6-.3-1.1-.2-2 .7-3.6 1.5-5.2 2.5-1.4.9-2.9 1.9-4.4 3.1-.5-.3-.8-.7-1.1-1.1-.3-.5-.5-1.1-.4-1.9.2-.8.5-1.6.9-2.2.4-.8.9-1.5 1.5-2l.1-.1c.2.1.4.1.7 0 .2-.1.4-.2.7-.4.3-.3.4-.5.4-.9v-.2c.2-.2.3-.5.3-.8 0-.3-.1-.6-.4-.9-.2-.2-.5-.4-.8-.5-.4-.1-.7 0-1 .2-1.4-.8-2.9-1-4.3-.4-1.8.5-3.3 1.6-4.8 3.6-.5.7-1 1.4-1.4 2.1-.2.3-.3.6-.5.8 0 0 0-.1-.1-.1v-.2c.1-.3.1-.6.2-.9.1-.3.1-.7.2-1 0-.3 0-.7-.3-1-.2-.2-.5-.4-.8-.5-.4-.1-.7-.1-1 0-.3.2-.4.5-.5.8-.1 1-.3 2-.4 3 0 .1-.1.1-.1.2-.3.4-.6.8-.8 1.2-.2.2-.5.5-.7.8s-.5.5-.7.8c-.8.7-1.6 1.4-2.4 2.2-.8.7-1.6 1.3-2.6 2-.8.6-1.8 1-3 1.3-1 .3-2.1.1-3.1-.6-.5-.3-.8-.7-1-1.1-.2-.5-.3-.9-.3-1.4 0-.4.1-.8.2-1.3l.1-.5c.1-.3.1-.7.2-1.1 1.3.7 2.6.7 4 .1 1.4-.7 2.6-1.8 3.4-3.3.5-.7.9-1.6 1.3-2.9.3-1.2.4-2.3.2-3.2-.2-1-.7-1.7-1.4-2-.8-.3-1.5-.3-2.4 0-1.1.4-2 1-2.9 1.9-1 1-1.7 1.9-2.2 2.7-.4.5-.7 1-.9 1.6-.3.6-.5 1.1-.8 1.7-.4 1.1-.7 2.1-1 3.1-.3 1.2-.5 2.3-.5 3.5s.4 2.3 1.2 3.2l.2.2c.7.9 1.7 1.5 2.7 1.8.7.2 1.4.3 2 .3.4 0 .8 0 1.2-.1 1.7-.2 3-.7 4.2-1.6.9-.6 1.7-1.3 2.6-2 .3-.2.6-.5.9-.7.7-.7 1.4-1.3 2-2-.1 2-.2 4-.1 6 0 .4.2.6.4.8h.1c.1.1.2.2.2.3.3.2.6.3.9.3.3 0 .6-.1.9-.4.2-.2.4-.6.4-1 0-1.9.4-4 1.3-6.1.7-2 1.7-3.8 3-5.6.4-.7.9-1.4 1.7-2.2.5-.6 1.1-1.1 1.6-1.2.5-.3 1-.3 1.7-.1.1 0 .2.1.3.1-.5.6-1.1 1.3-1.5 2.1-.9 1.5-1.4 3.1-1.3 4.7.1.7.3 1.3.6 1.9.4.5.8 1 1.3 1.5.2.1.3.2.4.3-.4.3-.8.7-1.2 1-.4.3-.8.6-1.2 1-.5.3-.9.7-1.3 1.1-.4.4-.8.8-1.1 1.2-.4.4-.6.9-.8 1.4-.1.6-.1 1.1.1 1.7.3.9.8 1.6 1.6 2 .4.3.9.4 1.3.5.4.2.8.3 1.3.3h.5c.9 0 1.9-.3 2.8-.9.9-.6 1.6-1.3 2.3-2.2.6-.8 1-1.8 1.2-2.8.2-1.2.2-2.2-.2-3.1-.3-.5-.6-1-1-1.4 1.2-.9 2.4-1.9 3.6-2.6 1.2-.7 2.7-1.5 4.2-1.9h.1c.1 0 .1-.1.2-.1.2-.1.5-.3.6-.6-.3-.3-.4-.5-.5-.9zm-32.5-6.3c.1.1.2.3.3.6.1.3 0 .6-.1 1.1v.1c-.1.2-.2.5-.3.7-.1.2-.2.5-.3.7-.2.4-.5.9-.8 1.3-.1.2-.3.3-.4.5-.2.2-.3.4-.4.5-.6.7-1.1 1-1.8 1.2-.5.2-1 0-1.6-.4.5-1.2 1.1-2.3 1.6-3 .2-.2.4-.4.6-.8l.3-.4c.4-.5.9-.9 1.4-1.3s1-.7 1.3-.8h.2zm22.6 16.2c-.1.6-.3.9-.7 1.2h-.1v.1c-.2.5-.5 1-1 1.4-.4.4-.8.7-1.4.8-.3.1-.9.3-1.5.1-.4-.1-1.1-.3-1-.9 0-.5.3-1 .7-1.5.5-.6 1.1-1.1 1.7-1.6.3-.2.5-.4.7-.6.3-.2.5-.3.6-.5.2-.1.4-.3.6-.5.1-.1.2-.2.3-.2.1 0 .1-.1.2-.1.3.3.5.6.7.9.2.3.3.7.2 1.4z"/><g class="dst1"><path class="dst2" d="M63 30.5h.8c.7 0 1.3-.3 1.3-1.4V18h2.3v11c0 2.9-1.6 3.7-3.3 3.7H63v-2.2zM76.4 32.6H74l-.4-2.6h-2.8l-.4 2.6h-2.1L70.7 18H74l2.4 14.6zM71.1 28h2.2l-1.1-7.4-1.1 7.4zM78.5 27.8L75.6 18H78l1.7 6.6 1.7-6.6h2.2l-2.9 9.7v4.8h-2.3v-4.7h.1zM90.9 17.9c2.2 0 3.4 1.3 3.4 3.7v.4h-2.2v-.6c0-1-.4-1.4-1.1-1.4s-1.1.4-1.1 1.4c0 1.1.5 1.9 2 3.2 1.9 1.7 2.5 2.9 2.5 4.6 0 2.3-1.2 3.7-3.4 3.7s-3.4-1.3-3.4-3.7v-.9h2.2v1c0 1 .5 1.4 1.2 1.4s1.2-.4 1.2-1.4c0-1.1-.5-1.9-2-3.2-1.9-1.7-2.5-2.9-2.5-4.6-.1-2.3 1-3.6 3.2-3.6zM98.6 26.8l-.7 1.3v4.5h-2.3V18h2.3v6.3l3-6.3h2.3l-3.2 6.5 3.2 8.1h-2.4l-2.2-5.8zM109 32.6c-.1-.4-.2-.6-.2-1.8v-2.3c0-1.4-.5-1.9-1.5-1.9h-.8v5.9h-2.3V18h3.5c2.4 0 3.4 1.1 3.4 3.3v1.1c0 1.5-.5 2.5-1.5 2.9 1.1.5 1.5 1.6 1.5 3.1v2.2c0 .7 0 1.2.2 1.8H109v.2zm-2.5-12.5v4.5h.9c.9 0 1.4-.4 1.4-1.5v-1.4c0-1-.4-1.5-1.2-1.5h-1.1v-.1zM112.6 18h2.3v14.6h-2.3V18zM123.3 21.6v1.9c0 2.3-1.1 3.6-3.4 3.6h-1.1v5.5h-2.3V18h3.4c2.3 0 3.4 1.3 3.4 3.6zm-4.4-1.5V25h1.1c.7 0 1.1-.3 1.1-1.4v-2.2c0-1-.4-1.4-1.1-1.4h-1.1v.1zM123.7 18h7.1v2.1h-2.4v12.5h-2.3V20.1h-2.4V18z"/></g><g class="dst1"><path class="dst2" d="M155.1 24.7c0 1.3-.9 2.8-2.3 3.6.6 1.3 1.5 2.6 2.5 3.9 0-2.7 1.2-5.5 4.1-5.5 1.8 0 3.1 1.2 3.1 2.8 0 1.4-1 2.8-2.5 2.8-1 0-2-.6-2.1-1.9.8-.2 1.2-.9 1.2-1.7 0-.7-.4-1.2-1.1-1.2-1.6 0-2.6 2.8-2.5 4.9 1.9 2.3 4.3 4 6.3 4 .6 0 .9-.4 1.2-.9l.1.1c-1.3 2.4-2.8 3.6-4.4 3.6-1.5 0-3.2-.8-4.7-2.1-1.8 1.5-3.5 2.1-5.1 2.1-3.5 0-5.3-2.2-5.3-4.6 0-2.3 1.7-4.5 5.2-5-.4-1.1-.6-2.2-.6-3.1-.1-4.4 6.9-5.1 6.9-1.8zm-7.5 7.8c0 2.5 1.8 5.2 4.4 5.2.6 0 1.2-.2 1.8-.7-2.2-1.9-4.1-4.7-5.1-7.2-.9.4-1.1 1.8-1.1 2.7zm4.2-7.6c0 .9.3 2.1.9 3.3 1.3-.7 2.2-2.2 2.2-3.5 0-2.1-3.1-2.4-3.1.2z"/></g></svg></svg>