<?xml version="1.0" encoding="utf-8"?><!DOCTYPE svg PUBLIC "-//W3C//DTD SVG 1.1//EN" "http://www.w3.org/Graphics/SVG/1.1/DTD/svg11.dtd"><svg width="836" height="506" viewBox="0 0 836 506" xmlns="http://www.w3.org/2000/svg" xmlns:xlink="http://www.w3.org/1999/xlink"><svg viewBox="-1 -1 362 362" width="362" height="362" id="JSD_Logo" x="474" xmlns="http://www.w3.org/2000/svg"><path d="M27 211.1v-41.2h13.2c3.2 0 6.1.5 8.5 1.6 2.4 1.1 4.4 2.6 6 4.4 1.6 1.9 2.8 4 3.6 6.5.8 2.5 1.2 5.2 1.2 8 0 3.1-.5 6-1.4 8.5-.9 2.5-2.2 4.7-3.9 6.5-1.7 1.8-3.7 3.2-6.1 4.2-2.4 1-5.1 1.5-8 1.5H27zm31.4-20.7c0-2.8-.4-5.4-1.2-7.8-.8-2.4-2-4.4-3.5-6.1-1.5-1.7-3.4-3.1-5.7-4-2.3-1-4.8-1.5-7.7-1.5H28.2v38.9h12.1c3 0 5.6-.5 7.9-1.5 2.3-1 4.2-2.3 5.7-4.1s2.7-3.8 3.5-6.2c.6-2.3 1-4.9 1-7.7zM84.5 211.4c-2.9 0-5.5-.6-7.8-1.8-2.3-1.2-4.4-2.8-6.1-4.7-1.7-1.9-3-4.2-3.9-6.7-.9-2.5-1.4-5.1-1.4-7.7 0-2.7.5-5.4 1.5-7.9s2.3-4.7 4.1-6.7c1.7-1.9 3.8-3.5 6.1-4.6 2.3-1.1 4.9-1.7 7.6-1.7 2.8 0 5.4.6 7.8 1.8 2.4 1.2 4.4 2.8 6.1 4.8 1.7 2 3 4.2 3.9 6.7.9 2.5 1.4 5 1.4 7.6 0 2.8-.5 5.4-1.5 7.9s-2.3 4.7-4.1 6.6c-1.7 1.9-3.7 3.4-6.1 4.6-2.3 1.2-4.9 1.8-7.6 1.8zm-18-20.9c0 2.6.5 5 1.4 7.4.9 2.4 2.2 4.5 3.7 6.3 1.6 1.8 3.5 3.3 5.7 4.4 2.2 1.1 4.6 1.6 7.3 1.6s5.1-.6 7.3-1.7 4.1-2.6 5.7-4.5c1.6-1.9 2.8-4 3.7-6.3.9-2.4 1.3-4.8 1.3-7.2 0-2.6-.5-5-1.4-7.4-.9-2.4-2.2-4.5-3.8-6.3-1.6-1.8-3.5-3.3-5.7-4.4-2.2-1.1-4.6-1.6-7.1-1.6-2.7 0-5.1.6-7.3 1.7s-4.1 2.6-5.7 4.5c-1.6 1.9-2.8 4-3.7 6.3-1 2.4-1.4 4.7-1.4 7.2zM150.8 211.1v-38.6L132.6 203h-.9l-18.3-30.5v38.6h-1.2v-41.2h.9l19 31.7 19-31.7h.9v41.2h-1.2zM187.3 175.3c-1.6-1.8-3.3-3-5.1-3.7-1.8-.7-3.9-1-6.3-1s-4.4.2-6.1.7c-1.7.5-3.1 1.1-4.1 2-1.1.9-1.9 1.9-2.4 3.1-.5 1.2-.8 2.6-.8 4.1 0 1.5.3 2.7.8 3.7s1.3 1.8 2.3 2.5c1 .7 2.4 1.3 4 1.7 1.6.5 3.6 1 5.9 1.4 2.3.5 4.3 1 6.2 1.5 1.9.5 3.4 1.2 4.7 2 1.3.8 2.3 1.8 3 3s1 2.7 1 4.5c0 3.4-1.3 5.9-3.9 7.7-2.6 1.8-6.1 2.7-10.6 2.7-3.3 0-6.3-.5-8.8-1.5-2.6-1-5-2.6-7.2-4.8l.9-.8c2.1 2.2 4.4 3.7 6.8 4.7 2.5 1 5.2 1.5 8.4 1.5 4.1 0 7.3-.8 9.7-2.3 2.4-1.5 3.6-3.8 3.6-6.9 0-1.5-.3-2.9-.8-3.9s-1.4-2-2.5-2.8c-1.1-.8-2.6-1.4-4.3-2-1.7-.5-3.8-1-6.1-1.5-2.3-.4-4.3-.9-6.1-1.4-1.8-.5-3.2-1.1-4.5-1.9-1.2-.8-2.1-1.7-2.8-2.8-.6-1.1-.9-2.6-.9-4.3 0-1.8.3-3.4 1-4.7.7-1.4 1.6-2.5 2.9-3.5 1.3-.9 2.8-1.7 4.5-2.1 1.8-.5 3.7-.7 5.9-.7 2.6 0 4.9.4 6.9 1.1 2 .8 3.7 2 5.4 3.8l-.6.9zM226.1 171.1h-15.8v40h-1.2v-40h-15.8v-1.2H226v1.2zM259.9 209.9v1.2h-27v-41.2h26.5v1.2h-25.3v18.4h22.2v1.2h-22.2V210h25.8zM268.7 211.1v-41.2h16.8c1.7 0 3.2.4 4.6 1.1 1.4.7 2.7 1.7 3.7 2.8 1 1.2 1.8 2.5 2.4 4 .6 1.5.9 3 .9 4.6 0 1.6-.3 3.1-.8 4.6-.5 1.5-1.2 2.8-2.1 3.9-.9 1.1-2 2.1-3.3 2.8-1.3.7-2.7 1.1-4.3 1.2l10.4 16.2h-1.4l-10.4-16.2h-15.3v16.2h-1.2zm1.1-17.4h16c1.5 0 2.9-.3 4.2-1 1.2-.7 2.3-1.5 3.2-2.6.9-1.1 1.5-2.3 2-3.6.5-1.4.7-2.7.7-4.2s-.3-2.9-.8-4.2c-.5-1.4-1.3-2.6-2.2-3.6-1-1-2.1-1.9-3.3-2.5-1.3-.6-2.6-1-4.1-1h-15.6v22.7zM329.7 175.3c-1.6-1.8-3.3-3-5.1-3.7-1.8-.7-3.9-1-6.3-1s-4.4.2-6.1.7c-1.7.5-3.1 1.1-4.1 2-1.1.9-1.9 1.9-2.4 3.1-.5 1.2-.8 2.6-.8 4.1 0 1.5.3 2.7.8 3.7s1.3 1.8 2.3 2.5c1 .7 2.4 1.3 4 1.7 1.6.5 3.6 1 5.9 1.4 2.3.5 4.3 1 6.2 1.5 1.9.5 3.4 1.2 4.7 2 1.3.8 2.3 1.8 3 3 .7 1.2 1 2.7 1 4.5 0 3.4-1.3 5.9-3.9 7.7-2.6 1.8-6.1 2.7-10.6 2.7-3.3 0-6.3-.5-8.8-1.5-2.6-1-5-2.6-7.2-4.8l.9-.8c2.1 2.2 4.4 3.7 6.8 4.7s5.2 1.5 8.4 1.5c4.1 0 7.3-.8 9.7-2.3 2.4-1.5 3.6-3.8 3.6-6.9 0-1.5-.3-2.9-.8-3.9-.5-1.1-1.4-2-2.5-2.8-1.1-.8-2.6-1.4-4.3-2-1.7-.5-3.8-1-6.1-1.5-2.3-.4-4.3-.9-6.1-1.4-1.8-.5-3.2-1.1-4.5-1.9-1.2-.8-2.1-1.7-2.8-2.8-.6-1.1-.9-2.6-.9-4.3 0-1.8.3-3.4 1-4.7.7-1.4 1.6-2.5 2.9-3.5 1.3-.9 2.8-1.7 4.5-2.1 1.8-.5 3.7-.7 5.9-.7 2.6 0 4.9.4 6.9 1.1 2 .8 3.7 2 5.4 3.8l-.6.9z"/><g><path d="M34 157.6c.2.2.5.3 1 .5.4.1.9.2 1.5.2s1.1-.1 1.4-.3c.4-.2.6-.5.8-.9.2-.4.3-.9.4-1.6.1-.6.1-1.3.1-2.2v-7h2.2v7c0 1-.1 2-.2 2.9-.1.9-.3 1.6-.7 2.2-.3.6-.8 1.1-1.5 1.4-.6.3-1.5.5-2.6.5-1.2 0-2.2-.3-3-.9l.6-1.8zM53.8 146.3h1.9l5.4 13.7h-2.3l-1.5-3.7H52l-1.4 3.7h-2.3l5.5-13.7zm3.1 8.4l-2.2-5.9-2.3 5.9h4.5zM68 146.3l3.8 6.9 3.8-6.9H78l-5.1 8.8v4.9h-2.2v-4.9l-5.1-8.8H68zM103.5 149.5c-.1-.1-.3-.3-.6-.5s-.5-.3-.9-.5c-.3-.1-.7-.3-1.1-.3-.4-.1-.8-.1-1.2-.1-.9 0-1.6.2-2 .5-.4.3-.6.8-.6 1.4 0 .3.1.6.2.8.1.2.3.4.6.6.3.2.6.3 1.1.4.4.1.9.3 1.5.4.7.2 1.3.4 1.9.6.6.2 1 .5 1.4.8.4.3.7.7.9 1.1.2.4.3 1 .3 1.6 0 .7-.1 1.3-.4 1.8-.3.5-.6.9-1.1 1.2-.5.3-1 .5-1.6.7-.6.1-1.3.2-2 .2-1 0-2.1-.2-3-.5-1-.3-1.9-.8-2.6-1.4l1-1.9c.2.2.4.4.7.6.3.2.7.4 1.1.6.4.2.9.3 1.4.4.5.1 1 .2 1.5.2.9 0 1.5-.1 2-.4.5-.3.7-.7.7-1.3 0-.3-.1-.6-.3-.9-.2-.2-.4-.4-.7-.6-.3-.2-.7-.3-1.2-.5-.5-.1-1-.3-1.6-.4-.7-.2-1.3-.4-1.8-.6-.5-.2-.9-.4-1.3-.7-.3-.3-.6-.6-.8-1-.2-.4-.3-.8-.3-1.4 0-.7.1-1.3.4-1.8.3-.5.6-1 1.1-1.3.4-.4 1-.6 1.6-.8.6-.2 1.3-.3 2-.3.9 0 1.8.1 2.6.4.8.3 1.5.7 2.1 1.1l-1 1.8zM113 160v-13.7h2.2v7.1l6.5-7.1h2.4l-5.4 6.1 5.7 7.7H122l-4.6-6.3-2.1 2.2v4.1H113zM131.6 160v-13.7h6c.6 0 1.2.1 1.7.4.5.3 1 .6 1.3 1 .4.4.7.9.9 1.4.2.5.3 1.1.3 1.6s-.1.9-.2 1.3-.3.8-.5 1.2c-.2.4-.5.7-.8.9-.3.3-.7.5-1.1.6l3.2 5.2h-2.5l-3-4.8h-3.2v4.8h-2.1zm2.2-6.7h3.8c.3 0 .6-.1.8-.2.3-.1.5-.3.6-.6s.3-.5.4-.8c.1-.3.2-.6.2-1s-.1-.7-.2-1c-.1-.3-.3-.6-.5-.8-.2-.2-.4-.4-.7-.6-.3-.1-.5-.2-.8-.2h-3.7v5.2zM150.2 160v-13.7h2.2V160h-2.2zM161.2 160v-13.7h5.8c.6 0 1.2.1 1.7.4.5.3 1 .6 1.3 1 .4.4.7.9.9 1.4.2.5.3 1.1.3 1.6 0 .6-.1 1.1-.3 1.7-.2.5-.5 1-.8 1.4-.4.4-.8.8-1.3 1-.5.3-1.1.4-1.7.4h-3.7v4.8h-2.2zm2.2-6.7h3.6c.3 0 .6-.1.8-.2.2-.1.5-.3.6-.5.2-.2.3-.5.4-.8.1-.3.2-.6.2-1s-.1-.7-.2-1c-.1-.3-.3-.6-.5-.8-.2-.2-.4-.4-.7-.5-.3-.1-.5-.2-.8-.2h-3.5v5zM189.2 148.2h-4.6V160h-2.2v-11.8h-4.6v-1.9h11.3v1.9zM210.3 146.3h1.9l5.4 13.7h-2.3l-1.5-3.7h-5.3l-1.4 3.7h-2.3l5.5-13.7zm3.1 8.4l-2.2-5.9-2.3 5.9h4.5zM227.2 150.4v9.7H225v-13.7h1.7l7.9 9.9v-9.9h2.2V160H235l-7.8-9.6zM245.7 160v-13.7h4.9c1.1 0 2.1.2 2.9.5.8.4 1.5.8 2.1 1.5.6.6 1 1.3 1.3 2.2.3.8.4 1.7.4 2.7 0 1-.2 2-.5 2.8-.3.8-.8 1.6-1.3 2.2s-1.3 1.1-2.1 1.4c-.8.3-1.7.5-2.8.5h-4.9zm9.4-6.9c0-.7-.1-1.4-.3-2-.2-.6-.5-1.1-.9-1.6-.4-.4-.9-.8-1.4-1-.6-.2-1.2-.4-1.9-.4h-2.7v9.9h2.7c.7 0 1.4-.1 1.9-.4.6-.3 1-.6 1.4-1 .4-.4.7-1 .9-1.6.2-.5.3-1.2.3-1.9zM285.5 148.2h-4.6V160h-2.2v-11.8h-4.6v-1.9h11.3v1.9zM304.4 146.3V160h-2.2v-6h-6.9v6.1h-2.2v-13.7h2.2v5.7h6.9v-5.7h2.2zM322.7 158.1v1.9h-9.4v-13.7h9.2v1.9h-7.1v3.9h6.1v1.8h-6.1v4.2h7.3z"/></g><g><path d="M62.7 212.7l-.5-.6 43.6-43.6.5.6z"/></g></svg><svg width="34" height="34" viewBox="-1 -1 34 34" id="camera" x="255.4" y="394" xmlns="http://www.w3.org/2000/svg"><title>camera</title><path d="M9.5 19a6.5 6.5 0 1 0 13 0 6.5 6.5 0 0 0-13 0zM30 8h-7c-.5-2-1-4-3-4h-8c-2 0-2.5 2-3 4H2c-1.1 0-2 .9-2 2v18c0 1.1.9 2 2 2h28c1.1 0 2-.9 2-2V10c0-1.1-.9-2-2-2zM16 27.875c-4.902 0-8.875-3.973-8.875-8.875s3.973-8.875 8.875-8.875 8.875 3.973 8.875 8.875-3.973 8.875-8.875 8.875zM30 14h-4v-2h4v2z"/></svg><svg width="34" height="34" viewBox="-1 -1 34 34" id="dice" x="289.4" y="394" xmlns="http://www.w3.org/2000/svg"><title>dice</title><path d="M27 6H11c-2.75 0-5 2.25-5 5v16c0 2.75 2.25 5 5 5h16c2.75 0 5-2.25 5-5V11c0-2.75-2.25-5-5-5zM13 28a3 3 0 1 1 0-6 3 3 0 0 1 0 6zm0-12a3 3 0 1 1 0-6 3 3 0 0 1 0 6zm6 6a3 3 0 1 1 0-6 3 3 0 0 1 0 6zm6 6a3 3 0 1 1 0-6 3 3 0 0 1 0 6zm0-12a3 3 0 1 1 0-6 3 3 0 0 1 0 6zm.899-12C25.432 1.725 23.408 0 21 0H5C2.25 0 0 2.25 0 5v16c0 2.408 1.725 4.432 4 4.899V6c0-1.1.9-2 2-2h19.899z"/></svg><svg id="domsters_logo" viewBox="-1 -1 255.4 111.7" width="255.4" height="111.7" y="394" xmlns="http://www.w3.org/2000/svg"><style>.dst0{enable-background:new}.dst1{fill:#ee2954}.dst2{fill:none;stroke:#ee2954;stroke-width:.5;stroke-miterlimit:10}</style><g class="dst0"><path class="dst1" d="M59.9 38.3c-4.8.4-9.5.8-14.2 1.3-4.7.5-9.4 1.1-14.1 1.8-2 16.7-4.1 33.5-6.4 50.2-.1.3-.2.6-.4.8-.2.2-.5.3-.7.3s-.5-.1-.7-.3c-.2-.2-.3-.4-.2-.8 1.1-8.3 2.2-16.6 3.2-24.9 1.1-8.3 2.1-16.6 3.1-25-2.8.5-5.7 1-8.6 1.5-2.9.5-5.7 1-8.6 1.6-.3.1-.6.1-.8-.1-.2-.2-.4-.4-.4-.7-.1-.3-.1-.5 0-.8.1-.2.3-.4.6-.4 3.1-.6 6.2-1.2 9.2-1.7 3-.5 6.1-1 9.2-1.5.4-.2.7-.2.9-.2 4.8-.7 9.6-1.4 14.4-1.9 4.8-.5 9.6-1 14.4-1.3.3 0 .6.1.8.3.2.2.3.4.3.7 0 .3-.1.5-.3.8-.2.2-.4.3-.7.3z"/><path class="dst1" d="M57 59.6c.2-.3.5-.4.8-.4.3 0 .5 0 .8.2.2.1.4.3.5.6.1.3.1.5-.2.8-.7 1.1-1.5 2.1-2.4 3-.9 1-1.8 1.9-2.7 2.8-.7.6-1.5 1.3-2.4 1.9-.8.7-1.8.9-2.8.8-.6-.1-1.1-.2-1.4-.6-.3-.3-.6-.7-.7-1.2-.1-.4-.2-.9-.2-1.4v-1.5l-.2-7.3c-2.2 2.2-4.1 4.6-5.6 7.3-1.7 2.5-2.8 5.4-3.5 8.4-.1.3-.3.5-.5.6-.2.1-.5.2-.7.1l-.6-.3c-.2-.2-.2-.4-.2-.7 1.8-16.6 4.4-33.1 7.8-49.4.1-.3.2-.5.4-.6.2-.1.5-.1.8 0 .3.1.5.2.6.4.2.2.2.5.2.8-1.4 6.8-2.6 13.6-3.8 20.3-1.1 6.8-2.1 13.6-3 20.5 1.1-2 2.2-3.9 3.6-5.6 1.3-1.7 2.9-3.4 4.5-4.9.3-.3.7-.4 1.1-.2.4.2.7.5.7.9.1 1.1.1 2.1.1 3.2s.1 2.1.1 3.2v3.5c.1.7.2 1.2.4 1.7s.6.7 1 .6c.4-.1.8-.2 1.1-.5.4-.3.8-.6 1.1-.9.4-.3.7-.7 1-1.1.3-.4.6-.7.9-.9 1.5-1.5 2.5-2.8 3.4-4.1z"/><path class="dst1" d="M73.2 59.6c.2-.3.4-.4.7-.4.3 0 .6 0 .8.2.2.1.4.3.5.6.1.2 0 .5-.1.8-.7 1.1-1.5 2-2.4 2.9-.9.9-1.9 1.8-2.8 2.6-1.1.9-2.2 1.9-3.4 2.7-1.2.9-2.5 1.4-4.1 1.6-1.1.2-2.1.1-3.1-.2-1-.3-1.9-.9-2.6-1.7-.8-.9-1.2-2-1.2-3.2 0-1.2.2-2.3.5-3.5.3-1 .6-2 1-3.1s.9-2.1 1.6-3.1c.6-1 1.4-1.9 2.2-2.7.8-.8 1.7-1.4 2.8-1.8.8-.3 1.5-.3 2.2 0 .7.3 1.1.9 1.3 1.8.2.9.1 2-.2 3.1-.4 1.1-.8 2.1-1.3 2.8-.8 1.4-1.9 2.5-3.3 3.2-1.4.7-2.7.6-4-.2-.2.5-.3 1.1-.4 1.6-.1.6-.2 1.1-.2 1.6s.1 1 .3 1.5c.2.5.6.9 1.1 1.2 1.1.7 2.2.9 3.3.6 1.2-.3 2.2-.7 3.1-1.3.9-.6 1.7-1.2 2.6-2 .8-.8 1.6-1.5 2.4-2.2.5-.5 1-1.1 1.5-1.6.3-.6.8-1.2 1.2-1.8zm-8.3-5.5c-.1-.6-.4-.9-.8-.8-.4.1-.9.4-1.4.8-.5.4-1 .8-1.4 1.3-.4.5-.7.9-.9 1.1-.6.9-1.2 2.1-1.7 3.3.7.6 1.4.8 2 .6.7-.2 1.3-.6 1.9-1.3.2-.3.5-.6.8-1 .3-.4.6-.9.8-1.3s.4-.9.6-1.4c.1-.5.2-.9.1-1.3z"/></g><g class="dst0"><path class="dst2" d="M59.9 38.3c-4.8.4-9.5.8-14.2 1.3-4.7.5-9.4 1.1-14.1 1.8-2 16.7-4.1 33.5-6.4 50.2-.1.3-.2.6-.4.8-.2.2-.5.3-.7.3s-.5-.1-.7-.3c-.2-.2-.3-.4-.2-.8 1.1-8.3 2.2-16.6 3.2-24.9 1.1-8.3 2.1-16.6 3.1-25-2.8.5-5.7 1-8.6 1.5-2.9.5-5.7 1-8.6 1.6-.3.1-.6.1-.8-.1-.2-.2-.4-.4-.4-.7-.1-.3-.1-.5 0-.8.1-.2.3-.4.6-.4 3.1-.6 6.2-1.2 9.2-1.7 3-.5 6.1-1 9.2-1.5.4-.2.7-.2.9-.2 4.8-.7 9.6-1.4 14.4-1.9 4.8-.5 9.6-1 14.4-1.3.3 0 .6.1.8.3.2.2.3.4.3.7 0 .3-.1.5-.3.8-.2.2-.4.3-.7.3z"/><path class="dst2" d="M57 59.6c.2-.3.5-.4.8-.4.3 0 .5 0 .8.2.2.1.4.3.5.6.1.3.1.5-.2.8-.7 1.1-1.5 2.1-2.4 3-.9 1-1.8 1.9-2.7 2.8-.7.6-1.5 1.3-2.4 1.9-.8.7-1.8.9-2.8.8-.6-.1-1.1-.2-1.4-.6-.3-.3-.6-.7-.7-1.2-.1-.4-.2-.9-.2-1.4v-1.5l-.2-7.3c-2.2 2.2-4.1 4.6-5.6 7.3-1.7 2.5-2.8 5.4-3.5 8.4-.1.3-.3.5-.5.6-.2.1-.5.2-.7.1l-.6-.3c-.2-.2-.2-.4-.2-.7 1.8-16.6 4.4-33.1 7.8-49.4.1-.3.2-.5.4-.6.2-.1.5-.1.8 0 .3.1.5.2.6.4.2.2.2.5.2.8-1.4 6.8-2.6 13.6-3.8 20.3-1.1 6.8-2.1 13.6-3 20.5 1.1-2 2.2-3.9 3.6-5.6 1.3-1.7 2.9-3.4 4.5-4.9.3-.3.7-.4 1.1-.2.4.2.7.5.7.9.1 1.1.1 2.1.1 3.2s.1 2.1.1 3.2v3.5c.1.7.2 1.2.4 1.7s.6.7 1 .6c.4-.1.8-.2 1.1-.5.4-.3.8-.6 1.1-.9.4-.3.7-.7 1-1.1.3-.4.6-.7.9-.9 1.5-1.5 2.5-2.8 3.4-4.1z"/><path class="dst2" d="M73.2 59.6c.2-.3.4-.4.7-.4.3 0 .6 0 .8.2.2.1.4.3.5.6.1.2 0 .5-.1.8-.7 1.1-1.5 2-2.4 2.9-.9.9-1.9 1.8-2.8 2.6-1.1.9-2.2 1.9-3.4 2.7-1.2.9-2.5 1.4-4.1 1.6-1.1.2-2.1.1-3.1-.2-1-.3-1.9-.9-2.6-1.7-.8-.9-1.2-2-1.2-3.2 0-1.2.2-2.3.5-3.5.3-1 .6-2 1-3.1s.9-2.1 1.6-3.1c.6-1 1.4-1.9 2.2-2.7.8-.8 1.7-1.4 2.8-1.8.8-.3 1.5-.3 2.2 0 .7.3 1.1.9 1.3 1.8.2.9.1 2-.2 3.1-.4 1.1-.8 2.1-1.3 2.8-.8 1.4-1.9 2.5-3.3 3.2-1.4.7-2.7.6-4-.2-.2.5-.3 1.1-.4 1.6-.1.6-.2 1.1-.2 1.6s.1 1 .3 1.5c.2.5.6.9 1.1 1.2 1.1.7 2.2.9 3.3.6 1.2-.3 2.2-.7 3.1-1.3.9-.6 1.7-1.2 2.6-2 .8-.8 1.6-1.5 2.4-2.2.5-.5 1-1.1 1.5-1.6.3-.6.8-1.2 1.2-1.8zm-8.3-5.5c-.1-.6-.4-.9-.8-.8-.4.1-.9.4-1.4.8-.5.4-1 .8-1.4 1.3-.4.5-.7.9-.9 1.1-.6.9-1.2 2.1-1.7 3.3.7.6 1.4.8 2 .6.7-.2 1.3-.6 1.9-1.3.2-.3.5-.6.8-1 .3-.4.6-.9.8-1.3s.4-.9.6-1.4c.1-.5.2-.9.1-1.3z"/></g><g class="dst0"><path class="dst1" d="M132.3 59.1c.3-.1.6 0 .8.2.2.2.4.4.4.6.1.2.1.5 0 .8-.1.3-.3.4-.6.5-1.5.4-3.1.9-4.6 1.5-1.5.6-3.1 1.2-4.6 1.9-1.8 4.3-4.1 8.4-6.9 12.4-.7 1.1-1.5 2.1-2.3 3.1s-1.7 2-2.6 2.8c-.3.3-.7.6-1.1.9-.4.3-.8.6-1.3.9-.4.2-.9.4-1.4.4-.5.1-.9-.1-1.3-.3-.9-.5-1.4-1.3-1.7-2.2-.2-.9-.2-1.9 0-2.9s.6-2 1-2.9c.5-.9.9-1.7 1.4-2.3 1.8-2.4 4-4.6 6.5-6.5 2.5-1.9 5.2-3.6 8-5 1.3-3.1 2.3-6.2 3.1-9.4.8-3.2 1.2-6.4 1.3-9.7v-2c0-.9 0-1.8-.2-2.6s-.4-1.5-.8-1.9c-.4-.4-.9-.4-1.7 0-.8.5-1.6 1.1-2.3 1.7-.7.7-1.4 1.4-2 2.1-1.4 1.5-2.6 3.1-3.8 4.9-1.1 1.7-2.2 3.5-3.1 5.3-2.2 4.1-4.2 8.3-6.1 12.5-1.8 4.2-3.6 8.5-5.3 12.8l-.2.3c-.1.2-.2.3-.2.5s-.1.4-.1.5c-.1.3-.3.5-.6.7-.3.1-.5.2-.8.1-.3-.1-.5-.2-.6-.5-.2-.2-.2-.5-.1-.8 1.4-4.5 2.3-9 2.9-13.7.6-4.7.6-9.3.2-14-.1-.9-.2-2-.3-3.1-.1-1.1-.5-2.1-1.1-2.8-.5-.6-1-.9-1.6-.9-.6 0-1.2.2-1.7.5-.6.3-1.1.7-1.6 1.2s-.9.9-1.2 1.3c-1.5 1.6-2.7 3.4-3.6 5.3-.9 1.9-1.5 3.9-1.9 6-.1.3-.3.5-.5.7-.2.1-.5.2-.7.1s-.4-.2-.6-.5c-.2-.2-.2-.5-.2-.8.5-2.5 1.3-4.8 2.4-7.1 1.1-2.3 2.6-4.3 4.5-6.1.7-.7 1.6-1.4 2.6-2 1-.6 2.1-.8 3.2-.6.9.2 1.6.5 2.2 1.1.6.6 1 1.3 1.3 2.2.5 1.1.8 2.3.8 3.6.1 1.3.2 2.5.3 3.8.1 1.5.1 3 .1 4.5s-.1 3-.2 4.5c-.1 1.7-.2 3.4-.5 5.1.6-1.4 1.2-2.7 1.7-4 .6-1.3 1.2-2.6 1.8-4l3.9-7.8c1.3-2.6 2.9-5.1 4.7-7.4.8-1.1 1.6-2.1 2.5-3 .9-1 1.9-1.9 2.9-2.7.6-.6 1.3-1.1 2.1-1.6s1.6-.7 2.5-.6c1 .2 1.7.6 2 1.5.3.8.5 1.6.6 2.5.2 1.5.3 2.9.3 4.4 0 1.4-.1 2.9-.3 4.5-.3 2.4-.7 4.7-1.3 7.1-.6 2.3-1.3 4.7-2.2 7 1.2-.5 2.4-1 3.7-1.4 1.6-.5 2.9-.9 4.1-1.2zm-13.1 10c.3-.5.5-1 .8-1.5.3-.5.5-1 .8-1.5-2.1 1.2-4.1 2.6-6 4.1-1.9 1.5-3.6 3.2-5.1 5.1-.6.8-1.2 1.7-1.8 2.7-.6 1-.8 2-.7 3.1.1.9.3 1.5.7 1.6.4.1.8 0 1.3-.2.5-.3 1-.6 1.5-1.1l1.2-1.2c1.5-1.6 2.8-3.4 4-5.2s2.2-4 3.3-5.9z"/><path class="dst1" d="M146 61.2c-1 .4-2 .8-3 1.1-1 .3-2.1.6-3.1.7-.2 1.4-.5 3-1 4.6-.4 1.7-1.2 3-2.3 4.1-.9.9-2 1.2-3.1.8-1.1-.4-2-1.1-2.5-2.2-.3-.7-.5-1.4-.6-2.3-.1-.8-.1-1.7.1-2.6.1-.9.3-1.7.6-2.5.2-.8.5-1.6.8-2.2.2-.4.5-.6.9-.6-.5-.8-.8-1.7-.9-2.7-.1-.5-.1-1.1 0-1.8s.2-1.3.4-1.9c.2-.6.5-1.2.9-1.7s.9-.9 1.5-1.1c1.1-.5 2-.4 2.8.3.8.7 1.4 1.5 1.7 2.4.4 1.2.7 2.4.8 3.7.1 1.3.1 2.5 0 3.8 1-.1 2-.3 2.9-.7.9-.3 1.8-.7 2.5-1 .3-.2.6-.2.8 0 .2.2.3.4.4.6.1.2 0 .5 0 .8-.1.1-.3.3-.6.4zm-9.4 6.2c.5-1.4.9-2.9 1.2-4.5-.5 0-.9-.1-1.3-.2-.5-.2-1-.4-1.4-.6-.4-.3-.8-.6-1.3-.9-.4.9-.8 1.9-1 2.9-.2 1-.4 2-.4 3.1 0 .3 0 .6.1 1.1.1.5.2 1 .4 1.4.2.4.4.7.8.9.3.2.8 0 1.3-.4.4-.3.7-.7.9-1.3.3-.6.5-1.1.7-1.5zm-2-13.9c-.6.7-.8 1.7-.8 2.8.1 1.1.3 2.1.8 2.8.4.6.9 1 1.5 1.3.6.3 1.2.5 1.8.6.1-1.5 0-3.1-.2-4.6-.1-.3-.2-.8-.3-1.3-.2-.6-.4-1.1-.6-1.5-.2-.4-.5-.7-.9-.8-.4-.2-.8 0-1.3.7z"/><path class="dst1" d="M175.7 59.5c.2-.3.4-.4.6-.4.3 0 .5 0 .8.2.2.1.4.3.5.6.1.2.1.5-.1.8-.8 1.5-1.8 3.1-3 4.9-1.1 1.7-2.5 3-4 4-.6.4-1.2.6-1.8.6s-1.1-.2-1.6-.5-.9-.8-1.2-1.3c-.3-.6-.5-1.2-.6-1.9-.2-1.1-.3-2.1-.3-3.3-.1-1.1-.1-2.3-.2-3.4-.1-.6-.1-1.2-.1-1.7s-.1-1.2-.2-1.7V56v-.4c0-.5-.1-.6-.2-.2-.1 0-.2.1-.3.2-.2.1-.3.2-.5.4l-.6.6c-.7.7-1.4 1.4-1.9 2.3-.5.8-1 1.7-1.5 2.6-.4.9-.9 1.8-1.3 2.7-.4.9-1 1.8-1.5 2.6-.3.4-.6.6-1.1.5-.5-.1-.7-.4-.7-.9.1-1.6.1-3.2.1-4.7 0-1.6 0-3.1.1-4.7-.7.9-1.3 2-1.8 3.1-.4 1.1-.9 2.3-1.3 3.5-.4 1.2-.9 2.3-1.5 3.4s-1.3 2.1-2.2 2.9c-.4.3-.7.3-1.1.2-.4-.2-.6-.5-.7-.9-.2-1.7-.4-3.4-.6-5-.2-1.7-.2-3.3-.2-5 0-.3.1-.6.3-.8.2-.2.4-.3.7-.3.3 0 .5.1.7.3.2.2.3.4.3.8 0 2.6.2 5.2.5 7.7.8-1 1.4-2.1 1.8-3.3.4-1.2.9-2.4 1.3-3.6.4-1.2 1-2.3 1.6-3.4.6-1.1 1.5-2.1 2.6-2.8.3-.3.7-.3 1 0 .4.2.5.5.5.9-.1 1.3-.1 2.6-.1 3.9 0 1.3 0 2.6-.1 3.9.6-1.1 1.1-2.1 1.7-3.2.6-1.1 1.2-2.1 2-3 .3-.3.7-.7 1.2-1.1.5-.4 1.1-.8 1.7-1.1.6-.3 1.1-.4 1.7-.4.5 0 .9.4 1.3 1 .4.8.6 1.7.6 2.8 0 1.1.1 2 .2 2.8.1 1.1.2 2.1.2 3.2s.1 2.1.3 3.2c.1.4.3.9.5 1.3s.7.5 1.4.3c.2-.1.4-.2.6-.4l.6-.6c.4-.4.7-.8 1.1-1.1.3-.4.7-.8 1-1.2.6-.7 1.1-1.5 1.7-2.3.1-1.5.6-2.3 1.1-3.2z"/><path class="dst1" d="M188.4 59.1c.3-.1.6-.1.8.1.2.2.4.4.5.6.1.3.1.5-.1.8-.1.3-.4.4-.7.6-1.5.4-2.9 1.1-4.3 1.9-1.3.8-2.6 1.8-3.9 2.8.5.4.9.9 1.2 1.5.4.9.4 1.9.2 2.9s-.6 1.9-1.2 2.7c-.6.8-1.3 1.5-2.2 2.1s-1.8.9-2.7.9c-.9.1-1.7-.1-2.5-.6-.8-.4-1.3-1.1-1.6-2-.2-.6-.2-1.1-.1-1.7.2-.5.4-1 .8-1.4.3-.4.7-.8 1.1-1.2.4-.4.8-.8 1.3-1.1.4-.4.8-.7 1.2-1 .4-.3.8-.7 1.2-1-.1-.1-.2-.2-.4-.3-.5-.5-.9-1-1.3-1.5-.3-.6-.5-1.2-.6-1.9-.1-1.6.4-3.2 1.3-4.7s2-2.7 3.2-3.7c.3-.2.5-.3.8-.2.3.1.5.2.7.4.2.2.3.4.3.7 0 .2-.1.5-.4.7-.5.4-1 .9-1.6 1.5-.6.6-1.1 1.3-1.5 2.1-.4.7-.7 1.5-.9 2.3-.1.8 0 1.5.4 2.1.3.4.7.9 1.3 1.3 1.4-1.2 2.9-2.2 4.5-3.2 1.9-1.2 3.5-1.9 5.2-2.5zm-8.1 10.5c.1-.6.1-1.1-.2-1.5-.2-.4-.5-.8-.9-1.1-.2.2-.4.3-.6.5s-.4.4-.6.5c-.3.3-.8.6-1.4 1.1-.6.5-1.2 1-1.7 1.6-.5.6-.8 1.1-.8 1.7-.1.5.3.9 1.2 1.1.5.2 1.1.1 1.6-.1.6-.2 1.1-.5 1.5-.9.5-.4.9-.9 1.1-1.5.5-.4.7-.9.8-1.4z"/><path class="dst1" d="M201.5 46.6c-1.6.1-3.3.2-4.9.3-1.6.1-3.2.2-4.9.3-1.1 7.5-1.8 14.9-2.4 22.3-.5 7.4-.8 14.9-.9 22.4 0 .3-.1.6-.3.8-.2.2-.4.3-.7.3-.3 0-.5-.1-.7-.3-.2-.2-.3-.4-.3-.8.1-7.5.4-15 .9-22.4.5-7.4 1.3-14.8 2.2-22.2-.9.1-1.7.1-2.6.2-.8.1-1.7.1-2.6.2-.3 0-.6-.1-.8-.3-.2-.2-.3-.4-.3-.7s.1-.5.3-.8c.2-.2.4-.4.8-.4.9-.1 1.8-.2 2.7-.2.9 0 1.8-.1 2.7-.2l.9-5.7c.3-1.9.7-3.8 1-5.7.1-.3.2-.5.4-.7.2-.1.5-.2.7-.1.2.1.4.2.6.5.2.2.2.5.2.8l-.9 5.4c-.3 1.8-.6 3.6-.8 5.4 1.6-.1 3.2-.2 4.7-.3 1.6-.1 3.1-.2 4.7-.3.3 0 .6.1.8.3.2.2.3.4.3.7 0 .3-.1.5-.3.8.1.3-.2.4-.5.4z"/><path class="dst1" d="M211.7 59.6c.2-.3.4-.4.7-.4.3 0 .6 0 .8.2.2.1.4.3.5.6.1.2 0 .5-.1.8-.7 1.1-1.5 2-2.4 2.9-.9.9-1.9 1.8-2.8 2.6-1.1.9-2.2 1.9-3.4 2.7-1.2.9-2.5 1.4-4.1 1.6-1.1.2-2.1.1-3.1-.2-1-.3-1.9-.9-2.6-1.7-.8-.9-1.2-2-1.2-3.2 0-1.2.2-2.3.5-3.5.3-1 .6-2 1-3.1s.9-2.1 1.6-3.1c.6-1 1.4-1.9 2.2-2.7.8-.8 1.7-1.4 2.8-1.8.8-.3 1.5-.3 2.2 0 .7.3 1.1.9 1.3 1.8.2.9.1 2-.2 3.1-.4 1.1-.8 2.1-1.3 2.8-.8 1.4-1.9 2.5-3.3 3.2-1.4.7-2.7.6-4-.2-.2.5-.3 1.1-.4 1.6-.1.6-.2 1.1-.2 1.6s.1 1 .3 1.5c.2.5.6.9 1.1 1.2 1.1.7 2.2.9 3.3.6 1.2-.3 2.2-.7 3.1-1.3.9-.6 1.7-1.2 2.6-2 .8-.8 1.6-1.5 2.4-2.2.5-.5 1-1.1 1.5-1.6.3-.6.8-1.2 1.2-1.8zm-8.3-5.5c-.1-.6-.4-.9-.8-.8-.4.1-.9.4-1.4.8-.5.4-1 .8-1.4 1.3-.4.5-.7.9-.9 1.1-.6.9-1.2 2.1-1.7 3.3.7.6 1.4.8 2 .6.7-.2 1.3-.6 1.9-1.3.2-.3.5-.6.8-1 .3-.4.6-.9.8-1.3.2-.5.4-.9.6-1.4.1-.5.2-.9.1-1.3z"/><path class="dst1" d="M226.3 55c.2.2.3.5.3.8 0 .3-.1.5-.3.7-.2.2-.4.3-.6.4-.3.1-.5 0-.7-.2-.8-.8-1.6-1.3-2.3-1.5-.7-.2-1.3-.2-1.9.1-.6.2-1.2.7-1.7 1.3-.6.6-1.2 1.3-1.7 2.2-1.2 1.7-2.2 3.5-3 5.6-.8 2-1.3 4.1-1.3 6.2 0 .3-.1.6-.3.8-.2.2-.4.3-.7.3-.3 0-.5-.1-.8-.3-.2-.2-.4-.4-.4-.8-.1-4.5.3-9.1.9-13.7.1-.3.2-.5.4-.6.2-.1.5-.1.8 0 .3.1.5.2.7.4.2.2.2.5.2.8-.1.6-.2 1.3-.3 1.9-.1.6-.2 1.3-.3 1.9.4-.7.9-1.5 1.3-2.2.4-.7.9-1.4 1.4-2.1 1.4-1.8 2.9-3 4.7-3.5 1.9-.7 3.8-.2 5.6 1.5z"/><path class="dst1" d="M233.9 59.1c.3-.1.6-.1.8.1.2.2.4.4.5.6.1.3.1.5-.1.8-.1.3-.4.4-.7.6-1.5.4-2.9 1.1-4.3 1.9-1.3.8-2.6 1.8-3.9 2.8.5.4.9.9 1.2 1.5.4.9.4 1.9.2 2.9s-.6 1.9-1.2 2.7c-.6.8-1.3 1.5-2.2 2.1-.9.6-1.8.9-2.7.9-.9.1-1.7-.1-2.5-.6-.8-.4-1.3-1.1-1.6-2-.2-.6-.2-1.1-.1-1.7.2-.5.4-1 .8-1.4.3-.4.7-.8 1.1-1.2.4-.4.8-.8 1.3-1.1.4-.4.8-.7 1.2-1 .4-.3.8-.7 1.2-1-.1-.1-.2-.2-.4-.3-.5-.5-.9-1-1.3-1.5-.3-.6-.5-1.2-.6-1.9-.1-1.6.4-3.2 1.3-4.7s2-2.7 3.2-3.7c.3-.2.5-.3.8-.2.3.1.5.2.7.4.2.2.3.4.3.7 0 .2-.1.5-.4.7-.5.4-1 .9-1.6 1.5s-1.1 1.3-1.5 2.1c-.4.7-.7 1.5-.9 2.3-.1.8 0 1.5.4 2.1.3.4.7.9 1.3 1.3 1.4-1.2 2.9-2.2 4.5-3.2 1.9-1.2 3.5-1.9 5.2-2.5zm-8.2 10.5c.1-.6.1-1.1-.2-1.5-.2-.4-.5-.8-.9-1.1-.2.2-.4.3-.6.5-.2.2-.4.4-.6.5-.3.3-.8.6-1.4 1.1-.6.5-1.2 1-1.7 1.6-.5.6-.8 1.1-.8 1.7-.1.5.3.9 1.2 1.1.5.2 1.1.1 1.6-.1.6-.2 1.1-.5 1.5-.9.5-.4.9-.9 1.1-1.5.5-.4.7-.9.8-1.4z"/></g><g class="dst0"><path class="dst2" d="M132.3 59.1c.3-.1.6 0 .8.2.2.2.4.4.4.6.1.2.1.5 0 .8-.1.3-.3.4-.6.5-1.5.4-3.1.9-4.6 1.5-1.5.6-3.1 1.2-4.6 1.9-1.8 4.3-4.1 8.4-6.9 12.4-.7 1.1-1.5 2.1-2.3 3.1s-1.7 2-2.6 2.8c-.3.3-.7.6-1.1.9-.4.3-.8.6-1.3.9-.4.2-.9.4-1.4.4-.5.1-.9-.1-1.3-.3-.9-.5-1.4-1.3-1.7-2.2-.2-.9-.2-1.9 0-2.9s.6-2 1-2.9c.5-.9.9-1.7 1.4-2.3 1.8-2.4 4-4.6 6.5-6.5 2.5-1.9 5.2-3.6 8-5 1.3-3.1 2.3-6.2 3.1-9.4.8-3.2 1.2-6.4 1.3-9.7v-2c0-.9 0-1.8-.2-2.6s-.4-1.5-.8-1.9c-.4-.4-.9-.4-1.7 0-.8.5-1.6 1.1-2.3 1.7-.7.7-1.4 1.4-2 2.1-1.4 1.5-2.6 3.1-3.8 4.9-1.1 1.7-2.2 3.5-3.1 5.3-2.2 4.1-4.2 8.3-6.1 12.5-1.8 4.2-3.6 8.5-5.3 12.8l-.2.3c-.1.2-.2.3-.2.5s-.1.4-.1.5c-.1.3-.3.5-.6.7-.3.1-.5.2-.8.1-.3-.1-.5-.2-.6-.5-.2-.2-.2-.5-.1-.8 1.4-4.5 2.3-9 2.9-13.7.6-4.7.6-9.3.2-14-.1-.9-.2-2-.3-3.1-.1-1.1-.5-2.1-1.1-2.8-.5-.6-1-.9-1.6-.9-.6 0-1.2.2-1.7.5-.6.3-1.1.7-1.6 1.2s-.9.9-1.2 1.3c-1.5 1.6-2.7 3.4-3.6 5.3-.9 1.9-1.5 3.9-1.9 6-.1.3-.3.5-.5.7-.2.1-.5.2-.7.1s-.4-.2-.6-.5c-.2-.2-.2-.5-.2-.8.5-2.5 1.3-4.8 2.4-7.1 1.1-2.3 2.6-4.3 4.5-6.1.7-.7 1.6-1.4 2.6-2 1-.6 2.1-.8 3.2-.6.9.2 1.6.5 2.2 1.1.6.6 1 1.3 1.3 2.2.5 1.1.8 2.3.8 3.6.1 1.3.2 2.5.3 3.8.1 1.5.1 3 .1 4.5s-.1 3-.2 4.5c-.1 1.7-.2 3.4-.5 5.1.6-1.4 1.2-2.7 1.7-4 .6-1.3 1.2-2.6 1.8-4l3.9-7.8c1.3-2.6 2.9-5.1 4.7-7.4.8-1.1 1.6-2.1 2.5-3 .9-1 1.9-1.9 2.9-2.7.6-.6 1.3-1.1 2.1-1.6s1.6-.7 2.5-.6c1 .2 1.7.6 2 1.5.3.8.5 1.6.6 2.5.2 1.5.3 2.9.3 4.4 0 1.4-.1 2.9-.3 4.5-.3 2.4-.7 4.7-1.3 7.1-.6 2.3-1.3 4.7-2.2 7 1.2-.5 2.4-1 3.7-1.4 1.6-.5 2.9-.9 4.1-1.2zm-13.1 10c.3-.5.5-1 .8-1.5.3-.5.5-1 .8-1.5-2.1 1.2-4.1 2.6-6 4.1-1.9 1.5-3.6 3.2-5.1 5.1-.6.8-1.2 1.7-1.8 2.7-.6 1-.8 2-.7 3.1.1.9.3 1.5.7 1.6.4.1.8 0 1.3-.2.5-.3 1-.6 1.5-1.1l1.2-1.2c1.5-1.6 2.8-3.4 4-5.2s2.2-4 3.3-5.9z"/><path class="dst2" d="M146 61.2c-1 .4-2 .8-3 1.1-1 .3-2.1.6-3.1.7-.2 1.4-.5 3-1 4.6-.4 1.7-1.2 3-2.3 4.1-.9.9-2 1.2-3.1.8-1.1-.4-2-1.1-2.5-2.2-.3-.7-.5-1.4-.6-2.3-.1-.8-.1-1.7.1-2.6.1-.9.3-1.7.6-2.5.2-.8.5-1.6.8-2.2.2-.4.5-.6.9-.6-.5-.8-.8-1.7-.9-2.7-.1-.5-.1-1.1 0-1.8s.2-1.3.4-1.9c.2-.6.5-1.2.9-1.7s.9-.9 1.5-1.1c1.1-.5 2-.4 2.8.3.8.7 1.4 1.5 1.7 2.4.4 1.2.7 2.4.8 3.7.1 1.3.1 2.5 0 3.8 1-.1 2-.3 2.9-.7.9-.3 1.8-.7 2.5-1 .3-.2.6-.2.8 0 .2.2.3.4.4.6.1.2 0 .5 0 .8-.1.1-.3.3-.6.4zm-9.4 6.2c.5-1.4.9-2.9 1.2-4.5-.5 0-.9-.1-1.3-.2-.5-.2-1-.4-1.4-.6-.4-.3-.8-.6-1.3-.9-.4.9-.8 1.9-1 2.9-.2 1-.4 2-.4 3.1 0 .3 0 .6.1 1.1.1.5.2 1 .4 1.4.2.4.4.7.8.9.3.2.8 0 1.3-.4.4-.3.7-.7.9-1.3.3-.6.5-1.1.7-1.5zm-2-13.9c-.6.7-.8 1.7-.8 2.8.1 1.1.3 2.1.8 2.8.4.6.9 1 1.5 1.3.6.3 1.2.5 1.8.6.1-1.5 0-3.1-.2-4.6-.1-.3-.2-.8-.3-1.3-.2-.6-.4-1.1-.6-1.5-.2-.4-.5-.7-.9-.8-.4-.2-.8 0-1.3.7z"/><path class="dst2" d="M175.7 59.5c.2-.3.4-.4.6-.4.3 0 .5 0 .8.2.2.1.4.3.5.6.1.2.1.5-.1.8-.8 1.5-1.8 3.1-3 4.9-1.1 1.7-2.5 3-4 4-.6.4-1.2.6-1.8.6s-1.1-.2-1.6-.5-.9-.8-1.2-1.3c-.3-.6-.5-1.2-.6-1.9-.2-1.1-.3-2.1-.3-3.3-.1-1.1-.1-2.3-.2-3.4-.1-.6-.1-1.2-.1-1.7s-.1-1.2-.2-1.7V56v-.4c0-.5-.1-.6-.2-.2-.1 0-.2.1-.3.2-.2.1-.3.2-.5.4l-.6.6c-.7.7-1.4 1.4-1.9 2.3-.5.8-1 1.7-1.5 2.6-.4.9-.9 1.8-1.3 2.7-.4.9-1 1.8-1.5 2.6-.3.4-.6.6-1.1.5-.5-.1-.7-.4-.7-.9.1-1.6.1-3.2.1-4.7 0-1.6 0-3.1.1-4.7-.7.9-1.3 2-1.8 3.1-.4 1.1-.9 2.3-1.3 3.5-.4 1.2-.9 2.3-1.5 3.4s-1.3 2.1-2.2 2.9c-.4.3-.7.3-1.1.2-.4-.2-.6-.5-.7-.9-.2-1.7-.4-3.4-.6-5-.2-1.7-.2-3.3-.2-5 0-.3.1-.6.3-.8.2-.2.4-.3.7-.3.3 0 .5.1.7.3.2.2.3.4.3.8 0 2.6.2 5.2.5 7.7.8-1 1.4-2.1 1.8-3.3.4-1.2.9-2.4 1.3-3.6.4-1.2 1-2.3 1.6-3.4.6-1.1 1.5-2.1 2.6-2.8.3-.3.7-.3 1 0 .4.2.5.5.5.9-.1 1.3-.1 2.6-.1 3.9 0 1.3 0 2.6-.1 3.9.6-1.1 1.1-2.1 1.7-3.2.6-1.1 1.2-2.1 2-3 .3-.3.7-.7 1.2-1.1.5-.4 1.1-.8 1.7-1.1.6-.3 1.1-.4 1.7-.4.5 0 .9.4 1.3 1 .4.8.6 1.7.6 2.8 0 1.1.1 2 .2 2.8.1 1.1.2 2.1.2 3.2s.1 2.1.3 3.2c.1.4.3.9.5 1.3s.7.5 1.4.3c.2-.1.4-.2.6-.4l.6-.6c.4-.4.7-.8 1.1-1.1.3-.4.7-.8 1-1.2.6-.7 1.1-1.5 1.7-2.3.1-1.5.6-2.3 1.1-3.2z"/><path class="dst2" d="M188.4 59.1c.3-.1.6-.1.8.1.2.2.4.4.5.6.1.3.1.5-.1.8-.1.3-.4.4-.7.6-1.5.4-2.9 1.1-4.3 1.9-1.3.8-2.6 1.8-3.9 2.8.5.4.9.9 1.2 1.5.4.9.4 1.9.2 2.9s-.6 1.9-1.2 2.7c-.6.8-1.3 1.5-2.2 2.1s-1.8.9-2.7.9c-.9.1-1.7-.1-2.5-.6-.8-.4-1.3-1.1-1.6-2-.2-.6-.2-1.1-.1-1.7.2-.5.4-1 .8-1.4.3-.4.7-.8 1.1-1.2.4-.4.8-.8 1.3-1.1.4-.4.8-.7 1.2-1 .4-.3.8-.7 1.2-1-.1-.1-.2-.2-.4-.3-.5-.5-.9-1-1.3-1.5-.3-.6-.5-1.2-.6-1.9-.1-1.6.4-3.2 1.3-4.7s2-2.7 3.2-3.7c.3-.2.5-.3.8-.2.3.1.5.2.7.4.2.2.3.4.3.7 0 .2-.1.5-.4.7-.5.4-1 .9-1.6 1.5-.6.6-1.1 1.3-1.5 2.1-.4.7-.7 1.5-.9 2.3-.1.8 0 1.5.4 2.1.3.4.7.9 1.3 1.3 1.4-1.2 2.9-2.2 4.5-3.2 1.9-1.2 3.5-1.9 5.2-2.5zm-8.1 10.5c.1-.6.1-1.1-.2-1.5-.2-.4-.5-.8-.9-1.1-.2.2-.4.3-.6.5s-.4.4-.6.5c-.3.3-.8.6-1.4 1.1-.6.5-1.2 1-1.7 1.6-.5.6-.8 1.1-.8 1.7-.1.5.3.9 1.2 1.1.5.2 1.1.1 1.6-.1.6-.2 1.1-.5 1.5-.9.5-.4.9-.9 1.1-1.5.5-.4.7-.9.8-1.4z"/><path class="dst2" d="M201.5 46.6c-1.6.1-3.3.2-4.9.3-1.6.1-3.2.2-4.9.3-1.1 7.5-1.8 14.9-2.4 22.3-.5 7.4-.8 14.9-.9 22.4 0 .3-.1.6-.3.8-.2.2-.4.3-.7.3-.3 0-.5-.1-.7-.3-.2-.2-.3-.4-.3-.8.1-7.5.4-15 .9-22.4.5-7.4 1.3-14.8 2.2-22.2-.9.1-1.7.1-2.6.2-.8.1-1.7.1-2.6.2-.3 0-.6-.1-.8-.3-.2-.2-.3-.4-.3-.7s.1-.5.3-.8c.2-.2.4-.4.8-.4.9-.1 1.8-.2 2.7-.2.9 0 1.8-.1 2.7-.2l.9-5.7c.3-1.9.7-3.8 1-5.7.1-.3.2-.5.4-.7.2-.1.5-.2.7-.1.2.1.4.2.6.5.2.2.2.5.2.8l-.9 5.4c-.3 1.8-.6 3.6-.8 5.4 1.6-.1 3.2-.2 4.7-.3 1.6-.1 3.1-.2 4.7-.3.3 0 .6.1.8.3.2.2.3.4.3.7 0 .3-.1.5-.3.8.1.3-.2.4-.5.4z"/><path class="dst2" d="M211.7 59.6c.2-.3.4-.4.7-.4.3 0 .6 0 .8.2.2.1.4.3.5.6.1.2 0 .5-.1.8-.7 1.1-1.5 2-2.4 2.9-.9.9-1.9 1.8-2.8 2.6-1.1.9-2.2 1.9-3.4 2.7-1.2.9-2.5 1.4-4.1 1.6-1.1.2-2.1.1-3.1-.2-1-.3-1.9-.9-2.6-1.7-.8-.9-1.2-2-1.2-3.2 0-1.2.2-2.3.5-3.5.3-1 .6-2 1-3.1s.9-2.1 1.6-3.1c.6-1 1.4-1.9 2.2-2.7.8-.8 1.7-1.4 2.8-1.8.8-.3 1.5-.3 2.2 0 .7.3 1.1.9 1.3 1.8.2.9.1 2-.2 3.1-.4 1.1-.8 2.1-1.3 2.8-.8 1.4-1.9 2.5-3.3 3.2-1.4.7-2.7.6-4-.2-.2.5-.3 1.1-.4 1.6-.1.6-.2 1.1-.2 1.6s.1 1 .3 1.5c.2.5.6.9 1.1 1.2 1.1.7 2.2.9 3.3.6 1.2-.3 2.2-.7 3.1-1.3.9-.6 1.7-1.2 2.6-2 .8-.8 1.6-1.5 2.4-2.2.5-.5 1-1.1 1.5-1.6.3-.6.8-1.2 1.2-1.8zm-8.3-5.5c-.1-.6-.4-.9-.8-.8-.4.1-.9.4-1.4.8-.5.4-1 .8-1.4 1.3-.4.5-.7.9-.9 1.1-.6.9-1.2 2.1-1.7 3.3.7.6 1.4.8 2 .6.7-.2 1.3-.6 1.9-1.3.2-.3.5-.6.8-1 .3-.4.6-.9.8-1.3.2-.5.4-.9.6-1.4.1-.5.2-.9.1-1.3z"/><path class="dst2" d="M226.3 55c.2.2.3.5.3.8 0 .3-.1.5-.3.7-.2.2-.4.3-.6.4-.3.1-.5 0-.7-.2-.8-.8-1.6-1.3-2.3-1.5-.7-.2-1.3-.2-1.9.1-.6.2-1.2.7-1.7 1.3-.6.6-1.2 1.3-1.7 2.2-1.2 1.7-2.2 3.5-3 5.6-.8 2-1.3 4.1-1.3 6.2 0 .3-.1.6-.3.8-.2.2-.4.3-.7.3-.3 0-.5-.1-.8-.3-.2-.2-.4-.4-.4-.8-.1-4.5.3-9.1.9-13.7.1-.3.2-.5.4-.6.2-.1.5-.1.8 0 .3.1.5.2.7.4.2.2.2.5.2.8-.1.6-.2 1.3-.3 1.9-.1.6-.2 1.3-.3 1.9.4-.7.9-1.5 1.3-2.2.4-.7.9-1.4 1.4-2.1 1.4-1.8 2.9-3 4.7-3.5 1.9-.7 3.8-.2 5.6 1.5z"/><path class="dst2" d="M233.9 59.1c.3-.1.6-.1.8.1.2.2.4.4.5.6.1.3.1.5-.1.8-.1.3-.4.4-.7.6-1.5.4-2.9 1.1-4.3 1.9-1.3.8-2.6 1.8-3.9 2.8.5.4.9.9 1.2 1.5.4.9.4 1.9.2 2.9s-.6 1.9-1.2 2.7c-.6.8-1.3 1.5-2.2 2.1-.9.6-1.8.9-2.7.9-.9.1-1.7-.1-2.5-.6-.8-.4-1.3-1.1-1.6-2-.2-.6-.2-1.1-.1-1.7.2-.5.4-1 .8-1.4.3-.4.7-.8 1.1-1.2.4-.4.8-.8 1.3-1.1.4-.4.8-.7 1.2-1 .4-.3.8-.7 1.2-1-.1-.1-.2-.2-.4-.3-.5-.5-.9-1-1.3-1.5-.3-.6-.5-1.2-.6-1.9-.1-1.6.4-3.2 1.3-4.7s2-2.7 3.2-3.7c.3-.2.5-.3.8-.2.3.1.5.2.7.4.2.2.3.4.3.7 0 .2-.1.5-.4.7-.5.4-1 .9-1.6 1.5s-1.1 1.3-1.5 2.1c-.4.7-.7 1.5-.9 2.3-.1.8 0 1.5.4 2.1.3.4.7.9 1.3 1.3 1.4-1.2 2.9-2.2 4.5-3.2 1.9-1.2 3.5-1.9 5.2-2.5zm-8.2 10.5c.1-.6.1-1.1-.2-1.5-.2-.4-.5-.8-.9-1.1-.2.2-.4.3-.6.5-.2.2-.4.4-.6.5-.3.3-.8.6-1.4 1.1-.6.5-1.2 1-1.7 1.6-.5.6-.8 1.1-.8 1.7-.1.5.3.9 1.2 1.1.5.2 1.1.1 1.6-.1.6-.2 1.1-.5 1.5-.9.5-.4.9-.9 1.1-1.5.5-.4.7-.9.8-1.4z"/></g><g class="dst0"><path d="M63 30.5h.8c.7 0 1.3-.3 1.3-1.4V18h2.3v11c0 2.9-1.6 3.7-3.3 3.7H63v-2.2zM76.4 32.6H74l-.4-2.6h-2.8l-.4 2.6h-2.1L70.7 18H74l2.4 14.6zM71.1 28h2.2l-1.1-7.4-1.1 7.4zM78.5 27.8L75.6 18H78l1.7 6.6 1.7-6.6h2.2l-2.9 9.7v4.8h-2.3v-4.7zM90.9 17.9c2.2 0 3.4 1.3 3.4 3.7v.4h-2.2v-.6c0-1-.4-1.4-1.1-1.4-.7 0-1.1.4-1.1 1.4 0 1.1.5 1.9 2 3.2 1.9 1.7 2.5 2.9 2.5 4.6 0 2.3-1.2 3.7-3.4 3.7s-3.4-1.3-3.4-3.7v-.9h2.2v1c0 1 .5 1.4 1.2 1.4s1.2-.4 1.2-1.4c0-1.1-.5-1.9-2-3.2-1.9-1.7-2.5-2.9-2.5-4.6-.1-2.3 1-3.6 3.2-3.6zM98.6 26.8l-.7 1.3v4.5h-2.3V18h2.3v6.3l3-6.3h2.3l-3.2 6.5 3.2 8.1h-2.4l-2.2-5.8zM109 32.6c-.1-.4-.2-.6-.2-1.8v-2.3c0-1.4-.5-1.9-1.5-1.9h-.8v5.9h-2.3V18h3.5c2.4 0 3.4 1.1 3.4 3.3v1.1c0 1.5-.5 2.5-1.5 2.9 1.1.5 1.5 1.6 1.5 3.1v2.2c0 .7 0 1.2.2 1.8H109zm-2.5-12.5v4.5h.9c.9 0 1.4-.4 1.4-1.5v-1.4c0-1-.4-1.5-1.2-1.5h-1.1zM112.6 18h2.3v14.6h-2.3V18zM123.3 21.6v1.9c0 2.3-1.1 3.6-3.4 3.6h-1.1v5.5h-2.3V18h3.4c2.3 0 3.4 1.3 3.4 3.6zm-4.4-1.5V25h1.1c.7 0 1.1-.3 1.1-1.4v-2.2c0-1-.4-1.4-1.1-1.4h-1.1zM123.7 18h7.1v2.1h-2.4v12.5h-2.3V20.1h-2.4V18z"/></g><path d="M155.1 24.7c0 1.3-.9 2.8-2.3 3.6.6 1.3 1.5 2.6 2.5 3.9 0-2.7 1.2-5.5 4.1-5.5 1.8 0 3.1 1.2 3.1 2.8 0 1.4-1 2.8-2.5 2.8-1 0-2-.6-2.1-1.9.8-.2 1.2-.9 1.2-1.7 0-.7-.4-1.2-1.1-1.2-1.6 0-2.6 2.8-2.5 4.9 1.9 2.3 4.3 4 6.3 4 .6 0 .9-.4 1.2-.9l.1.1c-1.3 2.4-2.8 3.6-4.4 3.6-1.5 0-3.2-.8-4.7-2.1-1.8 1.5-3.5 2.1-5.1 2.1-3.5 0-5.3-2.2-5.3-4.6 0-2.3 1.7-4.5 5.2-5-.4-1.1-.6-2.2-.6-3.1-.1-4.4 6.9-5.1 6.9-1.8zm-7.5 7.8c0 2.5 1.8 5.2 4.4 5.2.6 0 1.2-.2 1.8-.7-2.2-1.9-4.1-4.7-5.1-7.2-.9.4-1.1 1.8-1.1 2.7zm4.2-7.6c0 .9.3 2.1.9 3.3 1.3-.7 2.2-2.2 2.2-3.5 0-2.1-3.1-2.4-3.1.2z" class="dst0"/></svg><svg width="474" height="394" viewBox="-1 -1 474 394" id="paints" xmlns="http://www.w3.org/2000/svg"><path fill="#FFB564" d="M288.7 187.7c-53.7-32.6-119.8 1-119.8 1s11.6 92.6 11.4 121.4c-.8 2-1 4.1-.4 6.3-.2 1.2-.6 1.7-1 1.7h1.7c1.1 3 2.9 4.3 5.8 5.3 10.9 4 21.5 6.8 33.1 7.7 3.6.3 7.1.2 10.5-.2 1.6 1.5 4 2.4 7.1 2.1 13.2-1.2 28-1.9 38.6-10.3 1.7-1.4 2.7-2.7 3.1-4.7h.8l9.1-130.3z"/><path fill="#52E2D7" d="M173.2 146.4l7.3 37.6 26.1-6.8-6.5-33.2z"/><path fill="#FFFBE8" d="M222.6 133.8s-17.9-15.6-5.3 39.9c.6 2.5 19.4 3.4 19.4 3.4l-14.1-43.3z"/><path fill="#F9A035" d="M188.6 181.4s-20.6 0-20.6 12.4c.1 17.2 13.4 105.6 13.1 119.9-.2 9.3 19.1 13.6 19.1 13.6"/><path fill="#FFB564" d="M200.2 93.3s9.7 50.2 11.6 48.4c2-1.8 10.8-7.9 10.8-7.9l-13.5-40.5h-8.9z"/><path fill="#FFFBE8" d="M184.1 123.6s-12.9 24.6-10.9 22.8c2-1.8 27-2.4 27-2.4l-16.1-20.4z"/><path fill="#F25F68" d="M257.9 92.8c-1.5 2-3 4.1-4.4 6.3-1.2 1.9-2.9 2.3-4.6 1.9-1.7 3.4-3.5 6.7-5.7 9.8-6.2 22.4-.7 41.7-8.7 63.8-1.3 3.5.3.3 2.2 2.5 5.6-3 31.1 3.5 38.7 4.2 1.7-2.3-9.1-3.3-10.3-6.6 1.4 3.9.2-5.2.2-6.1.3-2.6 0-5.5.3-8.1.7-4.6-1.4-6.4-.8-11 1.9-14.5 3.4-29.4 3-44.1-2.2-3.9-4.1-7.9-5.6-12.1-1.2-.4-2.8-.6-4.3-.5z"/><g><path fill="none" stroke="#AF3A46" stroke-width="4.976" stroke-linecap="square" stroke-linejoin="round" stroke-miterlimit="10" d="M238 171.1l7.2-62.1 15.2-22.1 7.3 23.9-2.6 64M180.2 182.4l-6.4-38.4 10.3-20.4 16 15.6 6.5 37M218.2 174.8s-4.5-16.5-9-36.4c-4.8-21.3-9.7-43.8-9-45.1 1.3-2.6 5.4-4.8 8.9 0 2 2.7 7.9 21.6 13.5 40.5 6.3 21.1 12.2 42.3 11.9 40.8"/><path fill="#AF3A46" stroke="#AF3A46" stroke-width="2.488" stroke-miterlimit="10" d="M200.2 93.3c-11.6-12.2-10.4-19.2-6.6-23 6.6-6.6-2.8-16.6-.9-16.8 6.6-.6 28.6 9.6 17.3 36.9"/><path fill="none" stroke="#AF3A46" stroke-width="4.976" stroke-linecap="round" stroke-linejoin="round" stroke-miterlimit="10" d="M245.2 109s11.3-4.8 22.5 1.9"/><path fill="#FFFBE8" stroke="#AF3A46" stroke-width="4.976" stroke-linecap="round" stroke-linejoin="round" stroke-miterlimit="10" d="M200.1 139.2c0 4.7-12.2 4.7-12.2 4.7-3.2 5.3-14.1 0-14.1 0"/><path fill="#AF3A46" d="M190.9 130.3c3.4 3.3-12 3.5-12 3.5l5.1-10.2 6.9 6.7z"/><path fill="none" stroke="#AF3A46" stroke-width="4.976" stroke-linecap="round" stroke-linejoin="round" stroke-miterlimit="10" d="M211.8 141.6c7.7 0 11.4-6 11.4-6M169 188.8c43.9-21.5 94.3-16.6 119.8-1.1L277 321.9s-39.9 23.2-95.2-1.1l-12.8-132z"/><path fill="none" stroke="#AF3A46" stroke-width="4.823" stroke-linecap="round" stroke-linejoin="round" stroke-miterlimit="10" d="M255.7 270.4l-2.2-32.6-24.4-18.9-24.1 17.7c.3 11.8 1.4 22.8 1.7 34.6-.1 0 29.3 4.7 49-.8z"/><path fill="none" stroke="#AF3A46" stroke-width="5" stroke-linecap="round" stroke-linejoin="round" stroke-miterlimit="10" d="M229.5 219v27"/><path fill="none" stroke="#AF3A46" stroke-width="3.858" stroke-linecap="round" stroke-linejoin="round" stroke-miterlimit="10" d="M233.2 240.8c-1.5 0-2.9.3-6.8.4 0 0-1-.9-.1 5.9 2.9.1 4 .2 6.9.2v-6.5z"/></g></svg></svg>