<?xml version="1.0" encoding="utf-8"?>
<!-- Generator: Adobe Illustrator 21.1.0, SVG Export Plug-In . SVG Version: 6.00 Build 0)  -->
<svg version="1.1" id="Layer_1" xmlns="http://www.w3.org/2000/svg" xmlns:xlink="http://www.w3.org/1999/xlink" x="0px" y="0px"
	 viewBox="0 0 360 360" style="enable-background:new 0 0 360 360;" xml:space="preserve">
<style type="text/css">
	.st0{fill:#31C1D2;}
	.st1{fill:#FFFFFF;}
	.st2{fill:#EE4D25;}
</style>
<g>
	<g>
		<g>
			<g>
				<path class="st0" d="M144.1,243c-9.8,0-17.7-9.4-17.7-20.9c0-11.5,8-20.9,17.7-20.9c9.8,0,17.7,9.4,17.7,20.9
					C161.8,233.6,153.8,243,144.1,243z M144.1,203.1c-8.7,0-15.9,8.5-15.9,18.9s7.1,18.9,15.9,18.9s15.9-8.5,15.9-18.9
					S152.8,203.1,144.1,203.1z"/>
			</g>
		</g>
		<g>
			<polygon class="st1" points="162.4,220.5 144.5,220.5 144.5,200 142.4,200 142.4,220.5 125.7,220.5 125.7,223 142.4,223 
				142.4,243.5 144.5,243.5 144.5,223 162.4,223 			"/>
			<path class="st1" d="M145.1,244.1h-3.3v-20.5h-16.6v-3.7h16.6v-20.5h3.3v20.5H163v3.7h-17.9V244.1z M143,242.9h1v-20.5h17.9v-1.4
				h-17.9v-20.5h-1v20.5h-16.6v1.4H143V242.9z"/>
		</g>
	</g>
	<g>
		<g>
			<path class="st2" d="M160.8,210.4c2.6,2.3,3,3.3,2.1,6.2C162.2,214.6,161.5,212.6,160.8,210.4z"/>
		</g>
	</g>
	<g>
		<g>
			<path class="st2" d="M149.5,243.8c1.7-0.8,3.3-1.6,4.9-2.4C153.5,243.8,151.5,245,149.5,243.8z"/>
		</g>
	</g>
	<g>
		<g>
			<path class="st2" d="M139,200.1c-1.3,0.6-2.5,1.2-3.7,1.8C136.5,199.7,137.2,199.4,139,200.1z"/>
		</g>
	</g>
	<g>
		<g>
			<path class="st2" d="M125.9,228.3c0.6,1.8,1.3,3.7,1.9,5.5C125.5,232.2,125,230.8,125.9,228.3z"/>
		</g>
	</g>
	<g>
		<g>
			<path class="st2" d="M163,227.5c0.7,2.6,0,4.9-2,5.6C161.7,231.2,162.4,229.3,163,227.5z"/>
		</g>
	</g>
	<g>
		<g>
			<path class="st2" d="M140,244.5c-3.3,0.5-4,0.1-5-2.5C136.6,242.8,138.3,243.6,140,244.5z"/>
		</g>
	</g>
	<g>
		<g>
			<path class="st2" d="M128.3,209c-0.7,2.1-1.5,4.2-2.2,6.2C125.1,212.1,126.4,209.5,128.3,209z"/>
		</g>
	</g>
	<g>
		<g>
			<path class="st2" d="M149,199.8c3.5-0.6,4.4-0.1,5.5,2.8C152.6,201.7,150.8,200.8,149,199.8z"/>
		</g>
	</g>
</g>
<g>
	<path class="st0" d="M54.4,190.3c0,0.1,0,0.2-0.2,0.2h-2l-0.3-0.6c-0.3,0.4-0.7,0.6-1.2,0.6c-0.6,0-1.1-0.3-1.4-0.8
		c-0.3-0.4-0.4-1-0.4-1.6v-3.2c0-0.7,0.4-1.4,1.2-1.9c1.2-0.6,1.8-1.1,1.8-1.3v-2.7c0-0.3-0.1-0.5-0.4-0.5c-0.2,0-0.3,0.2-0.3,0.5
		v2.8h-2.3v-3.1c0-0.6,0.3-1,0.9-1.4c0.5-0.3,1.1-0.5,1.7-0.5c0.6,0,1.2,0.2,1.7,0.5c0.6,0.3,0.9,0.8,0.9,1.4v10.2
		C54.1,189.5,54.2,190,54.4,190.3z M51.9,187.9V184c-0.3,0.3-0.5,0.5-0.5,0.5c-0.2,0.2-0.3,0.5-0.3,0.7c0,1,0,1.9,0,2.7
		c0,0.4,0.1,0.5,0.4,0.5C51.8,188.5,51.9,188.3,51.9,187.9z"/>
	<path class="st0" d="M61.6,190.5h-2.5v-10.9c0-0.3-0.2-0.5-0.5-0.5c-0.3,0-0.5,0.2-0.5,0.5v10.9h-2.6v-13.3h2.6v0.5
		c0.4-0.3,1-0.5,1.6-0.5c0.6,0,1,0.1,1.4,0.4c0.4,0.3,0.6,0.7,0.6,1.3V190.5z"/>
	<path class="st0" d="M69,190.5h-2.6v-0.6c-0.4,0.4-0.9,0.6-1.5,0.6c-0.6,0-1.2-0.3-1.5-0.7c-0.4-0.4-0.6-1-0.6-1.6v-9.2
		c0-0.6,0.2-1,0.7-1.3c0.4-0.3,0.9-0.4,1.5-0.4c0.6,0,1.1,0.1,1.5,0.4V173H69V190.5z M66.4,188.2v-8.6c0-0.5-0.2-0.7-0.6-0.7
		c-0.4,0-0.6,0.2-0.6,0.7v8.6c0,0.4,0.2,0.6,0.6,0.6C66.1,188.8,66.3,188.6,66.4,188.2z"/>
</g>
<g>
	<path class="st0" d="M77.6,190.8H76c-1.7,0-2.6-1.1-2.6-3.2v-8.3h-1v-2.2h1V174H76v3.2h1.3v2.2H76v8.5c0,0.5,0.4,0.8,1.1,0.8h0.5
		V190.8z"/>
	<path class="st0" d="M84.4,190.5h-2.6v-10.9c0-0.3-0.2-0.5-0.5-0.5s-0.5,0.2-0.5,0.5v10.9h-2.6V173h2.6v4.7
		c0.4-0.3,0.8-0.5,1.3-0.5c1.4,0,2.2,0.5,2.2,1.7V190.5z"/>
	<path class="st0" d="M90.8,188.3c0,0.7-0.3,1.3-0.8,1.8s-1.1,0.7-1.9,0.8c-0.8,0-1.4-0.2-1.9-0.7c-0.5-0.5-0.8-1.1-0.8-1.9v-9.4
		c0-0.6,0.3-1.1,0.9-1.6c0.5-0.4,1.1-0.6,1.8-0.6c0.7,0,1.3,0.2,1.8,0.5c0.6,0.4,0.9,1,0.9,1.6v5.2h-3.2v4.3c0,0.3,0.2,0.5,0.5,0.5
		c0.4,0,0.6-0.2,0.6-0.5v-3.5h2.1V188.3z M88.7,182.3v-2.9c0-0.3-0.2-0.5-0.5-0.5c-0.4,0-0.6,0.2-0.6,0.5v2.9H88.7z"/>
</g>
<path class="st2" d="M55.1,99.8v59.5c0,2.9-1.4,5.4-4.3,7.4c-2.6,1.8-5.4,2.6-8.4,2.6c-3.2-0.1-6-0.9-8.4-2.5c-2.7-1.9-4-4.4-4-7.4
	v-17.2h10.1v16.2c0,1.7,0.8,2.5,2.4,2.6c1.7,0.1,2.6-0.7,2.6-2.3V99.8"/>
<path class="st2" d="M80.8,167.8c0.2,0.4-0.1,0.6-0.8,0.6h-7.7l-1.1-2.5c-1,1.7-2.7,2.5-4.9,2.5c-2.5,0-4.4-1-5.7-3
	c-1.1-1.7-1.7-3.9-1.7-6.4v-12.8c0-2.9,1.6-5.4,4.9-7.6c4.8-2.5,7.1-4.2,7.1-5.2v-10.8c0-1.4-0.6-2-1.7-1.9
	c-0.9,0.1-1.4,0.7-1.4,1.9v11.2h-8.9v-12.2c0-2.2,1.2-4.1,3.7-5.6c2.1-1.3,4.4-1.9,6.8-1.9c2.5,0,4.8,0.6,6.8,1.8
	c2.4,1.4,3.6,3.3,3.6,5.7v40.3C79.8,164.3,80.1,166.3,80.8,167.8z M71,158.4v-15.5c-1.1,1.1-1.8,1.9-2.1,2.1c-0.7,0.9-1,1.8-1,2.7
	c-0.1,4-0.1,7.4,0,10.5c0,1.4,0.5,2.1,1.6,2.1C70.5,160.5,71,159.8,71,158.4z"/>
<g>
	<path class="st2" d="M156.7,102.1c-2.5-1.8-5.2-2.6-8.3-2.6c-3,0.1-5.6,1-8,2.7c-2.6,1.9-4,4.4-4,7.2v18.6c0,2,1.2,4.2,3.6,6.6
		c0.3,0.3,2.5,2.3,6.6,5.8c2.5,2.1,3.7,3.6,3.7,4.6v15.2c0,1.2-0.6,1.9-1.7,2c-1.3,0.2-1.9-0.5-1.9-2.1v-16.4h-10.3v16.4
		c0,3.1,1.2,5.7,3.7,7.7c2.5,2,5.3,3.1,8.4,3.1c3.1,0,5.9-1,8.4-3.1c2.5-2,3.7-4.6,3.7-7.6v-16.2c0-2.1-1.2-4.4-3.6-6.7
		c-3-2.8-5.2-4.8-6.8-6.1c-2.4-2.2-3.5-3.9-3.5-5.3v-16.3c0.1-0.9,0.6-1.3,1.5-1.5c1.2-0.2,1.9,0.3,2.1,1.5v16h10.3v-16.2
		C160.6,106.6,159.3,104.2,156.7,102.1z"/>
	<polygon class="st2" points="174.6,144.8 180.7,169.8 191.1,169.8 182.8,138 188.8,117.5 179.1,117.5 174.6,135 174.6,101 
		164.3,101 164.3,169.8 174.6,169.8 	"/>
	<path class="st2" d="M206.6,128.3v15.5h10.3v-19.7c0-2.1-0.7-3.8-2.1-5.2c-1.4-1.3-3.1-2-5.2-2c-2.9,0-5.1,1.1-6.6,3.3v-2.8h-9.7
		v52.3h10.3v-41.5c0-1,0.6-1.5,1.7-1.5C206.2,126.7,206.6,127.2,206.6,128.3z"/>
	<rect x="221.1" y="102.4" class="st2" width="10.1" height="10.9"/>
	<rect x="221.1" y="117.1" class="st2" width="10.1" height="52.7"/>
	<path class="st2" d="M283.8,162.8h-2.1c-2.8-0.1-4.2-1.1-4.2-3.1v-33.6h5.1v-8.7h-5.1v-12.7h-10.3v12.7h-4.1v8.7h4.1v32.7
		c0,8.3,3.4,12.5,10.3,12.5h6.3V162.8z"/>
	<path class="st2" d="M119.7,179.5c-2-1.8-4.4-2.7-7.4-2.7H107V116h-9.5v38.8c0,1.4-0.6,2.1-1.9,2.1c-1.3,0-1.9-0.7-1.9-2.1V116
		h-9.5v38.6c0,2.9,0.6,5.3,1.9,7.1c1.4,2.2,3.6,3.3,6.4,3.4c1.5,0.1,3.3-0.4,5.3-1.4v15.6h0v66.3h14.5c2.7,0,5.1-0.8,7.2-2.5
		c2.1-1.7,3.1-3.8,3.1-6.5v-49.8C122.6,183.8,121.6,181.3,119.7,179.5z M112.2,235.9c0,1.1-0.7,1.6-2.1,1.6h-1.9v-52.8h1.8
		c1.4,0,2.1,0.5,2.1,1.6V235.9z"/>
	<path class="st2" d="M200.9,195c-1.6-1.1-3.6-1.7-5.9-1.7c-3.4,0-6,1-7.7,2.9c-1.7-1.9-3.8-2.9-6.4-2.9c-1.9,0-3.7,0.6-5.2,1.8
		v-1.8h-10.1v52.2H176v-42.9c0-1.2,0.6-1.8,1.9-1.9c1.2,0,1.8,0.6,1.8,1.9v42.9h10.1V208v-5.4c0-1.1,0.6-1.7,1.8-1.7
		c1.2,0,1.8,0.6,1.8,1.8v43h10.3v-45.4C203.7,198,202.8,196.2,200.9,195z"/>
	<path class="st2" d="M226.1,193.7c-2.4-1.3-5-1.9-7.6-1.8c-2.6,0.1-5,0.7-7.4,2c-2.8,1.5-4.1,3.4-4.1,5.8v14.3
		c0,1.8,2.2,4.3,6.7,7.4c4.5,3.1,6.7,5,6.7,5.7v11.5c0,1.2-0.6,1.8-1.7,1.8c-1.1,0-1.7-0.6-1.7-1.7V226h-10v12.7
		c0,2.5,1.3,4.6,4,6.2c2.3,1.4,4.8,2.1,7.6,2.1c2.9,0,5.4-0.6,7.7-1.9c2.7-1.6,4-3.7,4-6.4v-12.4c0-1.8-2.2-4.3-6.7-7.6
		c-4.5-3.3-6.7-5.4-6.7-6.4V200c0-1.2,0.6-1.8,1.7-1.8c1.1,0,1.7,0.6,1.7,1.8v12.2h10v-12.5C230.3,197.2,228.9,195.2,226.1,193.7z"
		/>
	<path class="st2" d="M247.2,235.5v-33.6h5.1v-8.7h-5.1v-10.4h0v-13.3h3.6c2.6,0,4.8-0.7,6.7-2.2c1.9-1.5,2.9-3.5,2.9-6v-34.7
		c0-2.6-0.7-4.7-2.1-6.5c-1.4-1.8-3.4-2.6-6-2.6c-2.1,0-4,0.6-5.8,1.8l-0.7-1.8h-8.9v65.4h0v10.4h-4.1v8.7h4.1v32.7
		c0,8.3,3.4,12.5,10.3,12.5h6.3v-8.4h-2.1C248.6,238.6,247.2,237.5,247.2,235.5z M247.2,124.1h1.7c1.3,0,1.9,0.5,1.9,1.5v35.6
		c0,1-0.6,1.5-1.9,1.5h-1.7V124.1z"/>
	<path class="st2" d="M273.6,193.6c-2.1-1.5-4.4-2.2-7.1-2.1c-2.6,0.1-4.9,0.8-7,2.3c-2.4,1.7-3.5,3.7-3.5,6.2v37c0,3,1,5.4,3.1,7.3
		c2.1,1.9,4.6,2.8,7.6,2.7c2.8-0.1,5.2-1.1,7.3-3.1s3.1-4.3,3.1-7v-13.4h-8.3v13.7c0,1.4-0.7,2.1-2.2,2.1c-1.4,0-2.1-0.7-2.1-2.1
		v-16.8h12.7v-20.5C277.1,197.4,275.9,195.2,273.6,193.6z M268.8,213.3h-4.4v-11.6c0-1.4,0.7-2.1,2.2-2.1c1.4,0,2.1,0.7,2.1,2.1
		V213.3z"/>
	<path class="st2" d="M297.7,192.7c-2.9,0-5.1,1.1-6.6,3.3v-2.8h-9.7v52.3h10.3v-41.5c0-1,0.6-1.5,1.7-1.5c0.9,0,1.3,0.5,1.3,1.5
		v15.5H305v-19.7c0-2.1-0.7-3.8-2.1-5.2C301.6,193.4,299.8,192.7,297.7,192.7z"/>
	<path class="st2" d="M331.6,212.2v-12.5c0-2.5-1.4-4.5-4.2-5.9c-2.4-1.3-5-1.9-7.6-1.8c-2.6,0.1-5,0.7-7.4,2
		c-2.8,1.5-4.1,3.4-4.1,5.8v14.3c0,1.8,2.2,4.3,6.7,7.4c4.5,3.1,6.7,5,6.7,5.7v11.5c0,1.2-0.6,1.8-1.7,1.8c-1.1,0-1.7-0.6-1.7-1.7
		V226h-10v12.7c0,2.5,1.3,4.6,4,6.2c2.3,1.4,4.8,2.1,7.6,2.1c2.9,0,5.4-0.6,7.7-1.9c2.7-1.6,4-3.7,4-6.4v-12.4
		c0-1.8-2.2-4.3-6.7-7.6c-4.5-3.3-6.7-5.4-6.7-6.4V200c0-1.2,0.6-1.8,1.7-1.8c1.1,0,1.7,0.6,1.7,1.8v12.2H331.6z"/>
</g>
<g>
	<g>
		<path class="st2" d="M149.9,213c0,0,0-0.1,0-0.1C149.9,212.9,149.9,213,149.9,213z"/>
	</g>
	<g>
		<polygon class="st2" points="149.6,213.4 149.6,213.3 149.6,213.4 		"/>
	</g>
	<g>
		<path class="st2" d="M149.3,213.5c0.1,0.1,0.1-0.1,0.2-0.1l0,0l0-0.1C149.4,213.4,149.4,213.5,149.3,213.5z"/>
	</g>
	<g>
		<path class="st2" d="M148.9,213.3C149,213.3,148.9,213.4,148.9,213.3C149,213.3,149,213.3,148.9,213.3
			C149,213.3,149,213.3,148.9,213.3z"/>
	</g>
	<g>
		<path class="st2" d="M149,213.3C149,213.3,148.9,213.2,149,213.3L149,213.3z"/>
	</g>
	<g>
		<path class="st2" d="M148.8,213.4L148.8,213.4c0-0.1,0-0.1,0-0.1C148.7,213.3,148.8,213.3,148.8,213.4z"/>
	</g>
	<g>
		<path class="st2" d="M148.8,213.5L148.8,213.5C148.8,213.5,148.8,213.5,148.8,213.5z"/>
	</g>
	<g>
		<path class="st2" d="M148.9,213.4L148.9,213.4C148.9,213.5,148.9,213.6,148.9,213.4C148.9,213.5,148.9,213.5,148.9,213.4z"/>
	</g>
	<g>
		<path class="st2" d="M148.9,213.4C149,213.4,149,213.4,148.9,213.4C149.1,213.5,149,213.4,148.9,213.4z"/>
	</g>
	<g>
		<path class="st2" d="M149.3,213.7L149.3,213.7L149.3,213.7C149.4,213.7,149.3,213.6,149.3,213.7z"/>
	</g>
	<g>
		<path class="st2" d="M148.5,213.5c0,0,0.1,0.1,0.1,0.1L148.5,213.5C148.5,213.5,148.5,213.5,148.5,213.5z"/>
	</g>
	<g>
		<path class="st2" d="M148.5,213.6L148.5,213.6C148.6,213.6,148.6,213.6,148.5,213.6z"/>
	</g>
	<g>
		<polygon class="st2" points="148.9,213.7 148.9,213.5 148.9,213.7 		"/>
	</g>
	<g>
		<polygon class="st2" points="148.3,213.6 148.3,213.5 148.3,213.6 		"/>
	</g>
	<g>
		<path class="st2" d="M148.1,213.6c0-0.1-0.1-0.1-0.1-0.1c0,0,0,0.1,0,0.2C148,213.6,148.1,213.6,148.1,213.6z"/>
	</g>
	<g>
		<path class="st2" d="M148,213.7C148,213.7,148,213.7,148,213.7C148,213.7,148,213.7,148,213.7z"/>
	</g>
	<g>
		<path class="st2" d="M148.4,213.7C148.4,213.7,148.4,213.6,148.4,213.7L148.4,213.7C148.4,213.7,148.4,213.7,148.4,213.7z"/>
	</g>
	<g>
		<path class="st2" d="M148.4,213.7L148.4,213.7C148.4,213.7,148.4,213.7,148.4,213.7C148.4,213.7,148.4,213.7,148.4,213.7z"/>
	</g>
	<g>
		<path class="st2" d="M148.4,213.7L148.4,213.7C148.4,213.7,148.4,213.7,148.4,213.7z"/>
	</g>
	<g>
		<path class="st2" d="M148.7,213.7c0,0.1-0.1,0.2,0,0.2C148.8,213.8,148.7,213.8,148.7,213.7z"/>
	</g>
	<g>
		<path class="st2" d="M148.5,213.8L148.5,213.8C148.6,213.7,148.5,213.7,148.5,213.8L148.5,213.8z"/>
	</g>
	<g>
		<polygon class="st2" points="148.5,213.8 148.5,213.8 148.5,213.8 		"/>
	</g>
	<g>
		<path class="st2" d="M148.1,213.8C148.1,213.8,148.1,213.8,148.1,213.8C148.1,213.9,148.1,213.9,148.1,213.8
			C148.2,213.8,148.2,213.8,148.1,213.8z"/>
	</g>
	<g>
		<path class="st2" d="M148.3,213.7L148.3,213.7C148.3,213.8,148.3,213.8,148.3,213.7z"/>
	</g>
	<g>
		<polygon class="st2" points="147.8,214 147.8,214 147.8,214 		"/>
	</g>
	<g>
		<path class="st2" d="M148.2,213.9C148.2,213.9,148.2,213.8,148.2,213.9C148.2,213.8,148.2,213.8,148.2,213.9
			C148.2,213.9,148.2,213.9,148.2,213.9z"/>
	</g>
	<g>
		<path class="st2" d="M147.9,213.8C147.9,213.8,148,213.8,147.9,213.8C148,213.8,147.9,213.8,147.9,213.8z"/>
	</g>
	<g>
		<path class="st2" d="M148.2,213.7L148.2,213.7C148.2,213.7,148.2,213.7,148.2,213.7z"/>
	</g>
	<g>
		<path class="st2" d="M148.2,213.7C148.2,213.8,148.2,213.8,148.2,213.7C148.2,213.8,148.3,213.8,148.2,213.7
			C148.3,213.7,148.2,213.7,148.2,213.7z"/>
	</g>
	<g>
		<path class="st2" d="M147.9,214.6c0-0.1,0-0.2,0.1-0.1c0-0.1-0.1-0.3-0.3-0.5c0,0,0,0.1,0,0.1c0,0,0.2,0,0.2,0.1
			c-0.1,0.1-0.1,0-0.1,0C147.9,214.4,147.8,214.5,147.9,214.6L147.9,214.6C147.9,214.6,147.9,214.6,147.9,214.6z"/>
	</g>
	<g>
		<path class="st2" d="M147.9,214L147.9,214c0,0,0,0-0.1-0.1c0,0.1,0,0.1,0,0.1L147.9,214L147.9,214z"/>
	</g>
	<g>
		<path class="st2" d="M148,213.9c0,0.1,0,0.2,0.1,0.2c0.1,0,0-0.1,0-0.2C148,214.1,148.1,213.9,148,213.9
			C148,213.9,148,213.9,148,213.9C148,213.9,148,213.9,148,213.9L148,213.9L148,213.9L148,213.9C148,213.9,148,213.9,148,213.9
			C148,213.9,148,213.9,148,213.9C148,213.9,148,213.9,148,213.9C148,213.9,148,213.9,148,213.9L148,213.9L148,213.9l-0.1,0.1
			C147.9,214,148,213.9,148,213.9z"/>
	</g>
	<g>
		<path class="st2" d="M148.8,214.1C148.8,214.1,148.8,214.1,148.8,214.1C148.8,214.1,148.8,214.1,148.8,214.1z"/>
	</g>
	<g>
		<path class="st2" d="M148.7,214.1C148.7,214,148.7,214,148.7,214.1C148.8,214,148.8,214,148.7,214.1
			C148.8,214,148.8,214,148.7,214.1L148.7,214.1c0-0.1-0.2-0.2-0.2-0.2C148.6,213.9,148.6,214,148.7,214.1z"/>
	</g>
	<g>
		<path class="st2" d="M148.4,214L148.4,214l0,0.1L148.4,214C148.4,214.1,148.4,214.1,148.4,214z"/>
	</g>
	<g>
		<polygon class="st2" points="147.7,214 147.7,213.9 147.7,214 		"/>
	</g>
	<g>
		<polygon class="st2" points="147.6,214 147.6,214 147.6,214 		"/>
	</g>
	<g>
		<path class="st2" d="M141.2,218.3L141.2,218.3C141.2,218.3,141.2,218.3,141.2,218.3z"/>
	</g>
	<g>
		<path class="st2" d="M141.4,218.2L141.4,218.2C141.4,218.2,141.4,218.2,141.4,218.2z"/>
	</g>
	<g>
		<path class="st2" d="M144.6,215.5c-0.1-0.1-0.2-0.2-0.1-0.1L144.6,215.5C144.6,215.5,144.6,215.5,144.6,215.5z"/>
	</g>
	<g>
		<path class="st2" d="M142.8,217L142.8,217C142.8,217,142.8,216.9,142.8,217C142.8,216.9,142.8,216.9,142.8,217z"/>
	</g>
	<g>
		<path class="st2" d="M142.9,217.4L142.9,217.4C142.9,217.3,142.9,217.4,142.9,217.4z"/>
	</g>
	<g>
		<path class="st2" d="M140.1,218.9l0,0.1C140.2,219,140.2,219,140.1,218.9z"/>
	</g>
	<g>
		<path class="st2" d="M146.4,214.7c-0.1,0-0.1,0-0.1,0C146.3,214.7,146.4,214.7,146.4,214.7z"/>
	</g>
	<g>
		<path class="st2" d="M140.8,217.3C140.8,217.3,140.8,217.4,140.8,217.3C140.8,217.4,140.8,217.3,140.8,217.3z"/>
	</g>
	<g>
		<path class="st2" d="M146.2,214.7C146.2,214.7,146.2,214.7,146.2,214.7c0,0,0.1,0,0.1,0C146.2,214.6,146.2,214.6,146.2,214.7z"/>
	</g>
	<g>
		<path class="st2" d="M136.1,220.7C136.1,220.7,136.1,220.7,136.1,220.7C136.1,220.7,136.1,220.7,136.1,220.7z"/>
	</g>
	<g>
		<path class="st2" d="M134.6,220C134.6,220,134.6,220,134.6,220C134.6,220,134.6,220,134.6,220z"/>
	</g>
	<g>
		<path class="st2" d="M147.1,214.2C147.1,214.2,147.1,214.2,147.1,214.2L147.1,214.2z"/>
	</g>
	<g>
		<path class="st2" d="M147.4,214.5C147.4,214.5,147.4,214.6,147.4,214.5C147.4,214.6,147.4,214.5,147.4,214.5z"/>
	</g>
	<g>
		<path class="st2" d="M146.2,215.4L146.2,215.4C146.2,215.4,146.2,215.4,146.2,215.4z"/>
	</g>
	<g>
		<path class="st2" d="M147.2,214.3C147.1,214.3,147.1,214.2,147.2,214.3C147.1,214.3,147.1,214.3,147.2,214.3z"/>
	</g>
	<g>
		<path class="st2" d="M147.1,214.2C147.1,214.2,147.1,214.2,147.1,214.2C147.2,214.2,147.1,214.2,147.1,214.2z"/>
	</g>
	<g>
		<path class="st2" d="M147.1,214.3C147.1,214.2,147.1,214.2,147.1,214.3C147.1,214.2,147.1,214.2,147.1,214.3
			C147.1,214.2,147.1,214.2,147.1,214.3z"/>
	</g>
	<g>
		<path class="st2" d="M138.1,219.5C138.1,219.5,138.1,219.5,138.1,219.5C138.1,219.5,138.1,219.5,138.1,219.5z"/>
	</g>
	<g>
		<polygon class="st2" points="144.4,216.7 144.4,216.7 144.4,216.7 		"/>
	</g>
	<g>
		<path class="st2" d="M144.3,216.8c0-0.1,0-0.1,0.1-0.1l-0.2-0.2L144.3,216.8z"/>
	</g>
	<g>
		<path class="st2" d="M140.7,218.6l0.1,0.1c0,0.2-0.1,0.2,0,0.2c-0.1-0.3,0.2-0.1,0.1-0.4l0.1,0c0,0,0,0,0,0c0.1,0.1,0-0.2,0.1-0.2
			c0,0,0.1,0,0.1,0.1l0.1-0.1c0,0,0,0,0,0.1l0.1-0.1l0,0c0-0.1,0-0.1,0-0.2c0.1,0,0,0,0,0.1l0-0.1c0.1,0.1,0,0.2,0,0.2
			c0.2,0.3,0-0.1,0.2,0l-0.1,0.1c0.1,0.1,0.1,0.1,0.3,0.1c0,0-0.3-0.2-0.2-0.3c0,0,0.1,0,0.1-0.1c0,0.1,0.1,0.1,0.1,0l0.1,0.1
			c0-0.1,0-0.1,0-0.2c0.1,0,0.1,0.1,0.2,0.2c0.1,0-0.1-0.1,0-0.2c0.1,0,0.1-0.1,0.2-0.2c0.1,0,0,0.1,0.1,0.1l0-0.1c0,0,0,0,0,0
			c0-0.1-0.1-0.1,0-0.2c-0.1-0.2,0.2,0.2,0.2-0.1c0,0,0,0.1,0.1,0.1c0.1-0.2,0.1-0.1,0.1-0.3l0.1,0.1c-0.1-0.1-0.1-0.2-0.1-0.4
			c0,0-0.1-0.1-0.1-0.1l0.1-0.1c0,0,0,0.1,0,0.1c0,0,0,0,0,0c0.1,0,0.1,0.1,0.1,0.2c0,0-0.1,0-0.1-0.1c0,0.1,0,0.2,0.1,0.3
			c0,0,0,0,0-0.1c0,0,0,0,0,0.1c0,0,0,0,0-0.1l0.1,0.1l0-0.1l0.2,0c0-0.2,0-0.5,0.1-0.6c0,0.1,0.1,0.2,0.1,0.3
			c-0.1-0.1-0.1,0.1-0.2,0.1c0,0,0.1,0.1,0.1,0.1l0.1-0.2c0,0.1,0.1,0.1,0.1,0.1c-0.1-0.2,0-0.2,0.1-0.3c0,0.1,0.1,0.1,0,0.2
			c0.2,0.1,0-0.3,0.1-0.2c0,0,0,0,0,0c0-0.1,0.1-0.1,0.1,0l0,0c0.1,0,0.4-0.2,0.3-0.3c0,0,0.1,0.2,0.1,0.3l-0.1-0.7
			c0.1,0.2,0.3,0.5,0.2,0.6c0,0,0.1,0,0.1-0.1c0,0-0.2-0.2-0.1-0.2c0.2,0.1,0.1,0.1,0.2,0.2c0,0-0.1-0.3-0.1-0.3
			c0,0,0.1,0.2,0.1,0.3l0-0.3c0,0.1,0.1,0.2,0.1,0.3c0,0,0.1,0,0.1-0.1l-0.1,0c0.1,0,0-0.4,0.1-0.4c0,0.1,0.1,0.3,0.2,0.3
			c0-0.1-0.1-0.6-0.1-0.8l0.1,0.1l0-0.1c0,0.2,0.1,0.7,0.1,0.8c0.1,0,0.1,0.1,0.1,0c0.1,0.1,0,0.1,0,0.1l0.2,0
			c-0.1-0.1,0.1-0.2,0-0.3l-0.1,0.2c-0.1-0.1-0.1-0.4,0-0.5c0.1,0,0.1,0.3,0.1,0.3c0-0.1,0.1-0.1,0.1-0.1l0,0.1c0.1,0,0-0.2,0.2-0.1
			c0,0,0.2,0.1,0.1,0.1c-0.1-0.1-0.4-0.6-0.4-0.8c0,0,0.2,0.1,0.3,0.2c0.1,0.1,0.1,0.3,0.2,0.4c0,0,0-0.1,0-0.1c0,0,0,0.1,0.1,0.1
			c-0.1-0.1,0.1,0,0-0.1c0-0.1,0.1,0,0.1,0c-0.1-0.1-0.1-0.3,0-0.4c0,0,0,0.1,0.1,0.1c0.1,0,0.2,0,0.3-0.1c0,0,0.1,0,0.1,0.1
			c0,0,0-0.1,0-0.1c0.1,0.1-0.1,0.1,0.1,0.2c0-0.1,0-0.2,0.1-0.2c-0.1-0.1-0.1,0-0.2,0.1c-0.1-0.2-0.1-0.4,0-0.5
			c0.1-0.1,0.1,0.1,0.1,0.1c0.2-0.1,0-0.4,0.2-0.3c0.1,0.1,0.1,0.2,0.2,0.3c-0.1,0.1-0.2,0-0.2,0l0.1,0c0,0,0,0.1-0.1,0.1
			c0.1,0.1,0.3-0.1,0.5-0.1c0,0,0-0.1,0-0.1l0,0c-0.1-0.1,0-0.2-0.1-0.2c0-0.1,0-0.2,0.2-0.2l0.1,0.1c0,0-0.1-0.1-0.1,0
			c0-0.1,0.2,0.1,0.2-0.1l-0.1-0.1c0-0.1,0-0.3,0.1-0.3c-0.1-0.1,0,0-0.1-0.1c0.1,0.2-0.2,0.1,0,0.2c-0.1-0.1-0.1,0-0.3-0.1
			c0,0,0.1,0.1,0,0.1c0,0,0,0,0,0c0,0,0,0,0,0l0,0c0,0,0,0,0,0c0,0,0,0,0.1,0c0,0.1-0.1,0.2-0.1,0.2c0,0,0-0.1,0-0.1l0,0.1
			c0-0.1-0.2-0.1-0.1-0.2l-0.1,0c-0.1,0-0.1,0-0.2,0c0,0,0,0.1,0,0.1l-0.1,0.1l0,0c-0.1,0-0.2,0.3-0.4,0.2c0,0-0.1,0.1-0.1,0.1
			l-0.1-0.1c0,0.1-0.2,0-0.2,0.1c-0.2-0.2-0.3,0.1-0.4,0.1l0,0.1c-0.1,0-0.1,0.1-0.2,0.2l0,0.1c0,0.1-0.2,0-0.3,0.1c0,0,0,0,0.1,0
			c-0.2-0.2-0.2,0.3-0.4,0.2c0,0,0,0-0.1,0c0,0,0,0,0,0c0,0,0,0,0,0c0,0,0,0-0.1,0c0,0,0,0,0.1,0c0,0,0,0-0.1,0.1l-0.1-0.1
			c0,0,0,0,0,0c0,0,0,0.1,0,0.1c0,0,0,0.1,0,0.1c-0.1-0.2-0.1,0.1-0.2-0.1c0,0.1-0.1,0.1-0.1,0.3c0,0,0,0,0,0c0,0-0.1,0-0.1,0.1
			l-0.1-0.1l0,0.2c-0.1-0.1-0.1-0.1-0.1-0.2c0,0.2-0.1,0.1-0.1,0.3l0-0.1c0,0,0,0.2-0.1,0.1c-0.2-0.1-0.4,0.2-0.7,0.1
			c0.2,0.2-0.1-0.1-0.1,0.1c0-0.1-0.1-0.1-0.1-0.1c-0.1,0.1-0.2,0-0.2,0.2c0-0.1,0-0.1,0-0.1c0,0,0,0.1,0,0c0,0,0-0.1,0-0.1
			c-0.1,0.1,0,0.2,0,0.4c-0.1-0.1-0.1,0-0.1,0.1c0,0-0.1-0.1,0-0.1c0,0-0.3,0-0.2,0.2c0,0-0.1,0-0.1,0c-0.1,0-0.1,0-0.2,0.1l0,0
			c0,0.2-0.1,0.1-0.1,0.1l0,0c-0.2,0,0,0.1-0.2,0l0.1,0.1c0.1,0.2-0.2-0.1-0.2,0.1l0.1,0c0,0.1-0.3-0.2-0.3-0.2c0,0,0,0,0-0.1
			c-0.2-0.1,0,0.1,0,0.2c-0.1-0.1-0.1-0.2-0.1-0.2c-0.1,0-0.1,0.3-0.2,0.2c0,0,0.1,0.1,0.1,0.2c-0.1,0.1-0.3-0.1-0.3,0.1
			c0,0,0,0,0,0c0,0.1-0.1,0.1-0.1,0.3c-0.2-0.3-0.2,0.3-0.4,0l-0.1,0.1l0,0c-0.1,0-0.1,0.1-0.1,0.2c0,0,0,0,0-0.1
			c-0.2,0-0.2,0-0.2,0.2l-0.1-0.1c0,0.1-0.3-0.1-0.4,0.1c0,0,0,0,0-0.1c-0.1,0.2-0.5-0.1-0.4,0.3l-0.1,0.1c0.1,0,0.1,0.2,0.1,0.2
			c0,0-0.2,0-0.1-0.1l0,0c-0.1-0.2-0.2,0-0.3-0.1c-0.3,0.1-0.6,0.1-0.8,0.3l0.1,0.1l-0.1,0c0,0-0.1-0.1,0-0.1
			c-0.1-0.1-0.1,0.1-0.1,0.2c-0.1,0,0-0.2-0.1-0.2l0,0l0,0c0,0.1,0,0.1-0.1,0.2c-0.1,0-0.1-0.1-0.1-0.1c0,0,0,0,0,0l-0.1,0l0.1,0.1
			c0,0.1-0.1,0,0,0.2c-0.2-0.2-0.4,0.1-0.5,0.1c0,0.1-0.1,0.1-0.2,0.2c0,0,0.1,0.1,0,0.2c-0.1-0.3-0.2-0.1-0.3-0.2
			c0.1,0.1-0.2,0.1,0,0.3c-0.1,0-0.1-0.1-0.1-0.2c-0.1,0.2-0.3,0.1-0.5,0.2c0,0,0.1,0.1,0,0.2l-0.2-0.2c0,0,0,0.2-0.1,0.1
			c0,0,0.1,0.1,0,0.1c-0.2,0-0.4,0.1-0.5,0.1c-0.2,0.1-0.4,0.1-0.6-0.1c0.1,0.1,0,0.1,0,0.1c0,0,0,0.1,0,0.2c-0.1,0-0.1-0.1-0.2-0.1
			c0,0.2-0.2,0-0.2,0.2l0,0c-0.1,0.2,0.1,0.4,0.1,0.6c0.1-0.2,0.3,0.3,0.3,0c0,0,0,0.1,0,0.1c0-0.1,0.1-0.1,0.1-0.1l0,0
			c0.2-0.1,0.3,0,0.6,0l0-0.1c0.1,0,0.1,0,0.1,0c0-0.2-0.1,0-0.1-0.2c0.1,0.2,0.3-0.1,0.5,0.1c0.1,0-0.1-0.1,0-0.1l0,0.1l0-0.1
			c0.1,0,0.1,0.1,0.1,0.1c0,0,0,0,0,0c0.1,0.1,0.2-0.1,0.2-0.1l-0.1,0c0.2-0.1,0.4-0.2,0.6-0.4l0,0c0.1-0.1,0.1,0,0.3-0.1l0,0
			c0-0.1,0-0.1,0.1-0.1c0,0.1,0.1,0.1,0.1,0.2c0.1-0.2,0-0.1,0.1-0.3l0.1,0.1c0-0.1,0-0.1,0-0.2c0,0.1,0.1,0.1,0.1,0.2
			c0.2,0.1,0.1-0.3,0.3-0.1c0-0.2-0.2-0.1-0.2-0.1c-0.1-0.1,0-0.2,0-0.2c0.1,0,0.2,0.2,0.3,0.2c0,0,0,0,0,0c0.1,0,0.1-0.1,0.2-0.1
			c0-0.1,0.1,0,0-0.2l-0.1,0.1c0-0.1,0-0.3,0.2-0.3c0,0,0,0.1,0,0.1c0.1,0,0-0.1,0.1,0c0.1,0.2-0.1,0.1-0.1,0.3
			c0.1,0.1,0.1-0.2,0.1,0c-0.1-0.3,0.1,0,0.1-0.2l0,0.1c0,0,0-0.1,0-0.1l0,0.1c0-0.1,0.2,0,0.2-0.1c-0.1,0.1-0.1-0.1-0.2-0.2
			c0.1-0.2,0.2,0.2,0.4,0.1c0,0-0.1,0-0.1-0.1c0,0,0.1,0,0.2,0.1c0.1-0.1-0.1-0.1,0-0.2c0.1,0.1,0-0.1,0.1-0.1l0,0.1
			c0.2,0-0.1-0.2,0.1-0.2l0,0.2l0-0.1l0,0.1c0-0.1,0.1-0.1,0.2-0.1c-0.1-0.1-0.1-0.2,0-0.2c0.1,0,0,0.1,0.1,0.1c0,0.1,0,0.2-0.1,0.1
			c0,0,0,0.1,0,0.1c0.1,0,0.1,0,0.2-0.1c0,0,0,0,0,0l0.1-0.2c0,0,0,0.1,0,0.1c0,0,0-0.1,0.1-0.1c0,0.1,0.1,0.2,0,0.2l0.1-0.1
			c0,0,0.1,0.1,0.1,0.1c0.1,0,0.1-0.2,0.2-0.2c0,0,0,0,0-0.1c0.1,0,0.2,0,0.3-0.1l0.1,0.1c0.1-0.1-0.2-0.1-0.1-0.3
			c0.1-0.1,0.1,0.1,0.1,0.1C140.6,218.6,140.6,218.4,140.7,218.6C140.8,218.6,140.7,218.5,140.7,218.6z M141.7,218
			C141.7,218.1,141.6,218.2,141.7,218C141.6,218,141.6,218,141.7,218z M143,217.1C143,217.1,143,217.1,143,217.1
			C143,217.1,143,217.1,143,217.1z M146.8,214.4C146.8,214.5,146.8,214.5,146.8,214.4C146.8,214.4,146.8,214.4,146.8,214.4z
			 M147,214.5C147,214.4,147,214.4,147,214.5C146.9,214.4,146.9,214.4,147,214.5C146.9,214.5,146.9,214.5,147,214.5z M137.5,218.9
			L137.5,218.9C137.5,219,137.5,219,137.5,218.9z"/>
	</g>
	<g>
		<path class="st2" d="M142.9,217.3C142.9,217.3,142.9,217.3,142.9,217.3C142.9,217.3,142.9,217.3,142.9,217.3z"/>
	</g>
	<g>
		<path class="st2" d="M140.1,218.9C140.1,218.9,140.1,218.9,140.1,218.9C140.1,218.9,140.1,218.9,140.1,218.9L140.1,218.9z"/>
	</g>
	<g>
		<path class="st2" d="M146,215.9C146,215.9,146,215.9,146,215.9C146,215.9,146,216,146,215.9z"/>
	</g>
	<g>
		<path class="st2" d="M147.3,214.1L147.3,214.1C147.3,214.1,147.3,214.1,147.3,214.1C147.4,214.1,147.3,214.1,147.3,214.1z"/>
	</g>
	<g>
		<path class="st2" d="M148.1,214.5C148.1,214.4,148.1,214.4,148.1,214.5L148.1,214.5C148.1,214.4,148.1,214.5,148.1,214.5z"/>
	</g>
	<g>
		<path class="st2" d="M147.6,214.4C147.6,214.5,147.6,214.4,147.6,214.4C147.6,214.4,147.6,214.4,147.6,214.4
			C147.6,214.3,147.6,214.3,147.6,214.4z"/>
	</g>
	<g>
		<path class="st2" d="M147.7,214.4C147.7,214.4,147.7,214.4,147.7,214.4C147.7,214.3,147.7,214.3,147.7,214.4z"/>
	</g>
	<g>
		<path class="st2" d="M147,214.3C147.1,214.4,147,214.2,147,214.3C147,214.1,147,214.4,147,214.3z"/>
	</g>
	<g>
		<polygon class="st2" points="147.7,214.6 147.7,214.5 147.7,214.6 		"/>
	</g>
	<g>
		<path class="st2" d="M147.4,214.7L147.4,214.7C147.4,214.7,147.4,214.7,147.4,214.7C147.4,214.7,147.4,214.7,147.4,214.7z"/>
	</g>
	<g>
		<path class="st2" d="M147.4,214.7C147.5,214.7,147.5,214.6,147.4,214.7C147.5,214.6,147.5,214.6,147.4,214.7z"/>
	</g>
	<g>
		<polygon class="st2" points="147.6,214.7 147.6,214.7 147.6,214.7 		"/>
	</g>
	<g>
		<path class="st2" d="M146.7,215L146.7,215C146.6,215.1,146.7,215.1,146.7,215C146.7,215.1,146.7,215,146.7,215z"/>
	</g>
	<g>
		<path class="st2" d="M147,215.2C147,215.2,147,215.2,147,215.2L147,215.2L147,215.2z"/>
	</g>
	<g>
		<path class="st2" d="M146.8,215.3c0,0-0.1,0.2,0,0.1C146.9,215.4,146.9,215.3,146.8,215.3z"/>
	</g>
	<g>
		<polygon class="st2" points="145.7,215.6 145.7,215.6 145.6,215.4 		"/>
	</g>
	<g>
		<path class="st2" d="M145.1,216.6c0.1,0,0-0.1,0.1-0.1c0-0.1-0.1,0-0.1-0.1C145,216.5,145,216.4,145.1,216.6z"/>
	</g>
	<g>
		<path class="st2" d="M145,216.4C145,216.4,145,216.4,145,216.4C145,216.4,145,216.4,145,216.4z"/>
	</g>
	<g>
		<polygon class="st2" points="134.4,219.9 134.3,219.9 134.4,220 		"/>
	</g>
	<g>
		<path class="st2" d="M134.3,220.1l0-0.1L134.3,220.1C134.3,220.1,134.3,220.1,134.3,220.1z"/>
	</g>
	<g>
		<path class="st2" d="M141.9,218.2L141.9,218.2C141.9,218.2,141.9,218.2,141.9,218.2L141.9,218.2z"/>
	</g>
	<g>
		<polygon class="st2" points="141.2,218.5 141.2,218.5 141.1,218.4 		"/>
	</g>
	<g>
		<path class="st2" d="M140.7,218.9C140.7,218.9,140.7,218.9,140.7,218.9C140.7,218.9,140.6,218.8,140.7,218.9z"/>
	</g>
</g>
<g>
	<g>
		<path class="st2" d="M140.1,223.9c0,0-0.1,0.1-0.1,0.1C140,224,140.1,223.9,140.1,223.9z"/>
	</g>
	<g>
		<path class="st2" d="M140.6,224L140.6,224C140.6,224,140.7,224,140.6,224L140.6,224z"/>
	</g>
	<g>
		<path class="st2" d="M140.9,224.3c0-0.2-0.1-0.1-0.2-0.2l0,0l-0.1,0.1C140.8,224.2,140.9,224.2,140.9,224.3z"/>
	</g>
	<g>
		<path class="st2" d="M141,224.9C141,224.8,141.1,224.8,141,224.9C141,224.8,141,224.8,141,224.9C141,224.8,141,224.8,141,224.9z"
			/>
	</g>
	<g>
		<path class="st2" d="M141,224.8C140.9,224.8,141,224.9,141,224.8L141,224.8z"/>
	</g>
	<g>
		<path class="st2" d="M141.2,224.9L141.2,224.9c-0.1,0.1,0,0.1,0,0.2C141.2,225.1,141.2,225,141.2,224.9z"/>
	</g>
	<g>
		<path class="st2" d="M141.2,224.8L141.2,224.8C141.2,224.9,141.2,224.9,141.2,224.8z"/>
	</g>
	<g>
		<path class="st2" d="M141.1,224.8L141.1,224.8C141.2,224.8,141.2,224.7,141.1,224.8C141.2,224.8,141.2,224.8,141.1,224.8z"/>
	</g>
	<g>
		<path class="st2" d="M141.1,224.8c0-0.1-0.1-0.1,0-0.2C141,224.6,141,224.7,141.1,224.8z"/>
	</g>
	<g>
		<path class="st2" d="M141,224.1L141,224.1L141,224.1C141,224,141,224.2,141,224.1z"/>
	</g>
	<g>
		<path class="st2" d="M141.5,225.3c0,0,0-0.2,0-0.2l0,0C141.5,225.2,141.5,225.3,141.5,225.3z"/>
	</g>
	<g>
		<path class="st2" d="M141.5,225.1C141.5,225.1,141.5,225.1,141.5,225.1C141.5,225,141.5,225.1,141.5,225.1z"/>
	</g>
	<g>
		<path class="st2" d="M141.3,224.6C141.2,224.6,141.2,224.6,141.3,224.6C141.2,224.6,141.2,224.6,141.3,224.6L141.3,224.6z"/>
	</g>
	<g>
		<path class="st2" d="M141.8,225.5L141.8,225.5C141.8,225.6,141.8,225.5,141.8,225.5L141.8,225.5z"/>
	</g>
	<g>
		<path class="st2" d="M141.9,225.6c0,0.1,0.1,0.2,0.1,0.3c0,0,0.1,0,0.1-0.1C142,225.8,142,225.8,141.9,225.6z"/>
	</g>
	<g>
		<path class="st2" d="M142.1,226.1C142.1,226.1,142.1,226.2,142.1,226.1C142.1,226.2,142.1,226.2,142.1,226.1z"/>
	</g>
	<g>
		<path class="st2" d="M141.6,225.2c0,0,0,0.1,0.1,0.2L141.6,225.2C141.7,225.2,141.6,225.2,141.6,225.2z"/>
	</g>
	<g>
		<path class="st2" d="M141.7,225.2L141.7,225.2C141.7,225.2,141.7,225.2,141.7,225.2C141.7,225.2,141.7,225.2,141.7,225.2z"/>
	</g>
	<g>
		<path class="st2" d="M141.6,225.2L141.6,225.2C141.6,225.2,141.6,225.2,141.6,225.2z"/>
	</g>
	<g>
		<path class="st2" d="M141.4,224.8c0-0.1,0.1-0.1,0-0.3C141.4,224.6,141.4,224.7,141.4,224.8z"/>
	</g>
	<g>
		<path class="st2" d="M141.6,225L141.6,225C141.5,224.9,141.6,225,141.6,225C141.6,225,141.6,225,141.6,225z"/>
	</g>
	<g>
		<polygon class="st2" points="141.6,224.9 141.6,225 141.6,225 		"/>
	</g>
	<g>
		<path class="st2" d="M141.9,225.5C141.9,225.4,142,225.4,141.9,225.5c0-0.1,0-0.1,0-0.2C141.9,225.4,141.9,225.4,141.9,225.5z"/>
	</g>
	<g>
		<path class="st2" d="M141.8,225.3C141.8,225.3,141.8,225.3,141.8,225.3C141.8,225.3,141.8,225.3,141.8,225.3z"/>
	</g>
	<g>
		<path class="st2" d="M142.3,226.1C142.3,226.1,142.3,226.1,142.3,226.1L142.3,226.1L142.3,226.1z"/>
	</g>
	<g>
		<path class="st2" d="M141.9,225.3C141.9,225.2,141.8,225.3,141.9,225.3C141.9,225.3,141.9,225.3,141.9,225.3
			C141.9,225.3,141.9,225.3,141.9,225.3z"/>
	</g>
	<g>
		<path class="st2" d="M142.2,226.1c0,0,0-0.1-0.1-0.1C142.1,226.1,142.2,226.2,142.2,226.1z"/>
	</g>
	<g>
		<path class="st2" d="M141.8,225.4C141.8,225.4,141.8,225.4,141.8,225.4C141.8,225.4,141.8,225.4,141.8,225.4z"/>
	</g>
	<g>
		<path class="st2" d="M141.8,225.4C141.8,225.4,141.8,225.3,141.8,225.4C141.8,225.3,141.8,225.3,141.8,225.4
			C141.8,225.3,141.8,225.3,141.8,225.4z"/>
	</g>
	<g>
		<path class="st2" d="M142,224.5C142.1,224.7,142.1,224.8,142,224.5c0,0.2,0.2,0.8,0.3,1.1c0-0.1,0-0.1,0-0.2
			c-0.1-0.1-0.2-0.3-0.2-0.4c0,0,0.1,0.1,0.1,0.2C142.1,225,142.2,225,142,224.5l0.1,0.2C142,224.7,142,224.6,142,224.5z"/>
	</g>
	<g>
		<path class="st2" d="M142.2,226L142.2,226c0,0.1,0,0.1,0.1,0.3c0,0,0-0.1,0-0.2L142.2,226L142.2,226z"/>
	</g>
	<g>
		<path class="st2" d="M142.1,225.5c0-0.2,0-0.2-0.1-0.4c-0.1,0,0,0.1,0,0.2C142.1,225.3,142,225.3,142.1,225.5
			C142,225.5,142,225.5,142.1,225.5c0,0,0,0.1,0,0.1C142.1,225.6,142.1,225.6,142.1,225.5L142.1,225.5L142.1,225.5
			C142.1,225.5,142.1,225.5,142.1,225.5C142.1,225.5,142.1,225.5,142.1,225.5C142.1,225.5,142.1,225.5,142.1,225.5
			C142.1,225.5,142.1,225.5,142.1,225.5C142.1,225.5,142.1,225.6,142.1,225.5L142.1,225.5c0,0.1,0.1,0.1,0.1,0.1
			C142.1,225.5,142.1,225.5,142.1,225.5z"/>
	</g>
	<g>
		<path class="st2" d="M141.5,224.3C141.5,224.3,141.5,224.3,141.5,224.3C141.5,224.3,141.5,224.3,141.5,224.3z"/>
	</g>
	<g>
		<path class="st2" d="M141.5,224.4C141.5,224.4,141.5,224.5,141.5,224.4C141.5,224.4,141.5,224.4,141.5,224.4
			C141.5,224.3,141.4,224.4,141.5,224.4L141.5,224.4c0,0.2,0.1,0.4,0.1,0.4C141.5,224.6,141.5,224.5,141.5,224.4z"/>
	</g>
	<g>
		<path class="st2" d="M141.7,224.9C141.8,224.9,141.8,224.8,141.7,224.9l0-0.2l0,0.1C141.7,224.7,141.7,224.8,141.7,224.9z"/>
	</g>
	<g>
		<polygon class="st2" points="142.3,226.2 142.4,226.4 142.4,226.2 		"/>
	</g>
	<g>
		<polygon class="st2" points="142.4,226.3 142.5,226.5 142.5,226.4 		"/>
	</g>
	<g>
		<path class="st2" d="M142,223.1L142,223.1C142,223.1,142,223.1,142,223.1z"/>
	</g>
	<g>
		<path class="st2" d="M142,223.2L142,223.2C142,223.2,142,223.2,142,223.2z"/>
	</g>
	<g>
		<path class="st2" d="M144.1,227.2c0.1,0.2,0.3,0.4,0.2,0.2L144.1,227.2C144.2,227.2,144.2,227.2,144.1,227.2z"/>
	</g>
	<g>
		<path class="st2" d="M142.8,224.3C142.8,224.3,142.8,224.3,142.8,224.3C142.8,224.3,142.9,224.3,142.8,224.3
			C142.9,224.3,142.9,224.3,142.8,224.3z"/>
	</g>
	<g>
		<path class="st2" d="M142.3,223.9L142.3,223.9C142.4,224,142.3,223.9,142.3,223.9z"/>
	</g>
	<g>
		<path class="st2" d="M141.7,222.3l-0.1,0C141.6,222.3,141.6,222.3,141.7,222.3z"/>
	</g>
	<g>
		<path class="st2" d="M143.5,227.2c0.1,0.1,0.1,0.2,0.1,0.2C143.5,227.3,143.4,227,143.5,227.2z"/>
	</g>
	<g>
		<path class="st2" d="M143,222.9C143,222.9,143,222.9,143,222.9C143,222.9,143,222.9,143,222.9z"/>
	</g>
	<g>
		<path class="st2" d="M143.7,227.5C143.7,227.5,143.7,227.5,143.7,227.5C143.7,227.5,143.7,227.5,143.7,227.5
			C143.7,227.6,143.8,227.7,143.7,227.5z"/>
	</g>
	<g>
		<path class="st2" d="M141.1,219.4C141.1,219.4,141.1,219.4,141.1,219.4C141.1,219.4,141.1,219.4,141.1,219.4z"/>
	</g>
	<g>
		<path class="st2" d="M141.9,218.3C141.9,218.3,141.9,218.3,141.9,218.3C141.9,218.3,141.9,218.3,141.9,218.3z"/>
	</g>
	<g>
		<path class="st2" d="M142.9,226.8C142.9,226.8,142.9,226.8,142.9,226.8L142.9,226.8z"/>
	</g>
	<g>
		<path class="st2" d="M142.5,225.8C142.5,225.8,142.5,225.8,142.5,225.8C142.5,225.8,142.5,225.8,142.5,225.8z"/>
	</g>
	<g>
		<path class="st2" d="M143,226L143,226C143,225.9,143,226,143,226z"/>
	</g>
	<g>
		<path class="st2" d="M142.8,226.7C142.9,226.7,142.9,226.7,142.8,226.7C142.9,226.7,142.9,226.7,142.8,226.7z"/>
	</g>
	<g>
		<path class="st2" d="M142.9,226.8C142.9,226.7,142.9,226.7,142.9,226.8C142.9,226.8,142.9,226.8,142.9,226.8z"/>
	</g>
	<g>
		<path class="st2" d="M142.9,226.8C142.9,226.8,142.9,226.8,142.9,226.8C142.9,226.8,142.9,226.8,142.9,226.8
			C142.9,226.8,142.9,226.8,142.9,226.8z"/>
	</g>
	<g>
		<path class="st2" d="M141.7,220.9C141.7,220.9,141.7,220.9,141.7,220.9C141.7,220.9,141.7,220.9,141.7,220.9z"/>
	</g>
	<g>
		<polygon class="st2" points="142.4,224.4 142.4,224.4 142.4,224.4 		"/>
	</g>
	<g>
		<path class="st2" d="M142.3,224.2c0.2,0.2,0.2,0.2,0.1,0.2l0.4,0.5L142.3,224.2z"/>
	</g>
	<g>
		<path class="st2" d="M141.9,222.7L141.9,222.7c-0.2,0-0.2,0-0.3,0.1c0.3-0.1,0.1,0.2,0.4,0.1l-0.1,0c0,0,0,0,0,0
			c-0.1,0.1,0.2,0,0.2,0.1c0,0-0.1,0.1-0.1,0.1l0.1,0c0,0-0.1,0-0.1,0l0,0.1l0,0c0.1,0,0.1,0,0.2,0c0,0,0,0-0.1,0l0.1,0
			c-0.1,0-0.2,0-0.2,0c-0.3,0.1,0.1,0-0.1,0.2l-0.1,0c-0.2,0.1-0.1,0.1-0.2,0.2c0.1,0,0.2-0.2,0.3-0.1c0,0,0,0,0,0.1
			c-0.1,0-0.1,0.1-0.1,0.1l-0.1,0c0,0,0.1,0,0.2,0c0,0-0.1,0-0.2,0c0,0,0.2,0,0.2,0c-0.1,0,0,0,0.1,0.1c0,0-0.1,0-0.1,0
			c0,0,0.1,0,0.1,0c0,0,0,0-0.1,0c0.1,0,0.2,0,0.2,0.1c0.1,0,0,0,0,0c-0.1,0-0.1,0,0,0c0,0-0.1,0-0.2-0.1c0.1,0.1,0.1,0.1,0.3,0.2
			c0,0-0.1,0-0.1,0c0.1,0,0.3,0.2,0.4,0.3c0.1,0,0.1,0,0.1,0.1l0.1,0.1c0,0-0.1-0.1-0.2-0.1c0,0,0,0,0,0c-0.1,0-0.2-0.1-0.3-0.2
			c0,0,0.1,0,0.1,0c-0.1-0.1-0.2-0.2-0.3-0.2c0,0,0,0,0.1,0c0,0-0.1,0-0.1,0c0,0,0,0,0.1,0.1l-0.2-0.1l0.1,0.1c0,0-0.1,0-0.1,0
			c0.2,0.2,0.5,0.5,0.7,0.7c-0.2-0.2-0.3-0.2-0.4-0.4c0.2,0.2-0.1-0.1-0.1-0.1c0,0-0.1-0.1-0.1-0.1c0.1,0.1,0.1,0.1,0.2,0.2
			c-0.2-0.1-0.1-0.1-0.2-0.1c0.3,0.3,0.2,0.2,0.3,0.4c-0.1-0.1-0.2-0.2-0.2-0.2c-0.1-0.1,0,0,0.1,0.1c0.1,0.1,0.2,0.2,0.1,0.1
			c0,0,0,0,0-0.1c0.1,0.1,0,0.1-0.1,0l0,0c0,0,0,0.1,0.3,0.5c0,0-0.3-0.4-0.4-0.5c0.3,0.4,0.7,0.9,1,1.3c-0.3-0.3-0.8-1.1-1-1.3
			c0,0-0.1-0.1,0,0.1c0,0,0.4,0.5,0.4,0.5c-0.3-0.3-0.1-0.2-0.4-0.5c0,0,0.1,0.2,0.2,0.3c0.1,0.1,0.1,0.1,0.1,0.2
			c0,0.1,0.1,0.1,0.1,0.1c-0.1-0.1-0.4-0.6-0.4-0.6c0.1,0.2,0.3,0.4,0.4,0.6c-0.1-0.1-0.3-0.5-0.5-0.6c0.1,0.1,0,0,0,0.1l0.1,0.1
			c-0.1,0,0.6,0.9,0.6,1c-0.1-0.1-0.5-0.8-0.6-0.9c0.1,0.2,0.4,0.6,0.6,1c0.3,0.4,0.5,0.9,0.6,1.1l-0.1-0.2l0.2,0.3
			c-0.2-0.3-0.4-0.8-0.7-1.2c-0.3-0.4-0.5-0.8-0.6-1.1c-0.1-0.1-0.1-0.2-0.1-0.2c-0.1-0.2-0.2-0.3-0.2-0.3l-0.1-0.1
			c0.3,0.4,0.3,0.5,0.5,0.8l-0.3-0.5c0.1,0.2,0.3,0.5,0.5,0.8c0.2,0.3,0.3,0.5,0.3,0.5c-0.1-0.2-0.5-0.8-0.6-0.9
			c0.1,0.2,0.2,0.3,0.1,0.2l-0.1-0.3c-0.1-0.2,0.4,0.6,0.1,0.2c0,0,0-0.1-0.1-0.1c-0.1-0.2-0.2-0.4-0.1-0.2c0.3,0.5,1.3,2.2,1.5,2.6
			c0,0-0.4-0.6-0.5-0.9c-0.3-0.4-0.5-1-0.7-1.3c0.1,0.1,0.1,0.3,0.2,0.3c-0.1-0.1-0.2-0.4-0.2-0.3c0.3,0.5-0.1-0.1,0.2,0.4
			c0,0.1-0.1-0.1-0.1-0.1c0.2,0.3,0.5,1,0.5,1c-0.1-0.1-0.1-0.3-0.2-0.3c-0.1-0.1-0.2-0.3-0.3-0.4c-0.1-0.1-0.1-0.2-0.2-0.4
			c0,0.1,0.1,0.2,0.1,0.2c-0.2-0.4,0,0-0.2-0.5c0.1,0.2,0.1,0.3,0.2,0.4c0.2,0.4,0.1,0.1,0,0c0.3,0.5,0.5,1,0.5,1.1
			c0,0.1-0.2-0.3-0.2-0.3c-0.1-0.2,0.3,0.7,0,0.3c-0.2-0.3-0.2-0.6-0.3-0.8c0-0.1,0.1,0.2,0.2,0.3l-0.1-0.2c0-0.1,0-0.1,0,0
			c-0.1-0.3-0.2-0.2-0.4-0.5c0,0.1,0,0.2,0.1,0.3l0,0c0.1,0.2,0.1,0.3,0.1,0.4c0,0.1,0.1,0.3,0,0.1l-0.1-0.3c0,0.1,0.1,0.2,0.1,0.1
			c0,0.1-0.2-0.5-0.1-0.1l0.1,0.2c0,0.1,0,0.3,0,0.2c0.1,0.3,0,0,0.1,0.3c-0.2-0.4,0.2,0.2,0-0.3c0.2,0.4,0.1,0.2,0.3,0.6
			c0-0.1-0.1-0.2,0-0.1c0,0,0-0.1,0-0.1c0,0,0,0,0,0l0,0c0,0,0,0,0,0c0-0.1-0.1-0.1-0.1-0.2c-0.1-0.2,0-0.1,0-0.2
			c0,0.1,0,0.1,0.1,0.2l0-0.1c0.1,0.2,0.2,0.5,0.2,0.5l0.1,0.1c0.1,0.2,0.2,0.3,0.2,0.2c0.1,0.1,0-0.2,0,0c0,0,0,0,0-0.1l0,0.1
			c0.1,0.1,0.1,0,0.1,0c0,0,0.1,0,0.3,0.3c0,0,0-0.1,0.1,0l0.1,0.3c0,0,0.3,0.4,0.2,0.1c0.2,0.4,0.3,0.5,0.3,0.5c0,0,0.1,0,0.1,0.1
			l-0.2-0.3c0.1,0.1,0.1,0,0.1,0c0,0,0-0.1-0.1-0.1l-0.2-0.3c-0.2-0.3,0.1,0,0-0.1c0.1,0.1,0.1,0.1,0,0.1c0.2,0.3,0.1,0.1,0-0.2
			c-0.1-0.2-0.2-0.4-0.1-0.3c-0.1-0.1-0.1-0.1,0-0.1c0,0,0,0,0,0c0,0,0,0,0,0c0,0,0.1,0.1,0.1,0.1c0,0-0.1-0.1-0.1-0.1
			c0,0,0-0.1-0.1-0.2l0.2,0.2c0,0,0,0,0,0c0.1,0.1-0.1-0.2-0.2-0.3c0-0.1-0.1-0.1-0.1-0.2c0.3,0.4-0.1-0.2,0.2,0.2
			c-0.2-0.2-0.2-0.3-0.5-0.8c0,0.1,0.1,0.1,0.1,0.1c0,0,0.1,0,0-0.1l0.2,0.3l-0.3-0.5c0.1,0.1,0.2,0.2,0.4,0.5
			c-0.3-0.4-0.1-0.2-0.4-0.6l0.1,0.2c0,0-0.2-0.3-0.1-0.2c0.1,0.1,0.1,0,0.1-0.1c0-0.1,0-0.2,0-0.2c-0.3-0.3,0.1,0-0.1-0.2
			c0.1,0.1,0.1,0.1,0.2,0.2c-0.1-0.2,0.1-0.1-0.2-0.3c0.1,0,0.1,0.1,0.2,0.1c0,0-0.1-0.1,0-0.1c0,0,0.1,0.1,0.1,0.1
			c0-0.1-0.3-0.3-0.5-0.5c0.1,0,0.1,0-0.1-0.1c0.1,0,0.1,0,0.2,0.1c0,0,0-0.2-0.1-0.3c0,0,0,0,0-0.1c0-0.1,0-0.1,0-0.2l0,0
			c-0.2-0.1-0.1-0.1-0.1-0.1l0,0c0.1-0.1-0.1-0.1,0-0.2l-0.1,0c-0.1,0-0.1,0,0-0.1c0,0,0.1-0.1,0.1-0.1l-0.1,0c0,0,0-0.1,0.1-0.1
			c0.1,0,0.2-0.1,0.2-0.1c0,0,0,0,0.1,0c0.1-0.2-0.1,0-0.2-0.1c0.1,0,0.2,0,0.2-0.1c0.1,0-0.3-0.1-0.1-0.2c-0.1,0-0.1,0.1-0.2,0
			c0,0,0.2-0.2,0-0.2c0,0,0,0,0,0c-0.1,0-0.1-0.1-0.2-0.1c0.4-0.1-0.2-0.2,0.1-0.3l0-0.1l0,0c0-0.1-0.1-0.1-0.2-0.1c0,0,0.1,0,0.1,0
			c0-0.1,0-0.1-0.2-0.2l0.1,0c-0.1,0,0.1-0.2,0-0.3c0,0,0,0,0.1,0c-0.2-0.1,0.2-0.3-0.2-0.3l-0.1-0.1c0,0.1-0.2,0-0.2,0.1
			c0,0,0.1-0.1,0.1-0.1l0,0c0.2,0,0-0.1,0.2-0.2c-0.1-0.2,0-0.4,0-0.6l-0.2,0.1l0-0.1c0,0,0.1-0.1,0.1,0c0.1,0-0.1-0.1-0.1,0
			c0-0.1,0.2,0,0.2,0l0,0l0,0c-0.1,0-0.1,0-0.2-0.1c0,0,0.1,0,0.1-0.1c0,0,0,0,0,0l0-0.1l-0.1,0.1c-0.1,0,0-0.1-0.1,0
			c0.2-0.1,0-0.3,0.1-0.4c-0.1,0-0.1-0.1-0.1-0.1c0,0-0.2,0.1-0.2,0c0.3-0.1,0.1-0.1,0.3-0.2c-0.1,0.1-0.1-0.1-0.3,0
			c0,0,0.1,0,0.2-0.1c-0.1-0.1,0-0.2,0-0.4c0,0-0.1,0-0.2,0l0.2-0.1c0,0-0.2,0-0.1,0c0,0-0.1,0-0.1,0c0.1-0.3-0.3-0.5,0-0.8
			c-0.1,0.1-0.1,0-0.1,0c0,0-0.1,0-0.2,0l0.1-0.1c-0.2,0,0-0.1-0.2-0.1l0,0c-0.2,0-0.4,0.2-0.6,0.2c0.2,0-0.3,0.2,0,0.2
			c0,0-0.1,0-0.1,0c0.1,0,0.1,0,0.1,0.1l0,0c0.1,0.1,0,0.2,0,0.4l0.1,0c0,0,0,0-0.1,0.1c0.2,0,0-0.1,0.2-0.1
			c-0.2,0.1,0.1,0.2-0.2,0.3c0,0,0.1,0,0.1,0l-0.1,0l0.1,0c0,0-0.1,0.1-0.1,0.1c0,0,0,0,0,0c-0.1,0.1,0.1,0.1,0,0.1l0-0.1
			c0.1,0.1,0,0.3,0.2,0.4l0,0c0.1,0.1,0,0.1,0,0.2l0,0c0.1,0,0.1,0,0.1,0.1c-0.1,0-0.1,0.1-0.2,0.1c0.1,0.1,0.1,0,0.3,0.1l-0.1,0
			c0.1,0,0.1,0,0.2,0c-0.1,0-0.1,0.1-0.2,0c-0.2,0.2,0.2,0.1,0,0.2c0.2,0,0.1-0.1,0.2-0.1c0.1,0,0.2,0,0.2,0c0,0-0.3,0.1-0.3,0.2
			c0,0,0,0,0,0c-0.1,0,0.1,0,0,0.1c0.1,0,0,0.1,0.2,0l-0.1-0.1c0.1,0,0.3,0,0.2,0.1c0,0-0.1,0-0.1,0c0,0,0,0,0,0.1
			c-0.2,0-0.1-0.1-0.2-0.1c-0.1,0,0.2,0.1,0,0.1c0.3,0,0,0.1,0.2,0.1l-0.1,0c0,0,0.1,0,0.1,0l-0.1,0c0.1,0-0.1,0.1,0,0.2
			c0-0.1,0.1-0.1,0.2-0.1c0.2,0.1-0.3,0.1-0.2,0.3c0,0,0-0.1,0.1-0.1c0,0,0,0.1-0.1,0.1c0,0.1,0.1,0,0.2,0c-0.1,0.1,0.1,0,0.1,0.1
			l-0.1,0c0,0.1,0.2,0,0.2,0.1l-0.2,0l0.1,0l-0.1,0c0.1,0,0.1,0.1,0.1,0.1c0.1,0,0.2,0,0.2,0c-0.1,0-0.1,0-0.1,0.1
			c-0.1,0-0.2,0-0.1,0c0,0-0.1,0-0.1,0c-0.1,0.1,0,0.1,0,0.1c0,0,0,0,0,0l0.2,0.1c0,0-0.1,0-0.1,0c0,0,0.1,0,0.1,0
			c-0.1,0-0.2,0-0.2,0l0.1,0.1c0,0-0.1,0.1-0.1,0.1c0,0.1,0.2,0.1,0.1,0.2c0,0,0,0,0.1,0c0,0.1-0.1,0.1,0,0.2l-0.1,0.1
			c0,0,0.2-0.1,0.3,0c0.1,0.1-0.1,0.1-0.2,0.1C141.9,222.7,142,222.7,141.9,222.7C141.9,222.8,141.9,222.7,141.9,222.7z
			 M142.1,223.4C142.1,223.4,142,223.4,142.1,223.4C142.2,223.4,142.2,223.4,142.1,223.4z M142.6,224.2
			C142.5,224.1,142.6,224.1,142.6,224.2C142.6,224.2,142.6,224.2,142.6,224.2z M143.1,226.8C143.1,226.8,143.1,226.8,143.1,226.8
			C143.1,226.9,143.1,226.9,143.1,226.8z M142.9,226.6c0,0,0,0.1,0,0.1C143,226.7,143,226.7,142.9,226.6
			C143,226.6,142.9,226.6,142.9,226.6z M142.4,220.5L142.4,220.5C142.3,220.5,142.4,220.5,142.4,220.5z"/>
	</g>
	<g>
		<path class="st2" d="M142.4,224C142.4,224,142.4,224,142.4,224C142.4,224,142.4,224,142.4,224z"/>
	</g>
	<g>
		<polygon class="st2" points="141.7,222.3 141.7,222.3 141.7,222.3 		"/>
	</g>
	<g>
		<path class="st2" d="M142.5,224.9c0,0.1,0.1,0.1,0.1,0.2C142.5,225,142.5,224.9,142.5,224.9z"/>
	</g>
	<g>
		<path class="st2" d="M142.7,226.7L142.7,226.7c0,0,0-0.1,0-0.1C142.7,226.6,142.7,226.7,142.7,226.7z"/>
	</g>
	<g>
		<path class="st2" d="M141.9,224.6C141.9,224.6,141.9,224.6,141.9,224.6l0,0.1C141.9,224.7,141.9,224.6,141.9,224.6z"/>
	</g>
	<g>
		<path class="st2" d="M140.1,223.6c0,0-0.1,0.1-0.1,0.1C140.1,223.7,140.1,223.6,140.1,223.6z"/>
	</g>
	<g>
		<path class="st2" d="M140.6,223.7L140.6,223.7C140.7,223.8,140.7,223.7,140.6,223.7L140.6,223.7z"/>
	</g>
	<g>
		<path class="st2" d="M141,224c0-0.2-0.1-0.1-0.2-0.2l0,0l-0.1,0.1C140.8,223.9,140.9,223.9,141,224z"/>
	</g>
	<g>
		<path class="st2" d="M141.1,224.6C141.1,224.5,141.1,224.6,141.1,224.6C141,224.5,141,224.5,141.1,224.6
			C141,224.6,141,224.6,141.1,224.6z"/>
	</g>
	<g>
		<path class="st2" d="M141,224.5C141,224.5,141,224.6,141,224.5L141,224.5z"/>
	</g>
	<g>
		<path class="st2" d="M141.1,225.1c0.1,0,0.1-0.3,0.1-0.4l-0.1,0C141.2,224.7,141.2,225.1,141.1,225.1"/>
	</g>
	<g>
		<path class="st2" d="M141.3,224.5L141.3,224.5C141.3,224.6,141.3,224.6,141.3,224.5z"/>
	</g>
	<g>
		<path class="st2" d="M141.2,224.6L141.2,224.6C141.2,224.5,141.3,224.4,141.2,224.6C141.2,224.5,141.2,224.5,141.2,224.6z"/>
	</g>
	<g>
		<path class="st2" d="M141.2,224.5c0-0.1-0.1-0.1,0-0.2C141.1,224.3,141.1,224.5,141.2,224.5z"/>
	</g>
	<g>
		<path class="st2" d="M141,223.8L141,223.8L141,223.8C141,223.8,141,223.9,141,223.8z"/>
	</g>
	<g>
		<path class="st2" d="M141.6,225.1c0,0,0-0.2,0-0.2l0,0C141.5,224.9,141.6,225,141.6,225.1z"/>
	</g>
	<g>
		<path class="st2" d="M141.5,224.8C141.5,224.8,141.6,224.8,141.5,224.8C141.5,224.7,141.5,224.8,141.5,224.8z"/>
	</g>
	<g>
		<path class="st2" d="M141.3,224.3C141.3,224.3,141.2,224.4,141.3,224.3C141.2,224.4,141.3,224.3,141.3,224.3L141.3,224.3z"/>
	</g>
	<g>
		<path class="st2" d="M141.7,225.6c0,0,0.1-0.4,0.1-0.4l0,0L141.7,225.6"/>
	</g>
	<g>
		<path class="st2" d="M142.1,225.8c0,0,0-0.3-0.1-0.4c0,0.1,0,0.5,0,0.5"/>
	</g>
	<g>
		<path class="st2" d="M142.1,226.2c0,0,0-0.3,0.1-0.4C142.1,225.9,142.1,226.2,142.1,226.2"/>
	</g>
	<g>
		<path class="st2" d="M141.7,224.9c0,0,0,0.1,0.1,0.2L141.7,224.9C141.7,224.9,141.7,224.9,141.7,224.9z"/>
	</g>
	<g>
		<path class="st2" d="M141.7,224.9L141.7,224.9C141.7,224.9,141.7,225,141.7,224.9C141.7,225,141.7,224.9,141.7,224.9z"/>
	</g>
	<g>
		<path class="st2" d="M141.7,224.9L141.7,224.9C141.7,224.9,141.7,224.9,141.7,224.9z"/>
	</g>
	<g>
		<path class="st2" d="M141.4,224.5c0-0.1,0.1-0.1,0-0.3C141.4,224.3,141.5,224.4,141.4,224.5z"/>
	</g>
	<g>
		<path class="st2" d="M141.6,224.7L141.6,224.7C141.6,224.6,141.6,224.7,141.6,224.7C141.6,224.7,141.6,224.7,141.6,224.7z"/>
	</g>
	<g>
		<polygon class="st2" points="141.6,224.7 141.6,224.7 141.6,224.7 		"/>
	</g>
	<g>
		<path class="st2" d="M142,225.2C142,225.1,142,225.2,142,225.2c0-0.1,0-0.1,0-0.2C141.9,225.1,141.9,225.2,142,225.2z"/>
	</g>
	<g>
		<path class="st2" d="M141.8,225C141.8,225,141.8,225,141.8,225C141.8,225,141.8,225,141.8,225z"/>
	</g>
	<g>
		<path class="st2" d="M141.9,225C141.9,224.9,141.9,225,141.9,225C141.9,225,141.9,225,141.9,225C141.9,225,141.9,225,141.9,225z"
			/>
	</g>
	<g>
		<path class="st2" d="M142.2,225.9c0,0,0-0.1-0.1-0.1C142.2,225.8,142.2,225.9,142.2,225.9z"/>
	</g>
	<g>
		<path class="st2" d="M141.9,225.1C141.9,225.1,141.9,225.1,141.9,225.1C141.9,225.1,141.9,225.1,141.9,225.1z"/>
	</g>
	<g>
		<path class="st2" d="M141.9,225.1C141.9,225.1,141.9,225,141.9,225.1C141.9,225,141.8,225,141.9,225.1
			C141.8,225,141.9,225.1,141.9,225.1z"/>
	</g>
	<g>
		<path class="st2" d="M142.2,225.2c-0.1-0.2,0-0.5-0.1-0.9l0,0.1c0-0.1,0-0.1-0.1-0.2c0.1,0.2,0.1,0.3,0,0.1c0,0.1,0.2,1,0.3,1.3"
			/>
	</g>
	<g>
		<path class="st2" d="M142.3,225.9c0-0.1-0.1-0.6-0.1-0.7c0,0,0,0.4,0.1,0.5"/>
	</g>
	<g>
		<path class="st2" d="M142.3,226.1l-0.1-0.4l0,0l0,0c0,0,0,0.4,0.1,0.6"/>
	</g>
	<g>
		<path class="st2" d="M142.1,225.2c0-0.2,0-0.2-0.1-0.4c-0.1,0,0,0.1,0,0.2C142.1,225,142,225,142.1,225.2
			C142.1,225.2,142.1,225.2,142.1,225.2c0,0,0,0.1,0,0.1C142.1,225.3,142.1,225.3,142.1,225.2L142.1,225.2L142.1,225.2
			C142.1,225.3,142.1,225.2,142.1,225.2C142.1,225.3,142.1,225.3,142.1,225.2C142.1,225.2,142.1,225.2,142.1,225.2
			C142.1,225.3,142.1,225.2,142.1,225.2C142.1,225.3,142.1,225.3,142.1,225.2L142.1,225.2c0,0.1,0.1,0.1,0.1,0.1
			C142.2,225.2,142.1,225.2,142.1,225.2z"/>
	</g>
	<g>
		<path class="st2" d="M141.5,224C141.5,224,141.5,224,141.5,224C141.5,224,141.5,224,141.5,224z"/>
	</g>
	<g>
		<path class="st2" d="M141.5,224.1C141.5,224.1,141.5,224.2,141.5,224.1C141.5,224.1,141.5,224.1,141.5,224.1
			C141.5,224.1,141.5,224.1,141.5,224.1L141.5,224.1c0,0.2,0.1,0.4,0.1,0.4C141.6,224.4,141.6,224.3,141.5,224.1z"/>
	</g>
	<g>
		<path class="st2" d="M141.8,224.6C141.8,224.6,141.8,224.6,141.8,224.6l0-0.2l0,0.1C141.7,224.4,141.8,224.5,141.8,224.6z"/>
	</g>
	<g>
		<path class="st2" d="M141.9,224.3C141.9,224.3,141.9,224.3,141.9,224.3l0,0.1C142,224.4,142,224.3,141.9,224.3z"/>
	</g>
	<g>
		<path class="st2" d="M142.4,225.9c-0.1-0.2-0.1-0.1-0.1-0.1c0,0,0,0,0,0C142.4,226,142.4,225.9,142.4,225.9z"/>
	</g>
	<g>
		<path class="st2" d="M142.3,225.7C142.3,225.7,142.3,225.7,142.3,225.7C142.3,225.8,142.3,225.7,142.3,225.7z"/>
	</g>
	<g>
		<path class="st2" d="M142.9,226.7c0-0.1,0.1,0.3,0.1,0.2C143.1,227.1,142.9,226.6,142.9,226.7z"/>
	</g>
	<g>
		<polygon class="st2" points="142.2,225.2 142.3,225.5 142.2,225.3 		"/>
	</g>
	<g>
		<path class="st2" d="M142.4,225.6l-0.1-0.1C142.4,225.5,142.4,225.5,142.4,225.6C142.4,225.6,142.5,225.7,142.4,225.6z"/>
	</g>
	<g>
		<path class="st2" d="M142.4,225.6C142.4,225.5,142.4,225.5,142.4,225.6C142.4,225.6,142.4,225.6,142.4,225.6z"/>
	</g>
	<g>
		<polygon class="st2" points="142.2,225.2 142.2,225.3 142.3,225.3 		"/>
	</g>
	<g>
		<path class="st2" d="M142.9,226L142.9,226c0-0.1-0.1-0.2-0.1-0.2C142.8,225.9,142.8,225.9,142.9,226z"/>
	</g>
	<g>
		<path class="st2" d="M142.4,225.1c0,0.1,0.1,0.1,0.1,0.2l-0.2-0.3L142.4,225.1z"/>
	</g>
	<g>
		<path class="st2" d="M142.4,225.1c0-0.1-0.1-0.2-0.1-0.3C142.4,225,142.4,225,142.4,225.1z"/>
	</g>
	<g>
		<polygon class="st2" points="143.2,226.1 143.2,226.1 143.6,226.8 		"/>
	</g>
	<g>
		<path class="st2" d="M142.2,224.2c-0.1-0.1,0.2,0.4,0.1,0.2c0.1,0.1,0.1,0.1,0.2,0.2C142.4,224.5,142.4,224.6,142.2,224.2z"/>
	</g>
	<g>
		<path class="st2" d="M142.5,224.7C142.5,224.7,142.5,224.8,142.5,224.7C142.5,224.8,142.5,224.7,142.5,224.7z"/>
	</g>
	<g>
		<polygon class="st2" points="141.9,218.1 142,218.1 141.9,218.1 		"/>
	</g>
	<g>
		<path class="st2" d="M141.8,218.1l0.1,0L141.8,218.1C141.8,218.1,141.8,218.1,141.8,218.1z"/>
	</g>
	<g>
		<path class="st2" d="M141.9,223.6L141.9,223.6C141.9,223.6,141.9,223.6,141.9,223.6C141.9,223.6,141.9,223.6,141.9,223.6z"/>
	</g>
	<g>
		<polygon class="st2" points="141.8,223.1 141.8,223.1 142,223 		"/>
	</g>
	<g>
		<path class="st2" d="M141.6,222.7C141.6,222.7,141.6,222.7,141.6,222.7C141.6,222.7,141.7,222.6,141.6,222.7z"/>
	</g>
</g>
<g>
	<g>
		<path class="st2" d="M142.1,220.7c0,0-0.1,0-0.1,0C142.1,220.8,142.2,220.7,142.1,220.7z"/>
	</g>
	<g>
		<polygon class="st2" points="142.8,221.1 142.8,221.1 142.9,221.1 		"/>
	</g>
	<g>
		<path class="st2" d="M143.3,221.6c0.1-0.2-0.2-0.2-0.2-0.3l0,0l-0.1,0.1C143,221.4,143.2,221.5,143.3,221.6z"/>
	</g>
	<g>
		<path class="st2" d="M143.2,222.2C143.3,222.1,143.3,222.2,143.2,222.2C143.2,222.1,143.2,222.1,143.2,222.2
			C143.2,222.1,143.2,222.1,143.2,222.2z"/>
	</g>
	<g>
		<path class="st2" d="M143.2,222.1C143.1,222,143.2,222.2,143.2,222.1L143.2,222.1z"/>
	</g>
	<g>
		<path class="st2" d="M143.4,222.3l-0.1,0c0,0,0,0.1,0,0.1C143.4,222.5,143.4,222.4,143.4,222.3z"/>
	</g>
	<g>
		<path class="st2" d="M143.6,222.3L143.6,222.3C143.5,222.3,143.5,222.3,143.6,222.3z"/>
	</g>
	<g>
		<path class="st2" d="M143.4,222.2l0.1,0C143.5,222.3,143.6,222.2,143.4,222.2C143.5,222.2,143.5,222.2,143.4,222.2z"/>
	</g>
	<g>
		<path class="st2" d="M143.4,222.2c0-0.1,0-0.1,0.1-0.1C143.3,222,143.3,222.1,143.4,222.2z"/>
	</g>
	<g>
		<path class="st2" d="M143.4,221.5L143.4,221.5L143.4,221.5C143.4,221.4,143.4,221.6,143.4,221.5z"/>
	</g>
	<g>
		<path class="st2" d="M143.8,222.8c0,0,0.1-0.1,0.1-0.1l-0.1,0C143.8,222.7,143.8,222.8,143.8,222.8z"/>
	</g>
	<g>
		<path class="st2" d="M143.8,222.7l0.1,0C143.9,222.7,143.9,222.7,143.8,222.7z"/>
	</g>
	<g>
		<polygon class="st2" points="143.7,222.2 143.5,222.1 143.8,222.2 		"/>
	</g>
	<g>
		<polygon class="st2" points="144,223.1 143.9,223.1 144.1,223.1 		"/>
	</g>
	<g>
		<path class="st2" d="M144.2,223.3c-0.1,0,0,0.1-0.1,0.1c0.1,0,0.2,0,0.2,0C144.3,223.5,144.2,223.4,144.2,223.3z"/>
	</g>
	<g>
		<path class="st2" d="M144.5,223.5c0,0-0.1,0-0.1,0C144.4,223.5,144.4,223.5,144.5,223.5z"/>
	</g>
	<g>
		<path class="st2" d="M144.1,222.9c0,0,0,0.1,0,0.1L144.1,222.9C144.1,222.9,144.1,222.9,144.1,222.9z"/>
	</g>
	<g>
		<path class="st2" d="M144.1,222.9L144.1,222.9C144.1,222.9,144.2,223,144.1,222.9C144.2,223,144.1,222.9,144.1,222.9z"/>
	</g>
	<g>
		<path class="st2" d="M144.1,222.9L144.1,222.9C144.1,222.9,144.1,222.9,144.1,222.9z"/>
	</g>
	<g>
		<path class="st2" d="M143.9,222.4c0.1,0,0.2,0.1,0.2-0.1C144,222.4,144,222.5,143.9,222.4z"/>
	</g>
	<g>
		<path class="st2" d="M144.1,222.7L144.1,222.7c-0.1-0.1-0.1,0-0.1,0L144.1,222.7z"/>
	</g>
	<g>
		<polygon class="st2" points="144.2,222.8 144.1,222.7 144.2,222.8 		"/>
	</g>
	<g>
		<path class="st2" d="M144.4,223.3c0.1,0,0.1,0,0.2,0.1C144.5,223.3,144.5,223.3,144.4,223.3C144.4,223.2,144.4,223.2,144.4,223.3z
			"/>
	</g>
	<g>
		<path class="st2" d="M144.3,223.1L144.3,223.1C144.3,223.1,144.3,223.1,144.3,223.1z"/>
	</g>
	<g>
		<path class="st2" d="M145,223.8C145,223.8,145,223.8,145,223.8L145,223.8L145,223.8z"/>
	</g>
	<g>
		<path class="st2" d="M144.5,223.2c0,0-0.1-0.1-0.1,0C144.4,223.2,144.4,223.2,144.5,223.2C144.5,223.2,144.5,223.2,144.5,223.2z"
			/>
	</g>
	<g>
		<path class="st2" d="M144.6,223.6c0,0,0-0.1,0-0.1C144.6,223.5,144.6,223.6,144.6,223.6z"/>
	</g>
	<g>
		<path class="st2" d="M144.3,223.1C144.3,223.1,144.3,223.1,144.3,223.1C144.3,223.2,144.3,223.1,144.3,223.1z"/>
	</g>
	<g>
		<path class="st2" d="M144.3,223.1C144.3,223.1,144.3,223.1,144.3,223.1C144.3,223.1,144.3,223.1,144.3,223.1
			C144.3,223.1,144.3,223.1,144.3,223.1z"/>
	</g>
	<g>
		<path class="st2" d="M145.6,223.4c-0.1,0.1-0.2,0-0.2-0.1c-0.1,0-0.3,0.3-0.4,0.5c0,0,0.1-0.1,0.2,0c0-0.1-0.1-0.3,0-0.3
			c0.1,0.1,0.1,0.1,0.1,0.2c0-0.1,0.3,0,0.4-0.1L145.6,223.4C145.5,223.5,145.6,223.5,145.6,223.4z"/>
	</g>
	<g>
		<path class="st2" d="M144.9,223.6L144.9,223.6c0,0,0,0.1,0,0.2c0.1,0,0.1,0,0.2,0L144.9,223.6L144.9,223.6z"/>
	</g>
	<g>
		<path class="st2" d="M144.7,223.4c0.1,0,0.2,0,0.3-0.1c-0.1-0.1-0.1,0-0.2,0C144.9,223.4,144.6,223.3,144.7,223.4
			C144.6,223.4,144.6,223.4,144.7,223.4C144.6,223.4,144.6,223.4,144.7,223.4L144.7,223.4L144.7,223.4L144.7,223.4
			C144.6,223.5,144.6,223.5,144.7,223.4C144.6,223.5,144.6,223.5,144.7,223.4C144.6,223.5,144.7,223.5,144.7,223.4
			C144.7,223.5,144.7,223.5,144.7,223.4C144.6,223.5,144.6,223.5,144.7,223.4L144.7,223.4l0.1,0.1
			C144.8,223.5,144.7,223.5,144.7,223.4z"/>
	</g>
	<g>
		<path class="st2" d="M144.3,222.3C144.3,222.3,144.3,222.3,144.3,222.3C144.3,222.3,144.3,222.3,144.3,222.3z"/>
	</g>
	<g>
		<path class="st2" d="M144.3,222.4C144.3,222.4,144.3,222.4,144.3,222.4C144.2,222.3,144.3,222.3,144.3,222.4
			c-0.1-0.1-0.2-0.1-0.1,0l0,0c0,0.1,0,0.3,0,0.3C144.3,222.6,144.3,222.5,144.3,222.4z"/>
	</g>
	<g>
		<path class="st2" d="M144.5,222.9l0.2,0.1l0-0.1l0,0C144.6,222.8,144.6,222.9,144.5,222.9z"/>
	</g>
	<g>
		<polygon class="st2" points="145,223.8 144.9,223.9 145.1,223.9 		"/>
	</g>
	<g>
		<polygon class="st2" points="145.1,224 145.1,224.1 145.1,224.1 		"/>
	</g>
	<g>
		<path class="st2" d="M147.7,224.2L147.7,224.2C147.7,224.2,147.7,224.2,147.7,224.2z"/>
	</g>
	<g>
		<path class="st2" d="M147.9,224.5L147.9,224.5C147.9,224.5,147.9,224.5,147.9,224.5z"/>
	</g>
	<g>
		<path class="st2" d="M149.5,227.8c0,0.1,0,0.3,0,0.2L149.5,227.8C149.5,227.9,149.5,227.9,149.5,227.8z"/>
	</g>
	<g>
		<path class="st2" d="M150.2,226.7C150.2,226.8,150.2,226.8,150.2,226.7c0,0,0.1,0,0.1,0C150.2,226.8,150.2,226.7,150.2,226.7z"/>
	</g>
	<g>
		<path class="st2" d="M149.8,227l0-0.1C149.8,226.9,149.8,226.9,149.8,227z"/>
	</g>
	<g>
		<path class="st2" d="M146.4,222.5l-0.1,0C146.3,222.6,146.4,222.6,146.4,222.5z"/>
	</g>
	<g>
		<path class="st2" d="M146.9,225.6c0,0.1,0,0.1,0.1,0.2C147,225.7,147,225.6,146.9,225.6z"/>
	</g>
	<g>
		<path class="st2" d="M148.7,223.6C148.7,223.6,148.7,223.6,148.7,223.6C148.7,223.7,148.7,223.7,148.7,223.6z"/>
	</g>
	<g>
		<path class="st2" d="M147.2,225.9C147.1,225.9,147.1,225.9,147.2,225.9c-0.1-0.1-0.1-0.1-0.1-0.1
			C147,225.9,147.1,225.9,147.2,225.9z"/>
	</g>
	<g>
		<path class="st2" d="M149.9,220.3C149.9,220.3,149.9,220.3,149.9,220.3C149.9,220.3,149.9,220.2,149.9,220.3z"/>
	</g>
	<g>
		<path class="st2" d="M152,221.5C152,221.5,151.9,221.5,152,221.5C151.9,221.5,151.9,221.5,152,221.5z"/>
	</g>
	<g>
		<path class="st2" d="M145.8,224.7C145.7,224.7,145.8,224.7,145.8,224.7L145.8,224.7z"/>
	</g>
	<g>
		<path class="st2" d="M145.9,224.2C145.9,224.2,145.9,224.2,145.9,224.2C145.9,224.2,145.9,224.2,145.9,224.2z"/>
	</g>
	<g>
		<path class="st2" d="M148,225.7L148,225.7C148,225.7,148,225.7,148,225.7z"/>
	</g>
	<g>
		<path class="st2" d="M145.8,224.6C145.8,224.6,145.8,224.7,145.8,224.6C145.8,224.7,145.8,224.7,145.8,224.6z"/>
	</g>
	<g>
		<path class="st2" d="M145.7,224.7C145.7,224.6,145.7,224.6,145.7,224.7C145.7,224.6,145.7,224.6,145.7,224.7z"/>
	</g>
	<g>
		<path class="st2" d="M145.8,224.7C145.8,224.7,145.8,224.7,145.8,224.7C145.8,224.7,145.8,224.7,145.8,224.7
			C145.8,224.7,145.8,224.7,145.8,224.7z"/>
	</g>
	<g>
		<path class="st2" d="M145.1,219.2C145.1,219.3,145.1,219.3,145.1,219.2C145.1,219.2,145.1,219.2,145.1,219.2z"/>
	</g>
	<g>
		<polygon class="st2" points="151.2,227.7 151.2,227.7 151.2,227.7 		"/>
	</g>
	<g>
		<path class="st2" d="M151.4,227.7c-0.1,0.1-0.2,0-0.2,0l-0.1,0.3L151.4,227.7z"/>
	</g>
	<g>
		<path class="st2" d="M147.2,223.4l0,0.2c-0.2,0-0.2-0.2-0.3,0c0.3-0.2,0.3,0.4,0.6,0.2l0,0.1c0,0,0,0,0,0c0,0.2,0.3,0,0.3,0.2
			c0,0.1,0,0.1-0.1,0.1l0.2,0.1c0,0,0,0.1-0.1,0l0.2,0.2l0,0c0.1,0,0.2,0,0.2,0c0,0.1,0,0-0.1,0l0.1,0.1c0,0.1-0.2,0.1-0.2,0
			c-0.2,0.3,0.1,0,0.1,0.4l-0.1-0.1c-0.1,0.2,0,0.2,0,0.4c0-0.1,0.1-0.4,0.2-0.3c0,0,0,0.1,0.1,0.1c-0.1,0.1,0,0.1,0,0.2l-0.1,0.1
			c0.1,0.1,0.2,0,0.3,0c0.1,0.1,0,0.2-0.1,0.3c0.1,0.2,0.1-0.2,0.2-0.1c0,0.2,0.2,0.2,0.3,0.3c0,0.1-0.1,0-0.1,0.1l0.2,0
			c0,0,0,0,0,0c0.1,0,0.1-0.1,0.2,0c0.2-0.1-0.1,0.4,0.2,0.4c0,0.1-0.1,0-0.1,0.1c0.2,0.1,0.2,0.1,0.4,0.1l0,0.2
			c0-0.2,0.2-0.1,0.4-0.1c0-0.1,0-0.1,0.1-0.2l0.2,0.1c0,0-0.1,0.1-0.1,0.1c0,0,0,0,0.1,0c0,0.1-0.1,0.1-0.2,0.1c0,0,0-0.1,0-0.1
			c-0.1,0-0.2,0-0.3,0.1c0,0,0.1,0,0.1,0c0,0-0.1,0-0.1,0c0,0,0,0,0.1,0l-0.1,0.1l0.1,0l0.1,0.3c0.3,0,0.6,0,0.8,0.2
			c-0.2,0-0.2,0.1-0.3,0.2c0.1-0.2-0.2-0.1-0.2-0.3c0,0.1,0,0.1-0.1,0.1l0.3,0.1c-0.1,0.1,0,0.1,0,0.2c0.2-0.2,0.3,0.1,0.4,0.1
			c-0.1,0.1-0.2,0.1-0.2,0c-0.1,0.2,0.4,0,0.3,0.2c0,0,0,0-0.1,0c0.1,0,0.2,0.2,0.1,0.2l0,0c0,0.1,0.1,0.2,0.2,0.3l0.6-0.6
			c-0.1-0.1-0.3-0.1-0.4,0c0,0,0.2-0.2,0.2-0.2l-0.7,0.4c0.1-0.1,0.3-0.6,0.5-0.5c0-0.1-0.1-0.1-0.2-0.1c0,0-0.1,0.3-0.1,0.3
			c0-0.2,0-0.1,0-0.4c0,0.1-0.2,0.3-0.3,0.2c0,0,0.2-0.2,0.2-0.2l-0.3,0.1c0.1,0,0.2-0.2,0.2-0.3c0,0.1-0.1-0.1-0.2-0.1l0,0.1
			c-0.2-0.2-0.4,0.2-0.6,0c0.1,0,0.3-0.2,0.2-0.3c-0.1,0.1-0.6,0.4-0.9,0.4l0-0.1l-0.2,0c0.2-0.1,0.7-0.3,1-0.3c0-0.1,0-0.1-0.1-0.2
			c0-0.1,0.1,0,0.2,0l-0.2-0.2c-0.1,0.1-0.3,0-0.4,0.1l0.4,0.1c-0.1,0.1-0.5,0.3-0.6,0.1c0-0.1,0.2-0.2,0.3-0.3
			c-0.1,0-0.2,0-0.2-0.1l0.1,0c-0.1-0.1-0.3,0.1-0.3-0.2c0,0,0-0.3,0-0.2c-0.1,0.2-0.4,0.7-0.6,0.8c0,0-0.1-0.3-0.1-0.4
			c0-0.2,0.3-0.2,0.4-0.3c0,0-0.1,0-0.1,0.1c0-0.1,0.1-0.1,0-0.2c-0.1,0.1-0.2-0.2-0.1,0.1c-0.1,0-0.1-0.1-0.2-0.2
			c0,0.1-0.3,0.2-0.5,0.2c0,0,0.1-0.1,0.1-0.1c-0.2-0.2-0.2-0.3-0.4-0.4c0,0,0-0.2,0.1-0.2c0,0-0.1,0-0.2,0c0-0.2,0.1,0.1,0.2-0.1
			c-0.1,0.1-0.2,0-0.3,0c-0.1,0.1,0.1,0.2,0.3,0.2c-0.1,0.2-0.4,0.2-0.7,0.1c-0.2-0.1,0-0.2,0-0.2c-0.2-0.3-0.5,0.1-0.6-0.2
			c0-0.2,0.2-0.2,0.2-0.3c0.1,0.1,0.1,0.2,0.2,0.3l0-0.1c0.1,0,0.2,0,0.2,0.1c0-0.2-0.4-0.4-0.5-0.7c-0.1,0-0.2,0-0.2,0l0.1,0
			c0,0.1-0.2,0-0.2,0.1c-0.1,0-0.3,0-0.4-0.2l0.1-0.1c0,0,0,0.1,0.1,0.1c-0.1,0,0-0.3-0.2-0.2l0,0.2c-0.1,0-0.3,0-0.4-0.1
			c-0.1,0.2,0,0,0,0.2c0.1-0.2,0.2,0.3,0.3,0c-0.1,0.2,0.1,0.2,0,0.4c0,0,0-0.1,0.1,0c0,0,0,0,0,0c0,0,0,0,0,0l0,0c0,0,0,0,0,0
			c0,0,0-0.1,0-0.1c0.1,0,0.3,0.1,0.3,0.1c0,0.1-0.1,0-0.1,0.1l0.1,0c-0.1,0.1,0,0.3-0.2,0.2l0.1,0.1c0,0.1,0.1,0.2,0.2,0.2
			c0,0.1,0.2,0,0.1,0.1l0.2,0.1l0,0c0.2,0.2,0.5,0.2,0.5,0.5c0.1,0,0.2,0.1,0.2,0.2l0,0.1c0.1,0,0.2,0.3,0.3,0.2
			c-0.1,0.3,0.3,0.4,0.4,0.5l0.1-0.1c0.1,0.1,0.2,0.1,0.3,0.2l0.1-0.1c0.2,0,0.2,0.3,0.4,0.4c0,0-0.1,0-0.1-0.1
			c0,0.4,0.5,0.2,0.6,0.5c0.1,0,0.1,0,0.1,0.1c0,0,0,0,0,0c0,0,0,0,0,0c0,0,0,0.1,0,0.1c0,0,0-0.1,0-0.1c0,0,0.1,0.1,0.2,0.1
			l-0.1,0.1c0,0,0,0,0,0c0,0.1,0.1,0,0.1-0.1c0,0,0.1,0,0.1,0c-0.1,0.2,0.2,0,0.1,0.3c0.1-0.1,0.3,0.1,0.5,0c0,0,0,0,0,0
			c0,0.1,0.1,0.1,0.2,0.1l-0.1,0.1l0.2-0.1c0,0.1,0,0.2-0.1,0.2c0.3,0,0.2,0,0.4,0l-0.1,0.1c0.1,0,0.2,0,0.2,0.1c0,0,0,0,0,0.1
			l0.7,1.4l-0.2-1.9c0-0.2-0.4-0.6-0.5-1c-0.2,0.2,0-0.2-0.2-0.1c0-0.1,0-0.1,0.1-0.1c-0.2-0.1-0.1-0.3-0.3-0.3c0-0.1,0.1,0,0.1-0.1
			c0,0-0.1,0-0.1-0.1c0,0,0.1,0,0.1,0c-0.1-0.2-0.3-0.1-0.5,0.1c0-0.1,0-0.2-0.2-0.2c0-0.1,0.1-0.2,0.1-0.1c0-0.1-0.2-0.4-0.3-0.3
			c0,0,0-0.1-0.1-0.1c-0.1-0.1-0.1-0.2-0.2-0.3l0,0.1c-0.2,0.1-0.1-0.1-0.2-0.2l0,0c0-0.3-0.1-0.1-0.2-0.4l-0.1,0.1
			c-0.2,0.1,0-0.3-0.2-0.4l0,0.1c-0.1,0,0.2-0.4,0.1-0.5c0,0,0,0,0.1,0c0-0.3-0.1,0.1-0.3-0.1c0.1-0.1,0.2-0.1,0.2-0.2
			c0-0.1-0.4-0.1-0.4-0.3c0,0.1-0.1,0.1-0.2,0.1c-0.1-0.1,0-0.4-0.2-0.4c0,0,0,0,0,0c-0.1,0-0.2-0.2-0.4-0.2
			c0.3-0.3-0.5-0.4-0.2-0.6l-0.2-0.2l0,0c-0.1-0.2-0.2-0.2-0.3-0.2c0-0.1,0,0,0.1-0.1c-0.1-0.3-0.1-0.3-0.4-0.4l0.1-0.1
			c0,0,0,0-0.1-0.1c0,0,0,0,0-0.1c0,0,0,0,0-0.1c0-0.1,0-0.1-0.1-0.2c0,0,0,0,0.1,0c-0.1,0-0.1-0.1,0-0.2c0,0,0-0.1-0.3-0.2
			c-0.1-0.1-0.2-0.1-0.3-0.2c0,0.1-0.1,0-0.2,0c-0.1-0.1-0.2-0.1-0.3-0.1c-0.1-0.1,0.1-0.1,0.2,0l0,0c0.4,0.2,0-0.1,0.3,0
			c-0.1-0.1-0.1-0.2-0.1-0.2c0,0,0,0,0-0.1l0,0c0,0,0,0,0,0l0.1,0.1c0.1,0,0.1,0.1,0.2,0.1l-0.4-0.3l0.1,0.1
			c0.1,0.1,0.3,0.2,0.2,0.2c0.2,0.2-0.1-0.1-0.1-0.2c0.1,0.1,0.2,0.2,0.3,0.2c0.1,0.1,0.1,0.1,0.1,0.1l0,0l0,0
			c-0.1-0.1-0.2-0.2-0.1-0.2c0.1,0.1,0.2,0.2,0.2,0.2c0,0,0,0,0,0l0.1,0.1l-0.2-0.2c0-0.1,0.1,0-0.1-0.2c0.2,0.2,0.3,0.3,0.4,0.3
			c0.1,0,0.2,0,0.2,0.1c0-0.1,0.1-0.1,0.2,0c0,0,0-0.2,0.1-0.2c0,0.2,0,0.2,0,0.3c0.1,0,0.2,0.1,0.2,0.2c-0.1-0.2,0.4,0,0.3-0.2
			c0.1,0,0,0.1,0.1,0.2c0.3-0.1,0.6,0.2,0.9,0.2c0,0,0-0.1,0-0.2l0.1,0.2c0.1,0,0.1-0.2,0.2-0.1c0,0,0-0.1,0-0.1
			c0.6,0.3,1.4,0,2,0.4c-0.1-0.1,0-0.1,0-0.1c0,0,0-0.1,0-0.2l0.3,0.2c0.1-0.2,0.3,0,0.3-0.2l-0.1,0c0.1-0.2-0.2-0.4-0.1-0.7
			c-0.1,0.2-0.3-0.3-0.6,0c0-0.1,0-0.1,0-0.1c-0.1,0.1-0.1,0.1-0.2,0.1l0,0c-0.3,0-0.5-0.1-0.8-0.2l0,0.1c-0.1,0-0.1-0.1-0.1-0.1
			c-0.1,0.2,0.2,0,0.1,0.2c-0.1-0.3-0.6-0.1-0.6-0.4c-0.1,0,0,0.1-0.1,0.1l0-0.1l0,0.1c-0.1,0-0.1-0.1-0.1-0.2c0,0,0.1,0,0.1,0
			c-0.1-0.1-0.3,0-0.3,0l0.1,0.1c-0.3,0-0.7-0.2-1.1-0.1l0,0.1c-0.3,0.1-0.2-0.1-0.5-0.1l0,0c0,0,0,0-0.1,0c0,0,0,0-0.1,0
			c0,0-0.1,0-0.1,0c0.1,0-0.2-0.2,0-0.2c-0.2,0-0.2,0-0.3,0c0,0,0,0.1-0.1,0.2l-0.1-0.1c-0.1,0.1,0,0.1-0.2,0.1c0,0,0-0.1,0-0.1
			c0-0.1-0.1-0.1,0-0.2c-0.3-0.2-0.4-0.2-0.5-0.2c-0.1,0-0.2,0-0.4-0.2c0.1,0.3,0.5,0.3,0.5,0.4c0.1,0.1,0.1,0.1,0.1,0.2
			c0,0-0.1,0-0.1,0c-0.1,0-0.2-0.2-0.4-0.3c-0.2-0.2-0.4-0.3-0.6-0.4c0,0,0,0,0,0c-0.1-0.1-0.2-0.1-0.2-0.1c0,0-0.1,0-0.3-0.1
			c0.2,0.3-0.2-0.1,0.2,0.3l0.2,0c0,0,0,0.1,0.1,0.2c0,0.1,0,0.1-0.3-0.1c-0.1-0.1-0.1-0.2-0.1-0.2c-0.2-0.1-0.1,0-0.3-0.1
			c-0.2-0.2-0.2-0.2-0.1-0.2c0.1,0,0.3,0.1,0.2,0c-0.1-0.1-0.2-0.1-0.2-0.1c0,0-0.1,0-0.3-0.2c0.2,0.2,0.1,0.2,0,0.1
			c-0.1-0.1-0.3-0.2-0.2,0l-0.3-0.3c0,0,0,0,0,0.1c0.1,0.1,0.1,0.1,0.1,0.1l-0.4-0.3l0,0l0,0c0.2,0.2,0.1,0.1,0,0.1
			c0,0-0.1,0,0.1,0.2c-0.3-0.4,0.3,0.2,0.4,0.2c0.3,0.3,0.2,0.2,0,0.2c-0.2-0.1-0.3-0.2-0.1,0.1c-0.1-0.1,0-0.2,0.2,0
			c0,0.1,0,0.1-0.1,0.1c0.1,0.2,0.2,0.2,0.2,0.2c0.1,0,0.1,0,0.2,0.1c-0.2-0.1,0.2,0.2,0.4,0.4l-0.2-0.1c0.1,0.3,0.5,0.3,0.6,0.5
			l-0.4-0.3l0.2,0.2l-0.3-0.1c0.3,0.3,0.3,0.3,0.4,0.5c0.1,0,0.4,0.1,0.5,0.3c0,0.1-0.2-0.1,0,0.1c-0.1-0.1-0.3-0.2-0.2-0.2
			c-0.1,0-0.1-0.1-0.2-0.1c0,0.1,0.2,0.3,0.2,0.4c0,0,0-0.1,0-0.1c0.2,0.1,0.3,0.2,0.4,0.3c0,0-0.1,0-0.2,0c0.1,0.1,0.2,0.1,0.2,0.2
			c-0.1,0-0.2,0-0.4-0.2l0.4,0.3c0,0,0,0.2-0.1,0.2c0,0.1,0.2,0.2,0.3,0.3c0.1,0.1,0.1,0.1,0.2,0.2l0,0c0,0,0,0,0,0c0,0,0,0,0,0.1
			c0,0,0,0,0.1,0c0.1,0.1,0.1,0.3,0.3,0.4l-0.1,0.2c0.1,0.1,0.1-0.2,0.3-0.1c0.1,0.1-0.1,0.1-0.1,0.2c0.1,0,0.4,0,0.3,0.3
			C147.2,223.5,147.2,223.5,147.2,223.4z M148.3,224.9c0,0-0.1,0-0.1-0.1C148.3,224.8,148.3,224.9,148.3,224.9z M150.1,227.1
			c0,0-0.1,0,0-0.1C150.1,227,150.1,227,150.1,227.1z M146.3,225L146.3,225C146.3,225.1,146.3,225.1,146.3,225z M146.2,224.9
			C146.1,224.9,146.1,224.9,146.2,224.9C146.2,224.9,146.2,224.9,146.2,224.9C146.2,224.9,146.2,224.9,146.2,224.9z M147.1,220.8
			L147.1,220.8C147,220.7,147,220.7,147.1,220.8z"/>
	</g>
	<g>
		<path class="st2" d="M149.8,226.9C149.8,226.9,149.8,226.9,149.8,226.9C149.8,226.9,149.8,226.9,149.8,226.9z"/>
	</g>
	<g>
		<path class="st2" d="M146.4,222.5C146.4,222.5,146.4,222.5,146.4,222.5C146.4,222.5,146.4,222.5,146.4,222.5L146.4,222.5z"/>
	</g>
	<g>
		<path class="st2" d="M148.8,225.8C148.8,225.8,148.8,225.9,148.8,225.8C148.8,225.9,148.8,225.8,148.8,225.8z"/>
	</g>
	<g>
		<path class="st2" d="M145.4,224.4l0.1,0.1C145.4,224.4,145.4,224.4,145.4,224.4C145.4,224.4,145.4,224.4,145.4,224.4z"/>
	</g>
	<g>
		<path class="st2" d="M145.2,223.2C145.2,223.2,145.2,223.2,145.2,223.2L145.2,223.2C145.2,223.2,145.3,223.3,145.2,223.2z"/>
	</g>
	<g>
		<path class="st2" d="M145.6,224c0.1-0.1,0-0.1-0.1-0.1c0,0,0,0,0,0C145.4,224,145.5,224,145.6,224z"/>
	</g>
	<g>
		<path class="st2" d="M145.5,223.9C145.5,223.9,145.5,223.8,145.5,223.9C145.4,223.9,145.5,223.9,145.5,223.9z"/>
	</g>
	<g>
		<path class="st2" d="M146,224.8C146,224.7,145.9,224.8,146,224.8C145.8,224.9,146.2,224.8,146,224.8z"/>
	</g>
	<g>
		<polygon class="st2" points="145.8,223.7 145.7,223.8 145.8,223.8 		"/>
	</g>
	<g>
		<path class="st2" d="M146.1,224.2l-0.1-0.1c0,0,0,0-0.1,0C146.1,224.2,146.1,224.2,146.1,224.2z"/>
	</g>
	<g>
		<path class="st2" d="M146,224.1C146,224.1,146,224.1,146,224.1C146,224.1,146,224.1,146,224.1z"/>
	</g>
	<g>
		<polygon class="st2" points="145.9,223.8 145.9,223.9 146,223.9 		"/>
	</g>
	<g>
		<path class="st2" d="M147.1,225.1l0.1,0.1c0,0,0-0.1,0-0.1C147.1,225.1,147.1,225.1,147.1,225.1z"/>
	</g>
	<g>
		<path class="st2" d="M147,224.6c0,0,0,0.1,0,0.1L147,224.6L147,224.6z"/>
	</g>
	<g>
		<path class="st2" d="M147.3,224.8C147.4,224.8,147.5,224.9,147.3,224.8C147.4,224.8,147.3,224.7,147.3,224.8z"/>
	</g>
	<g>
		<polygon class="st2" points="148.7,226.3 148.6,226.2 148.5,226.4 		"/>
	</g>
	<g>
		<path class="st2" d="M150.4,226.9c-0.1-0.1-0.1,0.1-0.2,0c-0.1,0,0.1,0.1,0,0.1C150.3,227,150.3,227,150.4,226.9z"/>
	</g>
	<g>
		<path class="st2" d="M150.2,227C150.2,227,150.2,227,150.2,227C150.2,227,150.2,227,150.2,227z"/>
	</g>
	<g>
		<polygon class="st2" points="152.4,221.7 152.5,221.7 152.4,221.6 		"/>
	</g>
	<g>
		<path class="st2" d="M152.5,221.5l0,0.2L152.5,221.5C152.6,221.5,152.6,221.5,152.5,221.5z"/>
	</g>
	<g>
		<path class="st2" d="M148.2,225.4L148.2,225.4c0.1-0.1,0.1-0.1,0-0.1L148.2,225.4z"/>
	</g>
	<g>
		<polygon class="st2" points="147.5,224.2 147.5,224.2 147.6,224.1 		"/>
	</g>
	<g>
		<path class="st2" d="M146.7,223.3c0,0,0.1,0.1,0.1,0.1C146.7,223.4,146.8,223.2,146.7,223.3z"/>
	</g>
</g>
</svg>
