<?xml version="1.0" encoding="utf-8"?>
<!-- Generator: Adobe Illustrator 21.1.0, SVG Export Plug-In . SVG Version: 6.00 Build 0)  -->
<svg version="1.1" id="Layer_1" xmlns="http://www.w3.org/2000/svg" xmlns:xlink="http://www.w3.org/1999/xlink" x="0px" y="0px"
	 viewBox="0 0 253.4 109.7" style="enable-background:new 0 0 253.4 109.7;" xml:space="preserve">
<style type="text/css">
	.st0{fill:#EF4A23;}
	.st1{enable-background:new    ;}
	.st2{fill:#FFFFFF;}
</style>
<g>
	<path class="st0" d="M196.6,46.9c1.1-0.1,2.3-0.1,3.4-0.2l1.5,0.2c0.2,0,0.5,0,0.7-0.3c0.1-0.1,0.1-0.2,0.1-0.3
		c0.2-0.3,0.3-0.5,0.3-0.9c0-0.3-0.1-0.6-0.4-0.9c-0.2-0.2-0.6-0.4-1-0.4l-4.7,0.3c-1.4,0.1-2.9,0.2-4.4,0.3
		c0.2-1.7,0.5-3.4,0.8-5.1l0.8-5l0.1-0.4c0-0.3,0-0.7-0.2-0.9c-0.2-0.4-0.5-0.5-0.7-0.6c-0.3-0.2-0.7,0-0.9,0.1h-0.1
		c-0.2,0.2-0.4,0.5-0.5,0.8c-0.2,1-0.3,1.9-0.5,2.9c-0.2,0.9-0.3,1.9-0.5,2.8l-0.9,5.5c-0.8,0.1-1.7,0.2-2.5,0.2
		c-0.9,0-1.8,0.1-2.7,0.2c-0.5,0-0.8,0.3-1,0.5c-0.2,0.3-0.3,0.6-0.3,0.9c0,0.3,0.1,0.6,0.4,0.9c0.2,0.2,0.6,0.4,1,0.4
		c0.4,0,0.9-0.1,1.3-0.1c0.5,0,0.9-0.1,1.3-0.1c0.4,0,0.9-0.1,1.3-0.1c0.3,0,0.7,0,1-0.1c-0.5,4.2-0.9,8-1.3,11.4
		c-1.8,0.7-3.3,1.4-4.9,2.4c-1.4,0.9-2.9,1.9-4.4,3.1c-0.5-0.3-0.8-0.7-1.1-1.1c-0.3-0.5-0.4-1-0.4-1.7c0.2-0.3,0.3-0.6,0.5-0.9
		s0.3-0.7,0.1-1c0.1-0.2,0.2-0.4,0.3-0.6c0.4-0.8,0.9-1.5,1.5-2c0.6-0.6,1.1-1.1,1.6-1.5c0.4-0.3,0.5-0.6,0.5-0.9s-0.1-0.6-0.4-0.9
		c-0.2-0.2-0.5-0.4-0.8-0.5c-0.4-0.1-0.7,0-1,0.2c-1.3,1.1-2.4,2.3-3.3,3.8c-0.5,0.9-0.9,1.8-1.1,2.7c-0.3,0.7-0.6,1.4-0.7,2.5
		c-0.2,0.3-0.4,0.6-0.6,0.8c-0.3,0.5-0.7,1-1.1,1.4c-0.1,0.2-0.3,0.4-0.5,0.6c-0.2,0.2-0.3,0.4-0.5,0.6c-0.3,0.2-0.5,0.4-0.7,0.7
		c-0.1,0.1-0.2,0.3-0.4,0.4l-0.6,0.6c-0.2,0.2-0.3,0.3-0.5,0.3c-0.3,0.1-0.9,0.2-1.1-0.2s-0.4-0.9-0.5-1.2c-0.2-1.1-0.3-2.1-0.3-3.2
		c0-1-0.1-2-0.2-2.9v-0.3c-0.1-0.8-0.2-1.7-0.2-2.8c0-1.1-0.2-2.1-0.6-2.9c-0.3-0.5-0.8-1.1-1.5-1.1c-0.7,0-1.2,0.1-1.8,0.4
		c-0.6,0.3-1.2,0.7-1.7,1.1c-0.5,0.4-0.9,0.8-1.2,1.1c-0.8,1-1.5,2-2,3c-0.3,0.5-0.6,1.1-0.8,1.6c-0.1,0.2-0.2,0.4-0.3,0.6
		c0-0.9,0-1.9,0-2.8c0-1.3,0-2.6,0.1-3.9c0-0.4-0.1-0.8-0.6-1.1c-0.4-0.4-0.9-0.4-1.3,0c-1.1,0.7-2,1.7-2.7,2.9
		c-0.6,1.1-1.2,2.2-1.6,3.4c-0.2,0.6-0.4,1.2-0.7,1.8c-0.2,0.6-0.4,1.2-0.6,1.8c-0.3,1-0.8,1.9-1.4,2.7c-0.3-2.5-0.4-4.9-0.4-7.1
		c0-0.4-0.1-0.7-0.4-1c-0.3-0.3-0.5-0.4-0.9-0.4c-0.4,0-0.6,0.1-0.9,0.4c-0.2,0.2-0.3,0.5-0.4,0.9c-0.1,0-0.1,0-0.2,0.1l-0.3,0.1
		c-0.6,0.3-1.4,0.6-2.2,0.9c-0.7,0.3-1.5,0.5-2.5,0.6c0.1-1.2,0.1-2.3,0-3.5c-0.1-1.2-0.3-2.4-0.8-3.8c-0.3-0.9-0.9-1.7-1.8-2.5
		c-0.9-0.8-1.9-0.9-3-0.3c-0.6,0.2-1.2,0.6-1.6,1.2c-0.4,0.5-0.7,1.1-0.9,1.8c-0.2,0.6-0.3,1.3-0.4,1.9c-0.1,0.7-0.1,1.4,0,1.9
		c0.1,0.5,0.2,1,0.3,1.5c-1.1,0.3-2.4,0.7-3.9,1.1c-1.1,0.3-2.2,0.8-3.2,1.2c0.7-1.8,1.3-3.9,2-6.5c0.6-2.3,1-4.5,1.3-7.1
		c0.2-1.6,0.3-3.1,0.3-4.5c0-1.5-0.1-2.9-0.3-4.4c-0.1-0.9-0.3-1.7-0.6-2.6c-0.3-0.9-1-1.4-2.2-1.7c-1-0.1-1.8,0.1-2.7,0.6
		c-0.9,0.6-1.6,1.1-2.1,1.6c-1.1,0.9-2.1,1.8-2.9,2.7c-0.8,0.8-1.6,1.8-2.5,3c-1.8,2.4-3.4,4.9-4.7,7.4l-3.9,7.8
		c-0.6,1.4-1.2,2.7-1.8,4c-0.3,0.8-0.6,1.5-1,2.3c0.1-1.1,0.2-2.2,0.2-3.3c0.1-1.5,0.2-3,0.2-4.5s0-3-0.1-4.5l-0.3-3.8
		c0-1.3-0.3-2.5-0.8-3.7c-0.3-1-0.8-1.7-1.4-2.3c-0.6-0.6-1.3-0.9-2.3-1.2c-1.2-0.2-2.3,0-3.4,0.6c-1,0.6-1.9,1.3-2.6,2
		c-2,1.9-3.5,3.9-4.6,6.2c-1.1,2.4-1.9,4.7-2.4,7.2c0,0.3,0,0.7,0.2,0.9c0,0,0,0,0,0c0,0.2,0.1,0.4,0.2,0.5c0.2,0.3,0.4,0.4,0.6,0.5
		c0.2,0.1,0.5,0,0.7-0.1c0.2-0.2,0.4-0.4,0.5-0.7c0,0,0,0,0,0c0.1-0.1,0.2-0.3,0.3-0.5c0.4-2.2,1-4.2,1.9-5.9
		c0.6-1.3,1.4-2.5,2.3-3.7c0.3-0.4,0.7-0.8,1-1.2c0.3-0.4,0.7-0.8,1.2-1.3s1-0.9,1.6-1.2c0.5-0.3,1.1-0.5,1.7-0.5
		c0.6,0,1.1,0.3,1.6,0.9c0.5,0.5,0.8,1.2,1,2c0,0.1,0,0.1,0,0.2c0.1,1.1,0.2,2.2,0.3,3.1c0.4,5,0.4,9.6-0.2,13.9
		c-0.6,5-1.6,9.4-2.9,13.7c-0.1,0.4-0.1,0.7,0,0.9c0,0.2,0,0.4,0.2,0.6c0.1,0.3,0.3,0.4,0.6,0.5c0.3,0.1,0.5,0,0.8-0.1
		c0.3-0.2,0.5-0.4,0.6-0.7c0,0,0-0.1,0-0.1c0.1-0.1,0.2-0.3,0.3-0.5v-0.1v-0.1c0-0.1,0.1-0.2,0.1-0.3l0.1-0.2c0-0.1,0-0.1,0.1-0.2
		l0,0l0.2-0.3c1.5-3.8,3.2-7.9,5.3-12.8c2.2-4.9,4.2-8.9,6.1-12.5c0.3-0.6,0.6-1.2,0.9-1.8c0.6-1,1.2-2.1,1.9-3
		c1.2-1.8,2.4-3.4,3.8-4.9c0.6-0.7,1.3-1.4,2-2.1c0.7-0.6,1.5-1.2,2.3-1.7c0.8-0.4,1.3-0.4,1.7,0c0.2,0.2,0.4,0.5,0.5,0.8
		c0,0.1,0.1,0.3,0.1,0.5c0.2,0.8,0.2,1.7,0.2,2.5v2c-0.1,3.4-0.5,6.6-1.3,9.6c-0.8,3.3-1.8,6.3-3.1,9.3c-2.7,1.4-5.4,3.1-8,5
		c-2.5,1.9-4.7,4.1-6.5,6.5c-0.4,0.5-0.8,1.1-1.2,1.9l-0.3,0.5c-0.4,0.8-0.8,1.9-1,3c-0.2,1-0.2,2.1,0,3c0.1,0.3,0.3,0.6,0.4,0.9
		c0.3,0.8,0.8,1.5,1.6,1.9c0.4,0.2,0.8,0.4,1.3,0.3c0.5,0,1-0.2,1.4-0.4c0.5-0.3,0.9-0.6,1.3-0.9c0.4-0.3,0.8-0.6,1.1-0.9
		c0.9-0.8,1.8-1.8,2.6-2.8s1.6-2,2.3-3.1c2.8-4,5.1-8.1,6.9-12.4c1.5-0.7,3.1-1.3,4.6-1.9c0.8-0.3,1.6-0.6,2.4-0.9
		c0,0.1,0,0.2,0,0.3c-0.3,0.9-0.5,1.7-0.6,2.5c-0.2,0.8-0.2,1.7-0.1,2.7c0.1,0.9,0.3,1.6,0.6,2.4c0.2,0.3,0.4,0.6,0.6,0.9
		c0.5,0.9,1.3,1.5,2.3,1.9c1.1,0.4,2.2,0.1,3.1-0.8c1.1-1.1,1.9-2.4,2.3-4.1c0.5-1.6,0.8-3.2,1-4.6c1-0.1,2.1-0.4,3.1-0.7
		c0.8-0.2,1.5-0.5,2.3-0.8c0,0.7,0.1,1.4,0.2,2.1c0.2,1.6,0.4,3.3,0.6,5c0.1,0.3,0.2,0.6,0.5,0.8c0.1,0.3,0.3,0.6,0.6,0.7
		c0.4,0.1,0.7,0.1,1.1-0.2c0.9-0.8,1.6-1.8,2.2-2.9c0.6-1.1,1.1-2.2,1.5-3.4s0.9-2.4,1.3-3.5c0.4-0.9,0.9-1.7,1.4-2.5
		c-0.1,1.1-0.1,2.2-0.1,3.4c0,1.5,0,3.1-0.1,4.7c0,0.4,0.1,0.7,0.4,0.9c0.1,0.4,0.3,0.6,0.7,0.7c0.5,0.1,0.8-0.1,1.1-0.5
		c0.5-0.8,1.1-1.7,1.5-2.6c0.4-0.9,0.9-1.8,1.3-2.7c0.5-0.9,1-1.8,1.5-2.6c0.5-0.9,1.2-1.6,1.9-2.3c0.2-0.2,0.4-0.4,0.6-0.6
		s0.3-0.3,0.5-0.4c0,0,0.1-0.1,0.1-0.1v0.2c0.1,0.5,0.2,1.2,0.2,1.7s0,1.1,0.1,1.7c0,0.5,0.1,1.1,0.1,1.7c0,0.6,0.1,1.2,0.1,1.7
		c0,1.2,0.1,2.2,0.3,3.3c0.1,0.7,0.3,1.3,0.6,2c0.1,0.2,0.2,0.3,0.4,0.5c0,0,0,0.1,0,0.1c0.3,0.5,0.7,1,1.2,1.3s1,0.5,1.6,0.5
		c0.6,0,1.2-0.2,1.8-0.6c1.5-1,2.9-2.3,4-4c0.4-0.5,0.7-1,1-1.5c0,0,0.1-0.1,0.1-0.1c0,0.1,0.1,0.2,0.1,0.2c0.3,0.4,0.6,0.8,1,1.2
		c-0.1,0-0.1,0.1-0.2,0.1c-0.2,0.2-0.4,0.3-0.6,0.5c-0.4,0.3-0.8,0.6-1.2,1c-0.5,0.3-0.9,0.7-1.3,1.1c-0.4,0.4-0.8,0.8-1.1,1.2
		c-0.4,0.4-0.6,1-0.9,1.5c-0.1,0.7-0.1,1.2,0.1,1.8c0.1,0.4,0.3,0.7,0.5,1c0.3,0.8,0.8,1.4,1.5,1.8c0.8,0.5,1.6,0.7,2.5,0.6
		c0.9,0,1.8-0.3,2.7-0.9c0.9-0.6,1.6-1.3,2.2-2.1c0.6-0.8,1-1.7,1.2-2.7c0.1-0.3,0.1-0.6,0.1-0.9c0.2-1.2,0.2-2.1-0.2-3
		c-0.2-0.3-0.4-0.7-0.7-1c1.1-0.8,2.2-1.6,3.3-2.3c0.9-0.5,1.9-1,2.8-1.4c-0.2,2.4-0.4,4.7-0.5,6.9c-0.5,7.4-0.8,14.9-0.9,22.4
		c0,0.4,0.1,0.7,0.4,1c0,0,0,0,0,0c0,0.3,0.1,0.5,0.3,0.7c0.2,0.2,0.4,0.3,0.7,0.3s0.5-0.1,0.7-0.3s0.3-0.5,0.3-0.8
		c0-0.1,0-0.1,0-0.2c0.1-0.2,0.2-0.5,0.2-0.7c0.1-7.5,0.4-15,0.9-22.4c0.5-6.3,1.2-13.8,2.3-21.4C193.5,47.1,195,47,196.6,46.9z
		 M103.3,65.8c0.2-0.9,0.2-1.7,0.3-2.5C103.5,64.1,103.5,64.9,103.3,65.8z M137.5,60.8c-0.3-0.2-0.8-0.4-1.3-0.6
		c-0.6-0.3-1.1-0.7-1.4-1.2c-0.4-0.6-0.6-1.4-0.8-2.7c0-1.2,0.2-2.1,0.7-2.6c0.4-0.5,0.6-0.7,0.8-0.7c0.1,0,0.2,0,0.2,0.1
		c0.4,0.1,0.6,0.4,0.7,0.7c0.2,0.4,0.4,0.9,0.6,1.4c0.1,0.5,0.2,1,0.3,1.3C137.5,58,137.6,59.5,137.5,60.8z M135,62.4
		c0.4,0.2,0.9,0.4,1.5,0.6c0.3,0.1,0.7,0.2,1,0.2c-0.3,1.5-0.7,2.9-1.1,4.2c-0.1,0.2-0.2,0.4-0.3,0.6c-0.1,0.3-0.3,0.6-0.4,0.9
		c-0.2,0.5-0.4,0.9-0.8,1.2c-0.5,0.4-0.9,0.5-1,0.4c-0.3-0.2-0.5-0.4-0.7-0.8c-0.2-0.4-0.3-0.9-0.4-1.3c-0.1-0.5-0.1-0.8-0.1-1.1
		c0-1.1,0.2-2.1,0.4-3.1c0.1-1,0.5-1.9,0.8-2.6C134.3,61.8,134.6,62.1,135,62.4z M119.4,68.3c-0.1,0.2-0.2,0.5-0.4,0.7
		c-0.4,0.7-0.8,1.5-1.2,2.3c-0.6,1.2-1.3,2.5-2,3.6c-1,1.5-2.3,3.4-4,5.2l-1.2,1.2c-0.5,0.5-1,0.8-1.4,1c-0.4,0.2-0.8,0.3-1.1,0.2
		c-0.1,0-0.4-0.3-0.5-1.4c-0.1-1.1,0.1-2,0.7-2.9c0.6-1,1.2-1.9,1.8-2.7c1.5-1.9,3.2-3.6,5.1-5.1c1.7-1.3,3.3-2.5,4.9-3.4
		c-0.2,0.2-0.3,0.3-0.3,0.5C119.6,67.8,119.5,68,119.4,68.3z M180.1,69.6c-0.1,0.6-0.3,0.9-0.7,1.2h-0.1v0.1c-0.2,0.5-0.5,1-1,1.4
		c-0.4,0.4-0.8,0.7-1.4,0.8c-0.3,0.1-0.9,0.3-1.5,0.1c-0.4-0.1-1.1-0.3-1-0.9c0-0.5,0.3-1,0.7-1.5c0.5-0.6,1.1-1.1,1.7-1.6
		c0.3-0.2,0.5-0.4,0.7-0.6c0.3-0.2,0.5-0.3,0.6-0.5c0.2-0.1,0.4-0.3,0.6-0.5c0.1-0.1,0.2-0.2,0.3-0.2c0.1,0,0.1-0.1,0.2-0.1
		c0.3,0.3,0.5,0.6,0.7,0.9S180.2,68.9,180.1,69.6z M166.6,54.8c0.4,0.8,0.6,1.7,0.6,2.7c0,1.1,0.1,2.1,0.2,2.8v0.3
		c0.1,1,0.2,1.9,0.2,2.9c0,1.1,0.1,2.1,0.3,3.3c0.1,0.4,0.3,0.9,0.5,1.4c0,0,0,0,0,0.1c-0.1-0.1-0.2-0.1-0.2-0.3
		c-0.2-0.4-0.4-0.9-0.5-1.3c-0.2-1.1-0.3-2.1-0.3-3.2c0-1.1-0.1-2.1-0.2-3.2c-0.1-0.8-0.2-1.7-0.2-2.8c0-1.1-0.2-2-0.6-2.8
		c-0.2-0.3-0.4-0.5-0.6-0.7C166.1,54.1,166.3,54.4,166.6,54.8z M157,54.6C157,54.6,157,54.6,157,54.6c0-0.2-0.1-0.4-0.2-0.6
		C156.9,54.1,157,54.3,157,54.6z M127.5,36.1c0.3,0.8,0.5,1.6,0.6,2.4c0.2,1.5,0.3,2.9,0.3,4.4c0,1.4-0.1,2.9-0.3,4.5
		c-0.3,2.6-0.7,4.8-1.3,7.1c-0.7,2.8-1.4,5-2.2,7l-0.1,0.2c0,0,0,0,0,0c0.9-2.3,1.6-4.7,2.2-7c0.6-2.4,1-4.7,1.3-7.1
		c0.2-1.6,0.3-3.1,0.3-4.5c0-1.5-0.1-2.9-0.3-4.4C127.9,37.8,127.7,37,127.5,36.1c-0.3-0.5-0.7-0.9-1.3-1.2
		C126.9,35.2,127.3,35.5,127.5,36.1z"/>
	<path class="st0" d="M74.8,59.2C74.6,59,74.2,59,73.9,59c-0.4,0-0.7,0.2-0.9,0.5c-0.1,0.2-0.3,0.4-0.4,0.6
		c-0.3,0.4-0.6,0.8-0.8,1.2c-0.2,0.2-0.5,0.5-0.7,0.8c-0.2,0.3-0.5,0.5-0.7,0.8c-0.8,0.7-1.6,1.4-2.4,2.2c-0.8,0.7-1.6,1.3-2.6,2
		c-0.8,0.6-1.8,1-3,1.3c-1,0.3-2.1,0.1-3.1-0.6c-0.5-0.3-0.8-0.7-1-1.1c-0.3-0.6-0.3-1-0.3-1.5c0-0.4,0.1-0.8,0.2-1.3l0.1-0.5
		c0.1-0.3,0.1-0.7,0.2-1.1c1.3,0.7,2.6,0.7,4,0.1c1.4-0.7,2.6-1.8,3.4-3.3c0.5-0.7,0.9-1.6,1.3-2.9c0.3-1.2,0.4-2.3,0.2-3.2
		c-0.2-1-0.7-1.7-1.4-2c-0.8-0.3-1.5-0.3-2.4,0c-1.1,0.4-2,1-2.9,1.9c-1,1-1.7,1.9-2.2,2.7c-0.7,1-1.2,2-1.6,3.2
		c-0.2,0.5-0.3,0.9-0.4,1.3c-0.7,1-1.6,2.1-2.9,3.4c-0.3,0.2-0.6,0.5-1,1c-0.3,0.4-0.6,0.8-1,1.1c-0.3,0.3-0.7,0.6-1.1,0.9
		c-0.3,0.3-0.6,0.3-1,0.4c-0.3,0.1-0.6-0.1-0.7-0.5c-0.2-0.5-0.3-1-0.4-1.6v-3.5c0-0.6,0-1.1-0.1-1.6c0-0.5,0-1,0-1.6
		c0-1.1,0-2.1-0.1-3.2c0-0.5-0.3-0.9-0.8-1.1c-0.5-0.2-1-0.1-1.4,0.2c-1.7,1.6-3.3,3.3-4.5,4.9c-1.2,1.4-2.1,3-3,4.5
		c0.8-6.3,1.8-12.6,2.8-19.2l0.3-1.7c0.1-0.8,0.3-1.5,0.4-2.3c1.3-0.1,2.5-0.3,3.8-0.4c4.7-0.5,9.4-0.9,14.2-1.3
		c0.3,0,0.6-0.1,0.9-0.4c0.2-0.3,0.3-0.6,0.3-0.9s-0.1-0.6-0.4-0.9c-0.2-0.2-0.6-0.4-1-0.4c-4.8,0.3-9.7,0.8-14.4,1.3
		c-1,0.1-2,0.2-2.9,0.3c0.8-4.5,1.7-9.1,2.6-13.7c0-0.3,0-0.7-0.2-0.9c-0.2-0.3-0.5-0.4-0.7-0.5c-0.4-0.1-0.7-0.1-1,0
		c-0.3,0.2-0.4,0.5-0.5,0.8c-1,4.9-1.9,9.8-2.8,14.7c-2.9,0.4-5.9,0.8-8.7,1.2c-0.2,0-0.5,0-1,0.2c-3.1,0.5-6.2,1-9.2,1.5
		s-6.2,1.1-9.2,1.7c-0.3,0-0.7,0.2-0.8,0.6c-0.1,0.3-0.1,0.6,0,0.9c0,0.4,0.3,0.6,0.5,0.8c0.2,0.2,0.6,0.3,1,0.2
		c3-0.6,5.9-1.1,8.6-1.6c2.8-0.5,5.5-1,8.2-1.4c-0.9,7.9-2,16.3-3.1,24.7c-1,8.3-2.1,16.7-3.2,24.8v0.1c-0.1,0.5,0,0.8,0.3,1
		c0.3,0.3,0.6,0.4,0.9,0.4c0.3,0,0.6-0.1,0.9-0.4c0.2-0.2,0.4-0.6,0.5-0.9c2-14.7,4.1-30.6,6.4-50c2.5-0.4,4.9-0.7,7.4-1
		c-1.8,10.6-3.3,21.4-4.5,32.1c0,0.3,0,0.6,0.3,0.9l0.7,0.3c0.1,0,0.2,0.1,0.3,0.1c0.2,0,0.5-0.1,0.6-0.2c0.3-0.1,0.5-0.4,0.6-0.8
		c0.8-3.3,1.9-6.1,3.5-8.3c1.3-2.4,3-4.6,5.1-6.8l0.2,6.7v1.5c0,0.4,0.1,0.9,0.2,1.4c0.1,0.5,0.4,0.9,0.7,1.3c0.4,0.5,1,0.6,1.6,0.7
		c1.2,0.1,2.2-0.2,3-0.8c0.9-0.6,1.6-1.2,2.3-1.8l0.2-0.1c0.4-0.4,0.8-0.8,1.3-1.3c0,1.3,0.4,2.4,1.3,3.4c0.7,0.9,1.7,1.5,2.7,1.8
		c0.7,0.2,1.4,0.3,2,0.3c0.4,0,0.8,0,1.2-0.1c1.7-0.2,3-0.7,4.2-1.6c0.9-0.6,1.7-1.3,2.6-2c0.3-0.2,0.6-0.5,0.9-0.7
		c0.9-0.8,1.9-1.7,2.8-2.6c1.1-1.1,1.8-2,2.5-3c0.1-0.3,0.2-0.7,0.1-1C75.3,59.6,75.1,59.3,74.8,59.2z M59.1,59.5
		c0.5-1.1,1-2.1,1.5-2.8c0.2-0.2,0.4-0.4,0.6-0.7l0.3-0.4c0.4-0.5,0.9-0.9,1.4-1.3c0.5-0.4,1-0.7,1.3-0.8c0.1,0,0.2,0,0.2,0
		c0.1,0.1,0.2,0.3,0.3,0.6c0.1,0.3,0,0.6-0.1,1.1v0.1c-0.2,0.5-0.4,1-0.6,1.4s-0.5,0.9-0.8,1.3c-0.1,0.2-0.3,0.3-0.4,0.5
		c-0.2,0.2-0.3,0.4-0.4,0.5c-0.6,0.7-1.1,1-1.8,1.2c-0.4,0.1-0.8,0-1.3-0.3C59.2,59.7,59.2,59.6,59.1,59.5z"/>
	<path class="st0" d="M235.4,59.7c-0.1-0.2-0.3-0.5-0.5-0.7c-0.2-0.2-0.6-0.3-1.1-0.2c-2,0.7-3.6,1.5-5.2,2.5
		c-1.4,0.9-2.9,1.9-4.4,3.1c-0.5-0.3-0.8-0.7-1.1-1.1c-0.3-0.5-0.5-1.1-0.4-1.9c0.2-0.8,0.5-1.6,0.9-2.2c0.4-0.8,0.9-1.5,1.5-2
		c0,0,0,0,0.1-0.1c0.2,0.1,0.4,0.1,0.7,0c0.2-0.1,0.4-0.2,0.7-0.4c0.3-0.3,0.4-0.5,0.4-0.9c0-0.1,0-0.2,0-0.2
		c0.2-0.2,0.3-0.5,0.3-0.8c0-0.3-0.1-0.6-0.4-0.9c-0.2-0.2-0.5-0.4-0.8-0.5c-0.4-0.1-0.7,0-1,0.2c-1.4-0.8-2.9-1-4.3-0.4
		c-1.8,0.5-3.3,1.6-4.8,3.6c-0.5,0.7-1,1.4-1.4,2.1c-0.2,0.3-0.3,0.6-0.5,0.8c0,0,0-0.1-0.1-0.1c0-0.1,0-0.2,0-0.2
		c0.1-0.3,0.1-0.6,0.2-0.9c0.1-0.3,0.1-0.7,0.2-1c0-0.3,0-0.7-0.3-1c-0.2-0.2-0.5-0.4-0.8-0.5c-0.4-0.1-0.7-0.1-1,0
		c-0.3,0.2-0.4,0.5-0.5,0.8c-0.1,1-0.3,2-0.4,3c0,0.1-0.1,0.1-0.1,0.2c-0.3,0.4-0.6,0.8-0.8,1.2c-0.2,0.2-0.5,0.5-0.7,0.8
		s-0.5,0.5-0.7,0.8c-0.8,0.7-1.6,1.4-2.4,2.2c-0.8,0.7-1.6,1.3-2.6,2c-0.8,0.6-1.8,1-3,1.3c-1,0.3-2.1,0.1-3.1-0.6
		c-0.5-0.3-0.8-0.7-1-1.1c-0.2-0.5-0.3-0.9-0.3-1.4c0-0.4,0.1-0.8,0.2-1.3l0.1-0.5c0.1-0.3,0.1-0.7,0.2-1.1c1.3,0.7,2.6,0.7,4,0.1
		c1.4-0.7,2.6-1.8,3.4-3.3c0.5-0.7,0.9-1.6,1.3-2.9c0.3-1.2,0.4-2.3,0.2-3.2c-0.2-1-0.7-1.7-1.4-2c-0.8-0.3-1.5-0.3-2.4,0
		c-1.1,0.4-2,1-2.9,1.9c-1,1-1.7,1.9-2.2,2.7c-0.4,0.5-0.7,1-0.9,1.6c-0.3,0.6-0.5,1.1-0.8,1.7c-0.4,1.1-0.7,2.1-1,3.1
		c-0.3,1.2-0.5,2.3-0.5,3.5s0.4,2.3,1.2,3.2c0.1,0.1,0.1,0.1,0.2,0.2c0,0,0,0,0,0c0.7,0.9,1.7,1.5,2.7,1.8c0.7,0.2,1.4,0.3,2,0.3
		c0.4,0,0.8,0,1.2-0.1c1.7-0.2,3-0.7,4.2-1.6c0.9-0.6,1.7-1.3,2.6-2c0.3-0.2,0.6-0.5,0.9-0.7c0.7-0.7,1.4-1.3,2-2
		c-0.1,2-0.2,4-0.1,6c0,0.4,0.2,0.6,0.4,0.8c0,0,0,0,0.1,0c0.1,0.1,0.2,0.2,0.2,0.3c0.3,0.2,0.6,0.3,0.9,0.3c0.3,0,0.6-0.1,0.9-0.4
		c0.2-0.2,0.4-0.6,0.4-1c0-1.9,0.4-4,1.3-6.1c0.7-2,1.7-3.8,3-5.6c0.4-0.7,0.9-1.4,1.7-2.2c0.5-0.6,1.1-1.1,1.6-1.2
		c0.5-0.3,1-0.3,1.7-0.1c0.1,0,0.2,0.1,0.3,0.1c-0.5,0.6-1.1,1.3-1.5,2.1c-0.9,1.5-1.4,3.1-1.3,4.7c0.1,0.7,0.3,1.3,0.6,1.9
		c0.4,0.5,0.8,1,1.3,1.5c0.2,0.1,0.3,0.2,0.4,0.3c-0.4,0.3-0.8,0.7-1.2,1c-0.4,0.3-0.8,0.6-1.2,1c-0.5,0.3-0.9,0.7-1.3,1.1
		c-0.4,0.4-0.8,0.8-1.1,1.2c-0.4,0.4-0.6,0.9-0.8,1.4c-0.1,0.6-0.1,1.1,0.1,1.7c0.3,0.9,0.8,1.6,1.6,2c0.4,0.3,0.9,0.4,1.3,0.5
		c0.4,0.2,0.8,0.3,1.3,0.3c0.2,0,0.3,0,0.5,0c0.9,0,1.9-0.3,2.8-0.9c0.9-0.6,1.6-1.3,2.3-2.2c0.6-0.8,1-1.8,1.2-2.8
		c0.2-1.2,0.2-2.2-0.2-3.1c-0.3-0.5-0.6-1-1-1.4c1.2-0.9,2.4-1.9,3.6-2.6c1.2-0.7,2.7-1.5,4.2-1.9h0.1c0.1,0,0.1-0.1,0.2-0.1
		c0.2-0.1,0.5-0.3,0.6-0.6C235.6,60.3,235.5,60.1,235.4,59.7z M202.9,53.4c0.1,0.1,0.2,0.3,0.3,0.6c0.1,0.3,0,0.6-0.1,1.1v0.1
		c-0.1,0.2-0.2,0.5-0.3,0.7c-0.1,0.2-0.2,0.5-0.3,0.7c-0.2,0.4-0.5,0.9-0.8,1.3c-0.1,0.2-0.3,0.3-0.4,0.5c-0.2,0.2-0.3,0.4-0.4,0.5
		c-0.6,0.7-1.1,1-1.8,1.2c-0.5,0.2-1,0-1.6-0.4c0.5-1.2,1.1-2.3,1.6-3c0.2-0.2,0.4-0.4,0.6-0.8l0.3-0.4c0.4-0.5,0.9-0.9,1.4-1.3
		s1-0.7,1.3-0.8C202.8,53.4,202.9,53.4,202.9,53.4z M225.5,69.6c-0.1,0.6-0.3,0.9-0.7,1.2h-0.1v0.1c-0.2,0.5-0.5,1-1,1.4
		c-0.4,0.4-0.8,0.7-1.4,0.8c-0.3,0.1-0.9,0.3-1.5,0.1c-0.4-0.1-1.1-0.3-1-0.9c0-0.5,0.3-1,0.7-1.5c0.5-0.6,1.1-1.1,1.7-1.6
		c0.3-0.2,0.5-0.4,0.7-0.6c0.3-0.2,0.5-0.3,0.6-0.5c0.2-0.1,0.4-0.3,0.6-0.5c0.1-0.1,0.2-0.2,0.3-0.2c0.1,0,0.1-0.1,0.2-0.1
		c0.3,0.3,0.5,0.6,0.7,0.9C225.5,68.5,225.6,68.9,225.5,69.6z"/>
</g>
<g class="st1">
	<path class="st2" d="M63,30.5c0.2,0,0.5,0,0.8,0c0.7,0,1.3-0.3,1.3-1.4V18h2.3v11c0,2.9-1.6,3.7-3.3,3.7c-0.4,0-0.7,0-1.1,0V30.5z"
		/>
	<path class="st2" d="M76.4,32.6H74L73.6,30h-2.8l-0.4,2.6h-2.1L70.7,18H74L76.4,32.6z M71.1,28h2.2l-1.1-7.4l0,0L71.1,28z"/>
	<path class="st2" d="M78.5,27.8L75.6,18H78l1.7,6.6l0,0l1.7-6.6h2.2l-2.9,9.7v4.8h-2.3v-4.7H78.5z"/>
	<path class="st2" d="M90.9,17.9c2.2,0,3.4,1.3,3.4,3.7V22h-2.2v-0.6c0-1-0.4-1.4-1.1-1.4s-1.1,0.4-1.1,1.4c0,1.1,0.5,1.9,2,3.2
		c1.9,1.7,2.5,2.9,2.5,4.6c0,2.3-1.2,3.7-3.4,3.7s-3.4-1.3-3.4-3.7v-0.9h2.2v1c0,1,0.5,1.4,1.2,1.4s1.2-0.4,1.2-1.4
		c0-1.1-0.5-1.9-2-3.2c-1.9-1.7-2.5-2.9-2.5-4.6C87.6,19.2,88.7,17.9,90.9,17.9z"/>
	<path class="st2" d="M98.6,26.8l-0.7,1.3v4.5h-2.3V18h2.3v6.3l0,0l3-6.3h2.3l-3.2,6.5l3.2,8.1h-2.4L98.6,26.8z"/>
	<path class="st2" d="M109,32.6c-0.1-0.4-0.2-0.6-0.2-1.8v-2.3c0-1.4-0.5-1.9-1.5-1.9h-0.8v5.9h-2.3V18h3.5c2.4,0,3.4,1.1,3.4,3.3
		v1.1c0,1.5-0.5,2.5-1.5,2.9l0,0c1.1,0.5,1.5,1.6,1.5,3.1v2.2c0,0.7,0,1.2,0.2,1.8H109V32.6z M106.5,20.1v4.5h0.9
		c0.9,0,1.4-0.4,1.4-1.5v-1.4c0-1-0.4-1.5-1.2-1.5h-1.1C106.5,20.2,106.5,20.1,106.5,20.1z"/>
	<path class="st2" d="M112.6,18h2.3v14.6h-2.3V18z"/>
	<path class="st2" d="M123.3,21.6v1.9c0,2.3-1.1,3.6-3.4,3.6h-1.1v5.5h-2.3V18h3.4C122.2,18,123.3,19.3,123.3,21.6z M118.9,20.1V25
		h1.1c0.7,0,1.1-0.3,1.1-1.4v-2.2c0-1-0.4-1.4-1.1-1.4h-1.1V20.1z"/>
	<path class="st2" d="M123.7,18h7.1v2.1h-2.4v12.5h-2.3V20.1h-2.4C123.7,20.1,123.7,18,123.7,18z"/>
</g>
<g class="st1">
	<path class="st2" d="M155.1,24.7c0,1.3-0.9,2.8-2.3,3.6c0.6,1.3,1.5,2.6,2.5,3.9c0-2.7,1.2-5.5,4.1-5.5c1.8,0,3.1,1.2,3.1,2.8
		c0,1.4-1,2.8-2.5,2.8c-1,0-2-0.6-2.1-1.9c0.8-0.2,1.2-0.9,1.2-1.7c0-0.7-0.4-1.2-1.1-1.2c-1.6,0-2.6,2.8-2.5,4.9
		c1.9,2.3,4.3,4,6.3,4c0.6,0,0.9-0.4,1.2-0.9l0.1,0.1c-1.3,2.4-2.8,3.6-4.4,3.6c-1.5,0-3.2-0.8-4.7-2.1c-1.8,1.5-3.5,2.1-5.1,2.1
		c-3.5,0-5.3-2.2-5.3-4.6c0-2.3,1.7-4.5,5.2-5c-0.4-1.1-0.6-2.2-0.6-3.1C148.1,22.1,155.1,21.4,155.1,24.7z M147.6,32.5
		c0,2.5,1.8,5.2,4.4,5.2c0.6,0,1.2-0.2,1.8-0.7c-2.2-1.9-4.1-4.7-5.1-7.2C147.8,30.2,147.6,31.6,147.6,32.5z M151.8,24.9
		c0,0.9,0.3,2.1,0.9,3.3c1.3-0.7,2.2-2.2,2.2-3.5C154.9,22.6,151.8,22.3,151.8,24.9z"/>
</g>
</svg>
