<?xml version="1.0" encoding="utf-8"?>
<!-- Generator: Adobe Illustrator 22.0.1, SVG Export Plug-In . SVG Version: 6.00 Build 0)  -->
<svg version="1.1" id="Layer_1" xmlns="http://www.w3.org/2000/svg" xmlns:xlink="http://www.w3.org/1999/xlink" x="0px" y="0px"
	 viewBox="0 0 253.4 109.7" style="enable-background:new 0 0 253.4 109.7;" xml:space="preserve">
<style type="text/css">
	.st0{enable-background:new    ;}
	.st1{fill:#EE2954;}
	.st2{fill:none;stroke:#EE2954;stroke-width:0.5;stroke-miterlimit:10;}
</style>
<g class="st0">
	<path class="st1" d="M59.9,38.3c-4.8,0.4-9.5,0.8-14.2,1.3c-4.7,0.5-9.4,1.1-14.1,1.8c-2,16.7-4.1,33.5-6.4,50.2
		c-0.1,0.3-0.2,0.6-0.4,0.8c-0.2,0.2-0.5,0.3-0.7,0.3s-0.5-0.1-0.7-0.3c-0.2-0.2-0.3-0.4-0.2-0.8c1.1-8.3,2.2-16.6,3.2-24.9
		c1.1-8.3,2.1-16.6,3.1-25c-2.8,0.5-5.7,1-8.6,1.5c-2.9,0.5-5.7,1-8.6,1.6c-0.3,0.1-0.6,0.1-0.8-0.1c-0.2-0.2-0.4-0.4-0.4-0.7
		c-0.1-0.3-0.1-0.5,0-0.8c0.1-0.2,0.3-0.4,0.6-0.4c3.1-0.6,6.2-1.2,9.2-1.7c3-0.5,6.1-1,9.2-1.5c0.4-0.2,0.7-0.2,0.9-0.2
		c4.8-0.7,9.6-1.4,14.4-1.9c4.8-0.5,9.6-1,14.4-1.3c0.3,0,0.6,0.1,0.8,0.3c0.2,0.2,0.3,0.4,0.3,0.7c0,0.3-0.1,0.5-0.3,0.8
		C60.4,38.2,60.2,38.3,59.9,38.3z"/>
	<path class="st1" d="M57,59.6c0.2-0.3,0.5-0.4,0.8-0.4c0.3,0,0.5,0,0.8,0.2c0.2,0.1,0.4,0.3,0.5,0.6c0.1,0.3,0.1,0.5-0.2,0.8
		c-0.7,1.1-1.5,2.1-2.4,3c-0.9,1-1.8,1.9-2.7,2.8c-0.7,0.6-1.5,1.3-2.4,1.9c-0.8,0.7-1.8,0.9-2.8,0.8c-0.6-0.1-1.1-0.2-1.4-0.6
		c-0.3-0.3-0.6-0.7-0.7-1.2c-0.1-0.4-0.2-0.9-0.2-1.4c0-0.5,0-1,0-1.5l-0.2-7.3c-2.2,2.2-4.1,4.6-5.6,7.3C38.8,67.1,37.7,70,37,73
		c-0.1,0.3-0.3,0.5-0.5,0.6c-0.2,0.1-0.5,0.2-0.7,0.1c-0.2-0.1-0.4-0.2-0.6-0.3c-0.2-0.2-0.2-0.4-0.2-0.7
		c1.8-16.6,4.4-33.1,7.8-49.4c0.1-0.3,0.2-0.5,0.4-0.6c0.2-0.1,0.5-0.1,0.8,0c0.3,0.1,0.5,0.2,0.6,0.4c0.2,0.2,0.2,0.5,0.2,0.8
		c-1.4,6.8-2.6,13.6-3.8,20.3c-1.1,6.8-2.1,13.6-3,20.5c1.1-2,2.2-3.9,3.6-5.6c1.3-1.7,2.9-3.4,4.5-4.9c0.3-0.3,0.7-0.4,1.1-0.2
		c0.4,0.2,0.7,0.5,0.7,0.9c0.1,1.1,0.1,2.1,0.1,3.2c0,1.1,0.1,2.1,0.1,3.2c0,0.4,0,0.9,0,1.5c0,0.7,0,1.3,0,2
		c0.1,0.7,0.2,1.2,0.4,1.7c0.2,0.5,0.6,0.7,1,0.6c0.4-0.1,0.8-0.2,1.1-0.5c0.4-0.3,0.8-0.6,1.1-0.9c0.4-0.3,0.7-0.7,1-1.1
		c0.3-0.4,0.6-0.7,0.9-0.9C55.1,62.2,56.1,60.9,57,59.6z"/>
	<path class="st1" d="M73.2,59.6c0.2-0.3,0.4-0.4,0.7-0.4c0.3,0,0.6,0,0.8,0.2c0.2,0.1,0.4,0.3,0.5,0.6c0.1,0.2,0,0.5-0.1,0.8
		c-0.7,1.1-1.5,2-2.4,2.9c-0.9,0.9-1.9,1.8-2.8,2.6c-1.1,0.9-2.2,1.9-3.4,2.7c-1.2,0.9-2.5,1.4-4.1,1.6c-1.1,0.2-2.1,0.1-3.1-0.2
		c-1-0.3-1.9-0.9-2.6-1.7c-0.8-0.9-1.2-2-1.2-3.2c0-1.2,0.2-2.3,0.5-3.5c0.3-1,0.6-2,1-3.1c0.4-1.1,0.9-2.1,1.6-3.1
		c0.6-1,1.4-1.9,2.2-2.7c0.8-0.8,1.7-1.4,2.8-1.8c0.8-0.3,1.5-0.3,2.2,0c0.7,0.3,1.1,0.9,1.3,1.8c0.2,0.9,0.1,2-0.2,3.1
		c-0.4,1.1-0.8,2.1-1.3,2.8c-0.8,1.4-1.9,2.5-3.3,3.2c-1.4,0.7-2.7,0.6-4-0.2c-0.2,0.5-0.3,1.1-0.4,1.6c-0.1,0.6-0.2,1.1-0.2,1.6
		s0.1,1,0.3,1.5c0.2,0.5,0.6,0.9,1.1,1.2c1.1,0.7,2.2,0.9,3.3,0.6c1.2-0.3,2.2-0.7,3.1-1.3c0.9-0.6,1.7-1.2,2.6-2
		c0.8-0.8,1.6-1.5,2.4-2.2c0.5-0.5,1-1.1,1.5-1.6C72.3,60.8,72.8,60.2,73.2,59.6z M64.9,54.1c-0.1-0.6-0.4-0.9-0.8-0.8
		c-0.4,0.1-0.9,0.4-1.4,0.8c-0.5,0.4-1,0.8-1.4,1.3c-0.4,0.5-0.7,0.9-0.9,1.1c-0.6,0.9-1.2,2.1-1.7,3.3c0.7,0.6,1.4,0.8,2,0.6
		c0.7-0.2,1.3-0.6,1.9-1.3c0.2-0.3,0.5-0.6,0.8-1c0.3-0.4,0.6-0.9,0.8-1.3s0.4-0.9,0.6-1.4C64.9,54.9,65,54.5,64.9,54.1z"/>
</g>
<g class="st0">
	<path class="st2" d="M59.9,38.3c-4.8,0.4-9.5,0.8-14.2,1.3c-4.7,0.5-9.4,1.1-14.1,1.8c-2,16.7-4.1,33.5-6.4,50.2
		c-0.1,0.3-0.2,0.6-0.4,0.8c-0.2,0.2-0.5,0.3-0.7,0.3s-0.5-0.1-0.7-0.3c-0.2-0.2-0.3-0.4-0.2-0.8c1.1-8.3,2.2-16.6,3.2-24.9
		c1.1-8.3,2.1-16.6,3.1-25c-2.8,0.5-5.7,1-8.6,1.5c-2.9,0.5-5.7,1-8.6,1.6c-0.3,0.1-0.6,0.1-0.8-0.1c-0.2-0.2-0.4-0.4-0.4-0.7
		c-0.1-0.3-0.1-0.5,0-0.8c0.1-0.2,0.3-0.4,0.6-0.4c3.1-0.6,6.2-1.2,9.2-1.7c3-0.5,6.1-1,9.2-1.5c0.4-0.2,0.7-0.2,0.9-0.2
		c4.8-0.7,9.6-1.4,14.4-1.9c4.8-0.5,9.6-1,14.4-1.3c0.3,0,0.6,0.1,0.8,0.3c0.2,0.2,0.3,0.4,0.3,0.7c0,0.3-0.1,0.5-0.3,0.8
		C60.4,38.2,60.2,38.3,59.9,38.3z"/>
	<path class="st2" d="M57,59.6c0.2-0.3,0.5-0.4,0.8-0.4c0.3,0,0.5,0,0.8,0.2c0.2,0.1,0.4,0.3,0.5,0.6c0.1,0.3,0.1,0.5-0.2,0.8
		c-0.7,1.1-1.5,2.1-2.4,3c-0.9,1-1.8,1.9-2.7,2.8c-0.7,0.6-1.5,1.3-2.4,1.9c-0.8,0.7-1.8,0.9-2.8,0.8c-0.6-0.1-1.1-0.2-1.4-0.6
		c-0.3-0.3-0.6-0.7-0.7-1.2c-0.1-0.4-0.2-0.9-0.2-1.4c0-0.5,0-1,0-1.5l-0.2-7.3c-2.2,2.2-4.1,4.6-5.6,7.3C38.8,67.1,37.7,70,37,73
		c-0.1,0.3-0.3,0.5-0.5,0.6c-0.2,0.1-0.5,0.2-0.7,0.1c-0.2-0.1-0.4-0.2-0.6-0.3c-0.2-0.2-0.2-0.4-0.2-0.7
		c1.8-16.6,4.4-33.1,7.8-49.4c0.1-0.3,0.2-0.5,0.4-0.6c0.2-0.1,0.5-0.1,0.8,0c0.3,0.1,0.5,0.2,0.6,0.4c0.2,0.2,0.2,0.5,0.2,0.8
		c-1.4,6.8-2.6,13.6-3.8,20.3c-1.1,6.8-2.1,13.6-3,20.5c1.1-2,2.2-3.9,3.6-5.6c1.3-1.7,2.9-3.4,4.5-4.9c0.3-0.3,0.7-0.4,1.1-0.2
		c0.4,0.2,0.7,0.5,0.7,0.9c0.1,1.1,0.1,2.1,0.1,3.2c0,1.1,0.1,2.1,0.1,3.2c0,0.4,0,0.9,0,1.5c0,0.7,0,1.3,0,2
		c0.1,0.7,0.2,1.2,0.4,1.7c0.2,0.5,0.6,0.7,1,0.6c0.4-0.1,0.8-0.2,1.1-0.5c0.4-0.3,0.8-0.6,1.1-0.9c0.4-0.3,0.7-0.7,1-1.1
		c0.3-0.4,0.6-0.7,0.9-0.9C55.1,62.2,56.1,60.9,57,59.6z"/>
	<path class="st2" d="M73.2,59.6c0.2-0.3,0.4-0.4,0.7-0.4c0.3,0,0.6,0,0.8,0.2c0.2,0.1,0.4,0.3,0.5,0.6c0.1,0.2,0,0.5-0.1,0.8
		c-0.7,1.1-1.5,2-2.4,2.9c-0.9,0.9-1.9,1.8-2.8,2.6c-1.1,0.9-2.2,1.9-3.4,2.7c-1.2,0.9-2.5,1.4-4.1,1.6c-1.1,0.2-2.1,0.1-3.1-0.2
		c-1-0.3-1.9-0.9-2.6-1.7c-0.8-0.9-1.2-2-1.2-3.2c0-1.2,0.2-2.3,0.5-3.5c0.3-1,0.6-2,1-3.1c0.4-1.1,0.9-2.1,1.6-3.1
		c0.6-1,1.4-1.9,2.2-2.7c0.8-0.8,1.7-1.4,2.8-1.8c0.8-0.3,1.5-0.3,2.2,0c0.7,0.3,1.1,0.9,1.3,1.8c0.2,0.9,0.1,2-0.2,3.1
		c-0.4,1.1-0.8,2.1-1.3,2.8c-0.8,1.4-1.9,2.5-3.3,3.2c-1.4,0.7-2.7,0.6-4-0.2c-0.2,0.5-0.3,1.1-0.4,1.6c-0.1,0.6-0.2,1.1-0.2,1.6
		s0.1,1,0.3,1.5c0.2,0.5,0.6,0.9,1.1,1.2c1.1,0.7,2.2,0.9,3.3,0.6c1.2-0.3,2.2-0.7,3.1-1.3c0.9-0.6,1.7-1.2,2.6-2
		c0.8-0.8,1.6-1.5,2.4-2.2c0.5-0.5,1-1.1,1.5-1.6C72.3,60.8,72.8,60.2,73.2,59.6z M64.9,54.1c-0.1-0.6-0.4-0.9-0.8-0.8
		c-0.4,0.1-0.9,0.4-1.4,0.8c-0.5,0.4-1,0.8-1.4,1.3c-0.4,0.5-0.7,0.9-0.9,1.1c-0.6,0.9-1.2,2.1-1.7,3.3c0.7,0.6,1.4,0.8,2,0.6
		c0.7-0.2,1.3-0.6,1.9-1.3c0.2-0.3,0.5-0.6,0.8-1c0.3-0.4,0.6-0.9,0.8-1.3s0.4-0.9,0.6-1.4C64.9,54.9,65,54.5,64.9,54.1z"/>
</g>
<g class="st0">
</g>
<g class="st0">
</g>
<g class="st0">
	<path class="st1" d="M132.3,59.1c0.3-0.1,0.6,0,0.8,0.2c0.2,0.2,0.4,0.4,0.4,0.6c0.1,0.2,0.1,0.5,0,0.8c-0.1,0.3-0.3,0.4-0.6,0.5
		c-1.5,0.4-3.1,0.9-4.6,1.5c-1.5,0.6-3.1,1.2-4.6,1.9c-1.8,4.3-4.1,8.4-6.9,12.4c-0.7,1.1-1.5,2.1-2.3,3.1s-1.7,2-2.6,2.8
		c-0.3,0.3-0.7,0.6-1.1,0.9c-0.4,0.3-0.8,0.6-1.3,0.9c-0.4,0.2-0.9,0.4-1.4,0.4c-0.5,0.1-0.9-0.1-1.3-0.3c-0.9-0.5-1.4-1.3-1.7-2.2
		c-0.2-0.9-0.2-1.9,0-2.9c0.2-1,0.6-2,1-2.9c0.5-0.9,0.9-1.7,1.4-2.3c1.8-2.4,4-4.6,6.5-6.5c2.5-1.9,5.2-3.6,8-5
		c1.3-3.1,2.3-6.2,3.1-9.4c0.8-3.2,1.2-6.4,1.3-9.7c0-0.4,0-1.1,0-2c0-0.9,0-1.8-0.2-2.6c-0.2-0.8-0.4-1.5-0.8-1.9
		c-0.4-0.4-0.9-0.4-1.7,0c-0.8,0.5-1.6,1.1-2.3,1.7c-0.7,0.7-1.4,1.4-2,2.1c-1.4,1.5-2.6,3.1-3.8,4.9c-1.1,1.7-2.2,3.5-3.1,5.3
		c-2.2,4.1-4.2,8.3-6.1,12.5c-1.8,4.2-3.6,8.5-5.3,12.8l-0.2,0.3c-0.1,0.2-0.2,0.3-0.2,0.5c0,0.2-0.1,0.4-0.1,0.5
		c-0.1,0.3-0.3,0.5-0.6,0.7c-0.3,0.1-0.5,0.2-0.8,0.1c-0.3-0.1-0.5-0.2-0.6-0.5c-0.2-0.2-0.2-0.5-0.1-0.8c1.4-4.5,2.3-9,2.9-13.7
		c0.6-4.7,0.6-9.3,0.2-14c-0.1-0.9-0.2-2-0.3-3.1c-0.1-1.1-0.5-2.1-1.1-2.8c-0.5-0.6-1-0.9-1.6-0.9c-0.6,0-1.2,0.2-1.7,0.5
		c-0.6,0.3-1.1,0.7-1.6,1.2c-0.5,0.5-0.9,0.9-1.2,1.3c-1.5,1.6-2.7,3.4-3.6,5.3c-0.9,1.9-1.5,3.9-1.9,6c-0.1,0.3-0.3,0.5-0.5,0.7
		c-0.2,0.1-0.5,0.2-0.7,0.1s-0.4-0.2-0.6-0.5c-0.2-0.2-0.2-0.5-0.2-0.8c0.5-2.5,1.3-4.8,2.4-7.1c1.1-2.3,2.6-4.3,4.5-6.1
		c0.7-0.7,1.6-1.4,2.6-2c1-0.6,2.1-0.8,3.2-0.6c0.9,0.2,1.6,0.5,2.2,1.1c0.6,0.6,1,1.3,1.3,2.2c0.5,1.1,0.8,2.3,0.8,3.6
		c0.1,1.3,0.2,2.5,0.3,3.8c0.1,1.5,0.1,3,0.1,4.5c0,1.5-0.1,3-0.2,4.5c-0.1,1.7-0.2,3.4-0.5,5.1c0.6-1.4,1.2-2.7,1.7-4
		c0.6-1.3,1.2-2.6,1.8-4c1.3-2.6,2.6-5.2,3.9-7.8c1.3-2.6,2.9-5.1,4.7-7.4c0.8-1.1,1.6-2.1,2.5-3c0.9-1,1.9-1.9,2.9-2.7
		c0.6-0.6,1.3-1.1,2.1-1.6c0.8-0.5,1.6-0.7,2.5-0.6c1,0.2,1.7,0.6,2,1.5c0.3,0.8,0.5,1.6,0.6,2.5c0.2,1.5,0.3,2.9,0.3,4.4
		c0,1.4-0.1,2.9-0.3,4.5c-0.3,2.4-0.7,4.7-1.3,7.1c-0.6,2.3-1.3,4.7-2.2,7c1.2-0.5,2.4-1,3.7-1.4C129.8,59.8,131.1,59.4,132.3,59.1z
		 M119.2,69.1c0.3-0.5,0.5-1,0.8-1.5c0.3-0.5,0.5-1,0.8-1.5c-2.1,1.2-4.1,2.6-6,4.1c-1.9,1.5-3.6,3.2-5.1,5.1
		c-0.6,0.8-1.2,1.7-1.8,2.7c-0.6,1-0.8,2-0.7,3.1c0.1,0.9,0.3,1.5,0.7,1.6c0.4,0.1,0.8,0,1.3-0.2c0.5-0.3,1-0.6,1.5-1.1
		c0.5-0.5,0.9-0.9,1.2-1.2c1.5-1.6,2.8-3.4,4-5.2S118.1,71,119.2,69.1z"/>
	<path class="st1" d="M146,61.2c-1,0.4-2,0.8-3,1.1c-1,0.3-2.1,0.6-3.1,0.7c-0.2,1.4-0.5,3-1,4.6c-0.4,1.7-1.2,3-2.3,4.1
		c-0.9,0.9-2,1.2-3.1,0.8c-1.1-0.4-2-1.1-2.5-2.2c-0.3-0.7-0.5-1.4-0.6-2.3c-0.1-0.8-0.1-1.7,0.1-2.6c0.1-0.9,0.3-1.7,0.6-2.5
		c0.2-0.8,0.5-1.6,0.8-2.2c0.2-0.4,0.5-0.6,0.9-0.6c-0.5-0.8-0.8-1.7-0.9-2.7c-0.1-0.5-0.1-1.1,0-1.8c0.1-0.7,0.2-1.3,0.4-1.9
		c0.2-0.6,0.5-1.2,0.9-1.7c0.4-0.5,0.9-0.9,1.5-1.1c1.1-0.5,2-0.4,2.8,0.3c0.8,0.7,1.4,1.5,1.7,2.4c0.4,1.2,0.7,2.4,0.8,3.7
		c0.1,1.3,0.1,2.5,0,3.8c1-0.1,2-0.3,2.9-0.7c0.9-0.3,1.8-0.7,2.5-1c0.3-0.2,0.6-0.2,0.8,0c0.2,0.2,0.3,0.4,0.4,0.6
		c0.1,0.2,0,0.5,0,0.8C146.5,60.9,146.3,61.1,146,61.2z M136.6,67.4c0.5-1.4,0.9-2.9,1.2-4.5c-0.5,0-0.9-0.1-1.3-0.2
		c-0.5-0.2-1-0.4-1.4-0.6c-0.4-0.3-0.8-0.6-1.3-0.9c-0.4,0.9-0.8,1.9-1,2.9c-0.2,1-0.4,2-0.4,3.1c0,0.3,0,0.6,0.1,1.1
		c0.1,0.5,0.2,1,0.4,1.4c0.2,0.4,0.4,0.7,0.8,0.9c0.3,0.2,0.8,0,1.3-0.4c0.4-0.3,0.7-0.7,0.9-1.3C136.2,68.3,136.4,67.8,136.6,67.4z
		 M134.6,53.5c-0.6,0.7-0.8,1.7-0.8,2.8c0.1,1.1,0.3,2.1,0.8,2.8c0.4,0.6,0.9,1,1.5,1.3c0.6,0.3,1.2,0.5,1.8,0.6
		c0.1-1.5,0-3.1-0.2-4.6c-0.1-0.3-0.2-0.8-0.3-1.3c-0.2-0.6-0.4-1.1-0.6-1.5c-0.2-0.4-0.5-0.7-0.9-0.8
		C135.5,52.6,135.1,52.8,134.6,53.5z"/>
	<path class="st1" d="M175.7,59.5c0.2-0.3,0.4-0.4,0.6-0.4c0.3,0,0.5,0,0.8,0.2c0.2,0.1,0.4,0.3,0.5,0.6c0.1,0.2,0.1,0.5-0.1,0.8
		c-0.8,1.5-1.8,3.1-3,4.9c-1.1,1.7-2.5,3-4,4c-0.6,0.4-1.2,0.6-1.8,0.6s-1.1-0.2-1.6-0.5c-0.5-0.3-0.9-0.8-1.2-1.3
		c-0.3-0.6-0.5-1.2-0.6-1.9c-0.2-1.1-0.3-2.1-0.3-3.3c-0.1-1.1-0.1-2.3-0.2-3.4c-0.1-0.6-0.1-1.2-0.1-1.7s-0.1-1.2-0.2-1.7
		c0-0.1,0-0.2,0-0.4c0-0.2,0-0.3,0-0.4c0-0.5-0.1-0.6-0.2-0.2c-0.1,0-0.2,0.1-0.3,0.2c-0.2,0.1-0.3,0.2-0.5,0.4
		c-0.2,0.2-0.4,0.4-0.6,0.6c-0.7,0.7-1.4,1.4-1.9,2.3c-0.5,0.8-1,1.7-1.5,2.6c-0.4,0.9-0.9,1.8-1.3,2.7c-0.4,0.9-1,1.8-1.5,2.6
		c-0.3,0.4-0.6,0.6-1.1,0.5c-0.5-0.1-0.7-0.4-0.7-0.9c0.1-1.6,0.1-3.2,0.1-4.7c0-1.6,0-3.1,0.1-4.7c-0.7,0.9-1.3,2-1.8,3.1
		c-0.4,1.1-0.9,2.3-1.3,3.5c-0.4,1.2-0.9,2.3-1.5,3.4s-1.3,2.1-2.2,2.9c-0.4,0.3-0.7,0.3-1.1,0.2c-0.4-0.2-0.6-0.5-0.7-0.9
		c-0.2-1.7-0.4-3.4-0.6-5c-0.2-1.7-0.2-3.3-0.2-5c0-0.3,0.1-0.6,0.3-0.8c0.2-0.2,0.4-0.3,0.7-0.3c0.3,0,0.5,0.1,0.7,0.3
		c0.2,0.2,0.3,0.4,0.3,0.8c0,2.6,0.2,5.2,0.5,7.7c0.8-1,1.4-2.1,1.8-3.3c0.4-1.2,0.9-2.4,1.3-3.6c0.4-1.2,1-2.3,1.6-3.4
		c0.6-1.1,1.5-2.1,2.6-2.8c0.3-0.3,0.7-0.3,1,0c0.4,0.2,0.5,0.5,0.5,0.9c-0.1,1.3-0.1,2.6-0.1,3.9c0,1.3,0,2.6-0.1,3.9
		c0.6-1.1,1.1-2.1,1.7-3.2c0.6-1.1,1.2-2.1,2-3c0.3-0.3,0.7-0.7,1.2-1.1c0.5-0.4,1.1-0.8,1.7-1.1c0.6-0.3,1.1-0.4,1.7-0.4
		c0.5,0,0.9,0.4,1.3,1c0.4,0.8,0.6,1.7,0.6,2.8c0,1.1,0.1,2,0.2,2.8c0.1,1.1,0.2,2.1,0.2,3.2c0,1.1,0.1,2.1,0.3,3.2
		c0.1,0.4,0.3,0.9,0.5,1.3c0.2,0.4,0.7,0.5,1.4,0.3c0.2-0.1,0.4-0.2,0.6-0.4c0.2-0.2,0.4-0.4,0.6-0.6c0.4-0.4,0.7-0.8,1.1-1.1
		c0.3-0.4,0.7-0.8,1-1.2c0.6-0.7,1.1-1.5,1.7-2.3C174.7,61.2,175.2,60.4,175.7,59.5z"/>
	<path class="st1" d="M188.4,59.1c0.3-0.1,0.6-0.1,0.8,0.1c0.2,0.2,0.4,0.4,0.5,0.6c0.1,0.3,0.1,0.5-0.1,0.8
		c-0.1,0.3-0.4,0.4-0.7,0.6c-1.5,0.4-2.9,1.1-4.3,1.9c-1.3,0.8-2.6,1.8-3.9,2.8c0.5,0.4,0.9,0.9,1.2,1.5c0.4,0.9,0.4,1.9,0.2,2.9
		c-0.2,1-0.6,1.9-1.2,2.7c-0.6,0.8-1.3,1.5-2.2,2.1s-1.8,0.9-2.7,0.9c-0.9,0.1-1.7-0.1-2.5-0.6c-0.8-0.4-1.3-1.1-1.6-2
		c-0.2-0.6-0.2-1.1-0.1-1.7c0.2-0.5,0.4-1,0.8-1.4c0.3-0.4,0.7-0.8,1.1-1.2c0.4-0.4,0.8-0.8,1.3-1.1c0.4-0.4,0.8-0.7,1.2-1
		c0.4-0.3,0.8-0.7,1.2-1c-0.1-0.1-0.2-0.2-0.4-0.3c-0.5-0.5-0.9-1-1.3-1.5c-0.3-0.6-0.5-1.2-0.6-1.9c-0.1-1.6,0.4-3.2,1.3-4.7
		c0.9-1.5,2-2.7,3.2-3.7c0.3-0.2,0.5-0.3,0.8-0.2c0.3,0.1,0.5,0.2,0.7,0.4c0.2,0.2,0.3,0.4,0.3,0.7c0,0.2-0.1,0.5-0.4,0.7
		c-0.5,0.4-1,0.9-1.6,1.5c-0.6,0.6-1.1,1.3-1.5,2.1c-0.4,0.7-0.7,1.5-0.9,2.3c-0.1,0.8,0,1.5,0.4,2.1c0.3,0.4,0.7,0.9,1.3,1.3
		c1.4-1.2,2.9-2.2,4.5-3.2C185.1,60.4,186.7,59.7,188.4,59.1z M180.3,69.6c0.1-0.6,0.1-1.1-0.2-1.5c-0.2-0.4-0.5-0.8-0.9-1.1
		c-0.2,0.2-0.4,0.3-0.6,0.5s-0.4,0.4-0.6,0.5c-0.3,0.3-0.8,0.6-1.4,1.1c-0.6,0.5-1.2,1-1.7,1.6c-0.5,0.6-0.8,1.1-0.8,1.7
		c-0.1,0.5,0.3,0.9,1.2,1.1c0.5,0.2,1.1,0.1,1.6-0.1c0.6-0.2,1.1-0.5,1.5-0.9c0.5-0.4,0.9-0.9,1.1-1.5
		C180,70.6,180.2,70.1,180.3,69.6z"/>
	<path class="st1" d="M201.5,46.6c-1.6,0.1-3.3,0.2-4.9,0.3c-1.6,0.1-3.2,0.2-4.9,0.3c-1.1,7.5-1.8,14.9-2.4,22.3
		c-0.5,7.4-0.8,14.9-0.9,22.4c0,0.3-0.1,0.6-0.3,0.8c-0.2,0.2-0.4,0.3-0.7,0.3c-0.3,0-0.5-0.1-0.7-0.3c-0.2-0.2-0.3-0.4-0.3-0.8
		c0.1-7.5,0.4-15,0.9-22.4c0.5-7.4,1.3-14.8,2.2-22.2c-0.9,0.1-1.7,0.1-2.6,0.2c-0.8,0.1-1.7,0.1-2.6,0.2c-0.3,0-0.6-0.1-0.8-0.3
		c-0.2-0.2-0.3-0.4-0.3-0.7s0.1-0.5,0.3-0.8c0.2-0.2,0.4-0.4,0.8-0.4c0.9-0.1,1.8-0.2,2.7-0.2c0.9,0,1.8-0.1,2.7-0.2
		c0.3-1.9,0.6-3.8,0.9-5.7c0.3-1.9,0.7-3.8,1-5.7c0.1-0.3,0.2-0.5,0.4-0.7c0.2-0.1,0.5-0.2,0.7-0.1c0.2,0.1,0.4,0.2,0.6,0.5
		c0.2,0.2,0.2,0.5,0.2,0.8c-0.3,1.8-0.6,3.6-0.9,5.4c-0.3,1.8-0.6,3.6-0.8,5.4c1.6-0.1,3.2-0.2,4.7-0.3c1.6-0.1,3.1-0.2,4.7-0.3
		c0.3,0,0.6,0.1,0.8,0.3c0.2,0.2,0.3,0.4,0.3,0.7c0,0.3-0.1,0.5-0.3,0.8C202.1,46.5,201.8,46.6,201.5,46.6z"/>
	<path class="st1" d="M211.7,59.6c0.2-0.3,0.4-0.4,0.7-0.4c0.3,0,0.6,0,0.8,0.2c0.2,0.1,0.4,0.3,0.5,0.6c0.1,0.2,0,0.5-0.1,0.8
		c-0.7,1.1-1.5,2-2.4,2.9c-0.9,0.9-1.9,1.8-2.8,2.6c-1.1,0.9-2.2,1.9-3.4,2.7c-1.2,0.9-2.5,1.4-4.1,1.6c-1.1,0.2-2.1,0.1-3.1-0.2
		c-1-0.3-1.9-0.9-2.6-1.7c-0.8-0.9-1.2-2-1.2-3.2c0-1.2,0.2-2.3,0.5-3.5c0.3-1,0.6-2,1-3.1c0.4-1.1,0.9-2.1,1.6-3.1
		c0.6-1,1.4-1.9,2.2-2.7c0.8-0.8,1.7-1.4,2.8-1.8c0.8-0.3,1.5-0.3,2.2,0c0.7,0.3,1.1,0.9,1.3,1.8c0.2,0.9,0.1,2-0.2,3.1
		c-0.4,1.1-0.8,2.1-1.3,2.8c-0.8,1.4-1.9,2.5-3.3,3.2c-1.4,0.7-2.7,0.6-4-0.2c-0.2,0.5-0.3,1.1-0.4,1.6c-0.1,0.6-0.2,1.1-0.2,1.6
		s0.1,1,0.3,1.5c0.2,0.5,0.6,0.9,1.1,1.2c1.1,0.7,2.2,0.9,3.3,0.6c1.2-0.3,2.2-0.7,3.1-1.3c0.9-0.6,1.7-1.2,2.6-2
		c0.8-0.8,1.6-1.5,2.4-2.2c0.5-0.5,1-1.1,1.5-1.6C210.8,60.8,211.3,60.2,211.7,59.6z M203.4,54.1c-0.1-0.6-0.4-0.9-0.8-0.8
		c-0.4,0.1-0.9,0.4-1.4,0.8c-0.5,0.4-1,0.8-1.4,1.3c-0.4,0.5-0.7,0.9-0.9,1.1c-0.6,0.9-1.2,2.1-1.7,3.3c0.7,0.6,1.4,0.8,2,0.6
		c0.7-0.2,1.3-0.6,1.9-1.3c0.2-0.3,0.5-0.6,0.8-1c0.3-0.4,0.6-0.9,0.8-1.3c0.2-0.5,0.4-0.9,0.6-1.4
		C203.4,54.9,203.5,54.5,203.4,54.1z"/>
	<path class="st1" d="M226.3,55c0.2,0.2,0.3,0.5,0.3,0.8c0,0.3-0.1,0.5-0.3,0.7c-0.2,0.2-0.4,0.3-0.6,0.4c-0.3,0.1-0.5,0-0.7-0.2
		c-0.8-0.8-1.6-1.3-2.3-1.5c-0.7-0.2-1.3-0.2-1.9,0.1c-0.6,0.2-1.2,0.7-1.7,1.3c-0.6,0.6-1.2,1.3-1.7,2.2c-1.2,1.7-2.2,3.5-3,5.6
		c-0.8,2-1.3,4.1-1.3,6.2c0,0.3-0.1,0.6-0.3,0.8c-0.2,0.2-0.4,0.3-0.7,0.3c-0.3,0-0.5-0.1-0.8-0.3c-0.2-0.2-0.4-0.4-0.4-0.8
		c-0.1-4.5,0.3-9.1,0.9-13.7c0.1-0.3,0.2-0.5,0.4-0.6c0.2-0.1,0.5-0.1,0.8,0c0.3,0.1,0.5,0.2,0.7,0.4c0.2,0.2,0.2,0.5,0.2,0.8
		c-0.1,0.6-0.2,1.3-0.3,1.9c-0.1,0.6-0.2,1.3-0.3,1.9c0.4-0.7,0.9-1.5,1.3-2.2c0.4-0.7,0.9-1.4,1.4-2.1c1.4-1.8,2.9-3,4.7-3.5
		C222.6,52.8,224.5,53.3,226.3,55z"/>
	<path class="st1" d="M233.9,59.1c0.3-0.1,0.6-0.1,0.8,0.1c0.2,0.2,0.4,0.4,0.5,0.6c0.1,0.3,0.1,0.5-0.1,0.8
		c-0.1,0.3-0.4,0.4-0.7,0.6c-1.5,0.4-2.9,1.1-4.3,1.9c-1.3,0.8-2.6,1.8-3.9,2.8c0.5,0.4,0.9,0.9,1.2,1.5c0.4,0.9,0.4,1.9,0.2,2.9
		c-0.2,1-0.6,1.9-1.2,2.7c-0.6,0.8-1.3,1.5-2.2,2.1c-0.9,0.6-1.8,0.9-2.7,0.9c-0.9,0.1-1.7-0.1-2.5-0.6c-0.8-0.4-1.3-1.1-1.6-2
		c-0.2-0.6-0.2-1.1-0.1-1.7c0.2-0.5,0.4-1,0.8-1.4c0.3-0.4,0.7-0.8,1.1-1.2c0.4-0.4,0.8-0.8,1.3-1.1c0.4-0.4,0.8-0.7,1.2-1
		c0.4-0.3,0.8-0.7,1.2-1c-0.1-0.1-0.2-0.2-0.4-0.3c-0.5-0.5-0.9-1-1.3-1.5c-0.3-0.6-0.5-1.2-0.6-1.9c-0.1-1.6,0.4-3.2,1.3-4.7
		c0.9-1.5,2-2.7,3.2-3.7c0.3-0.2,0.5-0.3,0.8-0.2c0.3,0.1,0.5,0.2,0.7,0.4c0.2,0.2,0.3,0.4,0.3,0.7c0,0.2-0.1,0.5-0.4,0.7
		c-0.5,0.4-1,0.9-1.6,1.5s-1.1,1.3-1.5,2.1c-0.4,0.7-0.7,1.5-0.9,2.3c-0.1,0.8,0,1.5,0.4,2.1c0.3,0.4,0.7,0.9,1.3,1.3
		c1.4-1.2,2.9-2.2,4.5-3.2C230.6,60.4,232.2,59.7,233.9,59.1z M225.7,69.6c0.1-0.6,0.1-1.1-0.2-1.5c-0.2-0.4-0.5-0.8-0.9-1.1
		c-0.2,0.2-0.4,0.3-0.6,0.5c-0.2,0.2-0.4,0.4-0.6,0.5c-0.3,0.3-0.8,0.6-1.4,1.1c-0.6,0.5-1.2,1-1.7,1.6c-0.5,0.6-0.8,1.1-0.8,1.7
		c-0.1,0.5,0.3,0.9,1.2,1.1c0.5,0.2,1.1,0.1,1.6-0.1c0.6-0.2,1.1-0.5,1.5-0.9c0.5-0.4,0.9-0.9,1.1-1.5
		C225.4,70.6,225.6,70.1,225.7,69.6z"/>
</g>
<g class="st0">
	<path class="st2" d="M132.3,59.1c0.3-0.1,0.6,0,0.8,0.2c0.2,0.2,0.4,0.4,0.4,0.6c0.1,0.2,0.1,0.5,0,0.8c-0.1,0.3-0.3,0.4-0.6,0.5
		c-1.5,0.4-3.1,0.9-4.6,1.5c-1.5,0.6-3.1,1.2-4.6,1.9c-1.8,4.3-4.1,8.4-6.9,12.4c-0.7,1.1-1.5,2.1-2.3,3.1s-1.7,2-2.6,2.8
		c-0.3,0.3-0.7,0.6-1.1,0.9c-0.4,0.3-0.8,0.6-1.3,0.9c-0.4,0.2-0.9,0.4-1.4,0.4c-0.5,0.1-0.9-0.1-1.3-0.3c-0.9-0.5-1.4-1.3-1.7-2.2
		c-0.2-0.9-0.2-1.9,0-2.9c0.2-1,0.6-2,1-2.9c0.5-0.9,0.9-1.7,1.4-2.3c1.8-2.4,4-4.6,6.5-6.5c2.5-1.9,5.2-3.6,8-5
		c1.3-3.1,2.3-6.2,3.1-9.4c0.8-3.2,1.2-6.4,1.3-9.7c0-0.4,0-1.1,0-2c0-0.9,0-1.8-0.2-2.6c-0.2-0.8-0.4-1.5-0.8-1.9
		c-0.4-0.4-0.9-0.4-1.7,0c-0.8,0.5-1.6,1.1-2.3,1.7c-0.7,0.7-1.4,1.4-2,2.1c-1.4,1.5-2.6,3.1-3.8,4.9c-1.1,1.7-2.2,3.5-3.1,5.3
		c-2.2,4.1-4.2,8.3-6.1,12.5c-1.8,4.2-3.6,8.5-5.3,12.8l-0.2,0.3c-0.1,0.2-0.2,0.3-0.2,0.5c0,0.2-0.1,0.4-0.1,0.5
		c-0.1,0.3-0.3,0.5-0.6,0.7c-0.3,0.1-0.5,0.2-0.8,0.1c-0.3-0.1-0.5-0.2-0.6-0.5c-0.2-0.2-0.2-0.5-0.1-0.8c1.4-4.5,2.3-9,2.9-13.7
		c0.6-4.7,0.6-9.3,0.2-14c-0.1-0.9-0.2-2-0.3-3.1c-0.1-1.1-0.5-2.1-1.1-2.8c-0.5-0.6-1-0.9-1.6-0.9c-0.6,0-1.2,0.2-1.7,0.5
		c-0.6,0.3-1.1,0.7-1.6,1.2c-0.5,0.5-0.9,0.9-1.2,1.3c-1.5,1.6-2.7,3.4-3.6,5.3c-0.9,1.9-1.5,3.9-1.9,6c-0.1,0.3-0.3,0.5-0.5,0.7
		c-0.2,0.1-0.5,0.2-0.7,0.1s-0.4-0.2-0.6-0.5c-0.2-0.2-0.2-0.5-0.2-0.8c0.5-2.5,1.3-4.8,2.4-7.1c1.1-2.3,2.6-4.3,4.5-6.1
		c0.7-0.7,1.6-1.4,2.6-2c1-0.6,2.1-0.8,3.2-0.6c0.9,0.2,1.6,0.5,2.2,1.1c0.6,0.6,1,1.3,1.3,2.2c0.5,1.1,0.8,2.3,0.8,3.6
		c0.1,1.3,0.2,2.5,0.3,3.8c0.1,1.5,0.1,3,0.1,4.5c0,1.5-0.1,3-0.2,4.5c-0.1,1.7-0.2,3.4-0.5,5.1c0.6-1.4,1.2-2.7,1.7-4
		c0.6-1.3,1.2-2.6,1.8-4c1.3-2.6,2.6-5.2,3.9-7.8c1.3-2.6,2.9-5.1,4.7-7.4c0.8-1.1,1.6-2.1,2.5-3c0.9-1,1.9-1.9,2.9-2.7
		c0.6-0.6,1.3-1.1,2.1-1.6c0.8-0.5,1.6-0.7,2.5-0.6c1,0.2,1.7,0.6,2,1.5c0.3,0.8,0.5,1.6,0.6,2.5c0.2,1.5,0.3,2.9,0.3,4.4
		c0,1.4-0.1,2.9-0.3,4.5c-0.3,2.4-0.7,4.7-1.3,7.1c-0.6,2.3-1.3,4.7-2.2,7c1.2-0.5,2.4-1,3.7-1.4C129.8,59.8,131.1,59.4,132.3,59.1z
		 M119.2,69.1c0.3-0.5,0.5-1,0.8-1.5c0.3-0.5,0.5-1,0.8-1.5c-2.1,1.2-4.1,2.6-6,4.1c-1.9,1.5-3.6,3.2-5.1,5.1
		c-0.6,0.8-1.2,1.7-1.8,2.7c-0.6,1-0.8,2-0.7,3.1c0.1,0.9,0.3,1.5,0.7,1.6c0.4,0.1,0.8,0,1.3-0.2c0.5-0.3,1-0.6,1.5-1.1
		c0.5-0.5,0.9-0.9,1.2-1.2c1.5-1.6,2.8-3.4,4-5.2S118.1,71,119.2,69.1z"/>
	<path class="st2" d="M146,61.2c-1,0.4-2,0.8-3,1.1c-1,0.3-2.1,0.6-3.1,0.7c-0.2,1.4-0.5,3-1,4.6c-0.4,1.7-1.2,3-2.3,4.1
		c-0.9,0.9-2,1.2-3.1,0.8c-1.1-0.4-2-1.1-2.5-2.2c-0.3-0.7-0.5-1.4-0.6-2.3c-0.1-0.8-0.1-1.7,0.1-2.6c0.1-0.9,0.3-1.7,0.6-2.5
		c0.2-0.8,0.5-1.6,0.8-2.2c0.2-0.4,0.5-0.6,0.9-0.6c-0.5-0.8-0.8-1.7-0.9-2.7c-0.1-0.5-0.1-1.1,0-1.8c0.1-0.7,0.2-1.3,0.4-1.9
		c0.2-0.6,0.5-1.2,0.9-1.7c0.4-0.5,0.9-0.9,1.5-1.1c1.1-0.5,2-0.4,2.8,0.3c0.8,0.7,1.4,1.5,1.7,2.4c0.4,1.2,0.7,2.4,0.8,3.7
		c0.1,1.3,0.1,2.5,0,3.8c1-0.1,2-0.3,2.9-0.7c0.9-0.3,1.8-0.7,2.5-1c0.3-0.2,0.6-0.2,0.8,0c0.2,0.2,0.3,0.4,0.4,0.6
		c0.1,0.2,0,0.5,0,0.8C146.5,60.9,146.3,61.1,146,61.2z M136.6,67.4c0.5-1.4,0.9-2.9,1.2-4.5c-0.5,0-0.9-0.1-1.3-0.2
		c-0.5-0.2-1-0.4-1.4-0.6c-0.4-0.3-0.8-0.6-1.3-0.9c-0.4,0.9-0.8,1.9-1,2.9c-0.2,1-0.4,2-0.4,3.1c0,0.3,0,0.6,0.1,1.1
		c0.1,0.5,0.2,1,0.4,1.4c0.2,0.4,0.4,0.7,0.8,0.9c0.3,0.2,0.8,0,1.3-0.4c0.4-0.3,0.7-0.7,0.9-1.3C136.2,68.3,136.4,67.8,136.6,67.4z
		 M134.6,53.5c-0.6,0.7-0.8,1.7-0.8,2.8c0.1,1.1,0.3,2.1,0.8,2.8c0.4,0.6,0.9,1,1.5,1.3c0.6,0.3,1.2,0.5,1.8,0.6
		c0.1-1.5,0-3.1-0.2-4.6c-0.1-0.3-0.2-0.8-0.3-1.3c-0.2-0.6-0.4-1.1-0.6-1.5c-0.2-0.4-0.5-0.7-0.9-0.8
		C135.5,52.6,135.1,52.8,134.6,53.5z"/>
	<path class="st2" d="M175.7,59.5c0.2-0.3,0.4-0.4,0.6-0.4c0.3,0,0.5,0,0.8,0.2c0.2,0.1,0.4,0.3,0.5,0.6c0.1,0.2,0.1,0.5-0.1,0.8
		c-0.8,1.5-1.8,3.1-3,4.9c-1.1,1.7-2.5,3-4,4c-0.6,0.4-1.2,0.6-1.8,0.6s-1.1-0.2-1.6-0.5c-0.5-0.3-0.9-0.8-1.2-1.3
		c-0.3-0.6-0.5-1.2-0.6-1.9c-0.2-1.1-0.3-2.1-0.3-3.3c-0.1-1.1-0.1-2.3-0.2-3.4c-0.1-0.6-0.1-1.2-0.1-1.7s-0.1-1.2-0.2-1.7
		c0-0.1,0-0.2,0-0.4c0-0.2,0-0.3,0-0.4c0-0.5-0.1-0.6-0.2-0.2c-0.1,0-0.2,0.1-0.3,0.2c-0.2,0.1-0.3,0.2-0.5,0.4
		c-0.2,0.2-0.4,0.4-0.6,0.6c-0.7,0.7-1.4,1.4-1.9,2.3c-0.5,0.8-1,1.7-1.5,2.6c-0.4,0.9-0.9,1.8-1.3,2.7c-0.4,0.9-1,1.8-1.5,2.6
		c-0.3,0.4-0.6,0.6-1.1,0.5c-0.5-0.1-0.7-0.4-0.7-0.9c0.1-1.6,0.1-3.2,0.1-4.7c0-1.6,0-3.1,0.1-4.7c-0.7,0.9-1.3,2-1.8,3.1
		c-0.4,1.1-0.9,2.3-1.3,3.5c-0.4,1.2-0.9,2.3-1.5,3.4s-1.3,2.1-2.2,2.9c-0.4,0.3-0.7,0.3-1.1,0.2c-0.4-0.2-0.6-0.5-0.7-0.9
		c-0.2-1.7-0.4-3.4-0.6-5c-0.2-1.7-0.2-3.3-0.2-5c0-0.3,0.1-0.6,0.3-0.8c0.2-0.2,0.4-0.3,0.7-0.3c0.3,0,0.5,0.1,0.7,0.3
		c0.2,0.2,0.3,0.4,0.3,0.8c0,2.6,0.2,5.2,0.5,7.7c0.8-1,1.4-2.1,1.8-3.3c0.4-1.2,0.9-2.4,1.3-3.6c0.4-1.2,1-2.3,1.6-3.4
		c0.6-1.1,1.5-2.1,2.6-2.8c0.3-0.3,0.7-0.3,1,0c0.4,0.2,0.5,0.5,0.5,0.9c-0.1,1.3-0.1,2.6-0.1,3.9c0,1.3,0,2.6-0.1,3.9
		c0.6-1.1,1.1-2.1,1.7-3.2c0.6-1.1,1.2-2.1,2-3c0.3-0.3,0.7-0.7,1.2-1.1c0.5-0.4,1.1-0.8,1.7-1.1c0.6-0.3,1.1-0.4,1.7-0.4
		c0.5,0,0.9,0.4,1.3,1c0.4,0.8,0.6,1.7,0.6,2.8c0,1.1,0.1,2,0.2,2.8c0.1,1.1,0.2,2.1,0.2,3.2c0,1.1,0.1,2.1,0.3,3.2
		c0.1,0.4,0.3,0.9,0.5,1.3c0.2,0.4,0.7,0.5,1.4,0.3c0.2-0.1,0.4-0.2,0.6-0.4c0.2-0.2,0.4-0.4,0.6-0.6c0.4-0.4,0.7-0.8,1.1-1.1
		c0.3-0.4,0.7-0.8,1-1.2c0.6-0.7,1.1-1.5,1.7-2.3C174.7,61.2,175.2,60.4,175.7,59.5z"/>
	<path class="st2" d="M188.4,59.1c0.3-0.1,0.6-0.1,0.8,0.1c0.2,0.2,0.4,0.4,0.5,0.6c0.1,0.3,0.1,0.5-0.1,0.8
		c-0.1,0.3-0.4,0.4-0.7,0.6c-1.5,0.4-2.9,1.1-4.3,1.9c-1.3,0.8-2.6,1.8-3.9,2.8c0.5,0.4,0.9,0.9,1.2,1.5c0.4,0.9,0.4,1.9,0.2,2.9
		c-0.2,1-0.6,1.9-1.2,2.7c-0.6,0.8-1.3,1.5-2.2,2.1s-1.8,0.9-2.7,0.9c-0.9,0.1-1.7-0.1-2.5-0.6c-0.8-0.4-1.3-1.1-1.6-2
		c-0.2-0.6-0.2-1.1-0.1-1.7c0.2-0.5,0.4-1,0.8-1.4c0.3-0.4,0.7-0.8,1.1-1.2c0.4-0.4,0.8-0.8,1.3-1.1c0.4-0.4,0.8-0.7,1.2-1
		c0.4-0.3,0.8-0.7,1.2-1c-0.1-0.1-0.2-0.2-0.4-0.3c-0.5-0.5-0.9-1-1.3-1.5c-0.3-0.6-0.5-1.2-0.6-1.9c-0.1-1.6,0.4-3.2,1.3-4.7
		c0.9-1.5,2-2.7,3.2-3.7c0.3-0.2,0.5-0.3,0.8-0.2c0.3,0.1,0.5,0.2,0.7,0.4c0.2,0.2,0.3,0.4,0.3,0.7c0,0.2-0.1,0.5-0.4,0.7
		c-0.5,0.4-1,0.9-1.6,1.5c-0.6,0.6-1.1,1.3-1.5,2.1c-0.4,0.7-0.7,1.5-0.9,2.3c-0.1,0.8,0,1.5,0.4,2.1c0.3,0.4,0.7,0.9,1.3,1.3
		c1.4-1.2,2.9-2.2,4.5-3.2C185.1,60.4,186.7,59.7,188.4,59.1z M180.3,69.6c0.1-0.6,0.1-1.1-0.2-1.5c-0.2-0.4-0.5-0.8-0.9-1.1
		c-0.2,0.2-0.4,0.3-0.6,0.5s-0.4,0.4-0.6,0.5c-0.3,0.3-0.8,0.6-1.4,1.1c-0.6,0.5-1.2,1-1.7,1.6c-0.5,0.6-0.8,1.1-0.8,1.7
		c-0.1,0.5,0.3,0.9,1.2,1.1c0.5,0.2,1.1,0.1,1.6-0.1c0.6-0.2,1.1-0.5,1.5-0.9c0.5-0.4,0.9-0.9,1.1-1.5
		C180,70.6,180.2,70.1,180.3,69.6z"/>
	<path class="st2" d="M201.5,46.6c-1.6,0.1-3.3,0.2-4.9,0.3c-1.6,0.1-3.2,0.2-4.9,0.3c-1.1,7.5-1.8,14.9-2.4,22.3
		c-0.5,7.4-0.8,14.9-0.9,22.4c0,0.3-0.1,0.6-0.3,0.8c-0.2,0.2-0.4,0.3-0.7,0.3c-0.3,0-0.5-0.1-0.7-0.3c-0.2-0.2-0.3-0.4-0.3-0.8
		c0.1-7.5,0.4-15,0.9-22.4c0.5-7.4,1.3-14.8,2.2-22.2c-0.9,0.1-1.7,0.1-2.6,0.2c-0.8,0.1-1.7,0.1-2.6,0.2c-0.3,0-0.6-0.1-0.8-0.3
		c-0.2-0.2-0.3-0.4-0.3-0.7s0.1-0.5,0.3-0.8c0.2-0.2,0.4-0.4,0.8-0.4c0.9-0.1,1.8-0.2,2.7-0.2c0.9,0,1.8-0.1,2.7-0.2
		c0.3-1.9,0.6-3.8,0.9-5.7c0.3-1.9,0.7-3.8,1-5.7c0.1-0.3,0.2-0.5,0.4-0.7c0.2-0.1,0.5-0.2,0.7-0.1c0.2,0.1,0.4,0.2,0.6,0.5
		c0.2,0.2,0.2,0.5,0.2,0.8c-0.3,1.8-0.6,3.6-0.9,5.4c-0.3,1.8-0.6,3.6-0.8,5.4c1.6-0.1,3.2-0.2,4.7-0.3c1.6-0.1,3.1-0.2,4.7-0.3
		c0.3,0,0.6,0.1,0.8,0.3c0.2,0.2,0.3,0.4,0.3,0.7c0,0.3-0.1,0.5-0.3,0.8C202.1,46.5,201.8,46.6,201.5,46.6z"/>
	<path class="st2" d="M211.7,59.6c0.2-0.3,0.4-0.4,0.7-0.4c0.3,0,0.6,0,0.8,0.2c0.2,0.1,0.4,0.3,0.5,0.6c0.1,0.2,0,0.5-0.1,0.8
		c-0.7,1.1-1.5,2-2.4,2.9c-0.9,0.9-1.9,1.8-2.8,2.6c-1.1,0.9-2.2,1.9-3.4,2.7c-1.2,0.9-2.5,1.4-4.1,1.6c-1.1,0.2-2.1,0.1-3.1-0.2
		c-1-0.3-1.9-0.9-2.6-1.7c-0.8-0.9-1.2-2-1.2-3.2c0-1.2,0.2-2.3,0.5-3.5c0.3-1,0.6-2,1-3.1c0.4-1.1,0.9-2.1,1.6-3.1
		c0.6-1,1.4-1.9,2.2-2.7c0.8-0.8,1.7-1.4,2.8-1.8c0.8-0.3,1.5-0.3,2.2,0c0.7,0.3,1.1,0.9,1.3,1.8c0.2,0.9,0.1,2-0.2,3.1
		c-0.4,1.1-0.8,2.1-1.3,2.8c-0.8,1.4-1.9,2.5-3.3,3.2c-1.4,0.7-2.7,0.6-4-0.2c-0.2,0.5-0.3,1.1-0.4,1.6c-0.1,0.6-0.2,1.1-0.2,1.6
		s0.1,1,0.3,1.5c0.2,0.5,0.6,0.9,1.1,1.2c1.1,0.7,2.2,0.9,3.3,0.6c1.2-0.3,2.2-0.7,3.1-1.3c0.9-0.6,1.7-1.2,2.6-2
		c0.8-0.8,1.6-1.5,2.4-2.2c0.5-0.5,1-1.1,1.5-1.6C210.8,60.8,211.3,60.2,211.7,59.6z M203.4,54.1c-0.1-0.6-0.4-0.9-0.8-0.8
		c-0.4,0.1-0.9,0.4-1.4,0.8c-0.5,0.4-1,0.8-1.4,1.3c-0.4,0.5-0.7,0.9-0.9,1.1c-0.6,0.9-1.2,2.1-1.7,3.3c0.7,0.6,1.4,0.8,2,0.6
		c0.7-0.2,1.3-0.6,1.9-1.3c0.2-0.3,0.5-0.6,0.8-1c0.3-0.4,0.6-0.9,0.8-1.3c0.2-0.5,0.4-0.9,0.6-1.4
		C203.4,54.9,203.5,54.5,203.4,54.1z"/>
	<path class="st2" d="M226.3,55c0.2,0.2,0.3,0.5,0.3,0.8c0,0.3-0.1,0.5-0.3,0.7c-0.2,0.2-0.4,0.3-0.6,0.4c-0.3,0.1-0.5,0-0.7-0.2
		c-0.8-0.8-1.6-1.3-2.3-1.5c-0.7-0.2-1.3-0.2-1.9,0.1c-0.6,0.2-1.2,0.7-1.7,1.3c-0.6,0.6-1.2,1.3-1.7,2.2c-1.2,1.7-2.2,3.5-3,5.6
		c-0.8,2-1.3,4.1-1.3,6.2c0,0.3-0.1,0.6-0.3,0.8c-0.2,0.2-0.4,0.3-0.7,0.3c-0.3,0-0.5-0.1-0.8-0.3c-0.2-0.2-0.4-0.4-0.4-0.8
		c-0.1-4.5,0.3-9.1,0.9-13.7c0.1-0.3,0.2-0.5,0.4-0.6c0.2-0.1,0.5-0.1,0.8,0c0.3,0.1,0.5,0.2,0.7,0.4c0.2,0.2,0.2,0.5,0.2,0.8
		c-0.1,0.6-0.2,1.3-0.3,1.9c-0.1,0.6-0.2,1.3-0.3,1.9c0.4-0.7,0.9-1.5,1.3-2.2c0.4-0.7,0.9-1.4,1.4-2.1c1.4-1.8,2.9-3,4.7-3.5
		C222.6,52.8,224.5,53.3,226.3,55z"/>
	<path class="st2" d="M233.9,59.1c0.3-0.1,0.6-0.1,0.8,0.1c0.2,0.2,0.4,0.4,0.5,0.6c0.1,0.3,0.1,0.5-0.1,0.8
		c-0.1,0.3-0.4,0.4-0.7,0.6c-1.5,0.4-2.9,1.1-4.3,1.9c-1.3,0.8-2.6,1.8-3.9,2.8c0.5,0.4,0.9,0.9,1.2,1.5c0.4,0.9,0.4,1.9,0.2,2.9
		c-0.2,1-0.6,1.9-1.2,2.7c-0.6,0.8-1.3,1.5-2.2,2.1c-0.9,0.6-1.8,0.9-2.7,0.9c-0.9,0.1-1.7-0.1-2.5-0.6c-0.8-0.4-1.3-1.1-1.6-2
		c-0.2-0.6-0.2-1.1-0.1-1.7c0.2-0.5,0.4-1,0.8-1.4c0.3-0.4,0.7-0.8,1.1-1.2c0.4-0.4,0.8-0.8,1.3-1.1c0.4-0.4,0.8-0.7,1.2-1
		c0.4-0.3,0.8-0.7,1.2-1c-0.1-0.1-0.2-0.2-0.4-0.3c-0.5-0.5-0.9-1-1.3-1.5c-0.3-0.6-0.5-1.2-0.6-1.9c-0.1-1.6,0.4-3.2,1.3-4.7
		c0.9-1.5,2-2.7,3.2-3.7c0.3-0.2,0.5-0.3,0.8-0.2c0.3,0.1,0.5,0.2,0.7,0.4c0.2,0.2,0.3,0.4,0.3,0.7c0,0.2-0.1,0.5-0.4,0.7
		c-0.5,0.4-1,0.9-1.6,1.5s-1.1,1.3-1.5,2.1c-0.4,0.7-0.7,1.5-0.9,2.3c-0.1,0.8,0,1.5,0.4,2.1c0.3,0.4,0.7,0.9,1.3,1.3
		c1.4-1.2,2.9-2.2,4.5-3.2C230.6,60.4,232.2,59.7,233.9,59.1z M225.7,69.6c0.1-0.6,0.1-1.1-0.2-1.5c-0.2-0.4-0.5-0.8-0.9-1.1
		c-0.2,0.2-0.4,0.3-0.6,0.5c-0.2,0.2-0.4,0.4-0.6,0.5c-0.3,0.3-0.8,0.6-1.4,1.1c-0.6,0.5-1.2,1-1.7,1.6c-0.5,0.6-0.8,1.1-0.8,1.7
		c-0.1,0.5,0.3,0.9,1.2,1.1c0.5,0.2,1.1,0.1,1.6-0.1c0.6-0.2,1.1-0.5,1.5-0.9c0.5-0.4,0.9-0.9,1.1-1.5
		C225.4,70.6,225.6,70.1,225.7,69.6z"/>
</g>
<g class="st0">
	<path d="M63,30.5c0.2,0,0.5,0,0.8,0c0.7,0,1.3-0.3,1.3-1.4V18h2.3V29c0,2.9-1.6,3.7-3.3,3.7c-0.4,0-0.7,0-1.1,0V30.5z"/>
	<path d="M76.4,32.6H74L73.6,30h-2.8l-0.4,2.6h-2.1L70.7,18H74L76.4,32.6z M71.1,28h2.2l-1.1-7.4h0L71.1,28z"/>
	<path d="M78.5,27.8L75.6,18H78l1.7,6.6h0l1.7-6.6h2.2l-2.9,9.7v4.8h-2.3V27.8z"/>
	<path d="M90.9,17.9c2.2,0,3.4,1.3,3.4,3.7V22h-2.2v-0.6c0-1-0.4-1.4-1.1-1.4c-0.7,0-1.1,0.4-1.1,1.4c0,1.1,0.5,1.9,2,3.2
		c1.9,1.7,2.5,2.9,2.5,4.6c0,2.3-1.2,3.7-3.4,3.7s-3.4-1.3-3.4-3.7v-0.9h2.2v1c0,1,0.5,1.4,1.2,1.4s1.2-0.4,1.2-1.4
		c0-1.1-0.5-1.9-2-3.2c-1.9-1.7-2.5-2.9-2.5-4.6C87.6,19.2,88.7,17.9,90.9,17.9z"/>
	<path d="M98.6,26.8l-0.7,1.3v4.5h-2.3V18h2.3v6.3h0l3-6.3h2.3l-3.2,6.5l3.2,8.1h-2.4L98.6,26.8z"/>
	<path d="M109,32.6c-0.1-0.4-0.2-0.6-0.2-1.8v-2.3c0-1.4-0.5-1.9-1.5-1.9h-0.8v5.9h-2.3V18h3.5c2.4,0,3.4,1.1,3.4,3.3v1.1
		c0,1.5-0.5,2.5-1.5,2.9v0c1.1,0.5,1.5,1.6,1.5,3.1v2.2c0,0.7,0,1.2,0.2,1.8H109z M106.5,20.1v4.5h0.9c0.9,0,1.4-0.4,1.4-1.5v-1.4
		c0-1-0.4-1.5-1.2-1.5H106.5z"/>
	<path d="M112.6,18h2.3v14.6h-2.3V18z"/>
	<path d="M123.3,21.6v1.9c0,2.3-1.1,3.6-3.4,3.6h-1.1v5.5h-2.3V18h3.4C122.2,18,123.3,19.3,123.3,21.6z M118.9,20.1v4.9h1.1
		c0.7,0,1.1-0.3,1.1-1.4v-2.2c0-1-0.4-1.4-1.1-1.4H118.9z"/>
	<path d="M123.7,18h7.1v2.1h-2.4v12.5h-2.3V20.1h-2.4V18z"/>
</g>
<g class="st0">
	<path d="M155.1,24.7c0,1.3-0.9,2.8-2.3,3.6c0.6,1.3,1.5,2.6,2.5,3.9c0-2.7,1.2-5.5,4.1-5.5c1.8,0,3.1,1.2,3.1,2.8
		c0,1.4-1,2.8-2.5,2.8c-1,0-2-0.6-2.1-1.9c0.8-0.2,1.2-0.9,1.2-1.7c0-0.7-0.4-1.2-1.1-1.2c-1.6,0-2.6,2.8-2.5,4.9
		c1.9,2.3,4.3,4,6.3,4c0.6,0,0.9-0.4,1.2-0.9l0.1,0.1c-1.3,2.4-2.8,3.6-4.4,3.6c-1.5,0-3.2-0.8-4.7-2.1c-1.8,1.5-3.5,2.1-5.1,2.1
		c-3.5,0-5.3-2.2-5.3-4.6c0-2.3,1.7-4.5,5.2-5c-0.4-1.1-0.6-2.2-0.6-3.1C148.1,22.1,155.1,21.4,155.1,24.7z M147.6,32.5
		c0,2.5,1.8,5.2,4.4,5.2c0.6,0,1.2-0.2,1.8-0.7c-2.2-1.9-4.1-4.7-5.1-7.2C147.8,30.2,147.6,31.6,147.6,32.5z M151.8,24.9
		c0,0.9,0.3,2.1,0.9,3.3c1.3-0.7,2.2-2.2,2.2-3.5C154.9,22.6,151.8,22.3,151.8,24.9z"/>
</g>
</svg>
