<?xml version="1.0" encoding="utf-8"?>
<!-- Generator: Adobe Illustrator 21.0.2, SVG Export Plug-In . SVG Version: 6.00 Build 0)  -->
<svg version="1.1" id="Layer_1" xmlns="http://www.w3.org/2000/svg" xmlns:xlink="http://www.w3.org/1999/xlink" x="0px" y="0px"
	 viewBox="0 0 198.9 172" style="enable-background:new 0 0 198.9 172;" xml:space="preserve">
<style type="text/css">
	.st0{fill:#EF4A23;}
	.st1{fill:#EF4A24;}
	.st2{fill:#FFFFFF;}
	.st3{fill:none;stroke:#EF4A24;stroke-width:6;stroke-miterlimit:10;}
</style>
<g>
	<g>
		<g id="surface1_1_">
			<path class="st1" d="M129.4,70.4c-2.1,0.9-4.3,1.6-6.7,1.8c2.4-1.4,4.2-3.7,5.1-6.4c-2.2,1.3-4.7,2.3-7.4,2.8
				c-2.1-2.3-5.1-3.7-8.5-3.7c-6.4,0-11.6,5.2-11.6,11.6c0,0.9,0.1,1.8,0.3,2.7c-9.7-0.5-18.2-5.1-24-12.2c-1,1.7-1.6,3.7-1.6,5.8
				c0,4,2,7.6,5.2,9.7c-1.9-0.1-3.7-0.6-5.3-1.5c0,0,0,0.1,0,0.1c0,5.6,4,10.3,9.3,11.4c-1,0.3-2,0.4-3.1,0.4
				c-0.8,0-1.5-0.1-2.2-0.2c1.5,4.6,5.8,8,10.9,8.1c-4,3.1-9,5-14.4,5c-0.9,0-1.9-0.1-2.8-0.2c5.1,3.3,11.3,5.2,17.8,5.2
				c21.4,0,33.1-17.7,33.1-33.1c0-0.5,0-1,0-1.5C125.9,74.8,127.8,72.7,129.4,70.4z"/>
		</g>
	</g>
	<circle class="st3" cx="99.5" cy="86" r="39.9"/>
</g>
</svg>
