<?xml version="1.0" encoding="utf-8"?>
<!-- Generator: Adobe Illustrator 21.0.2, SVG Export Plug-In . SVG Version: 6.00 Build 0)  -->
<svg version="1.1" id="Layer_1" xmlns="http://www.w3.org/2000/svg" xmlns:xlink="http://www.w3.org/1999/xlink" x="0px" y="0px"
	 viewBox="0 0 198.9 172" style="enable-background:new 0 0 198.9 172;" xml:space="preserve">
<style type="text/css">
	.st0{fill:#EF4A23;}
	.st1{fill:#EF4A24;}
	.st2{fill:#FFFFFF;}
	.st3{fill:none;stroke:#EF4A24;stroke-width:6;stroke-miterlimit:10;}
</style>
<g>
	<g>
		<path class="st1" d="M89.6,62.6c-7.9,0-14.2,6.4-14.2,14.2v19.7c0,7.9,6.4,14.2,14.2,14.2h19.7c7.9,0,14.2-6.4,14.2-14.2V76.8
			c0-7.9-6.4-14.2-14.2-14.2H89.6z M112.6,71.4c1.2,0,2.2,1,2.2,2.2c0,1.2-1,2.2-2.2,2.2s-2.2-1-2.2-2.2
			C110.4,72.3,111.4,71.4,112.6,71.4z M99.5,74.6c6.6,0,12,5.4,12,12s-5.4,12-12,12s-12-5.4-12-12S92.8,74.6,99.5,74.6z M99.5,76.8
			c-5.4,0-9.9,4.4-9.9,9.9s4.4,9.9,9.9,9.9s9.9-4.4,9.9-9.9S104.9,76.8,99.5,76.8z"/>
	</g>
	<circle class="st3" cx="99.5" cy="86.7" r="39.9"/>
</g>
</svg>
