<?xml version="1.0" encoding="utf-8"?>
<!-- Generator: Adobe Illustrator 21.1.0, SVG Export Plug-In . SVG Version: 6.00 Build 0)  -->
<svg version="1.1" id="Layer_1" xmlns="http://www.w3.org/2000/svg" xmlns:xlink="http://www.w3.org/1999/xlink" x="0px" y="0px"
	 viewBox="0 0 360 360" style="enable-background:new 0 0 360 360;" xml:space="preserve">
<g>
	<g>
		<path d="M27,211.1v-41.2h13.2c3.2,0,6.1,0.5,8.5,1.6c2.4,1.1,4.4,2.6,6,4.4c1.6,1.9,2.8,4,3.6,6.5c0.8,2.5,1.2,5.2,1.2,8
			c0,3.1-0.5,6-1.4,8.5c-0.9,2.5-2.2,4.7-3.9,6.5c-1.7,1.8-3.7,3.2-6.1,4.2c-2.4,1-5.1,1.5-8,1.5H27z M58.4,190.4
			c0-2.8-0.4-5.4-1.2-7.8c-0.8-2.4-2-4.4-3.5-6.1c-1.5-1.7-3.4-3.1-5.7-4c-2.3-1-4.8-1.5-7.7-1.5H28.2v38.9h12.1
			c3,0,5.6-0.5,7.9-1.5c2.3-1,4.2-2.3,5.7-4.1s2.7-3.8,3.5-6.2C58,195.8,58.4,193.2,58.4,190.4z"/>
		<path d="M84.5,211.4c-2.9,0-5.5-0.6-7.8-1.8c-2.3-1.2-4.4-2.8-6.1-4.7c-1.7-1.9-3-4.2-3.9-6.7c-0.9-2.5-1.4-5.1-1.4-7.7
			c0-2.7,0.5-5.4,1.5-7.9c1-2.5,2.3-4.7,4.1-6.7c1.7-1.9,3.8-3.5,6.1-4.6c2.3-1.1,4.9-1.7,7.6-1.7c2.8,0,5.4,0.6,7.8,1.8
			c2.4,1.2,4.4,2.8,6.1,4.8c1.7,2,3,4.2,3.9,6.7c0.9,2.5,1.4,5,1.4,7.6c0,2.8-0.5,5.4-1.5,7.9c-1,2.5-2.3,4.7-4.1,6.6
			c-1.7,1.9-3.7,3.4-6.1,4.6C89.8,210.8,87.2,211.4,84.5,211.4z M66.5,190.5c0,2.6,0.5,5,1.4,7.4c0.9,2.4,2.2,4.5,3.7,6.3
			c1.6,1.8,3.5,3.3,5.7,4.4c2.2,1.1,4.6,1.6,7.3,1.6c2.7,0,5.1-0.6,7.3-1.7c2.2-1.1,4.1-2.6,5.7-4.5c1.6-1.9,2.8-4,3.7-6.3
			c0.9-2.4,1.3-4.8,1.3-7.2c0-2.6-0.5-5-1.4-7.4c-0.9-2.4-2.2-4.5-3.8-6.3c-1.6-1.8-3.5-3.3-5.7-4.4c-2.2-1.1-4.6-1.6-7.1-1.6
			c-2.7,0-5.1,0.6-7.3,1.7c-2.2,1.1-4.1,2.6-5.7,4.5c-1.6,1.9-2.8,4-3.7,6.3C66.9,185.7,66.5,188,66.5,190.5z"/>
		<path d="M150.8,211.1v-38.6L132.6,203h-0.9l-18.3-30.5v38.6h-1.2v-41.2h0.9l19,31.7l19-31.7h0.9v41.2H150.8z"/>
		<path d="M187.3,175.3c-1.6-1.8-3.3-3-5.1-3.7c-1.8-0.7-3.9-1-6.3-1c-2.4,0-4.4,0.2-6.1,0.7c-1.7,0.5-3.1,1.1-4.1,2
			c-1.1,0.9-1.9,1.9-2.4,3.1c-0.5,1.2-0.8,2.6-0.8,4.1c0,1.5,0.3,2.7,0.8,3.7c0.5,1,1.3,1.8,2.3,2.5c1,0.7,2.4,1.3,4,1.7
			c1.6,0.5,3.6,1,5.9,1.4c2.3,0.5,4.3,1,6.2,1.5c1.9,0.5,3.4,1.2,4.7,2c1.3,0.8,2.3,1.8,3,3s1,2.7,1,4.5c0,3.4-1.3,5.9-3.9,7.7
			c-2.6,1.8-6.1,2.7-10.6,2.7c-3.3,0-6.3-0.5-8.8-1.5c-2.6-1-5-2.6-7.2-4.8l0.9-0.8c2.1,2.2,4.4,3.7,6.8,4.7c2.5,1,5.2,1.5,8.4,1.5
			c4.1,0,7.3-0.8,9.7-2.3c2.4-1.5,3.6-3.8,3.6-6.9c0-1.5-0.3-2.9-0.8-3.9s-1.4-2-2.5-2.8c-1.1-0.8-2.6-1.4-4.3-2
			c-1.7-0.5-3.8-1-6.1-1.5c-2.3-0.4-4.3-0.9-6.1-1.4c-1.8-0.5-3.2-1.1-4.5-1.9c-1.2-0.8-2.1-1.7-2.8-2.8c-0.6-1.1-0.9-2.6-0.9-4.3
			c0-1.8,0.3-3.4,1-4.7c0.7-1.4,1.6-2.5,2.9-3.5c1.3-0.9,2.8-1.7,4.5-2.1c1.8-0.5,3.7-0.7,5.9-0.7c2.6,0,4.9,0.4,6.9,1.1
			c2,0.8,3.7,2,5.4,3.8L187.3,175.3z"/>
		<path d="M226.1,171.1h-15.8v40h-1.2v-40h-15.8v-1.2h32.7V171.1z"/>
		<path d="M259.9,209.9v1.2h-27v-41.2h26.5v1.2h-25.3v18.4h22.2v1.2h-22.2v19.3H259.9z"/>
		<path d="M268.7,211.1v-41.2h16.8c1.7,0,3.2,0.4,4.6,1.1c1.4,0.7,2.7,1.7,3.7,2.8c1,1.2,1.8,2.5,2.4,4c0.6,1.5,0.9,3,0.9,4.6
			c0,1.6-0.3,3.1-0.8,4.6c-0.5,1.5-1.2,2.8-2.1,3.9c-0.9,1.1-2,2.1-3.3,2.8c-1.3,0.7-2.7,1.1-4.3,1.2l10.4,16.2h-1.4l-10.4-16.2
			h-15.3v16.2H268.7z M269.8,193.7h16c1.5,0,2.9-0.3,4.2-1c1.2-0.7,2.3-1.5,3.2-2.6c0.9-1.1,1.5-2.3,2-3.6c0.5-1.4,0.7-2.7,0.7-4.2
			c0-1.5-0.3-2.9-0.8-4.2c-0.5-1.4-1.3-2.6-2.2-3.6c-1-1-2.1-1.9-3.3-2.5c-1.3-0.6-2.6-1-4.1-1h-15.6V193.7z"/>
		<path d="M329.7,175.3c-1.6-1.8-3.3-3-5.1-3.7c-1.8-0.7-3.9-1-6.3-1c-2.4,0-4.4,0.2-6.1,0.7c-1.7,0.5-3.1,1.1-4.1,2
			c-1.1,0.9-1.9,1.9-2.4,3.1c-0.5,1.2-0.8,2.6-0.8,4.1c0,1.5,0.3,2.7,0.8,3.7c0.5,1,1.3,1.8,2.3,2.5c1,0.7,2.4,1.3,4,1.7
			c1.6,0.5,3.6,1,5.9,1.4c2.3,0.5,4.3,1,6.2,1.5c1.9,0.5,3.4,1.2,4.7,2c1.3,0.8,2.3,1.8,3,3c0.7,1.2,1,2.7,1,4.5
			c0,3.4-1.3,5.9-3.9,7.7c-2.6,1.8-6.1,2.7-10.6,2.7c-3.3,0-6.3-0.5-8.8-1.5c-2.6-1-5-2.6-7.2-4.8l0.9-0.8c2.1,2.2,4.4,3.7,6.8,4.7
			s5.2,1.5,8.4,1.5c4.1,0,7.3-0.8,9.7-2.3c2.4-1.5,3.6-3.8,3.6-6.9c0-1.5-0.3-2.9-0.8-3.9c-0.5-1.1-1.4-2-2.5-2.8
			c-1.1-0.8-2.6-1.4-4.3-2c-1.7-0.5-3.8-1-6.1-1.5c-2.3-0.4-4.3-0.9-6.1-1.4c-1.8-0.5-3.2-1.1-4.5-1.9c-1.2-0.8-2.1-1.7-2.8-2.8
			c-0.6-1.1-0.9-2.6-0.9-4.3c0-1.8,0.3-3.4,1-4.7c0.7-1.4,1.6-2.5,2.9-3.5c1.3-0.9,2.8-1.7,4.5-2.1c1.8-0.5,3.7-0.7,5.9-0.7
			c2.6,0,4.9,0.4,6.9,1.1c2,0.8,3.7,2,5.4,3.8L329.7,175.3z"/>
	</g>
	<g>
		<path d="M34,157.6c0.2,0.2,0.5,0.3,1,0.5c0.4,0.1,0.9,0.2,1.5,0.2c0.6,0,1.1-0.1,1.4-0.3c0.4-0.2,0.6-0.5,0.8-0.9
			c0.2-0.4,0.3-0.9,0.4-1.6c0.1-0.6,0.1-1.3,0.1-2.2v-7h2.2v7c0,1-0.1,2-0.2,2.9c-0.1,0.9-0.3,1.6-0.7,2.2c-0.3,0.6-0.8,1.1-1.5,1.4
			c-0.6,0.3-1.5,0.5-2.6,0.5c-1.2,0-2.2-0.3-3-0.9L34,157.6z"/>
		<path d="M53.8,146.3h1.9l5.4,13.7h-2.3l-1.5-3.7h-5.3l-1.4,3.7h-2.3L53.8,146.3z M56.9,154.7l-2.2-5.9l-2.3,5.9H56.9z"/>
		<path d="M68,146.3l3.8,6.9l3.8-6.9H78l-5.1,8.8v4.9h-2.2v-4.9l-5.1-8.8H68z"/>
		<path d="M103.5,149.5c-0.1-0.1-0.3-0.3-0.6-0.5s-0.5-0.3-0.9-0.5c-0.3-0.1-0.7-0.3-1.1-0.3c-0.4-0.1-0.8-0.1-1.2-0.1
			c-0.9,0-1.6,0.2-2,0.5c-0.4,0.3-0.6,0.8-0.6,1.4c0,0.3,0.1,0.6,0.2,0.8c0.1,0.2,0.3,0.4,0.6,0.6c0.3,0.2,0.6,0.3,1.1,0.4
			c0.4,0.1,0.9,0.3,1.5,0.4c0.7,0.2,1.3,0.4,1.9,0.6c0.6,0.2,1,0.5,1.4,0.8c0.4,0.3,0.7,0.7,0.9,1.1c0.2,0.4,0.3,1,0.3,1.6
			c0,0.7-0.1,1.3-0.4,1.8c-0.3,0.5-0.6,0.9-1.1,1.2c-0.5,0.3-1,0.5-1.6,0.7c-0.6,0.1-1.3,0.2-2,0.2c-1,0-2.1-0.2-3-0.5
			c-1-0.3-1.9-0.8-2.6-1.4l1-1.9c0.2,0.2,0.4,0.4,0.7,0.6c0.3,0.2,0.7,0.4,1.1,0.6c0.4,0.2,0.9,0.3,1.4,0.4c0.5,0.1,1,0.2,1.5,0.2
			c0.9,0,1.5-0.1,2-0.4c0.5-0.3,0.7-0.7,0.7-1.3c0-0.3-0.1-0.6-0.3-0.9c-0.2-0.2-0.4-0.4-0.7-0.6c-0.3-0.2-0.7-0.3-1.2-0.5
			c-0.5-0.1-1-0.3-1.6-0.4c-0.7-0.2-1.3-0.4-1.8-0.6c-0.5-0.2-0.9-0.4-1.3-0.7c-0.3-0.3-0.6-0.6-0.8-1c-0.2-0.4-0.3-0.8-0.3-1.4
			c0-0.7,0.1-1.3,0.4-1.8c0.3-0.5,0.6-1,1.1-1.3c0.4-0.4,1-0.6,1.6-0.8c0.6-0.2,1.3-0.3,2-0.3c0.9,0,1.8,0.1,2.6,0.4
			c0.8,0.3,1.5,0.7,2.1,1.1L103.5,149.5z"/>
		<path d="M113,160v-13.7h2.2v7.1l6.5-7.1h2.4l-5.4,6.1l5.7,7.7h-2.4l-4.6-6.3l-2.1,2.2v4.1H113z"/>
		<path d="M131.6,160v-13.7h6c0.6,0,1.2,0.1,1.7,0.4c0.5,0.3,1,0.6,1.3,1c0.4,0.4,0.7,0.9,0.9,1.4c0.2,0.5,0.3,1.1,0.3,1.6
			c0,0.5-0.1,0.9-0.2,1.3c-0.1,0.4-0.3,0.8-0.5,1.2c-0.2,0.4-0.5,0.7-0.8,0.9c-0.3,0.3-0.7,0.5-1.1,0.6l3.2,5.2h-2.5l-3-4.8h-3.2
			v4.8H131.6z M133.8,153.3h3.8c0.3,0,0.6-0.1,0.8-0.2c0.3-0.1,0.5-0.3,0.6-0.6s0.3-0.5,0.4-0.8c0.1-0.3,0.2-0.6,0.2-1
			s-0.1-0.7-0.2-1c-0.1-0.3-0.3-0.6-0.5-0.8c-0.2-0.2-0.4-0.4-0.7-0.6c-0.3-0.1-0.5-0.2-0.8-0.2h-3.7V153.3z"/>
		<path d="M150.2,160v-13.7h2.2V160H150.2z"/>
		<path d="M161.2,160v-13.7h5.8c0.6,0,1.2,0.1,1.7,0.4c0.5,0.3,1,0.6,1.3,1c0.4,0.4,0.7,0.9,0.9,1.4c0.2,0.5,0.3,1.1,0.3,1.6
			c0,0.6-0.1,1.1-0.3,1.7c-0.2,0.5-0.5,1-0.8,1.4c-0.4,0.4-0.8,0.8-1.3,1c-0.5,0.3-1.1,0.4-1.7,0.4h-3.7v4.8H161.2z M163.4,153.3
			h3.6c0.3,0,0.6-0.1,0.8-0.2c0.2-0.1,0.5-0.3,0.6-0.5c0.2-0.2,0.3-0.5,0.4-0.8c0.1-0.3,0.2-0.6,0.2-1c0-0.4-0.1-0.7-0.2-1
			c-0.1-0.3-0.3-0.6-0.5-0.8c-0.2-0.2-0.4-0.4-0.7-0.5c-0.3-0.1-0.5-0.2-0.8-0.2h-3.5V153.3z"/>
		<path d="M189.2,148.2h-4.6V160h-2.2v-11.8h-4.6v-1.9h11.3V148.2z"/>
		<path d="M210.3,146.3h1.9l5.4,13.7h-2.3l-1.5-3.7h-5.3l-1.4,3.7h-2.3L210.3,146.3z M213.4,154.7l-2.2-5.9l-2.3,5.9H213.4z"/>
		<path d="M227.2,150.4v9.7h-2.2v-13.7h1.7l7.9,9.9v-9.9h2.2V160H235L227.2,150.4z"/>
		<path d="M245.7,160v-13.7h4.9c1.1,0,2.1,0.2,2.9,0.5c0.8,0.4,1.5,0.8,2.1,1.5c0.6,0.6,1,1.3,1.3,2.2c0.3,0.8,0.4,1.7,0.4,2.7
			c0,1-0.2,2-0.5,2.8c-0.3,0.8-0.8,1.6-1.3,2.2s-1.3,1.1-2.1,1.4c-0.8,0.3-1.7,0.5-2.8,0.5H245.7z M255.1,153.1c0-0.7-0.1-1.4-0.3-2
			c-0.2-0.6-0.5-1.1-0.9-1.6c-0.4-0.4-0.9-0.8-1.4-1c-0.6-0.2-1.2-0.4-1.9-0.4h-2.7v9.9h2.7c0.7,0,1.4-0.1,1.9-0.4
			c0.6-0.3,1-0.6,1.4-1c0.4-0.4,0.7-1,0.9-1.6C255,154.5,255.1,153.8,255.1,153.1z"/>
		<path d="M285.5,148.2h-4.6V160h-2.2v-11.8h-4.6v-1.9h11.3V148.2z"/>
		<path d="M304.4,146.3V160h-2.2V154h-6.9v6.1h-2.2v-13.7h2.2v5.7h6.9v-5.7H304.4z"/>
		<path d="M322.7,158.1v1.9h-9.4v-13.7h9.2v1.9h-7.1v3.9h6.1v1.8h-6.1v4.2H322.7z"/>
	</g>
	<g>
		<polygon points="62.7,212.7 62.2,212.1 105.8,168.5 106.3,169.1 		"/>
	</g>
</g>
</svg>
