<?xml version="1.0" encoding="utf-8"?>
<!-- Generator: Adobe Illustrator 21.0.2, SVG Export Plug-In . SVG Version: 6.00 Build 0)  -->
<svg version="1.1" id="Layer_1" xmlns="http://www.w3.org/2000/svg" xmlns:xlink="http://www.w3.org/1999/xlink" x="0px" y="0px"
	 viewBox="0 0 198.9 172" style="enable-background:new 0 0 198.9 172;" xml:space="preserve">
<style type="text/css">
	.st0{fill:#EF4A23;}
	.st1{fill:#EF4A24;}
	.st2{fill:#FFFFFF;}
	.st3{fill:none;stroke:#EF4A24;stroke-width:6;stroke-miterlimit:10;}
</style>
<g>
	<circle class="st3" cx="99.5" cy="86" r="39.9"/>
	<g>
		<g id="surface1_2_">
			<path class="st1" d="M84.6,59.8L88.3,71v7.5h2.5V71l3.7-11.2H92l-2.5,7.5L87,59.8H84.6z M98.2,64.8c-1.3,0-2,0.2-2.8,0.9
				c-0.8,0.7-1,1.2-0.9,2.9v6.2c0,1.2,0.2,2.1,1,2.8c0.8,0.7,1.5,1,2.8,1c1.3,0,2-0.2,2.8-1c0.8-0.7,0.9-1.5,0.9-2.8v-6.2
				c0-1.1-0.2-2.1-0.9-2.8C100.2,64.9,99.4,64.8,98.2,64.8z M104.4,64.8v11.2c0,1.2,1.2,2.5,2.5,2.5c1.3,0,1.9-0.6,2.5-1.2v1.2h2.5
				V64.8h-2.5v9.9c0,0.8-1,1.2-1.2,1.2c-0.3,0-1.2-0.1-1.2-1.2v-9.9H104.4z M98.2,67.2c0.4,0,1.2,0,1.2,1.2v6.2
				c0,1.2-0.8,1.2-1.2,1.2c-0.4,0-1.2,0-1.2-1.2v-6.2C97,67.5,97.5,67.2,98.2,67.2z M80.8,80.9c-4.5,0-7.5,3-7.5,7.5v11.8
				c0,4.5,3,8.1,7.5,8.1h37.3c4.5,0,7.5-3,7.5-7.5V88.4c0-4.5-3-7.5-7.5-7.5H80.8z M83.3,85.9h7.5v2.5h-2.5v14.9h-2.5V88.4h-2.5
				V85.9z M100.7,85.9h2.5v5c0.3-0.4,0.7-0.8,1.1-1c0.4-0.2,0.8-0.3,1.2-0.3c0.8,0,1.4,0.3,1.9,0.8c0.4,0.5,0.8,1.3,0.8,2.3v7.5
				c0,0.9-0.3,1.5-0.7,2c-0.4,0.5-1,1.1-1.8,1.1c-1.3,0-2-0.7-2.5-1.2v1.2h-2.5V85.9z M90.8,89.6h2.5v9.9c0,0.3,0.3,1.3,1.2,1.2
				c1,0,1-1,1.2-1.2v-9.9h2.5v13.7h-2.5V102c-0.5,0.5-0.7,0.7-1.2,1c-0.5,0.3-1,0.3-1.5,0.3c-0.6,0-1.3-0.5-1.6-1
				c-0.3-0.4-0.6-0.8-0.6-1.5V89.6z M113.4,89.6c1.2,0,2,0.3,2.6,0.9c0.6,0.7,0.8,1.4,0.8,2.7v3.9h-5V99c0,0.7,0.1,1.1,0.3,1.4
				c0.2,0.3,0.5,0.4,1,0.4c0.5,0,0.8-0.1,1-0.3c0.2-0.2,0.2-0.8,0.2-1.5v-0.6h2.5V99c0,1.4-0.1,2.4-0.8,3c-0.6,0.7-1.6,1-2.9,1
				c-1.2,0-2.1-0.3-2.8-1.1c-0.7-0.7-1-1.7-1-3v-5.8c0-1.1,0.4-2,1.1-2.7C111.1,89.9,112.2,89.6,113.4,89.6z M104.4,91.5
				c-0.7,0-1.2,0.6-1.2,1.2v7.5c0,0.4,0.6,0.6,1.2,0.6c0.7,0,1.2-0.5,1.2-1.2v-6.2C105.7,92.1,105.1,91.5,104.4,91.5z M113.1,92.1
				c-0.7,0-1.2,0.6-1.2,1.2v1.2h2.5v-1.2C114.4,92.6,113.8,92.1,113.1,92.1z"/>
		</g>
	</g>
</g>
</svg>
