<?xml version="1.0" encoding="utf-8"?>
<!-- Generator: Adobe Illustrator 21.1.0, SVG Export Plug-In . SVG Version: 6.00 Build 0)  -->
<svg version="1.1" id="Layer_1" xmlns="http://www.w3.org/2000/svg" xmlns:xlink="http://www.w3.org/1999/xlink" x="0px" y="0px"
	 viewBox="0 0 500 450" style="enable-background:new 0 0 500 450;" xml:space="preserve">
<style type="text/css">
	.st0{clip-path:url(#SVGID_2_);}
	.st1{fill:#EE4D25;}
</style>
<g>
	<defs>
		<rect id="SVGID_1_" x="0.5" y="60.2" width="504.3" height="389.5"/>
	</defs>
	<clipPath id="SVGID_2_">
		<use xlink:href="#SVGID_1_"  style="overflow:visible;"/>
	</clipPath>
	<g class="st0">
		<path class="st1" d="M141.2,376.2c-1.3-2.3-2.4-4.7-4.7-6.2c-0.6-0.4-1.2-1-1.7-1.4c0.3-0.7,0.5-1.2,0.8-1.7c0,0-0.1,0.1-0.1,0.1
			c1.8-1.8,3.6-3.6,5.3-5.5c0.5-0.5,0.7-1.2,1-1.9c1.2-1.2,2.4-2.3,3.7-3.5c1.1-0.8,2.2-1.6,3.3-2.4c1.2,0.9,2.4,1.8,3.5,2.7
			c1.5,1,2.9,2.1,4.4,3.1c1.8,1.1,4.5,0,6.4-2.5c0.1-0.1,0.1-0.3,0.2-0.4c1.4-1.6,1.2-4.5-0.5-6.2c-0.9-0.8-2-1.4-3.1-2.1l0.1,0.1
			c-1-1.2-2-2.5-3-3.8c0.7-0.5,1.7-1.3,2.8-2.1c0.7,0.4,1.4,0.7,2,1.1c1.6,1.4,3.3,2.8,4.9,4.2c1,1,1.8,2.1,2.9,2.9
			c8.1,6,14.5,13.7,20.4,21.8c4.7,6.4,11.7,6.1,16.6,2.2c1.1-0.8,1.9-2.1,2.6-3.2c2.6-4,5.1-7.9,7.5-12c1-1.7,2.1-2.3,3.9-1.9
			c1,0.2,2.1,0.2,3.2,0.3c2.9,0.2,4,1.5,3.8,4.5c-0.2,1.7-0.4,3.5-0.5,5.2c0,0,0.1-0.1,0.1-0.1c-0.2,0.6-0.4,1.1-0.5,1.7
			c-1.7,10.2-3.1,20.4-6.4,30.3c-0.1,0.4,0,0.9-0.1,1.4c-2,4.3-3.9,8.7-6,13c-4.4,8.8-10.3,16.6-17.2,23.6
			c-6.1,6.1-12.7,11.7-19.1,17.5c-0.4,0.2-0.9,0.4-1.3,0.7c-8.5,6.4-17.5,11.9-27.4,15.9c-8.6,3.5-17.4,6.1-26.6,7
			c-7.2,0.7-14.6,0.6-21.8,0.8c-2.6-0.2-5.2-0.4-7.8-0.6c-4.3-0.9-8.6-1.7-12.9-2.6c-9.4-2.7-18.2-6.8-26.3-12.4
			c-5.3-4.7-10.9-9.1-15.9-14c-9.2-9-17.3-18.9-23.1-30.5c-3.1-6.2-5.1-12.7-5.9-19.5c-0.5-4.3-0.6-8.7-0.3-13.1
			c1.4-19.4,9.2-36.1,22.4-50.3c12.2-13,26.1-23.7,41.9-31.9c11.1-5.8,22.9-9.3,35.1-11.9c10.7-2.3,21.5-4.5,32.3-6.6
			c8.9-1.8,15.3-7.2,20.4-14.3c3.3-4.6,6.1-9.6,8.9-14.6c6.2-10.9,15.2-18.5,26.7-23.5c10.3-4.4,20.9-5.7,31.8-3.7
			c4.8,0.9,9.4,2.9,14,4.5c2.3,0.8,4.4,2.2,6.9,3.4c-1,0.8-1.9,1.5-2.7,2.1c-10.8,8-21.6,16-32.4,24c-1.7,1.3-2.6,1-3.4-1
			c-0.2-0.6-1.1-1.3-1.6-1.2c-1,0.2-1.9,0.9-3.1,1.5c0.6,0.7,0.8,1,1,1.2c0.2,0.2,0.5,0.4,1,0.8c-2,1.5-3.8,3-5.8,4.4
			c-0.3,0.2-1.1-0.2-1.7-0.2c-0.7,0-1.6,0-2,0.4c-0.4,0.4-0.1,1.3-0.2,2c0.2,0.1,0.4,0.1,0.5,0.2c-1.9,1.5-3.8,3-5.7,4.5
			c-0.8-0.5-1.6-1-2.6-1.6c1.4-1.1,2.8-2.2,4.2-3.3c-0.1-0.2-0.3-0.3-0.4-0.5c-2.2,1.7-4.4,3.3-6.5,5.1c-1,0.8-0.5,3.2,0.6,4.1
			c0.5,0.4,1,0.7,1.7,1.3c-1.8,1.4-3.6,2.6-5.3,3.9c-7.6,5.8-15.3,11.5-22.9,17.3c-1.1,0.9-1.9,0.7-2.9-0.1
			c-3.1-2.5-3.2-2.4-6.3-0.1c-5.7,4.3-11.4,8.7-17.1,13c-3.1,2.4-3.2,2.5-1.6,6c0.1,0.3,0.3,0.6,0.5,1.2c-1.5,1.1-3,2.3-4.6,3.2
			c-0.5,0.3-1.4-0.2-2.1-0.3l0.1,0.1c-2.5-2.8-5-3.1-6.9-0.7c0,0,0.1-0.1,0.1-0.1c-0.7,0.4-1.5,0.7-2,1.3c-2.3,2.7-2,7.4,0.7,10
			c-3,3.8-6,7.6-9,11.3c-2.7-0.5-3.4-4.8-7.1-3.1c0-0.5,0-0.9-0.1-1.4c-0.5-2.4-1.9-3.1-4.3-2.5c-0.9,0.3-2,0.3-2.8,0.7
			c-0.6,0.4-1,1.2-1.5,1.9c-0.1,0.2-0.2,0.3-0.3,0.5c-0.3,0-0.8-0.1-1,0c-1.3,1.3-1.7,4.5-0.5,6.1c0.8,1.1,1.7,2.2,2.7,3.2
			c3,2.8,6,5.5,9.1,8.2c2.2,1.9,4.7,3.7,6.9,5.6c2.3,2,4.4,4.2,6.7,6.1c2.5,2.2,5,4.2,7.6,6.3c2.5,2.1,5,4.1,7.5,6.2
			c1.2,1,2.5,1.4,3.9,0.7c1-0.5,1.9-1.4,2.8-2.1c1.4-1.5,2.8-3.1,4.2-4.6c0.8-1.2,0.2-3.1-1.3-3.9c-0.4-0.2-1.2,0.5-1.8,0.8
			L141.2,376.2z M179.4,404.6c-2.2,2.2-2.6,6.3-0.9,8.9c3.9,5.9,12.7,6.1,17.1,0.4c3.2-4.2,2.9-9.1-1.1-11.9
			c-1.8-1.2-4.1-1.6-6.2-2.4c-0.1,0-0.1,0.1-0.2,0.1C185.2,398.8,180.3,401.4,179.4,404.6L179.4,404.6z M108.1,427.9
			c-0.2,0.3-0.3,0.6-0.5,1c-2.6,2.2-2.8,5.2-2.2,8.3c0.7,3.3,2.8,5.4,6,6.1c6.9,1.6,13.9-4.4,13.5-11.5c-0.2-3.9-2.9-7-6.8-7.9
			C114.7,423.1,109.4,425,108.1,427.9z M142.9,443.9c0.4,4.3,6.7,7.7,11.4,6.5c6.1-1.5,9.9-7.2,8.5-12.7c-1.3-5.1-6.4-7.9-11.9-6.5
			C145,432.6,141.4,438.2,142.9,443.9z M140.1,403.6c-0.1,0.1-0.3,0.3-0.4,0.4c1.3,1.4,2.4,3.1,3.9,4.1c4.4,2.9,10.6,1.7,13.9-2.4
			c4-5,2.9-10.9-2.6-13.4c-1.3-0.6-2.9-0.5-4.3-1C145.1,389.6,137.8,398.6,140.1,403.6z M198.8,241.1c0.4,2.1,2.2,3.5,0.9,5.7
			c-0.2,0.4,0.8,1.8,1.5,2.3c1.3,0.8,4.4-0.1,5.1-1.4c0.4-0.8,0.2-1.9,0.3-2.9c0,0-0.1-0.1-0.2-0.1c-2.3-1.2-1.6-3.4-2.2-5.3
			c1.5-0.1,2.6-0.2,3.8-0.3c-0.3-0.3-0.6-0.4-1-0.4c-1.8,0.2-3.4,0.4-4.1-2c-0.3-1-1.8-1.8-3-1c-0.8,0.6-2,1.9-1.8,2.6
			c0.5,1.9-0.3,2.8-1.8,3.6c-0.4,0.2-0.8,0.7-1.2,1c0,0.1,0.1,0.1,0.1,0.2C196.4,242.5,197.5,241.9,198.8,241.1z M214.1,241.4
			c2.6,4,2,7.5-1.6,10.6c-2.5,2.1-5.3,3.3-8.5,4.1c-6.3,1.6-10.3-0.3-12.8-6.6c0.1,2.6,0.5,4.4,2.5,5.8c7.8,5.4,19.3,0,21.8-6.1
			C216.9,246,216.6,243.5,214.1,241.4z M166.7,354.6c-1.1,6.2-8.5,8.9-12.9,4.9c0.8,2.5,3.8,3.8,7,3
			C164.9,361.5,167.4,358.4,166.7,354.6z M198.7,248.6c-0.1,1.7,1.1,2.2,2.3,2.6c2.2,0.7,5.2-0.2,6.6-2.1c0.6-0.8,0.8-1.9,1.2-2.9
			c-0.2-0.1-0.4-0.2-0.6-0.2C207.1,249.5,201.9,251.2,198.7,248.6z"/>
		<path class="st1" d="M53.6,463.5c8.1,5.6,16.8,9.7,26.3,12.4c4.3,0.9,8.6,1.7,12.9,2.6c2.6,0.2,5.2,0.4,7.8,0.6
			c0.5,0.2,1.1,0.5,1.6,0.6c13.1,0.8,25.9-1,38.5-4.8c9.1-2.8,17.7-6.8,25.8-11.9c3.9-2.5,7.5-5.5,11.3-8.3
			c6.4-5.8,13-11.4,19.1-17.5c6.9-6.9,12.8-14.7,17.2-23.6c2.1-4.3,4-8.7,6-13c0.1-0.2,0.3-0.5,0.4-0.7c1.9-8.3,3.8-16.5,5.6-24.8
			c0.6-2.6,0.7-5.2,1-7.9c0,0-0.1,0.1-0.1,0.1c0.3-1.1,0.7-2.2,1.1-3.5c0.5,2.1,0.9,4,1.3,5.9c3,0.1,5-3.1,4.2-6.5
			c-0.8-3.4-1.8-6.8-2.6-10.2c-0.3-1.1-0.2-2.3-0.3-3.4c0.2,0,0.3-0.1,0.5-0.1c0.2,0.3,0.5,0.6,0.7,0.9c2.2,6,4.3,11.9,6.4,17.9
			c0.2,0.5,0.2,1.2,0.1,1.8c-1.2,5.5-2.6,11.1-3.7,16.6c-0.8,4.3-1.5,8.6-2.2,12.9c-0.8,4.8-1.6,9.7-2.6,14.5
			c-3.1,14.3-10,26.8-19.4,38c-8.4,10-18,18.8-28.6,26.4c-13.2,9.4-27.8,15.4-43.7,17.9c-17.8,2.8-35.2,1.3-52-5.3
			c-7.7-3.1-14.8-7.1-21.1-12.7c-5.6-5-11.2-10.1-16.6-15.3c-1.5-1.4-2.4-3.4-3.4-5.2c3.1,2.5,6.2,5,9.3,7.6
			c0.1-0.1,0.2-0.1,0.2-0.2C54.1,464.6,53.9,464.1,53.6,463.5z M141.7,494.6c3.3-1,3.8-2.1,2.3-4.5c-1.3-2.1-2.5-4.2-4-6.2
			c-1.2-1.7-2.8-2.8-5.2-2.4c-4.7,0.7-9.5,1.2-14.2,1.9c-1.8,0.3-3.5,0.8-5.3,1.3c-1.4,0.4-1.5,1.5-0.8,2.5c1.7,2.6,3.4,5.3,5.4,7.8
			c0.8,0.9,2.2,2,3.3,1.9C129.7,496.3,136,495.4,141.7,494.6z"/>
		<path class="st1" d="M219.4,354c-0.6,0.7-1.4,1.3-1.9,2.1c-3.3,5.1-6.4,10.2-9.7,15.3c-2.7,4.1-9.2,5.6-13.7,3.5
			c-1.9-0.9-3.1-2.2-4.3-3.8c-4.3-5.2-8.7-10.4-13.2-15.6c-1.4-1.6-1.5-5.7-0.2-7.3c0.5-0.7,0.8-1.5,1.2-2.3c2.4-2,4.8-4,7.2-6
			c3.2-2.6,6.3-5.1,9.5-7.7c1.2-0.9,1.8-1.9,0.2-2.9c-1.6-1-3.3-2.1-4.9-3.1c0.3-0.7,0.5-1.5,1-2c1.5-1.3,3.2-2.5,4.8-3.8
			c4.1-3.2,8.1-6.5,12.2-9.6c3.2-2.5,6.5-4.9,9.7-7.3c2.6-2,2.5-2,5.3-0.2c5.2,3.2,3.9,3.1,8.2-0.2c5.1-4,10.2-8.1,15.3-12.2
			c3.4-2.7,3.4-3.3-0.7-5.2c-0.1-0.2-0.1-0.4-0.2-0.6c0.1-1-0.2-2.3,0.3-2.9c2.4-2.5,5-4.9,7.7-7.5c0.4,3.1,0.7,5.6,1,8.1
			c0.1,0.4,0.1,0.9,0.3,1.2c2.4,3.9,1.3,7.3-0.9,10.9c-10.7,17.9-21.2,35.8-31.8,53.7c-0.8,1.4-1.4,2.9-2.1,4.3
			C219.7,353.4,219.6,353.7,219.4,354z M207.4,352.4c0.9-1.4,0.3-2.2-1-2.7c-1.9-0.6-3.3-0.1-4.2,1.7
			C203.5,354.7,204.6,354.9,207.4,352.4z M250.3,283.7c0.6-1.1,1.1-1.9,1.5-2.6c-0.8-0.3-1.8-1.1-2.5-0.9c-0.7,0.2-1.1,1.3-1.7,2
			C248.4,282.6,249.2,283.1,250.3,283.7z"/>
		<path class="st1" d="M293.2,306.3c0.6-0.5,1.1-1,1.4-1.3c1.4,5.1,2.6,10.5,4.4,15.6c1.7,4.9-0.2,8.3-3.3,11.7
			c-5.3,5.8-11.8,10-18.9,13.1c-5.9,2.6-11.9,5-17.9,7.6c-6.1,2.6-11.7,6.2-16.8,11c-2.5-7.3-5-14.3-7.5-21.4c0,0,0,0.1,0,0.1
			c0.7-0.6,1.4-1.2,2.1-1.7c3.9-2.6,7.5-5.7,11.7-7.7c7-3.5,14.4-6.3,21.7-9.3c5.8-2.5,11.4-5.4,16.1-9.7
			C288.5,311.7,290.8,309,293.2,306.3z"/>
		<path class="st1" d="M293.2,306.3c-2.3,2.7-4.7,5.3-7,8c-0.7,0.4-1.4,0.6-2,1.1c-5.7,4.4-12.1,7.2-18.6,10
			c-7.4,3.2-14.8,6.3-21.9,10.1c-3.4,1.8-6.1,4.8-9.1,7.3c0,0,0-0.1,0-0.1c-0.3,0.5-0.7,1-1,1.6c0,0,0.1-0.1,0.1-0.1
			c-1.3,1.7-2.5,3.4-3.7,5c-1.9-0.4-4-0.9-6.2-1.4c11.2-18.9,22.3-37.8,33.3-56.5c2.1,1.4,4.3,2.9,6.5,4.3c0,0-0.1,0-0.1,0
			c5.6,3.6,11.7,4.4,18.2,3.4c3-0.4,5.9-1.2,8.9-1.4c4.2-0.2,5.7,2.7,3.8,6.5C293.9,304.8,293.5,305.6,293.2,306.3z"/>
		<path class="st1" d="M261.1,266.8c0.9-0.8,1.7-1.6,2.6-2.4c1-0.8,2.1-1.5,3.1-2.3c0.9-0.8,1.8-1.6,2.7-2.4c1-0.8,2.1-1.5,3.1-2.3
			c1.1-1,2.2-2,3.3-3c0.8-0.5,1.6-1.1,2.3-1.6c0.9-0.8,1.8-1.6,2.7-2.4c1-0.8,2.1-1.5,3.1-2.3c1.9-1.6,3.8-3.2,5.7-4.9
			c0,0,0,0.1,0,0.1c2-1.6,3.9-3.3,5.9-4.9c1-0.8,2.1-1.6,3.1-2.3c0.9-0.8,1.7-1.6,2.6-2.3c0.8-0.6,1.6-1.2,2.4-1.7
			c1.2-1.1,2.3-2.2,3.5-3.4c1-0.6,2-1.3,3-1.9c1.9-1.7,3.9-3.3,5.8-5c1.9-1.4,3.7-2.9,5.6-4.3c2.8-2.3,5.6-4.7,8.3-7
			c0,0,0,0.1,0,0.1c0.9-0.7,1.7-1.4,2.6-2.1c1.9-1.4,3.7-2.9,5.6-4.3c1.1-1,2.2-2,3.3-3c1.9-1.4,3.7-2.8,5.6-4.3c1.1-1,2.2-2,3.3-3
			c0.8-0.5,1.6-1.1,2.4-1.6c3.9-3.2,7.7-6.5,11.6-9.7c1-0.8,2.1-1.5,3.1-2.3c2.7-2.3,5.5-4.6,8.2-6.9c0,0,0,0.1,0,0.1
			c2-1.6,3.9-3.3,5.9-4.9c1.9-1.4,3.7-2.9,5.6-4.3c8.6-7,17.2-14,25.9-21c3.8-3.1,7.6-6.2,11.4-9.3c0.5,0.4,0.9,0.8,1.4,1.2
			c-4.9,3.9-9.9,8-14.9,12.1c-17.6,14.5-35.2,29-52.7,43.6c-19.6,16.2-39.1,32.4-58.6,48.7c-2.1,1.8-4.6,3.4-5.4,6.4
			c-0.2,0.6-0.8,1-1.1,1.5c-0.6,0.9-1.3,1.7-1.7,2.9c-1.1,3.4-3.2,6.5-4.8,9.8c-1.6,3.5-2.6,7.3-2.4,11.2c0,0.6,0.1,1.2-0.3,1.9
			c-0.3-0.6-0.6-1.3-0.8-1.9c-0.1,0-0.1,0-0.2,0c0.4,1.6,0.9,3.1,1.3,4.7c-0.1,0-0.3,0.1-0.4,0.1c-1.7-7-3.4-14-5.1-21.2
			c-1.2,1-2.4,2-3.6,3c0.1,0.1,0.2,0.3,0.3,0.4c0.8-0.6,1.5-1.2,2.4-1.9c0.9,3,1.7,5.9,2.4,8.8c1,4,2.1,7.9,2.9,11.9
			c0.2,0.8-0.2,2.1-0.8,2.7c-5.3,5.3-10.6,10.4-16.1,15.5c-0.5,0.5-1.7,0.3-2.5,0.5c0,0,0.1,0,0.1,0c-1.8-6.1-3.7-12.3-5.5-18.4
			c-0.3-1-0.6-2-0.9-3c0.8-0.9,1.6-1.8,2.4-2.6c1.8-1.7,3.6-3.4,5.4-5.2c-0.1-0.2-0.3-0.3-0.4-0.5c-2,1.8-3.9,3.7-5.9,5.5
			c-1.1,0.8-2.1,1.6-3.2,2.4c-0.6-0.1-1.3-0.2-2.2-0.3c2.1-1.9,3.8-3.5,5.5-5C259.5,267.9,260.3,267.3,261.1,266.8z"/>
		<path class="st1" d="M443.6,129.5c-4.2-0.7-8.2,0.1-12.2,1.2c-0.9,0.2-1.8,0.5-2.7,0.8c-0.2-0.7-0.4-1.5-0.7-2.3
			c6-2.8,12.2-5.6,18.3-8.4c0.1,0.1,0.3,0.3,0.4,0.4c-0.4,0.3-0.8,0.7-1.1,1c-0.4,0.4-1.1,0.9-1.1,1.4c0,0.5,0.6,1.1,1,1.4
			c1.9,1.2,4,1.8,6.2,0.9c1.1-0.4,1.5-1.3,0.6-2.1c-1.1-0.8-0.6-1.7-0.5-2.6c0.3-2.9,1.9-4.6,4.8-5c1.1-0.2,2.1-0.7,3.2-1.1
			c0.1,0.2,0.2,0.3,0.4,0.5c-0.4,0.3-0.8,0.7-1.2,1c-1.1,0.8-1.6,1.8-0.1,2.3c1.9,0.7,4,1.1,6,1.2c1.3,0.1,1.7-1.1,0.9-2.3
			c-0.9-1.5,0.2-4.7,1.8-5.2c2.3-0.7,4.7-1.3,7.2-1.5c-0.4,0.2-1.1,0.3-1.3,0.7c-0.2,0.6-0.4,1.6-0.1,1.9c1.8,1.5,4,2,6.3,1.4
			c0.5-0.1,1.2-1.7,1.1-1.7c-1.6-1.3-0.5-2.6-0.2-4c0.1-0.5,0.2-1.1,0.4-1.6c0.8-1.8,0.3-2.8-1.6-3.2c-2.2-0.5-3.2,0-3.4,2.1
			c-0.2,1.9-1,2.9-2.9,3.2c-2.1,0.4-4.1,1.1-6.1,1.6c-1-1.8-3-2.9-4.8-2.2c-0.6,0.2-1.1,1.3-1.1,2c-0.1,1.5-0.9,2.2-2.3,2.5
			c-3,0.6-5.8,2.2-9,1.1c-0.5-0.2-1.5,0.5-2,1c-0.7,0.8-4.8,3-5.7,2.5c-1.6-1-2.6-2.4-5-1.2c-1.6,0.8-3.9,0.1-5.8,0.4
			c-1.9,0.3-3.7,1-5.6,1.4c4.8-2.4,9.5-4.8,14.3-7.1c0.7-0.3,1.6,0,2.5-0.1c1.1-0.1,2.2-0.2,3.4-0.3c0.1-0.3,0.1-0.6,0.2-0.9
			c-0.5-0.1-0.9-0.2-1.4-0.2c-0.1-0.2-0.1-0.4-0.2-0.5c1.3-0.8,2.5-1.6,3.8-2.3c2.3-1.3,4.5-2.5,7.3-1.4c0.8,0.3,2-0.2,3.1-0.4
			c0-0.2,0-0.4-0.1-0.7c-0.4-0.1-0.8-0.1-1.2-0.2c0.5-2.4,1.1-4.8,1.6-7.1c6.4,1.8,12.7,3.5,19,5.3c6.4,1.8,11.1,7,17.9,9.2
			c-1.2,0.4-1.9,0.6-2.5,0.8c-8.9,2.9-17.8,5.7-26.6,8.9c-4,1.4-7.8,3.5-11.5,5.7c-2.7,1.5-5.3,2.5-8.4,1.9
			C445.8,129.3,444.6,129.4,443.6,129.5L443.6,129.5z"/>
		<path class="st1" d="M450,137.6c0.6-2.6,1-4.8,1.7-6.8c0.2-0.7,1.1-1.2,1.8-1.6c9.8-5.8,20.4-9.8,31.3-13
			c3.9-1.1,7.8-2.2,12.1-3.4c-0.7,2.5-1.1,4.7-1.9,6.7c-0.2,0.6-1.3,1-2,1.2c-9.5,3.2-19,6.2-28.4,9.6c-4.2,1.5-8.1,3.9-12.1,5.9
			C451.9,136.6,451.2,137,450,137.6z"/>
		<path class="st1" d="M217.3,303.6c-3.2,2.4-6.5,4.8-9.7,7.3c-4.1,3.2-8.1,6.4-12.2,9.6c-1.6,1.3-3.3,2.4-4.8,3.8
			c-0.5,0.5-0.7,1.3-1,2c0.9,0.8,1.9,1.7,2.7,2.4c-0.9,0.4-1.7,0.7-2.5,1.1c-0.6-1.2-1-2.5-1.8-3.4c-1.1-1.2-2.6-2.1-4.2-3.3
			c3-2.4,6-4.8,8.9-7.1c6.8-5.4,13.6-10.9,20.5-16.2c0.8-0.6,2-0.8,3-1.2c0.3,0.3,0.7,0.6,1,0.9c0.5,0.8,0.9,1.6,1.4,2.4
			C218.2,302.3,217.7,303,217.3,303.6z"/>
		<path class="st1" d="M131.3,370.1c0.2,0.3,0.6,0.9,0.6,1c-1.2,1-2.5,2-3.8,3c-0.1,0.1-0.4-0.3-0.7-0.4
			c-8.9-7.8-17.9-15.5-26.8-23.3c0.6-2.3,2.7-3.3,5.4-2.7c6,5.1,12.1,10.2,18,15.5C126.6,365.3,128.9,367.7,131.3,370.1z"/>
		<path class="st1" d="M212.8,296.2c0.2,0.7,0.5,1.4,0.8,2.2c-10,8-20.2,16-30.4,24.2c-1.5-1.1-2.8-2.1-4.4-3.3
			c3.5-2.8,6.9-5.4,10.2-8.1c6.3-5,12.6-9.9,19-14.8c0.9-0.7,2.2-0.8,3.4-1.2C211.8,295.5,212.3,295.9,212.8,296.2z"/>
		<path class="st1" d="M207.8,292.9c0.3,0.6,0.5,1.1,0.8,1.8c-5,4-10.1,8-15.2,11.9c-3.9,3.1-7.9,6.1-11.8,9.2
			c-3.7,2.9-4,2.9-7.8-0.5c2.2-1.7,4.4-3.4,6.6-5.1c7.3-5.7,14.7-11.4,22-17.1c1.3-1,2.5-2,4.3-1.4
			C207.2,292.2,207.5,292.6,207.8,292.9z"/>
		<path class="st1" d="M203.1,289.5c0.6,0.8,0.9,1.5-0.2,2.3c-9.6,7.4-19.1,14.8-28.6,22.2c-0.4,0.3-0.8,0.5-1.3,0.8
			c-1.2-0.9-2.4-1.7-3.7-2.7c4.2-3.2,8.2-6.3,12.3-9.4c5.6-4.3,11.2-8.5,16.7-12.8c1.4-1.1,2.7-1.6,4.3-0.8
			C202.7,289.2,202.9,289.3,203.1,289.5z"/>
		<path class="st1" d="M198.6,286.3c0.7,1.2-0.1,1.9-0.9,2.6c-8,6.1-16,12.2-24,18.3c-1.2,0.9-2.3,1.9-3.5,2.6
			c-0.6,0.3-1.6,0.5-2.2,0.2c-2.6-1.3-2.6-1.9-0.3-3.6c8.7-6.5,17.3-13,25.9-19.5c1.2-0.9,2.4-1.6,4-1.3
			C197.9,285.8,198.2,286.1,198.6,286.3z"/>
		<path class="st1" d="M100.6,350.3c8.9,7.8,17.9,15.5,26.8,23.3c0.3,0.5,0.7,0.9,1,1.4c-0.1,0.3-0.2,0.6-0.4,0.9
			c-0.4,0.6-0.9,1.2-1.4,2c-9.5-8.2-19.1-16.5-28.6-24.7C98.2,351.5,100.3,351.7,100.6,350.3z"/>
		<path class="st1" d="M161.4,304.5c5-3.7,9.9-7.4,14.8-11c4.2-3.1,8.5-6.3,12.7-9.4c2.6-1.9,2.6-1.9,5.4,0.4
			c-1.1,0.8-2.1,1.6-3.1,2.4c-8.2,6.2-16.5,12.5-24.7,18.7C164.4,307.1,164.4,307.1,161.4,304.5z"/>
		<path class="st1" d="M230.5,285.8c1.4,0.5,2.3,1,3.2,1.1c0.3,0,1.2-1,1.1-1.2c-0.3-0.7-0.9-1.2-1.5-1.9c1.9-2.3,1.9-2.3,4.6-0.4
			c1,0.7,1.9,1.4,3.1,2.2c-1,0.8-1.9,1.6-2.8,2.3c-4.1,3.3-8.3,6.5-12.4,9.8c-1.1,0.9-2,1.2-3.1,0c-0.3-0.3-0.6-0.5-1-0.8
			c-2.6-2-2.6-2,0.1-4.1C224.8,290.3,227.9,287.9,230.5,285.8z"/>
		<path class="st1" d="M159.6,334.3c1.6-1.2,2.5-2.6,4.7-1.6c1.5,0.7,2.3-1.1,1.4-3.3c3.7-2.9,7.5-5.8,11.3-8.7
			c0.4-0.3,1.3-0.2,1.8,0c1.1,0.7,2.1,1.6,3.5,2.6c-3,2.4-5.8,4.8-8.7,7c-1.6,1.2-3.5,2-5.1,3.2c-1,0.8-1.8,1.9-2.6,2.9
			c-1.1,1.4-2.2,1.4-3.5,0.1C161.6,335.8,160.7,335.2,159.6,334.3z"/>
		<path class="st1" d="M145.5,356.1c-1.2,1.2-2.4,2.3-3.7,3.5c-2.1,2.4-4.2,4.9-6.4,7.3c0,0,0.1-0.1,0.1-0.1c-1.1,0.9-2,0.8-3-0.2
			c-0.8-0.8-1.7-1.5-2.7-2.3c4.3-4.9,8.5-9.7,12.7-14.6c0.9,0.4,1.7,0.8,2.5,1.2c0.4,0.4,0.9,0.8,1.3,1.3c0.9,0.6,0.9,1.2,0.2,2
			C146.1,354.8,145.9,355.5,145.5,356.1z"/>
		<path class="st1" d="M182.8,323.9c1.4,1.1,2.7,2.1,4.2,3.2c-4.2,3.3-8.1,6.5-12,9.6c-1.5,1.2-3.1,2.4-4.6,3.7
			c-1.1,1-2.1,1.3-3.2,0c-0.7-0.7-1.6-1.3-2.5-2.1c1.3-1.2,2.3-2.5,4.4-2c0.5,0.1,1.8-1.1,1.7-1.5c-0.3-1.4,0.6-1.9,1.4-2.5
			C175.7,329.6,179.1,326.8,182.8,323.9z"/>
		<path class="st1" d="M177,319.6c-4.3,3.4-8.5,6.6-12.6,9.8c-1.3,1-2.7,2-3.9,3.2c-1.2,1.1-2.1,1.1-3.2,0c-0.8-0.8-1.7-1.4-2.8-2.2
			c1.2-0.9,2.1-1.6,3.2-2.4c1.1,1,2.3,2.1,3.5,0.5c0.4-0.6-0.1-1.8-0.2-3.2c3.2-2.5,7-5.4,10.8-8.3c0.4-0.3,1.4-0.3,1.8-0.1
			C174.8,317.7,175.8,318.6,177,319.6z"/>
		<path class="st1" d="M129.3,363.8c-1.5-1.2-2.7-2.3-4.2-3.4c4.1-4.9,8.1-9.6,12.3-14.5c1.6,1.2,3.1,2.2,4.7,3.4
			C137.9,354.1,133.7,358.8,129.3,363.8z"/>
		<path class="st1" d="M443.5,129.5c2.2,0.3,4.5,0.6,6.9,0.9c-0.4,2.3-0.7,4.5-1.2,6.6c-0.1,0.4-1.1,1-1.4,0.8
			c-4.4-1.9-9.3-2-13.9-3c-0.5-0.1-1.1-0.2-1.6-0.4c1.4-2.6,3.6-1.9,5.8-1.7c-2.1-2-4.6-1-6.9-1.2c0-0.2-0.1-0.4-0.1-0.6
			c3.7-0.4,7.3-0.9,11-1.3C442.5,129.6,443,129.6,443.5,129.5C443.6,129.5,443.5,129.5,443.5,129.5z"/>
		<path class="st1" d="M132.1,342.1c1.6,1.2,3,2.2,4.5,3.3c-4,4.8-8,9.5-12.1,14.4c-1.3-1.2-2.5-2.2-3.9-3.4
			C124.4,351.6,128.2,346.9,132.1,342.1z"/>
		<path class="st1" d="M149.9,326.7c1.2-0.9,2.3-1.7,3.4-2.5c0.8,1.4,2,2.4,3.4,1c1.2-1.1,0.8-2.3-1.1-2.8c3.7-2.9,7.2-5.5,10.6-8.2
			c1.4-1.2,2.6-1.5,3.9,0c0.5,0.5,1.1,0.9,1.8,1.5c-3.7,2.9-7.3,5.6-10.9,8.4c-1.7,1.3-3.5,2.6-5.1,4c-1.5,1.3-2.7,1.6-4.1,0.1
			C151.3,327.8,150.7,327.4,149.9,326.7z"/>
		<path class="st1" d="M229.9,278.1c-5.3,4.2-10.4,8.2-15.6,12.2c-0.8,0.7-4.4-0.9-4.5-2c-0.1-0.4,0.4-1,0.7-1.3
			c4.8-3.7,9.5-7.4,14.3-11.1c0.4-0.3,1.4-0.4,1.8-0.1C227.8,276.4,228.7,277.3,229.9,278.1z M223.2,277.3c-0.5,1.1-1.1,2-0.9,2.3
			c0.4,0.5,1.4,1.1,1.9,1c0.6-0.1,0.9-1.2,1.3-1.8C224.9,278.4,224.2,278,223.2,277.3z"/>
		<path class="st1" d="M228.3,280.6c2.6-2.3,2.6-2.3,6.5,0.9c-2.2,1.7-4.4,3.5-6.5,5.2c-2.7,2.2-5.5,4.3-8.2,6.6
			c-1.2,1-2.1,1.1-3.2,0c-0.7-0.7-1.5-1.2-2.5-1.9c4.1-3.2,8.1-6.3,11.7-9.2c1,0.7,1.7,1.4,2.6,1.7c0.3,0.1,1-0.9,1.5-1.4
			C229.6,281.8,228.9,281.2,228.3,280.6z"/>
		<path class="st1" d="M151.5,318.6c3.8-2.9,8-5.9,12.3-9.1c1,0.8,2.1,1.6,3.4,2.7c-6.2,4.7-12.1,9.3-18.1,13.8
			c-1.2-1-2.3-1.8-3.6-2.8c1.2-0.9,2.3-1.7,2.9-2.2c1.2,0.5,2,1.1,2.9,1.1c0.4,0,1.4-0.8,1.3-1.3
			C152.5,320.1,151.9,319.4,151.5,318.6z"/>
		<path class="st1" d="M119.8,355.7c-1.3-1.1-2.5-2-3.8-3.1c3.7-4.6,7.3-9.2,11-13.8c1.4,1,2.7,1.8,4.2,2.8
			C127.4,346.3,123.6,350.9,119.8,355.7z"/>
		<path class="st1" d="M147,315.1c3.2-2.3,6.5-4.8,9.8-7.2c2.9-2.1,2.9-2.1,5.5,0.8c-3.7,2.8-7.5,5.7-11.2,8.5
			c-1.6,1.2-3.2,2.3-4.7,3.6c-1.5,1.4-2.8,1.5-4.2-0.1c-0.3-0.4-0.7-0.6-1.2-1.1c1.2-0.9,2.3-1.7,3-2.3c1,0.6,1.7,1.3,2.5,1.3
			c0.5,0,1.6-0.7,1.6-1.2C148.2,316.7,147.5,316,147,315.1z"/>
		<path class="st1" d="M174,347.5c0.3-1.8,0.1-3.3-2.5-3.1c0.9-0.9,1.6-1.6,2.4-2.4c1.4-1,2.9-2.1,4.3-3.1c0.5-0.3,0.9-0.6,0.9-0.6
			c1.3,0.4,2.2,0.8,3.1,0.8c0.4,0,1.2-0.9,1.1-1.3c-0.1-0.7-0.8-1.2-1.2-1.9c0.3-0.3,0.7-0.9,1.2-1.4c1.4-1,2.8-2,4.1-3
			c0.7-0.5,1.4-0.9,2-1.4c-0.7,2.5,1.3,2.2,2.9,2.6C186.1,337.8,180.1,342.7,174,347.5z"/>
		<path class="st1" d="M217.9,275.1c0.2-0.2,0.4-0.4,0.6-0.6c3.5-2.6,2.2-2.9,6.4,0.2c-1.5,1.2-3,2.3-4.4,3.5
			c-3.2,2.5-6.4,5-9.7,7.5c-2.5,1.9-3.3,1.7-5.8-1.1C209.3,281.4,213.6,278.2,217.9,275.1c0.1,0.7,0,1.6,0.4,2.2
			c0.2,0.3,1.4,0.1,2-0.2c0.4-0.2,0.4-1,0.5-1.6c-0.8-0.2-1.6-0.5-2.4-0.7C218.3,274.8,218.1,275,217.9,275.1z"/>
		<path class="st1" d="M125.9,338.2c-3.6,4.5-7.1,8.9-10.8,13.5c-1.2-1-2.3-1.9-3.6-3c3-3.9,6-7.7,9-11.5
			C121.6,336,123.9,336.5,125.9,338.2z"/>
		<path class="st1" d="M131.3,370.1c-2.4-2.3-4.7-4.8-7.2-7c-6-5.2-12-10.3-18-15.5c0-0.5,0-1,0-1.5c0.5,0.1,1.1,0.1,1.4,0.4
			c9,7.5,17.9,15.1,26.9,22.7c0.2,0.2,0.3,0.4,0.4,1.3C133.6,370.3,132.5,370.2,131.3,370.1z"/>
		<path class="st1" d="M212,272.9c1.2,0.6,2,1.3,2.8,1.4c0.4,0,1-0.9,1.5-1.4c-0.6-0.5-1.2-1.1-1.8-1.7c0.6-0.5,1.5-1.2,2.5-1.9
			c1,0.8,2,1.5,3.3,2.4c-5.4,4.1-10.5,8.1-15.8,11.9c-0.8,0.5-2.6-0.6-4-0.9c0-0.3,0-0.6,0-0.8C204.5,278.6,208.5,275.5,212,272.9z"
			/>
		<path class="st1" d="M233.2,295.3c1,1.3,2.1,1.9,3.2,0.7c0.4-0.4-0.1-1.6-0.3-3c1.7-1.4,4-3.2,6.5-5.2c0.6,1.5,1.3,2.7,3.3,2.2
			c-5.6,4.5-11.1,8.9-16.9,13.5c0.4-2.4-1-2.6-2.9-2.6C228.6,298.9,230.9,297.2,233.2,295.3z"/>
		<path class="st1" d="M196.2,278.6c4-3,7.9-5.8,11.4-8.3c1.2,0.4,2,0.8,2.9,0.8c0.4,0,1.3-0.8,1.2-1.1c-0.1-0.7-0.6-1.3-1-2
			c2.2-1.9,2.2-1.9,5,0.6c-4,3-7.9,6-11.9,9c-0.6,0.5-1.2,0.9-1.9,1.4C199.1,281,199.1,281,196.2,278.6z"/>
		<path class="st1" d="M439.2,119.4c-5.9,1.6-11.2,3.2-16.7,4.6c-1.7,0.4-3.5,0.1-5.9,0.1C422.7,119.2,434.8,116.6,439.2,119.4z"/>
		<path class="st1" d="M219.4,354c0.1-0.3,0.3-0.6,0.4-0.9c0.7-0.8,1.5-1.5,2-2.3c1.6-2.5,4.5-2.8,6.5-0.6c0.1,0.3,0.2,0.5,0.3,0.8
			c0,0,0,0,0,0c-0.2,0.5-0.4,1-0.5,1.4c0,0,0-0.1,0-0.1c-0.1,0.3-0.1,0.7-0.2,1l0-0.1c-0.1,0.3-0.1,0.7-0.2,1l0-0.1
			c-0.1,0.3-0.1,0.7-0.2,1l0-0.1c-0.1,0.3-0.2,0.5-0.3,0.8l0-0.1c-0.1,0.2-0.2,0.3-0.3,0.5c-2.6,0-5.3,0-8.1-0.1
			C219.1,355.4,219.3,354.7,219.4,354z"/>
		<path class="st1" d="M255.7,276.9c0.3-0.2,0.7-0.5,1.2-0.8c1.7,6,3.3,11.8,5.1,18.1c-2.3-1.6-4.1-3.1-5-5.7
			C255.5,284.7,255.3,280.9,255.7,276.9C255.8,276.9,255.7,276.9,255.7,276.9z"/>
		<path class="st1" d="M245.2,285.2c0.1,0.2,0.1,0.4,0.2,0.6c-0.6,0.5-1.3,1-2,1.5c-1.3-3.3-4.7-3.9-6.8-6.3c2-1.6,4-3.4,6.1-4.9
			c1.2-0.9,3.4,0.8,3.7,2.7c-0.8,0.6-1.6,1.1-2.4,1.7c-1.9,0.6-1.5,1.9-0.9,3.3c0.6-0.2,1-0.3,1.6-0.5
			C244.9,284,245.1,284.6,245.2,285.2z"/>
		<path class="st1" d="M418.7,129.9c-3.7,2.9-7.3,5.8-11.2,8.5c-0.7,0.5-2.3-0.3-3.5-0.6c0-0.2,0-0.4,0-0.6
			c3.7-2.8,7.3-5.8,11.2-8.4c0.7-0.5,2.3,0.3,3.5,0.5C418.7,129.5,418.7,129.7,418.7,129.9z"/>
		<path class="st1" d="M422.3,131.8c-3.6,2.8-7.1,5.7-10.7,8.3c-0.7,0.5-2.2-0.1-3.4-0.2c0-0.3,0-0.5-0.1-0.8
			c3.7-2.9,7.3-5.8,11.1-8.5c0.6-0.4,2,0.2,3.1,0.4C422.3,131.3,422.3,131.6,422.3,131.8z"/>
		<path class="st1" d="M405.5,140.3c-3.3,2.6-6.5,5.3-10,7.6c-0.6,0.4-2.2-0.5-4-1c3.8-2.9,7.1-5.6,10.5-7.9
			c0.7-0.5,2.2,0.4,3.4,0.6C405.5,139.8,405.5,140.1,405.5,140.3z"/>
		<path class="st1" d="M380.5,155.4c3-2.4,6-4.9,9.2-7c0.8-0.5,2.5,0.3,3.8,0.5c0,0.2,0,0.5,0,0.7c-3,2.4-5.9,4.9-9.1,7.1
			c-0.8,0.6-2.6-0.3-3.9-0.5C380.5,155.9,380.5,155.7,380.5,155.4z"/>
		<path class="st1" d="M174,347.5c6.1-4.9,12.1-9.7,18.3-14.7c-1.5-0.4-3.5-0.1-2.9-2.6c0.1-0.2,0.2-0.3,0.3-0.5
			c0.8-0.4,1.7-0.7,2.5-1.1c-0.8-0.7-1.8-1.6-2.7-2.4c1.6,1,3.3,2,4.9,3.1c1.6,1.1,1,2-0.2,2.9c-3.2,2.6-6.3,5.1-9.5,7.7
			c-2.4,2-4.8,4-7.2,6C176.4,346.5,175.2,347,174,347.5z"/>
		<path class="st1" d="M159.8,348.3c0.8,0.8,1.6,1.7,2.5,2.7c-0.9,2-2.3,3.5-4.6,4.1c-2.6,0.8-3.3-2.1-5.4-2.6
			c1.1-0.9,2.1-1.6,3-2.4c0.9-0.8,1.6-1.7,2.5-2.6C158.3,347.7,159.1,348,159.8,348.3C159.9,348.3,159.8,348.3,159.8,348.3z"/>
		<path class="st1" d="M368.9,164.4c3.5-2.7,6.3-5,9.3-7c0.8-0.5,2.4,0.2,3.7,0.4c0,0.3,0.1,0.5,0.1,0.8c-3,2.4-5.9,4.9-9.1,6.9
			C372.3,166,370.7,165,368.9,164.4z"/>
		<path class="st1" d="M358.8,172.3c2.7-2,5.3-4.1,8-6.1c1.9-1.5,2.8,0.5,4.6,1c-3.1,2.4-5.7,4.8-8.7,6.7c-0.8,0.5-2.6-0.5-3.9-0.8
			C358.7,172.7,358.8,172.5,358.8,172.3z"/>
		<path class="st1" d="M157.8,305.2c-4,2.9-7.9,5.9-11.9,8.8c-1.8,1.3-3.5,2.6-5.3,3.8c-0.4,0.3-1.2,0-1.8,0
			c0.3-0.5,0.4-1.1,0.8-1.4c5.2-3.9,10.4-7.8,15.5-11.7C156.3,303.9,157,303.9,157.8,305.2z"/>
		<path class="st1" d="M395.6,149.1c3.8-3,7-5.6,10.4-8c0.7-0.5,2.2,0.2,3.3,0.3c0,0.2,0.1,0.5,0.1,0.7c-3.3,2.7-6.5,5.4-10,7.9
			C398.8,150.4,397.3,149.5,395.6,149.1z"/>
		<path class="st1" d="M373.6,166.3c2.9-2.2,5.7-4.5,8.6-6.7c1.7-1.3,2.6,0.5,4.1,1c-3.1,2.5-5.9,5-8.9,7c-0.8,0.5-2.4-0.3-3.7-0.5
			C373.6,166.9,373.6,166.6,373.6,166.3z"/>
		<path class="st1" d="M384.6,157.6c3.1-2.4,6.1-4.9,9.3-7.1c0.7-0.5,2.3,0.2,3.4,0.3c0,0.2,0,0.5,0.1,0.7c-3.1,2.6-6.1,5.2-9.4,7.6
			c-0.6,0.4-2.2-0.5-3.4-0.8C384.7,158.1,384.7,157.8,384.6,157.6z"/>
		<path class="st1" d="M375,169.6c-2.7,2.2-5.3,4.5-8.3,6.4c-0.8,0.5-2.5-0.4-3.8-0.6c0-0.2,0-0.5,0-0.7c2.8-2.2,5.5-4.5,8.5-6.4
			c0.7-0.5,2.3,0.4,3.5,0.6C375,169.1,375,169.4,375,169.6z"/>
		<path class="st1" d="M414.4,127.9c-3.6,2.8-7.1,5.7-10.8,8.3c-0.7,0.5-2.1-0.1-3.2-0.1c0-0.2-0.1-0.5-0.1-0.7c2.6-2,5.1-4,7.7-5.9
			c0.7-0.6,1.5-1,2.2-1.7C411.7,126.3,413,126.4,414.4,127.9z"/>
		<path class="st1" d="M348.6,180.2c2.6-2,5-4.1,7.7-5.8c0.9-0.5,2.7,0.3,4,0.5c0,0.3,0,0.5,0,0.8c-2.6,2.1-5.2,4.3-8,6.1
			c-0.8,0.5-2.5-0.5-3.8-0.8C348.6,180.7,348.6,180.4,348.6,180.2z"/>
		<path class="st1" d="M352.8,182.7c2.7-2.1,5.3-4.4,8.1-6.2c0.7-0.5,2.4,0.5,4.2,1c-3.2,2.6-5.7,4.8-8.6,6.6
			c-0.8,0.5-2.5-0.5-3.8-0.8C352.8,183.1,352.8,182.9,352.8,182.7z"/>
		<path class="st1" d="M128.1,375.9c0.1-0.3,0.2-0.6,0.4-0.9c0.4-0.1,0.9,0,1.2-0.3c1.3-1.1,2.6-2.2,3.9-3.3
			c0.1,0.1,0.3,0.3,0.4,0.4c-0.2,0.5-0.4,1-0.6,1.5c0.7,0.7,1.5,1.3,2.2,2c0.5,1,1,2.1,1.5,3.1c0.2,0.5,0.4,1,0.5,1.4
			c-0.4,0-0.9,0.1-1.3,0.1c-0.3,0-0.6-0.1-0.9,0c-1.5,0.5-3.2,0.5-4-0.9c-0.6-1.2-0.4-2.8-0.6-4.2c0.2,0,0.4,0,0.6-0.1
			c-1,0.5-1.9,1.1-2.9,1.6C128.5,376.5,128.3,376.1,128.1,375.9z"/>
		<path class="st1" d="M338.9,187.7c2.4-1.9,4.7-4,7.4-5.5c0.9-0.5,2.6,0.4,4,0.7c0,0.2,0,0.5,0,0.7c-2.5,2-4.9,4.2-7.6,5.8
			c-0.8,0.5-2.5-0.6-3.9-1C338.9,188.1,338.9,187.9,338.9,187.7z"/>
		<path class="st1" d="M333.8,197.5c2.3-1.8,4.6-3.7,6.9-5.4c1.8-1.3,2.5,1.1,4.1,1.6c-2.4,1.9-4.6,4-7.2,5.6
			c-0.8,0.5-2.6-0.6-3.9-1C333.7,198,333.8,197.8,333.8,197.5z"/>
		<path class="st1" d="M341,190.9c-2.8,2.2-5,4.3-7.6,5.8c-0.9,0.5-2.7-0.5-4.1-0.9c0-0.2,0-0.5-0.1-0.7c2.5-1.9,4.8-4,7.5-5.6
			C337.5,189.1,339.3,190.3,341,190.9z"/>
		<path class="st1" d="M388.1,144.6c3.4-2.5,6.5-5.1,9.9-7.4c0.7-0.5,2.1,0,3.2,0.1c0.1,0.2,0.1,0.5,0.2,0.7
			c-1.6,1.3-3.2,2.5-4.8,3.8c-1.2,0.9-2.5,1.8-3.6,2.9C391.3,146.2,389.9,146.2,388.1,144.6z"/>
		<path class="st1" d="M343.1,190.3c2.5-2,5-4.1,7.7-5.8c0.8-0.5,2.4,0.5,3.6,0.8c0,0.2,0,0.4,0,0.7c-2.6,2-5,4.2-7.8,6
			c-0.7,0.4-2.3-0.6-3.5-1C343.1,190.8,343.1,190.5,343.1,190.3z"/>
		<path class="st1" d="M331.8,198.1c-2.8,2.2-4.9,4.2-7.3,5.5c-1,0.5-2.8-0.6-4.2-0.9c0-0.2,0-0.5,0-0.7c2.3-1.7,4.4-3.7,6.9-5.1
			C328.1,196.4,329.9,197.5,331.8,198.1z"/>
		<path class="st1" d="M127.5,325.6c0.1,0.4,0.3,0.7,0.3,0.9c-1.4,1.9-4.5,1.9-5.2,5c-1.2-0.8-2.5-1.5-3.5-2.4
			c-0.4-0.4-0.2-1.6,0-2.3c0.3-0.7,1.1-1.2,1.6-1.8c0,0-0.1,0.1-0.1,0.1c2.2-1.2,4.4-1.2,6.3,0.7
			C127.1,325.7,127.4,325.7,127.5,325.6L127.5,325.6z"/>
		<path class="st1" d="M324.9,204.5c1.6-1.2,3.1-2.4,4.7-3.6c2.8-2.2,2.8-2.2,6,0.1c-2.3,1.8-4.4,3.9-6.8,5.3c-0.9,0.5-2.6-0.6-4-1
			C324.8,205,324.9,204.8,324.9,204.5z"/>
		<path class="st1" d="M389.2,147.5c-3.1,2.4-6.1,4.9-9.3,7.1c-0.7,0.5-2.2-0.2-3.4-0.4c0-0.2,0-0.4,0-0.6c3.2-2.4,6.3-4.9,9.6-7.1
			c0.6-0.4,2,0.3,3.1,0.4C389.2,147.1,389.2,147.3,389.2,147.5z"/>
		<path class="st1" d="M233.6,344.2C233.6,344.2,233.6,344.3,233.6,344.2c0.3,0.4,1,0.7,1.1,1.1c2.2,5.9,4.3,11.9,6.3,17.9
			c0.2,0.7,0,1.6,0,2.4c-0.3,0-0.5,0-0.8,0.1c-0.6-1.6-1.2-3.1-1.7-4.7c-1.7-4.8-3.5-9.7-5.2-14.5
			C233.2,345.9,233.5,345,233.6,344.2z"/>
		<path class="st1" d="M135.9,315.9c0.2-0.2,0.5-0.5,0.7-0.7c5.3-4,10.5-7.9,15.8-11.9c0.9,1.1,0.9,1.8-0.2,2.6
			c-1.3,0.9-2.4,1.9-3.7,2.8c-0.4,0.3-1,0.6-1.5,0.6c-1.5-0.2-2.1,0.6-2.5,1.9c-0.1,0.5-0.5,0.9-0.9,1.3c-1.1,0.9-2.4,1.8-3.5,2.7
			C138.9,316.2,137.7,317,135.9,315.9z"/>
		<path class="st1" d="M366.4,165.1c-2.7,2.1-5.2,4.3-8,6.1c-0.8,0.5-2.4-0.1-3.7-0.3c0-0.2,0-0.5-0.1-0.7c2.8-2.1,5.6-4.4,8.5-6.4
			c0.7-0.5,2.2,0.3,3.3,0.5C366.4,164.6,366.4,164.9,366.4,165.1z"/>
		<path class="st1" d="M311.9,208.5c2.1-1.6,4-3.5,6.3-4.6c0.9-0.5,2.7,0.6,4.6,1.1c-2.7,2.1-4.6,4.1-6.8,5.2
			c-0.9,0.5-2.7-0.6-4.1-1C311.9,209,311.9,208.8,311.9,208.5z"/>
		<path class="st1" d="M377.7,156.5c-2.9,2.2-5.8,4.6-8.8,6.6c-0.7,0.5-2.2-0.2-3.4-0.4c0-0.2,0-0.4,0-0.6c3-2.3,6-4.7,9.1-6.8
			c0.6-0.4,2,0.3,3,0.5C377.6,156,377.6,156.3,377.7,156.5z"/>
		<path class="st1" d="M344,178.4c3.2-2.4,5.8-4.6,8.6-6.3c0.7-0.5,2.2,0.3,3.3,0.5c0,0.2,0.1,0.5,0.1,0.7c-2.7,2.1-5.4,4.4-8.2,6.2
			C347.1,179.8,345.6,178.9,344,178.4z"/>
		<path class="st1" d="M410.4,126.2c-3.7,2.8-7.3,5.7-11,8.3c-0.6,0.4-1.8,0-2.8-0.1c0-0.2-0.1-0.4-0.1-0.6c3.3-2.5,6.7-5,10-7.6
			C407.8,125.2,408.9,124.8,410.4,126.2z"/>
		<path class="st1" d="M326.6,208.2c-2,1.6-4,3.3-6.1,4.8c-0.4,0.3-1.4,0.1-2-0.1c-0.8-0.3-1.4-0.8-2.4-1.4c2.3-1.8,4.3-3.7,6.7-4.9
			c0.9-0.5,2.5,0.6,3.8,1C326.6,207.7,326.6,208,326.6,208.2z"/>
		<path class="st1" d="M345.6,181.3c-2.4,1.8-4.6,3.8-7.2,5.3c-0.9,0.5-2.4-0.1-3.7-0.1c-0.1-0.3-0.1-0.6-0.2-0.9
			c2.6-2,5.1-4.1,7.8-5.8c0.6-0.4,2.1,0.5,3.2,0.8C345.6,180.8,345.6,181,345.6,181.3z"/>
		<path class="st1" d="M318.3,214.8c-1.7,1.4-3.3,2.5-4.7,3.8c-1.4,1.4-2.6,1.6-4.1,0.3c-0.4-0.3-0.8-0.5-1.6-1
			c2.3-1.8,4.5-3.5,6.7-5.3C315.9,213.2,317,213.9,318.3,214.8z"/>
		<path class="st1" d="M325.2,192.7c2.3-1.7,4.4-3.7,6.9-5.1c0.9-0.5,2.5,0.2,3.8,0.4c0,0.3,0,0.5,0,0.8c-2.4,1.8-4.7,3.8-7.2,5.3
			c-0.8,0.5-2.3-0.3-3.6-0.6C325.2,193.2,325.2,193,325.2,192.7z"/>
		<path class="st1" d="M303.8,214.9c1.9-1.5,3.8-3.1,5.8-4.5c0.4-0.3,1.3-0.1,1.8,0.1c0.8,0.3,1.5,0.9,2.5,1.6
			c-2.1,1.6-3.9,3.5-6.1,4.5c-1,0.5-2.7-0.6-4.1-1C303.8,215.4,303.8,215.1,303.8,214.9z"/>
		<path class="st1" d="M210.9,265.7c-4.9,3.7-9.9,7.4-14.9,11c-0.6,0.4-1.4,0.4-2.2,0.6c-0.1-0.2-0.2-0.5-0.3-0.7
			c2.5-1.9,5.1-3.8,7.6-5.8c2.5-1.9,5-3.9,7.6-5.7c0.5-0.4,1.4-0.2,2.1-0.3C210.9,265.2,210.9,265.5,210.9,265.7z"/>
		<path class="st1" d="M385,145.7c-3,2.3-5.9,4.7-9,6.8c-0.7,0.5-2,0-3.1,0c0-0.2-0.1-0.5-0.1-0.7c3.1-2.4,6.2-4.8,9.5-7
			c0.6-0.4,1.9,0.2,2.8,0.3C385,145.2,385,145.4,385,145.7z"/>
		<path class="st1" d="M373.5,154.5c-2.9,2.2-5.8,4.6-8.8,6.6c-0.7,0.5-2.1-0.2-3.1-0.3c0-0.2,0-0.4,0-0.6c3-2.2,5.9-4.6,9-6.7
			c0.6-0.4,1.9,0.2,2.9,0.3C373.4,154.1,373.4,154.3,373.5,154.5z"/>
		<path class="st1" d="M295.7,221.1c1.4-1.1,2.5-2,3.7-2.9c3-2.3,3-2.3,6.2,0.4c-1.8,1.4-3.6,2.9-5.5,4.2c-0.4,0.3-1.3,0.1-1.8-0.1
			C297.5,222.3,296.8,221.7,295.7,221.1z"/>
		<path class="st1" d="M300,224.1c2.3-1.8,4.1-3.3,6.1-4.6c0.4-0.3,1.4,0,2,0.3c0.7,0.3,1.3,0.8,2.2,1.4c-2.1,1.6-3.9,3.4-6.1,4.5
			C303.4,226.1,301.7,224.8,300,224.1z"/>
		<path class="st1" d="M227.3,356C227.3,356,227.3,356,227.3,356c0.1-0.2,0.2-0.5,0.3-0.7c0,0,0,0.1,0,0.1c0.1-0.3,0.1-0.7,0.2-1
			c0,0,0,0.1,0,0.1c0.1-0.3,0.1-0.7,0.2-1l0,0.1c0.1-0.3,0.1-0.7,0.2-1c0,0,0,0.1,0,0.1c0.2-0.3,0.5-0.5,0.7-0.8
			c0.4,0.4,1,0.7,1.3,1.1c0.3,0.5,0.4,1.2,0.5,1.8c1.1,3.6,2.4,7.3-0.3,11.2c-0.9-3.2-1.7-6.2-2.6-9.3
			C227.5,356.4,227.4,356.2,227.3,356z"/>
		<path class="st1" d="M397.6,136c-3.7,2.8-6.8,5.3-10,7.6c-0.7,0.5-2,0.1-3,0.1c-0.1-0.2-0.1-0.5-0.2-0.7c3.4-2.5,6.7-5.1,10.2-7.5
			C395,135.1,396.2,135.7,397.6,136z"/>
		<path class="st1" d="M238.8,368c-1.6-4.3-3.2-8.7-4.8-13c-0.7-2-1.5-4.1-2.2-6.2c-0.2-0.7,0-1.5,0-2.2c0.2,0,0.5-0.1,0.7-0.1
			c1,2.7,2,5.3,3,8c1.4,3.8,2.7,7.5,4,11.3c0.2,0.6,0,1.4,0,2.1C239.3,368,239.1,368,238.8,368z"/>
		<path class="st1" d="M298.2,224.5c-2,1.6-3.6,3.4-5.6,4.2c-1,0.4-2.7-0.8-4.7-1.5c2.5-1.9,4.3-3.4,6-4.7
			C295.4,223.1,296.6,223.7,298.2,224.5z"/>
		<path class="st1" d="M327.1,195.6c-2.7,2.1-4.8,4.1-7.2,5.4c-0.8,0.5-2.4-0.5-3.7-0.8c0-0.2,0-0.4,0-0.6c2.3-1.7,4.4-3.6,6.9-5
			C323.8,194.2,325.4,195.1,327.1,195.6z"/>
		<path class="st1" d="M362.1,163.1c-2.6,2-5.1,4.1-7.9,5.9c-0.8,0.5-2.3,0.1-3.4,0.1c0-0.3-0.1-0.5-0.1-0.8
			c2.8-2.1,5.4-4.3,8.3-6.2c0.7-0.5,2,0.1,3.1,0.1C362.1,162.6,362.1,162.8,362.1,163.1z"/>
		<path class="st1" d="M281.3,232.3c1.7-1.3,3.3-2.6,5-3.8c0.3-0.2,1.2,0,1.7,0.2c0.9,0.4,1.8,1,2.8,1.7c-1.1,0.9-2,1.6-3,2.3
			C284.7,235,284.7,235,281.3,232.3z"/>
		<path class="st1" d="M296.5,232.1c-1.2-0.7-2.3-1.4-3.7-2.3c1.9-1.5,3.5-2.9,5.4-4.1c0.5-0.3,1.5,0.1,2.2,0.3
			c0.7,0.3,1.3,0.8,2.2,1.4C300.5,229,298.5,230.5,296.5,232.1z"/>
		<path class="st1" d="M187.4,331.7c-1.4,1-2.8,2-4.1,3c-1.7,1.4-3.4,2.9-5.1,4.3c-1.4,1-2.9,2.1-4.3,3.1c-1.1,0.7-2.2,1.3-3.8,2.3
			c0.3-0.8,0.3-1.4,0.5-1.6c5.6-4.5,11.3-8.9,16.9-13.4c0.2-0.2,0.5-0.2,1.2-0.1C188.3,330.1,187.9,330.9,187.4,331.7z"/>
		<path class="st1" d="M307.7,206.2c1.5-1.2,3.1-2.4,4.6-3.6c2.5-1.9,2.5-1.9,5.3,0.3c-2,1.6-3.8,3.4-6,4.6
			c-0.9,0.5-2.6-0.3-3.9-0.4C307.7,206.7,307.7,206.5,307.7,206.2z"/>
		<path class="st1" d="M351.4,171.3c-2.5,1.9-5,3.9-7.6,5.6c-0.8,0.5-2.2,0-3.3,0c-0.1-0.3-0.1-0.5-0.2-0.8c2.7-2.1,5.4-4.2,8.2-6.1
			c0.6-0.4,1.9,0.4,2.9,0.6C351.5,170.9,351.4,171.1,351.4,171.3z"/>
		<path class="st1" d="M299.3,212.5c2-1.5,3.9-3.3,6.1-4.4c0.9-0.5,2.5,0.5,3.8,0.8c0,0.2,0,0.4,0,0.7c-1.9,1.5-3.7,3.2-5.8,4.3
			c-1,0.5-2.7-0.4-4-0.7C299.3,212.9,299.3,212.7,299.3,212.5z"/>
		<path class="st1" d="M285.8,235.2c1.8-1.4,3.4-2.7,5-3.8c0.4-0.3,1.1-0.2,1.6,0c0.9,0.5,1.7,1.1,2.8,1.8c-1.8,1.4-3.3,2.8-5,3.9
			c-0.5,0.3-1.5-0.1-2.2-0.4C287.3,236.4,286.6,235.9,285.8,235.2z"/>
		<path class="st1" d="M330.5,183.5c2.5-1.8,4.9-3.8,7.5-5.4c0.8-0.5,2.2,0.1,3.3,0.3c0,0.2,0,0.5,0,0.7c-2.5,1.8-4.8,3.8-7.4,5.4
			c-0.8,0.5-2.2-0.1-3.4-0.2C330.6,184,330.6,183.8,330.5,183.5z"/>
		<path class="st1" d="M321.1,190.6c2.3-1.8,4.6-3.7,7.1-5.2c0.7-0.4,2.1,0.2,3.2,0.4c0,0.2,0,0.5,0.1,0.7c-2.3,1.8-4.5,3.7-7,5.2
			c-0.8,0.5-2.2-0.2-3.3-0.3C321.2,191.1,321.1,190.9,321.1,190.6z"/>
		<path class="st1" d="M279,240.6c1.7-1.3,3.1-2.6,4.7-3.6c0.5-0.3,1.5,0.1,2.2,0.4c0.7,0.3,1.4,0.9,2.2,1.5
			c-1.6,1.3-2.9,2.5-4.4,3.6c-0.4,0.3-1.3,0.2-1.8-0.1C280.9,241.9,280.1,241.3,279,240.6z"/>
		<path class="st1" d="M337.9,204.1c-1.9,1.4-3.7,2.9-5.6,4.3c-1.1-0.2-2.2-0.4-3.4-0.6c0-0.2,0-0.5-0.1-0.7
			c2.3-1.8,4.5-3.7,6.9-5.3c0.5-0.4,1.7,0.3,2.8,0.5C338.3,203.1,338.1,203.6,337.9,204.1z"/>
		<path class="st1" d="M406.3,124.7c-3.6,2.7-7.2,5.5-10.9,8.1c-0.6,0.4-1.6,0.1-2.5,0.1c0-0.2-0.1-0.4-0.1-0.5
			c3.7-2.8,7.4-5.6,11.2-8.3c0.5-0.3,1.4,0,2.2,0.1C406.3,124.4,406.3,124.6,406.3,124.7z"/>
		<path class="st1" d="M146.2,336.9c0.9-0.7,1.7-1.3,2.5-1.8c1.4-1,4.7,0.2,5,2c0.1,0.4-0.2,0.9-0.5,1.2c-0.5,0.5-1.1,0.8-1.7,1.3
			c-1.4,1.2-2.6,2-3.4-0.6C148,338.2,147,337.6,146.2,336.9z"/>
		<path class="st1" d="M322.1,193.7c-2.1,1.6-4.1,3.4-6.4,4.7c-0.9,0.5-2.4-0.1-3.6-0.2c0-0.2,0-0.5,0-0.7c2.2-1.6,4.3-3.4,6.6-4.8
			c0.8-0.5,2.2,0.1,3.4,0.2C322,193.1,322.1,193.4,322.1,193.7z"/>
		<path class="st1" d="M303.4,203.9c2.1-1.5,4-3.2,6.3-4.5c0.8-0.5,2.3,0.2,3.4,0.4c0,0.2,0,0.4,0,0.7c-2.1,1.6-4.1,3.3-6.4,4.6
			c-0.8,0.4-2.2-0.3-3.3-0.5C303.4,204.4,303.4,204.2,303.4,203.9z"/>
		<path class="st1" d="M272.7,245.6c0.9-0.7,1.5-1.3,2.1-1.8c3.1-2.5,3.2-2.5,6.4,0.6c-1.4,1.1-2.8,2.2-4.3,3.2
			c-0.3,0.2-1,0.1-1.4-0.2C274.6,247,273.8,246.3,272.7,245.6z"/>
		<path class="st1" d="M283.4,236c-0.9,0.7-1.7,1.4-2.4,2c-2.9,2.3-2.9,2.3-5.9-0.2C277.3,233.8,280.2,233.2,283.4,236z"/>
		<path class="st1" d="M300.9,215.8c-1.8,1.4-3.4,2.8-5.3,4.1c-1.8,1.2-2.6-0.8-4.2-1.3c2.1-1.6,3.8-3.2,5.8-4.2
			c0.9-0.4,2.4,0.4,3.7,0.7C300.9,215.4,300.9,215.6,300.9,215.8z"/>
		<path class="st1" d="M346.8,196.8c-1.9,1.4-3.7,2.8-5.6,4.3c-1.4,0.9-2.3,0.1-3.4-1c2.4-1.9,4.7-3.9,7.1-5.6
			c0.5-0.4,1.7,0.2,2.7,0.3C347.3,195.7,347.1,196.3,346.8,196.8z"/>
		<path class="st1" d="M425.3,112.3c-0.5,0.6-0.9,1.5-1.5,1.7c-2.8,1.2-5.7,2.2-8.8,3.4c-0.3-1-0.5-1.8-0.8-2.8
			c3.6-1,7.1-2,10.5-2.9C424.9,111.8,425.1,112.1,425.3,112.3z"/>
		<path class="st1" d="M380.6,141.5c3.2-2.4,6.3-4.8,9.6-7.1c0.6-0.4,1.8-0.2,2.7-0.3c0,0.2,0.1,0.5,0.1,0.7c-3.3,2.5-6.5,5-9.9,7.4
			c-0.5,0.4-1.6,0-2.4,0C380.7,141.9,380.7,141.7,380.6,141.5z"/>
		<path class="st1" d="M381.3,143.6c-3.4,2.6-6.3,4.8-9.3,6.9c-0.7,0.5-1.9,0.4-2.8,0.5c-0.1-0.3-0.2-0.6-0.3-0.9
			c3.2-2.4,6.4-4.8,9.8-7.1C379.1,142.8,380.1,143.3,381.3,143.6z"/>
		<path class="st1" d="M321.5,217.4c-1.9,1.4-3.7,2.9-5.6,4.3c-1.1-0.2-2.3-0.5-3.4-0.7c0-0.2,0-0.4,0-0.6c2-1.6,3.9-3.4,6-4.7
			C319.9,214.8,320.9,216.1,321.5,217.4z"/>
		<path class="st1" d="M367.3,180.1c-1,0.8-2.1,1.5-3.1,2.3c-1.3,0.9-2.7,1.8-3.8,2.9c-1.2,1.1-2.3,1.3-3.6-0.2
			c2.9-2.3,5.7-4.6,8.9-7.2C366.2,178.7,366.7,179.4,367.3,180.1z"/>
		<path class="st1" d="M268.2,242.4c1.6-1.2,2.9-2.3,4.3-3.2c0.4-0.3,1.4,0.2,2,0.5c0.7,0.4,1.4,0.9,2.1,1.4
			C271.8,245,272.9,246,268.2,242.4z"/>
		<path class="st1" d="M284.4,224c1.6-1.2,3-2.8,4.8-3.6c1-0.4,2.5,0.4,3.8,0.7c0,0.2,0.1,0.5,0.1,0.7c-1.7,1.4-3.3,3-5.2,4
			c-0.8,0.4-2.4-0.6-3.6-1C284.4,224.5,284.4,224.2,284.4,224z"/>
		<path class="st1" d="M336.5,174.3c2.7-2,5.3-4.1,8.1-5.9c0.5-0.4,1.7,0.2,3.2,0.5c-3.1,2.4-5.7,4.5-8.4,6.3
			c-0.6,0.4-1.9-0.1-2.8-0.1C336.6,174.7,336.5,174.5,336.5,174.3z"/>
		<path class="st1" d="M357.6,158.6c3-2.2,5.9-4.4,9-6.5c0.6-0.4,1.6,0,2.5,0c0.1,0.2,0.1,0.4,0.2,0.6c-3,2.2-5.9,4.5-9,6.6
			c-0.6,0.4-1.7-0.1-2.5-0.1C357.7,159,357.6,158.8,357.6,158.6z"/>
		<path class="st1" d="M294.6,210.6c2.1-1.5,3.7-2.5,4.9-3.8c1.7-1.7,3.2-1.5,5.1,0.2c-2,1.6-3.9,3.3-6.1,4.5
			C297.8,212,296.3,211.1,294.6,210.6z"/>
		<path class="st1" d="M346.9,166.6c2.8-2,5.5-4.2,8.3-6c0.6-0.4,1.8,0,2.7,0.1c0,0.2,0.1,0.4,0.1,0.6c-2.8,2-5.5,4.1-8.3,6
			c-0.7,0.4-1.8,0.1-2.7,0.1C347,167.1,347,166.8,346.9,166.6z"/>
		<path class="st1" d="M151.4,340.8c3.6-3.1,3.1-3.5,7.6,1c-0.5,0.4-0.9,0.8-1.4,1.2c-2.4,1.9-2.3,1.9-4.2-0.5
			C152.9,341.9,152.2,341.5,151.4,340.8z"/>
		<path class="st1" d="M317.1,188.7c2.4-1.7,4.6-3.6,7.1-5.1c0.7-0.4,1.9,0.2,2.9,0.3c0,0.2,0,0.4,0,0.6c-2.3,1.7-4.5,3.6-6.9,5.1
			c-0.7,0.4-2-0.1-3.1-0.1C317.2,189.1,317.1,188.9,317.1,188.7z"/>
		<path class="st1" d="M386.9,164.1c-1.9,1.4-3.7,2.9-5.6,4.3c-2.4,1.2-2.4,1.2-3.9,0.1c3-2.4,5.9-4.7,8.9-7c0.4-0.3,1.3,0,2.3,0.1
			C387.9,162.7,387.4,163.4,386.9,164.1z"/>
		<path class="st1" d="M310,226.8c-1,0.6-2,1.3-3,1.9c-0.7-0.6-1.4-1.3-2.3-2.1c1.9-1.5,3.6-3.2,5.6-4.4c0.6-0.4,2,0.4,3.3,0.8
			C312.2,224.5,311.1,225.6,310,226.8z"/>
		<path class="st1" d="M266.6,250.5c4.3-4,5.2-4.1,8.3-1c-1.3,1-2.5,2.1-3.8,3c-0.3,0.2-1.1,0.2-1.5,0
			C268.7,251.9,267.7,251.2,266.6,250.5z"/>
		<path class="st1" d="M352.6,192.1c-0.8,0.5-1.6,1.1-2.4,1.6c-1-0.1-2-0.3-3-0.4c0-0.2-0.1-0.4-0.1-0.7c2.5-2,5-4,7.6-5.8
			c0.5-0.4,1.6,0.1,2.9,0.2C355.6,189.1,354.1,190.6,352.6,192.1z"/>
		<path class="st1" d="M329.8,210.5c-1.6,1.2-3.4,2.2-4.8,3.6c-1.6,1.5-2.9,2-4.5-0.2c2.1-1.7,4.3-3.6,6.6-5.1
			C327.5,208.6,328.9,209.9,329.8,210.5C329.8,210.5,329.8,210.5,329.8,210.5z"/>
		<path class="st1" d="M141.2,333.5c4.2-3.7,4.6-3.7,7.5,0.1c-0.5,0.4-1,0.9-1.6,1.3c-2.5,1.9-2.5,1.9-4.4-0.3
			C142.3,334.3,141.8,334,141.2,333.5z"/>
		<path class="st1" d="M262.1,247.4c5.2-4.3,3.4-4.3,8.3-1.1c-1.3,1.1-2.6,2.1-3.9,3.1c-0.4,0.2-1.2,0.1-1.6-0.1
			C263.9,248.8,263.1,248.1,262.1,247.4z"/>
		<path class="st1" d="M317.7,191.5c-2.2,1.7-4.4,3.5-6.7,5c-0.6,0.4-2-0.3-3.6-0.6c2.8-2.1,5-3.9,7.3-5.4c0.7-0.4,1.9,0.2,2.9,0.4
			C317.7,191.2,317.7,191.3,317.7,191.5z"/>
		<path class="st1" d="M286.1,227.4c-2.3,1.6-4.1,2.9-6,4.2c-0.9-0.6-1.8-1.1-3.1-1.9c1.9-1.5,3.4-3,5.3-3.9
			C283.1,225.5,284.5,226.7,286.1,227.4z"/>
		<path class="st1" d="M336.9,177c-2.4,1.9-4.8,3.8-7.3,5.5c-0.6,0.4-1.9-0.2-2.9-0.3c0-0.2,0-0.4,0-0.6c2.5-1.8,4.9-3.7,7.5-5.4
			c0.6-0.4,1.8,0.1,2.7,0.2C336.9,176.6,336.9,176.8,336.9,177z"/>
		<path class="st1" d="M296.3,213.4c-1.8,1.3-3.4,2.9-5.4,3.9c-0.9,0.5-2.4-0.3-3.6-0.5c0-0.2,0-0.4,0-0.6c1.9-1.4,3.7-3,5.7-4.1
			c0.7-0.4,2.1,0.4,3.2,0.7C296.3,212.9,296.3,213.1,296.3,213.4z"/>
		<path class="st1" d="M235,275.6c2.1-3.8,3.9-3.9,7.7-0.4c-1.9,0.7-2.6,3.6-5.3,2.3C236.6,276.9,235.8,276.3,235,275.6z"/>
		<path class="st1" d="M375.5,173.2c-1.8,1.3-3.6,2.6-5.3,4c-1.2,1-2.2,1.1-3.3-0.3c2.8-2.2,5.6-4.5,8.5-6.6
			c0.4-0.3,1.4,0.1,2.5,0.2C376.8,171.7,376.1,172.5,375.5,173.2C375.4,173.3,375.5,173.2,375.5,173.2z"/>
		<path class="st1" d="M303.6,232c-0.8,0.6-1.6,1.2-2.4,1.7c-1.7,1.1-2.6-0.4-4.1-1.2c1.9-1.5,3.4-3,5.3-4.1
			c0.8-0.4,2.2,0.2,3.7,0.4C305,230.4,304.3,231.2,303.6,232z"/>
		<path class="st1" d="M268.7,254.1c-3.5,3.8-4.3,3.9-7.7,0.9C264.6,251.1,265.1,251,268.7,254.1z"/>
		<path class="st1" d="M264.2,251c-3.9,3.9-4,3.9-7.8,1C259.4,248.1,260.2,248,264.2,251z"/>
		<path class="st1" d="M269.7,235.1c2-1.5,3.2-3,4.9-3.6c1.1-0.4,2.7,0.4,4,0.7c0,0.3,0.1,0.5,0.1,0.8c-1.7,1.2-3.2,2.6-5.1,3.4
			C272.8,236.8,271.4,235.8,269.7,235.1z"/>
		<path class="st1" d="M136.3,330.3c5.2-4.3,4.3-3.5,7.4-0.5c0,0.1-0.1,0.3-0.2,0.4c-1.3,1-2.5,2.6-4,2.9
			C138.6,333.1,137.4,331.2,136.3,330.3z"/>
		<path class="st1" d="M298.6,236.1c-1,0.8-2.1,1.6-3.1,2.3c-1.7,1.1-3.4,2.2-5-0.5c1.5-1.2,3-2.8,4.8-3.7
			C296.8,233.4,297.9,234.8,298.6,236.1z"/>
		<path class="st1" d="M230.4,272.5c1.1-3.5,4-3.8,7.6-0.6c-1.8,0.7-2.4,3.3-5,2.4C232.1,273.7,231.2,273.1,230.4,272.5z"/>
		<path class="st1" d="M431.1,112.8c0-1.4,0.1-2.3,0.1-3.3c2.8-1,5.6-2,8.6-3.1c0.1,1.4,0.2,2.4-1.4,3
			C436,110.2,433.7,111.5,431.1,112.8z"/>
		<path class="st1" d="M279.6,222.2c1.5-1.2,2.6-2,3.7-3c2.2-1.9,2.4-1.9,5.2,0c-1.7,1.4-3.2,3-5.1,3.9
			C282.6,223.6,281.2,222.6,279.6,222.2z"/>
		<path class="st1" d="M138.3,325.2c0,0.5,0.3,1.3,0,1.5c-1.3,1.1-2.7,2.1-4.2,3.2c-1-1.1-1.8-2-2.8-3.1c1.1-0.8,2.2-1.6,3.4-2.5
			C136.4,323,137,325.4,138.3,325.2C138.4,325.3,138.3,325.2,138.3,325.2z"/>
		<path class="st1" d="M250.7,256c4.6-3.6,3.2-3.7,7.5-0.3C255.1,259.1,253.7,259.2,250.7,256z"/>
		<path class="st1" d="M308.8,198.3c-2.1,1.6-4.2,3.4-6.5,4.8c-0.6,0.4-2-0.4-3.5-0.8c2.6-1.9,4.7-3.6,7-4.9
			c0.7-0.4,1.9,0.2,2.9,0.3C308.7,197.9,308.7,198.1,308.8,198.3z"/>
		<path class="st1" d="M255.5,259.2c4.4-3.5,3.2-3.8,7.4-0.5C260,262.4,259,262.5,255.5,259.2z"/>
		<path class="st1" d="M284,248.1c-1,0.8-2.1,1.5-3.1,2.3c-1.2-0.5-2.4-0.9-4.1-1.6c1.8-1.5,3.1-2.9,4.6-3.5
			c0.9-0.4,2.3,0.4,3.6,0.8C284.5,247.1,284.2,247.6,284,248.1z"/>
		<path class="st1" d="M291.1,208.1c2-1.5,4-3.2,6.2-4.5c0.6-0.3,1.9,0.5,3.4,0.9c-2.4,1.8-4.1,3.3-6.2,4.5
			c-0.8,0.5-2.2-0.1-3.3-0.2C291.1,208.5,291.1,208.3,291.1,208.1z"/>
		<path class="st1" d="M271.6,238.2c-4.3,4.1-4.3,4.1-7.7,1.8C266.9,236.1,268.7,235.6,271.6,238.2z"/>
		<path class="st1" d="M94.4,343.7c0.1-0.2,0.2-0.3,0.3-0.5c0.2,0,0.5-0.2,0.6-0.1c2.1,1,4.1,2.1,6.3,3.2c-0.2,0.3-0.4,0.8-0.6,0.8
			c-2.2,0.2-4.4,0.8-6.4,0.3C93.2,347,93,345,94.4,343.7z"/>
		<path class="st1" d="M257.6,263.1c-3.5,3.4-4.3,3.4-7.3,0.2C253.5,260,253.6,260,257.6,263.1z"/>
		<path class="st1" d="M281.6,224.4c-2.2,1.7-3.8,3.2-5.6,4.2c-0.8,0.4-2.2-0.5-3.8-1c2.2-1.6,3.7-3.1,5.5-4
			C278.6,223.2,280,224,281.6,224.4z"/>
		<path class="st1" d="M265.9,232.3c1.5-1.1,2.8-2.6,4.5-3.3c1-0.4,2.5,0.4,3.7,0.7c0,0.2,0,0.4,0,0.6c-1.5,1.1-2.9,2.6-4.5,3.3
			c-1,0.4-2.4-0.4-3.7-0.6C265.9,232.8,265.9,232.6,265.9,232.3z"/>
		<path class="st1" d="M289.7,243.2c-1.1,0.7-2.2,1.4-3.4,2.1c-0.8-0.5-1.6-1.1-2.6-1.9c1.6-1.3,2.9-2.8,4.5-3.5
			c0.8-0.4,2.3,0.4,3.7,0.8C290.8,241.9,290.2,242.6,289.7,243.2C289.6,243.3,289.7,243.2,289.7,243.2z"/>
		<path class="st1" d="M257.6,244.6c5.2-4.4,4-4,7.8-1.4C261.6,247.1,261.2,247.2,257.6,244.6z"/>
		<path class="st1" d="M292.4,210.6c-2.3,1.8-4,3.4-6,4.5c-0.7,0.4-2.1-0.3-3.8-0.6c2.5-1.9,4.3-3.4,6.3-4.6
			C289.6,209.5,290.9,210.2,292.4,210.6z"/>
		<path class="st1" d="M245.5,260.2c4.2-3.5,2.9-3.5,7.2-0.3C249.9,263.3,249.2,263.3,245.5,260.2z"/>
		<path class="st1" d="M272.5,257.4c-1,0.8-2.1,1.5-3.1,2.3c-1.4-0.4-2.7-0.8-4.1-1.1c0-0.3,0-0.6,0-0.8c1.5-1,2.9-2.3,4.6-2.8
			C270.5,254.8,271.6,256.5,272.5,257.4z"/>
		<path class="st1" d="M399.7,152.7c-3.1,2.6-5.9,5-8.8,7.3c-0.6,0.4-1.5,0.4-2.3,0.6c-0.1-0.3-0.2-0.6-0.3-0.8
			c3.3-2.6,6.7-5.2,10.1-7.7C398.5,152,399.1,152.4,399.7,152.7z"/>
		<path class="st1" d="M225.8,269.7c1.1-1.1,2-2.8,3.3-3.2c1-0.3,2.5,1,3.8,1.5c0,0.3,0.1,0.5,0.1,0.8c-1.6,0.8-3.2,1.6-4.9,2.5
			C227.4,270.7,226.6,270.2,225.8,269.7z"/>
		<path class="st1" d="M267.2,235.5c-5.5,4.6-4.5,4.1-7.6,1.9C262.6,233.7,264.3,233.2,267.2,235.5z"/>
		<path class="st1" d="M278.2,252.8c-0.8,0.5-1.6,1.1-2.3,1.6c-2.2,1-2.2,1-4.6-1.1c1.1-0.9,2.2-1.9,3.4-2.7
			c0.6-0.4,1.5-0.5,2.1-0.3C277.6,250.8,278.9,251.3,278.2,252.8z"/>
		<path class="st1" d="M460.9,139.2c0-2.1,1.8-2,2.9-1.8c2.3,0.3,4.4,1.1,6.6,2c-1.9,1.2-3.8,2.1-6.1,1.1
			C463.2,139.9,462,139.6,460.9,139.2C460.8,139.2,460.9,139.2,460.9,139.2z"/>
		<path class="st1" d="M446.1,106.8c-0.5-2.2-0.1-3.6,2.2-4.3c1.4-0.4,2.7-1.3,4.2-2.1C452.9,103.4,450.6,105.7,446.1,106.8z"/>
		<path class="st1" d="M284.3,216.2c-5.8,5.6-6.1,5.5-8.6,3.4c1.8-1.3,3.4-2.7,5.3-3.8C281.6,215.4,282.8,215.9,284.3,216.2z"/>
		<path class="st1" d="M252.3,267.4c-3.3,3.2-3.7,3.2-7.1-0.1C248.5,264.1,248.7,264.1,252.3,267.4z"/>
		<path class="st1" d="M276.5,222.6c-1.1,0.8-2.3,1.6-3.3,2.5c-1.6,1.5-3.1,1.5-4.8-0.2c1.6-1.2,3.1-2.6,4.9-3.5
			c0.8-0.4,2.2,0.3,3.3,0.4C276.6,222.1,276.5,222.3,276.5,222.6z"/>
		<path class="st1" d="M247.5,264c-3.3,3.3-3.9,3.3-7,0.1C244.3,260.7,243.4,261,247.5,264z"/>
		<path class="st1" d="M259.2,247.9c-3.4,3.8-4,3.9-7.3,1.2C255.4,245.4,256,245.3,259.2,247.9z"/>
		<path class="st1" d="M253.4,242c3.2-3.6,4.3-3.8,7.3-1.7C257.4,244,256.2,244.3,253.4,242z"/>
		<path class="st1" d="M144.3,379.4c-1.4,1.5-2.8,3.1-4.2,4.6c-0.5,0.3-1,0.7-1.6,0.9c-0.4,0.1-1,0-1.4-0.1c0.1-0.5-0.1-1.3,0.3-1.6
			c1.2-1.2,2.5-2.2,3.7-3.3c0.2-0.2,0.2-0.5,0.3-0.8c0.3-0.2,0.7-0.5,1-0.7c0.4-0.3,0.8-0.7,1.4-1.2
			C143.9,378.2,144.1,378.8,144.3,379.4z"/>
		<path class="st1" d="M440.8,120.6c-3.4,1.2-6.8,2.5-10.2,3.7c-1.9,0.7-3.8,1.4-5.8,2c-0.7,0.2-1.6,0-2.4,0c0-0.3-0.1-0.5-0.1-0.8
			c6.1-1.7,12.2-3.4,18.4-5.1C440.8,120.5,440.8,120.5,440.8,120.6z"/>
		<path class="st1" d="M253.5,252.5c-4,3.4-4,3.4-7.2,0.7C250.7,249.3,249.6,249.8,253.5,252.5z"/>
		<path class="st1" d="M266.8,262.1c-1,0.8-2.1,1.5-3.1,2.3c-1.3-0.5-2.5-1-3.8-1.6c0-0.2,0-0.5,0-0.7c1.4-0.9,2.7-2.3,4.2-2.6
			C264.7,259.4,265.9,261.2,266.8,262.1z"/>
		<path class="st1" d="M247.2,271.4c-3,2.9-3.1,2.9-6.7-0.3C243.6,267.9,243.2,267.7,247.2,271.4z"/>
		<path class="st1" d="M162.2,342.1c-0.1-0.5-0.2-1-0.2-1.5c0.6,0,1.3-0.3,1.7,0c1.4,1,2.6,2.1,3.9,3.2c0.8,0.6,1.6,1.3,2.7,2.2
			c-0.3,0.5-0.7,1.1-1.2,1.8C166.8,345.8,164.5,343.9,162.2,342.1z"/>
		<path class="st1" d="M269.8,227.2c-4.2,4.5-5.4,4.9-8.2,2.8c1.5-1.1,2.9-2.5,4.6-3.3C267,226.4,268.3,227,269.8,227.2z"/>
		<path class="st1" d="M477.6,134.6c-1.2-0.7-2.3-1.4-3.7-2.2c3.6-2.3,6.5,0.3,9.7,1C481.6,134.4,479.7,135.1,477.6,134.6
			C477.5,134.5,477.6,134.6,477.6,134.6z"/>
		<path class="st1" d="M261.1,266.8c-0.8,0.6-1.6,1.1-2.4,1.7c-1.3-0.4-2.6-0.8-3.9-1.3c0-0.3-0.1-0.6-0.1-0.8
			c1.4-0.8,2.7-2.1,4.2-2.3C259.6,263.9,261.5,264.8,261.1,266.8z"/>
		<path class="st1" d="M255.3,234.9c4.2-4.1,4.5-4.2,7.3-2C257.3,237.3,258.3,237.1,255.3,234.9z"/>
		<path class="st1" d="M247.5,246.4c3.6-3.7,4-3.8,7-1.3C251.2,248.7,250.5,248.8,247.5,246.4z"/>
		<path class="st1" d="M241,257.3c4-3.3,3.3-3.5,6.8-0.6C244.7,260,244.4,260.1,241,257.3z"/>
		<path class="st1" d="M162.2,342.1c2.3,1.9,4.6,3.8,6.8,5.6c0.7,0.8,1.4,1.7,2.1,2.5c-0.2,0.1-0.3,0.3-0.5,0.4c-1.4-1-2.7-2-4.1-3
			c-1.6-1.4-3.3-2.8-4.9-4.2c-0.4-0.5-0.7-0.9-1.5-1.9C161.2,341.8,161.7,341.9,162.2,342.1z"/>
		<path class="st1" d="M235.7,267.7c3.7-3.1,2.4-3,6.7,0.2C239.2,271.2,239.7,270.9,235.7,267.7z"/>
		<path class="st1" d="M222.4,267.3c-0.3-0.4-0.7-0.9-1-1.3c3.6-3.2,4-3.3,6.8-0.5c-1.8,0.6-2.4,3.3-4.9,2.2
			C222.9,267.6,222.7,267.5,222.4,267.3z"/>
		<path class="st1" d="M241.8,250.6c4.7-3.8,3.4-3.4,6.9-1C244.5,253.3,245.2,253.1,241.8,250.6z"/>
		<path class="st1" d="M249.2,239.5c3.7-3.8,4.1-3.9,6.9-1.8C253.1,241.3,251.8,241.7,249.2,239.5z"/>
		<path class="st1" d="M488.9,127.9c-0.2-2,1.5-1.7,2.4-1.6c2.3,0.3,4.6,1,6.9,1.7c-2.2,1.1-4.3,2.1-6.8,0.6
			C490.6,128.2,489.7,128.1,488.9,127.9C488.8,127.8,488.9,127.9,488.9,127.9z"/>
		<path class="st1" d="M242.6,260.9c-3.1,2.9-3.4,2.9-6.5,0.2C239,258,239.4,258,242.6,260.9z"/>
		<path class="st1" d="M230.4,272.5c0.9,0.6,1.7,1.2,2.6,1.8c0.7,1,0,1.6-0.7,2c-0.7,0.3-1.6,0.7-2.2,0.5c-1.1-0.5-2.1-1.4-3.6-2.4
			C228,273.6,229.2,273,230.4,272.5z"/>
		<path class="st1" d="M236.6,254.5c3.6-3.1,3.6-3.1,6.5-0.9C240.7,257,239.8,257.1,236.6,254.5z"/>
		<path class="st1" d="M217.1,299.4c-0.3-0.3-0.7-0.6-1-0.9c0.2-1.9,0.5-2.1,2.1-1c2,1.4,4,2.7,6.1,4.1c0.2,0.1,0.4,0.1,0.7,0.1
			c-0.1,0.7-0.1,1.4-0.2,1.9C222.3,302.2,219.7,300.8,217.1,299.4z"/>
		<path class="st1" d="M250.1,242.4c-5.2,4.1-3.8,3.4-6.9,1.6C246,240.6,247.2,240.3,250.1,242.4z"/>
		<path class="st1" d="M256.1,270.1c-3.6,2.9-3.6,2.9-6.2,0.5C252.7,267.3,253.1,267.2,256.1,270.1z"/>
		<path class="st1" d="M488.8,127.8c1.5,0.9,2.9,1.8,4.6,2.9c-0.1,0.5-0.4,1.4-0.7,2.6c-1.8-1.1-3.4-2-5-3c-0.3-0.2-0.5-1.2-0.3-1.6
			C487.7,128.3,488.4,128.1,488.8,127.8C488.9,127.9,488.8,127.8,488.8,127.8z"/>
		<path class="st1" d="M235,275.6c0.8,0.6,1.6,1.2,2.4,1.8c0.3,0.6,1.3,1.1,0.1,1.8c-0.8,0.5-1.3,1.8-2.6,0.8c-1-0.8-2-1.4-3.4-2.4
			C232.8,276.9,233.9,276.3,235,275.6z"/>
		<path class="st1" d="M460.8,139.2c1.5,0.9,3,1.8,4.7,2.8c-0.2,0.8-0.5,1.7-0.8,2.8c-1.7-1.1-3.4-2.1-4.9-3.2
			c-0.3-0.2-0.4-1.2-0.2-1.6C459.7,139.5,460.4,139.4,460.8,139.2C460.9,139.2,460.8,139.2,460.8,139.2z"/>
		<path class="st1" d="M426.6,117.2c-4.5,1.8-8.3,5.3-13.6,5.1c4.4-1.9,8.9-3.9,13.3-5.8C426.4,116.7,426.5,116.9,426.6,117.2z"/>
		<path class="st1" d="M217,263.9c0.8-2.9,3.8-3.6,6.4-1.7c-2.1,2.6-3.3,3-6.1,1.9C217.3,264.1,217.1,264,217,263.9z"/>
		<path class="st1" d="M477.5,134.5c1.6,1.4,1.6,1.4,0.4,3.9c-1.5-0.9-3-1.8-4.4-2.8c-0.5-0.4-0.6-1.5-1.1-2.7
			C474.6,133.6,476.1,134.1,477.5,134.5C477.6,134.6,477.5,134.5,477.5,134.5z"/>
		<path class="st1" d="M245.1,274.3c3.1-2.9,3.2-2.9,6-0.3C248.7,277.3,248.4,277.3,245.1,274.3z"/>
		<path class="st1" d="M237.6,264.7c-3,2.9-3.3,2.9-6.3,0.1C233.9,262,234.2,262,237.6,264.7z"/>
		<path class="st1" d="M400,150.6c0.4-0.3,0.7-0.7,1.1-1c3-2.4,6-4.7,9-7.1c0.1,0.1,0.3,0.2,0.4,0.4c-0.7,0.6-1.3,1.2-2,1.8
			c-0.6,0.6-1.9,0.7-1.3,2.1c0.1,0.1-0.5,0.5-0.9,0.8c-1.4,1.1-2.8,2.3-4.3,3.3c-0.5,0.3-1.2,0.3-1.8,0.4
			C400.1,151.1,400,150.8,400,150.6z"/>
		<path class="st1" d="M244.2,246.8c-3.8,3.3-3.8,3.3-6.5,1.4C239.8,245.1,241.4,244.7,244.2,246.8z"/>
		<path class="st1" d="M137.1,378.5c-0.5-1-1-2.1-1.5-3.1c-0.4-0.6-0.8-1.3-1.2-1.9c1.7-1,3.8-0.5,4.4,1
			C139.6,376.2,138.9,377.8,137.1,378.5z"/>
		<path class="st1" d="M237.9,257.9c-2.8,2.9-3.5,3-6.3,0.5C235.5,255.2,234.4,255.3,237.9,257.9z"/>
		<path class="st1" d="M232.2,252c3.4-3.2,3.4-3.2,6.3-1.1C235.9,254,235,254.2,232.2,252z"/>
		<path class="st1" d="M232.8,261.8c-3.1,2.6-3.1,2.6-6,0.2C229.6,259.1,229.8,258.9,232.8,261.8z"/>
		<path class="st1" d="M225.8,269.7c0.8,0.5,1.5,1.1,2.3,1.6c-0.2,1.7-1.9,2.8-3.2,2.2c-0.4-0.2-0.8-0.5-1.2-0.8
			c-0.4-0.3-0.9-0.7-1.8-1.4C223.5,270.6,224.7,270.1,225.8,269.7z"/>
		<path class="st1" d="M227,255.8c3.3-3,3.5-3,6.2-1C230.7,257.9,230.3,258,227,255.8z"/>
		<path class="st1" d="M150.9,347.8c-0.7,0.4-1.4,0.7-2.4,1.2c0.7,0.5,1.2,0.7,1.6,1c-0.1,0.2-0.3,0.4-0.4,0.6
			c-1.5-1.1-3.1-2.1-4.6-3.2c1.5,0.6,2.9,0.9,4.2-0.6c1-1.1,2.1-2.1,3.4-3.2c0.4,0.3,1.1,0.8,2.3,1.5c-1.8-0.1-2.9,0.1-2.8,1.8
			l-0.1,0c-0.1,0.1-0.3,0.3-0.4,0.4C151.4,347.6,151.1,347.7,150.9,347.8z"/>
		<path class="st1" d="M255.7,276.9C255.7,276.9,255.8,276.9,255.7,276.9c-0.3,1.7-0.7,3.4-1.1,5.2c-0.1-2.8-1.1-5.7,0.7-8.4
			c1.1-0.8,2.1-1.6,3.2-2.4c0.3,0.1,0.6,0.1,0.9,0.2c-0.8,0.9-1.6,1.8-2.4,2.6C256.6,275.1,256.2,276,255.7,276.9z"/>
		<path class="st1" d="M222.4,267.3c0.3,0.1,0.6,0.3,0.9,0.4c0,0.6,0.1,1.4-0.2,1.6c-0.7,0.5-1.7,1.1-2.4,0.9
			c-0.9-0.2-1.7-1.1-2.6-1.7C219.4,267.3,220.5,266,222.4,267.3z"/>
		<path class="st1" d="M222.4,259.4c3-2.7,3-2.7,5.7-0.6C225.7,261.6,225.5,261.6,222.4,259.4z"/>
		<path class="st1" d="M152.3,356.5c-1.2-0.9-2.4-1.8-3.5-2.7c0-0.4,0-0.7,0-1.1c1.9,0.9,3.7,1.6,5.3,2.7c1,0.6,1.6,1.7,2.1,2.9
			C154.9,357.6,153.6,357,152.3,356.5z"/>
		<path class="st1" d="M101.1,345.1c-1.7-0.9-3.4-1.7-5.4-2.7c1.8-1,3.4-1.6,4.9-0.5c0.7,0.5,0.8,1.8,1.2,2.8
			C101.6,344.8,101.3,345,101.1,345.1z"/>
		<path class="st1" d="M217,263.9c0.1,0.1,0.3,0.2,0.4,0.2c0.5,0.5,1.1,1,1.6,1.6c-2.3,2.3-2.4,2.3-5.6-0.4
			C214.8,264.8,215.9,264.4,217,263.9z"/>
		<path class="st1" d="M161.9,339.8c-0.6,0.2-1.1,0.6-1.4,0.4c-0.9-0.3-1.6-0.9-2.5-1.4c-0.8-0.5-2.2-0.8-1.3-2
			c0.3-0.4,1.9-0.2,2.6,0.2C160.2,337.6,160.8,338.7,161.9,339.8z"/>
		<path class="st1" d="M137.7,381.9c-2.4,2.1-3.7,2.3-5.6,0.8c-1-0.7-2-1.5-2.9-2.4c-0.3-0.3-0.4-1-0.5-1.5c0-0.1,0.7-0.5,0.7-0.4
			c0.3,0.3,0.6,0.7,0.8,1.1C131.6,382.3,133.2,382.9,137.7,381.9z"/>
		<path class="st1" d="M163.4,356.6c-0.1,0.1-0.1,0.3-0.2,0.4c-0.7,0.5-1.5,0.9-2.2,1.4c-1.4-2.4-1.4-2.4,1.4-4.7
			C162.7,354.7,163,355.6,163.4,356.6z"/>
		<path class="st1" d="M38.9,461.8c-0.7,0-1.5,0.1-2.5,0.1c0.2-0.6,0.4-1,0.4-1c-0.5-0.3-0.9-0.5-1.3-0.7c0.8-0.7,1.6-1.3,2.5-2
			c1.6-0.6,1.7,0.4,1.5,1.5C39.5,460.4,39.2,461.1,38.9,461.8C39,461.8,38.9,461.8,38.9,461.8z"/>
		<path class="st1" d="M212.8,296.2c-0.5-0.3-1-0.7-1.5-1c0.1-0.6,0.2-1.1,0.4-1.7c0.5,0.2,1,0.2,1.5,0.5c1,0.6,1.9,1.4,2.8,2.1
			c-0.1,0.2-0.1,0.5-0.2,0.7C214.8,296.6,213.8,296.4,212.8,296.2z"/>
		<path class="st1" d="M151.5,333c1.6-1.2,1.9-1,4.9,2.6C155.2,336.4,153.9,335.8,151.5,333z"/>
		<path class="st1" d="M244,280.4c0.8-0.6,1.6-1.1,2.4-1.7c0.8-0.6,1.6-1.2,2.5-1.8c0.1,0.1,0.1,0.2,0.2,0.2c-1.8,2-3.6,4-5.3,6
			c-0.2-0.1-0.5-0.3-0.7-0.4C243.4,282,243.7,281.2,244,280.4z"/>
		<path class="st1" d="M207.8,292.9c-0.3-0.4-0.7-0.7-1-1.1c0-0.6,0-1.2,0-1.9c0.6,0.2,1.2,0.3,1.6,0.6c0.9,0.6,1.7,1.3,2.6,2
			c-0.1,0.2-0.1,0.4-0.2,0.5C209.9,293.1,208.8,293,207.8,292.9z"/>
		<path class="st1" d="M407.4,119.8c0.3-1.4,0.5-2.3,0.8-3.4c1.4,0.6,2.7,1.2,4.4,1.9C410.6,118.9,409.2,119.3,407.4,119.8z"/>
		<path class="st1" d="M38.1,458.2c-0.8,0.7-1.6,1.3-2.5,2c-0.5-0.5-1-0.9-1.7-1.5c1-0.7,1.8-1.4,2.8-1.8c0.4-0.2,1.1,0.2,1.6,0.4
			C38.3,457.3,38.2,457.8,38.1,458.2z"/>
		<path class="st1" d="M203.1,289.5c-0.2-0.2-0.4-0.3-0.6-0.5c-0.2-0.6-0.4-1.3-0.6-2.1c1.9-0.5,2.7,1.4,4.1,2c0,0.2,0,0.4,0,0.6
			C205,289.6,204,289.5,203.1,289.5z"/>
		<path class="st1" d="M92.7,347.1c1.2,2.7,3.4,3.4,6.1,3.2c0,0.2,0,0.4,0,0.6c-1,0.2-2.2,0.9-2.8,0.6
			C94.6,350.5,92.8,349.4,92.7,347.1z"/>
		<path class="st1" d="M482.5,135.3c0.1,2.2-1.1,2.9-3,2.9C479.2,135.7,479.3,135.5,482.5,135.3z"/>
		<path class="st1" d="M146.4,328.2c-0.9-0.2-2-0.1-2.8-0.5c-0.6-0.3-0.8-1.2-1.3-1.8c0.5-0.2,1.1-0.7,1.3-0.6
			c1,0.6,1.9,1.4,2.8,2.1C146.5,327.6,146.4,327.9,146.4,328.2z"/>
		<path class="st1" d="M146.4,352.2c-0.4-0.4-0.9-0.8-1.3-1.3c-0.6-0.6-1.2-1.2-1.8-1.8c0.1-0.1,0.2-0.2,0.4-0.4
			c1.7,0.8,3.3,1.7,5,2.5c-0.1,0.3-0.1,0.5-0.2,0.8C147.8,352.1,147.1,352.2,146.4,352.2z"/>
		<path class="st1" d="M475.9,128.5c0.9-2.4,3.6-3.4,5.8-2.3C479.7,127,477.9,127.7,475.9,128.5z"/>
		<path class="st1" d="M145.5,342.7c-0.3,0.5-0.6,1-1,1.4c-0.4,0.5-0.8,0.9-1.3,1.6c0.8,0,1.1,0,1.6-0.1c-1,1.1-2.4,0.5-5.1-2.1
			c1,0.2,2,0.8,2.8,0.6c0.9-0.2,1.7-1.1,2.6-1.7C145.3,342.5,145.4,342.6,145.5,342.7z"/>
		<path class="st1" d="M138.5,323.4c-0.1-0.5-0.2-1.1-0.3-1.6c0.5,0.1,1.1,0.1,1.6,0.3c0.2,0,0.4,0.2,0.5,0.4
			c0.5,0.5,1.1,1.1,1.6,1.6c-0.7,0.1-1.5,0.2-2.2,0.4C139.2,324,138.8,323.7,138.5,323.4z"/>
		<path class="st1" d="M413.3,114.6c-0.2,1.1-0.4,1.9-0.6,3c-1.3-0.6-2.4-1-4-1.7C410.5,115.4,411.7,115,413.3,114.6z"/>
		<path class="st1" d="M446.2,140c-2.2-1-4.4-1.9-6.8-3C443,137,446.6,138.5,446.2,140z"/>
		<path class="st1" d="M465.8,144.4c-0.2-2.6,1.5-2.9,3.3-3C469,143.9,469,144,465.8,144.4z"/>
		<path class="st1" d="M198.6,286.3c-0.3-0.3-0.7-0.5-1-0.8c0-0.6,0.1-1.2,0.1-1.7c0.6,0.1,1.2,0.2,1.7,0.4c0.7,0.4,1.2,0.9,2.4,1.7
			C200.3,286.1,199.4,286.2,198.6,286.3z"/>
		<path class="st1" d="M497,130.1c0.1,2.4-1.3,2.7-3.2,2.8C493.7,130.5,494.9,129.9,497,130.1z"/>
		<path class="st1" d="M151.4,331.8c-2.3,0.5-3.1-1.5-4.6-2.2C148,328.3,149.1,328.8,151.4,331.8z"/>
		<path class="st1" d="M142.7,343.5c-0.7-0.5-1.3-0.8-2-1.4c0.6-0.8,1.2-1.5,1.8-2.2C144.4,340.9,144.4,340.9,142.7,343.5z"/>
		<path class="st1" d="M117.9,330.5c0.8,1,1.6,2,2.4,3c0.2,0.3,0.2,0.8,0.3,1.2c-0.4,0-0.8,0.2-1.1,0
			C117.9,334.2,117.4,332.6,117.9,330.5z"/>
		<path class="st1" d="M139.2,340.1c-0.1,0.6-0.4,1.5-0.7,2.7c-1.3-0.9-2.8-1.9-4.1-2.7C136,340.1,137.7,340.1,139.2,340.1z"/>
		<path class="st1" d="M197,282.6c-1.7,0.9-2.8,0.2-3.9-0.6c-0.2-0.1-0.2-0.9,0-1.1c0.2-0.2,0.8-0.4,1.1-0.2
			C195.1,281.2,195.9,281.8,197,282.6z"/>
		<path class="st1" d="M467.4,131.1c-2.3,1-4.2,1.8-6.1,2.6C461.8,132,464.5,130.8,467.4,131.1z"/>
		<path class="st1" d="M142.2,378.4c-0.3,0.2-0.7,0.5-1,0.7c-0.4,0.3-0.8,0.5-1.7,1.1c0.7-1.6,1.2-2.8,1.7-4c0,0,0,0.1,0,0.1
			c0.6-0.1,1.1-0.2,1.9-0.4C142.7,377,142.5,377.7,142.2,378.4z"/>
		<path class="st1" d="M129.8,331.5c0.5-0.6,1-1.2,1.6-1.9c-0.6-0.4-1-0.8-1.5-1.2c0.1-0.1,0.1-0.2,0.2-0.3c1,0.6,2,1.3,3.2,2.1
			c-1.3,0.7-2.3,1.2-3.3,1.8C129.9,331.8,129.9,331.6,129.8,331.5z"/>
		<path class="st1" d="M142.6,348.5c-1.5-0.9-3-1.9-4.5-2.8c0.1-0.2,0.2-0.4,0.4-0.6c1.6,0.8,3.1,1.6,4.7,2.4
			C143,347.8,142.8,348.1,142.6,348.5z"/>
		<path class="st1" d="M419.8,117.7c-2.2,1-4.4,1.9-6.6,2.9c-0.1-0.2-0.2-0.5-0.3-0.7c2.2-0.9,4.5-1.7,6.7-2.6
			C419.7,117.4,419.7,117.5,419.8,117.7z"/>
		<path class="st1" d="M137.8,343.6c-1.3,0.9-4.2-0.8-4.7-2.5C134.6,342,136.2,342.8,137.8,343.6z"/>
		<path class="st1" d="M132.5,339.9c-1.7,1.3-2.4-0.2-3.4-0.7c-0.5-0.2-0.9-0.9-0.9-1.5C129.6,338.4,130.9,339.1,132.5,339.9z"/>
		<path class="st1" d="M421.2,127.4c-1.7,1.7-2.6,0.3-3.7-0.3c0.1-0.2,0.1-0.4,0.2-0.7C418.8,126.8,420,127.1,421.2,127.4z"/>
		<path class="st1" d="M133.8,336.5c-0.2,0.8-0.4,1.6-0.7,2.6c-1.3-1-2.5-1.9-3.8-2.8C130.8,336.6,132.1,338.2,133.8,336.5z"/>
		<path class="st1" d="M138.5,323.4c0.4,0.3,0.8,0.6,1.2,0.9c0.1,0.3,0.2,0.6,0.3,0.9c-0.6,0-1.1,0-1.7,0c0,0,0.1,0,0.1,0
			c-0.6-0.6-1.3-1.2-1.9-1.8c0-0.2,0.1-0.4,0.1-0.5C137.2,323.1,137.8,323.2,138.5,323.4z"/>
		<path class="st1" d="M122.7,334.1c1.9,0.9,3.1,1.4,4.4,2.1c-1.1,2-1.9,0.2-2.7-0.1C123.8,335.8,123.4,334.9,122.7,334.1z"/>
		<path class="st1" d="M411.8,141.2c0.3-0.3,0.7-0.7,1-1c1.6-1.3,3.3-2.6,5.2-3.6c-2,1.6-3.9,3.2-5.9,4.9
			C412.1,141.4,412,141.3,411.8,141.2z"/>
		<path class="st1" d="M228.7,351.7c-0.2,0.3-0.5,0.5-0.7,0.8c0.2-0.5,0.4-1,0.5-1.4C228.6,351.3,228.7,351.5,228.7,351.7z"/>
		<path class="st1" d="M150.9,347.8c0.2-0.1,0.5-0.3,0.7-0.4C151.4,347.6,151.1,347.7,150.9,347.8z"/>
		<path class="st1" d="M228.6,351c-0.1-0.3-0.2-0.5-0.3-0.8C228.4,350.5,228.5,350.8,228.6,351z"/>
		<path class="st1" d="M152,347L152,347L152,347z"/>
		<path class="st1" d="M38.9,461.8C38.9,461.8,39,461.8,38.9,461.8C39,461.8,38.9,461.8,38.9,461.8z"/>
		<path class="st1" d="M227.3,356c0.1,0.2,0.2,0.4,0.3,0.6c-0.2,0-0.4-0.1-0.6-0.1C227.1,356.3,227.2,356.1,227.3,356z"/>
		<path class="st1" d="M511.4,419.8c0.8,0.8,1.4,1.1,1.5,1.6c0.1,0.5-0.5,1-0.7,1.5c-0.4-0.3-1.1-0.6-1.3-1
			C510.8,421.4,511.2,420.8,511.4,419.8z"/>
		<path class="st1" d="M142.9,443.9c-1.4-5.6,2.1-11.3,8-12.8c5.4-1.4,10.6,1.5,11.9,6.5c1.4,5.5-2.4,11.2-8.5,12.7
			C149.5,451.6,143.3,448.2,142.9,443.9z M146.2,434.6c-0.5,0.5-0.9,0.9-1.2,1.3c-3,4.1-2.4,10.9,3.3,13.1c4.7,1.8,8.3,0.1,11.6-2.9
			c2.7-2.5,3.1-7.2,1.3-10.6c-1.3-2.5-5.1-4.2-8.4-3.7c5.5,3.4,6.8,5.9,5.1,9.5c-1.8,3.9-5.6,4.9-8.7,3.7
			C146.3,443.7,144.5,441.5,146.2,434.6z M152,441.3c2.5-0.7,4.4-3.4,3.8-5.5c-0.7-2.4-3.2-3.8-5.6-3.2c-2.5,0.7-4.6,3.5-4,5.4
			C147.2,440.9,149.9,442.3,152,441.3z"/>
		<path class="st1" d="M108.1,427.9c1.2-2.9,6.6-4.9,10.1-4.1c3.9,0.9,6.6,4,6.8,7.9c0.4,7.1-6.6,13.1-13.5,11.5
			c-3.2-0.8-5.3-2.8-6-6.1c-0.6-3.1-0.5-6,2.2-8.3c-1,1.7-0.8,3.5,0.4,4.9c1.2,1.4,3,1.7,4.8,0.9c1.9-0.8,3.6-3.2,3.3-4.9
			c-0.4-1.8-1.2-3.8-3.3-3.7C111.2,426.2,109.7,427.3,108.1,427.9z M113.1,425c5.6,2.7,6.9,4.1,6.7,7.1c-0.2,2.8-2.8,5.7-6.1,6.3
			c-4.6,0.9-5.8-2.8-7.4-6.1c-1.5,4.7,1.5,10.2,6.6,10.4c4.4,0.1,9.2-2.7,10.6-7.3c1-3.1,0.7-6.1-1.4-8.5
			C119.9,424.4,116.8,423.8,113.1,425z"/>
		<path class="st1" d="M188.4,399.7c2.1,0.8,4.4,1.1,6.2,2.4c4,2.8,4.3,7.7,1.1,11.9c-4.4,5.7-13.3,5.5-17.1-0.4
			c-1.7-2.6-1.3-6.7,0.9-8.9c-0.2,0.5-0.3,1-0.5,1.5c-1.8,4.4-0.1,8.4,3.8,10c4.7,1.9,8.5,1.2,12.2-2.7c2-2.1,2.6-4.8,1.6-7.5
			c-0.9-2.4-2.4-4.4-5.4-4.8c1.7,2.7,3.5,5.3,1.4,8.4c-1.8,2.6-4.6,3.6-7.6,2.8c-4.1-1.1-4.7-4.4-3.8-8.2c-0.9,0.3-1.3,0.5-1.8,0.6
			c1-3.2,5.8-5.9,8.8-4.9c-1,0.1-2,0.1-2.9,0.4c-1.6,0.7-3.3,1.5-3.4,3.8c0,2.1,1.3,3.3,3.1,3.9c1.4,0.5,4.3-0.4,5.3-1.7
			c1.2-1.6,1.2-3.2,0-4.8C189.9,400.8,189.1,400.3,188.4,399.7z"/>
		<path class="st1" d="M140.1,403.6c-2.3-5,5-14,10.5-12.2c1.4,0.5,3,0.4,4.3,1c5.5,2.5,6.6,8.3,2.6,13.4c-3.3,4.1-9.5,5.3-13.9,2.4
			c-1.5-1-2.6-2.7-3.9-4.1C139.8,403.9,139.9,403.8,140.1,403.6z M152.1,392.4c2.7,2.6,4.3,5.3,2.4,8.5c-1.3,2.2-3.6,3.6-6.4,3.4
			c-5-0.5-5.9-3.9-5.3-8.5c-4,4.7-2.8,10.1,2.3,12.2c4.1,1.7,7.5,0.5,10.8-2.1c2.7-2.1,3.4-4.9,2.9-8
			C158.5,395.2,155.7,393,152.1,392.4z M148.9,399.7c2.7-0.8,4.5-3.1,3.9-5c-0.7-2.3-3-3.4-5.6-2.7c-2.6,0.7-4.3,3-3.7,4.8
			C144.3,399.3,146.4,400.5,148.9,399.7z"/>
		<path class="st1" d="M198.8,241.1c-1.3,0.8-2.4,1.4-3.5,2c0-0.1-0.1-0.1-0.1-0.2c0.4-0.3,0.7-0.8,1.2-1c1.5-0.8,2.3-1.6,1.8-3.6
			c-0.2-0.7,1-2,1.8-2.6c1.2-0.8,2.7,0,3,1c0.7,2.4,2.3,2.1,4.1,2c0.3,0,0.6,0.1,1,0.4c-1.2,0.1-2.3,0.2-3.8,0.3
			c0.6,1.9-0.1,4.2,2.2,5.3c0.1,0,0.2,0.1,0.2,0.1c-0.1,1,0.1,2.1-0.3,2.9c-0.7,1.4-3.8,2.2-5.1,1.4c-0.7-0.5-1.7-2-1.5-2.3
			C201,244.6,199.2,243.2,198.8,241.1z"/>
		<path class="st1" d="M108.1,427.9c1.6-0.6,3.1-1.8,4.7-1.8c2.1-0.1,2.9,1.9,3.3,3.7c0.4,1.8-1.4,4.2-3.3,4.9
			c-1.8,0.8-3.6,0.5-4.8-0.9c-1.2-1.4-1.5-3.2-0.4-4.9C107.8,428.6,107.9,428.2,108.1,427.9z"/>
		<path class="st1" d="M188.4,399.7c0.7,0.6,1.5,1.1,2,1.8c1.2,1.5,1.2,3.2,0,4.8c-1,1.3-3.9,2.2-5.3,1.7c-1.9-0.7-3.1-1.8-3.1-3.9
			c0-2.2,1.7-3,3.4-3.8c0.9-0.4,1.9-0.3,2.9-0.4C188.2,399.8,188.3,399.7,188.4,399.7z"/>
		<path class="st1" d="M177.7,454.7c-3.8,2.8-7.4,5.8-11.3,8.3c-8,5.1-16.6,9.1-25.8,11.9c-12.6,3.8-25.4,5.6-38.5,4.8
			c-0.6,0-1.1-0.4-1.6-0.6c7.3-0.2,14.6,0,21.8-0.8c9.2-0.9,18-3.5,26.6-7c9.9-4,18.9-9.5,27.4-15.9
			C176.8,455.1,177.3,455,177.7,454.7z"/>
		<path class="st1" d="M214.1,241.4c2.5,2.1,2.9,4.6,1.5,7.9c-2.5,6.1-14,11.5-21.8,6.1c-2-1.4-2.5-3.2-2.5-5.8
			c2.4,6.3,6.5,8.2,12.8,6.6c3.1-0.8,6-2,8.5-4.1C216.1,248.9,216.7,245.4,214.1,241.4z"/>
		<path class="st1" d="M166.7,354.6c0.7,3.8-1.8,7-5.9,7.9c-3.3,0.8-6.3-0.5-7-3C158.2,363.5,165.6,360.7,166.7,354.6z"/>
		<path class="st1" d="M227,367.3c-0.3,2.6-0.4,5.3-1,7.9c-1.8,8.3-3.7,16.5-5.6,24.8c-0.1,0.3-0.2,0.5-0.4,0.7c0-0.5-0.1-1,0.1-1.4
			c3.3-9.9,4.7-20.1,6.4-30.3C226.5,368.4,226.8,367.8,227,367.3z"/>
		<path class="st1" d="M198.7,248.6c3.3,2.6,8.4,0.9,9.5-2.6c0.2,0.1,0.4,0.2,0.6,0.2c-0.4,1-0.6,2.1-1.2,2.9
			c-1.4,1.9-4.4,2.8-6.6,2.1C199.8,250.8,198.6,250.3,198.7,248.6z"/>
		<path class="st1" d="M92.7,478.5c-4.3-0.9-8.6-1.7-12.9-2.6C84.1,476.8,88.4,477.6,92.7,478.5z"/>
		<path class="st1" d="M142.2,378.4c0.2-0.7,0.5-1.5,0.8-2.5c-0.8,0.1-1.3,0.3-1.9,0.4c0.6-0.3,1.4-1,1.8-0.8c1.5,0.7,2,2.6,1.3,3.9
			c-0.2-0.6-0.3-1.2-0.6-2.1C143,377.8,142.6,378.1,142.2,378.4z"/>
		<path class="st1" d="M135.5,366.9c2.1-2.4,4.2-4.9,6.4-7.3c-0.3,0.6-0.6,1.3-1,1.9C139.1,363.3,137.3,365.1,135.5,366.9z"/>
		<path class="st1" d="M127.6,325.7c-0.2,0-0.5,0-0.6-0.1c-1.9-1.8-4-1.8-6.3-0.7C122.6,322.6,125.1,322.9,127.6,325.7z"/>
		<path class="st1" d="M141.7,494.6c-5.7,0.7-12,1.6-18.4,2.2c-1,0.1-2.5-1-3.3-1.9c-2-2.5-3.7-5.1-5.4-7.8c-0.7-1-0.6-2.1,0.8-2.5
			c1.7-0.5,3.5-1,5.3-1.3c4.7-0.7,9.5-1.1,14.2-1.9c2.4-0.4,4,0.7,5.2,2.4c1.4,2,2.7,4.1,4,6.2C145.5,492.6,145,493.7,141.7,494.6z
			 M129.4,488.6c-0.5,0.3-1,0.7-1.5,1c0.5,0.3,1,0.6,1.5,0.8c0.4,0.1,0.8,0.2,1.2,0.2c0.9-0.1,1.9-0.3,2.8-0.4
			c-0.7-0.4-1.5-0.9-2.2-1.3c2.4-0.7,3.7,0.9,4.2,2.7c0.3,1-0.5,2.3-0.8,3.4c0.3,0,1.2,0,2-0.2c1-0.2,2.6-0.3,2.7-0.8
			c0.5-2.4,2.2-1.4,3.9-1.6c-1.7-2.7-3.3-5.2-4.9-7.7c-2.3,1.7-3.5,1.5-4.9-0.7c-2.6,0.2-5.2,0.5-7.7,0.7c3-0.5,6-1.1,9-1.6
			c0-0.2-0.1-0.4-0.1-0.7c-5.9,0.8-11.9,1.7-17.8,2.5c0,0.2,0,0.4,0,0.6c0.4,0,0.9,0,1.3,0c2.5-0.2,5.1-0.5,7.6-0.7
			c-2.4,0.4-4.8,0.8-7,1.2c1,2.8-1.6,1.9-2.6,2.7c1.6,2.3,3.1,4.6,4.6,6.7c1.8-0.4,3.3-0.7,4.9-1c-0.1-0.7-0.2-1.3-0.3-2.1
			c-0.7,0.3-1.3,0.6-2.6,1.1c0.4-1.4,0.5-2.7,1.1-3.3C125.4,488.5,127.3,488,129.4,488.6z M131.9,493.8c0-0.4,0-0.7,0-1.1
			c-1.6,0-3.2,0-4.9,0c0,0.3,0,0.6,0,0.9C128.7,493.7,130.3,493.7,131.9,493.8z"/>
		<path class="st1" d="M207.4,352.4c-2.8,2.5-3.9,2.3-5.2-1C205.7,349.3,206.3,349.4,207.4,352.4z"/>
		<path class="st1" d="M250.3,283.7c-1.1-0.6-1.9-1.1-2.7-1.5c0.6-0.7,1-1.8,1.7-2c0.7-0.2,1.7,0.6,2.5,0.9
			C251.4,281.8,251,282.6,250.3,283.7z"/>
		<path class="st1" d="M207.4,352.4c-1.1-2.9-1.7-3-5.2-1c0.9-1.8,2.3-2.4,4.2-1.7C207.7,350.2,208.3,351,207.4,352.4z"/>
		<path class="st1" d="M234.5,342.8c3-2.5,5.7-5.5,9.1-7.3c7.1-3.7,14.5-6.9,21.9-10.1c6.5-2.8,12.9-5.7,18.6-10
			c0.6-0.5,1.3-0.7,2-1.1c-4.7,4.3-10.3,7.2-16.1,9.7c-7.2,3.1-14.6,5.9-21.7,9.3c-4.2,2-7.8,5.1-11.7,7.7
			C235.9,341.7,235.2,342.3,234.5,342.8z"/>
		<path class="st1" d="M259.5,271.6c-0.3-0.1-0.6-0.1-0.9-0.2c2-1.8,3.9-3.7,5.9-5.5c0.1,0.2,0.3,0.3,0.4,0.5
			C263,268.1,261.3,269.9,259.5,271.6z"/>
		<path class="st1" d="M223.2,277.3c1,0.6,1.7,1,2.3,1.4c-0.4,0.6-0.7,1.6-1.3,1.8c-0.5,0.1-1.5-0.4-1.9-1
			C222.1,279.3,222.7,278.4,223.2,277.3z"/>
		<path class="st1" d="M178.2,339c1.7-1.4,3.4-2.9,5.1-4.3c-0.4,0.5-0.9,1-1.2,1.4c0.5,0.6,1.1,1.2,1.2,1.9c0.1,0.3-0.7,1.3-1.1,1.3
			c-0.9,0-1.8-0.5-3.1-0.8C179.1,338.4,178.7,338.7,178.2,339z"/>
		<path class="st1" d="M217.9,275.1c0.2-0.1,0.4-0.3,0.6-0.2c0.8,0.2,1.6,0.4,2.4,0.7c-0.2,0.6-0.2,1.4-0.5,1.6
			c-0.6,0.3-1.8,0.5-2,0.2C217.9,276.7,218,275.8,217.9,275.1C217.9,275,217.9,275.1,217.9,275.1z"/>
		<path class="st1" d="M228.1,352.5c-0.1,0.3-0.1,0.7-0.2,1C227.9,353.1,228,352.8,228.1,352.5z"/>
		<path class="st1" d="M227.9,353.4c-0.1,0.3-0.1,0.7-0.2,1C227.8,354.1,227.8,353.7,227.9,353.4z"/>
		<path class="st1" d="M227.7,354.3c-0.1,0.3-0.1,0.7-0.2,1C227.6,355,227.7,354.7,227.7,354.3z"/>
		<path class="st1" d="M227.5,355.3c-0.1,0.3-0.2,0.5-0.3,0.8C227.4,355.8,227.5,355.5,227.5,355.3z"/>
		<path class="st1" d="M146.2,434.6c-1.6,6.9,0.1,9.1,3,10.3c3.1,1.3,6.9,0.2,8.7-3.7c1.7-3.6,0.4-6.1-5.1-9.5
			c3.3-0.5,7.1,1.1,8.4,3.7c1.8,3.5,1.4,8.2-1.3,10.6c-3.3,3.1-6.9,4.7-11.6,2.9c-5.8-2.2-6.3-9-3.3-13.1
			C145.3,435.4,145.7,435.1,146.2,434.6z"/>
		<path class="st1" d="M152,441.3c-2.2,1-4.8-0.4-5.8-3.3c-0.6-1.9,1.5-4.8,4-5.4c2.4-0.6,4.9,0.8,5.6,3.2
			C156.4,437.9,154.6,440.6,152,441.3z"/>
		<path class="st1" d="M113.1,425c3.7-1.2,6.8-0.7,9.1,1.9c2.1,2.4,2.3,5.4,1.4,8.5c-1.5,4.6-6.2,7.5-10.6,7.3
			c-5.1-0.1-8.1-5.6-6.6-10.4c1.6,3.3,2.9,7,7.4,6.1c3.3-0.7,5.8-3.5,6.1-6.3C120.1,429.1,118.7,427.7,113.1,425z"/>
		<path class="st1" d="M179.4,404.7c0.4-0.2,0.9-0.3,1.8-0.6c-0.9,3.8-0.2,7.1,3.8,8.2c3,0.8,5.8-0.1,7.6-2.8
			c2.1-3.1,0.3-5.7-1.4-8.4c3,0.5,4.6,2.4,5.4,4.8c1,2.7,0.4,5.4-1.6,7.5c-3.7,3.8-7.5,4.6-12.2,2.7c-3.9-1.6-5.6-5.6-3.8-10
			C179.1,405.6,179.3,405.1,179.4,404.7C179.4,404.6,179.4,404.7,179.4,404.7z"/>
		<path class="st1" d="M152.1,392.4c3.5,0.6,6.3,2.8,6.7,5.5c0.5,3.1-0.2,5.9-2.9,8c-3.3,2.5-6.7,3.8-10.8,2.1
			c-5-2.1-6.3-7.5-2.3-12.2c-0.6,4.6,0.3,8.1,5.3,8.5c2.8,0.3,5.1-1.2,6.4-3.4C156.5,397.7,154.8,395,152.1,392.4z"/>
		<path class="st1" d="M148.9,399.7c-2.5,0.7-4.7-0.4-5.4-2.8c-0.6-1.9,1.1-4.1,3.7-4.8c2.6-0.7,4.8,0.3,5.6,2.7
			C153.4,396.6,151.6,398.9,148.9,399.7z"/>
		<path class="st1" d="M125.9,484.6c2.6-0.2,5.1-0.5,7.7-0.7c1.4,2.1,2.5,2.3,4.9,0.7c1.6,2.5,3.2,5,4.9,7.7
			c-1.7,0.2-3.5-0.8-3.9,1.6c-0.1,0.4-1.7,0.6-2.7,0.8c-0.9,0.2-1.8,0.2-2,0.2c0.3-1.1,1.1-2.4,0.8-3.4c-0.6-1.8-1.8-3.4-4.2-2.7
			c-0.6-0.1-1.2-0.1-1.8-0.2c-2.1-0.6-4,0-5.5,1.4c-0.6,0.6-0.7,1.9-1.1,3.3c1.3-0.6,1.9-0.8,2.6-1.1c0.1,0.8,0.2,1.4,0.3,2.1
			c-1.5,0.3-3,0.6-4.9,1c-1.4-2.1-3-4.4-4.6-6.7c1.1-0.8,3.7,0.2,2.6-2.7C121.2,485.5,123.6,485.1,125.9,484.6
			C126,484.7,125.9,484.6,125.9,484.6z M138.2,490.9c-0.2-3.5-4.8-5.5-10.7-5c-4.1,0.4-6.5,2.2-6.2,4.5
			C125.5,486.5,133.3,486.6,138.2,490.9z"/>
		<path class="st1" d="M126,484.7c-2.5,0.3-5.1,0.5-7.6,0.7c-0.4,0-0.9,0-1.3,0c0-0.2,0-0.4,0-0.6c5.9-0.8,11.9-1.7,17.8-2.5
			c0,0.2,0.1,0.4,0.1,0.7C131.9,483.5,128.9,484.1,126,484.7C125.9,484.6,126,484.7,126,484.7z"/>
		<path class="st1" d="M129.4,488.6c0.6,0.1,1.2,0.1,1.8,0.2c0.7,0.4,1.5,0.9,2.2,1.3c-0.9,0.1-1.9,0.3-2.8,0.4
			c-0.4,0-0.9,0-1.2-0.2c-0.5-0.2-1-0.5-1.5-0.8C128.4,489.2,128.9,488.9,129.4,488.6z"/>
		<path class="st1" d="M131.9,493.8c-1.6-0.1-3.2-0.1-4.9-0.2c0-0.3,0-0.6,0-0.9c1.6,0,3.2,0,4.9,0
			C131.9,493.1,131.9,493.4,131.9,493.8z"/>
		<path class="st1" d="M138.2,490.9c-4.8-4.3-12.7-4.4-16.8-0.4c-0.4-2.3,2.1-4.1,6.2-4.5C133.4,485.4,137.9,487.4,138.2,490.9z"/>
	</g>
</g>
</svg>
