<?xml version="1.0" encoding="utf-8"?>
<!-- Generator: Adobe Illustrator 21.0.2, SVG Export Plug-In . SVG Version: 6.00 Build 0)  -->
<svg version="1.1" id="Layer_1" xmlns="http://www.w3.org/2000/svg" xmlns:xlink="http://www.w3.org/1999/xlink" x="0px" y="0px"
	 viewBox="0 0 198.9 172" style="enable-background:new 0 0 198.9 172;" xml:space="preserve">
<style type="text/css">
	.st0{fill:#EF4A23;}
	.st1{fill:#EF4A24;}
	.st2{fill:#FFFFFF;}
	.st3{fill:none;stroke:#EF4A24;stroke-width:6;stroke-miterlimit:10;}
</style>
<g>
	<circle class="st3" cx="99.5" cy="86" r="39.9"/>
	<g>
		<path class="st1" d="M116.3,63.9H82.6c-2.9,0-5.3,2.4-5.3,5.3v33.7c0,2.9,2.4,5.3,5.3,5.3h33.7c2.9,0,5.3-2.4,5.3-5.3V69.2
			C121.6,66.3,119.2,63.9,116.3,63.9z M112.1,79.7H110c-2.3,0-3.2,0.5-3.2,2.1V85h5.3l-1.1,5.3h-4.2V106h-5.3V90.2h-4.2V85h4.2v-3.2
			c0-4.2,2.1-7.4,6.3-7.4c3.1,0,4.2,1.1,4.2,1.1V79.7z"/>
	</g>
</g>
</svg>
