<svg width="1065" height="814" viewBox="0 0 1065 814" xmlns="http://www.w3.org/2000/svg" xmlns:xlink="http://www.w3.org/1999/xlink"><svg viewBox="-1 -1 362 362" width="362" height="362" id="JSD_Logo" x="502" xmlns="http://www.w3.org/2000/svg"><path d="M27 211.1v-41.2h13.2c3.2 0 6.1.5 8.5 1.6 2.4 1.1 4.4 2.6 6 4.4 1.6 1.9 2.8 4 3.6 6.5.8 2.5 1.2 5.2 1.2 8 0 3.1-.5 6-1.4 8.5-.9 2.5-2.2 4.7-3.9 6.5-1.7 1.8-3.7 3.2-6.1 4.2-2.4 1-5.1 1.5-8 1.5H27zm31.4-20.7c0-2.8-.4-5.4-1.2-7.8-.8-2.4-2-4.4-3.5-6.1-1.5-1.7-3.4-3.1-5.7-4-2.3-1-4.8-1.5-7.7-1.5H28.2v38.9h12.1c3 0 5.6-.5 7.9-1.5 2.3-1 4.2-2.3 5.7-4.1s2.7-3.8 3.5-6.2c.6-2.3 1-4.9 1-7.7zm26.1 21c-2.9 0-5.5-.6-7.8-1.8-2.3-1.2-4.4-2.8-6.1-4.7-1.7-1.9-3-4.2-3.9-6.7-.9-2.5-1.4-5.1-1.4-7.7 0-2.7.5-5.4 1.5-7.9s2.3-4.7 4.1-6.7c1.7-1.9 3.8-3.5 6.1-4.6 2.3-1.1 4.9-1.7 7.6-1.7 2.8 0 5.4.6 7.8 1.8 2.4 1.2 4.4 2.8 6.1 4.8 1.7 2 3 4.2 3.9 6.7.9 2.5 1.4 5 1.4 7.6 0 2.8-.5 5.4-1.5 7.9s-2.3 4.7-4.1 6.6c-1.7 1.9-3.7 3.4-6.1 4.6-2.3 1.2-4.9 1.8-7.6 1.8zm-18-20.9c0 2.6.5 5 1.4 7.4.9 2.4 2.2 4.5 3.7 6.3 1.6 1.8 3.5 3.3 5.7 4.4 2.2 1.1 4.6 1.6 7.3 1.6s5.1-.6 7.3-1.7 4.1-2.6 5.7-4.5c1.6-1.9 2.8-4 3.7-6.3.9-2.4 1.3-4.8 1.3-7.2 0-2.6-.5-5-1.4-7.4-.9-2.4-2.2-4.5-3.8-6.3-1.6-1.8-3.5-3.3-5.7-4.4-2.2-1.1-4.6-1.6-7.1-1.6-2.7 0-5.1.6-7.3 1.7s-4.1 2.6-5.7 4.5c-1.6 1.9-2.8 4-3.7 6.3-1 2.4-1.4 4.7-1.4 7.2zm84.3 20.6v-38.6L132.6 203h-.9l-18.3-30.5v38.6h-1.2v-41.2h.9l19 31.7 19-31.7h.9v41.2h-1.2zm36.5-35.8c-1.6-1.8-3.3-3-5.1-3.7-1.8-.7-3.9-1-6.3-1s-4.4.2-6.1.7c-1.7.5-3.1 1.1-4.1 2-1.1.9-1.9 1.9-2.4 3.1-.5 1.2-.8 2.6-.8 4.1 0 1.5.3 2.7.8 3.7s1.3 1.8 2.3 2.5c1 .7 2.4 1.3 4 1.7 1.6.5 3.6 1 5.9 1.4 2.3.5 4.3 1 6.2 1.5 1.9.5 3.4 1.2 4.7 2 1.3.8 2.3 1.8 3 3s1 2.7 1 4.5c0 3.4-1.3 5.9-3.9 7.7-2.6 1.8-6.1 2.7-10.6 2.7-3.3 0-6.3-.5-8.8-1.5-2.6-1-5-2.6-7.2-4.8l.9-.8c2.1 2.2 4.4 3.7 6.8 4.7 2.5 1 5.2 1.5 8.4 1.5 4.1 0 7.3-.8 9.7-2.3 2.4-1.5 3.6-3.8 3.6-6.9 0-1.5-.3-2.9-.8-3.9s-1.4-2-2.5-2.8c-1.1-.8-2.6-1.4-4.3-2-1.7-.5-3.8-1-6.1-1.5-2.3-.4-4.3-.9-6.1-1.4-1.8-.5-3.2-1.1-4.5-1.9-1.2-.8-2.1-1.7-2.8-2.8-.6-1.1-.9-2.6-.9-4.3 0-1.8.3-3.4 1-4.7.7-1.4 1.6-2.5 2.9-3.5 1.3-.9 2.8-1.7 4.5-2.1 1.8-.5 3.7-.7 5.9-.7 2.6 0 4.9.4 6.9 1.1 2 .8 3.7 2 5.4 3.8l-.6.9zm38.8-4.2h-15.8v40h-1.2v-40h-15.8v-1.2H226v1.2zm33.8 38.8v1.2h-27v-41.2h26.5v1.2h-25.3v18.4h22.2v1.2h-22.2V210h25.8zm8.8 1.2v-41.2h16.8c1.7 0 3.2.4 4.6 1.1 1.4.7 2.7 1.7 3.7 2.8 1 1.2 1.8 2.5 2.4 4 .6 1.5.9 3 .9 4.6 0 1.6-.3 3.1-.8 4.6-.5 1.5-1.2 2.8-2.1 3.9-.9 1.1-2 2.1-3.3 2.8-1.3.7-2.7 1.1-4.3 1.2l10.4 16.2h-1.4l-10.4-16.2h-15.3v16.2h-1.2zm1.1-17.4h16c1.5 0 2.9-.3 4.2-1 1.2-.7 2.3-1.5 3.2-2.6.9-1.1 1.5-2.3 2-3.6.5-1.4.7-2.7.7-4.2s-.3-2.9-.8-4.2c-.5-1.4-1.3-2.6-2.2-3.6-1-1-2.1-1.9-3.3-2.5-1.3-.6-2.6-1-4.1-1h-15.6v22.7zm59.9-18.4c-1.6-1.8-3.3-3-5.1-3.7-1.8-.7-3.9-1-6.3-1s-4.4.2-6.1.7c-1.7.5-3.1 1.1-4.1 2-1.1.9-1.9 1.9-2.4 3.1-.5 1.2-.8 2.6-.8 4.1 0 1.5.3 2.7.8 3.7s1.3 1.8 2.3 2.5c1 .7 2.4 1.3 4 1.7 1.6.5 3.6 1 5.9 1.4 2.3.5 4.3 1 6.2 1.5 1.9.5 3.4 1.2 4.7 2 1.3.8 2.3 1.8 3 3 .7 1.2 1 2.7 1 4.5 0 3.4-1.3 5.9-3.9 7.7-2.6 1.8-6.1 2.7-10.6 2.7-3.3 0-6.3-.5-8.8-1.5-2.6-1-5-2.6-7.2-4.8l.9-.8c2.1 2.2 4.4 3.7 6.8 4.7s5.2 1.5 8.4 1.5c4.1 0 7.3-.8 9.7-2.3 2.4-1.5 3.6-3.8 3.6-6.9 0-1.5-.3-2.9-.8-3.9-.5-1.1-1.4-2-2.5-2.8-1.1-.8-2.6-1.4-4.3-2-1.7-.5-3.8-1-6.1-1.5-2.3-.4-4.3-.9-6.1-1.4-1.8-.5-3.2-1.1-4.5-1.9-1.2-.8-2.1-1.7-2.8-2.8-.6-1.1-.9-2.6-.9-4.3 0-1.8.3-3.4 1-4.7.7-1.4 1.6-2.5 2.9-3.5 1.3-.9 2.8-1.7 4.5-2.1 1.8-.5 3.7-.7 5.9-.7 2.6 0 4.9.4 6.9 1.1 2 .8 3.7 2 5.4 3.8l-.6.9zM34 157.6c.2.2.5.3 1 .5.4.1.9.2 1.5.2s1.1-.1 1.4-.3c.4-.2.6-.5.8-.9.2-.4.3-.9.4-1.6.1-.6.1-1.3.1-2.2v-7h2.2v7c0 1-.1 2-.2 2.9-.1.9-.3 1.6-.7 2.2-.3.6-.8 1.1-1.5 1.4-.6.3-1.5.5-2.6.5-1.2 0-2.2-.3-3-.9l.6-1.8zm19.8-11.3h1.9l5.4 13.7h-2.3l-1.5-3.7H52l-1.4 3.7h-2.3l5.5-13.7zm3.1 8.4l-2.2-5.9-2.3 5.9h4.5zm11.1-8.4l3.8 6.9 3.8-6.9H78l-5.1 8.8v4.9h-2.2v-4.9l-5.1-8.8H68zm35.5 3.2c-.1-.1-.3-.3-.6-.5s-.5-.3-.9-.5c-.3-.1-.7-.3-1.1-.3-.4-.1-.8-.1-1.2-.1-.9 0-1.6.2-2 .5-.4.3-.6.8-.6 1.4 0 .3.1.6.2.8.1.2.3.4.6.6.3.2.6.3 1.1.4.4.1.9.3 1.5.4.7.2 1.3.4 1.9.6.6.2 1 .5 1.4.8.4.3.7.7.9 1.1.2.4.3 1 .3 1.6 0 .7-.1 1.3-.4 1.8-.3.5-.6.9-1.1 1.2-.5.3-1 .5-1.6.7-.6.1-1.3.2-2 .2-1 0-2.1-.2-3-.5-1-.3-1.9-.8-2.6-1.4l1-1.9c.2.2.4.4.7.6.3.2.7.4 1.1.6.4.2.9.3 1.4.4.5.1 1 .2 1.5.2.9 0 1.5-.1 2-.4.5-.3.7-.7.7-1.3 0-.3-.1-.6-.3-.9-.2-.2-.4-.4-.7-.6-.3-.2-.7-.3-1.2-.5-.5-.1-1-.3-1.6-.4-.7-.2-1.3-.4-1.8-.6-.5-.2-.9-.4-1.3-.7-.3-.3-.6-.6-.8-1-.2-.4-.3-.8-.3-1.4 0-.7.1-1.3.4-1.8.3-.5.6-1 1.1-1.3.4-.4 1-.6 1.6-.8.6-.2 1.3-.3 2-.3.9 0 1.8.1 2.6.4.8.3 1.5.7 2.1 1.1l-1 1.8zM113 160v-13.7h2.2v7.1l6.5-7.1h2.4l-5.4 6.1 5.7 7.7H122l-4.6-6.3-2.1 2.2v4.1H113zm18.6 0v-13.7h6c.6 0 1.2.1 1.7.4.5.3 1 .6 1.3 1 .4.4.7.9.9 1.4.2.5.3 1.1.3 1.6s-.1.9-.2 1.3-.3.8-.5 1.2c-.2.4-.5.7-.8.9-.3.3-.7.5-1.1.6l3.2 5.2h-2.5l-3-4.8h-3.2v4.8h-2.1zm2.2-6.7h3.8c.3 0 .6-.1.8-.2.3-.1.5-.3.6-.6s.3-.5.4-.8c.1-.3.2-.6.2-1s-.1-.7-.2-1c-.1-.3-.3-.6-.5-.8-.2-.2-.4-.4-.7-.6-.3-.1-.5-.2-.8-.2h-3.7v5.2zm16.4 6.7v-13.7h2.2V160h-2.2zm11 0v-13.7h5.8c.6 0 1.2.1 1.7.4.5.3 1 .6 1.3 1 .4.4.7.9.9 1.4.2.5.3 1.1.3 1.6 0 .6-.1 1.1-.3 1.7-.2.5-.5 1-.8 1.4-.4.4-.8.8-1.3 1-.5.3-1.1.4-1.7.4h-3.7v4.8h-2.2zm2.2-6.7h3.6c.3 0 .6-.1.8-.2.2-.1.5-.3.6-.5.2-.2.3-.5.4-.8.1-.3.2-.6.2-1s-.1-.7-.2-1c-.1-.3-.3-.6-.5-.8-.2-.2-.4-.4-.7-.5-.3-.1-.5-.2-.8-.2h-3.5v5zm25.8-5.1h-4.6V160h-2.2v-11.8h-4.6v-1.9h11.3v1.9zm21.1-1.9h1.9l5.4 13.7h-2.3l-1.5-3.7h-5.3l-1.4 3.7h-2.3l5.5-13.7zm3.1 8.4l-2.2-5.9-2.3 5.9h4.5zm13.8-4.3v9.7H225v-13.7h1.7l7.9 9.9v-9.9h2.2V160H235l-7.8-9.6zm18.5 9.6v-13.7h4.9c1.1 0 2.1.2 2.9.5.8.4 1.5.8 2.1 1.5.6.6 1 1.3 1.3 2.2.3.8.4 1.7.4 2.7 0 1-.2 2-.5 2.8-.3.8-.8 1.6-1.3 2.2s-1.3 1.1-2.1 1.4c-.8.3-1.7.5-2.8.5h-4.9zm9.4-6.9c0-.7-.1-1.4-.3-2-.2-.6-.5-1.1-.9-1.6-.4-.4-.9-.8-1.4-1-.6-.2-1.2-.4-1.9-.4h-2.7v9.9h2.7c.7 0 1.4-.1 1.9-.4.6-.3 1-.6 1.4-1 .4-.4.7-1 .9-1.6.2-.5.3-1.2.3-1.9zm30.4-4.9h-4.6V160h-2.2v-11.8h-4.6v-1.9h11.3v1.9zm18.9-1.9V160h-2.2v-6h-6.9v6.1h-2.2v-13.7h2.2v5.7h6.9v-5.7h2.2zm18.3 11.8v1.9h-9.4v-13.7h9.2v1.9h-7.1v3.9h6.1v1.8h-6.1v4.2h7.3z"/><path d="M62.7 212.7l-.5-.6 43.6-43.6.5.6z"/></svg><svg id="backdrop_guitar" viewBox="-1 -1 502 452" width="502" height="452" xmlns="http://www.w3.org/2000/svg"><style>.bst0{clip-path:url(#bSVGID_2_)}.bst1{fill:#ee4d25}</style><defs><path id="bSVGID_1_" d="M.5 60.2h504.3v389.5H.5z"/></defs><clipPath id="bSVGID_2_"><use xlink:href="#bSVGID_1_" overflow="visible"/></clipPath><g class="bst0"><path class="bst1" d="M141.2 376.2c-1.3-2.3-2.4-4.7-4.7-6.2-.6-.4-1.2-1-1.7-1.4.3-.7.5-1.2.8-1.7l-.1.1c1.8-1.8 3.6-3.6 5.3-5.5.5-.5.7-1.2 1-1.9 1.2-1.2 2.4-2.3 3.7-3.5l3.3-2.4c1.2.9 2.4 1.8 3.5 2.7 1.5 1 2.9 2.1 4.4 3.1 1.8 1.1 4.5 0 6.4-2.5.1-.1.1-.3.2-.4 1.4-1.6 1.2-4.5-.5-6.2-.9-.8-2-1.4-3.1-2.1l.1.1c-1-1.2-2-2.5-3-3.8.7-.5 1.7-1.3 2.8-2.1.7.4 1.4.7 2 1.1 1.6 1.4 3.3 2.8 4.9 4.2 1 1 1.8 2.1 2.9 2.9 8.1 6 14.5 13.7 20.4 21.8 4.7 6.4 11.7 6.1 16.6 2.2 1.1-.8 1.9-2.1 2.6-3.2 2.6-4 5.1-7.9 7.5-12 1-1.7 2.1-2.3 3.9-1.9 1 .2 2.1.2 3.2.3 2.9.2 4 1.5 3.8 4.5-.2 1.7-.4 3.5-.5 5.2l.1-.1c-.2.6-.4 1.1-.5 1.7-1.7 10.2-3.1 20.4-6.4 30.3-.1.4 0 .9-.1 1.4-2 4.3-3.9 8.7-6 13-4.4 8.8-10.3 16.6-17.2 23.6-6.1 6.1-12.7 11.7-19.1 17.5-.4.2-.9.4-1.3.7-8.5 6.4-17.5 11.9-27.4 15.9-8.6 3.5-17.4 6.1-26.6 7-7.2.7-14.6.6-21.8.8l-7.8-.6c-4.3-.9-8.6-1.7-12.9-2.6-9.4-2.7-18.2-6.8-26.3-12.4-5.3-4.7-10.9-9.1-15.9-14-9.2-9-17.3-18.9-23.1-30.5-3.1-6.2-5.1-12.7-5.9-19.5-.5-4.3-.6-8.7-.3-13.1 1.4-19.4 9.2-36.1 22.4-50.3 12.2-13 26.1-23.7 41.9-31.9 11.1-5.8 22.9-9.3 35.1-11.9 10.7-2.3 21.5-4.5 32.3-6.6 8.9-1.8 15.3-7.2 20.4-14.3 3.3-4.6 6.1-9.6 8.9-14.6 6.2-10.9 15.2-18.5 26.7-23.5 10.3-4.4 20.9-5.7 31.8-3.7 4.8.9 9.4 2.9 14 4.5 2.3.8 4.4 2.2 6.9 3.4-1 .8-1.9 1.5-2.7 2.1l-32.4 24c-1.7 1.3-2.6 1-3.4-1-.2-.6-1.1-1.3-1.6-1.2-1 .2-1.9.9-3.1 1.5.6.7.8 1 1 1.2.2.2.5.4 1 .8-2 1.5-3.8 3-5.8 4.4-.3.2-1.1-.2-1.7-.2-.7 0-1.6 0-2 .4-.4.4-.1 1.3-.2 2 .2.1.4.1.5.2l-5.7 4.5c-.8-.5-1.6-1-2.6-1.6l4.2-3.3c-.1-.2-.3-.3-.4-.5-2.2 1.7-4.4 3.3-6.5 5.1-1 .8-.5 3.2.6 4.1.5.4 1 .7 1.7 1.3-1.8 1.4-3.6 2.6-5.3 3.9-7.6 5.8-15.3 11.5-22.9 17.3-1.1.9-1.9.7-2.9-.1-3.1-2.5-3.2-2.4-6.3-.1-5.7 4.3-11.4 8.7-17.1 13-3.1 2.4-3.2 2.5-1.6 6 .1.3.3.6.5 1.2-1.5 1.1-3 2.3-4.6 3.2-.5.3-1.4-.2-2.1-.3l.1.1c-2.5-2.8-5-3.1-6.9-.7l.1-.1c-.7.4-1.5.7-2 1.3-2.3 2.7-2 7.4.7 10-3 3.8-6 7.6-9 11.3-2.7-.5-3.4-4.8-7.1-3.1 0-.5 0-.9-.1-1.4-.5-2.4-1.9-3.1-4.3-2.5-.9.3-2 .3-2.8.7-.6.4-1 1.2-1.5 1.9-.1.2-.2.3-.3.5-.3 0-.8-.1-1 0-1.3 1.3-1.7 4.5-.5 6.1.8 1.1 1.7 2.2 2.7 3.2 3 2.8 6 5.5 9.1 8.2 2.2 1.9 4.7 3.7 6.9 5.6 2.3 2 4.4 4.2 6.7 6.1 2.5 2.2 5 4.2 7.6 6.3 2.5 2.1 5 4.1 7.5 6.2 1.2 1 2.5 1.4 3.9.7 1-.5 1.9-1.4 2.8-2.1 1.4-1.5 2.8-3.1 4.2-4.6.8-1.2.2-3.1-1.3-3.9-.4-.2-1.2.5-1.8.8l.1-.1zm38.2 28.4c-2.2 2.2-2.6 6.3-.9 8.9 3.9 5.9 12.7 6.1 17.1.4 3.2-4.2 2.9-9.1-1.1-11.9-1.8-1.2-4.1-1.6-6.2-2.4-.1 0-.1.1-.2.1-2.9-.9-7.8 1.7-8.7 4.9zm-71.3 23.3c-.2.3-.3.6-.5 1-2.6 2.2-2.8 5.2-2.2 8.3.7 3.3 2.8 5.4 6 6.1 6.9 1.6 13.9-4.4 13.5-11.5-.2-3.9-2.9-7-6.8-7.9-3.4-.8-8.7 1.1-10 4zm34.8 16c.4 4.3 6.7 7.7 11.4 6.5 6.1-1.5 9.9-7.2 8.5-12.7-1.3-5.1-6.4-7.9-11.9-6.5-5.9 1.4-9.5 7-8 12.7zm-2.8-40.3l-.4.4c1.3 1.4 2.4 3.1 3.9 4.1 4.4 2.9 10.6 1.7 13.9-2.4 4-5 2.9-10.9-2.6-13.4-1.3-.6-2.9-.5-4.3-1-5.5-1.7-12.8 7.3-10.5 12.3zm58.7-162.5c.4 2.1 2.2 3.5.9 5.7-.2.4.8 1.8 1.5 2.3 1.3.8 4.4-.1 5.1-1.4.4-.8.2-1.9.3-2.9 0 0-.1-.1-.2-.1-2.3-1.2-1.6-3.4-2.2-5.3 1.5-.1 2.6-.2 3.8-.3-.3-.3-.6-.4-1-.4-1.8.2-3.4.4-4.1-2-.3-1-1.8-1.8-3-1-.8.6-2 1.9-1.8 2.6.5 1.9-.3 2.8-1.8 3.6-.4.2-.8.7-1.2 1 0 .1.1.1.1.2 1.2-.6 2.3-1.2 3.6-2zm15.3.3c2.6 4 2 7.5-1.6 10.6-2.5 2.1-5.3 3.3-8.5 4.1-6.3 1.6-10.3-.3-12.8-6.6.1 2.6.5 4.4 2.5 5.8 7.8 5.4 19.3 0 21.8-6.1 1.4-3.2 1.1-5.7-1.4-7.8zm-47.4 113.2c-1.1 6.2-8.5 8.9-12.9 4.9.8 2.5 3.8 3.8 7 3 4.1-1 6.6-4.1 5.9-7.9zm32-106c-.1 1.7 1.1 2.2 2.3 2.6 2.2.7 5.2-.2 6.6-2.1.6-.8.8-1.9 1.2-2.9-.2-.1-.4-.2-.6-.2-1.1 3.5-6.3 5.2-9.5 2.6z"/><path class="bst1" d="M53.6 463.5c8.1 5.6 16.8 9.7 26.3 12.4 4.3.9 8.6 1.7 12.9 2.6l7.8.6c.5.2 1.1.5 1.6.6 13.1.8 25.9-1 38.5-4.8 9.1-2.8 17.7-6.8 25.8-11.9 3.9-2.5 7.5-5.5 11.3-8.3 6.4-5.8 13-11.4 19.1-17.5 6.9-6.9 12.8-14.7 17.2-23.6 2.1-4.3 4-8.7 6-13 .1-.2.3-.5.4-.7 1.9-8.3 3.8-16.5 5.6-24.8.6-2.6.7-5.2 1-7.9l-.1.1c.3-1.1.7-2.2 1.1-3.5.5 2.1.9 4 1.3 5.9 3 .1 5-3.1 4.2-6.5-.8-3.4-1.8-6.8-2.6-10.2-.3-1.1-.2-2.3-.3-3.4.2 0 .3-.1.5-.1.2.3.5.6.7.9 2.2 6 4.3 11.9 6.4 17.9.2.5.2 1.2.1 1.8-1.2 5.5-2.6 11.1-3.7 16.6-.8 4.3-1.5 8.6-2.2 12.9-.8 4.8-1.6 9.7-2.6 14.5-3.1 14.3-10 26.8-19.4 38-8.4 10-18 18.8-28.6 26.4-13.2 9.4-27.8 15.4-43.7 17.9-17.8 2.8-35.2 1.3-52-5.3-7.7-3.1-14.8-7.1-21.1-12.7-5.6-5-11.2-10.1-16.6-15.3-1.5-1.4-2.4-3.4-3.4-5.2 3.1 2.5 6.2 5 9.3 7.6.1-.1.2-.1.2-.2-.5-.7-.7-1.2-1-1.8zm88.1 31.1c3.3-1 3.8-2.1 2.3-4.5-1.3-2.1-2.5-4.2-4-6.2-1.2-1.7-2.8-2.8-5.2-2.4-4.7.7-9.5 1.2-14.2 1.9-1.8.3-3.5.8-5.3 1.3-1.4.4-1.5 1.5-.8 2.5 1.7 2.6 3.4 5.3 5.4 7.8.8.9 2.2 2 3.3 1.9 6.5-.6 12.8-1.5 18.5-2.3z"/><path class="bst1" d="M219.4 354c-.6.7-1.4 1.3-1.9 2.1-3.3 5.1-6.4 10.2-9.7 15.3-2.7 4.1-9.2 5.6-13.7 3.5-1.9-.9-3.1-2.2-4.3-3.8-4.3-5.2-8.7-10.4-13.2-15.6-1.4-1.6-1.5-5.7-.2-7.3.5-.7.8-1.5 1.2-2.3l7.2-6c3.2-2.6 6.3-5.1 9.5-7.7 1.2-.9 1.8-1.9.2-2.9s-3.3-2.1-4.9-3.1c.3-.7.5-1.5 1-2 1.5-1.3 3.2-2.5 4.8-3.8 4.1-3.2 8.1-6.5 12.2-9.6 3.2-2.5 6.5-4.9 9.7-7.3 2.6-2 2.5-2 5.3-.2 5.2 3.2 3.9 3.1 8.2-.2 5.1-4 10.2-8.1 15.3-12.2 3.4-2.7 3.4-3.3-.7-5.2-.1-.2-.1-.4-.2-.6.1-1-.2-2.3.3-2.9 2.4-2.5 5-4.9 7.7-7.5.4 3.1.7 5.6 1 8.1.1.4.1.9.3 1.2 2.4 3.9 1.3 7.3-.9 10.9-10.7 17.9-21.2 35.8-31.8 53.7-.8 1.4-1.4 2.9-2.1 4.3 0 .5-.1.8-.3 1.1zm-12-1.6c.9-1.4.3-2.2-1-2.7-1.9-.6-3.3-.1-4.2 1.7 1.3 3.3 2.4 3.5 5.2 1zm42.9-68.7c.6-1.1 1.1-1.9 1.5-2.6-.8-.3-1.8-1.1-2.5-.9-.7.2-1.1 1.3-1.7 2 .8.4 1.6.9 2.7 1.5zm42.9 22.6c.6-.5 1.1-1 1.4-1.3 1.4 5.1 2.6 10.5 4.4 15.6 1.7 4.9-.2 8.3-3.3 11.7-5.3 5.8-11.8 10-18.9 13.1-5.9 2.6-11.9 5-17.9 7.6-6.1 2.6-11.7 6.2-16.8 11-2.5-7.3-5-14.3-7.5-21.4v.1c.7-.6 1.4-1.2 2.1-1.7 3.9-2.6 7.5-5.7 11.7-7.7 7-3.5 14.4-6.3 21.7-9.3 5.8-2.5 11.4-5.4 16.1-9.7 2.3-2.6 4.6-5.3 7-8z"/><path class="bst1" d="M293.2 306.3c-2.3 2.7-4.7 5.3-7 8-.7.4-1.4.6-2 1.1-5.7 4.4-12.1 7.2-18.6 10-7.4 3.2-14.8 6.3-21.9 10.1-3.4 1.8-6.1 4.8-9.1 7.3v-.1c-.3.5-.7 1-1 1.6l.1-.1c-1.3 1.7-2.5 3.4-3.7 5-1.9-.4-4-.9-6.2-1.4 11.2-18.9 22.3-37.8 33.3-56.5 2.1 1.4 4.3 2.9 6.5 4.3h-.1c5.6 3.6 11.7 4.4 18.2 3.4 3-.4 5.9-1.2 8.9-1.4 4.2-.2 5.7 2.7 3.8 6.5-.5.7-.9 1.5-1.2 2.2z"/><path class="bst1" d="M261.1 266.8c.9-.8 1.7-1.6 2.6-2.4 1-.8 2.1-1.5 3.1-2.3l2.7-2.4c1-.8 2.1-1.5 3.1-2.3l3.3-3c.8-.5 1.6-1.1 2.3-1.6l2.7-2.4c1-.8 2.1-1.5 3.1-2.3 1.9-1.6 3.8-3.2 5.7-4.9v.1c2-1.6 3.9-3.3 5.9-4.9 1-.8 2.1-1.6 3.1-2.3.9-.8 1.7-1.6 2.6-2.3.8-.6 1.6-1.2 2.4-1.7 1.2-1.1 2.3-2.2 3.5-3.4 1-.6 2-1.3 3-1.9 1.9-1.7 3.9-3.3 5.8-5 1.9-1.4 3.7-2.9 5.6-4.3 2.8-2.3 5.6-4.7 8.3-7v.1c.9-.7 1.7-1.4 2.6-2.1 1.9-1.4 3.7-2.9 5.6-4.3l3.3-3c1.9-1.4 3.7-2.8 5.6-4.3l3.3-3c.8-.5 1.6-1.1 2.4-1.6 3.9-3.2 7.7-6.5 11.6-9.7 1-.8 2.1-1.5 3.1-2.3 2.7-2.3 5.5-4.6 8.2-6.9v.1c2-1.6 3.9-3.3 5.9-4.9 1.9-1.4 3.7-2.9 5.6-4.3 8.6-7 17.2-14 25.9-21l11.4-9.3c.5.4.9.8 1.4 1.2-4.9 3.9-9.9 8-14.9 12.1-17.6 14.5-35.2 29-52.7 43.6-19.6 16.2-39.1 32.4-58.6 48.7-2.1 1.8-4.6 3.4-5.4 6.4-.2.6-.8 1-1.1 1.5-.6.9-1.3 1.7-1.7 2.9-1.1 3.4-3.2 6.5-4.8 9.8-1.6 3.5-2.6 7.3-2.4 11.2 0 .6.1 1.2-.3 1.9-.3-.6-.6-1.3-.8-1.9h-.2c.4 1.6.9 3.1 1.3 4.7-.1 0-.3.1-.4.1-1.7-7-3.4-14-5.1-21.2l-3.6 3c.1.1.2.3.3.4.8-.6 1.5-1.2 2.4-1.9.9 3 1.7 5.9 2.4 8.8 1 4 2.1 7.9 2.9 11.9.2.8-.2 2.1-.8 2.7-5.3 5.3-10.6 10.4-16.1 15.5-.5.5-1.7.3-2.5.5h.1c-1.8-6.1-3.7-12.3-5.5-18.4l-.9-3c.8-.9 1.6-1.8 2.4-2.6 1.8-1.7 3.6-3.4 5.4-5.2-.1-.2-.3-.3-.4-.5-2 1.8-3.9 3.7-5.9 5.5-1.1.8-2.1 1.6-3.2 2.4-.6-.1-1.3-.2-2.2-.3 2.1-1.9 3.8-3.5 5.5-5 .5-.9 1.3-1.5 2.1-2zm182.5-137.3c-4.2-.7-8.2.1-12.2 1.2-.9.2-1.8.5-2.7.8-.2-.7-.4-1.5-.7-2.3 6-2.8 12.2-5.6 18.3-8.4l.4.4c-.4.3-.8.7-1.1 1-.4.4-1.1.9-1.1 1.4 0 .5.6 1.1 1 1.4 1.9 1.2 4 1.8 6.2.9 1.1-.4 1.5-1.3.6-2.1-1.1-.8-.6-1.7-.5-2.6.3-2.9 1.9-4.6 4.8-5 1.1-.2 2.1-.7 3.2-1.1.1.2.2.3.4.5-.4.3-.8.7-1.2 1-1.1.8-1.6 1.8-.1 2.3 1.9.7 4 1.1 6 1.2 1.3.1 1.7-1.1.9-2.3-.9-1.5.2-4.7 1.8-5.2 2.3-.7 4.7-1.3 7.2-1.5-.4.2-1.1.3-1.3.7-.2.6-.4 1.6-.1 1.9 1.8 1.5 4 2 6.3 1.4.5-.1 1.2-1.7 1.1-1.7-1.6-1.3-.5-2.6-.2-4 .1-.5.2-1.1.4-1.6.8-1.8.3-2.8-1.6-3.2-2.2-.5-3.2 0-3.4 2.1-.2 1.9-1 2.9-2.9 3.2-2.1.4-4.1 1.1-6.1 1.6-1-1.8-3-2.9-4.8-2.2-.6.2-1.1 1.3-1.1 2-.1 1.5-.9 2.2-2.3 2.5-3 .6-5.8 2.2-9 1.1-.5-.2-1.5.5-2 1-.7.8-4.8 3-5.7 2.5-1.6-1-2.6-2.4-5-1.2-1.6.8-3.9.1-5.8.4-1.9.3-3.7 1-5.6 1.4 4.8-2.4 9.5-4.8 14.3-7.1.7-.3 1.6 0 2.5-.1 1.1-.1 2.2-.2 3.4-.3.1-.3.1-.6.2-.9-.5-.1-.9-.2-1.4-.2-.1-.2-.1-.4-.2-.5 1.3-.8 2.5-1.6 3.8-2.3 2.3-1.3 4.5-2.5 7.3-1.4.8.3 2-.2 3.1-.4 0-.2 0-.4-.1-.7-.4-.1-.8-.1-1.2-.2.5-2.4 1.1-4.8 1.6-7.1 6.4 1.8 12.7 3.5 19 5.3 6.4 1.8 11.1 7 17.9 9.2-1.2.4-1.9.6-2.5.8-8.9 2.9-17.8 5.7-26.6 8.9-4 1.4-7.8 3.5-11.5 5.7-2.7 1.5-5.3 2.5-8.4 1.9-1.1-.3-2.3-.2-3.3-.1z"/><path class="bst1" d="M450 137.6c.6-2.6 1-4.8 1.7-6.8.2-.7 1.1-1.2 1.8-1.6 9.8-5.8 20.4-9.8 31.3-13 3.9-1.1 7.8-2.2 12.1-3.4-.7 2.5-1.1 4.7-1.9 6.7-.2.6-1.3 1-2 1.2-9.5 3.2-19 6.2-28.4 9.6-4.2 1.5-8.1 3.9-12.1 5.9-.6.4-1.3.8-2.5 1.4zm-232.7 166c-3.2 2.4-6.5 4.8-9.7 7.3-4.1 3.2-8.1 6.4-12.2 9.6-1.6 1.3-3.3 2.4-4.8 3.8-.5.5-.7 1.3-1 2 .9.8 1.9 1.7 2.7 2.4-.9.4-1.7.7-2.5 1.1-.6-1.2-1-2.5-1.8-3.4-1.1-1.2-2.6-2.1-4.2-3.3 3-2.4 6-4.8 8.9-7.1 6.8-5.4 13.6-10.9 20.5-16.2.8-.6 2-.8 3-1.2.3.3.7.6 1 .9.5.8.9 1.6 1.4 2.4-.4.4-.9 1.1-1.3 1.7zm-86 66.5c.2.3.6.9.6 1-1.2 1-2.5 2-3.8 3-.1.1-.4-.3-.7-.4-8.9-7.8-17.9-15.5-26.8-23.3.6-2.3 2.7-3.3 5.4-2.7 6 5.1 12.1 10.2 18 15.5 2.6 2.1 4.9 4.5 7.3 6.9zm81.5-73.9c.2.7.5 1.4.8 2.2-10 8-20.2 16-30.4 24.2-1.5-1.1-2.8-2.1-4.4-3.3 3.5-2.8 6.9-5.4 10.2-8.1 6.3-5 12.6-9.9 19-14.8.9-.7 2.2-.8 3.4-1.2.4.3.9.7 1.4 1zm-5-3.3c.3.6.5 1.1.8 1.8-5 4-10.1 8-15.2 11.9-3.9 3.1-7.9 6.1-11.8 9.2-3.7 2.9-4 2.9-7.8-.5l6.6-5.1c7.3-5.7 14.7-11.4 22-17.1 1.3-1 2.5-2 4.3-1.4.5.5.8.9 1.1 1.2zm-4.7-3.4c.6.8.9 1.5-.2 2.3-9.6 7.4-19.1 14.8-28.6 22.2-.4.3-.8.5-1.3.8-1.2-.9-2.4-1.7-3.7-2.7 4.2-3.2 8.2-6.3 12.3-9.4 5.6-4.3 11.2-8.5 16.7-12.8 1.4-1.1 2.7-1.6 4.3-.8.1.1.3.2.5.4zm-4.5-3.2c.7 1.2-.1 1.9-.9 2.6l-24 18.3c-1.2.9-2.3 1.9-3.5 2.6-.6.3-1.6.5-2.2.2-2.6-1.3-2.6-1.9-.3-3.6 8.7-6.5 17.3-13 25.9-19.5 1.2-.9 2.4-1.6 4-1.3.3.2.6.5 1 .7z"/><path class="bst1" d="M100.6 350.3c8.9 7.8 17.9 15.5 26.8 23.3.3.5.7.9 1 1.4-.1.3-.2.6-.4.9-.4.6-.9 1.2-1.4 2-9.5-8.2-19.1-16.5-28.6-24.7.2-1.7 2.3-1.5 2.6-2.9zm60.8-45.8c5-3.7 9.9-7.4 14.8-11 4.2-3.1 8.5-6.3 12.7-9.4 2.6-1.9 2.6-1.9 5.4.4-1.1.8-2.1 1.6-3.1 2.4-8.2 6.2-16.5 12.5-24.7 18.7-2.1 1.5-2.1 1.5-5.1-1.1zm69.1-18.7c1.4.5 2.3 1 3.2 1.1.3 0 1.2-1 1.1-1.2-.3-.7-.9-1.2-1.5-1.9 1.9-2.3 1.9-2.3 4.6-.4 1 .7 1.9 1.4 3.1 2.2-1 .8-1.9 1.6-2.8 2.3-4.1 3.3-8.3 6.5-12.4 9.8-1.1.9-2 1.2-3.1 0-.3-.3-.6-.5-1-.8-2.6-2-2.6-2 .1-4.1 3-2.5 6.1-4.9 8.7-7zm-70.9 48.5c1.6-1.2 2.5-2.6 4.7-1.6 1.5.7 2.3-1.1 1.4-3.3 3.7-2.9 7.5-5.8 11.3-8.7.4-.3 1.3-.2 1.8 0 1.1.7 2.1 1.6 3.5 2.6-3 2.4-5.8 4.8-8.7 7-1.6 1.2-3.5 2-5.1 3.2-1 .8-1.8 1.9-2.6 2.9-1.1 1.4-2.2 1.4-3.5.1-.8-.7-1.7-1.3-2.8-2.2zm-14.1 21.8c-1.2 1.2-2.4 2.3-3.7 3.5-2.1 2.4-4.2 4.9-6.4 7.3l.1-.1c-1.1.9-2 .8-3-.2-.8-.8-1.7-1.5-2.7-2.3 4.3-4.9 8.5-9.7 12.7-14.6.9.4 1.7.8 2.5 1.2.4.4.9.8 1.3 1.3.9.6.9 1.2.2 2-.4.6-.6 1.3-1 1.9zm37.3-32.2c1.4 1.1 2.7 2.1 4.2 3.2-4.2 3.3-8.1 6.5-12 9.6-1.5 1.2-3.1 2.4-4.6 3.7-1.1 1-2.1 1.3-3.2 0-.7-.7-1.6-1.3-2.5-2.1 1.3-1.2 2.3-2.5 4.4-2 .5.1 1.8-1.1 1.7-1.5-.3-1.4.6-1.9 1.4-2.5 3.5-2.7 6.9-5.5 10.6-8.4zm-5.8-4.3c-4.3 3.4-8.5 6.6-12.6 9.8-1.3 1-2.7 2-3.9 3.2-1.2 1.1-2.1 1.1-3.2 0-.8-.8-1.7-1.4-2.8-2.2 1.2-.9 2.1-1.6 3.2-2.4 1.1 1 2.3 2.1 3.5.5.4-.6-.1-1.8-.2-3.2 3.2-2.5 7-5.4 10.8-8.3.4-.3 1.4-.3 1.8-.1 1.2.8 2.2 1.7 3.4 2.7zm-47.7 44.2c-1.5-1.2-2.7-2.3-4.2-3.4 4.1-4.9 8.1-9.6 12.3-14.5 1.6 1.2 3.1 2.2 4.7 3.4-4.2 4.8-8.4 9.5-12.8 14.5zm314.2-234.3c2.2.3 4.5.6 6.9.9-.4 2.3-.7 4.5-1.2 6.6-.1.4-1.1 1-1.4.8-4.4-1.9-9.3-2-13.9-3-.5-.1-1.1-.2-1.6-.4 1.4-2.6 3.6-1.9 5.8-1.7-2.1-2-4.6-1-6.9-1.2 0-.2-.1-.4-.1-.6 3.7-.4 7.3-.9 11-1.3.4 0 .9 0 1.4-.1.1 0 0 0 0 0zM132.1 342.1c1.6 1.2 3 2.2 4.5 3.3-4 4.8-8 9.5-12.1 14.4-1.3-1.2-2.5-2.2-3.9-3.4 3.8-4.8 7.6-9.5 11.5-14.3zm17.8-15.4c1.2-.9 2.3-1.7 3.4-2.5.8 1.4 2 2.4 3.4 1 1.2-1.1.8-2.3-1.1-2.8 3.7-2.9 7.2-5.5 10.6-8.2 1.4-1.2 2.6-1.5 3.9 0 .5.5 1.1.9 1.8 1.5-3.7 2.9-7.3 5.6-10.9 8.4-1.7 1.3-3.5 2.6-5.1 4-1.5 1.3-2.7 1.6-4.1.1-.5-.4-1.1-.8-1.9-1.5zm80-48.6c-5.3 4.2-10.4 8.2-15.6 12.2-.8.7-4.4-.9-4.5-2-.1-.4.4-1 .7-1.3 4.8-3.7 9.5-7.4 14.3-11.1.4-.3 1.4-.4 1.8-.1 1.2.6 2.1 1.5 3.3 2.3zm-6.7-.8c-.5 1.1-1.1 2-.9 2.3.4.5 1.4 1.1 1.9 1 .6-.1.9-1.2 1.3-1.8-.6-.4-1.3-.8-2.3-1.5zm5.1 3.3c2.6-2.3 2.6-2.3 6.5.9-2.2 1.7-4.4 3.5-6.5 5.2-2.7 2.2-5.5 4.3-8.2 6.6-1.2 1-2.1 1.1-3.2 0-.7-.7-1.5-1.2-2.5-1.9 4.1-3.2 8.1-6.3 11.7-9.2 1 .7 1.7 1.4 2.6 1.7.3.1 1-.9 1.5-1.4-.6-.7-1.3-1.3-1.9-1.9zm-76.8 38c3.8-2.9 8-5.9 12.3-9.1 1 .8 2.1 1.6 3.4 2.7-6.2 4.7-12.1 9.3-18.1 13.8-1.2-1-2.3-1.8-3.6-2.8 1.2-.9 2.3-1.7 2.9-2.2 1.2.5 2 1.1 2.9 1.1.4 0 1.4-.8 1.3-1.3-.1-.7-.7-1.4-1.1-2.2zm-31.7 37.1c-1.3-1.1-2.5-2-3.8-3.1 3.7-4.6 7.3-9.2 11-13.8 1.4 1 2.7 1.8 4.2 2.8-3.8 4.7-7.6 9.3-11.4 14.1zm27.2-40.6c3.2-2.3 6.5-4.8 9.8-7.2 2.9-2.1 2.9-2.1 5.5.8-3.7 2.8-7.5 5.7-11.2 8.5-1.6 1.2-3.2 2.3-4.7 3.6-1.5 1.4-2.8 1.5-4.2-.1-.3-.4-.7-.6-1.2-1.1 1.2-.9 2.3-1.7 3-2.3 1 .6 1.7 1.3 2.5 1.3.5 0 1.6-.7 1.6-1.2.1-.7-.6-1.4-1.1-2.3zm27 32.4c.3-1.8.1-3.3-2.5-3.1l2.4-2.4c1.4-1 2.9-2.1 4.3-3.1.5-.3.9-.6.9-.6 1.3.4 2.2.8 3.1.8.4 0 1.2-.9 1.1-1.3-.1-.7-.8-1.2-1.2-1.9.3-.3.7-.9 1.2-1.4 1.4-1 2.8-2 4.1-3 .7-.5 1.4-.9 2-1.4-.7 2.5 1.3 2.2 2.9 2.6-6.2 5.1-12.2 10-18.3 14.8zm43.9-72.4l.6-.6c3.5-2.6 2.2-2.9 6.4.2-1.5 1.2-3 2.3-4.4 3.5-3.2 2.5-6.4 5-9.7 7.5-2.5 1.9-3.3 1.7-5.8-1.1 4.3-3.2 8.6-6.4 12.9-9.5.1.7 0 1.6.4 2.2.2.3 1.4.1 2-.2.4-.2.4-1 .5-1.6-.8-.2-1.6-.5-2.4-.7-.1 0-.3.2-.5.3zm-92 63.1c-3.6 4.5-7.1 8.9-10.8 13.5-1.2-1-2.3-1.9-3.6-3 3-3.9 6-7.7 9-11.5 1.1-1.2 3.4-.7 5.4 1zm5.4 31.9c-2.4-2.3-4.7-4.8-7.2-7-6-5.2-12-10.3-18-15.5v-1.5c.5.1 1.1.1 1.4.4 9 7.5 17.9 15.1 26.9 22.7.2.2.3.4.4 1.3-1.2-.2-2.3-.3-3.5-.4zm80.7-97.2c1.2.6 2 1.3 2.8 1.4.4 0 1-.9 1.5-1.4-.6-.5-1.2-1.1-1.8-1.7.6-.5 1.5-1.2 2.5-1.9 1 .8 2 1.5 3.3 2.4-5.4 4.1-10.5 8.1-15.8 11.9-.8.5-2.6-.6-4-.9v-.8c4-3.3 8-6.4 11.5-9zm21.2 22.4c1 1.3 2.1 1.9 3.2.7.4-.4-.1-1.6-.3-3 1.7-1.4 4-3.2 6.5-5.2.6 1.5 1.3 2.7 3.3 2.2-5.6 4.5-11.1 8.9-16.9 13.5.4-2.4-1-2.6-2.9-2.6 2.5-2 4.8-3.7 7.1-5.6zm-37-16.7c4-3 7.9-5.8 11.4-8.3 1.2.4 2 .8 2.9.8.4 0 1.3-.8 1.2-1.1-.1-.7-.6-1.3-1-2 2.2-1.9 2.2-1.9 5 .6-4 3-7.9 6-11.9 9-.6.5-1.2.9-1.9 1.4-2.8 2-2.8 2-5.7-.4zm243-159.2c-5.9 1.6-11.2 3.2-16.7 4.6-1.7.4-3.5.1-5.9.1 6.1-4.9 18.2-7.5 22.6-4.7zM219.4 354c.1-.3.3-.6.4-.9.7-.8 1.5-1.5 2-2.3 1.6-2.5 4.5-2.8 6.5-.6.1.3.2.5.3.8-.2.5-.4 1-.5 1.4v-.1c-.1.3-.1.7-.2 1v-.1c-.1.3-.1.7-.2 1v-.1c-.1.3-.1.7-.2 1v-.1c-.1.3-.2.5-.3.8v-.1c-.1.2-.2.3-.3.5-2.6 0-5.3 0-8.1-.1.3-.7.5-1.4.6-2.1zm36.3-77.1c.3-.2.7-.5 1.2-.8 1.7 6 3.3 11.8 5.1 18.1-2.3-1.6-4.1-3.1-5-5.7-1.5-3.8-1.7-7.6-1.3-11.6.1 0 0 0 0 0zm-10.5 8.3c.1.2.1.4.2.6-.6.5-1.3 1-2 1.5-1.3-3.3-4.7-3.9-6.8-6.3 2-1.6 4-3.4 6.1-4.9 1.2-.9 3.4.8 3.7 2.7-.8.6-1.6 1.1-2.4 1.7-1.9.6-1.5 1.9-.9 3.3.6-.2 1-.3 1.6-.5.2.7.4 1.3.5 1.9zm173.5-155.3c-3.7 2.9-7.3 5.8-11.2 8.5-.7.5-2.3-.3-3.5-.6v-.6c3.7-2.8 7.3-5.8 11.2-8.4.7-.5 2.3.3 3.5.5v.6zm3.6 1.9c-3.6 2.8-7.1 5.7-10.7 8.3-.7.5-2.2-.1-3.4-.2 0-.3 0-.5-.1-.8 3.7-2.9 7.3-5.8 11.1-8.5.6-.4 2 .2 3.1.4v.8zm-16.8 8.5c-3.3 2.6-6.5 5.3-10 7.6-.6.4-2.2-.5-4-1 3.8-2.9 7.1-5.6 10.5-7.9.7-.5 2.2.4 3.4.6.1.2.1.5.1.7zm-25 15.1c3-2.4 6-4.9 9.2-7 .8-.5 2.5.3 3.8.5v.7c-3 2.4-5.9 4.9-9.1 7.1-.8.6-2.6-.3-3.9-.5v-.8z"/><path class="bst1" d="M174 347.5c6.1-4.9 12.1-9.7 18.3-14.7-1.5-.4-3.5-.1-2.9-2.6.1-.2.2-.3.3-.5.8-.4 1.7-.7 2.5-1.1-.8-.7-1.8-1.6-2.7-2.4 1.6 1 3.3 2 4.9 3.1 1.6 1.1 1 2-.2 2.9-3.2 2.6-6.3 5.1-9.5 7.7l-7.2 6c-1.1.6-2.3 1.1-3.5 1.6zm-14.2.8c.8.8 1.6 1.7 2.5 2.7-.9 2-2.3 3.5-4.6 4.1-2.6.8-3.3-2.1-5.4-2.6 1.1-.9 2.1-1.6 3-2.4.9-.8 1.6-1.7 2.5-2.6.5.2 1.3.5 2 .8.1 0 0 0 0 0zm209.1-183.9c3.5-2.7 6.3-5 9.3-7 .8-.5 2.4.2 3.7.4 0 .3.1.5.1.8-3 2.4-5.9 4.9-9.1 6.9-.6.5-2.2-.5-4-1.1zm-10.1 7.9c2.7-2 5.3-4.1 8-6.1 1.9-1.5 2.8.5 4.6 1-3.1 2.4-5.7 4.8-8.7 6.7-.8.5-2.6-.5-3.9-.8-.1-.4 0-.6 0-.8zm-201 132.9c-4 2.9-7.9 5.9-11.9 8.8-1.8 1.3-3.5 2.6-5.3 3.8-.4.3-1.2 0-1.8 0 .3-.5.4-1.1.8-1.4 5.2-3.9 10.4-7.8 15.5-11.7 1.2-.8 1.9-.8 2.7.5zm237.8-156.1c3.8-3 7-5.6 10.4-8 .7-.5 2.2.2 3.3.3 0 .2.1.5.1.7-3.3 2.7-6.5 5.4-10 7.9-.6.4-2.1-.5-3.8-.9zm-22 17.2c2.9-2.2 5.7-4.5 8.6-6.7 1.7-1.3 2.6.5 4.1 1-3.1 2.5-5.9 5-8.9 7-.8.5-2.4-.3-3.7-.5-.1-.2-.1-.5-.1-.8zm11-8.7c3.1-2.4 6.1-4.9 9.3-7.1.7-.5 2.3.2 3.4.3 0 .2 0 .5.1.7-3.1 2.6-6.1 5.2-9.4 7.6-.6.4-2.2-.5-3.4-.8.1-.2.1-.5 0-.7zm-9.6 12c-2.7 2.2-5.3 4.5-8.3 6.4-.8.5-2.5-.4-3.8-.6v-.7c2.8-2.2 5.5-4.5 8.5-6.4.7-.5 2.3.4 3.5.6.1.2.1.5.1.7zm39.4-41.7c-3.6 2.8-7.1 5.7-10.8 8.3-.7.5-2.1-.1-3.2-.1 0-.2-.1-.5-.1-.7 2.6-2 5.1-4 7.7-5.9.7-.6 1.5-1 2.2-1.7 1.5-1.5 2.8-1.4 4.2.1zm-65.8 52.3c2.6-2 5-4.1 7.7-5.8.9-.5 2.7.3 4 .5v.8c-2.6 2.1-5.2 4.3-8 6.1-.8.5-2.5-.5-3.8-.8.1-.3.1-.6.1-.8zm4.2 2.5c2.7-2.1 5.3-4.4 8.1-6.2.7-.5 2.4.5 4.2 1-3.2 2.6-5.7 4.8-8.6 6.6-.8.5-2.5-.5-3.8-.8.1-.2.1-.4.1-.6zM128.1 375.9c.1-.3.2-.6.4-.9.4-.1.9 0 1.2-.3l3.9-3.3.4.4-.6 1.5c.7.7 1.5 1.3 2.2 2 .5 1 1 2.1 1.5 3.1.2.5.4 1 .5 1.4-.4 0-.9.1-1.3.1-.3 0-.6-.1-.9 0-1.5.5-3.2.5-4-.9-.6-1.2-.4-2.8-.6-4.2.2 0 .4 0 .6-.1-1 .5-1.9 1.1-2.9 1.6 0 .2-.2-.2-.4-.4zm210.8-188.2c2.4-1.9 4.7-4 7.4-5.5.9-.5 2.6.4 4 .7v.7c-2.5 2-4.9 4.2-7.6 5.8-.8.5-2.5-.6-3.9-1 .1-.3.1-.5.1-.7zm-5.1 9.8c2.3-1.8 4.6-3.7 6.9-5.4 1.8-1.3 2.5 1.1 4.1 1.6-2.4 1.9-4.6 4-7.2 5.6-.8.5-2.6-.6-3.9-1 0-.3.1-.5.1-.8zm7.2-6.6c-2.8 2.2-5 4.3-7.6 5.8-.9.5-2.7-.5-4.1-.9 0-.2 0-.5-.1-.7 2.5-1.9 4.8-4 7.5-5.6.8-.4 2.6.8 4.3 1.4zm47.1-46.3c3.4-2.5 6.5-5.1 9.9-7.4.7-.5 2.1 0 3.2.1.1.2.1.5.2.7-1.6 1.3-3.2 2.5-4.8 3.8-1.2.9-2.5 1.8-3.6 2.9-1.7 1.5-3.1 1.5-4.9-.1zm-45 45.7c2.5-2 5-4.1 7.7-5.8.8-.5 2.4.5 3.6.8v.7c-2.6 2-5 4.2-7.8 6-.7.4-2.3-.6-3.5-1v-.7zm-11.3 7.8c-2.8 2.2-4.9 4.2-7.3 5.5-1 .5-2.8-.6-4.2-.9v-.7c2.3-1.7 4.4-3.7 6.9-5.1.9-.5 2.7.6 4.6 1.2zM127.5 325.6c.1.4.3.7.3.9-1.4 1.9-4.5 1.9-5.2 5-1.2-.8-2.5-1.5-3.5-2.4-.4-.4-.2-1.6 0-2.3.3-.7 1.1-1.2 1.6-1.8l-.1.1c2.2-1.2 4.4-1.2 6.3.7.2-.1.5-.1.6-.2zm197.4-121.1c1.6-1.2 3.1-2.4 4.7-3.6 2.8-2.2 2.8-2.2 6 .1-2.3 1.8-4.4 3.9-6.8 5.3-.9.5-2.6-.6-4-1 0-.3.1-.5.1-.8zm64.3-57c-3.1 2.4-6.1 4.9-9.3 7.1-.7.5-2.2-.2-3.4-.4v-.6c3.2-2.4 6.3-4.9 9.6-7.1.6-.4 2 .3 3.1.4v.6zM233.6 344.2s0 .1 0 0c.3.4 1 .7 1.1 1.1 2.2 5.9 4.3 11.9 6.3 17.9.2.7 0 1.6 0 2.4-.3 0-.5 0-.8.1-.6-1.6-1.2-3.1-1.7-4.7-1.7-4.8-3.5-9.7-5.2-14.5-.1-.6.2-1.5.3-2.3zm-97.7-28.3l.7-.7c5.3-4 10.5-7.9 15.8-11.9.9 1.1.9 1.8-.2 2.6-1.3.9-2.4 1.9-3.7 2.8-.4.3-1 .6-1.5.6-1.5-.2-2.1.6-2.5 1.9-.1.5-.5.9-.9 1.3-1.1.9-2.4 1.8-3.5 2.7-1.2 1-2.4 1.8-4.2.7zm230.5-150.8c-2.7 2.1-5.2 4.3-8 6.1-.8.5-2.4-.1-3.7-.3 0-.2 0-.5-.1-.7 2.8-2.1 5.6-4.4 8.5-6.4.7-.5 2.2.3 3.3.5v.8zm-54.5 43.4c2.1-1.6 4-3.5 6.3-4.6.9-.5 2.7.6 4.6 1.1-2.7 2.1-4.6 4.1-6.8 5.2-.9.5-2.7-.6-4.1-1v-.7zm65.8-52c-2.9 2.2-5.8 4.6-8.8 6.6-.7.5-2.2-.2-3.4-.4v-.6c3-2.3 6-4.7 9.1-6.8.6-.4 2 .3 3 .5 0 .2 0 .5.1.7zM344 178.4c3.2-2.4 5.8-4.6 8.6-6.3.7-.5 2.2.3 3.3.5 0 .2.1.5.1.7-2.7 2.1-5.4 4.4-8.2 6.2-.7.3-2.2-.6-3.8-1.1zm66.4-52.2c-3.7 2.8-7.3 5.7-11 8.3-.6.4-1.8 0-2.8-.1 0-.2-.1-.4-.1-.6 3.3-2.5 6.7-5 10-7.6 1.3-1 2.4-1.4 3.9 0zm-83.8 82c-2 1.6-4 3.3-6.1 4.8-.4.3-1.4.1-2-.1-.8-.3-1.4-.8-2.4-1.4 2.3-1.8 4.3-3.7 6.7-4.9.9-.5 2.5.6 3.8 1v.6zm19-26.9c-2.4 1.8-4.6 3.8-7.2 5.3-.9.5-2.4-.1-3.7-.1-.1-.3-.1-.6-.2-.9 2.6-2 5.1-4.1 7.8-5.8.6-.4 2.1.5 3.2.8.1.2.1.4.1.7zm-27.3 33.5c-1.7 1.4-3.3 2.5-4.7 3.8-1.4 1.4-2.6 1.6-4.1.3-.4-.3-.8-.5-1.6-1 2.3-1.8 4.5-3.5 6.7-5.3 1.3.6 2.4 1.3 3.7 2.2zm6.9-22.1c2.3-1.7 4.4-3.7 6.9-5.1.9-.5 2.5.2 3.8.4v.8c-2.4 1.8-4.7 3.8-7.2 5.3-.8.5-2.3-.3-3.6-.6.1-.3.1-.5.1-.8zm-21.4 22.2c1.9-1.5 3.8-3.1 5.8-4.5.4-.3 1.3-.1 1.8.1.8.3 1.5.9 2.5 1.6-2.1 1.6-3.9 3.5-6.1 4.5-1 .5-2.7-.6-4.1-1 .1-.2.1-.5.1-.7zm-92.9 50.8c-4.9 3.7-9.9 7.4-14.9 11-.6.4-1.4.4-2.2.6-.1-.2-.2-.5-.3-.7 2.5-1.9 5.1-3.8 7.6-5.8 2.5-1.9 5-3.9 7.6-5.7.5-.4 1.4-.2 2.1-.3.1.4.1.7.1.9zm174.1-120c-3 2.3-5.9 4.7-9 6.8-.7.5-2 0-3.1 0 0-.2-.1-.5-.1-.7 3.1-2.4 6.2-4.8 9.5-7 .6-.4 1.9.2 2.8.3-.1.1-.1.3-.1.6zm-11.5 8.8c-2.9 2.2-5.8 4.6-8.8 6.6-.7.5-2.1-.2-3.1-.3v-.6c3-2.2 5.9-4.6 9-6.7.6-.4 1.9.2 2.9.3-.1.3-.1.5 0 .7zm-77.8 66.6c1.4-1.1 2.5-2 3.7-2.9 3-2.3 3-2.3 6.2.4-1.8 1.4-3.6 2.9-5.5 4.2-.4.3-1.3.1-1.8-.1-.8-.4-1.5-1-2.6-1.6zm4.3 3c2.3-1.8 4.1-3.3 6.1-4.6.4-.3 1.4 0 2 .3.7.3 1.3.8 2.2 1.4-2.1 1.6-3.9 3.4-6.1 4.5-.8.4-2.5-.9-4.2-1.6zM227.3 356c.1-.2.2-.5.3-.7v.1c.1-.3.1-.7.2-1v.1c.1-.3.1-.7.2-1v.1c.1-.3.1-.7.2-1v.1c.2-.3.5-.5.7-.8.4.4 1 .7 1.3 1.1.3.5.4 1.2.5 1.8 1.1 3.6 2.4 7.3-.3 11.2-.9-3.2-1.7-6.2-2.6-9.3-.3-.3-.4-.5-.5-.7zm170.3-220c-3.7 2.8-6.8 5.3-10 7.6-.7.5-2 .1-3 .1-.1-.2-.1-.5-.2-.7 3.4-2.5 6.7-5.1 10.2-7.5.4-.4 1.6.2 3 .5zM238.8 368c-1.6-4.3-3.2-8.7-4.8-13-.7-2-1.5-4.1-2.2-6.2-.2-.7 0-1.5 0-2.2.2 0 .5-.1.7-.1 1 2.7 2 5.3 3 8 1.4 3.8 2.7 7.5 4 11.3.2.6 0 1.4 0 2.1-.2.1-.4.1-.7.1zm59.4-143.5c-2 1.6-3.6 3.4-5.6 4.2-1 .4-2.7-.8-4.7-1.5 2.5-1.9 4.3-3.4 6-4.7 1.5.6 2.7 1.2 4.3 2zm28.9-28.9c-2.7 2.1-4.8 4.1-7.2 5.4-.8.5-2.4-.5-3.7-.8v-.6c2.3-1.7 4.4-3.6 6.9-5 .7-.4 2.3.5 4 1zm35-32.5c-2.6 2-5.1 4.1-7.9 5.9-.8.5-2.3.1-3.4.1 0-.3-.1-.5-.1-.8 2.8-2.1 5.4-4.3 8.3-6.2.7-.5 2 .1 3.1.1v.9zm-80.8 69.2c1.7-1.3 3.3-2.6 5-3.8.3-.2 1.2 0 1.7.2.9.4 1.8 1 2.8 1.7-1.1.9-2 1.6-3 2.3-3.1 2.3-3.1 2.3-6.5-.4zm15.2-.2c-1.2-.7-2.3-1.4-3.7-2.3 1.9-1.5 3.5-2.9 5.4-4.1.5-.3 1.5.1 2.2.3.7.3 1.3.8 2.2 1.4-2.1 1.6-4.1 3.1-6.1 4.7z"/><path class="bst1" d="M187.4 331.7c-1.4 1-2.8 2-4.1 3-1.7 1.4-3.4 2.9-5.1 4.3-1.4 1-2.9 2.1-4.3 3.1-1.1.7-2.2 1.3-3.8 2.3.3-.8.3-1.4.5-1.6 5.6-4.5 11.3-8.9 16.9-13.4.2-.2.5-.2 1.2-.1-.4.8-.8 1.6-1.3 2.4zm120.3-125.5c1.5-1.2 3.1-2.4 4.6-3.6 2.5-1.9 2.5-1.9 5.3.3-2 1.6-3.8 3.4-6 4.6-.9.5-2.6-.3-3.9-.4v-.9zm43.7-34.9c-2.5 1.9-5 3.9-7.6 5.6-.8.5-2.2 0-3.3 0-.1-.3-.1-.5-.2-.8 2.7-2.1 5.4-4.2 8.2-6.1.6-.4 1.9.4 2.9.6.1.3 0 .5 0 .7zm-52.1 41.2c2-1.5 3.9-3.3 6.1-4.4.9-.5 2.5.5 3.8.8v.7c-1.9 1.5-3.7 3.2-5.8 4.3-1 .5-2.7-.4-4-.7-.1-.3-.1-.5-.1-.7zm-13.5 22.7c1.8-1.4 3.4-2.7 5-3.8.4-.3 1.1-.2 1.6 0 .9.5 1.7 1.1 2.8 1.8-1.8 1.4-3.3 2.8-5 3.9-.5.3-1.5-.1-2.2-.4-.7-.3-1.4-.8-2.2-1.5zm44.7-51.7c2.5-1.8 4.9-3.8 7.5-5.4.8-.5 2.2.1 3.3.3v.7c-2.5 1.8-4.8 3.8-7.4 5.4-.8.5-2.2-.1-3.4-.2.1-.3.1-.5 0-.8zm-9.4 7.1c2.3-1.8 4.6-3.7 7.1-5.2.7-.4 2.1.2 3.2.4 0 .2 0 .5.1.7-2.3 1.8-4.5 3.7-7 5.2-.8.5-2.2-.2-3.3-.3 0-.3-.1-.5-.1-.8zm-42.1 50c1.7-1.3 3.1-2.6 4.7-3.6.5-.3 1.5.1 2.2.4.7.3 1.4.9 2.2 1.5-1.6 1.3-2.9 2.5-4.4 3.6-.4.3-1.3.2-1.8-.1-1-.5-1.8-1.1-2.9-1.8zm58.9-36.5c-1.9 1.4-3.7 2.9-5.6 4.3-1.1-.2-2.2-.4-3.4-.6 0-.2 0-.5-.1-.7 2.3-1.8 4.5-3.7 6.9-5.3.5-.4 1.7.3 2.8.5-.2.8-.4 1.3-.6 1.8zm68.4-79.4c-3.6 2.7-7.2 5.5-10.9 8.1-.6.4-1.6.1-2.5.1 0-.2-.1-.4-.1-.5 3.7-2.8 7.4-5.6 11.2-8.3.5-.3 1.4 0 2.2.1.1.2.1.4.1.5zM146.2 336.9c.9-.7 1.7-1.3 2.5-1.8 1.4-1 4.7.2 5 2 .1.4-.2.9-.5 1.2-.5.5-1.1.8-1.7 1.3-1.4 1.2-2.6 2-3.4-.6-.1-.8-1.1-1.4-1.9-2.1zm175.9-143.2c-2.1 1.6-4.1 3.4-6.4 4.7-.9.5-2.4-.1-3.6-.2v-.7c2.2-1.6 4.3-3.4 6.6-4.8.8-.5 2.2.1 3.4.2-.1.2 0 .5 0 .8zm-18.7 10.2c2.1-1.5 4-3.2 6.3-4.5.8-.5 2.3.2 3.4.4v.7c-2.1 1.6-4.1 3.3-6.4 4.6-.8.4-2.2-.3-3.3-.5v-.7zm-30.7 41.7c.9-.7 1.5-1.3 2.1-1.8 3.1-2.5 3.2-2.5 6.4.6-1.4 1.1-2.8 2.2-4.3 3.2-.3.2-1 .1-1.4-.2-.9-.4-1.7-1.1-2.8-1.8zm10.7-9.6c-.9.7-1.7 1.4-2.4 2-2.9 2.3-2.9 2.3-5.9-.2 2.2-4 5.1-4.6 8.3-1.8zm17.5-20.2c-1.8 1.4-3.4 2.8-5.3 4.1-1.8 1.2-2.6-.8-4.2-1.3 2.1-1.6 3.8-3.2 5.8-4.2.9-.4 2.4.4 3.7.7v.7zm45.9-19c-1.9 1.4-3.7 2.8-5.6 4.3-1.4.9-2.3.1-3.4-1 2.4-1.9 4.7-3.9 7.1-5.6.5-.4 1.7.2 2.7.3-.3.9-.5 1.5-.8 2zm78.5-84.5c-.5.6-.9 1.5-1.5 1.7-2.8 1.2-5.7 2.2-8.8 3.4-.3-1-.5-1.8-.8-2.8 3.6-1 7.1-2 10.5-2.9.2.1.4.4.6.6zm-44.7 29.2c3.2-2.4 6.3-4.8 9.6-7.1.6-.4 1.8-.2 2.7-.3 0 .2.1.5.1.7-3.3 2.5-6.5 5-9.9 7.4-.5.4-1.6 0-2.4 0 0-.3 0-.5-.1-.7zm.7 2.1c-3.4 2.6-6.3 4.8-9.3 6.9-.7.5-1.9.4-2.8.5l-.3-.9c3.2-2.4 6.4-4.8 9.8-7.1.4-.2 1.4.3 2.6.6zm-59.8 73.8c-1.9 1.4-3.7 2.9-5.6 4.3-1.1-.2-2.3-.5-3.4-.7v-.6c2-1.6 3.9-3.4 6-4.7 1.4-.9 2.4.4 3 1.7zm45.8-37.3c-1 .8-2.1 1.5-3.1 2.3-1.3.9-2.7 1.8-3.8 2.9-1.2 1.1-2.3 1.3-3.6-.2 2.9-2.3 5.7-4.6 8.9-7.2.5.8 1 1.5 1.6 2.2zm-99.1 62.3c1.6-1.2 2.9-2.3 4.3-3.2.4-.3 1.4.2 2 .5.7.4 1.4.9 2.1 1.4-4.8 3.9-3.7 4.9-8.4 1.3zm16.2-18.4c1.6-1.2 3-2.8 4.8-3.6 1-.4 2.5.4 3.8.7 0 .2.1.5.1.7-1.7 1.4-3.3 3-5.2 4-.8.4-2.4-.6-3.6-1 .1-.3.1-.6.1-.8zm52.1-49.7c2.7-2 5.3-4.1 8.1-5.9.5-.4 1.7.2 3.2.5-3.1 2.4-5.7 4.5-8.4 6.3-.6.4-1.9-.1-2.8-.1 0-.4-.1-.6-.1-.8zm21.1-15.7c3-2.2 5.9-4.4 9-6.5.6-.4 1.6 0 2.5 0 .1.2.1.4.2.6-3 2.2-5.9 4.5-9 6.6-.6.4-1.7-.1-2.5-.1-.1-.2-.2-.4-.2-.6zm-63 52c2.1-1.5 3.7-2.5 4.9-3.8 1.7-1.7 3.2-1.5 5.1.2-2 1.6-3.9 3.3-6.1 4.5-.7.5-2.2-.4-3.9-.9zm52.3-44c2.8-2 5.5-4.2 8.3-6 .6-.4 1.8 0 2.7.1 0 .2.1.4.1.6-2.8 2-5.5 4.1-8.3 6-.7.4-1.8.1-2.7.1 0-.3 0-.6-.1-.8zM151.4 340.8c3.6-3.1 3.1-3.5 7.6 1-.5.4-.9.8-1.4 1.2-2.4 1.9-2.3 1.9-4.2-.5-.5-.6-1.2-1-2-1.7zm165.7-152.1c2.4-1.7 4.6-3.6 7.1-5.1.7-.4 1.9.2 2.9.3v.6c-2.3 1.7-4.5 3.6-6.9 5.1-.7.4-2-.1-3.1-.1.1-.4 0-.6 0-.8zm69.8-24.6c-1.9 1.4-3.7 2.9-5.6 4.3-2.4 1.2-2.4 1.2-3.9.1 3-2.4 5.9-4.7 8.9-7 .4-.3 1.3 0 2.3.1-.7 1.1-1.2 1.8-1.7 2.5zM310 226.8c-1 .6-2 1.3-3 1.9-.7-.6-1.4-1.3-2.3-2.1 1.9-1.5 3.6-3.2 5.6-4.4.6-.4 2 .4 3.3.8-1.4 1.5-2.5 2.6-3.6 3.8zm-43.4 23.7c4.3-4 5.2-4.1 8.3-1-1.3 1-2.5 2.1-3.8 3-.3.2-1.1.2-1.5 0-.9-.6-1.9-1.3-3-2zm86-58.4c-.8.5-1.6 1.1-2.4 1.6-1-.1-2-.3-3-.4 0-.2-.1-.4-.1-.7 2.5-2 5-4 7.6-5.8.5-.4 1.6.1 2.9.2-2 2.1-3.5 3.6-5 5.1zm-22.8 18.4c-1.6 1.2-3.4 2.2-4.8 3.6-1.6 1.5-2.9 2-4.5-.2 2.1-1.7 4.3-3.6 6.6-5.1.4-.2 1.8 1.1 2.7 1.7zm-188.6 123c4.2-3.7 4.6-3.7 7.5.1-.5.4-1 .9-1.6 1.3-2.5 1.9-2.5 1.9-4.4-.3-.4-.3-.9-.6-1.5-1.1zm120.9-86.1c5.2-4.3 3.4-4.3 8.3-1.1-1.3 1.1-2.6 2.1-3.9 3.1-.4.2-1.2.1-1.6-.1-1-.5-1.8-1.2-2.8-1.9zm55.6-55.9c-2.2 1.7-4.4 3.5-6.7 5-.6.4-2-.3-3.6-.6 2.8-2.1 5-3.9 7.3-5.4.7-.4 1.9.2 2.9.4.1.3.1.4.1.6zm-31.6 35.9c-2.3 1.6-4.1 2.9-6 4.2-.9-.6-1.8-1.1-3.1-1.9 1.9-1.5 3.4-3 5.3-3.9.8-.3 2.2.9 3.8 1.6zm50.8-50.4c-2.4 1.9-4.8 3.8-7.3 5.5-.6.4-1.9-.2-2.9-.3v-.6c2.5-1.8 4.9-3.7 7.5-5.4.6-.4 1.8.1 2.7.2v.6zm-40.6 36.4c-1.8 1.3-3.4 2.9-5.4 3.9-.9.5-2.4-.3-3.6-.5v-.6c1.9-1.4 3.7-3 5.7-4.1.7-.4 2.1.4 3.2.7.1.1.1.3.1.6zM235 275.6c2.1-3.8 3.9-3.9 7.7-.4-1.9.7-2.6 3.6-5.3 2.3-.8-.6-1.6-1.2-2.4-1.9zm140.5-102.4c-1.8 1.3-3.6 2.6-5.3 4-1.2 1-2.2 1.1-3.3-.3 2.8-2.2 5.6-4.5 8.5-6.6.4-.3 1.4.1 2.5.2-1.1 1.2-1.8 2-2.4 2.7-.1.1 0 0 0 0zM303.6 232c-.8.6-1.6 1.2-2.4 1.7-1.7 1.1-2.6-.4-4.1-1.2 1.9-1.5 3.4-3 5.3-4.1.8-.4 2.2.2 3.7.4-1.1 1.6-1.8 2.4-2.5 3.2zm-34.9 22.1c-3.5 3.8-4.3 3.9-7.7.9 3.6-3.9 4.1-4 7.7-.9zm-4.5-3.1c-3.9 3.9-4 3.9-7.8 1 3-3.9 3.8-4 7.8-1zm5.5-15.9c2-1.5 3.2-3 4.9-3.6 1.1-.4 2.7.4 4 .7 0 .3.1.5.1.8-1.7 1.2-3.2 2.6-5.1 3.4-.8.4-2.2-.6-3.9-1.3zm-133.4 95.2c5.2-4.3 4.3-3.5 7.4-.5 0 .1-.1.3-.2.4-1.3 1-2.5 2.6-4 2.9-.9 0-2.1-1.9-3.2-2.8zm162.3-94.2c-1 .8-2.1 1.6-3.1 2.3-1.7 1.1-3.4 2.2-5-.5 1.5-1.2 3-2.8 4.8-3.7 1.5-.8 2.6.6 3.3 1.9zm-68.2 36.4c1.1-3.5 4-3.8 7.6-.6-1.8.7-2.4 3.3-5 2.4-.9-.6-1.8-1.2-2.6-1.8zm200.7-159.7c0-1.4.1-2.3.1-3.3 2.8-1 5.6-2 8.6-3.1.1 1.4.2 2.4-1.4 3-2.4.8-4.7 2.1-7.3 3.4zM279.6 222.2c1.5-1.2 2.6-2 3.7-3 2.2-1.9 2.4-1.9 5.2 0-1.7 1.4-3.2 3-5.1 3.9-.8.5-2.2-.5-3.8-.9zm-141.3 103c0 .5.3 1.3 0 1.5-1.3 1.1-2.7 2.1-4.2 3.2-1-1.1-1.8-2-2.8-3.1 1.1-.8 2.2-1.6 3.4-2.5 1.7-1.3 2.3 1.1 3.6.9.1.1 0 0 0 0zM250.7 256c4.6-3.6 3.2-3.7 7.5-.3-3.1 3.4-4.5 3.5-7.5.3zm58.1-57.7c-2.1 1.6-4.2 3.4-6.5 4.8-.6.4-2-.4-3.5-.8 2.6-1.9 4.7-3.6 7-4.9.7-.4 1.9.2 2.9.3 0 .2 0 .4.1.6zm-53.3 60.9c4.4-3.5 3.2-3.8 7.4-.5-2.9 3.7-3.9 3.8-7.4.5zm28.5-11.1c-1 .8-2.1 1.5-3.1 2.3-1.2-.5-2.4-.9-4.1-1.6 1.8-1.5 3.1-2.9 4.6-3.5.9-.4 2.3.4 3.6.8-.5 1-.8 1.5-1 2zm7.1-40c2-1.5 4-3.2 6.2-4.5.6-.3 1.9.5 3.4.9-2.4 1.8-4.1 3.3-6.2 4.5-.8.5-2.2-.1-3.3-.2-.1-.3-.1-.5-.1-.7zm-19.5 30.1c-4.3 4.1-4.3 4.1-7.7 1.8 3-3.9 4.8-4.4 7.7-1.8zM94.4 343.7c.1-.2.2-.3.3-.5.2 0 .5-.2.6-.1 2.1 1 4.1 2.1 6.3 3.2-.2.3-.4.8-.6.8-2.2.2-4.4.8-6.4.3-1.4-.4-1.6-2.4-.2-3.7zm163.2-80.6c-3.5 3.4-4.3 3.4-7.3.2 3.2-3.3 3.3-3.3 7.3-.2zm24-38.7c-2.2 1.7-3.8 3.2-5.6 4.2-.8.4-2.2-.5-3.8-1 2.2-1.6 3.7-3.1 5.5-4 .9-.4 2.3.4 3.9.8zm-15.7 7.9c1.5-1.1 2.8-2.6 4.5-3.3 1-.4 2.5.4 3.7.7v.6c-1.5 1.1-2.9 2.6-4.5 3.3-1 .4-2.4-.4-3.7-.6v-.7zm23.8 10.9c-1.1.7-2.2 1.4-3.4 2.1-.8-.5-1.6-1.1-2.6-1.9 1.6-1.3 2.9-2.8 4.5-3.5.8-.4 2.3.4 3.7.8-1.1 1.2-1.7 1.9-2.2 2.5-.1.1 0 0 0 0zm-32.1 1.4c5.2-4.4 4-4 7.8-1.4-3.8 3.9-4.2 4-7.8 1.4zm34.8-34c-2.3 1.8-4 3.4-6 4.5-.7.4-2.1-.3-3.8-.6 2.5-1.9 4.3-3.4 6.3-4.6.7-.4 2 .3 3.5.7zm-46.9 49.6c4.2-3.5 2.9-3.5 7.2-.3-2.8 3.4-3.5 3.4-7.2.3zm27-2.8c-1 .8-2.1 1.5-3.1 2.3-1.4-.4-2.7-.8-4.1-1.1v-.8c1.5-1 2.9-2.3 4.6-2.8.6-.2 1.7 1.5 2.6 2.4zm127.2-104.7c-3.1 2.6-5.9 5-8.8 7.3-.6.4-1.5.4-2.3.6-.1-.3-.2-.6-.3-.8 3.3-2.6 6.7-5.2 10.1-7.7.1-.1.7.3 1.3.6zm-173.9 117c1.1-1.1 2-2.8 3.3-3.2 1-.3 2.5 1 3.8 1.5 0 .3.1.5.1.8-1.6.8-3.2 1.6-4.9 2.5-.7-.6-1.5-1.1-2.3-1.6zm41.4-34.2c-5.5 4.6-4.5 4.1-7.6 1.9 3-3.7 4.7-4.2 7.6-1.9zm11 17.3c-.8.5-1.6 1.1-2.3 1.6-2.2 1-2.2 1-4.6-1.1 1.1-.9 2.2-1.9 3.4-2.7.6-.4 1.5-.5 2.1-.3.8.5 2.1 1 1.4 2.5zm182.7-113.6c0-2.1 1.8-2 2.9-1.8 2.3.3 4.4 1.1 6.6 2-1.9 1.2-3.8 2.1-6.1 1.1-1.1-.6-2.3-.9-3.4-1.3-.1 0 0 0 0 0zm-14.8-32.4c-.5-2.2-.1-3.6 2.2-4.3 1.4-.4 2.7-1.3 4.2-2.1.4 3-1.9 5.3-6.4 6.4zM284.3 216.2c-5.8 5.6-6.1 5.5-8.6 3.4 1.8-1.3 3.4-2.7 5.3-3.8.6-.4 1.8.1 3.3.4zm-32 51.2c-3.3 3.2-3.7 3.2-7.1-.1 3.3-3.2 3.5-3.2 7.1.1zm24.2-44.8c-1.1.8-2.3 1.6-3.3 2.5-1.6 1.5-3.1 1.5-4.8-.2 1.6-1.2 3.1-2.6 4.9-3.5.8-.4 2.2.3 3.3.4 0 .3-.1.5-.1.8zm-29 41.4c-3.3 3.3-3.9 3.3-7 .1 3.8-3.4 2.9-3.1 7-.1zm11.7-16.1c-3.4 3.8-4 3.9-7.3 1.2 3.5-3.7 4.1-3.8 7.3-1.2zm-5.8-5.9c3.2-3.6 4.3-3.8 7.3-1.7-3.3 3.7-4.5 4-7.3 1.7zM144.3 379.4c-1.4 1.5-2.8 3.1-4.2 4.6-.5.3-1 .7-1.6.9-.4.1-1 0-1.4-.1.1-.5-.1-1.3.3-1.6 1.2-1.2 2.5-2.2 3.7-3.3.2-.2.2-.5.3-.8.3-.2.7-.5 1-.7.4-.3.8-.7 1.4-1.2.1 1 .3 1.6.5 2.2zm296.5-258.8c-3.4 1.2-6.8 2.5-10.2 3.7-1.9.7-3.8 1.4-5.8 2-.7.2-1.6 0-2.4 0 0-.3-.1-.5-.1-.8 6.1-1.7 12.2-3.4 18.4-5.1.1.1.1.1.1.2zM253.5 252.5c-4 3.4-4 3.4-7.2.7 4.4-3.9 3.3-3.4 7.2-.7zm13.3 9.6c-1 .8-2.1 1.5-3.1 2.3-1.3-.5-2.5-1-3.8-1.6v-.7c1.4-.9 2.7-2.3 4.2-2.6.6-.1 1.8 1.7 2.7 2.6zm-19.6 9.3c-3 2.9-3.1 2.9-6.7-.3 3.1-3.2 2.7-3.4 6.7.3zm-85 70.7c-.1-.5-.2-1-.2-1.5.6 0 1.3-.3 1.7 0 1.4 1 2.6 2.1 3.9 3.2.8.6 1.6 1.3 2.7 2.2-.3.5-.7 1.1-1.2 1.8-2.3-2-4.6-3.9-6.9-5.7zm107.6-114.9c-4.2 4.5-5.4 4.9-8.2 2.8 1.5-1.1 2.9-2.5 4.6-3.3.8-.3 2.1.3 3.6.5zm207.8-92.6c-1.2-.7-2.3-1.4-3.7-2.2 3.6-2.3 6.5.3 9.7 1-2 1-3.9 1.7-6 1.2-.1-.1 0 0 0 0zM261.1 266.8c-.8.6-1.6 1.1-2.4 1.7-1.3-.4-2.6-.8-3.9-1.3 0-.3-.1-.6-.1-.8 1.4-.8 2.7-2.1 4.2-2.3.7-.2 2.6.7 2.2 2.7zm-5.8-31.9c4.2-4.1 4.5-4.2 7.3-2-5.3 4.4-4.3 4.2-7.3 2zm-7.8 11.5c3.6-3.7 4-3.8 7-1.3-3.3 3.6-4 3.7-7 1.3zm-6.5 10.9c4-3.3 3.3-3.5 6.8-.6-3.1 3.3-3.4 3.4-6.8.6z"/><path class="bst1" d="M162.2 342.1c2.3 1.9 4.6 3.8 6.8 5.6.7.8 1.4 1.7 2.1 2.5-.2.1-.3.3-.5.4-1.4-1-2.7-2-4.1-3-1.6-1.4-3.3-2.8-4.9-4.2-.4-.5-.7-.9-1.5-1.9 1.1.3 1.6.4 2.1.6zm73.5-74.4c3.7-3.1 2.4-3 6.7.2-3.2 3.3-2.7 3-6.7-.2zm-13.3-.4c-.3-.4-.7-.9-1-1.3 3.6-3.2 4-3.3 6.8-.5-1.8.6-2.4 3.3-4.9 2.2-.4-.1-.6-.2-.9-.4zm19.4-16.7c4.7-3.8 3.4-3.4 6.9-1-4.2 3.7-3.5 3.5-6.9 1zm7.4-11.1c3.7-3.8 4.1-3.9 6.9-1.8-3 3.6-4.3 4-6.9 1.8zm239.7-111.6c-.2-2 1.5-1.7 2.4-1.6 2.3.3 4.6 1 6.9 1.7-2.2 1.1-4.3 2.1-6.8.6-.8-.4-1.7-.5-2.5-.7-.1-.1 0 0 0 0zm-246.3 133c-3.1 2.9-3.4 2.9-6.5.2 2.9-3.1 3.3-3.1 6.5-.2zm-12.2 11.6c.9.6 1.7 1.2 2.6 1.8.7 1 0 1.6-.7 2-.7.3-1.6.7-2.2.5-1.1-.5-2.1-1.4-3.6-2.4 1.5-.8 2.7-1.4 3.9-1.9zm6.2-18c3.6-3.1 3.6-3.1 6.5-.9-2.4 3.4-3.3 3.5-6.5.9zm-19.5 44.9c-.3-.3-.7-.6-1-.9.2-1.9.5-2.1 2.1-1 2 1.4 4 2.7 6.1 4.1.2.1.4.1.7.1-.1.7-.1 1.4-.2 1.9-2.5-1.4-5.1-2.8-7.7-4.2zm33-57c-5.2 4.1-3.8 3.4-6.9 1.6 2.8-3.4 4-3.7 6.9-1.6zm6 27.7c-3.6 2.9-3.6 2.9-6.2.5 2.8-3.3 3.2-3.4 6.2-.5z"/><path class="bst1" d="M488.8 127.8c1.5.9 2.9 1.8 4.6 2.9-.1.5-.4 1.4-.7 2.6-1.8-1.1-3.4-2-5-3-.3-.2-.5-1.2-.3-1.6.3-.4 1-.6 1.4-.9.1.1 0 0 0 0zM235 275.6l2.4 1.8c.3.6 1.3 1.1.1 1.8-.8.5-1.3 1.8-2.6.8-1-.8-2-1.4-3.4-2.4 1.3-.7 2.4-1.3 3.5-2zm225.8-136.4c1.5.9 3 1.8 4.7 2.8-.2.8-.5 1.7-.8 2.8-1.7-1.1-3.4-2.1-4.9-3.2-.3-.2-.4-1.2-.2-1.6.1-.5.8-.6 1.2-.8.1 0 0 0 0 0zm-34.2-22c-4.5 1.8-8.3 5.3-13.6 5.1 4.4-1.9 8.9-3.9 13.3-5.8.1.2.2.4.3.7zM217 263.9c.8-2.9 3.8-3.6 6.4-1.7-2.1 2.6-3.3 3-6.1 1.9 0 0-.2-.1-.3-.2zm260.5-129.4c1.6 1.4 1.6 1.4.4 3.9-1.5-.9-3-1.8-4.4-2.8-.5-.4-.6-1.5-1.1-2.7 2.2.7 3.7 1.2 5.1 1.6.1.1 0 0 0 0zM245.1 274.3c3.1-2.9 3.2-2.9 6-.3-2.4 3.3-2.7 3.3-6 .3zm-7.5-9.6c-3 2.9-3.3 2.9-6.3.1 2.6-2.8 2.9-2.8 6.3-.1zM400 150.6c.4-.3.7-.7 1.1-1 3-2.4 6-4.7 9-7.1.1.1.3.2.4.4-.7.6-1.3 1.2-2 1.8-.6.6-1.9.7-1.3 2.1.1.1-.5.5-.9.8-1.4 1.1-2.8 2.3-4.3 3.3-.5.3-1.2.3-1.8.4-.1-.2-.2-.5-.2-.7zm-155.8 96.2c-3.8 3.3-3.8 3.3-6.5 1.4 2.1-3.1 3.7-3.5 6.5-1.4zM137.1 378.5c-.5-1-1-2.1-1.5-3.1-.4-.6-.8-1.3-1.2-1.9 1.7-1 3.8-.5 4.4 1 .8 1.7.1 3.3-1.7 4zm100.8-120.6c-2.8 2.9-3.5 3-6.3.5 3.9-3.2 2.8-3.1 6.3-.5zm-5.7-5.9c3.4-3.2 3.4-3.2 6.3-1.1-2.6 3.1-3.5 3.3-6.3 1.1zm.6 9.8c-3.1 2.6-3.1 2.6-6 .2 2.8-2.9 3-3.1 6-.2zm-7 7.9c.8.5 1.5 1.1 2.3 1.6-.2 1.7-1.9 2.8-3.2 2.2-.4-.2-.8-.5-1.2-.8-.4-.3-.9-.7-1.8-1.4 1.6-.7 2.8-1.2 3.9-1.6zm1.2-13.9c3.3-3 3.5-3 6.2-1-2.5 3.1-2.9 3.2-6.2 1zm-76.1 92c-.7.4-1.4.7-2.4 1.2.7.5 1.2.7 1.6 1-.1.2-.3.4-.4.6-1.5-1.1-3.1-2.1-4.6-3.2 1.5.6 2.9.9 4.2-.6 1-1.1 2.1-2.1 3.4-3.2.4.3 1.1.8 2.3 1.5-1.8-.1-2.9.1-2.8 1.8h-.1l-.4.4c-.3.3-.6.4-.8.5zm104.8-70.9s.1 0 0 0c-.3 1.7-.7 3.4-1.1 5.2-.1-2.8-1.1-5.7.7-8.4 1.1-.8 2.1-1.6 3.2-2.4.3.1.6.1.9.2-.8.9-1.6 1.8-2.4 2.6-.4 1-.8 1.9-1.3 2.8zm-33.3-9.6c.3.1.6.3.9.4 0 .6.1 1.4-.2 1.6-.7.5-1.7 1.1-2.4.9-.9-.2-1.7-1.1-2.6-1.7 1.3-1.2 2.4-2.5 4.3-1.2zm0-7.9c3-2.7 3-2.7 5.7-.6-2.4 2.8-2.6 2.8-5.7.6zm-70.1 97.1c-1.2-.9-2.4-1.8-3.5-2.7v-1.1c1.9.9 3.7 1.6 5.3 2.7 1 .6 1.6 1.7 2.1 2.9-1.3-.7-2.6-1.3-3.9-1.8zm-51.2-11.4c-1.7-.9-3.4-1.7-5.4-2.7 1.8-1 3.4-1.6 4.9-.5.7.5.8 1.8 1.2 2.8-.2.1-.5.3-.7.4z"/><path class="bst1" d="M217 263.9c.1.1.3.2.4.2.5.5 1.1 1 1.6 1.6-2.3 2.3-2.4 2.3-5.6-.4 1.4-.5 2.5-.9 3.6-1.4zm-55.1 75.9c-.6.2-1.1.6-1.4.4-.9-.3-1.6-.9-2.5-1.4-.8-.5-2.2-.8-1.3-2 .3-.4 1.9-.2 2.6.2.9.6 1.5 1.7 2.6 2.8zm-24.2 42.1c-2.4 2.1-3.7 2.3-5.6.8-1-.7-2-1.5-2.9-2.4-.3-.3-.4-1-.5-1.5 0-.1.7-.5.7-.4.3.3.6.7.8 1.1 1.4 2.8 3 3.4 7.5 2.4zm25.7-25.3c-.1.1-.1.3-.2.4-.7.5-1.5.9-2.2 1.4-1.4-2.4-1.4-2.4 1.4-4.7.3 1 .6 1.9 1 2.9zM38.9 461.8c-.7 0-1.5.1-2.5.1.2-.6.4-1 .4-1-.5-.3-.9-.5-1.3-.7.8-.7 1.6-1.3 2.5-2 1.6-.6 1.7.4 1.5 1.5 0 .7-.3 1.4-.6 2.1.1 0 0 0 0 0zm173.9-165.6c-.5-.3-1-.7-1.5-1 .1-.6.2-1.1.4-1.7.5.2 1 .2 1.5.5 1 .6 1.9 1.4 2.8 2.1-.1.2-.1.5-.2.7l-3-.6zM151.5 333c1.6-1.2 1.9-1 4.9 2.6-1.2.8-2.5.2-4.9-2.6zm92.5-52.6c.8-.6 1.6-1.1 2.4-1.7.8-.6 1.6-1.2 2.5-1.8.1.1.1.2.2.2-1.8 2-3.6 4-5.3 6-.2-.1-.5-.3-.7-.4.3-.7.6-1.5.9-2.3zm-36.2 12.5c-.3-.4-.7-.7-1-1.1v-1.9c.6.2 1.2.3 1.6.6.9.6 1.7 1.3 2.6 2-.1.2-.1.4-.2.5-.9.1-2 0-3-.1zm199.6-173.1c.3-1.4.5-2.3.8-3.4 1.4.6 2.7 1.2 4.4 1.9-2 .6-3.4 1-5.2 1.5z"/><path class="bst1" d="M38.1 458.2c-.8.7-1.6 1.3-2.5 2-.5-.5-1-.9-1.7-1.5 1-.7 1.8-1.4 2.8-1.8.4-.2 1.1.2 1.6.4 0 0-.1.5-.2.9zm165-168.7c-.2-.2-.4-.3-.6-.5-.2-.6-.4-1.3-.6-2.1 1.9-.5 2.7 1.4 4.1 2v.6c-1 .1-2 0-2.9 0zM92.7 347.1c1.2 2.7 3.4 3.4 6.1 3.2v.6c-1 .2-2.2.9-2.8.6-1.4-1-3.2-2.1-3.3-4.4zm389.8-211.8c.1 2.2-1.1 2.9-3 2.9-.3-2.5-.2-2.7 3-2.9zM146.4 328.2c-.9-.2-2-.1-2.8-.5-.6-.3-.8-1.2-1.3-1.8.5-.2 1.1-.7 1.3-.6 1 .6 1.9 1.4 2.8 2.1.1.2 0 .5 0 .8zm0 24c-.4-.4-.9-.8-1.3-1.3l-1.8-1.8.4-.4c1.7.8 3.3 1.7 5 2.5-.1.3-.1.5-.2.8-.7.1-1.4.2-2.1.2zm329.5-223.7c.9-2.4 3.6-3.4 5.8-2.3-2 .8-3.8 1.5-5.8 2.3zM145.5 342.7c-.3.5-.6 1-1 1.4-.4.5-.8.9-1.3 1.6.8 0 1.1 0 1.6-.1-1 1.1-2.4.5-5.1-2.1 1 .2 2 .8 2.8.6.9-.2 1.7-1.1 2.6-1.7.2.1.3.2.4.3zm-7-19.3c-.1-.5-.2-1.1-.3-1.6.5.1 1.1.1 1.6.3.2 0 .4.2.5.4l1.6 1.6c-.7.1-1.5.2-2.2.4-.5-.5-.9-.8-1.2-1.1zm274.8-208.8c-.2 1.1-.4 1.9-.6 3-1.3-.6-2.4-1-4-1.7 1.8-.5 3-.9 4.6-1.3zm32.9 25.4c-2.2-1-4.4-1.9-6.8-3 3.6 0 7.2 1.5 6.8 3zm19.6 4.4c-.2-2.6 1.5-2.9 3.3-3-.1 2.5-.1 2.6-3.3 3zM198.6 286.3c-.3-.3-.7-.5-1-.8 0-.6.1-1.2.1-1.7.6.1 1.2.2 1.7.4.7.4 1.2.9 2.4 1.7-1.5.2-2.4.3-3.2.4zM497 130.1c.1 2.4-1.3 2.7-3.2 2.8-.1-2.4 1.1-3 3.2-2.8zM151.4 331.8c-2.3.5-3.1-1.5-4.6-2.2 1.2-1.3 2.3-.8 4.6 2.2z"/><path class="bst1" d="M142.7 343.5c-.7-.5-1.3-.8-2-1.4.6-.8 1.2-1.5 1.8-2.2 1.9 1 1.9 1 .2 3.6zm-24.8-13l2.4 3c.2.3.2.8.3 1.2-.4 0-.8.2-1.1 0-1.6-.5-2.1-2.1-1.6-4.2zm21.3 9.6c-.1.6-.4 1.5-.7 2.7-1.3-.9-2.8-1.9-4.1-2.7h4.8zm57.8-57.5c-1.7.9-2.8.2-3.9-.6-.2-.1-.2-.9 0-1.1.2-.2.8-.4 1.1-.2.9.5 1.7 1.1 2.8 1.9zm270.4-151.5c-2.3 1-4.2 1.8-6.1 2.6.5-1.7 3.2-2.9 6.1-2.6zM142.2 378.4c-.3.2-.7.5-1 .7-.4.3-.8.5-1.7 1.1.7-1.6 1.2-2.8 1.7-4v.1c.6-.1 1.1-.2 1.9-.4-.4 1.1-.6 1.8-.9 2.5zm-12.4-46.9c.5-.6 1-1.2 1.6-1.9-.6-.4-1-.8-1.5-1.2.1-.1.1-.2.2-.3 1 .6 2 1.3 3.2 2.1-1.3.7-2.3 1.2-3.3 1.8-.1-.2-.1-.4-.2-.5zm12.8 17c-1.5-.9-3-1.9-4.5-2.8.1-.2.2-.4.4-.6 1.6.8 3.1 1.6 4.7 2.4-.2.3-.4.6-.6 1zm277.2-230.8c-2.2 1-4.4 1.9-6.6 2.9-.1-.2-.2-.5-.3-.7 2.2-.9 4.5-1.7 6.7-2.6.1.1.1.2.2.4zm-282 225.9c-1.3.9-4.2-.8-4.7-2.5 1.5.9 3.1 1.7 4.7 2.5zm-5.3-3.7c-1.7 1.3-2.4-.2-3.4-.7-.5-.2-.9-.9-.9-1.5 1.4.7 2.7 1.4 4.3 2.2zm288.7-212.5c-1.7 1.7-2.6.3-3.7-.3.1-.2.1-.4.2-.7 1.1.4 2.3.7 3.5 1zM133.8 336.5c-.2.8-.4 1.6-.7 2.6-1.3-1-2.5-1.9-3.8-2.8 1.5.3 2.8 1.9 4.5.2zm4.7-13.1l1.2.9.3.9h-1.7.1c-.6-.6-1.3-1.2-1.9-1.8 0-.2.1-.4.1-.5.6.2 1.2.3 1.9.5zm-15.8 10.7c1.9.9 3.1 1.4 4.4 2.1-1.1 2-1.9.2-2.7-.1-.6-.3-1-1.2-1.7-2zm289.1-192.9l1-1c1.6-1.3 3.3-2.6 5.2-3.6-2 1.6-3.9 3.2-5.9 4.9 0-.1-.1-.2-.3-.3zM228.7 351.7c-.2.3-.5.5-.7.8.2-.5.4-1 .5-1.4.1.2.2.4.2.6zm-77.8-3.9c.2-.1.5-.3.7-.4-.2.2-.5.3-.7.4zm77.7 3.2c-.1-.3-.2-.5-.3-.8.1.3.2.6.3.8zm-76.6-4zM38.9 461.8s.1 0 0 0c.1 0 0 0 0 0zM227.3 356l.3.6c-.2 0-.4-.1-.6-.1.1-.2.2-.4.3-.5zm284.1 63.8c.8.8 1.4 1.1 1.5 1.6.1.5-.5 1-.7 1.5-.4-.3-1.1-.6-1.3-1-.1-.5.3-1.1.5-2.1zm-368.5 24.1c-1.4-5.6 2.1-11.3 8-12.8 5.4-1.4 10.6 1.5 11.9 6.5 1.4 5.5-2.4 11.2-8.5 12.7-4.8 1.3-11-2.1-11.4-6.4zm3.3-9.3c-.5.5-.9.9-1.2 1.3-3 4.1-2.4 10.9 3.3 13.1 4.7 1.8 8.3.1 11.6-2.9 2.7-2.5 3.1-7.2 1.3-10.6-1.3-2.5-5.1-4.2-8.4-3.7 5.5 3.4 6.8 5.9 5.1 9.5-1.8 3.9-5.6 4.9-8.7 3.7-2.9-1.3-4.7-3.5-3-10.4zm5.8 6.7c2.5-.7 4.4-3.4 3.8-5.5-.7-2.4-3.2-3.8-5.6-3.2-2.5.7-4.6 3.5-4 5.4 1 2.9 3.7 4.3 5.8 3.3zm-43.9-13.4c1.2-2.9 6.6-4.9 10.1-4.1 3.9.9 6.6 4 6.8 7.9.4 7.1-6.6 13.1-13.5 11.5-3.2-.8-5.3-2.8-6-6.1-.6-3.1-.5-6 2.2-8.3-1 1.7-.8 3.5.4 4.9 1.2 1.4 3 1.7 4.8.9 1.9-.8 3.6-3.2 3.3-4.9-.4-1.8-1.2-3.8-3.3-3.7-1.7.2-3.2 1.3-4.8 1.9zm5-2.9c5.6 2.7 6.9 4.1 6.7 7.1-.2 2.8-2.8 5.7-6.1 6.3-4.6.9-5.8-2.8-7.4-6.1-1.5 4.7 1.5 10.2 6.6 10.4 4.4.1 9.2-2.7 10.6-7.3 1-3.1.7-6.1-1.4-8.5-2.2-2.5-5.3-3.1-9-1.9zm75.3-25.3c2.1.8 4.4 1.1 6.2 2.4 4 2.8 4.3 7.7 1.1 11.9-4.4 5.7-13.3 5.5-17.1-.4-1.7-2.6-1.3-6.7.9-8.9-.2.5-.3 1-.5 1.5-1.8 4.4-.1 8.4 3.8 10 4.7 1.9 8.5 1.2 12.2-2.7 2-2.1 2.6-4.8 1.6-7.5-.9-2.4-2.4-4.4-5.4-4.8 1.7 2.7 3.5 5.3 1.4 8.4-1.8 2.6-4.6 3.6-7.6 2.8-4.1-1.1-4.7-4.4-3.8-8.2-.9.3-1.3.5-1.8.6 1-3.2 5.8-5.9 8.8-4.9-1 .1-2 .1-2.9.4-1.6.7-3.3 1.5-3.4 3.8 0 2.1 1.3 3.3 3.1 3.9 1.4.5 4.3-.4 5.3-1.7 1.2-1.6 1.2-3.2 0-4.8-.4-.7-1.2-1.2-1.9-1.8zm-48.3 3.9c-2.3-5 5-14 10.5-12.2 1.4.5 3 .4 4.3 1 5.5 2.5 6.6 8.3 2.6 13.4-3.3 4.1-9.5 5.3-13.9 2.4-1.5-1-2.6-2.7-3.9-4.1.1-.2.2-.3.4-.5zm12-11.2c2.7 2.6 4.3 5.3 2.4 8.5-1.3 2.2-3.6 3.6-6.4 3.4-5-.5-5.9-3.9-5.3-8.5-4 4.7-2.8 10.1 2.3 12.2 4.1 1.7 7.5.5 10.8-2.1 2.7-2.1 3.4-4.9 2.9-8-.3-2.7-3.1-4.9-6.7-5.5zm-3.2 7.3c2.7-.8 4.5-3.1 3.9-5-.7-2.3-3-3.4-5.6-2.7-2.6.7-4.3 3-3.7 4.8.8 2.5 2.9 3.7 5.4 2.9zm49.9-158.6c-1.3.8-2.4 1.4-3.5 2 0-.1-.1-.1-.1-.2.4-.3.7-.8 1.2-1 1.5-.8 2.3-1.6 1.8-3.6-.2-.7 1-2 1.8-2.6 1.2-.8 2.7 0 3 1 .7 2.4 2.3 2.1 4.1 2 .3 0 .6.1 1 .4-1.2.1-2.3.2-3.8.3.6 1.9-.1 4.2 2.2 5.3.1 0 .2.1.2.1-.1 1 .1 2.1-.3 2.9-.7 1.4-3.8 2.2-5.1 1.4-.7-.5-1.7-2-1.5-2.3 1.2-2.2-.6-3.6-1-5.7z"/><path class="bst1" d="M108.1 427.9c1.6-.6 3.1-1.8 4.7-1.8 2.1-.1 2.9 1.9 3.3 3.7.4 1.8-1.4 4.2-3.3 4.9-1.8.8-3.6.5-4.8-.9-1.2-1.4-1.5-3.2-.4-4.9.2-.3.3-.7.5-1zm80.3-28.2c.7.6 1.5 1.1 2 1.8 1.2 1.5 1.2 3.2 0 4.8-1 1.3-3.9 2.2-5.3 1.7-1.9-.7-3.1-1.8-3.1-3.9 0-2.2 1.7-3 3.4-3.8.9-.4 1.9-.3 2.9-.4-.1-.1 0-.2.1-.2zm-10.7 55c-3.8 2.8-7.4 5.8-11.3 8.3-8 5.1-16.6 9.1-25.8 11.9-12.6 3.8-25.4 5.6-38.5 4.8-.6 0-1.1-.4-1.6-.6 7.3-.2 14.6 0 21.8-.8 9.2-.9 18-3.5 26.6-7 9.9-4 18.9-9.5 27.4-15.9.5-.3 1-.4 1.4-.7zm36.4-213.3c2.5 2.1 2.9 4.6 1.5 7.9-2.5 6.1-14 11.5-21.8 6.1-2-1.4-2.5-3.2-2.5-5.8 2.4 6.3 6.5 8.2 12.8 6.6 3.1-.8 6-2 8.5-4.1 3.5-3.2 4.1-6.7 1.5-10.7zm-47.4 113.2c.7 3.8-1.8 7-5.9 7.9-3.3.8-6.3-.5-7-3 4.4 4 11.8 1.2 12.9-4.9zm60.3 12.7c-.3 2.6-.4 5.3-1 7.9-1.8 8.3-3.7 16.5-5.6 24.8-.1.3-.2.5-.4.7 0-.5-.1-1 .1-1.4 3.3-9.9 4.7-20.1 6.4-30.3 0-.6.3-1.2.5-1.7z"/><path class="bst1" d="M198.7 248.6c3.3 2.6 8.4.9 9.5-2.6.2.1.4.2.6.2-.4 1-.6 2.1-1.2 2.9-1.4 1.9-4.4 2.8-6.6 2.1-1.2-.4-2.4-.9-2.3-2.6zm-106 229.9c-4.3-.9-8.6-1.7-12.9-2.6 4.3.9 8.6 1.7 12.9 2.6zm49.5-100.1c.2-.7.5-1.5.8-2.5-.8.1-1.3.3-1.9.4.6-.3 1.4-1 1.8-.8 1.5.7 2 2.6 1.3 3.9-.2-.6-.3-1.2-.6-2.1-.6.5-1 .8-1.4 1.1zm-6.7-11.5c2.1-2.4 4.2-4.9 6.4-7.3-.3.6-.6 1.3-1 1.9l-5.4 5.4zm-7.9-41.2c-.2 0-.5 0-.6-.1-1.9-1.8-4-1.8-6.3-.7 1.9-2.3 4.4-2 6.9.8zm14.1 168.9c-5.7.7-12 1.6-18.4 2.2-1 .1-2.5-1-3.3-1.9-2-2.5-3.7-5.1-5.4-7.8-.7-1-.6-2.1.8-2.5 1.7-.5 3.5-1 5.3-1.3 4.7-.7 9.5-1.1 14.2-1.9 2.4-.4 4 .7 5.2 2.4 1.4 2 2.7 4.1 4 6.2 1.4 2.6.9 3.7-2.4 4.6zm-12.3-6c-.5.3-1 .7-1.5 1 .5.3 1 .6 1.5.8.4.1.8.2 1.2.2.9-.1 1.9-.3 2.8-.4-.7-.4-1.5-.9-2.2-1.3 2.4-.7 3.7.9 4.2 2.7.3 1-.5 2.3-.8 3.4.3 0 1.2 0 2-.2 1-.2 2.6-.3 2.7-.8.5-2.4 2.2-1.4 3.9-1.6-1.7-2.7-3.3-5.2-4.9-7.7-2.3 1.7-3.5 1.5-4.9-.7-2.6.2-5.2.5-7.7.7 3-.5 6-1.1 9-1.6 0-.2-.1-.4-.1-.7-5.9.8-11.9 1.7-17.8 2.5v.6h1.3c2.5-.2 5.1-.5 7.6-.7-2.4.4-4.8.8-7 1.2 1 2.8-1.6 1.9-2.6 2.7 1.6 2.3 3.1 4.6 4.6 6.7 1.8-.4 3.3-.7 4.9-1-.1-.7-.2-1.3-.3-2.1-.7.3-1.3.6-2.6 1.1.4-1.4.5-2.7 1.1-3.3 1.6-1.6 3.5-2.1 5.6-1.5zm2.5 5.2v-1.1H127v.9c1.7.1 3.3.1 4.9.2zm75.5-141.4c-2.8 2.5-3.9 2.3-5.2-1 3.5-2.1 4.1-2 5.2 1zm42.9-68.7c-1.1-.6-1.9-1.1-2.7-1.5.6-.7 1-1.8 1.7-2 .7-.2 1.7.6 2.5.9-.4.7-.8 1.5-1.5 2.6z"/><path class="bst1" d="M207.4 352.4c-1.1-2.9-1.7-3-5.2-1 .9-1.8 2.3-2.4 4.2-1.7 1.3.5 1.9 1.3 1 2.7zm27.1-9.6c3-2.5 5.7-5.5 9.1-7.3 7.1-3.7 14.5-6.9 21.9-10.1 6.5-2.8 12.9-5.7 18.6-10 .6-.5 1.3-.7 2-1.1-4.7 4.3-10.3 7.2-16.1 9.7-7.2 3.1-14.6 5.9-21.7 9.3-4.2 2-7.8 5.1-11.7 7.7-.7.7-1.4 1.3-2.1 1.8zm25-71.2c-.3-.1-.6-.1-.9-.2 2-1.8 3.9-3.7 5.9-5.5.1.2.3.3.4.5-1.9 1.7-3.6 3.5-5.4 5.2zm-36.3 5.7c1 .6 1.7 1 2.3 1.4-.4.6-.7 1.6-1.3 1.8-.5.1-1.5-.4-1.9-1-.2-.2.4-1.1.9-2.2zm-45 61.7c1.7-1.4 3.4-2.9 5.1-4.3-.4.5-.9 1-1.2 1.4.5.6 1.1 1.2 1.2 1.9.1.3-.7 1.3-1.1 1.3-.9 0-1.8-.5-3.1-.8 0-.1-.4.2-.9.5zm39.7-63.9c.2-.1.4-.3.6-.2.8.2 1.6.4 2.4.7-.2.6-.2 1.4-.5 1.6-.6.3-1.8.5-2 .2-.5-.7-.4-1.6-.5-2.3 0-.1 0 0 0 0zm10.2 77.4c-.1.3-.1.7-.2 1 0-.4.1-.7.2-1zm-.2.9c-.1.3-.1.7-.2 1 .1-.3.1-.7.2-1zm-.2.9c-.1.3-.1.7-.2 1 .1-.3.2-.6.2-1zm-.2 1c-.1.3-.2.5-.3.8.2-.3.3-.6.3-.8zm-81.3 79.3c-1.6 6.9.1 9.1 3 10.3 3.1 1.3 6.9.2 8.7-3.7 1.7-3.6.4-6.1-5.1-9.5 3.3-.5 7.1 1.1 8.4 3.7 1.8 3.5 1.4 8.2-1.3 10.6-3.3 3.1-6.9 4.7-11.6 2.9-5.8-2.2-6.3-9-3.3-13.1.3-.4.7-.7 1.2-1.2z"/><path class="bst1" d="M152 441.3c-2.2 1-4.8-.4-5.8-3.3-.6-1.9 1.5-4.8 4-5.4 2.4-.6 4.9.8 5.6 3.2.6 2.1-1.2 4.8-3.8 5.5zM113.1 425c3.7-1.2 6.8-.7 9.1 1.9 2.1 2.4 2.3 5.4 1.4 8.5-1.5 4.6-6.2 7.5-10.6 7.3-5.1-.1-8.1-5.6-6.6-10.4 1.6 3.3 2.9 7 7.4 6.1 3.3-.7 5.8-3.5 6.1-6.3.2-3-1.2-4.4-6.8-7.1zm66.3-20.3c.4-.2.9-.3 1.8-.6-.9 3.8-.2 7.1 3.8 8.2 3 .8 5.8-.1 7.6-2.8 2.1-3.1.3-5.7-1.4-8.4 3 .5 4.6 2.4 5.4 4.8 1 2.7.4 5.4-1.6 7.5-3.7 3.8-7.5 4.6-12.2 2.7-3.9-1.6-5.6-5.6-3.8-10 .1-.5.3-1 .4-1.4 0-.1 0 0 0 0zm-27.3-12.3c3.5.6 6.3 2.8 6.7 5.5.5 3.1-.2 5.9-2.9 8-3.3 2.5-6.7 3.8-10.8 2.1-5-2.1-6.3-7.5-2.3-12.2-.6 4.6.3 8.1 5.3 8.5 2.8.3 5.1-1.2 6.4-3.4 2-3.2.3-5.9-2.4-8.5z"/><path class="bst1" d="M148.9 399.7c-2.5.7-4.7-.4-5.4-2.8-.6-1.9 1.1-4.1 3.7-4.8 2.6-.7 4.8.3 5.6 2.7.6 1.8-1.2 4.1-3.9 4.9zm-23 84.9c2.6-.2 5.1-.5 7.7-.7 1.4 2.1 2.5 2.3 4.9.7 1.6 2.5 3.2 5 4.9 7.7-1.7.2-3.5-.8-3.9 1.6-.1.4-1.7.6-2.7.8-.9.2-1.8.2-2 .2.3-1.1 1.1-2.4.8-3.4-.6-1.8-1.8-3.4-4.2-2.7-.6-.1-1.2-.1-1.8-.2-2.1-.6-4 0-5.5 1.4-.6.6-.7 1.9-1.1 3.3 1.3-.6 1.9-.8 2.6-1.1.1.8.2 1.4.3 2.1-1.5.3-3 .6-4.9 1-1.4-2.1-3-4.4-4.6-6.7 1.1-.8 3.7.2 2.6-2.7 2.2-.4 4.6-.8 6.9-1.3.1.1 0 0 0 0zm12.3 6.3c-.2-3.5-4.8-5.5-10.7-5-4.1.4-6.5 2.2-6.2 4.5 4.2-3.9 12-3.8 16.9.5z"/><path class="bst1" d="M126 484.7c-2.5.3-5.1.5-7.6.7h-1.3v-.6c5.9-.8 11.9-1.7 17.8-2.5 0 .2.1.4.1.7-3.1.5-6.1 1.1-9 1.7-.1-.1 0 0 0 0zm3.4 3.9c.6.1 1.2.1 1.8.2.7.4 1.5.9 2.2 1.3-.9.1-1.9.3-2.8.4-.4 0-.9 0-1.2-.2-.5-.2-1-.5-1.5-.8l1.5-.9zm2.5 5.2c-1.6-.1-3.2-.1-4.9-.2v-.9h4.9v1.1z"/><path class="bst1" d="M138.2 490.9c-4.8-4.3-12.7-4.4-16.8-.4-.4-2.3 2.1-4.1 6.2-4.5 5.8-.6 10.3 1.4 10.6 4.9z"/></g></svg><svg id="colored_jsdlogo" viewBox="-1 -1 362 362" width="362" height="362" y="452" xmlns="http://www.w3.org/2000/svg"><style>.cst0{fill:#31c1d2}.cst1{fill:#fff}.cst2{fill:#ee4d25}</style><path class="cst0" d="M144.1 243c-9.8 0-17.7-9.4-17.7-20.9 0-11.5 8-20.9 17.7-20.9 9.8 0 17.7 9.4 17.7 20.9 0 11.5-8 20.9-17.7 20.9zm0-39.9c-8.7 0-15.9 8.5-15.9 18.9s7.1 18.9 15.9 18.9S160 232.4 160 222s-7.2-18.9-15.9-18.9z"/><path class="cst1" d="M162.4 220.5h-17.9V200h-2.1v20.5h-16.7v2.5h16.7v20.5h2.1V223h17.9z"/><path class="cst1" d="M145.1 244.1h-3.3v-20.5h-16.6v-3.7h16.6v-20.5h3.3v20.5H163v3.7h-17.9v20.5zm-2.1-1.2h1v-20.5h17.9V221H144v-20.5h-1V221h-16.6v1.4H143v20.5z"/><path class="cst2" d="M160.8 210.4c2.6 2.3 3 3.3 2.1 6.2-.7-2-1.4-4-2.1-6.2zm-11.3 33.4c1.7-.8 3.3-1.6 4.9-2.4-.9 2.4-2.9 3.6-4.9 2.4zM139 200.1c-1.3.6-2.5 1.2-3.7 1.8 1.2-2.2 1.9-2.5 3.7-1.8zm-13.1 28.2c.6 1.8 1.3 3.7 1.9 5.5-2.3-1.6-2.8-3-1.9-5.5zm37.1-.8c.7 2.6 0 4.9-2 5.6.7-1.9 1.4-3.8 2-5.6zm-23 17c-3.3.5-4 .1-5-2.5 1.6.8 3.3 1.6 5 2.5zM128.3 209c-.7 2.1-1.5 4.2-2.2 6.2-1-3.1.3-5.7 2.2-6.2zm20.7-9.2c3.5-.6 4.4-.1 5.5 2.8-1.9-.9-3.7-1.8-5.5-2.8z"/><path class="cst0" d="M54.4 190.3c0 .1 0 .2-.2.2h-2l-.3-.6c-.3.4-.7.6-1.2.6-.6 0-1.1-.3-1.4-.8-.3-.4-.4-1-.4-1.6v-3.2c0-.7.4-1.4 1.2-1.9 1.2-.6 1.8-1.1 1.8-1.3V179c0-.3-.1-.5-.4-.5-.2 0-.3.2-.3.5v2.8h-2.3v-3.1c0-.6.3-1 .9-1.4.5-.3 1.1-.5 1.7-.5.6 0 1.2.2 1.7.5.6.3.9.8.9 1.4v10.2c0 .6.1 1.1.3 1.4zm-2.5-2.4V184l-.5.5c-.2.2-.3.5-.3.7v2.7c0 .4.1.5.4.5.3.1.4-.1.4-.5zm9.7 2.6h-2.5v-10.9c0-.3-.2-.5-.5-.5s-.5.2-.5.5v10.9h-2.6v-13.3h2.6v.5c.4-.3 1-.5 1.6-.5.6 0 1 .1 1.4.4.4.3.6.7.6 1.3v11.6zm7.4 0h-2.6v-.6c-.4.4-.9.6-1.5.6s-1.2-.3-1.5-.7c-.4-.4-.6-1-.6-1.6V179c0-.6.2-1 .7-1.3.4-.3.9-.4 1.5-.4s1.1.1 1.5.4V173H69v17.5zm-2.6-2.3v-8.6c0-.5-.2-.7-.6-.7-.4 0-.6.2-.6.7v8.6c0 .4.2.6.6.6.3 0 .5-.2.6-.6zm11.2 2.6H76c-1.7 0-2.6-1.1-2.6-3.2v-8.3h-1v-2.2h1V174H76v3.2h1.3v2.2H76v8.5c0 .5.4.8 1.1.8h.5v2.1zm6.8-.3h-2.6v-10.9c0-.3-.2-.5-.5-.5s-.5.2-.5.5v10.9h-2.6V173h2.6v4.7c.4-.3.8-.5 1.3-.5 1.4 0 2.2.5 2.2 1.7v11.6zm6.4-2.2c0 .7-.3 1.3-.8 1.8s-1.1.7-1.9.8c-.8 0-1.4-.2-1.9-.7-.5-.5-.8-1.1-.8-1.9v-9.4c0-.6.3-1.1.9-1.6.5-.4 1.1-.6 1.8-.6s1.3.2 1.8.5c.6.4.9 1 .9 1.6v5.2h-3.2v4.3c0 .3.2.5.5.5.4 0 .6-.2.6-.5v-3.5h2.1v3.5zm-2.1-6v-2.9c0-.3-.2-.5-.5-.5-.4 0-.6.2-.6.5v2.9h1.1z"/><path class="cst2" d="M55.1 99.8v59.5c0 2.9-1.4 5.4-4.3 7.4-2.6 1.8-5.4 2.6-8.4 2.6-3.2-.1-6-.9-8.4-2.5-2.7-1.9-4-4.4-4-7.4v-17.2h10.1v16.2c0 1.7.8 2.5 2.4 2.6 1.7.1 2.6-.7 2.6-2.3V99.8m35.7 68c.2.4-.1.6-.8.6h-7.7l-1.1-2.5c-1 1.7-2.7 2.5-4.9 2.5-2.5 0-4.4-1-5.7-3-1.1-1.7-1.7-3.9-1.7-6.4v-12.8c0-2.9 1.6-5.4 4.9-7.6 4.8-2.5 7.1-4.2 7.1-5.2v-10.8c0-1.4-.6-2-1.7-1.9-.9.1-1.4.7-1.4 1.9v11.2h-8.9v-12.2c0-2.2 1.2-4.1 3.7-5.6 2.1-1.3 4.4-1.9 6.8-1.9 2.5 0 4.8.6 6.8 1.8 2.4 1.4 3.6 3.3 3.6 5.7v40.3c0 2.4.3 4.4 1 5.9zm-9.8-9.4v-15.5c-1.1 1.1-1.8 1.9-2.1 2.1-.7.9-1 1.8-1 2.7-.1 4-.1 7.4 0 10.5 0 1.4.5 2.1 1.6 2.1 1 .2 1.5-.5 1.5-1.9zm85.7-56.3c-2.5-1.8-5.2-2.6-8.3-2.6-3 .1-5.6 1-8 2.7-2.6 1.9-4 4.4-4 7.2V128c0 2 1.2 4.2 3.6 6.6.3.3 2.5 2.3 6.6 5.8 2.5 2.1 3.7 3.6 3.7 4.6v15.2c0 1.2-.6 1.9-1.7 2-1.3.2-1.9-.5-1.9-2.1v-16.4h-10.3v16.4c0 3.1 1.2 5.7 3.7 7.7s5.3 3.1 8.4 3.1c3.1 0 5.9-1 8.4-3.1 2.5-2 3.7-4.6 3.7-7.6V144c0-2.1-1.2-4.4-3.6-6.7-3-2.8-5.2-4.8-6.8-6.1-2.4-2.2-3.5-3.9-3.5-5.3v-16.3c.1-.9.6-1.3 1.5-1.5 1.2-.2 1.9.3 2.1 1.5v16h10.3v-16.2c0-2.8-1.3-5.2-3.9-7.3zm17.9 42.7l6.1 25h10.4l-8.3-31.8 6-20.5h-9.7l-4.5 17.5v-34h-10.3v68.8h10.3zm32-16.5v15.5h10.3v-19.7c0-2.1-.7-3.8-2.1-5.2-1.4-1.3-3.1-2-5.2-2-2.9 0-5.1 1.1-6.6 3.3v-2.8h-9.7v52.3h10.3v-41.5c0-1 .6-1.5 1.7-1.5.9 0 1.3.5 1.3 1.6zm14.5-25.9h10.1v10.9h-10.1zm0 14.7h10.1v52.7h-10.1zm62.7 45.7h-2.1c-2.8-.1-4.2-1.1-4.2-3.1v-33.6h5.1v-8.7h-5.1v-12.7h-10.3v12.7h-4.1v8.7h4.1v32.7c0 8.3 3.4 12.5 10.3 12.5h6.3v-8.5zm-164.1 16.7c-2-1.8-4.4-2.7-7.4-2.7H107V116h-9.5v38.8c0 1.4-.6 2.1-1.9 2.1-1.3 0-1.9-.7-1.9-2.1V116h-9.5v38.6c0 2.9.6 5.3 1.9 7.1 1.4 2.2 3.6 3.3 6.4 3.4 1.5.1 3.3-.4 5.3-1.4v81.9h14.5c2.7 0 5.1-.8 7.2-2.5 2.1-1.7 3.1-3.8 3.1-6.5v-49.8c0-3-1-5.5-2.9-7.3zm-7.5 56.4c0 1.1-.7 1.6-2.1 1.6h-1.9v-52.8h1.8c1.4 0 2.1.5 2.1 1.6v49.6zm88.7-40.9c-1.6-1.1-3.6-1.7-5.9-1.7-3.4 0-6 1-7.7 2.9-1.7-1.9-3.8-2.9-6.4-2.9-1.9 0-3.7.6-5.2 1.8v-1.8h-10.1v52.2H176v-42.9c0-1.2.6-1.8 1.9-1.9 1.2 0 1.8.6 1.8 1.9v42.9h10.1v-42.9c0-1.1.6-1.7 1.8-1.7 1.2 0 1.8.6 1.8 1.8v43h10.3v-45.4c0-2.3-.9-4.1-2.8-5.3zm25.2-1.3c-2.4-1.3-5-1.9-7.6-1.8-2.6.1-5 .7-7.4 2-2.8 1.5-4.1 3.4-4.1 5.8V214c0 1.8 2.2 4.3 6.7 7.4 4.5 3.1 6.7 5 6.7 5.7v11.5c0 1.2-.6 1.8-1.7 1.8s-1.7-.6-1.7-1.7V226h-10v12.7c0 2.5 1.3 4.6 4 6.2 2.3 1.4 4.8 2.1 7.6 2.1 2.9 0 5.4-.6 7.7-1.9 2.7-1.6 4-3.7 4-6.4v-12.4c0-1.8-2.2-4.3-6.7-7.6s-6.7-5.4-6.7-6.4V200c0-1.2.6-1.8 1.7-1.8s1.7.6 1.7 1.8v12.2h10v-12.5c0-2.5-1.4-4.5-4.2-6zm21.1 41.8v-33.6h5.1v-8.7h-5.1v-23.7h3.6c2.6 0 4.8-.7 6.7-2.2 1.9-1.5 2.9-3.5 2.9-6v-34.7c0-2.6-.7-4.7-2.1-6.5-1.4-1.8-3.4-2.6-6-2.6-2.1 0-4 .6-5.8 1.8l-.7-1.8h-8.9v75.8h-4.1v8.7h4.1v32.7c0 8.3 3.4 12.5 10.3 12.5h6.3v-8.4h-2.1c-2.8-.2-4.2-1.3-4.2-3.3zm0-111.4h1.7c1.3 0 1.9.5 1.9 1.5v35.6c0 1-.6 1.5-1.9 1.5h-1.7v-38.6z"/><path class="cst2" d="M273.6 193.6c-2.1-1.5-4.4-2.2-7.1-2.1-2.6.1-4.9.8-7 2.3-2.4 1.7-3.5 3.7-3.5 6.2v37c0 3 1 5.4 3.1 7.3 2.1 1.9 4.6 2.8 7.6 2.7 2.8-.1 5.2-1.1 7.3-3.1s3.1-4.3 3.1-7v-13.4h-8.3v13.7c0 1.4-.7 2.1-2.2 2.1-1.4 0-2.1-.7-2.1-2.1v-16.8h12.7v-20.5c-.1-2.5-1.3-4.7-3.6-6.3zm-4.8 19.7h-4.4v-11.6c0-1.4.7-2.1 2.2-2.1 1.4 0 2.1.7 2.1 2.1v11.6zm28.9-20.6c-2.9 0-5.1 1.1-6.6 3.3v-2.8h-9.7v52.3h10.3V204c0-1 .6-1.5 1.7-1.5.9 0 1.3.5 1.3 1.5v15.5H305v-19.7c0-2.1-.7-3.8-2.1-5.2-1.3-1.2-3.1-1.9-5.2-1.9zm33.9 19.5v-12.5c0-2.5-1.4-4.5-4.2-5.9-2.4-1.3-5-1.9-7.6-1.8-2.6.1-5 .7-7.4 2-2.8 1.5-4.1 3.4-4.1 5.8v14.3c0 1.8 2.2 4.3 6.7 7.4 4.5 3.1 6.7 5 6.7 5.7v11.5c0 1.2-.6 1.8-1.7 1.8s-1.7-.6-1.7-1.7V226h-10v12.7c0 2.5 1.3 4.6 4 6.2 2.3 1.4 4.8 2.1 7.6 2.1 2.9 0 5.4-.6 7.7-1.9 2.7-1.6 4-3.7 4-6.4v-12.4c0-1.8-2.2-4.3-6.7-7.6s-6.7-5.4-6.7-6.4V200c0-1.2.6-1.8 1.7-1.8s1.7.6 1.7 1.8v12.2h10zm-181.7.8v-.1.1zm-.3.4v-.1.1zm-.3.1c.1.1.1-.1.2-.1v-.1c-.1.1-.1.2-.2.2zm-.4-.2c.1 0 0 .1 0 0 .1 0 .1 0 0 0 .1 0 .1 0 0 0zm.1 0s-.1-.1 0 0zm-.2.1v-.1c-.1 0 0 0 0 .1zm0 .1zm.1-.1c0 .1 0 .2 0 0 0 .1 0 .1 0 0zm0 0c.1 0 .1 0 0 0 .2.1.1 0 0 0zm.4.3c.1 0 0-.1 0 0zm-.8-.2l.1.1-.1-.1zm0 .1c.1 0 .1 0 0 0zm.4.1v-.2.2zm-.6-.1v-.1.1zm-.2 0c0-.1-.1-.1-.1-.1v.2c0-.1.1-.1.1-.1zm-.1.1zm.4 0s0-.1 0 0zm0 0zm0 0zm.3 0c0 .1-.1.2 0 .2.1-.1 0-.1 0-.2zm-.2.1c.1-.1 0-.1 0 0zm0 0zm-.4 0c0 .1 0 .1 0 0 .1 0 .1 0 0 0zm.2-.1c0 .1 0 .1 0 0zm-.5.3zm.4-.1s0-.1 0 0c0-.1 0-.1 0 0zm-.3-.1s.1 0 0 0c.1 0 0 0 0 0zm.3-.1zm0 0c0 .1 0 .1 0 0 0 .1.1.1 0 0 .1 0 0 0 0 0zm-.3.9c0-.1 0-.2.1-.1 0-.1-.1-.3-.3-.5v.1s.2 0 .2.1c-.1.1-.1 0-.1 0 .1.2 0 .3.1.4zm0-.6l-.1-.1v.1h.1zm.1-.1c0 .1 0 .2.1.2s0-.1 0-.2c-.1.2 0 0-.1 0l-.1.1.1-.1zm.8.2zm-.1 0c0-.1 0-.1 0 0 .1-.1.1-.1 0 0 .1-.1.1-.1 0 0 0-.1-.2-.2-.2-.2.1 0 .1.1.2.2zm-.3-.1v.1-.1c0 .1 0 .1 0 0zm-.7 0v-.1.1zm-.1 0zm-6.4 4.3zm.2-.1zm3.2-2.7l-.1-.1.1.1zm-1.8 1.5s0-.1 0 0c0-.1 0-.1 0 0zm.1.4c0-.1 0 0 0 0zm-2.8 1.5v.1c.1 0 .1 0 0-.1zm6.3-4.2h-.1.1zm-5.6 2.6s0 .1 0 0c0 .1 0 0 0 0zm5.4-2.6h.1c-.1-.1-.1-.1-.1 0zm-10.1 6zm-1.5-.7zm12.5-5.8zm.3.3s0 .1 0 0c0 .1 0 0 0 0zm-1.2.9zm1-1.1c-.1 0-.1-.1 0 0-.1 0-.1 0 0 0zm-.1-.1c.1 0 0 0 0 0zm0 .1c0-.1 0-.1 0 0 0-.1 0-.1 0 0 0-.1 0-.1 0 0zm-9 5.2zm6.3-2.8zm-.1.1c0-.1 0-.1.1-.1l-.2-.2.1.3z"/><path class="cst2" d="M140.7 218.6l.1.1c0 .2-.1.2 0 .2-.1-.3.2-.1.1-.4h.1c.1.1 0-.2.1-.2 0 0 .1 0 .1.1l.1-.1v.1l.1-.1v-.2c.1 0 0 0 0 .1v-.1c.1.1 0 .2 0 .2.2.3 0-.1.2 0l-.1.1c.1.1.1.1.3.1 0 0-.3-.2-.2-.3 0 0 .1 0 .1-.1 0 .1.1.1.1 0l.1.1v-.2c.1 0 .1.1.2.2.1 0-.1-.1 0-.2.1 0 .1-.1.2-.2.1 0 0 .1.1.1v-.1c0-.1-.1-.1 0-.2-.1-.2.2.2.2-.1 0 0 0 .1.1.1.1-.2.1-.1.1-.3l.1.1c-.1-.1-.1-.2-.1-.4l-.1-.1.1-.1v.1c.1 0 .1.1.1.2 0 0-.1 0-.1-.1 0 .1 0 .2.1.3v-.1l.1.1v-.1h.2c0-.2 0-.5.1-.6 0 .1.1.2.1.3-.1-.1-.1.1-.2.1l.1.1.1-.2c0 .1.1.1.1.1-.1-.2 0-.2.1-.3 0 .1.1.1 0 .2.2.1 0-.3.1-.2 0-.1.1-.1.1 0 .1 0 .4-.2.3-.3 0 0 .1.2.1.3l-.1-.7c.1.2.3.5.2.6 0 0 .1 0 .1-.1 0 0-.2-.2-.1-.2.2.1.1.1.2.2l-.1-.3s.1.2.1.3v-.3c0 .1.1.2.1.3 0 0 .1 0 .1-.1h-.1c.1 0 0-.4.1-.4 0 .1.1.3.2.3 0-.1-.1-.6-.1-.8l.1.1v-.1c0 .2.1.7.1.8.1 0 .1.1.1 0 .1.1 0 .1 0 .1h.2c-.1-.1.1-.2 0-.3l-.1.2c-.1-.1-.1-.4 0-.5.1 0 .1.3.1.3 0-.1.1-.1.1-.1v.1c.1 0 0-.2.2-.1 0 0 .2.1.1.1-.1-.1-.4-.6-.4-.8 0 0 .2.1.3.2.1.1.1.3.2.4v-.1s0 .1.1.1c-.1-.1.1 0 0-.1 0-.1.1 0 .1 0-.1-.1-.1-.3 0-.4 0 0 0 .1.1.1s.2 0 .3-.1c0 0 .1 0 .1.1v-.1c.1.1-.1.1.1.2 0-.1 0-.2.1-.2-.1-.1-.1 0-.2.1-.1-.2-.1-.4 0-.5.1-.1.1.1.1.1.2-.1 0-.4.2-.3.1.1.1.2.2.3-.1.1-.2 0-.2 0h.1s0 .1-.1.1c.1.1.3-.1.5-.1v-.1c-.1-.1 0-.2-.1-.2 0-.1 0-.2.2-.2l.1.1s-.1-.1-.1 0c0-.1.2.1.2-.1l-.1-.1c0-.1 0-.3.1-.3l-.1-.1c.1.2-.2.1 0 .2-.1-.1-.1 0-.3-.1 0 0 .1.1 0 .1h.1c0 .1-.1.2-.1.2v-.1.1c0-.1-.2-.1-.1-.2h-.3v.1l-.1.1c-.1 0-.2.3-.4.2l-.1.1-.1-.1c0 .1-.2 0-.2.1-.2-.2-.3.1-.4.1v.1c-.1 0-.1.1-.2.2v.1c0 .1-.2 0-.3.1h.1c-.2-.2-.2.3-.4.2h-.2.1l-.1.1-.1-.1v.2c-.1-.2-.1.1-.2-.1 0 .1-.1.1-.1.3 0 0-.1 0-.1.1l-.1-.1v.2c-.1-.1-.1-.1-.1-.2 0 .2-.1.1-.1.3v-.1s0 .2-.1.1c-.2-.1-.4.2-.7.1.2.2-.1-.1-.1.1 0-.1-.1-.1-.1-.1-.1.1-.2 0-.2.2v-.1s0 .1 0 0v-.1c-.1.1 0 .2 0 .4-.1-.1-.1 0-.1.1 0 0-.1-.1 0-.1 0 0-.3 0-.2.2h-.1c-.1 0-.1 0-.2.1 0 .2-.1.1-.1.1-.2 0 0 .1-.2 0l.1.1c.1.2-.2-.1-.2.1h.1c0 .1-.3-.2-.3-.2v-.1c-.2-.1 0 .1 0 .2-.1-.1-.1-.2-.1-.2-.1 0-.1.3-.2.2 0 0 .1.1.1.2-.1.1-.3-.1-.3.1 0 .1-.1.1-.1.3-.2-.3-.2.3-.4 0l-.1.1c-.1 0-.1.1-.1.2v-.1c-.2 0-.2 0-.2.2l-.1-.1c0 .1-.3-.1-.4.1v-.1c-.1.2-.5-.1-.4.3l-.1.1c.1 0 .1.2.1.2s-.2 0-.1-.1c-.1-.2-.2 0-.3-.1-.3.1-.6.1-.8.3l.1.1h-.1s-.1-.1 0-.1c-.1-.1-.1.1-.1.2-.1 0 0-.2-.1-.2 0 .1 0 .1-.1.2-.1 0-.1-.1-.1-.1h-.1l.1.1c0 .1-.1 0 0 .2-.2-.2-.4.1-.5.1 0 .1-.1.1-.2.2 0 0 .1.1 0 .2-.1-.3-.2-.1-.3-.2.1.1-.2.1 0 .3-.1 0-.1-.1-.1-.2-.1.2-.3.1-.5.2 0 0 .1.1 0 .2l-.2-.2s0 .2-.1.1c0 0 .1.1 0 .1-.2 0-.4.1-.5.1-.2.1-.4.1-.6-.1.1.1 0 .1 0 .1v.2c-.1 0-.1-.1-.2-.1 0 .2-.2 0-.2.2-.1.2.1.4.1.6.1-.2.3.3.3 0v.1c0-.1.1-.1.1-.1.2-.1.3 0 .6 0v-.1h.1c0-.2-.1 0-.1-.2.1.2.3-.1.5.1.1 0-.1-.1 0-.1v.1-.1c.1 0 .1.1.1.1.1.1.2-.1.2-.1h-.1c.2-.1.4-.2.6-.4.1-.1.1 0 .3-.1 0-.1 0-.1.1-.1 0 .1.1.1.1.2.1-.2 0-.1.1-.3l.1.1v-.2c0 .1.1.1.1.2.2.1.1-.3.3-.1 0-.2-.2-.1-.2-.1-.1-.1 0-.2 0-.2.1 0 .2.2.3.2.1 0 .1-.1.2-.1 0-.1.1 0 0-.2l-.1.1c0-.1 0-.3.2-.3v.1c.1 0 0-.1.1 0 .1.2-.1.1-.1.3.1.1.1-.2.1 0-.1-.3.1 0 .1-.2v.1c0-.1.2 0 .2-.1-.1.1-.1-.1-.2-.2.1-.2.2.2.4.1 0 0-.1 0-.1-.1 0 0 .1 0 .2.1.1-.1-.1-.1 0-.2.1.1 0-.1.1-.1v.1c.2 0-.1-.2.1-.2v.2-.1.1c0-.1.1-.1.2-.1-.1-.1-.1-.2 0-.2s0 .1.1.1c0 .1 0 .2-.1.1v.1c.1 0 .1 0 .2-.1l.1-.2v.1s0-.1.1-.1c0 .1.1.2 0 .2l.1-.1.1.1c.1 0 .1-.2.2-.2v-.1c.1 0 .2 0 .3-.1l.1.1c.1-.1-.2-.1-.1-.3.1-.1.1.1.1.1.4-.2.4-.4.5-.2.1 0 0-.1 0 0zm1-.6c0 .1-.1.2 0 0-.1 0-.1 0 0 0zm1.3-.9zm3.8-2.7c0 .1 0 .1 0 0zm.2.1c0-.1 0-.1 0 0-.1-.1-.1-.1 0 0-.1 0-.1 0 0 0zm-9.5 4.4c0 .1 0 .1 0 0zm5.4-1.6zm-2.8 1.6zm5.9-3s0 .1 0 0zm1.3-1.8c.1 0 0 0 0 0zm.8.4c0-.1 0-.1 0 0 0-.1 0 0 0 0zm-.5-.1c0 .1 0 0 0 0 0-.1 0-.1 0 0zm.1 0c0-.1 0-.1 0 0z"/><path class="cst2" d="M147 214.3c.1.1 0-.1 0 0 0-.2 0 .1 0 0zm.7.3v-.1.1zm-.3.1zm0 0c.1 0 .1-.1 0 0 .1-.1.1-.1 0 0zm.2 0zm-.9.3c-.1.1 0 .1 0 0 0 .1 0 0 0 0zm.3.2zm-.2.1s-.1.2 0 .1c.1 0 .1-.1 0-.1zm-1.1.3l-.1-.2zm-.6 1c.1 0 0-.1.1-.1 0-.1-.1 0-.1-.1-.1.1-.1 0 0 .2zm-.1-.2zm-10.6 3.5h-.1l.1.1zm-.1.2v-.1.1zm7.6-1.9zm-.7.3l-.1-.1zm-.5.4s-.1-.1 0 0zm-.6 5l-.1.1.1-.1zm.5.1s.1 0 0 0zm.3.3c0-.2-.1-.1-.2-.2l-.1.1c.2 0 .3 0 .3.1zm.1.6c0-.1.1-.1 0 0 0-.1 0-.1 0 0 0-.1 0-.1 0 0zm0-.1c-.1 0 0 .1 0 0zm.2.1c-.1.1 0 .1 0 .2v-.2zm0-.1c0 .1 0 .1 0 0zm-.1 0c.1 0 .1-.1 0 0 .1 0 .1 0 0 0zm0 0c0-.1-.1-.1 0-.2-.1 0-.1.1 0 .2zm-.1-.7c0-.1 0 .1 0 0zm.5 1.2v-.2.2zm0-.2c0-.1 0 0 0 0zm-.2-.5c-.1 0-.1 0 0 0-.1 0-.1 0 0 0zm.5.9c0 .1 0 0 0 0zm.1.1c0 .1.1.2.1.3 0 0 .1 0 .1-.1-.1 0-.1 0-.2-.2zm.2.5s0 .1 0 0c0 .1 0 .1 0 0zm-.5-.9s0 .1.1.2l-.1-.2c.1 0 0 0 0 0zm.1 0zm-.1 0zm-.2-.4c0-.1.1-.1 0-.3v.3zm.2.2c-.1-.1 0 0 0 0zm0-.1v.1zm.3.6c0-.1.1-.1 0 0v-.2.2zm-.1-.2zm.5.8zm-.4-.8c0-.1-.1 0 0 0zm.3.8s0-.1-.1-.1c0 .1.1.2.1.1zm-.4-.7zm0 0s0-.1 0 0c0-.1 0-.1 0 0 0-.1 0-.1 0 0zm.2-.9c.1.2.1.3 0 0 0 .2.2.8.3 1.1v-.2c-.1-.1-.2-.3-.2-.4 0 0 .1.1.1.2-.1-.2 0-.2-.2-.7l.1.2c-.1 0-.1-.1-.1-.2zm.2 1.5c0 .1 0 .1.1.3v-.2l-.1-.1zm-.1-.5c0-.2 0-.2-.1-.4-.1 0 0 .1 0 .2.1 0 0 0 .1.2-.1 0-.1 0 0 0s0 .1 0 0c0 .1.1.1.1.1l-.1-.1zm-.6-1.2zm0 .1s0 .1 0 0-.1 0 0 0c0 .2.1.4.1.4-.1-.2-.1-.3-.1-.4zm.2.5c.1 0 .1-.1 0 0v-.2.2zm.6 1.3l.1.2v-.2zm.1.1l.1.2v-.1zm-.4-3.2zm0 .1zm2.1 4c.1.2.3.4.2.2l-.2-.2c.1 0 .1 0 0 0zm-1.3-2.9s.1 0 0 0c.1 0 .1 0 0 0zm-.5-.4c.1.1 0 0 0 0zm-.6-1.6h-.1.1zm1.8 4.9c.1.1.1.2.1.2-.1-.1-.2-.4-.1-.2zm-.5-4.3zm.7 4.6c0 .1.1.2 0 0zm-2.6-8.1zm.8-1.1zm1 8.5zm-.4-1zm.5.2c0-.1 0 0 0 0zm-.2.7c.1 0 .1 0 0 0 .1 0 .1 0 0 0zm.1.1c0-.1 0-.1 0 0zm0 0zm-1.2-5.9zm.7 3.5zm-.1-.2c.2.2.2.2.1.2l.4.5-.5-.7z"/><path class="cst2" d="M141.9 222.7c-.2 0-.2 0-.3.1.3-.1.1.2.4.1h-.1c-.1.1.2 0 .2.1l-.1.1v.1h.2-.2c-.3.1.1 0-.1.2h-.1c-.2.1-.1.1-.2.2.1 0 .2-.2.3-.1v.1c-.1 0-.1.1-.1.1h-.1.2c-.1 0 0 0 .1.1h-.1c.1 0 .2 0 .2.1.1 0 0 0 0 0-.1 0-.1 0 0 0 0 0-.1 0-.2-.1.1.1.1.1.3.2h-.1c.1 0 .3.2.4.3.1 0 .1 0 .1.1l.1.1s-.1-.1-.2-.1-.2-.1-.3-.2h.1c-.1-.1-.2-.2-.3-.2l.1.1-.2-.1.1.1h-.1l.7.7c-.2-.2-.3-.2-.4-.4l-.1-.1-.1-.1.2.2c-.2-.1-.1-.1-.2-.1.3.3.2.2.3.4l-.2-.2.1.1.1.1v-.1c.1.1 0 .1-.1 0 0 0 0 .1.3.5 0 0-.3-.4-.4-.5.3.4.7.9 1 1.3-.3-.3-.8-1.1-1-1.3 0 0-.1-.1 0 .1l.4.5c-.3-.3-.1-.2-.4-.5 0 0 .1.2.2.3.1.1.1.1.1.2s.1.1.1.1c-.1-.1-.4-.6-.4-.6.1.2.3.4.4.6-.1-.1-.3-.5-.5-.6.1.1 0 0 0 .1l.1.1c-.1 0 .6.9.6 1-.1-.1-.5-.8-.6-.9.1.2.4.6.6 1 .3.4.5.9.6 1.1l-.1-.2.2.3c-.2-.3-.4-.8-.7-1.2-.3-.4-.5-.8-.6-1.1-.1-.1-.1-.2-.1-.2-.1-.2-.2-.3-.2-.3l-.1-.1c.3.4.3.5.5.8l-.3-.5c.1.2.3.5.5.8.2.3.3.5.3.5-.1-.2-.5-.8-.6-.9.1.2.2.3.1.2l-.1-.3c-.1-.2.4.6.1.2 0 0 0-.1-.1-.1l-.1-.2c.3.5 1.3 2.2 1.5 2.6 0 0-.4-.6-.5-.9-.3-.4-.5-1-.7-1.3.1.1.1.3.2.3-.1-.1-.2-.4-.2-.3.3.5-.1-.1.2.4 0 .1-.1-.1-.1-.1.2.3.5 1 .5 1-.1-.1-.1-.3-.2-.3-.1-.1-.2-.3-.3-.4-.1-.1-.1-.2-.2-.4 0 .1.1.2.1.2-.2-.4 0 0-.2-.5.1.2.1.3.2.4.2.4.1.1 0 0 .3.5.5 1 .5 1.1 0 .1-.2-.3-.2-.3-.1-.2.3.7 0 .3-.2-.3-.2-.6-.3-.8 0-.1.1.2.2.3l-.1-.2c0-.1 0-.1 0 0-.1-.3-.2-.2-.4-.5 0 .1 0 .2.1.3.1.2.1.3.1.4 0 .1.1.3 0 .1l-.1-.3c0 .1.1.2.1.1 0 .1-.2-.5-.1-.1l.1.2v.2l.1.3c-.2-.4.2.2 0-.3l.3.6c0-.1-.1-.2 0-.1v-.1c0-.1-.1-.1-.1-.2-.1-.2 0-.1 0-.2 0 .1 0 .1.1.2v-.1c.1.2.2.5.2.5l.1.1c.1.2.2.3.2.2.1.1 0-.2 0 0v-.1.1c.1.1.1 0 .1 0s.1 0 .3.3c0 0 0-.1.1 0l.1.3s.3.4.2.1c.2.4.3.5.3.5s.1 0 .1.1l-.2-.3c.1.1.1 0 .1 0s0-.1-.1-.1l-.2-.3c-.2-.3.1 0 0-.1.1.1.1.1 0 .1.2.3.1.1 0-.2-.1-.2-.2-.4-.1-.3-.1-.1-.1-.1 0-.1l.1.1-.1-.1s0-.1-.1-.2l.2.2c.1.1-.1-.2-.2-.3 0-.1-.1-.1-.1-.2.3.4-.1-.2.2.2-.2-.2-.2-.3-.5-.8 0 .1.1.1.1.1s.1 0 0-.1l.2.3-.3-.5c.1.1.2.2.4.5-.3-.4-.1-.2-.4-.6l.1.2s-.2-.3-.1-.2c.1.1.1 0 .1-.1v-.2c-.3-.3.1 0-.1-.2l.2.2c-.1-.2.1-.1-.2-.3.1 0 .1.1.2.1 0 0-.1-.1 0-.1l.1.1c0-.1-.3-.3-.5-.5.1 0 .1 0-.1-.1.1 0 .1 0 .2.1 0 0 0-.2-.1-.3v-.3c-.2-.1-.1-.1-.1-.1.1-.1-.1-.1 0-.2h-.1c-.1 0-.1 0 0-.1l.1-.1h-.1s0-.1.1-.1.2-.1.2-.1h.1c.1-.2-.1 0-.2-.1.1 0 .2 0 .2-.1.1 0-.3-.1-.1-.2-.1 0-.1.1-.2 0 0 0 .2-.2 0-.2-.1 0-.1-.1-.2-.1.4-.1-.2-.2.1-.3v-.1c0-.1-.1-.1-.2-.1h.1c0-.1 0-.1-.2-.2h.1c-.1 0 .1-.2 0-.3h.1c-.2-.1.2-.3-.2-.3l-.1-.1c0 .1-.2 0-.2.1l.1-.1c.2 0 0-.1.2-.2-.1-.2 0-.4 0-.6l-.2.1v-.1s.1-.1.1 0c.1 0-.1-.1-.1 0 0-.1.2 0 .2 0-.1 0-.1 0-.2-.1 0 0 .1 0 .1-.1v-.1l-.1.1c-.1 0 0-.1-.1 0 .2-.1 0-.3.1-.4-.1 0-.1-.1-.1-.1s-.2.1-.2 0c.3-.1.1-.1.3-.2-.1.1-.1-.1-.3 0 0 0 .1 0 .2-.1-.1-.1 0-.2 0-.4h-.2l.2-.1h-.2c.1-.3-.3-.5 0-.8-.1.1-.1 0-.1 0h-.2l.1-.1c-.2 0 0-.1-.2-.1s-.4.2-.6.2c.2 0-.3.2 0 .2h-.1c.1 0 .1 0 .1.1.1.1 0 .2 0 .4h.1l-.1.1c.2 0 0-.1.2-.1-.2.1.1.2-.2.3h.1-.1.1l-.1.1c-.1.1.1.1 0 .1v-.1c.1.1 0 .3.2.4.1.1 0 .1 0 .2.1 0 .1 0 .1.1-.1 0-.1.1-.2.1.1.1.1 0 .3.1h-.1.2c-.1 0-.1.1-.2 0-.2.2.2.1 0 .2.2 0 .1-.1.2-.1h.2s-.3.1-.3.2c-.1 0 .1 0 0 .1.1 0 0 .1.2 0l-.1-.1c.1 0 .3 0 .2.1h-.1v.1c-.2 0-.1-.1-.2-.1s.2.1 0 .1c.3 0 0 .1.2.1h-.1.1-.1c.1 0-.1.1 0 .2 0-.1.1-.1.2-.1.2.1-.3.1-.2.3 0 0 0-.1.1-.1 0 0 0 .1-.1.1 0 .1.1 0 .2 0-.1.1.1 0 .1.1h-.1c0 .1.2 0 .2.1h-.2.1-.1c.1 0 .1.1.1.1h.2c-.1 0-.1 0-.1.1h-.2c-.1.1 0 .1 0 .1l.2.1h-.1.1-.2l.1.1-.1.1c0 .1.2.1.1.2h.1c0 .1-.1.1 0 .2l-.1.1s.2-.1.3 0c.1.1-.1.1-.2.1h-.1c0 .1 0 0 0 0zm.2.7s-.1 0 0 0 .1 0 0 0zm.5.8c-.1-.1 0-.1 0 0zm.5 2.6c0 .1 0 .1 0 0zm-.2-.2v.1c.1 0 .1 0 0-.1.1 0 0 0 0 0zm-.5-6.1c-.1 0 0 0 0 0zm0 3.5zm-.7-1.7z"/><path class="cst2" d="M142.5 224.9c0 .1.1.1.1.2-.1-.1-.1-.2-.1-.2zm.2 1.8v-.1.1zm-.8-2.1zm-1.8-1l-.1.1c.1 0 .1-.1.1-.1zm.5.1c.1.1.1 0 0 0zm.4.3c0-.2-.1-.1-.2-.2l-.1.1c.1 0 .2 0 .3.1zm.1.6c0-.1 0 0 0 0-.1-.1-.1-.1 0 0-.1 0-.1 0 0 0zm-.1-.1s0 .1 0 0zm.1.6c.1 0 .1-.3.1-.4h-.1c.1 0 .1.4 0 .4m.2-.6c0 .1 0 .1 0 0zm-.1.1c0-.1.1-.2 0 0 0-.1 0-.1 0 0zm0-.1c0-.1-.1-.1 0-.2-.1 0-.1.2 0 .2zm-.2-.7s0 .1 0 0zm.6 1.3v-.2c-.1 0 0 .1 0 .2zm-.1-.3s.1 0 0 0c0-.1 0 0 0 0zm-.2-.5s-.1.1 0 0c-.1.1 0 0 0 0zm.4 1.3l.1-.4-.1.4m.4.2s0-.3-.1-.4v.5m.1.3s0-.3.1-.4c-.1.1-.1.4-.1.4m-.4-1.3s0 .1.1.2l-.1-.2zm0 0s0 .1 0 0c0 .1 0 0 0 0zm0 0zm-.3-.4c0-.1.1-.1 0-.3 0 .1.1.2 0 .3zm.2.2c0-.1 0 0 0 0zm0 0zm.4.5c0-.1 0 0 0 0v-.2c-.1.1-.1.2 0 .2zm-.2-.2zm.1 0c0-.1 0 0 0 0z"/><path class="cst2" d="M142.2 225.9s0-.1-.1-.1c.1 0 .1.1.1.1zm-.3-.8zm0 0s0-.1 0 0c0-.1-.1-.1 0 0-.1-.1 0 0 0 0zm.3.1c-.1-.2 0-.5-.1-.9v.1c0-.1 0-.1-.1-.2.1.2.1.3 0 .1 0 .1.2 1 .3 1.3"/><path class="cst2" d="M142.3 225.9c0-.1-.1-.6-.1-.7 0 0 0 .4.1.5m0 .4l-.1-.4s0 .4.1.6m-.2-1.1c0-.2 0-.2-.1-.4-.1 0 0 .1 0 .2.1 0 0 0 .1.2 0 .1 0 0 0 0 0 .1 0 .1 0 0 0 .1 0 0 0 0 0 .1 0 .1 0 0 0 .1.1.1.1.1 0-.1-.1-.1-.1-.1zm-.6-1.2zm0 .1s0 .1 0 0c0 .2.1.4.1.4 0-.1 0-.2-.1-.4zm.3.5v-.2.1c-.1-.1 0 0 0 .1zm.1-.3v.1c.1 0 .1-.1 0-.1zm.5 1.6c-.1-.2-.1-.1-.1-.1.1.2.1.1.1.1zm-.1-.2c0 .1 0 0 0 0zm.6 1c0-.1.1.3.1.2.1.2-.1-.3-.1-.2z"/><path class="cst2" d="M142.2 225.2l.1.3-.1-.2zm.2.4l-.1-.1c.1 0 .1 0 .1.1 0 0 .1.1 0 0zm0 0c0-.1 0-.1 0 0z"/><path class="cst2" d="M142.2 225.2v.1h.1zm.7.8c0-.1-.1-.2-.1-.2 0 .1 0 .1.1.2zm-.5-.9c0 .1.1.1.1.2l-.2-.3.1.1zm0 0c0-.1-.1-.2-.1-.3.1.2.1.2.1.3zm.8 1l.4.7zm-1-1.9c-.1-.1.2.4.1.2l.2.2c-.1-.1-.1 0-.3-.4zm.3.5s0 .1 0 0c0 .1 0 0 0 0zm-.6-6.6h.1-.1zm-.1 0h.1-.1zm.1 5.5zm-.1-.5l.2-.1zm-.2-.4s.1-.1 0 0zm.5-2h-.1c.1.1.2 0 .1 0zm.7.4h.1zm.5.5c.1-.2-.2-.2-.2-.3l-.1.1s.2.1.3.2zm-.1.6c.1-.1.1 0 0 0 0-.1 0-.1 0 0 0-.1 0-.1 0 0zm0-.1c-.1-.1 0 .1 0 0zm.2.2h-.1v.1c.1.1.1 0 .1-.1zm.2 0c-.1 0-.1 0 0 0zm-.2-.1h.1c0 .1.1 0-.1 0 .1 0 .1 0 0 0zm0 0c0-.1 0-.1.1-.1-.2-.1-.2 0-.1.1zm0-.7c0-.1 0 .1 0 0zm.4 1.3l.1-.1h-.1v.1zm0-.1zm-.1-.5l-.2-.1.3.1zm.3.9h-.1.2zm.2.2c-.1 0 0 .1-.1.1h.2c0 .1-.1 0-.1-.1zm.3.2h-.1.1zm-.4-.6v.1-.1zm0 0s.1.1 0 0c.1.1 0 0 0 0zm0 0zm-.2-.5c.1 0 .2.1.2-.1-.1.1-.1.2-.2.1zm.2.3c-.1-.1-.1 0-.1 0h.1zm.1.1l-.1-.1.1.1zm.2.5c.1 0 .1 0 .2.1-.1-.1-.1-.1-.2-.1 0-.1 0-.1 0 0zm-.1-.2zm.7.7zm-.5-.6s-.1-.1-.1 0h.1zm.1.4v-.1.1zm-.3-.5c0 .1 0 0 0 0zm0 0zm1.3.3c-.1.1-.2 0-.2-.1-.1 0-.3.3-.4.5 0 0 .1-.1.2 0 0-.1-.1-.3 0-.3.1.1.1.1.1.2 0-.1.3 0 .4-.1l-.1-.2c-.1.1 0 .1 0 0z"/><path class="cst2" d="M144.9 223.6v.2h.2l-.2-.2zm-.2-.2c.1 0 .2 0 .3-.1-.1-.1-.1 0-.2 0 .1.1-.2 0-.1.1-.1 0-.1 0 0 0-.1 0-.1 0 0 0-.1.1-.1.1 0 0-.1.1-.1.1 0 0-.1.1 0 .1 0 0 0 .1 0 .1 0 0-.1.1-.1.1 0 0l.1.1s-.1 0-.1-.1zm-.4-1.1zm0 .1c-.1-.1 0-.1 0 0-.1-.1-.2-.1-.1 0v.3c.1-.1.1-.2.1-.3zm.2.5l.2.1v-.1c-.1-.1-.1 0-.2 0zm.5.9l-.1.1h.2zm.1.2v.1zm2.6.2zm.2.3zm1.6 3.3v.2-.2c0 .1 0 .1 0 0zm.7-1.1c0 .1 0 .1 0 0h.1c-.1.1-.1 0-.1 0zm-.4.3v-.1.1zm-3.4-4.5h-.1c0 .1.1.1.1 0zm.5 3.1c0 .1 0 .1.1.2 0-.1 0-.2-.1-.2zm1.8-2c0 .1 0 .1 0 0zm-1.5 2.3c-.1 0-.1 0 0 0l-.1-.1c-.1.1 0 .1.1.1zm2.7-5.6s0-.1 0 0zm2.1 1.2s-.1 0 0 0c-.1 0-.1 0 0 0zm-6.2 3.2c-.1 0 0 0 0 0zm.1-.5zm2.1 1.5zm-2.2-1.1s0 .1 0 0c0 .1 0 .1 0 0zm-.1.1c0-.1 0-.1 0 0 0-.1 0-.1 0 0zm.1 0zm-.7-5.5c0 .1 0 .1 0 0zm6.1 8.5zm.2 0c-.1.1-.2 0-.2 0l-.1.3.3-.3z"/><path class="cst2" d="M147.2 223.4v.2c-.2 0-.2-.2-.3 0 .3-.2.3.4.6.2v.1c0 .2.3 0 .3.2 0 .1 0 .1-.1.1l.2.1s0 .1-.1 0l.2.2h.2c0 .1 0 0-.1 0l.1.1c0 .1-.2.1-.2 0-.2.3.1 0 .1.4l-.1-.1c-.1.2 0 .2 0 .4 0-.1.1-.4.2-.3 0 0 0 .1.1.1-.1.1 0 .1 0 .2l-.1.1c.1.1.2 0 .3 0 .1.1 0 .2-.1.3.1.2.1-.2.2-.1 0 .2.2.2.3.3 0 .1-.1 0-.1.1h.2c.1 0 .1-.1.2 0 .2-.1-.1.4.2.4 0 .1-.1 0-.1.1.2.1.2.1.4.1v.2c0-.2.2-.1.4-.1 0-.1 0-.1.1-.2l.2.1-.1.1h.1c0 .1-.1.1-.2.1v-.1c-.1 0-.2 0-.3.1h.1l-.1.1h.1l.1.3c.3 0 .6 0 .8.2-.2 0-.2.1-.3.2.1-.2-.2-.1-.2-.3 0 .1 0 .1-.1.1l.3.1c-.1.1 0 .1 0 .2.2-.2.3.1.4.1-.1.1-.2.1-.2 0-.1.2.4 0 .3.2h-.1c.1 0 .2.2.1.2 0 .1.1.2.2.3l.6-.6c-.1-.1-.3-.1-.4 0l.2-.2-.7.4c.1-.1.3-.6.5-.5 0-.1-.1-.1-.2-.1l-.1.3v-.4c0 .1-.2.3-.3.2l.2-.2-.3.1c.1 0 .2-.2.2-.3 0 .1-.1-.1-.2-.1v.1c-.2-.2-.4.2-.6 0 .1 0 .3-.2.2-.3-.1.1-.6.4-.9.4v-.1h-.2c.2-.1.7-.3 1-.3 0-.1 0-.1-.1-.2 0-.1.1 0 .2 0l-.2-.2c-.1.1-.3 0-.4.1l.4.1c-.1.1-.5.3-.6.1 0-.1.2-.2.3-.3-.1 0-.2 0-.2-.1h.1c-.1-.1-.3.1-.3-.2v-.2c-.1.2-.4.7-.6.8 0 0-.1-.3-.1-.4 0-.2.3-.2.4-.3 0 0-.1 0-.1.1 0-.1.1-.1 0-.2-.1.1-.2-.2-.1.1-.1 0-.1-.1-.2-.2 0 .1-.3.2-.5.2l.1-.1c-.2-.2-.2-.3-.4-.4 0 0 0-.2.1-.2h-.2c0-.2.1.1.2-.1-.1.1-.2 0-.3 0-.1.1.1.2.3.2-.1.2-.4.2-.7.1-.2-.1 0-.2 0-.2-.2-.3-.5.1-.6-.2 0-.2.2-.2.2-.3.1.1.1.2.2.3v-.1c.1 0 .2 0 .2.1 0-.2-.4-.4-.5-.7h-.2.1c0 .1-.2 0-.2.1-.1 0-.3 0-.4-.2l.1-.1s0 .1.1.1c-.1 0 0-.3-.2-.2v.2c-.1 0-.3 0-.4-.1-.1.2 0 0 0 .2.1-.2.2.3.3 0-.1.2.1.2 0 .4 0 0 0-.1.1 0v-.1c.1 0 .3.1.3.1 0 .1-.1 0-.1.1h.1c-.1.1 0 .3-.2.2l.1.1c0 .1.1.2.2.2 0 .1.2 0 .1.1l.2.1c.2.2.5.2.5.5.1 0 .2.1.2.2v.1c.1 0 .2.3.3.2-.1.3.3.4.4.5l.1-.1c.1.1.2.1.3.2l.1-.1c.2 0 .2.3.4.4 0 0-.1 0-.1-.1 0 .4.5.2.6.5.1 0 .1 0 .1.1s.1.1.2.1l-.1.1c0 .1.1 0 .1-.1h.1c-.1.2.2 0 .1.3.1-.1.3.1.5 0 0 .1.1.1.2.1l-.1.1.2-.1c0 .1 0 .2-.1.2h.4l-.1.1c.1 0 .2 0 .2.1v.1l.7 1.4-.2-1.9c0-.2-.4-.6-.5-1-.2.2 0-.2-.2-.1 0-.1 0-.1.1-.1-.2-.1-.1-.3-.3-.3 0-.1.1 0 .1-.1 0 0-.1 0-.1-.1h.1c-.1-.2-.3-.1-.5.1 0-.1 0-.2-.2-.2 0-.1.1-.2.1-.1 0-.1-.2-.4-.3-.3 0 0 0-.1-.1-.1-.1-.1-.1-.2-.2-.3v.1c-.2.1-.1-.1-.2-.2 0-.3-.1-.1-.2-.4l-.1.1c-.2.1 0-.3-.2-.4v.1c-.1 0 .2-.4.1-.5h.1c0-.3-.1.1-.3-.1.1-.1.2-.1.2-.2s-.4-.1-.4-.3c0 .1-.1.1-.2.1-.1-.1 0-.4-.2-.4-.1 0-.2-.2-.4-.2.3-.3-.5-.4-.2-.6l-.2-.2c-.1-.2-.2-.2-.3-.2 0-.1 0 0 .1-.1-.1-.3-.1-.3-.4-.4l.1-.1-.1-.1v-.2c0-.1 0-.1-.1-.2h.1c-.1 0-.1-.1 0-.2 0 0 0-.1-.3-.2-.1-.1-.2-.1-.3-.2 0 .1-.1 0-.2 0-.1-.1-.2-.1-.3-.1-.1-.1.1-.1.2 0 .4.2 0-.1.3 0-.1-.1-.1-.2-.1-.2v-.1l.1.1c.1 0 .1.1.2.1l-.4-.3.1.1c.1.1.3.2.2.2.2.2-.1-.1-.1-.2.1.1.2.2.3.2l.1.1c-.1-.1-.2-.2-.1-.2l.2.2.1.1-.2-.2c0-.1.1 0-.1-.2.2.2.3.3.4.3.1 0 .2 0 .2.1 0-.1.1-.1.2 0 0 0 0-.2.1-.2v.3c.1 0 .2.1.2.2-.1-.2.4 0 .3-.2.1 0 0 .1.1.2.3-.1.6.2.9.2v-.2l.1.2c.1 0 .1-.2.2-.1v-.1c.6.3 1.4 0 2 .4-.1-.1 0-.1 0-.1v-.2l.3.2c.1-.2.3 0 .3-.2h-.1c.1-.2-.2-.4-.1-.7-.1.2-.3-.3-.6 0v-.1c-.1.1-.1.1-.2.1-.3 0-.5-.1-.8-.2v.1c-.1 0-.1-.1-.1-.1-.1.2.2 0 .1.2-.1-.3-.6-.1-.6-.4-.1 0 0 .1-.1.1v-.1.1c-.1 0-.1-.1-.1-.2h.1c-.1-.1-.3 0-.3 0l.1.1c-.3 0-.7-.2-1.1-.1v.1c-.3.1-.2-.1-.5-.1h-.3c.1 0-.2-.2 0-.2h-.3s0 .1-.1.2l-.1-.1c-.1.1 0 .1-.2.1v-.1c0-.1-.1-.1 0-.2-.3-.2-.4-.2-.5-.2-.1 0-.2 0-.4-.2.1.3.5.3.5.4.1.1.1.1.1.2h-.1c-.1 0-.2-.2-.4-.3-.2-.2-.4-.3-.6-.4-.1-.1-.2-.1-.2-.1s-.1 0-.3-.1c.2.3-.2-.1.2.3h.2s0 .1.1.2c0 .1 0 .1-.3-.1-.1-.1-.1-.2-.1-.2-.2-.1-.1 0-.3-.1-.2-.2-.2-.2-.1-.2s.3.1.2 0c-.1-.1-.2-.1-.2-.1s-.1 0-.3-.2c.2.2.1.2 0 .1s-.3-.2-.2 0l-.3-.3v.1l.1.1-.4-.3c.2.2.1.1 0 .1 0 0-.1 0 .1.2-.3-.4.3.2.4.2.3.3.2.2 0 .2-.2-.1-.3-.2-.1.1-.1-.1 0-.2.2 0 0 .1 0 .1-.1.1.1.2.2.2.2.2.1 0 .1 0 .2.1-.2-.1.2.2.4.4l-.2-.1c.1.3.5.3.6.5l-.4-.3.2.2-.3-.1c.3.3.3.3.4.5.1 0 .4.1.5.3 0 .1-.2-.1 0 .1-.1-.1-.3-.2-.2-.2-.1 0-.1-.1-.2-.1 0 .1.2.3.2.4v-.1c.2.1.3.2.4.3h-.2c.1.1.2.1.2.2-.1 0-.2 0-.4-.2l.4.3s0 .2-.1.2c0 .1.2.2.3.3l.2.2v.1h.1c.1.1.1.3.3.4l-.1.2c.1.1.1-.2.3-.1.1.1-.1.1-.1.2.1 0 .4 0 .3.3.2-.1.2-.1.2-.2zm1.1 1.5s-.1 0-.1-.1c.1 0 .1.1.1.1zm1.8 2.2s-.1 0 0-.1v.1zm-3.8-2.1c0 .1 0 .1 0 0zm-.1-.1c-.1 0-.1 0 0 0zm.9-4.1c-.1-.1-.1-.1 0 0zm2.7 6.1zm-3.4-4.4zm2.4 3.3s0 .1 0 0c0 .1 0 0 0 0zm-3.4-1.4l.1.1-.1-.1zm-.2-1.2s.1.1 0 0z"/><path class="cst2" d="M145.6 224c.1-.1 0-.1-.1-.1-.1.1 0 .1.1.1zm-.1-.1s0-.1 0 0c-.1 0 0 0 0 0zm.5.9c0-.1-.1 0 0 0-.2.1.2 0 0 0zm-.2-1.1l-.1.1h.1zm.3.5l-.1-.1h-.1l.2.1zm-.1-.1zm-.1-.3v.1h.1zm1.2 1.3l.1.1v-.1h-.1zm-.1-.5v.1-.1zm.3.2c.1 0 .2.1 0 0 .1 0 0-.1 0 0zm1.4 1.5l-.1-.1-.1.2zm1.7.6c-.1-.1-.1.1-.2 0-.1 0 .1.1 0 .1.1 0 .1 0 .2-.1zm-.2.1zm2.2-5.3h.1l-.1-.1zm.1-.2v.2-.2c.1 0 .1 0 0 0zm-4.3 3.9c.1-.1.1-.1 0-.1v.1zm-.7-1.2l.1-.1zm-.8-.9l.1.1c-.1 0 0-.2-.1-.1z"/></svg><svg id="domsters_logo" viewBox="-1 -1 255.4 111.7" width="255.4" height="111.7" x="362" y="452" xmlns="http://www.w3.org/2000/svg"><style>.dst0{fill:#ef4a23}.dst1{enable-background:new}.dst2{fill:#fff}</style><path class="dst0" d="M196.6 46.9c1.1-.1 2.3-.1 3.4-.2l1.5.2c.2 0 .5 0 .7-.3.1-.1.1-.2.1-.3.2-.3.3-.5.3-.9 0-.3-.1-.6-.4-.9-.2-.2-.6-.4-1-.4l-4.7.3c-1.4.1-2.9.2-4.4.3.2-1.7.5-3.4.8-5.1l.8-5 .1-.4c0-.3 0-.7-.2-.9-.2-.4-.5-.5-.7-.6-.3-.2-.7 0-.9.1h-.1c-.2.2-.4.5-.5.8-.2 1-.3 1.9-.5 2.9-.2.9-.3 1.9-.5 2.8l-.9 5.5c-.8.1-1.7.2-2.5.2-.9 0-1.8.1-2.7.2-.5 0-.8.3-1 .5-.2.3-.3.6-.3.9 0 .3.1.6.4.9.2.2.6.4 1 .4s.9-.1 1.3-.1c.5 0 .9-.1 1.3-.1s.9-.1 1.3-.1c.3 0 .7 0 1-.1-.5 4.2-.9 8-1.3 11.4-1.8.7-3.3 1.4-4.9 2.4-1.4.9-2.9 1.9-4.4 3.1-.5-.3-.8-.7-1.1-1.1-.3-.5-.4-1-.4-1.7.2-.3.3-.6.5-.9s.3-.7.1-1l.3-.6c.4-.8.9-1.5 1.5-2 .6-.6 1.1-1.1 1.6-1.5.4-.3.5-.6.5-.9s-.1-.6-.4-.9c-.2-.2-.5-.4-.8-.5-.4-.1-.7 0-1 .2-1.3 1.1-2.4 2.3-3.3 3.8-.5.9-.9 1.8-1.1 2.7-.3.7-.6 1.4-.7 2.5-.2.3-.4.6-.6.8-.3.5-.7 1-1.1 1.4-.1.2-.3.4-.5.6-.2.2-.3.4-.5.6-.3.2-.5.4-.7.7-.1.1-.2.3-.4.4l-.6.6c-.2.2-.3.3-.5.3-.3.1-.9.2-1.1-.2s-.4-.9-.5-1.2c-.2-1.1-.3-2.1-.3-3.2 0-1-.1-2-.2-2.9v-.3c-.1-.8-.2-1.7-.2-2.8 0-1.1-.2-2.1-.6-2.9-.3-.5-.8-1.1-1.5-1.1s-1.2.1-1.8.4c-.6.3-1.2.7-1.7 1.1-.5.4-.9.8-1.2 1.1-.8 1-1.5 2-2 3-.3.5-.6 1.1-.8 1.6l-.3.6v-2.8c0-1.3 0-2.6.1-3.9 0-.4-.1-.8-.6-1.1-.4-.4-.9-.4-1.3 0-1.1.7-2 1.7-2.7 2.9-.6 1.1-1.2 2.2-1.6 3.4-.2.6-.4 1.2-.7 1.8l-.6 1.8c-.3 1-.8 1.9-1.4 2.7-.3-2.5-.4-4.9-.4-7.1 0-.4-.1-.7-.4-1-.3-.3-.5-.4-.9-.4s-.6.1-.9.4c-.2.2-.3.5-.4.9-.1 0-.1 0-.2.1l-.3.1c-.6.3-1.4.6-2.2.9-.7.3-1.5.5-2.5.6.1-1.2.1-2.3 0-3.5-.1-1.2-.3-2.4-.8-3.8-.3-.9-.9-1.7-1.8-2.5s-1.9-.9-3-.3c-.6.2-1.2.6-1.6 1.2-.4.5-.7 1.1-.9 1.8-.2.6-.3 1.3-.4 1.9-.1.7-.1 1.4 0 1.9l.3 1.5c-1.1.3-2.4.7-3.9 1.1-1.1.3-2.2.8-3.2 1.2.7-1.8 1.3-3.9 2-6.5.6-2.3 1-4.5 1.3-7.1.2-1.6.3-3.1.3-4.5 0-1.5-.1-2.9-.3-4.4-.1-.9-.3-1.7-.6-2.6-.3-.9-1-1.4-2.2-1.7-1-.1-1.8.1-2.7.6-.9.6-1.6 1.1-2.1 1.6-1.1.9-2.1 1.8-2.9 2.7-.8.8-1.6 1.8-2.5 3-1.8 2.4-3.4 4.9-4.7 7.4l-3.9 7.8c-.6 1.4-1.2 2.7-1.8 4-.3.8-.6 1.5-1 2.3.1-1.1.2-2.2.2-3.3.1-1.5.2-3 .2-4.5s0-3-.1-4.5l-.3-3.8c0-1.3-.3-2.5-.8-3.7-.3-1-.8-1.7-1.4-2.3-.6-.6-1.3-.9-2.3-1.2-1.2-.2-2.3 0-3.4.6-1 .6-1.9 1.3-2.6 2-2 1.9-3.5 3.9-4.6 6.2-1.1 2.4-1.9 4.7-2.4 7.2 0 .3 0 .7.2.9 0 .2.1.4.2.5.2.3.4.4.6.5.2.1.5 0 .7-.1.2-.2.4-.4.5-.7.1-.1.2-.3.3-.5.4-2.2 1-4.2 1.9-5.9.6-1.3 1.4-2.5 2.3-3.7.3-.4.7-.8 1-1.2.3-.4.7-.8 1.2-1.3s1-.9 1.6-1.2c.5-.3 1.1-.5 1.7-.5.6 0 1.1.3 1.6.9.5.5.8 1.2 1 2v.2c.1 1.1.2 2.2.3 3.1.4 5 .4 9.6-.2 13.9-.6 5-1.6 9.4-2.9 13.7-.1.4-.1.7 0 .9 0 .2 0 .4.2.6.1.3.3.4.6.5.3.1.5 0 .8-.1.3-.2.5-.4.6-.7v-.1c.1-.1.2-.3.3-.5v-.2c0-.1.1-.2.1-.3l.1-.2c0-.1 0-.1.1-.2l.2-.3c1.5-3.8 3.2-7.9 5.3-12.8 2.2-4.9 4.2-8.9 6.1-12.5l.9-1.8c.6-1 1.2-2.1 1.9-3 1.2-1.8 2.4-3.4 3.8-4.9.6-.7 1.3-1.4 2-2.1.7-.6 1.5-1.2 2.3-1.7.8-.4 1.3-.4 1.7 0 .2.2.4.5.5.8 0 .1.1.3.1.5.2.8.2 1.7.2 2.5v2c-.1 3.4-.5 6.6-1.3 9.6-.8 3.3-1.8 6.3-3.1 9.3-2.7 1.4-5.4 3.1-8 5-2.5 1.9-4.7 4.1-6.5 6.5-.4.5-.8 1.1-1.2 1.9l-.3.5c-.4.8-.8 1.9-1 3-.2 1-.2 2.1 0 3 .1.3.3.6.4.9.3.8.8 1.5 1.6 1.9.4.2.8.4 1.3.3.5 0 1-.2 1.4-.4.5-.3.9-.6 1.3-.9.4-.3.8-.6 1.1-.9.9-.8 1.8-1.8 2.6-2.8s1.6-2 2.3-3.1c2.8-4 5.1-8.1 6.9-12.4 1.5-.7 3.1-1.3 4.6-1.9l2.4-.9v.3c-.3.9-.5 1.7-.6 2.5-.2.8-.2 1.7-.1 2.7.1.9.3 1.6.6 2.4l.6.9c.5.9 1.3 1.5 2.3 1.9 1.1.4 2.2.1 3.1-.8 1.1-1.1 1.9-2.4 2.3-4.1.5-1.6.8-3.2 1-4.6 1-.1 2.1-.4 3.1-.7.8-.2 1.5-.5 2.3-.8 0 .7.1 1.4.2 2.1.2 1.6.4 3.3.6 5 .1.3.2.6.5.8.1.3.3.6.6.7.4.1.7.1 1.1-.2.9-.8 1.6-1.8 2.2-2.9.6-1.1 1.1-2.2 1.5-3.4s.9-2.4 1.3-3.5c.4-.9.9-1.7 1.4-2.5-.1 1.1-.1 2.2-.1 3.4 0 1.5 0 3.1-.1 4.7 0 .4.1.7.4.9.1.4.3.6.7.7.5.1.8-.1 1.1-.5.5-.8 1.1-1.7 1.5-2.6.4-.9.9-1.8 1.3-2.7.5-.9 1-1.8 1.5-2.6.5-.9 1.2-1.6 1.9-2.3l.6-.6c.2-.2.3-.3.5-.4l.1-.1v.2c.1.5.2 1.2.2 1.7s0 1.1.1 1.7c0 .5.1 1.1.1 1.7 0 .6.1 1.2.1 1.7 0 1.2.1 2.2.3 3.3.1.7.3 1.3.6 2 .1.2.2.3.4.5v.1c.3.5.7 1 1.2 1.3s1 .5 1.6.5c.6 0 1.2-.2 1.8-.6 1.5-1 2.9-2.3 4-4 .4-.5.7-1 1-1.5l.1-.1c0 .1.1.2.1.2.3.4.6.8 1 1.2-.1 0-.1.1-.2.1-.2.2-.4.3-.6.5-.4.3-.8.6-1.2 1-.5.3-.9.7-1.3 1.1-.4.4-.8.8-1.1 1.2-.4.4-.6 1-.9 1.5-.1.7-.1 1.2.1 1.8.1.4.3.7.5 1 .3.8.8 1.4 1.5 1.8.8.5 1.6.7 2.5.6.9 0 1.8-.3 2.7-.9.9-.6 1.6-1.3 2.2-2.1.6-.8 1-1.7 1.2-2.7.1-.3.1-.6.1-.9.2-1.2.2-2.1-.2-3-.2-.3-.4-.7-.7-1 1.1-.8 2.2-1.6 3.3-2.3.9-.5 1.9-1 2.8-1.4-.2 2.4-.4 4.7-.5 6.9-.5 7.4-.8 14.9-.9 22.4 0 .4.1.7.4 1 0 .3.1.5.3.7.2.2.4.3.7.3s.5-.1.7-.3.3-.5.3-.8v-.2c.1-.2.2-.5.2-.7.1-7.5.4-15 .9-22.4.5-6.3 1.2-13.8 2.3-21.4 1.7-.1 3.2-.2 4.8-.3zm-93.3 18.9c.2-.9.2-1.7.3-2.5-.1.8-.1 1.6-.3 2.5zm34.2-5c-.3-.2-.8-.4-1.3-.6-.6-.3-1.1-.7-1.4-1.2-.4-.6-.6-1.4-.8-2.7 0-1.2.2-2.1.7-2.6.4-.5.6-.7.8-.7.1 0 .2 0 .2.1.4.1.6.4.7.7.2.4.4.9.6 1.4.1.5.2 1 .3 1.3.2 1.5.3 3 .2 4.3zm-2.5 1.6c.4.2.9.4 1.5.6.3.1.7.2 1 .2-.3 1.5-.7 2.9-1.1 4.2l-.3.6c-.1.3-.3.6-.4.9-.2.5-.4.9-.8 1.2-.5.4-.9.5-1 .4-.3-.2-.5-.4-.7-.8-.2-.4-.3-.9-.4-1.3-.1-.5-.1-.8-.1-1.1 0-1.1.2-2.1.4-3.1.1-1 .5-1.9.8-2.6.4.2.7.5 1.1.8zm-15.6 5.9c-.1.2-.2.5-.4.7-.4.7-.8 1.5-1.2 2.3-.6 1.2-1.3 2.5-2 3.6-1 1.5-2.3 3.4-4 5.2l-1.2 1.2c-.5.5-1 .8-1.4 1-.4.2-.8.3-1.1.2-.1 0-.4-.3-.5-1.4-.1-1.1.1-2 .7-2.9.6-1 1.2-1.9 1.8-2.7 1.5-1.9 3.2-3.6 5.1-5.1 1.7-1.3 3.3-2.5 4.9-3.4-.2.2-.3.3-.3.5-.2.3-.3.5-.4.8zm60.7 1.3c-.1.6-.3.9-.7 1.2h-.1v.1c-.2.5-.5 1-1 1.4-.4.4-.8.7-1.4.8-.3.1-.9.3-1.5.1-.4-.1-1.1-.3-1-.9 0-.5.3-1 .7-1.5.5-.6 1.1-1.1 1.7-1.6.3-.2.5-.4.7-.6.3-.2.5-.3.6-.5.2-.1.4-.3.6-.5.1-.1.2-.2.3-.2.1 0 .1-.1.2-.1.3.3.5.6.7.9s.3.7.2 1.4zm-13.5-14.8c.4.8.6 1.7.6 2.7 0 1.1.1 2.1.2 2.8v.3c.1 1 .2 1.9.2 2.9 0 1.1.1 2.1.3 3.3.1.4.3.9.5 1.4v.1c-.1-.1-.2-.1-.2-.3-.2-.4-.4-.9-.5-1.3-.2-1.1-.3-2.1-.3-3.2s-.1-2.1-.2-3.2c-.1-.8-.2-1.7-.2-2.8 0-1.1-.2-2-.6-2.8-.2-.3-.4-.5-.6-.7.3.1.5.4.8.8zm-9.6-.2c0-.2-.1-.4-.2-.6.1.1.2.3.2.6zm-29.5-18.5c.3.8.5 1.6.6 2.4.2 1.5.3 2.9.3 4.4 0 1.4-.1 2.9-.3 4.5-.3 2.6-.7 4.8-1.3 7.1-.7 2.8-1.4 5-2.2 7l-.1.2c.9-2.3 1.6-4.7 2.2-7 .6-2.4 1-4.7 1.3-7.1.2-1.6.3-3.1.3-4.5 0-1.5-.1-2.9-.3-4.4-.1-.9-.3-1.7-.5-2.6-.3-.5-.7-.9-1.3-1.2.7.3 1.1.6 1.3 1.2zM74.8 59.2c-.2-.2-.6-.2-.9-.2-.4 0-.7.2-.9.5-.1.2-.3.4-.4.6-.3.4-.6.8-.8 1.2-.2.2-.5.5-.7.8-.2.3-.5.5-.7.8-.8.7-1.6 1.4-2.4 2.2-.8.7-1.6 1.3-2.6 2-.8.6-1.8 1-3 1.3-1 .3-2.1.1-3.1-.6-.5-.3-.8-.7-1-1.1-.3-.6-.3-1-.3-1.5 0-.4.1-.8.2-1.3l.1-.5c.1-.3.1-.7.2-1.1 1.3.7 2.6.7 4 .1 1.4-.7 2.6-1.8 3.4-3.3.5-.7.9-1.6 1.3-2.9.3-1.2.4-2.3.2-3.2-.2-1-.7-1.7-1.4-2-.8-.3-1.5-.3-2.4 0-1.1.4-2 1-2.9 1.9-1 1-1.7 1.9-2.2 2.7-.7 1-1.2 2-1.6 3.2-.2.5-.3.9-.4 1.3-.7 1-1.6 2.1-2.9 3.4-.3.2-.6.5-1 1-.3.4-.6.8-1 1.1-.3.3-.7.6-1.1.9-.3.3-.6.3-1 .4-.3.1-.6-.1-.7-.5-.2-.5-.3-1-.4-1.6v-3.5c0-.6 0-1.1-.1-1.6v-1.6c0-1.1 0-2.1-.1-3.2 0-.5-.3-.9-.8-1.1-.5-.2-1-.1-1.4.2-1.7 1.6-3.3 3.3-4.5 4.9-1.2 1.4-2.1 3-3 4.5.8-6.3 1.8-12.6 2.8-19.2l.3-1.7c.1-.8.3-1.5.4-2.3 1.3-.1 2.5-.3 3.8-.4 4.7-.5 9.4-.9 14.2-1.3.3 0 .6-.1.9-.4.2-.3.3-.6.3-.9s-.1-.6-.4-.9c-.2-.2-.6-.4-1-.4-4.8.3-9.7.8-14.4 1.3-1 .1-2 .2-2.9.3.8-4.5 1.7-9.1 2.6-13.7 0-.3 0-.7-.2-.9-.2-.3-.5-.4-.7-.5-.4-.1-.7-.1-1 0-.3.2-.4.5-.5.8-1 4.9-1.9 9.8-2.8 14.7-2.9.4-5.9.8-8.7 1.2-.2 0-.5 0-1 .2-3.1.5-6.2 1-9.2 1.5s-6.2 1.1-9.2 1.7c-.3 0-.7.2-.8.6-.1.3-.1.6 0 .9 0 .4.3.6.5.8.2.2.6.3 1 .2 3-.6 5.9-1.1 8.6-1.6 2.8-.5 5.5-1 8.2-1.4-.9 7.9-2 16.3-3.1 24.7-1 8.3-2.1 16.7-3.2 24.8v.1c-.1.5 0 .8.3 1 .3.3.6.4.9.4.3 0 .6-.1.9-.4.2-.2.4-.6.5-.9 2-14.7 4.1-30.6 6.4-50 2.5-.4 4.9-.7 7.4-1-1.8 10.6-3.3 21.4-4.5 32.1 0 .3 0 .6.3.9l.7.3c.1 0 .2.1.3.1.2 0 .5-.1.6-.2.3-.1.5-.4.6-.8.8-3.3 1.9-6.1 3.5-8.3 1.3-2.4 3-4.6 5.1-6.8l.2 6.7v1.5c0 .4.1.9.2 1.4.1.5.4.9.7 1.3.4.5 1 .6 1.6.7 1.2.1 2.2-.2 3-.8.9-.6 1.6-1.2 2.3-1.8l.2-.1 1.3-1.3c0 1.3.4 2.4 1.3 3.4.7.9 1.7 1.5 2.7 1.8.7.2 1.4.3 2 .3.4 0 .8 0 1.2-.1 1.7-.2 3-.7 4.2-1.6.9-.6 1.7-1.3 2.6-2 .3-.2.6-.5.9-.7.9-.8 1.9-1.7 2.8-2.6 1.1-1.1 1.8-2 2.5-3 .1-.3.2-.7.1-1-.5-.5-.7-.8-1-.9zm-15.7.3c.5-1.1 1-2.1 1.5-2.8.2-.2.4-.4.6-.7l.3-.4c.4-.5.9-.9 1.4-1.3.5-.4 1-.7 1.3-.8h.2c.1.1.2.3.3.6.1.3 0 .6-.1 1.1v.1c-.2.5-.4 1-.6 1.4s-.5.9-.8 1.3c-.1.2-.3.3-.4.5-.2.2-.3.4-.4.5-.6.7-1.1 1-1.8 1.2-.4.1-.8 0-1.3-.3-.1-.2-.1-.3-.2-.4z"/><path class="dst0" d="M235.4 59.7c-.1-.2-.3-.5-.5-.7-.2-.2-.6-.3-1.1-.2-2 .7-3.6 1.5-5.2 2.5-1.4.9-2.9 1.9-4.4 3.1-.5-.3-.8-.7-1.1-1.1-.3-.5-.5-1.1-.4-1.9.2-.8.5-1.6.9-2.2.4-.8.9-1.5 1.5-2l.1-.1c.2.1.4.1.7 0 .2-.1.4-.2.7-.4.3-.3.4-.5.4-.9v-.2c.2-.2.3-.5.3-.8 0-.3-.1-.6-.4-.9-.2-.2-.5-.4-.8-.5-.4-.1-.7 0-1 .2-1.4-.8-2.9-1-4.3-.4-1.8.5-3.3 1.6-4.8 3.6-.5.7-1 1.4-1.4 2.1-.2.3-.3.6-.5.8 0 0 0-.1-.1-.1v-.2c.1-.3.1-.6.2-.9.1-.3.1-.7.2-1 0-.3 0-.7-.3-1-.2-.2-.5-.4-.8-.5-.4-.1-.7-.1-1 0-.3.2-.4.5-.5.8-.1 1-.3 2-.4 3 0 .1-.1.1-.1.2-.3.4-.6.8-.8 1.2-.2.2-.5.5-.7.8s-.5.5-.7.8c-.8.7-1.6 1.4-2.4 2.2-.8.7-1.6 1.3-2.6 2-.8.6-1.8 1-3 1.3-1 .3-2.1.1-3.1-.6-.5-.3-.8-.7-1-1.1-.2-.5-.3-.9-.3-1.4 0-.4.1-.8.2-1.3l.1-.5c.1-.3.1-.7.2-1.1 1.3.7 2.6.7 4 .1 1.4-.7 2.6-1.8 3.4-3.3.5-.7.9-1.6 1.3-2.9.3-1.2.4-2.3.2-3.2-.2-1-.7-1.7-1.4-2-.8-.3-1.5-.3-2.4 0-1.1.4-2 1-2.9 1.9-1 1-1.7 1.9-2.2 2.7-.4.5-.7 1-.9 1.6-.3.6-.5 1.1-.8 1.7-.4 1.1-.7 2.1-1 3.1-.3 1.2-.5 2.3-.5 3.5s.4 2.3 1.2 3.2l.2.2c.7.9 1.7 1.5 2.7 1.8.7.2 1.4.3 2 .3.4 0 .8 0 1.2-.1 1.7-.2 3-.7 4.2-1.6.9-.6 1.7-1.3 2.6-2 .3-.2.6-.5.9-.7.7-.7 1.4-1.3 2-2-.1 2-.2 4-.1 6 0 .4.2.6.4.8h.1c.1.1.2.2.2.3.3.2.6.3.9.3.3 0 .6-.1.9-.4.2-.2.4-.6.4-1 0-1.9.4-4 1.3-6.1.7-2 1.7-3.8 3-5.6.4-.7.9-1.4 1.7-2.2.5-.6 1.1-1.1 1.6-1.2.5-.3 1-.3 1.7-.1.1 0 .2.1.3.1-.5.6-1.1 1.3-1.5 2.1-.9 1.5-1.4 3.1-1.3 4.7.1.7.3 1.3.6 1.9.4.5.8 1 1.3 1.5.2.1.3.2.4.3-.4.3-.8.7-1.2 1-.4.3-.8.6-1.2 1-.5.3-.9.7-1.3 1.1-.4.4-.8.8-1.1 1.2-.4.4-.6.9-.8 1.4-.1.6-.1 1.1.1 1.7.3.9.8 1.6 1.6 2 .4.3.9.4 1.3.5.4.2.8.3 1.3.3h.5c.9 0 1.9-.3 2.8-.9.9-.6 1.6-1.3 2.3-2.2.6-.8 1-1.8 1.2-2.8.2-1.2.2-2.2-.2-3.1-.3-.5-.6-1-1-1.4 1.2-.9 2.4-1.9 3.6-2.6 1.2-.7 2.7-1.5 4.2-1.9h.1c.1 0 .1-.1.2-.1.2-.1.5-.3.6-.6-.3-.3-.4-.5-.5-.9zm-32.5-6.3c.1.1.2.3.3.6.1.3 0 .6-.1 1.1v.1c-.1.2-.2.5-.3.7-.1.2-.2.5-.3.7-.2.4-.5.9-.8 1.3-.1.2-.3.3-.4.5-.2.2-.3.4-.4.5-.6.7-1.1 1-1.8 1.2-.5.2-1 0-1.6-.4.5-1.2 1.1-2.3 1.6-3 .2-.2.4-.4.6-.8l.3-.4c.4-.5.9-.9 1.4-1.3s1-.7 1.3-.8h.2zm22.6 16.2c-.1.6-.3.9-.7 1.2h-.1v.1c-.2.5-.5 1-1 1.4-.4.4-.8.7-1.4.8-.3.1-.9.3-1.5.1-.4-.1-1.1-.3-1-.9 0-.5.3-1 .7-1.5.5-.6 1.1-1.1 1.7-1.6.3-.2.5-.4.7-.6.3-.2.5-.3.6-.5.2-.1.4-.3.6-.5.1-.1.2-.2.3-.2.1 0 .1-.1.2-.1.3.3.5.6.7.9.2.3.3.7.2 1.4z"/><g class="dst1"><path class="dst2" d="M63 30.5h.8c.7 0 1.3-.3 1.3-1.4V18h2.3v11c0 2.9-1.6 3.7-3.3 3.7H63v-2.2zm13.4 2.1H74l-.4-2.6h-2.8l-.4 2.6h-2.1L70.7 18H74l2.4 14.6zM71.1 28h2.2l-1.1-7.4-1.1 7.4zm7.4-.2L75.6 18H78l1.7 6.6 1.7-6.6h2.2l-2.9 9.7v4.8h-2.3v-4.7h.1zm12.4-9.9c2.2 0 3.4 1.3 3.4 3.7v.4h-2.2v-.6c0-1-.4-1.4-1.1-1.4s-1.1.4-1.1 1.4c0 1.1.5 1.9 2 3.2 1.9 1.7 2.5 2.9 2.5 4.6 0 2.3-1.2 3.7-3.4 3.7s-3.4-1.3-3.4-3.7v-.9h2.2v1c0 1 .5 1.4 1.2 1.4s1.2-.4 1.2-1.4c0-1.1-.5-1.9-2-3.2-1.9-1.7-2.5-2.9-2.5-4.6-.1-2.3 1-3.6 3.2-3.6zm7.7 8.9l-.7 1.3v4.5h-2.3V18h2.3v6.3l3-6.3h2.3l-3.2 6.5 3.2 8.1h-2.4l-2.2-5.8zm10.4 5.8c-.1-.4-.2-.6-.2-1.8v-2.3c0-1.4-.5-1.9-1.5-1.9h-.8v5.9h-2.3V18h3.5c2.4 0 3.4 1.1 3.4 3.3v1.1c0 1.5-.5 2.5-1.5 2.9 1.1.5 1.5 1.6 1.5 3.1v2.2c0 .7 0 1.2.2 1.8H109v.2zm-2.5-12.5v4.5h.9c.9 0 1.4-.4 1.4-1.5v-1.4c0-1-.4-1.5-1.2-1.5h-1.1v-.1zm6.1-2.1h2.3v14.6h-2.3V18zm10.7 3.6v1.9c0 2.3-1.1 3.6-3.4 3.6h-1.1v5.5h-2.3V18h3.4c2.3 0 3.4 1.3 3.4 3.6zm-4.4-1.5V25h1.1c.7 0 1.1-.3 1.1-1.4v-2.2c0-1-.4-1.4-1.1-1.4h-1.1v.1zm4.8-2.1h7.1v2.1h-2.4v12.5h-2.3V20.1h-2.4V18z"/></g><g class="dst1"><path class="dst2" d="M155.1 24.7c0 1.3-.9 2.8-2.3 3.6.6 1.3 1.5 2.6 2.5 3.9 0-2.7 1.2-5.5 4.1-5.5 1.8 0 3.1 1.2 3.1 2.8 0 1.4-1 2.8-2.5 2.8-1 0-2-.6-2.1-1.9.8-.2 1.2-.9 1.2-1.7 0-.7-.4-1.2-1.1-1.2-1.6 0-2.6 2.8-2.5 4.9 1.9 2.3 4.3 4 6.3 4 .6 0 .9-.4 1.2-.9l.1.1c-1.3 2.4-2.8 3.6-4.4 3.6-1.5 0-3.2-.8-4.7-2.1-1.8 1.5-3.5 2.1-5.1 2.1-3.5 0-5.3-2.2-5.3-4.6 0-2.3 1.7-4.5 5.2-5-.4-1.1-.6-2.2-.6-3.1-.1-4.4 6.9-5.1 6.9-1.8zm-7.5 7.8c0 2.5 1.8 5.2 4.4 5.2.6 0 1.2-.2 1.8-.7-2.2-1.9-4.1-4.7-5.1-7.2-.9.4-1.1 1.8-1.1 2.7zm4.2-7.6c0 .9.3 2.1.9 3.3 1.3-.7 2.2-2.2 2.2-3.5 0-2.1-3.1-2.4-3.1.2z"/></g></svg><svg id="facebook" viewBox="-1 -1 200.9 174" width="200.9" height="174" x="362" y="563.7" xmlns="http://www.w3.org/2000/svg"><style>.st0{fill:#ef4a23}.est1{fill:#ef4a24}.st2{fill:#fff}.est3{fill:none;stroke:#ef4a24;stroke-width:6;stroke-miterlimit:10}</style><circle class="est3" cx="99.5" cy="86" r="39.9"/><path class="est1" d="M116.3 63.9H82.6c-2.9 0-5.3 2.4-5.3 5.3v33.7c0 2.9 2.4 5.3 5.3 5.3h33.7c2.9 0 5.3-2.4 5.3-5.3V69.2c0-2.9-2.4-5.3-5.3-5.3zm-4.2 15.8H110c-2.3 0-3.2.5-3.2 2.1V85h5.3l-1.1 5.3h-4.2V106h-5.3V90.2h-4.2V85h4.2v-3.2c0-4.2 2.1-7.4 6.3-7.4 3.1 0 4.2 1.1 4.2 1.1v4.2z"/></svg><svg id="instagram" viewBox="-1 -1 200.9 174" width="200.9" height="174" x="562.9" y="563.7" xmlns="http://www.w3.org/2000/svg"><style>.st0{fill:#ef4a23}.fst1{fill:#ef4a24}.st2{fill:#fff}.fst3{fill:none;stroke:#ef4a24;stroke-width:6;stroke-miterlimit:10}</style><path class="fst1" d="M89.6 62.6c-7.9 0-14.2 6.4-14.2 14.2v19.7c0 7.9 6.4 14.2 14.2 14.2h19.7c7.9 0 14.2-6.4 14.2-14.2V76.8c0-7.9-6.4-14.2-14.2-14.2H89.6zm23 8.8c1.2 0 2.2 1 2.2 2.2 0 1.2-1 2.2-2.2 2.2s-2.2-1-2.2-2.2c0-1.3 1-2.2 2.2-2.2zm-13.1 3.2c6.6 0 12 5.4 12 12s-5.4 12-12 12-12-5.4-12-12 5.3-12 12-12zm0 2.2c-5.4 0-9.9 4.4-9.9 9.9s4.4 9.9 9.9 9.9 9.9-4.4 9.9-9.9-4.5-9.9-9.9-9.9z"/><circle class="fst3" cx="99.5" cy="86.7" r="39.9"/></svg><svg id="twitter" viewBox="-1 -1 200.9 174" width="200.9" height="174" x="864" xmlns="http://www.w3.org/2000/svg"><style>.st0{fill:#ef4a23}.gst1{fill:#ef4a24}.st2{fill:#fff}.gst3{fill:none;stroke:#ef4a24;stroke-width:6;stroke-miterlimit:10}</style><path class="gst1" d="M129.4 70.4c-2.1.9-4.3 1.6-6.7 1.8 2.4-1.4 4.2-3.7 5.1-6.4-2.2 1.3-4.7 2.3-7.4 2.8-2.1-2.3-5.1-3.7-8.5-3.7-6.4 0-11.6 5.2-11.6 11.6 0 .9.1 1.8.3 2.7-9.7-.5-18.2-5.1-24-12.2-1 1.7-1.6 3.7-1.6 5.8 0 4 2 7.6 5.2 9.7-1.9-.1-3.7-.6-5.3-1.5v.1c0 5.6 4 10.3 9.3 11.4-1 .3-2 .4-3.1.4-.8 0-1.5-.1-2.2-.2 1.5 4.6 5.8 8 10.9 8.1-4 3.1-9 5-14.4 5-.9 0-1.9-.1-2.8-.2 5.1 3.3 11.3 5.2 17.8 5.2 21.4 0 33.1-17.7 33.1-33.1v-1.5c2.4-1.4 4.3-3.5 5.9-5.8z" id="gsurface1_1_"/><circle class="gst3" cx="99.5" cy="86" r="39.9"/></svg><svg id="youtube" viewBox="-1 -1 200.9 174" width="200.9" height="174" x="864" y="174" xmlns="http://www.w3.org/2000/svg"><style>.st0{fill:#ef4a23}.hst1{fill:#ef4a24}.st2{fill:#fff}.hst3{fill:none;stroke:#ef4a24;stroke-width:6;stroke-miterlimit:10}</style><circle class="hst3" cx="99.5" cy="86" r="39.9"/><path class="hst1" d="M84.6 59.8L88.3 71v7.5h2.5V71l3.7-11.2H92l-2.5 7.5-2.5-7.5h-2.4zm13.6 5c-1.3 0-2 .2-2.8.9-.8.7-1 1.2-.9 2.9v6.2c0 1.2.2 2.1 1 2.8.8.7 1.5 1 2.8 1 1.3 0 2-.2 2.8-1 .8-.7.9-1.5.9-2.8v-6.2c0-1.1-.2-2.1-.9-2.8-.9-.9-1.7-1-2.9-1zm6.2 0V76c0 1.2 1.2 2.5 2.5 2.5s1.9-.6 2.5-1.2v1.2h2.5V64.8h-2.5v9.9c0 .8-1 1.2-1.2 1.2-.3 0-1.2-.1-1.2-1.2v-9.9h-2.6zm-6.2 2.4c.4 0 1.2 0 1.2 1.2v6.2c0 1.2-.8 1.2-1.2 1.2-.4 0-1.2 0-1.2-1.2v-6.2c0-.9.5-1.2 1.2-1.2zM80.8 80.9c-4.5 0-7.5 3-7.5 7.5v11.8c0 4.5 3 8.1 7.5 8.1h37.3c4.5 0 7.5-3 7.5-7.5V88.4c0-4.5-3-7.5-7.5-7.5H80.8zm2.5 5h7.5v2.5h-2.5v14.9h-2.5V88.4h-2.5v-2.5zm17.4 0h2.5v5c.3-.4.7-.8 1.1-1 .4-.2.8-.3 1.2-.3.8 0 1.4.3 1.9.8.4.5.8 1.3.8 2.3v7.5c0 .9-.3 1.5-.7 2-.4.5-1 1.1-1.8 1.1-1.3 0-2-.7-2.5-1.2v1.2h-2.5V85.9zm-9.9 3.7h2.5v9.9c0 .3.3 1.3 1.2 1.2 1 0 1-1 1.2-1.2v-9.9h2.5v13.7h-2.5V102c-.5.5-.7.7-1.2 1-.5.3-1 .3-1.5.3-.6 0-1.3-.5-1.6-1-.3-.4-.6-.8-.6-1.5V89.6zm22.6 0c1.2 0 2 .3 2.6.9.6.7.8 1.4.8 2.7v3.9h-5V99c0 .7.1 1.1.3 1.4.2.3.5.4 1 .4s.8-.1 1-.3c.2-.2.2-.8.2-1.5v-.6h2.5v.6c0 1.4-.1 2.4-.8 3-.6.7-1.6 1-2.9 1-1.2 0-2.1-.3-2.8-1.1-.7-.7-1-1.7-1-3v-5.8c0-1.1.4-2 1.1-2.7.7-.5 1.8-.8 3-.8zm-9 1.9c-.7 0-1.2.6-1.2 1.2v7.5c0 .4.6.6 1.2.6.7 0 1.2-.5 1.2-1.2v-6.2c.1-1.3-.5-1.9-1.2-1.9zm8.7.6c-.7 0-1.2.6-1.2 1.2v1.2h2.5v-1.2c0-.7-.6-1.2-1.3-1.2z" id="hsurface1_2_"/></svg></svg>